<svg xmlns="http://www.w3.org/2000/svg" xmlns:xlink="http://www.w3.org/1999/xlink" width="160" zoomAndPan="magnify" viewBox="0 0 120 30.000001" height="40" preserveAspectRatio="xMidYMid meet" version="1.0"><defs><g/><clipPath id="8b562d21a9"><path d="M 3 5.921875 L 19 5.921875 L 19 23.339844 L 3 23.339844 Z M 3 5.921875 " clip-rule="nonzero"/></clipPath></defs><g clip-path="url(#8b562d21a9)"><path fill="#000000" d="M 8.152344 23.339844 C 6.816406 23.339844 4.929688 22.949219 3.050781 21.257812 L 4.527344 19.617188 C 7.164062 21.992188 9.914062 21.054688 10.765625 20.261719 C 10.820312 20.203125 10.878906 20.148438 10.933594 20.09375 C 8.15625 19.824219 6.125 17.855469 5.984375 17.714844 C 3.855469 15.617188 3.371094 12.773438 4.886719 11.234375 C 6.402344 9.695312 9.25 10.128906 11.382812 12.21875 C 11.570312 12.398438 13.644531 14.433594 14.050781 17.011719 C 14.671875 16.546875 15.15625 15.96875 15.503906 15.277344 C 15.855469 14.585938 16.027344 13.851562 16.03125 13.074219 C 16.035156 12.421875 15.914062 11.792969 15.660156 11.1875 C 15.410156 10.585938 15.050781 10.054688 14.582031 9.597656 C 13.613281 8.652344 12.242188 8.128906 10.730469 8.128906 L 10.730469 5.921875 C 12.820312 5.921875 14.738281 6.664062 16.125 8.011719 C 17.488281 9.339844 18.242188 11.136719 18.242188 13.074219 C 18.238281 13.78125 18.136719 14.472656 17.929688 15.152344 C 17.722656 15.828125 17.421875 16.460938 17.023438 17.046875 C 16.628906 17.632812 16.15625 18.152344 15.609375 18.597656 C 15.058594 19.042969 14.457031 19.402344 13.800781 19.667969 C 13.5 20.46875 12.988281 21.207031 12.273438 21.875 C 11.570312 22.53125 10.195312 23.261719 8.441406 23.335938 C 8.347656 23.339844 8.25 23.339844 8.152344 23.339844 M 7.222656 12.507812 C 6.914062 12.507812 6.648438 12.59375 6.460938 12.78125 C 5.917969 13.335938 6.261719 14.890625 7.535156 16.144531 L 7.542969 16.152344 C 7.558594 16.167969 9.554688 18.101562 11.914062 17.902344 L 11.914062 17.898438 C 11.925781 15.8125 9.878906 13.835938 9.855469 13.816406 L 9.839844 13.804688 C 9.085938 13.058594 8.011719 12.507812 7.222656 12.507812 " fill-opacity="1" fill-rule="nonzero"/></g><g fill="#000000" fill-opacity="1"><g transform="translate(18.461418, 21.774195)"><g><path d="M 4.953125 0 C 4.734375 0 4.5625 -0.0546875 4.4375 -0.171875 C 4.320312 -0.285156 4.242188 -0.445312 4.203125 -0.65625 L 1.078125 -16.140625 C 1.066406 -16.203125 1.0625 -16.253906 1.0625 -16.296875 C 1.0625 -16.347656 1.0625 -16.382812 1.0625 -16.40625 C 1.0625 -16.53125 1.109375 -16.640625 1.203125 -16.734375 C 1.296875 -16.835938 1.410156 -16.890625 1.546875 -16.890625 L 2.796875 -16.890625 C 3.140625 -16.890625 3.332031 -16.753906 3.375 -16.484375 L 5.84375 -4.03125 L 8.4375 -12.5625 C 8.488281 -12.707031 8.570312 -12.835938 8.6875 -12.953125 C 8.8125 -13.078125 8.988281 -13.140625 9.21875 -13.140625 L 10.109375 -13.140625 C 10.347656 -13.140625 10.523438 -13.078125 10.640625 -12.953125 C 10.753906 -12.835938 10.828125 -12.707031 10.859375 -12.5625 L 13.484375 -4.03125 L 15.921875 -16.484375 C 15.972656 -16.753906 16.175781 -16.890625 16.53125 -16.890625 L 17.78125 -16.890625 C 17.90625 -16.890625 18.015625 -16.835938 18.109375 -16.734375 C 18.210938 -16.640625 18.265625 -16.53125 18.265625 -16.40625 C 18.265625 -16.382812 18.257812 -16.347656 18.25 -16.296875 C 18.238281 -16.253906 18.234375 -16.203125 18.234375 -16.140625 L 15.125 -0.65625 C 15.070312 -0.445312 14.984375 -0.285156 14.859375 -0.171875 C 14.742188 -0.0546875 14.582031 0 14.375 0 L 13.4375 0 C 13.207031 0 13.03125 -0.0546875 12.90625 -0.171875 C 12.78125 -0.285156 12.691406 -0.429688 12.640625 -0.609375 L 9.65625 -9.796875 L 6.6875 -0.609375 C 6.625 -0.429688 6.53125 -0.285156 6.40625 -0.171875 C 6.28125 -0.0546875 6.109375 0 5.890625 0 Z M 4.953125 0 "/></g></g></g><g fill="#000000" fill-opacity="1"><g transform="translate(36.45575, 21.774195)"><g><path d="M 2.34375 0 C 2.175781 0 2.039062 -0.0507812 1.9375 -0.15625 C 1.832031 -0.257812 1.78125 -0.394531 1.78125 -0.5625 L 1.78125 -11.984375 C 1.78125 -12.148438 1.832031 -12.285156 1.9375 -12.390625 C 2.039062 -12.492188 2.175781 -12.546875 2.34375 -12.546875 L 3.5 -12.546875 C 3.65625 -12.546875 3.785156 -12.492188 3.890625 -12.390625 C 3.992188 -12.285156 4.046875 -12.148438 4.046875 -11.984375 L 4.046875 -0.5625 C 4.046875 -0.394531 3.992188 -0.257812 3.890625 -0.15625 C 3.785156 -0.0507812 3.65625 0 3.5 0 Z M 2.140625 -14.890625 C 1.984375 -14.890625 1.851562 -14.941406 1.75 -15.046875 C 1.644531 -15.148438 1.59375 -15.28125 1.59375 -15.4375 L 1.59375 -16.75 C 1.59375 -16.90625 1.644531 -17.039062 1.75 -17.15625 C 1.851562 -17.269531 1.984375 -17.328125 2.140625 -17.328125 L 3.671875 -17.328125 C 3.828125 -17.328125 3.960938 -17.269531 4.078125 -17.15625 C 4.191406 -17.039062 4.25 -16.90625 4.25 -16.75 L 4.25 -15.4375 C 4.25 -15.28125 4.191406 -15.148438 4.078125 -15.046875 C 3.960938 -14.941406 3.828125 -14.890625 3.671875 -14.890625 Z M 2.140625 -14.890625 "/></g></g></g><g fill="#000000" fill-opacity="1"><g transform="translate(40.966036, 21.774195)"><g><path d="M 1.546875 0 C 1.378906 0 1.242188 -0.0507812 1.140625 -0.15625 C 1.035156 -0.257812 0.984375 -0.394531 0.984375 -0.5625 L 0.984375 -1.40625 C 0.984375 -1.539062 1.019531 -1.671875 1.09375 -1.796875 C 1.164062 -1.929688 1.242188 -2.054688 1.328125 -2.171875 L 7.984375 -10.640625 L 1.765625 -10.640625 C 1.597656 -10.640625 1.460938 -10.6875 1.359375 -10.78125 C 1.253906 -10.875 1.203125 -11.007812 1.203125 -11.1875 L 1.203125 -11.984375 C 1.203125 -12.148438 1.253906 -12.285156 1.359375 -12.390625 C 1.460938 -12.492188 1.597656 -12.546875 1.765625 -12.546875 L 10.34375 -12.546875 C 10.507812 -12.546875 10.644531 -12.492188 10.75 -12.390625 C 10.851562 -12.285156 10.90625 -12.148438 10.90625 -11.984375 L 10.90625 -11.09375 C 10.90625 -10.945312 10.867188 -10.816406 10.796875 -10.703125 C 10.722656 -10.597656 10.644531 -10.476562 10.5625 -10.34375 L 3.984375 -1.90625 L 10.828125 -1.90625 C 11.003906 -1.90625 11.140625 -1.851562 11.234375 -1.75 C 11.335938 -1.65625 11.390625 -1.519531 11.390625 -1.34375 L 11.390625 -0.5625 C 11.390625 -0.394531 11.335938 -0.257812 11.234375 -0.15625 C 11.140625 -0.0507812 11.003906 0 10.828125 0 Z M 1.546875 0 "/></g></g></g><g fill="#000000" fill-opacity="1"><g transform="translate(51.868571, 21.774195)"><g><path d="M 3.984375 4.578125 C 3.847656 4.578125 3.734375 4.53125 3.640625 4.4375 C 3.546875 4.34375 3.5 4.226562 3.5 4.09375 C 3.5 4.03125 3.503906 3.96875 3.515625 3.90625 C 3.535156 3.84375 3.570312 3.765625 3.625 3.671875 L 5.46875 -0.75 L 0.875 -11.625 C 0.789062 -11.820312 0.75 -11.957031 0.75 -12.03125 C 0.75 -12.175781 0.796875 -12.296875 0.890625 -12.390625 C 0.984375 -12.492188 1.101562 -12.546875 1.25 -12.546875 L 2.4375 -12.546875 C 2.613281 -12.546875 2.738281 -12.503906 2.8125 -12.421875 C 2.894531 -12.335938 2.960938 -12.242188 3.015625 -12.140625 L 6.6875 -3.359375 L 10.453125 -12.140625 C 10.492188 -12.242188 10.554688 -12.335938 10.640625 -12.421875 C 10.734375 -12.503906 10.867188 -12.546875 11.046875 -12.546875 L 12.1875 -12.546875 C 12.332031 -12.546875 12.453125 -12.492188 12.546875 -12.390625 C 12.640625 -12.296875 12.6875 -12.1875 12.6875 -12.0625 C 12.6875 -11.976562 12.644531 -11.832031 12.5625 -11.625 L 5.71875 4.171875 C 5.664062 4.285156 5.59375 4.378906 5.5 4.453125 C 5.414062 4.535156 5.285156 4.578125 5.109375 4.578125 Z M 3.984375 4.578125 "/></g></g></g><g fill="#000000" fill-opacity="1"><g transform="translate(63.856593, 21.774195)"><g><path d="M 8.171875 0.234375 C 6.691406 0.234375 5.46875 -0.0351562 4.5 -0.578125 C 3.53125 -1.128906 2.796875 -1.894531 2.296875 -2.875 C 1.796875 -3.851562 1.519531 -4.992188 1.46875 -6.296875 C 1.457031 -6.953125 1.453125 -7.65625 1.453125 -8.40625 C 1.453125 -9.164062 1.457031 -9.894531 1.46875 -10.59375 C 1.519531 -11.894531 1.796875 -13.035156 2.296875 -14.015625 C 2.796875 -14.992188 3.53125 -15.753906 4.5 -16.296875 C 5.46875 -16.847656 6.691406 -17.125 8.171875 -17.125 C 9.285156 -17.125 10.257812 -16.972656 11.09375 -16.671875 C 11.9375 -16.367188 12.632812 -15.957031 13.1875 -15.4375 C 13.738281 -14.925781 14.160156 -14.351562 14.453125 -13.71875 C 14.742188 -13.082031 14.90625 -12.425781 14.9375 -11.75 C 14.945312 -11.601562 14.898438 -11.484375 14.796875 -11.390625 C 14.691406 -11.296875 14.566406 -11.25 14.421875 -11.25 L 13.09375 -11.25 C 12.945312 -11.25 12.820312 -11.285156 12.71875 -11.359375 C 12.613281 -11.441406 12.539062 -11.585938 12.5 -11.796875 C 12.226562 -13.046875 11.71875 -13.90625 10.96875 -14.375 C 10.21875 -14.84375 9.285156 -15.078125 8.171875 -15.078125 C 6.867188 -15.078125 5.835938 -14.707031 5.078125 -13.96875 C 4.328125 -13.238281 3.929688 -12.070312 3.890625 -10.46875 C 3.835938 -9.144531 3.835938 -7.796875 3.890625 -6.421875 C 3.929688 -4.804688 4.328125 -3.632812 5.078125 -2.90625 C 5.835938 -2.175781 6.867188 -1.8125 8.171875 -1.8125 C 9.285156 -1.8125 10.21875 -2.039062 10.96875 -2.5 C 11.71875 -2.96875 12.226562 -3.832031 12.5 -5.09375 C 12.539062 -5.300781 12.613281 -5.441406 12.71875 -5.515625 C 12.820312 -5.597656 12.945312 -5.640625 13.09375 -5.640625 L 14.421875 -5.640625 C 14.566406 -5.640625 14.691406 -5.59375 14.796875 -5.5 C 14.898438 -5.414062 14.945312 -5.300781 14.9375 -5.15625 C 14.90625 -4.488281 14.742188 -3.832031 14.453125 -3.1875 C 14.160156 -2.539062 13.738281 -1.957031 13.1875 -1.4375 C 12.632812 -0.925781 11.9375 -0.519531 11.09375 -0.21875 C 10.257812 0.0820312 9.285156 0.234375 8.171875 0.234375 Z M 8.171875 0.234375 "/></g></g></g><g fill="#000000" fill-opacity="1"><g transform="translate(78.594487, 21.774195)"><g><path d="M 2.359375 0 C 2.203125 0 2.070312 -0.0507812 1.96875 -0.15625 C 1.863281 -0.257812 1.8125 -0.394531 1.8125 -0.5625 L 1.8125 -16.578125 C 1.8125 -16.734375 1.863281 -16.863281 1.96875 -16.96875 C 2.070312 -17.070312 2.203125 -17.125 2.359375 -17.125 L 3.5 -17.125 C 3.675781 -17.125 3.8125 -17.070312 3.90625 -16.96875 C 4 -16.863281 4.046875 -16.734375 4.046875 -16.578125 L 4.046875 -0.5625 C 4.046875 -0.394531 4 -0.257812 3.90625 -0.15625 C 3.8125 -0.0507812 3.675781 0 3.5 0 Z M 2.359375 0 "/></g></g></g><g fill="#000000" fill-opacity="1"><g transform="translate(83.128894, 21.774195)"><g><path d="M 6.46875 0.234375 C 5.4375 0.234375 4.5625 0.00390625 3.84375 -0.453125 C 3.132812 -0.910156 2.59375 -1.546875 2.21875 -2.359375 C 1.851562 -3.179688 1.671875 -4.125 1.671875 -5.1875 L 1.671875 -11.984375 C 1.671875 -12.148438 1.722656 -12.285156 1.828125 -12.390625 C 1.929688 -12.492188 2.0625 -12.546875 2.21875 -12.546875 L 3.421875 -12.546875 C 3.585938 -12.546875 3.722656 -12.492188 3.828125 -12.390625 C 3.929688 -12.285156 3.984375 -12.148438 3.984375 -11.984375 L 3.984375 -5.3125 C 3.984375 -2.914062 5.023438 -1.71875 7.109375 -1.71875 C 8.109375 -1.71875 8.910156 -2.035156 9.515625 -2.671875 C 10.117188 -3.304688 10.421875 -4.1875 10.421875 -5.3125 L 10.421875 -11.984375 C 10.421875 -12.148438 10.472656 -12.285156 10.578125 -12.390625 C 10.679688 -12.492188 10.816406 -12.546875 10.984375 -12.546875 L 12.1875 -12.546875 C 12.34375 -12.546875 12.46875 -12.492188 12.5625 -12.390625 C 12.664062 -12.285156 12.71875 -12.148438 12.71875 -11.984375 L 12.71875 -0.5625 C 12.71875 -0.394531 12.664062 -0.257812 12.5625 -0.15625 C 12.46875 -0.0507812 12.34375 0 12.1875 0 L 11.046875 0 C 10.890625 0 10.757812 -0.0507812 10.65625 -0.15625 C 10.550781 -0.257812 10.5 -0.394531 10.5 -0.5625 L 10.5 -1.609375 C 10.0625 -1.046875 9.53125 -0.597656 8.90625 -0.265625 C 8.289062 0.0664062 7.476562 0.234375 6.46875 0.234375 Z M 6.46875 0.234375 "/></g></g></g><g fill="#000000" fill-opacity="1"><g transform="translate(96.322998, 21.774195)"><g><path d="M 7.984375 0.234375 C 7.015625 0.234375 6.207031 0.0625 5.5625 -0.28125 C 4.925781 -0.625 4.414062 -1.050781 4.03125 -1.5625 L 4.03125 -0.5625 C 4.03125 -0.394531 3.976562 -0.257812 3.875 -0.15625 C 3.769531 -0.0507812 3.632812 0 3.46875 0 L 2.359375 0 C 2.203125 0 2.070312 -0.0507812 1.96875 -0.15625 C 1.863281 -0.257812 1.8125 -0.394531 1.8125 -0.5625 L 1.8125 -16.578125 C 1.8125 -16.734375 1.863281 -16.863281 1.96875 -16.96875 C 2.070312 -17.070312 2.203125 -17.125 2.359375 -17.125 L 3.546875 -17.125 C 3.703125 -17.125 3.828125 -17.070312 3.921875 -16.96875 C 4.023438 -16.863281 4.078125 -16.734375 4.078125 -16.578125 L 4.078125 -11.03125 C 4.484375 -11.519531 5.003906 -11.929688 5.640625 -12.265625 C 6.273438 -12.609375 7.054688 -12.78125 7.984375 -12.78125 C 8.890625 -12.78125 9.660156 -12.625 10.296875 -12.3125 C 10.929688 -12 11.453125 -11.566406 11.859375 -11.015625 C 12.265625 -10.472656 12.570312 -9.851562 12.78125 -9.15625 C 12.988281 -8.46875 13.109375 -7.75 13.140625 -7 C 13.160156 -6.738281 13.171875 -6.492188 13.171875 -6.265625 C 13.171875 -6.046875 13.160156 -5.804688 13.140625 -5.546875 C 13.109375 -4.773438 12.988281 -4.039062 12.78125 -3.34375 C 12.570312 -2.65625 12.265625 -2.039062 11.859375 -1.5 C 11.453125 -0.96875 10.929688 -0.546875 10.296875 -0.234375 C 9.660156 0.078125 8.890625 0.234375 7.984375 0.234375 Z M 7.484375 -1.71875 C 8.316406 -1.71875 8.96875 -1.894531 9.4375 -2.25 C 9.914062 -2.613281 10.257812 -3.085938 10.46875 -3.671875 C 10.675781 -4.265625 10.796875 -4.898438 10.828125 -5.578125 C 10.847656 -6.035156 10.847656 -6.5 10.828125 -6.96875 C 10.796875 -7.644531 10.675781 -8.273438 10.46875 -8.859375 C 10.257812 -9.453125 9.914062 -9.925781 9.4375 -10.28125 C 8.96875 -10.644531 8.316406 -10.828125 7.484375 -10.828125 C 6.722656 -10.828125 6.09375 -10.648438 5.59375 -10.296875 C 5.09375 -9.941406 4.71875 -9.488281 4.46875 -8.9375 C 4.21875 -8.394531 4.085938 -7.84375 4.078125 -7.28125 C 4.054688 -7.03125 4.046875 -6.722656 4.046875 -6.359375 C 4.046875 -5.992188 4.054688 -5.679688 4.078125 -5.421875 C 4.109375 -4.828125 4.238281 -4.242188 4.46875 -3.671875 C 4.707031 -3.109375 5.070312 -2.640625 5.5625 -2.265625 C 6.050781 -1.898438 6.691406 -1.71875 7.484375 -1.71875 Z M 7.484375 -1.71875 "/></g></g></g><g fill="#000000" fill-opacity="1"><g transform="translate(117.327303, 25.426549)"><g><path d="M 0 -1.09375 C 0 -1.019531 -0.0195312 -0.957031 -0.0625 -0.90625 C -0.113281 -0.863281 -0.175781 -0.84375 -0.25 -0.84375 L -0.8125 -0.84375 C -0.882812 -0.84375 -0.945312 -0.863281 -1 -0.90625 C -1.050781 -0.957031 -1.078125 -1.019531 -1.078125 -1.09375 L -1.078125 -1.65625 C -1.078125 -1.726562 -1.050781 -1.789062 -1 -1.84375 C -0.945312 -1.894531 -0.882812 -1.921875 -0.8125 -1.921875 L -0.25 -1.921875 C -0.175781 -1.921875 -0.113281 -1.894531 -0.0625 -1.84375 C -0.0195312 -1.789062 0 -1.726562 0 -1.65625 Z M 0 -1.09375 "/></g></g></g><g fill="#000000" fill-opacity="1"><g transform="translate(117.327303, 24.214974)"><g><path d="M 0.109375 -3.203125 C 0.109375 -2.410156 -0.117188 -1.789062 -0.578125 -1.34375 C -1.046875 -0.90625 -1.703125 -0.675781 -2.546875 -0.65625 L -3 -0.640625 L -3.46875 -0.65625 C -4.300781 -0.675781 -4.953125 -0.90625 -5.421875 -1.34375 C -5.890625 -1.789062 -6.125 -2.410156 -6.125 -3.203125 C -6.125 -3.710938 -6.03125 -4.144531 -5.84375 -4.5 C -5.664062 -4.863281 -5.4375 -5.132812 -5.15625 -5.3125 C -4.875 -5.488281 -4.582031 -5.582031 -4.28125 -5.59375 C -4.21875 -5.601562 -4.160156 -5.582031 -4.109375 -5.53125 C -4.054688 -5.476562 -4.03125 -5.414062 -4.03125 -5.34375 L -4.03125 -5.1875 C -4.03125 -5.101562 -4.046875 -5.046875 -4.078125 -5.015625 C -4.117188 -4.984375 -4.179688 -4.945312 -4.265625 -4.90625 C -4.691406 -4.75 -4.992188 -4.53125 -5.171875 -4.25 C -5.359375 -3.976562 -5.453125 -3.628906 -5.453125 -3.203125 C -5.453125 -2.648438 -5.285156 -2.207031 -4.953125 -1.875 C -4.617188 -1.550781 -4.101562 -1.378906 -3.40625 -1.359375 L -3 -1.34375 L -2.59375 -1.359375 C -1.90625 -1.378906 -1.390625 -1.550781 -1.046875 -1.875 C -0.710938 -2.207031 -0.546875 -2.648438 -0.546875 -3.203125 C -0.546875 -3.628906 -0.632812 -3.976562 -0.8125 -4.25 C -1 -4.53125 -1.304688 -4.75 -1.734375 -4.90625 C -1.828125 -4.945312 -1.890625 -4.984375 -1.921875 -5.015625 C -1.953125 -5.046875 -1.96875 -5.101562 -1.96875 -5.1875 L -1.96875 -5.34375 C -1.96875 -5.414062 -1.941406 -5.476562 -1.890625 -5.53125 C -1.847656 -5.582031 -1.789062 -5.601562 -1.71875 -5.59375 C -1.414062 -5.582031 -1.125 -5.488281 -0.84375 -5.3125 C -0.5625 -5.132812 -0.332031 -4.863281 -0.15625 -4.5 C 0.0195312 -4.144531 0.109375 -3.710938 0.109375 -3.203125 Z M 0.109375 -3.203125 "/></g></g></g><g fill="#000000" fill-opacity="1"><g transform="translate(117.327303, 19.424436)"><g><path d="M 0.109375 -3.21875 C 0.109375 -2.414062 -0.128906 -1.789062 -0.609375 -1.34375 C -1.097656 -0.90625 -1.734375 -0.675781 -2.515625 -0.65625 L -3 -0.640625 L -3.484375 -0.65625 C -4.265625 -0.675781 -4.898438 -0.90625 -5.390625 -1.34375 C -5.878906 -1.789062 -6.125 -2.414062 -6.125 -3.21875 C -6.125 -4.019531 -5.878906 -4.640625 -5.390625 -5.078125 C -4.898438 -5.523438 -4.265625 -5.757812 -3.484375 -5.78125 C -3.410156 -5.789062 -3.25 -5.796875 -3 -5.796875 C -2.75 -5.796875 -2.585938 -5.789062 -2.515625 -5.78125 C -1.734375 -5.757812 -1.097656 -5.523438 -0.609375 -5.078125 C -0.128906 -4.640625 0.109375 -4.019531 0.109375 -3.21875 Z M -0.546875 -3.21875 C -0.546875 -3.769531 -0.722656 -4.210938 -1.078125 -4.546875 C -1.429688 -4.878906 -1.929688 -5.054688 -2.578125 -5.078125 C -2.648438 -5.085938 -2.789062 -5.09375 -3 -5.09375 C -3.207031 -5.09375 -3.347656 -5.085938 -3.421875 -5.078125 C -4.078125 -5.054688 -4.578125 -4.878906 -4.921875 -4.546875 C -5.273438 -4.210938 -5.453125 -3.769531 -5.453125 -3.21875 C -5.453125 -2.675781 -5.273438 -2.234375 -4.921875 -1.890625 C -4.578125 -1.554688 -4.078125 -1.378906 -3.421875 -1.359375 L -3 -1.34375 L -2.578125 -1.359375 C -1.929688 -1.378906 -1.429688 -1.554688 -1.078125 -1.890625 C -0.722656 -2.234375 -0.546875 -2.675781 -0.546875 -3.21875 Z M -0.546875 -3.21875 "/></g></g></g><g fill="#000000" fill-opacity="1"><g transform="translate(117.327303, 14.379918)"><g><path d="M 0 -1.1875 C 0 -1.113281 -0.0195312 -1.050781 -0.0625 -1 C -0.113281 -0.957031 -0.175781 -0.9375 -0.25 -0.9375 L -5.75 -0.9375 C -5.820312 -0.9375 -5.878906 -0.957031 -5.921875 -1 C -5.972656 -1.050781 -6 -1.113281 -6 -1.1875 L -6 -1.390625 C -6 -1.460938 -5.972656 -1.519531 -5.921875 -1.5625 C -5.878906 -1.613281 -5.820312 -1.640625 -5.75 -1.640625 L -5.34375 -1.640625 C -5.601562 -1.835938 -5.796875 -2.066406 -5.921875 -2.328125 C -6.054688 -2.597656 -6.125 -2.921875 -6.125 -3.296875 C -6.125 -4.148438 -5.757812 -4.765625 -5.03125 -5.140625 C -5.363281 -5.328125 -5.628906 -5.585938 -5.828125 -5.921875 C -6.023438 -6.265625 -6.125 -6.65625 -6.125 -7.09375 C -6.125 -7.738281 -5.90625 -8.257812 -5.46875 -8.65625 C -5.03125 -9.0625 -4.410156 -9.265625 -3.609375 -9.265625 L -0.25 -9.265625 C -0.175781 -9.265625 -0.113281 -9.238281 -0.0625 -9.1875 C -0.0195312 -9.144531 0 -9.082031 0 -9 L 0 -8.8125 C 0 -8.726562 -0.0195312 -8.664062 -0.0625 -8.625 C -0.113281 -8.582031 -0.175781 -8.5625 -0.25 -8.5625 L -3.5 -8.5625 C -4.195312 -8.5625 -4.695312 -8.414062 -5 -8.125 C -5.300781 -7.832031 -5.453125 -7.453125 -5.453125 -6.984375 C -5.453125 -6.566406 -5.296875 -6.207031 -4.984375 -5.90625 C -4.679688 -5.601562 -4.1875 -5.453125 -3.5 -5.453125 L -0.25 -5.453125 C -0.175781 -5.453125 -0.113281 -5.425781 -0.0625 -5.375 C -0.0195312 -5.332031 0 -5.273438 0 -5.203125 L 0 -5 C 0 -4.925781 -0.0195312 -4.863281 -0.0625 -4.8125 C -0.113281 -4.769531 -0.175781 -4.75 -0.25 -4.75 L -3.5 -4.75 C -4.1875 -4.75 -4.679688 -4.597656 -4.984375 -4.296875 C -5.296875 -3.992188 -5.453125 -3.617188 -5.453125 -3.171875 C -5.453125 -2.753906 -5.296875 -2.394531 -4.984375 -2.09375 C -4.679688 -1.789062 -4.191406 -1.640625 -3.515625 -1.640625 L -0.25 -1.640625 C -0.175781 -1.640625 -0.113281 -1.613281 -0.0625 -1.5625 C -0.0195312 -1.519531 0 -1.460938 0 -1.390625 Z M 0 -1.1875 "/></g></g></g></svg>