<svg xmlns="http://www.w3.org/2000/svg" xmlns:xlink="http://www.w3.org/1999/xlink" width="128" zoomAndPan="magnify" viewBox="0 0 96 95.999999" height="128" preserveAspectRatio="xMidYMid meet" version="1.0"><defs><clipPath id="eda7ee080a"><path d="M 2.027344 72 L 7 72 L 7 76.4375 L 2.027344 76.4375 Z M 2.027344 72 " clip-rule="nonzero"/></clipPath><clipPath id="85af11c7dc"><path d="M 41 19.4375 L 51 19.4375 L 51 29 L 41 29 Z M 41 19.4375 " clip-rule="nonzero"/></clipPath></defs><g clip-path="url(#eda7ee080a)"><path fill="#000000" d="M 4.394531 74.394531 C 4.976562 74.28125 5.550781 74.113281 6.101562 73.902344 C 5.601562 73.925781 5.097656 73.980469 4.601562 74.046875 C 4.753906 73.84375 4.90625 73.632812 5.042969 73.414062 C 4.796875 73.617188 4.574219 73.839844 4.363281 74.078125 C 4.347656 74.082031 4.332031 74.082031 4.316406 74.085938 C 4.257812 73.417969 4.136719 72.753906 3.933594 72.105469 C 3.933594 72.761719 3.945312 73.414062 3.980469 74.070312 C 3.820312 73.949219 3.65625 73.832031 3.484375 73.714844 C 3.605469 73.871094 3.734375 74.015625 3.875 74.152344 C 3.257812 74.253906 2.640625 74.367188 2.023438 74.46875 C 2.6875 74.570312 3.351562 74.558594 4 74.460938 C 4.003906 74.484375 4.007812 74.507812 4.007812 74.527344 C 3.867188 74.71875 3.738281 74.917969 3.625 75.128906 C 3.761719 75 3.894531 74.871094 4.023438 74.734375 C 4.074219 75.335938 4.144531 75.9375 4.253906 76.53125 C 4.339844 75.882812 4.367188 75.226562 4.34375 74.574219 C 4.605469 74.78125 4.886719 74.957031 5.191406 75.101562 C 4.914062 74.84375 4.65625 74.613281 4.394531 74.394531 Z M 4.394531 74.394531 " fill-opacity="1" fill-rule="nonzero"/></g><path fill="#000000" d="M 16.15625 63.816406 C 15.421875 63.753906 14.691406 63.761719 13.960938 63.800781 C 14.230469 63.464844 14.476562 63.113281 14.707031 62.746094 C 14.371094 63.027344 14.058594 63.332031 13.757812 63.648438 C 13.683594 62.636719 13.539062 61.628906 13.347656 60.636719 C 13.230469 61.5 13.199219 62.367188 13.230469 63.230469 C 13.03125 63.023438 12.828125 62.828125 12.644531 62.648438 C 12.816406 62.992188 13.027344 63.3125 13.25 63.617188 C 13.253906 63.695312 13.253906 63.773438 13.261719 63.847656 C 12.265625 63.929688 11.269531 64.058594 10.28125 64.15625 C 11.222656 64.328125 12.183594 64.410156 13.140625 64.347656 C 12.871094 64.675781 12.609375 65.015625 12.371094 65.371094 C 12.714844 65.113281 13.03125 64.828125 13.328125 64.527344 C 13.417969 65.332031 13.546875 66.136719 13.71875 66.933594 C 13.816406 66.054688 13.835938 65.171875 13.796875 64.292969 C 14.167969 64.714844 14.5625 65.117188 14.960938 65.511719 C 14.804688 65.101562 14.492188 64.652344 14.125 64.207031 C 14.804688 64.097656 15.480469 63.953125 16.15625 63.816406 Z M 16.15625 63.816406 " fill-opacity="1" fill-rule="nonzero"/><path fill="#000000" d="M 18.917969 55.738281 C 18.519531 55.675781 18.117188 55.652344 17.71875 55.660156 C 17.882812 55.429688 18.039062 55.195312 18.175781 54.953125 C 17.925781 55.175781 17.6875 55.417969 17.464844 55.664062 C 17.449219 55.664062 17.4375 55.664062 17.421875 55.664062 C 17.410156 55.171875 17.355469 54.679688 17.273438 54.199219 C 17.195312 54.617188 17.152344 55.039062 17.132812 55.464844 C 16.96875 55.285156 16.796875 55.113281 16.617188 54.953125 C 16.765625 55.207031 16.929688 55.445312 17.105469 55.683594 C 16.605469 55.714844 16.105469 55.78125 15.609375 55.859375 C 16.109375 55.964844 16.617188 55.988281 17.117188 55.964844 C 17.117188 55.996094 17.121094 56.027344 17.121094 56.058594 C 16.890625 56.339844 16.667969 56.625 16.460938 56.921875 C 16.699219 56.753906 16.921875 56.5625 17.125 56.359375 C 17.140625 56.804688 17.175781 57.25 17.222656 57.695312 C 17.355469 57.160156 17.414062 56.617188 17.421875 56.074219 C 17.613281 56.292969 17.8125 56.507812 18.023438 56.703125 C 17.878906 56.433594 17.707031 56.183594 17.523438 55.9375 C 17.992188 55.894531 18.457031 55.820312 18.917969 55.738281 Z M 18.917969 55.738281 " fill-opacity="1" fill-rule="nonzero"/><path fill="#000000" d="M 16.3125 41.042969 C 17.292969 40.96875 18.25 40.714844 19.214844 40.535156 C 18.863281 40.386719 17.503906 40.433594 16.8125 40.449219 C 16.761719 40.453125 16.707031 40.457031 16.652344 40.457031 C 16.867188 40.167969 17.066406 39.863281 17.238281 39.539062 C 16.917969 39.839844 16.609375 40.152344 16.3125 40.476562 C 16.300781 40.476562 16.289062 40.476562 16.277344 40.476562 C 16.269531 39.496094 16.175781 38.515625 16.015625 37.546875 C 15.855469 38.441406 15.777344 39.34375 15.765625 40.246094 C 15.554688 39.96875 15.332031 39.699219 15.101562 39.4375 C 15.25 39.804688 15.421875 40.164062 15.609375 40.515625 C 14.78125 40.570312 13.953125 40.664062 13.136719 40.816406 C 14.007812 40.949219 14.890625 41.039062 15.769531 41.054688 C 15.769531 41.066406 15.769531 41.082031 15.769531 41.097656 C 15.53125 41.390625 15.300781 41.699219 15.089844 42.019531 C 15.332031 41.835938 15.566406 41.636719 15.785156 41.429688 C 15.820312 42.121094 15.878906 42.8125 15.976562 43.5 C 16.117188 42.859375 16.199219 42.210938 16.242188 41.5625 C 16.519531 41.964844 16.824219 42.355469 17.152344 42.71875 C 16.929688 42.125 16.644531 41.570312 16.3125 41.042969 Z M 16.3125 41.042969 " fill-opacity="1" fill-rule="nonzero"/><path fill="#000000" d="M 27.804688 22.703125 C 27.25 22.613281 26.699219 22.570312 26.148438 22.578125 C 26.316406 22.371094 26.46875 22.15625 26.609375 21.925781 C 26.414062 22.082031 26.207031 22.269531 26.007812 22.460938 C 25.980469 21.871094 25.90625 21.277344 25.808594 20.695312 C 25.71875 21.261719 25.695312 21.859375 25.707031 22.453125 C 25.5625 22.304688 25.417969 22.15625 25.273438 22.007812 C 25.375 22.21875 25.496094 22.414062 25.636719 22.597656 C 25.109375 22.636719 24.585938 22.726562 24.0625 22.890625 C 24.492188 22.914062 25.023438 22.933594 25.558594 22.929688 C 25.367188 23.144531 25.199219 23.355469 25.078125 23.542969 C 25.3125 23.394531 25.53125 23.222656 25.730469 23.03125 C 25.761719 23.535156 25.808594 24.023438 25.871094 24.480469 C 25.972656 24.007812 26.011719 23.527344 26.019531 23.046875 C 26.203125 23.242188 26.398438 23.421875 26.597656 23.597656 C 26.460938 23.355469 26.300781 23.132812 26.128906 22.921875 C 26.796875 22.902344 27.417969 22.835938 27.804688 22.703125 Z M 27.804688 22.703125 " fill-opacity="1" fill-rule="nonzero"/><path fill="#000000" d="M 32.816406 23.125 C 33.332031 23.222656 33.855469 23.269531 34.375 23.277344 C 33.878906 23.125 33.378906 22.976562 32.871094 22.847656 C 33.121094 22.664062 33.351562 22.460938 33.5625 22.25 C 33.3125 22.363281 33.082031 22.5 32.855469 22.644531 C 32.90625 22.113281 32.914062 21.582031 32.878906 21.042969 C 32.726562 21.546875 32.613281 22.117188 32.53125 22.6875 C 32.410156 22.515625 32.285156 22.351562 32.152344 22.191406 C 32.21875 22.378906 32.296875 22.558594 32.386719 22.742188 C 32.296875 22.722656 32.207031 22.703125 32.117188 22.6875 C 31.730469 22.617188 31.355469 22.613281 30.984375 22.515625 C 31.410156 22.742188 31.863281 22.902344 32.328125 23.019531 C 32.136719 23.171875 31.953125 23.328125 31.78125 23.5 C 32.019531 23.390625 32.25 23.265625 32.476562 23.121094 C 32.410156 23.699219 32.375 24.257812 32.378906 24.71875 C 32.546875 24.28125 32.664062 23.835938 32.75 23.382812 C 32.898438 23.617188 33.054688 23.839844 33.210938 24.046875 C 33.121094 23.722656 32.980469 23.414062 32.816406 23.125 Z M 32.816406 23.125 " fill-opacity="1" fill-rule="nonzero"/><path fill="#000000" d="M 36.335938 27.035156 C 36.816406 26.914062 37.292969 26.757812 37.75 26.554688 C 37.28125 26.578125 36.820312 26.636719 36.359375 26.714844 C 36.46875 26.535156 36.5625 26.351562 36.640625 26.160156 C 36.460938 26.363281 36.292969 26.558594 36.128906 26.757812 C 36.125 26.757812 36.117188 26.757812 36.113281 26.757812 C 36.035156 26.25 35.929688 25.742188 35.816406 25.238281 C 35.761719 25.714844 35.773438 26.191406 35.828125 26.664062 C 35.625 26.527344 35.414062 26.40625 35.203125 26.28125 C 35.375 26.480469 35.570312 26.660156 35.78125 26.824219 C 35.238281 26.945312 34.699219 27.09375 34.171875 27.277344 C 34.722656 27.296875 35.273438 27.25 35.8125 27.148438 C 35.648438 27.363281 35.492188 27.582031 35.332031 27.828125 C 35.550781 27.671875 35.75 27.492188 35.925781 27.292969 C 36.003906 27.691406 36.109375 28.085938 36.238281 28.46875 C 36.25 28.007812 36.21875 27.554688 36.160156 27.101562 C 36.378906 27.25 36.601562 27.386719 36.816406 27.515625 C 36.671875 27.34375 36.511719 27.183594 36.335938 27.035156 Z M 36.335938 27.035156 " fill-opacity="1" fill-rule="nonzero"/><g clip-path="url(#85af11c7dc)"><path fill="#000000" d="M 46.355469 24.511719 C 47.699219 24.609375 49.238281 24.652344 50.203125 24.515625 C 49.09375 24.253906 47.964844 24.019531 46.832031 23.886719 C 47.242188 23.457031 47.632812 23.011719 48 22.558594 C 47.460938 22.917969 46.941406 23.328125 46.4375 23.765625 C 46.492188 23.332031 46.542969 22.898438 46.597656 22.464844 C 46.71875 21.46875 46.683594 20.445312 46.820312 19.464844 C 46.324219 20.789062 46.007812 22.1875 45.769531 23.585938 C 45.484375 23.175781 45.183594 22.78125 44.847656 22.410156 C 45.027344 22.871094 45.230469 23.324219 45.449219 23.765625 C 45.445312 23.765625 45.441406 23.765625 45.4375 23.765625 C 44.273438 23.714844 43.128906 23.894531 41.972656 23.988281 C 42.773438 24.167969 44.0625 24.269531 44.441406 24.324219 C 44.769531 24.367188 45.175781 24.414062 45.632812 24.453125 C 45.628906 24.472656 45.628906 24.488281 45.625 24.503906 C 45.105469 25 44.605469 25.511719 44.132812 26 C 44.648438 25.722656 45.128906 25.386719 45.585938 25.023438 C 45.515625 26.28125 45.597656 27.539062 45.609375 28.796875 C 45.898438 27.597656 46.09375 26.378906 46.257812 25.15625 C 46.550781 25.589844 46.875 26.003906 47.234375 26.390625 C 46.996094 25.753906 46.699219 25.121094 46.355469 24.511719 Z M 46.355469 24.511719 " fill-opacity="1" fill-rule="nonzero"/></g><path fill="#000000" d="M 40.066406 43.082031 C 39.574219 42.972656 39.105469 42.890625 38.636719 42.828125 C 38.910156 42.621094 39.144531 42.421875 39.253906 42.25 C 39.039062 42.375 38.8125 42.507812 38.597656 42.652344 C 38.640625 42.144531 38.644531 41.636719 38.617188 41.125 C 38.457031 41.632812 38.347656 42.152344 38.277344 42.675781 C 38.121094 42.394531 37.953125 42.128906 37.753906 41.875 C 37.84375 42.171875 37.953125 42.472656 38.078125 42.765625 C 37.546875 42.714844 37.003906 42.683594 36.421875 42.664062 C 36.945312 42.878906 37.492188 43.007812 38.046875 43.078125 C 37.878906 43.230469 37.722656 43.402344 37.59375 43.59375 C 37.769531 43.449219 37.996094 43.292969 38.222656 43.128906 C 38.175781 43.671875 38.171875 44.222656 38.210938 44.765625 C 38.332031 44.367188 38.421875 43.960938 38.488281 43.550781 C 38.605469 43.730469 38.730469 43.90625 38.867188 44.070312 C 38.773438 43.777344 38.664062 43.492188 38.539062 43.210938 C 38.542969 43.183594 38.550781 43.152344 38.550781 43.125 C 39.054688 43.152344 39.5625 43.136719 40.066406 43.082031 Z M 40.066406 43.082031 " fill-opacity="1" fill-rule="nonzero"/><path fill="#000000" d="M 43.273438 58.347656 C 43.800781 58.289062 44.304688 58.214844 44.71875 58.101562 C 44.195312 58.035156 43.664062 58.023438 43.144531 58.074219 C 43.144531 58.066406 43.140625 58.054688 43.140625 58.046875 C 43.332031 57.800781 43.503906 57.542969 43.652344 57.269531 C 43.46875 57.4375 43.289062 57.613281 43.117188 57.789062 C 43.082031 57.335938 43.03125 56.882812 42.96875 56.449219 C 42.878906 56.941406 42.84375 57.441406 42.839844 57.9375 C 42.640625 57.773438 42.429688 57.617188 42.203125 57.484375 C 42.390625 57.703125 42.585938 57.914062 42.78125 58.125 C 42.320312 58.199219 41.871094 58.324219 41.445312 58.523438 C 41.804688 58.488281 42.179688 58.457031 42.558594 58.421875 C 42.359375 58.664062 42.167969 58.914062 42.003906 59.179688 C 42.300781 58.941406 42.585938 58.679688 42.839844 58.398438 C 42.863281 59.0625 42.941406 59.71875 43.066406 60.367188 C 43.15625 59.75 43.179688 59.125 43.164062 58.511719 C 43.417969 58.761719 43.679688 59.003906 43.953125 59.234375 C 43.761719 58.914062 43.53125 58.621094 43.273438 58.347656 Z M 43.273438 58.347656 " fill-opacity="1" fill-rule="nonzero"/><path fill="#000000" d="M 65.769531 40.050781 C 65.765625 40.046875 65.765625 40.035156 65.765625 40.027344 C 65.773438 40.011719 65.785156 39.996094 65.796875 39.980469 C 66.394531 39.789062 66.988281 39.570312 67.570312 39.332031 C 67.050781 39.375 66.535156 39.460938 66.027344 39.582031 C 66.179688 39.300781 66.3125 39.011719 66.425781 38.714844 C 66.1875 39.019531 65.960938 39.332031 65.742188 39.652344 C 65.726562 39.65625 65.710938 39.660156 65.699219 39.660156 C 65.5625 38.902344 65.386719 38.144531 65.207031 37.390625 C 65.148438 38.183594 65.203125 38.972656 65.320312 39.75 C 64.980469 39.535156 64.636719 39.324219 64.292969 39.117188 C 64.53125 39.390625 64.796875 39.628906 65.082031 39.839844 C 64.46875 40.035156 63.863281 40.273438 63.277344 40.539062 C 63.992188 40.457031 64.691406 40.304688 65.375 40.105469 C 65.382812 40.132812 65.386719 40.160156 65.394531 40.1875 C 65.195312 40.507812 65.003906 40.832031 64.835938 41.167969 C 65.058594 40.953125 65.261719 40.714844 65.449219 40.472656 C 65.59375 41.195312 65.785156 41.910156 65.988281 42.613281 C 65.996094 41.832031 65.921875 41.0625 65.804688 40.296875 C 66.0625 40.4375 66.324219 40.566406 66.59375 40.683594 C 66.332031 40.457031 66.054688 40.25 65.769531 40.050781 Z M 65.769531 40.050781 " fill-opacity="1" fill-rule="nonzero"/><path fill="#000000" d="M 93.972656 53.175781 C 93.601562 53.070312 93.21875 52.992188 92.839844 52.9375 C 93.027344 52.738281 93.214844 52.539062 93.390625 52.324219 C 93.125 52.503906 92.878906 52.703125 92.644531 52.914062 C 92.617188 52.914062 92.589844 52.90625 92.5625 52.90625 C 92.574219 52.421875 92.546875 51.9375 92.492188 51.453125 C 92.40625 51.875 92.34375 52.296875 92.296875 52.71875 C 92.121094 52.492188 91.9375 52.277344 91.734375 52.078125 C 91.890625 52.363281 92.054688 52.621094 92.226562 52.875 C 91.710938 52.839844 91.191406 52.851562 90.675781 52.925781 C 91.203125 53.03125 91.726562 53.101562 92.253906 53.144531 C 92.25 53.195312 92.25 53.25 92.246094 53.300781 C 92.042969 53.515625 91.84375 53.734375 91.664062 53.964844 C 91.863281 53.824219 92.050781 53.671875 92.230469 53.515625 C 92.199219 54.066406 92.1875 54.625 92.195312 55.199219 C 92.390625 54.582031 92.496094 53.945312 92.539062 53.300781 C 92.6875 53.492188 92.839844 53.6875 93.007812 53.871094 C 92.894531 53.625 92.761719 53.394531 92.617188 53.167969 C 92.617188 53.164062 92.621094 53.164062 92.621094 53.160156 C 93.0625 53.183594 93.511719 53.191406 93.972656 53.175781 Z M 93.972656 53.175781 " fill-opacity="1" fill-rule="nonzero"/><path fill="#000000" d="M 11.78125 65.835938 L 5.8125 72.742188 L 5.734375 72.675781 L 11.707031 65.769531 Z M 11.78125 65.835938 " fill-opacity="1" fill-rule="nonzero"/><path fill="#000000" d="M 15.070312 62.066406 L 16.832031 58.304688 L 16.921875 58.347656 L 15.160156 62.109375 Z M 15.070312 62.066406 " fill-opacity="1" fill-rule="nonzero"/><path fill="#000000" d="M 16.261719 44.183594 L 17.25 53.496094 L 17.152344 53.507812 L 16.164062 44.195312 Z M 16.261719 44.183594 " fill-opacity="1" fill-rule="nonzero"/><path fill="#000000" d="M 25.117188 24.457031 L 17.582031 38.800781 L 17.496094 38.753906 L 25.03125 24.414062 Z M 25.117188 24.457031 " fill-opacity="1" fill-rule="nonzero"/><path fill="#000000" d="M 30.359375 22.628906 L 28.582031 22.628906 L 28.582031 22.53125 L 30.359375 22.53125 Z M 30.359375 22.628906 " fill-opacity="1" fill-rule="nonzero"/><path fill="#000000" d="M 33.855469 24.070312 L 35.3125 25.675781 L 35.238281 25.742188 L 33.785156 24.136719 Z M 33.855469 24.070312 " fill-opacity="1" fill-rule="nonzero"/><path fill="#000000" d="M 44.191406 25.066406 L 38.285156 26.488281 L 38.261719 26.390625 L 44.167969 24.96875 Z M 44.191406 25.066406 " fill-opacity="1" fill-rule="nonzero"/><path fill="#000000" d="M 47.4375 25.054688 L 64.058594 38.433594 L 63.996094 38.511719 L 47.375 25.128906 Z M 47.4375 25.054688 " fill-opacity="1" fill-rule="nonzero"/><path fill="#000000" d="M 67.289062 40.726562 L 90.0625 52.433594 L 90.015625 52.523438 L 67.242188 40.816406 Z M 67.289062 40.726562 " fill-opacity="1" fill-rule="nonzero"/><path fill="#000000" d="M 44.90625 26.890625 L 39.246094 40.949219 L 39.152344 40.914062 L 44.8125 26.855469 Z M 44.90625 26.890625 " fill-opacity="1" fill-rule="nonzero"/><path fill="#000000" d="M 39.078125 44.769531 L 42.441406 56.433594 L 42.347656 56.460938 L 38.980469 44.796875 Z M 39.078125 44.769531 " fill-opacity="1" fill-rule="nonzero"/></svg>