<svg xmlns="http://www.w3.org/2000/svg" xmlns:xlink="http://www.w3.org/1999/xlink" width="128" zoomAndPan="magnify" viewBox="0 0 96 95.999999" height="128" preserveAspectRatio="xMidYMid meet" version="1.0"><defs><clipPath id="d08d29c1ea"><path d="M 4 2.039062 L 65 2.039062 L 65 43 L 4 43 Z M 4 2.039062 " clip-rule="nonzero"/></clipPath><clipPath id="9545932476"><path d="M 4 56 L 79 56 L 79 94.289062 L 4 94.289062 Z M 4 56 " clip-rule="nonzero"/></clipPath></defs><path fill="#a66a2c" d="M 48.660156 73.144531 C 48.535156 72.804688 48.179688 72.65625 47.882812 72.738281 C 47.636719 72.808594 47.394531 72.875 47.15625 72.960938 C 46.582031 73.160156 46.027344 73.417969 45.507812 73.726562 C 44.484375 74.335938 43.589844 75.132812 42.867188 76.082031 C 41.835938 77.425781 41.199219 79.058594 41.03125 80.746094 C 40.921875 81.902344 41.015625 83.0625 41.328125 84.1875 C 41.585938 85.101562 41.988281 85.988281 42.515625 86.78125 C 42.605469 86.917969 42.699219 87.046875 42.792969 87.175781 C 43.539062 88.171875 44.46875 89.023438 45.542969 89.648438 C 46.695312 90.320312 47.984375 90.738281 49.3125 90.863281 C 51.847656 91.101562 54.410156 90.253906 56.308594 88.550781 C 58.136719 86.914062 59.238281 84.566406 59.359375 82.113281 C 59.40625 81.167969 59.304688 80.214844 59.058594 79.300781 C 59.046875 79.222656 59.023438 79.148438 58.996094 79.074219 C 58.929688 78.828125 58.796875 78.601562 58.550781 78.519531 C 58.359375 78.472656 58.121094 78.445312 57.921875 78.507812 C 57.921875 78.507812 57.917969 78.507812 57.914062 78.511719 C 57.898438 78.515625 57.882812 78.519531 57.867188 78.527344 C 57.769531 78.558594 57.683594 78.617188 57.628906 78.695312 C 57.582031 78.75 57.476562 78.976562 57.449219 79.144531 C 57.375 79.429688 57.285156 79.714844 57.183594 79.992188 C 57.183594 80 57.179688 80.003906 57.179688 80.007812 C 57.035156 80.382812 56.867188 80.75 56.683594 81.105469 C 56.488281 81.464844 56.273438 81.808594 56.085938 82.066406 C 55.859375 82.382812 55.609375 82.6875 55.34375 82.972656 C 55.105469 83.222656 54.851562 83.457031 54.585938 83.675781 C 54.328125 83.882812 54.058594 84.070312 53.78125 84.242188 C 53.542969 84.382812 53.300781 84.511719 53.054688 84.625 C 52.8125 84.726562 52.570312 84.816406 52.320312 84.890625 C 52.121094 84.949219 51.921875 84.996094 51.714844 85.03125 C 51.695312 85.035156 51.675781 85.035156 51.660156 85.039062 C 51.453125 85.070312 51.25 85.089844 51.042969 85.097656 C 50.839844 85.101562 50.636719 85.09375 50.433594 85.074219 C 50.253906 85.050781 50.074219 85.023438 49.898438 84.984375 C 49.734375 84.941406 49.570312 84.890625 49.40625 84.835938 C 49.230469 84.765625 49.058594 84.6875 48.890625 84.601562 C 48.734375 84.515625 48.585938 84.421875 48.4375 84.320312 C 48.277344 84.199219 48.121094 84.074219 47.976562 83.9375 C 47.828125 83.792969 47.691406 83.644531 47.558594 83.484375 C 47.421875 83.304688 47.292969 83.121094 47.171875 82.929688 C 47.058594 82.734375 46.957031 82.535156 46.878906 82.359375 C 46.871094 82.347656 46.867188 82.335938 46.863281 82.324219 L 46.855469 82.308594 C 46.757812 82.078125 46.671875 81.835938 46.597656 81.59375 C 46.519531 81.3125 46.457031 81.023438 46.410156 80.734375 C 46.371094 80.445312 46.347656 80.15625 46.335938 79.90625 C 46.335938 79.890625 46.335938 79.871094 46.335938 79.855469 L 46.335938 79.851562 C 46.328125 79.53125 46.339844 79.210938 46.367188 78.890625 C 46.367188 78.890625 46.371094 78.886719 46.371094 78.882812 C 46.371094 78.882812 46.371094 78.886719 46.371094 78.886719 C 46.367188 78.890625 46.367188 78.890625 46.367188 78.890625 C 46.367188 78.890625 46.371094 78.886719 46.371094 78.886719 C 46.371094 78.875 46.371094 78.859375 46.371094 78.855469 C 46.410156 78.492188 46.472656 78.128906 46.554688 77.773438 C 46.640625 77.402344 46.75 77.039062 46.882812 76.683594 C 47.023438 76.316406 47.183594 75.957031 47.355469 75.628906 C 47.359375 75.617188 47.367188 75.609375 47.371094 75.597656 L 47.375 75.59375 C 47.570312 75.230469 47.789062 74.882812 48.027344 74.546875 C 48.148438 74.390625 48.273438 74.238281 48.390625 74.082031 C 48.394531 74.078125 48.398438 74.074219 48.402344 74.070312 C 48.449219 74.015625 48.496094 73.960938 48.542969 73.910156 C 48.65625 73.777344 48.703125 73.609375 48.6875 73.445312 C 48.699219 73.34375 48.695312 73.238281 48.660156 73.144531 Z M 45.839844 75.804688 C 45.4375 76.753906 45.183594 77.757812 45.089844 78.699219 C 44.9375 80.25 45.148438 81.84375 45.863281 83.238281 C 45.972656 83.445312 46.085938 83.644531 46.214844 83.835938 C 46.738281 84.625 47.441406 85.285156 48.277344 85.742188 C 48.824219 86.03125 49.410156 86.234375 50.023438 86.328125 C 50.648438 86.429688 51.285156 86.414062 51.851562 86.324219 C 53.109375 86.121094 54.28125 85.566406 55.277344 84.78125 C 56.371094 83.925781 57.25 82.820312 57.890625 81.585938 C 57.949219 81.472656 58.007812 81.359375 58.058594 81.246094 C 58.0625 81.324219 58.070312 81.40625 58.074219 81.488281 C 58.078125 81.808594 58.066406 82.128906 58.039062 82.449219 C 58.003906 82.800781 57.945312 83.144531 57.867188 83.488281 C 57.789062 83.820312 57.691406 84.144531 57.574219 84.464844 C 57.449219 84.785156 57.308594 85.097656 57.175781 85.355469 C 57.167969 85.375 57.15625 85.390625 57.148438 85.40625 C 56.976562 85.722656 56.789062 86.027344 56.582031 86.316406 C 56.375 86.597656 56.152344 86.867188 55.917969 87.125 C 55.671875 87.382812 55.410156 87.621094 55.136719 87.847656 C 54.863281 88.066406 54.578125 88.269531 54.277344 88.453125 C 53.976562 88.632812 53.667969 88.792969 53.347656 88.9375 C 53.035156 89.074219 52.710938 89.191406 52.382812 89.289062 C 52.074219 89.375 51.761719 89.449219 51.449219 89.503906 C 51.105469 89.554688 50.761719 89.589844 50.414062 89.601562 C 50.058594 89.609375 49.707031 89.597656 49.367188 89.5625 C 49.046875 89.527344 48.730469 89.476562 48.421875 89.40625 C 48.085938 89.328125 47.757812 89.230469 47.433594 89.113281 C 47.097656 88.984375 46.769531 88.835938 46.480469 88.6875 C 46.46875 88.679688 46.457031 88.671875 46.445312 88.667969 L 46.433594 88.660156 C 46.140625 88.496094 45.855469 88.320312 45.578125 88.125 C 45.289062 87.914062 45.011719 87.683594 44.75 87.441406 C 44.5 87.199219 44.265625 86.945312 44.042969 86.675781 C 43.820312 86.394531 43.613281 86.101562 43.425781 85.796875 C 43.246094 85.488281 43.082031 85.175781 42.9375 84.855469 C 42.808594 84.554688 42.699219 84.246094 42.601562 83.929688 C 42.511719 83.605469 42.433594 83.277344 42.378906 82.945312 C 42.324219 82.597656 42.292969 82.242188 42.277344 81.886719 C 42.273438 81.5625 42.28125 81.234375 42.3125 80.910156 L 42.316406 80.886719 C 42.351562 80.554688 42.40625 80.226562 42.476562 79.898438 C 42.558594 79.554688 42.660156 79.21875 42.78125 78.886719 C 42.90625 78.566406 43.046875 78.253906 43.203125 77.945312 C 43.375 77.632812 43.5625 77.332031 43.765625 77.042969 C 43.96875 76.761719 44.1875 76.496094 44.421875 76.242188 C 44.671875 75.980469 44.9375 75.734375 45.21875 75.503906 C 45.476562 75.296875 45.742188 75.105469 46.019531 74.933594 C 46.140625 74.859375 46.261719 74.792969 46.382812 74.726562 C 46.179688 75.078125 45.996094 75.4375 45.839844 75.804688 Z M 45.839844 75.804688 " fill-opacity="1" fill-rule="nonzero"/><path fill="#c98a3a" d="M 23.242188 38.972656 C 22.539062 38.972656 21.964844 39.609375 21.980469 40.304688 C 22 41.027344 22.601562 41.574219 23.308594 41.574219 C 24.015625 41.574219 24.585938 40.9375 24.570312 40.242188 C 24.550781 39.519531 23.949219 38.972656 23.242188 38.972656 Z M 23.242188 38.972656 " fill-opacity="1" fill-rule="nonzero"/><path fill="#5a3a1a" d="M 39.425781 21.167969 C 39.441406 21.890625 40.046875 22.4375 40.753906 22.4375 C 41.457031 22.4375 42.03125 21.796875 42.015625 21.101562 C 41.996094 20.382812 41.394531 19.835938 40.6875 19.835938 C 39.980469 19.835938 39.410156 20.472656 39.425781 21.167969 Z M 39.425781 21.167969 " fill-opacity="1" fill-rule="nonzero"/><path fill="#c98a3a" d="M 57.339844 52.46875 C 57.355469 53.191406 57.960938 53.738281 58.667969 53.738281 C 59.371094 53.738281 59.945312 53.101562 59.929688 52.40625 C 59.910156 51.683594 59.308594 51.136719 58.601562 51.136719 C 57.894531 51.136719 57.324219 51.773438 57.339844 52.46875 Z M 57.339844 52.46875 " fill-opacity="1" fill-rule="nonzero"/><path fill="#5a3a1a" d="M 86.855469 11.964844 C 82.886719 4.117188 73.292969 5.652344 66.941406 9.492188 C 64.398438 11.15625 62.289062 11.726562 59.335938 10.679688 C 57.328125 10.050781 55.347656 8.910156 53.179688 9.183594 C 51.476562 9.464844 49.847656 10.421875 48.84375 11.84375 C 47.1875 14.179688 47.125 16.992188 48.4375 19.5 C 48.796875 20.273438 49.953125 19.765625 49.621094 18.976562 C 48.761719 17.289062 48.453125 15.28125 49.363281 13.546875 C 50.078125 11.867188 51.722656 10.691406 53.511719 10.453125 C 55.835938 10.367188 57.875 11.796875 60.105469 12.246094 C 62.5625 12.945312 65.113281 12.242188 67.191406 10.847656 C 73.488281 6.9375 83.113281 5.242188 86.265625 13.832031 C 87.683594 17.703125 86.636719 22.101562 84.5625 25.535156 C 81.792969 29.769531 76.898438 32.050781 71.945312 32.484375 C 72.015625 32.167969 72.042969 31.816406 72.09375 31.570312 C 72.109375 30.835938 72.773438 29.109375 71.636719 29.011719 C 71.121094 29.007812 70.9375 29.519531 70.980469 29.960938 C 70.925781 30.691406 70.824219 31.421875 70.683594 32.140625 C 70.640625 32.277344 70.609375 32.421875 70.601562 32.5625 C 70.140625 32.570312 69.675781 32.570312 69.214844 32.546875 C 68.28125 32.496094 67.339844 32.53125 66.421875 32.679688 C 66.65625 31.515625 66.609375 29.9375 66.625 29.441406 C 66.621094 27.546875 66.210938 25.683594 65.617188 23.894531 C 65.351562 23.082031 64.148438 23.441406 64.375 24.257812 C 65.273438 26.792969 65.558594 29.550781 65.171875 32.222656 C 65.164062 32.488281 65.027344 32.769531 64.9375 33.042969 C 64.070312 33.332031 63.246094 33.757812 62.507812 34.359375 C 61.445312 35.140625 60.472656 36.082031 59.371094 36.808594 C 59.539062 36.039062 59.644531 35.253906 59.652344 34.460938 C 59.703125 31.714844 58.980469 28.859375 57.183594 26.734375 C 55.417969 24.648438 53.085938 22.996094 50.503906 22.070312 C 52.199219 21.652344 53.957031 21.402344 55.558594 20.640625 C 56.59375 20.199219 57.578125 19.617188 58.46875 18.921875 C 58.699219 19.054688 58.949219 19.167969 59.125 19.308594 C 60.039062 19.925781 61.015625 20.753906 61.8125 21.585938 C 62.429688 22.171875 63.304688 21.269531 62.71875 20.65625 C 61.796875 19.703125 60.773438 18.84375 59.667969 18.113281 C 59.621094 18.082031 59.566406 18.046875 59.511719 18.015625 C 60.289062 17.261719 60.964844 16.414062 61.507812 15.484375 C 61.941406 14.816406 61.964844 13.941406 61.023438 13.796875 C 59.734375 13.472656 58.476562 13.109375 57.214844 12.691406 C 54.53125 11.582031 50.757812 12.003906 50.238281 15.445312 C 50.152344 16.546875 49.980469 18.019531 50.738281 18.917969 C 51.304688 19.351562 52.0625 18.628906 51.664062 18.042969 C 50.972656 15.742188 51.746094 13.335938 54.5 13.417969 C 56.5 13.601562 58.351562 14.546875 60.316406 14.953125 C 58.570312 17.863281 55.449219 19.671875 52.191406 20.367188 C 50.304688 20.761719 48.347656 21.085938 46.738281 22.273438 C 44.804688 23.675781 43.886719 26.40625 44.71875 28.667969 C 45.089844 29.445312 46.234375 28.914062 45.902344 28.144531 C 45.207031 25.925781 46.40625 23.816406 48.324219 22.804688 C 49.328125 23.007812 50.324219 23.339844 51.253906 23.78125 C 53.984375 25.167969 56.617188 27.226562 57.707031 30.214844 C 58.503906 32.589844 58.59375 35.21875 57.828125 37.613281 C 56.710938 38.039062 55.082031 38.03125 54.515625 36.792969 C 54.171875 36.34375 53.417969 36.558594 53.363281 37.132812 C 53.347656 37.660156 53.796875 38.109375 54.175781 38.429688 C 57.558594 40.738281 60.941406 37.203125 63.511719 35.238281 C 65.234375 33.890625 67.445312 33.761719 69.542969 33.847656 C 75.195312 34.054688 81.136719 31.945312 84.769531 27.449219 C 88.082031 23.191406 89.441406 16.898438 86.855469 11.964844 Z M 54.410156 37.707031 C 54.546875 37.585938 54.632812 37.425781 54.652344 37.257812 C 54.636719 37.433594 54.546875 37.59375 54.410156 37.707031 Z M 54.410156 37.707031 " fill-opacity="1" fill-rule="nonzero"/><path fill="#5a3a1a" d="M 81.15625 26.546875 C 80.863281 26.742188 80.726562 27.125 80.921875 27.453125 C 81.410156 28.167969 82.132812 27.515625 82.46875 27.007812 C 83.15625 26.074219 83.777344 25.082031 84.285156 24.035156 C 86.394531 19.476562 85.667969 14.015625 81.628906 10.785156 C 81.242188 10.441406 80.738281 10.113281 80.304688 9.796875 C 80.074219 9.578125 79.707031 9.550781 79.453125 9.753906 C 79.175781 9.972656 79.125 10.394531 79.347656 10.667969 C 80.242188 11.398438 81.144531 11.945312 81.921875 12.871094 C 85.050781 16.253906 84.628906 21.640625 82.105469 25.25 C 81.808594 25.695312 81.53125 26.164062 81.15625 26.546875 Z M 81.15625 26.546875 " fill-opacity="1" fill-rule="nonzero"/><path fill="#5a3a1a" d="M 46.308594 27.914062 C 46.390625 28.738281 47.601562 28.675781 47.601562 27.84375 C 47.589844 27.132812 48 26.425781 48.585938 26.039062 C 49.445312 25.457031 50.605469 25.570312 51.511719 25.976562 C 51.671875 26.058594 51.828125 26.152344 51.964844 26.273438 C 52.234375 26.503906 52.667969 26.410156 52.871094 26.140625 C 53.433594 25.140625 51.824219 24.679688 51.113281 24.476562 C 48.859375 23.789062 46.214844 25.433594 46.308594 27.914062 Z M 46.308594 27.914062 " fill-opacity="1" fill-rule="nonzero"/><path fill="#5a3a1a" d="M 88.664062 59.476562 C 86.347656 58.273438 83.859375 57.199219 81.207031 57.253906 C 78.554688 57.238281 76.058594 58.183594 73.511719 58.789062 C 71.804688 59.171875 69.933594 59.28125 68.1875 58.953125 C 66.523438 58.652344 65.082031 58.03125 63.414062 57.558594 C 60.59375 56.765625 57.625 57.214844 54.921875 58.230469 C 54.234375 58.453125 53.542969 58.667969 52.835938 58.832031 C 52.441406 58.914062 52.054688 58.984375 51.65625 58.898438 C 51.300781 58.898438 51.015625 59.214844 51.023438 59.5625 C 51.203125 60.769531 53.074219 60.066406 53.871094 59.914062 C 56.59375 59.054688 59.382812 57.996094 62.277344 58.632812 C 63.917969 58.957031 65.464844 59.664062 67.09375 60.050781 C 69.425781 60.65625 71.890625 60.53125 74.214844 59.957031 C 79.808594 58.351562 82.644531 57.648438 88.027344 60.609375 C 88.789062 61.007812 89.386719 59.90625 88.664062 59.476562 Z M 88.664062 59.476562 " fill-opacity="1" fill-rule="nonzero"/><path fill="#5a3a1a" d="M 52.542969 38.34375 C 52.246094 38.175781 51.816406 38.273438 51.660156 38.589844 C 48.273438 43.964844 47.015625 51.070312 50.160156 56.847656 C 50.417969 57.34375 51.230469 57.210938 51.34375 56.667969 C 51.386719 56.488281 51.347656 56.320312 51.261719 56.160156 C 50.960938 55.570312 50.699219 54.953125 50.46875 54.332031 C 48.710938 49.425781 49.914062 44.03125 52.546875 39.652344 C 52.832031 39.257812 53.074219 38.652344 52.542969 38.34375 Z M 52.542969 38.34375 " fill-opacity="1" fill-rule="nonzero"/><path fill="#5a3a1a" d="M 56.71875 33.382812 C 57.113281 33.328125 57.488281 33.140625 57.480469 32.679688 C 57.246094 30.976562 54.160156 33.292969 53.414062 33.757812 C 45.265625 39.320312 41.210938 49.351562 46.085938 58.5 C 46.238281 58.820312 46.613281 58.980469 46.9375 58.832031 C 47.25 58.695312 47.425781 58.296875 47.269531 57.976562 C 46.898438 57.210938 46.535156 56.441406 46.222656 55.648438 C 43.289062 47.519531 47.441406 39.355469 54.265625 34.742188 C 55.039062 34.210938 55.839844 33.71875 56.71875 33.382812 Z M 56.71875 33.382812 " fill-opacity="1" fill-rule="nonzero"/><path fill="#5a3a1a" d="M 87.4375 63.484375 C 86.742188 63.347656 86.058594 63.15625 85.382812 62.945312 C 78.539062 59.851562 75.347656 60.558594 68.390625 62.511719 C 66.808594 62.875 65.09375 62.992188 63.476562 62.71875 C 61.039062 62.253906 58.738281 61.527344 56.230469 61.335938 C 52.53125 60.902344 48.953125 62.414062 45.257812 62.015625 C 41.628906 61.425781 40.292969 57.824219 40.453125 54.511719 C 40.917969 47.886719 44.96875 40.261719 49.75 35.714844 C 51.5625 34.089844 53.582031 32.707031 55.734375 31.574219 C 56.199219 31.234375 57.105469 31.234375 57.117188 30.511719 C 57.113281 30.0625 56.636719 29.773438 56.230469 29.917969 C 55.414062 30.234375 54.644531 30.671875 53.890625 31.109375 C 47.128906 34.875 42.566406 41.671875 40.222656 48.945312 C 38.578125 53.640625 38.25 60.777344 43.734375 62.945312 C 46.742188 64.003906 49.945312 62.945312 52.996094 62.65625 C 54.839844 62.480469 56.691406 62.609375 58.507812 62.964844 C 60.71875 63.351562 62.769531 64.113281 65.054688 64.167969 C 69.40625 64.277344 73.402344 61.816406 77.78125 62.152344 C 81.117188 62.132812 83.929688 64.148438 87.125 64.746094 C 87.976562 64.933594 88.230469 63.6875 87.4375 63.484375 Z M 87.4375 63.484375 " fill-opacity="1" fill-rule="nonzero"/><path fill="#5a3a1a" d="M 34.121094 69.773438 C 34.394531 69.558594 34.453125 69.136719 34.230469 68.863281 C 33.542969 68.027344 32.894531 67.15625 32.269531 66.273438 C 31.359375 64.996094 30.71875 63.554688 30.359375 62.027344 C 27.84375 50.167969 38.253906 38 48.164062 32.890625 C 50.261719 31.796875 52.453125 30.800781 54.714844 30.035156 C 55.089844 29.914062 55.457031 29.753906 55.84375 29.65625 C 56.195312 29.621094 56.433594 29.25 56.382812 28.914062 C 56.15625 27.976562 55.101562 28.527344 54.503906 28.734375 C 52.234375 29.492188 50.039062 30.457031 47.917969 31.558594 C 37.207031 36.960938 26.21875 49.890625 29.175781 62.628906 C 29.796875 65.328125 31.511719 67.554688 33.210938 69.667969 C 33.4375 69.941406 33.84375 69.996094 34.121094 69.773438 Z M 34.121094 69.773438 " fill-opacity="1" fill-rule="nonzero"/><path fill="#5a3a1a" d="M 75.980469 66.84375 C 78.558594 66.097656 81.011719 67.40625 83.351562 68.339844 C 84.171875 68.640625 84.585938 67.460938 83.832031 67.132812 C 81.929688 66.425781 80.058594 65.390625 77.996094 65.320312 C 74.855469 65.210938 72.1875 67.03125 69.414062 68.226562 C 62.921875 70.429688 59.382812 64.542969 51.386719 66.558594 C 49.238281 66.996094 47.164062 67.699219 44.96875 67.910156 C 41.945312 68.1875 38.550781 67.5625 36.484375 65.160156 C 34.210938 62.367188 33.992188 58.542969 34.332031 55.074219 C 34.609375 51.742188 35.996094 48.714844 37.472656 45.757812 C 37.660156 44.960938 36.515625 44.632812 36.234375 45.382812 C 34.945312 47.902344 33.75 50.53125 33.269531 53.34375 C 32.617188 57.308594 32.65625 61.726562 34.890625 65.210938 C 37.027344 68.445312 41.179688 69.550781 44.863281 69.21875 C 48.488281 68.9375 51.90625 67.261719 55.589844 67.46875 C 59.140625 67.621094 62.230469 69.832031 65.792969 70.011719 C 69.710938 70.476562 72.40625 67.683594 75.980469 66.84375 Z M 75.980469 66.84375 " fill-opacity="1" fill-rule="nonzero"/><path fill="#5a3a1a" d="M 15.804688 69.15625 C 17.007812 68.84375 18.210938 68.441406 19.242188 67.726562 C 26.46875 62.886719 26.957031 53.355469 30.449219 46.074219 C 33.941406 39.050781 38.90625 34.753906 45.882812 31.375 C 48.503906 30.09375 51.222656 28.976562 54.015625 28.128906 C 54.398438 27.960938 55.140625 28.027344 55.363281 27.566406 C 55.652344 26.878906 54.933594 26.457031 54.359375 26.699219 C 53.109375 26.996094 51.898438 27.429688 50.699219 27.886719 C 40.136719 31.878906 32.152344 37.492188 28.03125 48.4375 C 26.3125 53.285156 25.15625 58.4375 22.34375 62.808594 C 21.054688 64.707031 19.332031 66.398438 17.226562 67.34375 C 16.734375 67.535156 16.230469 67.691406 15.722656 67.835938 C 15.320312 67.890625 14.945312 68.203125 15.039062 68.648438 C 15.105469 68.984375 15.46875 69.246094 15.804688 69.15625 Z M 15.804688 69.15625 " fill-opacity="1" fill-rule="nonzero"/><path fill="#5a3a1a" d="M 11.164062 60.050781 C 13.089844 59.789062 15.035156 59.421875 16.792969 58.566406 C 23.292969 55.359375 25.253906 47.789062 28.941406 42.097656 C 32.246094 36.832031 37.761719 33.507812 43.125 30.636719 C 43.125 30.640625 43.121094 30.640625 43.117188 30.640625 C 43.390625 30.550781 43.59375 30.273438 43.566406 29.976562 C 43.238281 28.597656 41.71875 30.015625 40.980469 30.316406 C 39.070312 31.363281 37.207031 32.492188 35.433594 33.761719 C 30.277344 37.25 27.667969 41.09375 24.949219 46.59375 C 21.9375 52.707031 18.816406 57.996094 11.402344 58.710938 C 10.953125 58.722656 10.4375 58.902344 10.472656 59.449219 C 10.496094 59.792969 10.820312 60.089844 11.164062 60.050781 Z M 11.164062 60.050781 " fill-opacity="1" fill-rule="nonzero"/><path fill="#5a3a1a" d="M 11.320312 63.617188 C 16.078125 63.480469 20.273438 60.535156 23.085938 56.835938 C 23.914062 55.765625 24.632812 54.628906 25.308594 53.457031 C 25.398438 53.300781 25.441406 53.140625 25.40625 52.964844 C 25.320312 52.417969 24.515625 52.25 24.234375 52.730469 C 22.113281 56.496094 19.105469 60.046875 14.957031 61.574219 C 13.78125 61.976562 12.546875 62.3125 11.292969 62.3125 C 11 62.238281 10.683594 62.375 10.546875 62.652344 C 10.289062 63.179688 10.796875 63.667969 11.320312 63.617188 Z M 11.320312 63.617188 " fill-opacity="1" fill-rule="nonzero"/><path fill="#5a3a1a" d="M 70.976562 26.804688 C 71.007812 27.160156 71.367188 27.40625 71.703125 27.363281 C 72.066406 27.3125 72.289062 26.980469 72.257812 26.628906 C 72.164062 25.273438 71.917969 23.933594 71.492188 22.640625 C 70.238281 18.894531 67.949219 15.207031 64.476562 13.191406 C 63.699219 12.875 63.207031 14.003906 63.945312 14.375 C 68.054688 16.953125 70.609375 22.023438 70.976562 26.804688 Z M 70.976562 26.804688 " fill-opacity="1" fill-rule="nonzero"/><g clip-path="url(#d08d29c1ea)"><path fill="#c98a3a" d="M 5.128906 42.515625 C 5.160156 42.519531 5.191406 42.523438 5.222656 42.523438 C 5.554688 42.523438 5.839844 42.277344 5.886719 41.941406 C 8.933594 19.96875 27.921875 3.398438 50.058594 3.398438 C 54.84375 3.398438 59.550781 4.15625 64.050781 5.644531 C 64.402344 5.761719 64.78125 5.570312 64.898438 5.21875 C 65.015625 4.863281 64.824219 4.484375 64.472656 4.367188 C 59.835938 2.832031 54.988281 2.054688 50.058594 2.054688 C 38.90625 2.054688 28.148438 6.117188 19.773438 13.492188 C 11.472656 20.800781 6.070312 30.835938 4.558594 41.757812 C 4.507812 42.125 4.765625 42.464844 5.128906 42.515625 Z M 5.128906 42.515625 " fill-opacity="1" fill-rule="nonzero"/></g><g clip-path="url(#9545932476)"><path fill="#c98a3a" d="M 77.78125 83.234375 C 69.828125 89.578125 60.242188 92.929688 50.058594 92.929688 C 28.71875 92.929688 10.300781 77.6875 6.265625 56.6875 C 6.195312 56.324219 5.84375 56.085938 5.480469 56.15625 C 5.117188 56.226562 4.878906 56.578125 4.949219 56.941406 C 9.105469 78.574219 28.078125 94.277344 50.058594 94.277344 C 60.546875 94.277344 70.421875 90.824219 78.617188 84.289062 C 78.90625 84.058594 78.953125 83.636719 78.722656 83.34375 C 78.492188 83.054688 78.070312 83.003906 77.78125 83.234375 Z M 77.78125 83.234375 " fill-opacity="1" fill-rule="nonzero"/></g><path fill="#c98a3a" d="M 90.207031 27.132812 C 89.875 27.300781 89.742188 27.707031 89.910156 28.039062 C 93.0625 34.3125 94.660156 41.085938 94.660156 48.164062 C 94.660156 58.007812 91.539062 67.34375 85.632812 75.167969 C 85.410156 75.464844 85.46875 75.886719 85.765625 76.113281 C 85.886719 76.203125 86.027344 76.25 86.167969 76.25 C 86.371094 76.25 86.570312 76.15625 86.703125 75.984375 C 92.785156 67.921875 96.003906 58.304688 96.003906 48.164062 C 96.003906 40.871094 94.355469 33.898438 91.105469 27.429688 C 90.941406 27.097656 90.535156 26.964844 90.207031 27.132812 Z M 90.207031 27.132812 " fill-opacity="1" fill-rule="nonzero"/><path fill="#c98a3a" d="M 79.097656 49.539062 C 79.46875 49.539062 79.765625 49.238281 79.765625 48.867188 L 79.765625 48.347656 C 79.765625 45.980469 81.6875 44.054688 84.046875 44.054688 L 84.5625 44.054688 C 84.933594 44.054688 85.234375 43.75 85.234375 43.378906 C 85.234375 43.007812 84.933594 42.707031 84.5625 42.707031 L 84.046875 42.707031 C 81.6875 42.707031 79.765625 40.78125 79.765625 38.410156 L 79.765625 37.890625 C 79.765625 37.519531 79.46875 37.21875 79.097656 37.21875 C 78.726562 37.21875 78.425781 37.519531 78.425781 37.890625 L 78.425781 38.410156 C 78.425781 40.78125 76.507812 42.707031 74.148438 42.707031 L 73.628906 42.707031 C 73.257812 42.707031 72.957031 43.007812 72.957031 43.378906 C 72.957031 43.75 73.257812 44.054688 73.628906 44.054688 L 74.148438 44.054688 C 76.507812 44.054688 78.425781 45.980469 78.425781 48.347656 L 78.425781 48.867188 C 78.425781 49.238281 78.726562 49.539062 79.097656 49.539062 Z M 76.804688 43.378906 C 77.777344 42.855469 78.574219 42.054688 79.097656 41.082031 C 79.621094 42.054688 80.417969 42.855469 81.386719 43.378906 C 80.417969 43.902344 79.621094 44.707031 79.097656 45.679688 C 78.574219 44.707031 77.777344 43.902344 76.804688 43.378906 Z M 76.804688 43.378906 " fill-opacity="1" fill-rule="nonzero"/><path fill="#c98a3a" d="M 28.410156 27.171875 C 28.78125 27.171875 29.078125 26.871094 29.078125 26.5 L 29.078125 26.09375 C 29.078125 24.328125 30.511719 22.890625 32.269531 22.890625 L 32.671875 22.890625 C 33.042969 22.890625 33.34375 22.589844 33.34375 22.21875 C 33.34375 21.847656 33.042969 21.546875 32.671875 21.546875 L 32.269531 21.546875 C 30.511719 21.546875 29.078125 20.109375 29.078125 18.34375 L 29.078125 17.9375 C 29.078125 17.566406 28.78125 17.265625 28.410156 17.265625 C 28.039062 17.265625 27.738281 17.566406 27.738281 17.9375 L 27.738281 18.34375 C 27.738281 20.109375 26.308594 21.546875 24.546875 21.546875 L 24.144531 21.546875 C 23.773438 21.546875 23.472656 21.847656 23.472656 22.21875 C 23.472656 22.589844 23.773438 22.890625 24.144531 22.890625 L 24.546875 22.890625 C 26.308594 22.890625 27.738281 24.328125 27.738281 26.09375 L 27.738281 26.5 C 27.738281 26.871094 28.039062 27.171875 28.410156 27.171875 Z M 26.910156 22.21875 C 27.519531 21.84375 28.035156 21.328125 28.410156 20.714844 C 28.785156 21.328125 29.296875 21.84375 29.910156 22.21875 C 29.296875 22.59375 28.785156 23.113281 28.410156 23.726562 C 28.035156 23.113281 27.519531 22.59375 26.910156 22.21875 Z M 26.910156 22.21875 " fill-opacity="1" fill-rule="nonzero"/><path fill="#5a3a1a" d="M 26.34375 73.863281 C 26.710938 73.863281 27.011719 73.5625 27.011719 73.1875 L 27.011719 72.488281 C 27.011719 71.578125 27.753906 70.832031 28.664062 70.832031 L 29.359375 70.832031 C 29.730469 70.832031 30.03125 70.53125 30.03125 70.160156 C 30.03125 69.789062 29.730469 69.488281 29.359375 69.488281 L 28.664062 69.488281 C 27.753906 69.488281 27.011719 68.742188 27.011719 67.828125 L 27.011719 67.128906 C 27.011719 66.757812 26.710938 66.457031 26.34375 66.457031 C 25.972656 66.457031 25.671875 66.757812 25.671875 67.128906 L 25.671875 67.828125 C 25.671875 68.742188 24.929688 69.488281 24.019531 69.488281 L 23.324219 69.488281 C 22.953125 69.488281 22.652344 69.789062 22.652344 70.160156 C 22.652344 70.53125 22.953125 70.832031 23.324219 70.832031 L 24.019531 70.832031 C 24.929688 70.832031 25.671875 71.574219 25.671875 72.488281 L 25.671875 73.1875 C 25.671875 73.5625 25.972656 73.863281 26.34375 73.863281 Z M 25.90625 70.160156 C 26.066406 70.027344 26.210938 69.882812 26.34375 69.722656 C 26.472656 69.882812 26.617188 70.027344 26.777344 70.160156 C 26.617188 70.289062 26.472656 70.4375 26.34375 70.597656 C 26.210938 70.4375 26.066406 70.289062 25.90625 70.160156 Z M 25.90625 70.160156 " fill-opacity="1" fill-rule="nonzero"/><path fill="#c98a3a" d="M 5.714844 53.960938 L 5.714844 53.542969 C 5.714844 51.722656 7.191406 50.242188 9.003906 50.242188 L 9.417969 50.242188 C 9.789062 50.242188 10.089844 49.941406 10.089844 49.570312 C 10.089844 49.199219 9.789062 48.898438 9.417969 48.898438 L 9.003906 48.898438 C 7.191406 48.898438 5.714844 47.417969 5.714844 45.597656 L 5.714844 45.179688 C 5.714844 44.808594 5.414062 44.507812 5.042969 44.507812 C 4.675781 44.507812 4.375 44.808594 4.375 45.179688 L 4.375 45.597656 C 4.375 47.417969 2.898438 48.898438 1.085938 48.898438 L 0.671875 48.898438 C 0.300781 48.898438 0 49.199219 0 49.570312 C 0 49.941406 0.300781 50.242188 0.671875 50.242188 L 1.085938 50.242188 C 2.898438 50.242188 4.375 51.722656 4.375 53.542969 L 4.375 53.960938 C 4.375 54.332031 4.675781 54.632812 5.042969 54.632812 C 5.414062 54.632812 5.714844 54.332031 5.714844 53.960938 Z M 3.472656 49.570312 C 4.117188 49.179688 4.65625 48.636719 5.042969 47.992188 C 5.433594 48.636719 5.972656 49.179688 6.617188 49.570312 C 5.972656 49.960938 5.433594 50.503906 5.042969 51.148438 C 4.65625 50.503906 4.117188 49.960938 3.472656 49.570312 Z M 3.472656 49.570312 " fill-opacity="1" fill-rule="nonzero"/><path fill="#a66a2c" d="M 87.9375 79.144531 L 87.421875 79.144531 C 85.0625 79.144531 83.140625 77.21875 83.140625 74.851562 L 83.140625 74.332031 C 83.140625 73.957031 82.84375 73.65625 82.472656 73.65625 C 82.101562 73.65625 81.800781 73.957031 81.800781 74.332031 L 81.800781 74.851562 C 81.800781 77.21875 79.882812 79.144531 77.523438 79.144531 L 77.003906 79.144531 C 76.632812 79.144531 76.332031 79.445312 76.332031 79.816406 C 76.332031 80.191406 76.632812 80.492188 77.003906 80.492188 L 77.523438 80.492188 C 79.882812 80.492188 81.800781 82.417969 81.800781 84.785156 L 81.800781 85.304688 C 81.800781 85.675781 82.101562 85.980469 82.472656 85.980469 C 82.84375 85.980469 83.140625 85.675781 83.140625 85.304688 L 83.140625 84.785156 C 83.140625 82.417969 85.0625 80.492188 87.421875 80.492188 L 87.9375 80.492188 C 88.308594 80.492188 88.609375 80.191406 88.609375 79.816406 C 88.609375 79.445312 88.308594 79.144531 87.9375 79.144531 Z M 82.472656 82.117188 C 81.949219 81.144531 81.148438 80.34375 80.179688 79.816406 C 81.148438 79.292969 81.949219 78.492188 82.472656 77.519531 C 82.996094 78.492188 83.792969 79.292969 84.761719 79.816406 C 83.792969 80.34375 82.996094 81.144531 82.472656 82.117188 Z M 82.472656 82.117188 " fill-opacity="1" fill-rule="nonzero"/></svg>