<svg xmlns="http://www.w3.org/2000/svg" xmlns:xlink="http://www.w3.org/1999/xlink" width="128" zoomAndPan="magnify" viewBox="0 0 96 95.999999" height="128" preserveAspectRatio="xMidYMid meet" version="1.0"><defs><clipPath id="7edfb746ea"><path d="M 14 0.179688 L 72 0.179688 L 72 16 L 14 16 Z M 14 0.179688 " clip-rule="nonzero"/></clipPath></defs><path fill="#a66a2c" d="M 34.921875 77.519531 C 34.917969 77.535156 34.917969 77.546875 34.914062 77.558594 C 34.910156 77.566406 34.910156 77.570312 34.90625 77.578125 C 34.90625 77.585938 34.902344 77.589844 34.902344 77.597656 C 34.675781 78.367188 34.507812 79.15625 34.40625 79.960938 C 34.148438 82.015625 34.34375 84.140625 34.972656 86.113281 C 35.128906 86.609375 35.316406 87.097656 35.523438 87.578125 C 35.625 87.800781 35.726562 88.023438 35.835938 88.242188 C 35.90625 88.378906 35.980469 88.515625 36.054688 88.652344 C 36.058594 88.660156 36.0625 88.671875 36.070312 88.679688 C 36.074219 88.6875 36.078125 88.699219 36.085938 88.707031 C 36.148438 88.824219 36.214844 88.941406 36.28125 89.058594 C 36.578125 89.5625 36.902344 90.046875 37.257812 90.515625 C 37.601562 90.964844 37.972656 91.394531 38.363281 91.800781 C 38.558594 92.003906 38.757812 92.199219 38.964844 92.390625 C 39.082031 92.492188 39.195312 92.597656 39.316406 92.699219 C 39.394531 92.765625 39.472656 92.835938 39.554688 92.898438 C 39.613281 92.949219 39.675781 93 39.742188 93.050781 C 40.21875 93.433594 40.726562 93.785156 41.25 94.101562 C 43.3125 95.351562 45.695312 96.082031 48.105469 96.167969 C 48.609375 96.1875 49.109375 96.179688 49.613281 96.148438 C 51.425781 96.027344 53.210938 95.570312 54.863281 94.785156 C 57.265625 93.644531 59.335938 91.816406 60.773438 89.574219 C 62.042969 87.605469 62.828125 85.320312 63.027344 82.980469 C 63.207031 80.785156 62.890625 78.574219 62.105469 76.515625 L 62.097656 76.492188 C 62.089844 76.480469 62.085938 76.46875 62.082031 76.453125 C 62.058594 76.394531 62.027344 76.316406 61.992188 76.234375 C 61.992188 76.230469 61.988281 76.222656 61.988281 76.21875 C 61.984375 76.214844 61.984375 76.210938 61.980469 76.207031 C 61.972656 76.183594 61.960938 76.160156 61.953125 76.136719 C 61.949219 76.125 61.941406 76.117188 61.9375 76.105469 C 61.8125 75.851562 61.542969 75.6875 61.25 75.730469 C 60.902344 75.785156 60.640625 76.128906 60.699219 76.480469 C 60.703125 76.503906 60.707031 76.527344 60.710938 76.554688 C 60.738281 76.710938 60.757812 76.875 60.773438 77.035156 L 60.777344 77.054688 C 60.777344 77.058594 60.777344 77.058594 60.777344 77.0625 C 60.800781 77.371094 60.804688 77.683594 60.792969 78 C 60.78125 78.242188 60.746094 78.570312 60.6875 78.898438 C 60.625 79.234375 60.542969 79.566406 60.4375 79.894531 C 60.328125 80.226562 60.199219 80.550781 60.050781 80.867188 C 59.871094 81.242188 59.667969 81.601562 59.441406 81.949219 C 59.210938 82.292969 58.964844 82.617188 58.699219 82.933594 C 58.40625 83.269531 58.09375 83.585938 57.765625 83.890625 C 57.375 84.242188 56.957031 84.570312 56.523438 84.871094 C 56.074219 85.183594 55.5625 85.488281 55.03125 85.765625 C 54.53125 86.023438 53.964844 86.269531 53.382812 86.488281 C 52.746094 86.714844 52.097656 86.90625 51.441406 87.058594 C 50.722656 87.214844 49.996094 87.328125 49.265625 87.390625 C 48.59375 87.445312 47.917969 87.460938 47.242188 87.433594 C 47.222656 87.433594 47.199219 87.433594 47.179688 87.433594 L 47.171875 87.433594 C 47.152344 87.429688 47.132812 87.429688 47.113281 87.429688 C 46.480469 87.394531 45.800781 87.320312 45.128906 87.203125 C 44.488281 87.082031 43.851562 86.921875 43.230469 86.722656 C 42.65625 86.53125 42.097656 86.308594 41.554688 86.046875 C 41.164062 85.855469 40.707031 85.597656 40.265625 85.3125 C 39.871094 85.050781 39.492188 84.765625 39.132812 84.457031 C 38.875 84.230469 38.566406 83.929688 38.277344 83.609375 C 38.042969 83.34375 37.824219 83.0625 37.621094 82.773438 L 37.609375 82.757812 C 37.605469 82.75 37.601562 82.742188 37.59375 82.734375 C 37.417969 82.472656 37.242188 82.175781 37.085938 81.875 C 36.941406 81.585938 36.8125 81.289062 36.703125 80.984375 C 36.613281 80.722656 36.535156 80.449219 36.46875 80.167969 C 36.398438 79.851562 36.351562 79.53125 36.320312 79.203125 C 36.300781 78.914062 36.292969 78.625 36.304688 78.335938 C 36.3125 78.152344 36.328125 77.96875 36.351562 77.785156 C 36.375 77.578125 36.292969 77.382812 36.152344 77.246094 C 35.957031 77.035156 35.621094 76.949219 35.34375 77.070312 C 35.296875 77.085938 35.207031 77.15625 35.125 77.238281 C 35.121094 77.242188 35.117188 77.246094 35.113281 77.25 C 35.027344 77.324219 34.960938 77.421875 34.921875 77.53125 C 34.921875 77.535156 34.917969 77.535156 34.917969 77.539062 C 34.917969 77.539062 34.917969 77.542969 34.917969 77.546875 C 34.917969 77.542969 34.917969 77.539062 34.921875 77.535156 C 34.921875 77.53125 34.921875 77.523438 34.921875 77.519531 Z M 36.617188 83.617188 C 37.597656 85.011719 38.941406 86.125 40.425781 86.9375 C 42.496094 88.070312 44.832031 88.640625 47.179688 88.742188 L 47.175781 88.742188 C 47.804688 88.769531 48.429688 88.761719 49.054688 88.71875 C 50.695312 88.613281 52.320312 88.273438 53.871094 87.703125 C 55.992188 86.925781 58.003906 85.683594 59.515625 83.984375 C 60.472656 82.910156 61.25 81.652344 61.691406 80.277344 C 61.691406 80.28125 61.691406 80.285156 61.691406 80.292969 C 61.753906 80.875 61.777344 81.460938 61.769531 82.046875 C 61.753906 82.597656 61.699219 83.199219 61.609375 83.796875 C 61.515625 84.382812 61.378906 84.960938 61.214844 85.535156 C 61.066406 86.027344 60.855469 86.59375 60.609375 87.144531 C 60.359375 87.695312 60.074219 88.222656 59.757812 88.738281 C 59.460938 89.203125 59.140625 89.648438 58.796875 90.074219 C 58.433594 90.511719 58.046875 90.925781 57.632812 91.320312 C 57.207031 91.71875 56.753906 92.089844 56.28125 92.433594 C 55.855469 92.734375 55.414062 93.011719 54.957031 93.265625 C 54.457031 93.535156 53.945312 93.773438 53.421875 93.980469 C 52.890625 94.183594 52.351562 94.355469 51.800781 94.496094 C 51.300781 94.617188 50.714844 94.722656 50.121094 94.792969 C 49.546875 94.851562 48.972656 94.875 48.398438 94.867188 C 47.785156 94.851562 47.179688 94.792969 46.574219 94.699219 C 46.074219 94.617188 45.488281 94.484375 44.914062 94.3125 C 44.414062 94.164062 43.839844 93.949219 43.28125 93.699219 C 42.753906 93.453125 42.238281 93.175781 41.746094 92.871094 C 41.273438 92.570312 40.8125 92.234375 40.371094 91.875 L 40.3125 91.828125 C 39.9375 91.515625 39.519531 91.121094 39.125 90.703125 C 38.742188 90.285156 38.382812 89.847656 38.050781 89.386719 C 37.78125 89.003906 37.480469 88.535156 37.214844 88.050781 C 37.203125 88.027344 37.191406 88.007812 37.179688 87.984375 C 37.179688 87.984375 37.179688 87.984375 37.175781 87.984375 C 37.171875 87.972656 37.167969 87.960938 37.160156 87.953125 C 36.910156 87.476562 36.683594 86.980469 36.484375 86.472656 C 36.289062 85.957031 36.125 85.433594 35.988281 84.902344 L 35.984375 84.882812 C 35.980469 84.867188 35.976562 84.855469 35.972656 84.839844 C 35.847656 84.316406 35.75 83.753906 35.683594 83.1875 C 35.632812 82.714844 35.613281 82.242188 35.609375 81.769531 C 35.875 82.421875 36.210938 83.042969 36.617188 83.617188 Z M 36.617188 83.617188 " fill-opacity="1" fill-rule="nonzero"/><path fill="#5a3a1a" d="M 35.945312 19.519531 C 35.945312 20.238281 36.539062 20.835938 37.253906 20.835938 C 37.96875 20.835938 38.5625 20.238281 38.5625 19.519531 C 38.5625 18.804688 37.96875 18.207031 37.253906 18.207031 C 36.539062 18.207031 35.945312 18.804688 35.945312 19.519531 Z M 35.945312 19.519531 " fill-opacity="1" fill-rule="nonzero"/><path fill="#c98a3a" d="M 69.78125 52.152344 C 69.070312 52.152344 68.472656 52.75 68.472656 53.464844 C 68.472656 54.183594 69.070312 54.78125 69.78125 54.78125 C 70.496094 54.78125 71.089844 54.183594 71.089844 53.464844 C 71.089844 52.75 70.496094 52.152344 69.78125 52.152344 Z M 69.78125 52.152344 " fill-opacity="1" fill-rule="nonzero"/><path fill="#c98a3a" d="M 22.6875 57.316406 C 23.398438 57.316406 23.996094 56.71875 23.996094 56 C 23.996094 55.285156 23.398438 54.6875 22.6875 54.6875 C 21.972656 54.6875 21.378906 55.285156 21.378906 56 C 21.378906 56.71875 21.972656 57.316406 22.6875 57.316406 Z M 22.6875 57.316406 " fill-opacity="1" fill-rule="nonzero"/><path fill="#5a3a1a" d="M 55.382812 58.132812 C 55.515625 57.984375 55.5625 57.792969 55.542969 57.597656 C 55.507812 56.296875 55.695312 54.984375 56.160156 53.746094 C 58.453125 53.28125 60.894531 52.203125 61.886719 49.929688 C 62.261719 49.097656 62.898438 47.101562 61.84375 46.578125 C 61.554688 46.46875 61.25 46.585938 61.019531 46.769531 C 60.523438 47.117188 60.03125 47.476562 59.542969 47.832031 C 56.175781 49.964844 53.945312 53.730469 54.253906 57.785156 C 54.304688 58.3125 55.042969 58.546875 55.382812 58.132812 Z M 61.03125 48.375 C 60.679688 50.417969 58.839844 51.6875 56.953125 52.191406 C 57.9375 50.570312 59.496094 49.460938 61.03125 48.375 Z M 61.03125 48.375 " fill-opacity="1" fill-rule="nonzero"/><path fill="#5a3a1a" d="M 54.253906 57.820312 C 54.253906 57.808594 54.253906 57.796875 54.253906 57.785156 C 54.253906 57.769531 54.246094 57.753906 54.246094 57.734375 C 54.246094 57.734375 54.253906 57.820312 54.253906 57.820312 Z M 54.253906 57.820312 " fill-opacity="1" fill-rule="nonzero"/><path fill="#5a3a1a" d="M 43.625 66.257812 C 45.046875 67.269531 46.382812 68.488281 47.429688 69.941406 C 47.429688 69.941406 47.390625 69.867188 47.390625 69.867188 C 47.5 70.089844 47.707031 70.234375 47.933594 70.257812 C 48.210938 70.324219 48.511719 70.191406 48.664062 69.933594 C 48.972656 69.457031 49.304688 69 49.664062 68.558594 C 50.375 67.71875 51.160156 66.9375 52 66.226562 C 52.253906 66.011719 52.289062 65.730469 52.203125 65.5 C 52.164062 65.15625 51.867188 64.914062 51.527344 64.914062 L 51.523438 64.914062 C 50.523438 64.910156 49.519531 64.90625 48.515625 64.902344 C 46.949219 64.898438 45.382812 64.898438 43.816406 64.886719 C 43.496094 64.882812 43.234375 65.160156 43.195312 65.464844 C 43.125 65.757812 43.234375 66.097656 43.625 66.257812 Z M 48.667969 66.214844 C 49.132812 66.21875 49.597656 66.21875 50.0625 66.222656 C 49.316406 66.941406 48.617188 67.710938 48.015625 68.554688 C 47.3125 67.703125 46.523438 66.921875 45.683594 66.203125 C 46.679688 66.207031 47.671875 66.210938 48.667969 66.214844 Z M 48.667969 66.214844 " fill-opacity="1" fill-rule="nonzero"/><path fill="#5a3a1a" d="M 36.460938 47.855469 C 35.972656 47.5 35.484375 47.140625 34.984375 46.792969 C 34.753906 46.609375 34.449219 46.492188 34.160156 46.601562 C 33.105469 47.125 33.742188 49.121094 34.117188 49.953125 C 35.109375 52.226562 37.550781 53.304688 39.84375 53.769531 C 40.308594 55.007812 40.496094 56.320312 40.460938 57.621094 C 40.441406 57.816406 40.488281 58.007812 40.621094 58.15625 C 40.960938 58.570312 41.699219 58.335938 41.75 57.808594 C 42.0625 53.753906 39.832031 49.988281 36.460938 47.855469 Z M 34.972656 48.398438 C 36.507812 49.484375 38.066406 50.59375 39.050781 52.214844 C 37.167969 51.710938 35.324219 50.441406 34.972656 48.398438 Z M 34.972656 48.398438 " fill-opacity="1" fill-rule="nonzero"/><path fill="#5a3a1a" d="M 41.761719 57.757812 C 41.757812 57.777344 41.753906 57.792969 41.75 57.808594 C 41.75 57.820312 41.75 57.832031 41.75 57.84375 C 41.75 57.84375 41.761719 57.757812 41.761719 57.757812 Z M 41.761719 57.757812 " fill-opacity="1" fill-rule="nonzero"/><path fill="#5a3a1a" d="M 15.453125 51.171875 C 18.339844 51.046875 21.515625 49.226562 23.023438 46.753906 C 23.308594 46.144531 22.773438 45.5625 22.28125 45.675781 C 22.027344 45.699219 21.785156 45.902344 21.550781 45.992188 C 21.175781 46.175781 20.785156 46.324219 20.390625 46.449219 C 18.171875 46.867188 15.753906 46.304688 14.144531 44.660156 C 12.023438 42.433594 10.667969 39.246094 10.964844 36.140625 C 11.921875 31.433594 16.246094 29.601562 20.507812 31.496094 C 22.140625 32.1875 23.605469 33.195312 24.863281 34.40625 C 25.964844 35.410156 26.652344 36.777344 27.710938 37.808594 C 28.238281 38.226562 28.835938 38.480469 29.472656 38.636719 C 29.261719 39.367188 29.136719 40.117188 29.070312 40.878906 C 28.105469 40.066406 26.964844 39.433594 25.878906 39.113281 C 24.617188 38.792969 23.304688 38.753906 22.011719 38.640625 C 21.03125 38.558594 20.054688 38.441406 19.078125 38.316406 C 18.5 38.179688 17.847656 38.554688 17.875 39.195312 C 18.039062 40.660156 19.195312 41.816406 20.066406 42.933594 C 22.136719 45.53125 24.953125 47.042969 28.195312 47.042969 C 28.550781 47.042969 28.914062 47.023438 29.277344 46.988281 C 29.320312 46.980469 29.367188 46.976562 29.414062 46.972656 C 29.453125 47.28125 29.496094 47.585938 29.535156 47.890625 C 29.953125 50.632812 30.378906 53.410156 31.488281 55.96875 C 32 57.230469 32.726562 58.378906 33.5 59.484375 C 34.925781 61.503906 36.199219 63.480469 37.167969 65.800781 C 39.296875 71.152344 39.03125 76.941406 46.34375 77.394531 C 47.019531 77.457031 47.71875 77.5 48.425781 77.5 C 50.996094 77.5 53.65625 76.945312 55.378906 74.945312 C 56.683594 73.363281 57.175781 71.308594 57.925781 69.433594 C 59.046875 66.402344 60.34375 63.433594 61.816406 60.554688 C 63.070312 58.125 64.554688 55.792969 65.421875 53.183594 C 66.097656 51.164062 66.480469 49.074219 66.695312 46.960938 C 66.703125 46.960938 66.714844 46.960938 66.726562 46.964844 C 67.09375 47 67.453125 47.019531 67.808594 47.019531 C 71.050781 47.019531 73.871094 45.507812 75.9375 42.910156 C 76.808594 41.792969 77.964844 40.636719 78.128906 39.171875 C 78.15625 38.53125 77.507812 38.15625 76.925781 38.292969 C 75.949219 38.417969 74.976562 38.535156 73.992188 38.617188 C 72.699219 38.730469 71.390625 38.769531 70.125 39.089844 C 69.050781 39.40625 67.921875 40.03125 66.960938 40.832031 C 66.976562 40.015625 66.953125 39.242188 66.882812 38.515625 C 67.386719 38.355469 67.867188 38.125 68.292969 37.785156 C 69.351562 36.753906 70.039062 35.386719 71.140625 34.382812 C 72.398438 33.171875 73.863281 32.164062 75.496094 31.46875 C 79.757812 29.578125 84.082031 31.410156 85.039062 36.117188 C 85.339844 39.222656 83.984375 42.410156 81.863281 44.636719 C 80.25 46.28125 77.832031 46.839844 75.613281 46.425781 C 75.21875 46.300781 74.832031 46.152344 74.453125 45.964844 C 74.222656 45.878906 73.980469 45.675781 73.722656 45.648438 C 73.230469 45.539062 72.695312 46.121094 72.980469 46.730469 C 74.492188 49.203125 77.664062 51.023438 80.550781 51.148438 C 88.601562 51.816406 95.015625 45.230469 95.800781 37.445312 C 97.128906 28.402344 91.503906 20.425781 82.539062 18.746094 C 76.992188 17.515625 71.226562 19.019531 66.335938 21.734375 C 62.734375 23.777344 58.898438 26.078125 56.796875 29.785156 C 56.714844 29.949219 56.640625 30.113281 56.574219 30.273438 C 54.445312 29.890625 52.238281 29.90625 50.136719 30.421875 C 49.238281 30.570312 48.441406 31.078125 47.558594 31.246094 C 44.996094 30.597656 42.234375 30.351562 39.613281 30.785156 C 39.507812 30.460938 39.375 30.136719 39.207031 29.808594 C 37.105469 26.101562 33.269531 23.800781 29.667969 21.757812 C 24.78125 19.042969 19.011719 17.539062 13.464844 18.769531 C 4.5 20.449219 -1.125 28.425781 0.203125 37.46875 C 0.988281 45.253906 7.402344 51.839844 15.453125 51.171875 Z M 10.199219 40.519531 C 10.539062 41.609375 11.011719 42.640625 11.601562 43.570312 C 11.496094 43.785156 11.394531 43.996094 11.273438 44.140625 C 10.753906 44.921875 10.085938 45.597656 9.292969 46.101562 C 8.445312 46.675781 7.464844 46.9375 6.460938 46.976562 C 5 45.726562 3.828125 44.144531 2.976562 42.367188 C 3.667969 42.445312 4.300781 42.46875 4.578125 42.480469 L 4.628906 42.480469 C 6.039062 42.480469 7.445312 42.089844 8.714844 41.476562 C 9.019531 41.359375 9.621094 40.984375 10.199219 40.519531 Z M 20.375 47.78125 C 18.773438 49.179688 16.695312 49.949219 14.570312 49.890625 C 12.046875 49.894531 9.84375 49.230469 7.992188 48.097656 C 9.601562 47.679688 11.039062 46.640625 12.039062 45.316406 C 12.136719 45.15625 12.289062 44.953125 12.445312 44.730469 C 14.339844 47.003906 17.070312 48.351562 20.375 47.78125 Z M 26.800781 45.621094 C 23.464844 45.175781 20.984375 42.441406 19.347656 39.671875 C 21.820312 40.136719 24.507812 39.730469 26.769531 40.878906 C 27.574219 41.378906 28.378906 41.949219 29.019531 42.65625 C 29.039062 43.664062 29.136719 44.675781 29.253906 45.675781 C 28.4375 45.714844 27.617188 45.71875 26.800781 45.621094 Z M 69.234375 40.855469 C 71.496094 39.707031 74.183594 40.113281 76.65625 39.648438 C 75.019531 42.417969 72.542969 45.152344 69.203125 45.597656 C 68.40625 45.691406 67.605469 45.691406 66.804688 45.652344 C 66.875 44.667969 66.910156 43.679688 66.925781 42.691406 C 67.578125 41.957031 68.40625 41.367188 69.234375 40.855469 Z M 81.433594 49.867188 C 79.308594 49.925781 77.234375 49.15625 75.628906 47.757812 C 78.933594 48.328125 81.664062 46.980469 83.558594 44.707031 C 83.714844 44.929688 83.867188 45.132812 83.964844 45.292969 C 84.964844 46.617188 86.402344 47.65625 88.011719 48.074219 C 86.160156 49.207031 83.957031 49.871094 81.433594 49.867188 Z M 89.542969 46.953125 C 88.539062 46.914062 87.558594 46.652344 86.710938 46.078125 C 85.917969 45.574219 85.25 44.898438 84.730469 44.113281 C 84.609375 43.972656 84.507812 43.761719 84.402344 43.546875 C 84.992188 42.617188 85.464844 41.585938 85.804688 40.496094 C 86.382812 40.960938 86.988281 41.335938 87.289062 41.453125 C 88.558594 42.066406 89.964844 42.457031 91.375 42.457031 L 91.425781 42.457031 C 91.703125 42.445312 92.335938 42.421875 93.027344 42.34375 C 92.175781 44.121094 91.003906 45.703125 89.542969 46.953125 Z M 93.628906 40.902344 C 92.457031 41.15625 91.234375 41.226562 90.054688 41.011719 C 88.640625 40.71875 87.214844 40.117188 86.203125 39.078125 C 86.394531 38.160156 86.445312 37.238281 86.347656 36.34375 C 86.519531 36.351562 86.671875 36.359375 86.785156 36.371094 C 89.492188 36.308594 92.324219 35.425781 94.640625 33.925781 C 94.777344 36.320312 94.425781 38.71875 93.628906 40.902344 Z M 94.496094 32.453125 C 93.394531 33.1875 92.214844 33.800781 90.96875 34.257812 C 89.40625 34.8125 87.742188 35.15625 86.089844 35.019531 C 85.824219 34.058594 85.382812 33.160156 84.78125 32.367188 C 84.871094 32.1875 84.953125 32.007812 85.058594 31.867188 C 86.675781 29.542969 88.972656 27.296875 91.84375 26.699219 C 91.980469 26.648438 92.152344 26.621094 92.335938 26.601562 C 93.097656 27.785156 93.714844 29.121094 94.136719 30.613281 C 94.289062 31.222656 94.40625 31.835938 94.496094 32.453125 Z M 91.496094 25.433594 C 89.910156 25.808594 88.421875 26.539062 87.179688 27.613281 C 86.691406 27.976562 84.699219 29.867188 83.828125 31.328125 C 83.136719 30.699219 82.316406 30.179688 81.371094 29.816406 C 81.207031 29.761719 81.046875 29.71875 80.886719 29.679688 C 79.683594 26.53125 80.394531 22.761719 82.386719 20.070312 C 85.957031 20.820312 89.214844 22.59375 91.496094 25.433594 Z M 80.957031 19.824219 C 79.160156 22.582031 78.453125 26.265625 79.425781 29.449219 C 77.878906 29.34375 76.335938 29.671875 74.882812 30.289062 C 72.691406 28.148438 71.734375 24.789062 72.171875 21.785156 C 72.238281 21.367188 72.316406 20.953125 72.398438 20.535156 C 75.179688 19.695312 78.132812 19.453125 80.957031 19.824219 Z M 70.019531 21.421875 C 70.324219 21.285156 70.632812 21.15625 70.945312 21.035156 C 70.382812 24.527344 71.230469 28.285156 73.632812 30.898438 C 72.636719 31.453125 71.699219 32.136719 70.847656 32.894531 C 69.089844 32.390625 67.613281 31.210938 66.28125 29.941406 C 64.871094 28.574219 63.949219 26.8125 63.582031 24.902344 C 65.953125 23.332031 68.464844 22.097656 70.019531 21.421875 Z M 62.421875 25.707031 C 62.671875 26.769531 63.058594 27.792969 63.640625 28.722656 C 65.121094 30.984375 67.28125 32.890625 69.796875 33.914062 C 69.433594 34.300781 69.09375 34.699219 68.777344 35.101562 C 68.105469 35.980469 67.542969 37.085938 66.351562 37.300781 C 63.777344 37.804688 60.664062 37.597656 58.714844 35.628906 C 55.597656 32.175781 58.5625 28.519531 62.421875 25.707031 Z M 44.476562 31.992188 C 45.527344 32.117188 46.542969 32.472656 47.59375 32.554688 C 48.078125 32.550781 48.535156 32.359375 48.972656 32.167969 C 49.96875 31.757812 51.027344 31.550781 52.089844 31.40625 C 53.414062 31.257812 54.828125 31.316406 56.1875 31.542969 C 55.421875 35.597656 59.253906 38.816406 63.484375 38.824219 C 64.171875 38.84375 64.894531 38.847656 65.601562 38.773438 C 65.65625 39.425781 65.667969 40.152344 65.636719 40.976562 C 65.636719 42.910156 65.589844 44.910156 65.386719 46.898438 C 65.382812 46.902344 65.378906 46.90625 65.375 46.910156 C 65.378906 46.910156 65.382812 46.910156 65.382812 46.910156 C 65.125 49.417969 64.617188 51.898438 63.632812 54.199219 C 62.585938 56.617188 61.144531 58.839844 60.019531 61.21875 C 58.246094 64.730469 56.929688 68.441406 55.515625 72.101562 C 53.578125 72.8125 51.121094 72.875 49.574219 71.347656 C 49.152344 70.808594 48.242188 71.296875 48.441406 71.953125 C 48.5625 72.304688 48.925781 72.519531 49.199219 72.746094 C 50.230469 73.542969 51.554688 73.894531 52.84375 73.894531 C 52.863281 73.894531 52.886719 73.894531 52.90625 73.894531 C 53.210938 73.898438 53.9375 73.839844 54.695312 73.703125 C 53.292969 75.613281 50.851562 76.199219 48.394531 76.199219 C 44.652344 76.265625 42.722656 75.324219 41.542969 73.765625 C 42.210938 73.875 42.828125 73.921875 43.097656 73.917969 C 43.121094 73.917969 43.140625 73.917969 43.164062 73.917969 C 44.449219 73.917969 45.777344 73.566406 46.808594 72.769531 C 47.078125 72.542969 47.441406 72.328125 47.5625 71.976562 C 47.761719 71.320312 46.855469 70.835938 46.429688 71.371094 C 44.921875 72.859375 42.550781 72.835938 40.640625 72.179688 C 39.664062 69.921875 39.300781 66.960938 37.765625 63.964844 C 36.390625 60.867188 33.933594 58.410156 32.621094 55.292969 C 31.207031 51.851562 29.605469 42.710938 30.757812 38.828125 C 31.347656 38.871094 31.945312 38.863281 32.519531 38.847656 C 36.574219 38.839844 40.261719 35.882812 39.890625 32.070312 C 41.394531 31.8125 42.949219 31.789062 44.476562 31.992188 Z M 37.289062 35.652344 C 35.34375 37.621094 32.226562 37.828125 29.652344 37.324219 C 28.460938 37.109375 27.902344 36.003906 27.226562 35.125 C 26.910156 34.722656 26.570312 34.324219 26.207031 33.9375 C 28.722656 32.917969 30.882812 31.007812 32.363281 28.746094 C 32.945312 27.816406 33.332031 26.792969 33.582031 25.730469 C 37.441406 28.542969 40.40625 32.199219 37.289062 35.652344 Z M 32.421875 24.925781 C 32.054688 26.835938 31.132812 28.597656 29.722656 29.964844 C 28.390625 31.234375 26.914062 32.414062 25.15625 32.917969 C 24.304688 32.160156 23.367188 31.476562 22.371094 30.921875 C 24.773438 28.308594 25.621094 24.550781 25.058594 21.058594 C 25.371094 21.179688 25.679688 21.308594 25.984375 21.445312 C 27.539062 22.121094 30.050781 23.355469 32.421875 24.925781 Z M 23.605469 20.558594 C 23.6875 20.976562 23.765625 21.390625 23.832031 21.808594 C 24.269531 24.8125 23.3125 28.171875 21.121094 30.3125 C 19.667969 29.695312 18.128906 29.367188 16.578125 29.472656 C 17.550781 26.292969 16.84375 22.605469 15.046875 19.847656 C 17.871094 19.476562 20.824219 19.71875 23.605469 20.558594 Z M 13.617188 20.09375 C 15.609375 22.785156 16.320312 26.554688 15.117188 29.703125 C 14.957031 29.742188 14.796875 29.785156 14.632812 29.839844 C 13.6875 30.203125 12.867188 30.722656 12.175781 31.351562 C 11.304688 29.890625 9.3125 28 8.824219 27.636719 C 7.582031 26.5625 6.09375 25.832031 4.507812 25.457031 C 6.789062 22.617188 10.046875 20.84375 13.617188 20.09375 Z M 3.667969 26.625 C 3.851562 26.644531 4.023438 26.671875 4.160156 26.726562 C 7.03125 27.320312 9.328125 29.570312 10.945312 31.890625 C 11.050781 32.03125 11.136719 32.210938 11.222656 32.390625 C 10.621094 33.183594 10.179688 34.082031 9.914062 35.042969 C 8.261719 35.179688 6.597656 34.835938 5.035156 34.28125 C 3.789062 33.824219 2.609375 33.210938 1.507812 32.480469 C 1.597656 31.859375 1.714844 31.246094 1.867188 30.636719 C 2.289062 29.144531 2.90625 27.808594 3.667969 26.625 Z M 1.363281 33.949219 C 3.679688 35.449219 6.511719 36.332031 9.21875 36.398438 C 9.332031 36.382812 9.484375 36.375 9.65625 36.367188 C 9.558594 37.261719 9.609375 38.183594 9.804688 39.101562 C 8.789062 40.140625 7.363281 40.742188 5.949219 41.035156 C 4.769531 41.25 3.546875 41.179688 2.375 40.925781 C 1.578125 38.742188 1.226562 36.34375 1.363281 33.949219 Z M 1.363281 33.949219 " fill-opacity="1" fill-rule="nonzero"/><path fill="#c98a3a" d="M 64.511719 89.585938 C 64.621094 89.851562 64.871094 90.011719 65.140625 90.011719 C 65.226562 90.011719 65.3125 89.996094 65.394531 89.964844 C 82.082031 83.1875 93.445312 67.164062 94.347656 49.140625 C 94.367188 48.765625 94.078125 48.449219 93.707031 48.429688 C 93.328125 48.410156 93.015625 48.699219 92.996094 49.074219 C 92.117188 66.570312 81.085938 82.125 64.886719 88.703125 C 64.539062 88.84375 64.371094 89.238281 64.511719 89.585938 Z M 64.511719 89.585938 " fill-opacity="1" fill-rule="nonzero"/><path fill="#c98a3a" d="M 77.375 11.574219 C 77.132812 11.859375 77.164062 12.289062 77.445312 12.535156 C 78.636719 13.566406 79.785156 14.671875 80.859375 15.824219 C 80.996094 15.96875 81.175781 16.039062 81.355469 16.039062 C 81.519531 16.039062 81.6875 15.976562 81.820312 15.855469 C 82.089844 15.597656 82.105469 15.167969 81.847656 14.894531 C 80.742188 13.707031 79.558594 12.566406 78.332031 11.503906 C 78.046875 11.257812 77.621094 11.289062 77.375 11.574219 Z M 77.375 11.574219 " fill-opacity="1" fill-rule="nonzero"/><g clip-path="url(#7edfb746ea)"><path fill="#c98a3a" d="M 14.984375 15.683594 C 15.160156 15.683594 15.339844 15.613281 15.472656 15.476562 C 24.054688 6.488281 35.605469 1.539062 48.003906 1.539062 C 55.917969 1.539062 63.703125 3.628906 70.515625 7.582031 C 70.839844 7.769531 71.253906 7.660156 71.441406 7.335938 C 71.628906 7.007812 71.519531 6.59375 71.195312 6.40625 C 64.175781 2.332031 56.15625 0.179688 48.003906 0.179688 C 35.234375 0.179688 23.332031 5.277344 14.496094 14.535156 C 14.234375 14.804688 14.246094 15.238281 14.515625 15.496094 C 14.644531 15.621094 14.816406 15.683594 14.984375 15.683594 Z M 14.984375 15.683594 " fill-opacity="1" fill-rule="nonzero"/></g><path fill="#c98a3a" d="M 7.964844 69.632812 C 8.074219 69.632812 8.1875 69.605469 8.289062 69.550781 C 8.617188 69.367188 8.738281 68.953125 8.554688 68.625 C 5.226562 62.585938 3.359375 56.015625 3.011719 49.101562 C 2.988281 48.710938 2.976562 48.324219 2.964844 47.933594 C 2.957031 47.558594 2.640625 47.253906 2.269531 47.269531 C 1.898438 47.28125 1.601562 47.589844 1.609375 47.96875 C 1.621094 48.367188 1.636719 48.769531 1.65625 49.167969 C 2.019531 56.292969 3.941406 63.0625 7.371094 69.285156 C 7.492188 69.507812 7.726562 69.632812 7.964844 69.632812 Z M 7.964844 69.632812 " fill-opacity="1" fill-rule="nonzero"/><path fill="#c98a3a" d="M 13.992188 76.421875 C 13.746094 76.136719 13.320312 76.109375 13.035156 76.355469 C 12.753906 76.601562 12.722656 77.03125 12.96875 77.3125 C 18.273438 83.433594 25.085938 88.078125 32.675781 90.742188 C 32.746094 90.769531 32.824219 90.78125 32.898438 90.78125 C 33.175781 90.78125 33.441406 90.605469 33.535156 90.328125 C 33.660156 89.972656 33.472656 89.585938 33.121094 89.460938 C 25.753906 86.875 19.140625 82.363281 13.992188 76.421875 Z M 13.992188 76.421875 " fill-opacity="1" fill-rule="nonzero"/><path fill="#a66a2c" d="M 48.003906 16.675781 C 48.375 16.675781 48.679688 16.371094 48.679688 15.996094 L 48.679688 15.472656 C 48.679688 13.078125 50.617188 11.132812 53 11.132812 L 53.523438 11.132812 C 53.898438 11.132812 54.203125 10.828125 54.203125 10.453125 C 54.203125 10.078125 53.898438 9.773438 53.523438 9.773438 L 53 9.773438 C 50.617188 9.773438 48.679688 7.828125 48.679688 5.433594 L 48.679688 4.910156 C 48.679688 4.535156 48.375 4.230469 48.003906 4.230469 C 47.628906 4.230469 47.324219 4.535156 47.324219 4.910156 L 47.324219 5.433594 C 47.324219 7.828125 45.386719 9.773438 43.003906 9.773438 L 42.480469 9.773438 C 42.105469 9.773438 41.800781 10.078125 41.800781 10.453125 C 41.800781 10.828125 42.105469 11.132812 42.480469 11.132812 L 43.003906 11.132812 C 45.386719 11.132812 47.324219 13.078125 47.324219 15.472656 L 47.324219 15.996094 C 47.324219 16.371094 47.628906 16.675781 48.003906 16.675781 Z M 45.6875 10.453125 C 46.667969 9.921875 47.472656 9.113281 48.003906 8.128906 C 48.53125 9.113281 49.335938 9.921875 50.316406 10.453125 C 49.335938 10.984375 48.53125 11.792969 48.003906 12.777344 C 47.472656 11.792969 46.667969 10.984375 45.6875 10.453125 Z M 45.6875 10.453125 " fill-opacity="1" fill-rule="nonzero"/><path fill="#c98a3a" d="M 70.363281 8.707031 C 69.988281 8.707031 69.683594 9.011719 69.683594 9.390625 C 69.683594 9.765625 69.988281 10.070312 70.363281 10.070312 L 70.769531 10.070312 C 72.546875 10.070312 73.992188 11.519531 73.992188 13.304688 L 73.992188 13.714844 C 73.992188 14.089844 74.296875 14.394531 74.671875 14.394531 C 75.042969 14.394531 75.347656 14.089844 75.347656 13.714844 L 75.347656 13.304688 C 75.347656 11.519531 76.792969 10.070312 78.570312 10.070312 L 78.980469 10.070312 C 79.351562 10.070312 79.65625 9.765625 79.65625 9.390625 C 79.65625 9.011719 79.351562 8.707031 78.980469 8.707031 L 78.570312 8.707031 C 76.792969 8.707031 75.347656 7.257812 75.347656 5.472656 L 75.347656 5.066406 C 75.347656 4.6875 75.042969 4.382812 74.671875 4.382812 C 74.296875 4.382812 73.992188 4.6875 73.992188 5.066406 L 73.992188 5.472656 C 73.992188 7.257812 72.546875 8.707031 70.769531 8.707031 Z M 74.671875 7.867188 C 75.050781 8.488281 75.570312 9.007812 76.1875 9.390625 C 75.570312 9.769531 75.050781 10.289062 74.671875 10.910156 C 74.292969 10.289062 73.773438 9.769531 73.15625 9.390625 C 73.773438 9.007812 74.292969 8.488281 74.671875 7.867188 Z M 74.671875 7.867188 " fill-opacity="1" fill-rule="nonzero"/><path fill="#5a3a1a" d="M 73.351562 62.105469 C 72.980469 62.105469 72.675781 62.410156 72.675781 62.785156 L 72.675781 63.492188 C 72.675781 64.414062 71.929688 65.167969 71.007812 65.167969 L 70.304688 65.167969 C 69.929688 65.167969 69.628906 65.472656 69.628906 65.847656 C 69.628906 66.222656 69.929688 66.527344 70.304688 66.527344 L 71.007812 66.527344 C 71.929688 66.527344 72.675781 67.277344 72.675781 68.199219 L 72.675781 68.90625 C 72.675781 69.28125 72.980469 69.585938 73.351562 69.585938 C 73.726562 69.585938 74.03125 69.28125 74.03125 68.90625 L 74.03125 68.199219 C 74.03125 67.277344 74.777344 66.527344 75.699219 66.527344 L 76.402344 66.527344 C 76.777344 66.527344 77.078125 66.222656 77.078125 65.847656 C 77.078125 65.472656 76.777344 65.167969 76.402344 65.167969 L 75.699219 65.167969 C 74.777344 65.167969 74.03125 64.414062 74.03125 63.492188 L 74.03125 62.785156 C 74.03125 62.410156 73.726562 62.105469 73.351562 62.105469 Z M 73.792969 65.847656 C 73.632812 65.980469 73.484375 66.128906 73.351562 66.289062 C 73.222656 66.128906 73.074219 65.980469 72.910156 65.847656 C 73.074219 65.714844 73.222656 65.566406 73.351562 65.402344 C 73.484375 65.566406 73.632812 65.714844 73.792969 65.847656 Z M 73.792969 65.847656 " fill-opacity="1" fill-rule="nonzero"/><path fill="#5a3a1a" d="M 19.601562 65.167969 C 19.226562 65.167969 18.925781 65.472656 18.925781 65.847656 C 18.925781 66.222656 19.226562 66.527344 19.601562 66.527344 L 20.304688 66.527344 C 21.226562 66.527344 21.972656 67.277344 21.972656 68.199219 L 21.972656 68.90625 C 21.972656 69.28125 22.277344 69.585938 22.652344 69.585938 C 23.023438 69.585938 23.328125 69.28125 23.328125 68.90625 L 23.328125 68.199219 C 23.328125 67.277344 24.078125 66.527344 24.996094 66.527344 L 25.699219 66.527344 C 26.074219 66.527344 26.378906 66.222656 26.378906 65.847656 C 26.378906 65.472656 26.074219 65.167969 25.699219 65.167969 L 24.996094 65.167969 C 24.078125 65.167969 23.328125 64.414062 23.328125 63.492188 L 23.328125 62.785156 C 23.328125 62.410156 23.023438 62.105469 22.652344 62.105469 C 22.277344 62.105469 21.972656 62.410156 21.972656 62.785156 L 21.972656 63.492188 C 21.972656 64.414062 21.226562 65.167969 20.304688 65.167969 Z M 22.652344 65.402344 C 22.78125 65.566406 22.929688 65.714844 23.09375 65.847656 C 22.929688 65.980469 22.78125 66.128906 22.652344 66.289062 C 22.519531 66.128906 22.371094 65.980469 22.210938 65.847656 C 22.371094 65.714844 22.519531 65.566406 22.652344 65.402344 Z M 22.652344 65.402344 " fill-opacity="1" fill-rule="nonzero"/><path fill="#a66a2c" d="M 6.253906 73.753906 L 6.664062 73.753906 C 8.4375 73.753906 9.882812 75.207031 9.882812 76.992188 L 9.882812 77.398438 C 9.882812 77.777344 10.1875 78.078125 10.5625 78.078125 C 10.9375 78.078125 11.238281 77.777344 11.238281 77.398438 L 11.238281 76.992188 C 11.238281 75.207031 12.683594 73.753906 14.460938 73.753906 L 14.871094 73.753906 C 15.242188 73.753906 15.546875 73.453125 15.546875 73.074219 C 15.546875 72.699219 15.242188 72.394531 14.871094 72.394531 L 14.460938 72.394531 C 12.683594 72.394531 11.238281 70.945312 11.238281 69.160156 L 11.238281 68.75 C 11.238281 68.375 10.9375 68.070312 10.5625 68.070312 C 10.1875 68.070312 9.882812 68.375 9.882812 68.75 L 9.882812 69.160156 C 9.882812 70.945312 8.4375 72.394531 6.664062 72.394531 L 6.253906 72.394531 C 5.878906 72.394531 5.578125 72.699219 5.578125 73.074219 C 5.578125 73.453125 5.878906 73.753906 6.253906 73.753906 Z M 10.5625 71.554688 C 10.941406 72.175781 11.460938 72.695312 12.078125 73.074219 C 11.460938 73.457031 10.941406 73.976562 10.5625 74.597656 C 10.183594 73.976562 9.664062 73.457031 9.046875 73.074219 C 9.664062 72.695312 10.183594 72.175781 10.5625 71.554688 Z M 10.5625 71.554688 " fill-opacity="1" fill-rule="nonzero"/></svg>