<svg xmlns="http://www.w3.org/2000/svg" xmlns:xlink="http://www.w3.org/1999/xlink" width="128" zoomAndPan="magnify" viewBox="0 0 96 95.999999" height="128" preserveAspectRatio="xMidYMid meet" version="1.0"><defs><clipPath id="ee593e2d1c"><path d="M 1.84375 47 L 6 47 L 6 53 L 1.84375 53 Z M 1.84375 47 " clip-rule="nonzero"/></clipPath><clipPath id="3e22e1795c"><path d="M 20 13.324219 L 32 13.324219 L 32 25 L 20 25 Z M 20 13.324219 " clip-rule="nonzero"/></clipPath><clipPath id="c8762a5b5b"><path d="M 88 66 L 94.09375 66 L 94.09375 72 L 88 72 Z M 88 66 " clip-rule="nonzero"/></clipPath><clipPath id="42bb62cca4"><path d="M 89 79 L 94 79 L 94 82.324219 L 89 82.324219 Z M 89 79 " clip-rule="nonzero"/></clipPath></defs><g clip-path="url(#ee593e2d1c)"><path fill="#000000" d="M 4.339844 49.910156 C 4.882812 49.710938 5.421875 49.496094 5.957031 49.277344 C 5.410156 49.316406 4.875 49.425781 4.351562 49.574219 C 4.449219 49.347656 4.539062 49.109375 4.597656 48.863281 C 4.4375 49.117188 4.285156 49.375 4.132812 49.636719 C 4.128906 49.636719 4.125 49.640625 4.121094 49.640625 C 3.890625 48.886719 3.601562 48.144531 3.28125 47.421875 C 3.375 48.195312 3.542969 48.949219 3.753906 49.691406 C 3.445312 49.59375 3.132812 49.515625 2.816406 49.457031 C 3.046875 49.597656 3.289062 49.722656 3.535156 49.832031 C 2.957031 50.042969 2.394531 50.289062 1.84375 50.558594 C 2.539062 50.472656 3.207031 50.296875 3.867188 50.074219 C 3.871094 50.085938 3.875 50.09375 3.878906 50.105469 C 3.742188 50.363281 3.621094 50.625 3.519531 50.898438 C 3.671875 50.710938 3.8125 50.515625 3.949219 50.308594 C 4.148438 50.9375 4.371094 51.550781 4.609375 52.160156 C 4.5625 51.46875 4.433594 50.789062 4.261719 50.121094 C 4.628906 50.253906 5 50.363281 5.378906 50.460938 C 5.050781 50.242188 4.699219 50.0625 4.339844 49.910156 Z M 4.339844 49.910156 " fill-opacity="1" fill-rule="nonzero"/></g><g clip-path="url(#3e22e1795c)"><path fill="#000000" d="M 30.394531 18.101562 C 29.292969 18.171875 28.191406 18.203125 27.085938 18.277344 C 27.316406 17.953125 27.535156 17.617188 27.734375 17.273438 C 27.367188 17.609375 27.039062 17.949219 26.730469 18.300781 C 26.6875 18.304688 26.648438 18.308594 26.609375 18.3125 C 26.453125 16.667969 26.203125 15.03125 25.957031 13.421875 C 25.800781 15.003906 25.753906 16.597656 25.824219 18.1875 C 25.425781 17.878906 25.035156 17.585938 24.644531 17.277344 C 24.921875 17.679688 25.226562 18.058594 25.550781 18.417969 C 23.894531 18.613281 22.246094 18.992188 20.707031 19.183594 C 22.417969 19.386719 24.160156 19.40625 25.886719 19.257812 C 25.890625 19.285156 25.894531 19.308594 25.894531 19.335938 C 25.65625 19.652344 25.421875 19.972656 25.1875 20.308594 C 25.449219 20.109375 25.695312 19.898438 25.925781 19.671875 C 25.980469 20.242188 26.042969 20.816406 26.132812 21.382812 C 26.222656 22.027344 26.292969 22.632812 26.441406 23.753906 C 26.476562 24.011719 26.523438 24.269531 26.574219 24.523438 C 26.628906 23.992188 26.691406 23.460938 26.730469 22.925781 C 26.796875 21.796875 26.777344 20.667969 26.707031 19.535156 C 27.300781 20.050781 27.929688 20.527344 28.578125 20.964844 C 28.941406 21.242188 28.160156 20.410156 28.050781 20.261719 C 27.695312 19.839844 27.328125 19.472656 26.957031 19.132812 C 28.605469 18.925781 30.230469 18.574219 31.808594 18.078125 C 32.5 17.914062 30.640625 18.105469 30.394531 18.101562 Z M 30.394531 18.101562 " fill-opacity="1" fill-rule="nonzero"/></g><path fill="#000000" d="M 83.75 51.601562 C 81.980469 51.652344 80.203125 51.59375 78.433594 51.585938 C 78.925781 51.132812 79.402344 50.65625 79.855469 50.160156 C 79.089844 50.582031 78.363281 51.0625 77.667969 51.585938 C 77.617188 51.585938 77.558594 51.585938 77.507812 51.585938 C 77.429688 49.808594 77.222656 48.035156 76.921875 46.285156 C 76.773438 47.871094 76.675781 49.464844 76.664062 51.054688 C 76.257812 50.628906 75.828125 50.222656 75.371094 49.847656 C 75.769531 50.4375 76.179688 51.023438 76.597656 51.601562 C 76.289062 51.609375 75.980469 51.621094 75.671875 51.636719 C 73.945312 51.714844 72.222656 52.039062 70.5625 52.253906 C 72.0625 52.4375 73.578125 52.417969 75.085938 52.480469 C 75.570312 52.5 76.046875 52.507812 76.53125 52.507812 C 75.929688 53.035156 75.363281 53.601562 74.824219 54.195312 C 75.476562 53.839844 76.097656 53.441406 76.695312 53.011719 C 76.78125 54.652344 77.015625 56.28125 77.175781 57.921875 C 77.441406 56.238281 77.546875 54.539062 77.53125 52.839844 C 78.09375 53.550781 78.691406 54.238281 79.328125 54.882812 C 78.890625 54.046875 78.394531 53.242188 77.839844 52.488281 C 79.839844 52.402344 81.820312 52.136719 83.75 51.601562 Z M 83.75 51.601562 " fill-opacity="1" fill-rule="nonzero"/><g clip-path="url(#c8762a5b5b)"><path fill="#000000" d="M 94.152344 69.976562 C 93.457031 69.660156 92.742188 69.421875 92.007812 69.234375 C 92.359375 68.980469 92.691406 68.695312 93 68.386719 C 92.582031 68.59375 92.175781 68.828125 91.785156 69.074219 C 91.867188 68.273438 91.886719 67.464844 91.828125 66.65625 C 91.679688 67.375 91.550781 68.054688 91.449219 68.734375 C 91.273438 68.453125 91.085938 68.175781 90.890625 67.910156 C 91.007812 68.316406 91.171875 68.707031 91.367188 69.082031 C 90.554688 68.910156 89.722656 68.792969 88.890625 68.722656 C 89.625 69.054688 90.394531 69.296875 91.175781 69.480469 C 90.839844 69.71875 90.511719 69.960938 90.203125 70.222656 C 90.597656 70.070312 90.972656 69.886719 91.332031 69.679688 C 91.265625 70.304688 91.226562 70.941406 91.234375 71.621094 C 91.234375 71.714844 91.234375 71.8125 91.234375 71.90625 C 91.253906 71.835938 91.273438 71.757812 91.292969 71.6875 C 91.472656 71.027344 91.609375 70.355469 91.707031 69.683594 C 91.910156 70.015625 92.132812 70.339844 92.359375 70.65625 C 92.253906 70.308594 92.117188 69.972656 91.957031 69.648438 C 92.6875 69.789062 93.421875 69.894531 94.152344 69.976562 Z M 94.152344 69.976562 " fill-opacity="1" fill-rule="nonzero"/></g><g clip-path="url(#42bb62cca4)"><path fill="#000000" d="M 92.355469 81.605469 C 92.183594 81.4375 92.003906 81.28125 91.820312 81.128906 C 92.246094 81.011719 92.667969 80.859375 93.070312 80.667969 C 92.554688 80.722656 92.042969 80.808594 91.53125 80.902344 C 91.523438 80.898438 91.515625 80.886719 91.507812 80.882812 C 91.703125 80.597656 91.878906 80.292969 92.019531 79.972656 C 91.808594 80.210938 91.609375 80.464844 91.421875 80.71875 C 91.339844 80.316406 91.226562 79.921875 91.078125 79.535156 C 91.09375 79.914062 91.132812 80.289062 91.179688 80.664062 C 90.964844 80.527344 90.746094 80.398438 90.515625 80.289062 C 90.730469 80.507812 90.964844 80.707031 91.210938 80.898438 C 91.210938 80.921875 91.214844 80.941406 91.21875 80.964844 C 90.648438 81.078125 90.078125 81.210938 89.515625 81.355469 C 90.023438 81.40625 90.53125 81.382812 91.03125 81.304688 C 90.933594 81.460938 90.84375 81.617188 90.757812 81.78125 C 90.921875 81.621094 91.070312 81.449219 91.210938 81.273438 C 91.234375 81.269531 91.253906 81.265625 91.273438 81.265625 C 91.351562 81.703125 91.453125 82.140625 91.589844 82.566406 C 91.597656 82.113281 91.570312 81.664062 91.507812 81.214844 C 91.542969 81.207031 91.578125 81.195312 91.613281 81.1875 C 91.847656 81.339844 92.09375 81.484375 92.355469 81.605469 Z M 92.355469 81.605469 " fill-opacity="1" fill-rule="nonzero"/></g><path stroke-linecap="butt" transform="matrix(1, 0, 0, 1, 0.0000005, 0.000002)" fill-opacity="1" fill="#000000" fill-rule="nonzero" stroke-linejoin="miter" d="M 30.382811 20.910154 L 73.941404 49.531247 L 73.874997 49.628903 L 30.320311 21.00781 Z M 30.382811 20.910154 " stroke="#000000" stroke-width="0.2" stroke-opacity="1" stroke-miterlimit="4"/><path stroke-linecap="butt" transform="matrix(1, 0, 0, 1, 0.0000005, 0.000002)" fill-opacity="1" fill="#000000" fill-rule="nonzero" stroke-linejoin="miter" d="M 80.324216 56.003903 L 89.835934 66.941402 L 89.746091 67.019527 L 80.234372 56.078121 Z M 80.324216 56.003903 " stroke="#000000" stroke-width="0.2" stroke-opacity="1" stroke-miterlimit="4"/><path stroke-linecap="butt" transform="matrix(1, 0, 0, 1, 0.0000005, 0.000002)" fill-opacity="1" fill="#000000" fill-rule="nonzero" stroke-linejoin="miter" d="M 91.464841 73.332027 L 91.582028 73.332027 L 91.582028 78.660152 L 91.464841 78.660152 Z M 91.464841 73.332027 " stroke="#000000" stroke-width="0.2" stroke-opacity="1" stroke-miterlimit="4"/><path stroke-linecap="butt" transform="matrix(1, 0, 0, 1, 0.0000005, 0.000002)" fill-opacity="1" fill="#000000" fill-rule="nonzero" stroke-linejoin="miter" d="M 24.51953 21.859372 L 5.093749 48.296872 L 4.996093 48.226559 L 24.42578 21.78906 Z M 24.51953 21.859372 " stroke="#000000" stroke-width="0.2" stroke-opacity="1" stroke-miterlimit="4"/></svg>