<svg xmlns="http://www.w3.org/2000/svg" xmlns:xlink="http://www.w3.org/1999/xlink" width="128" zoomAndPan="magnify" viewBox="0 0 96 95.999999" height="128" preserveAspectRatio="xMidYMid meet" version="1.0"><defs><clipPath id="a1b814a8f1"><path d="M 28 83 L 69 83 L 69 90.601562 L 28 90.601562 Z M 28 83 " clip-rule="nonzero"/></clipPath><clipPath id="4f2671eb13"><path d="M 41 5.101562 L 53 5.101562 L 53 16 L 41 16 Z M 41 5.101562 " clip-rule="nonzero"/></clipPath></defs><path fill="#5a3a1a" d="M 94.488281 57.421875 C 91.863281 59.355469 89.386719 61.820312 86.121094 62.613281 C 83.5 61.425781 80.308594 62.070312 77.90625 63.503906 C 76.386719 62.703125 74.691406 62.273438 72.980469 62.117188 C 74.269531 60.464844 75.160156 58.640625 75.414062 56.695312 C 76.109375 56.5625 76.800781 56.421875 77.488281 56.257812 C 81.6875 55.449219 85.066406 52.207031 86.832031 48.421875 C 88.371094 45.199219 88.46875 41.476562 87.882812 38.003906 C 87.6875 36.804688 87.375 35.625 87.015625 34.460938 C 87.003906 34.441406 87 34.414062 86.992188 34.394531 C 87.003906 33.921875 86.964844 33.449219 86.878906 32.988281 C 86.660156 31.828125 86.121094 30.742188 85.410156 29.804688 C 85.046875 29.324219 84.65625 28.871094 84.226562 28.445312 C 83.789062 28.015625 83.324219 27.613281 82.835938 27.242188 C 81.890625 26.519531 80.894531 25.859375 79.878906 25.246094 C 78.824219 24.609375 77.738281 24.039062 76.613281 23.542969 C 75.472656 23.035156 74.296875 22.632812 73.101562 22.273438 C 71.957031 21.929688 70.792969 21.628906 69.621094 21.40625 C 68.433594 21.179688 67.242188 21.015625 66.042969 20.875 C 65.542969 20.8125 65.039062 20.75 64.535156 20.707031 C 64.335938 20.691406 64.089844 20.664062 63.90625 20.761719 C 63.660156 20.894531 63.492188 21.191406 63.601562 21.472656 C 63.667969 21.644531 63.785156 21.765625 63.929688 21.878906 C 64.15625 22.058594 64.402344 22.214844 64.644531 22.375 C 64.890625 22.53125 65.132812 22.691406 65.375 22.855469 C 65.867188 23.183594 66.347656 23.519531 66.816406 23.882812 C 67.351562 24.304688 67.929688 24.785156 68.476562 25.304688 C 68.984375 25.789062 69.480469 26.285156 69.976562 26.785156 C 69.976562 26.785156 69.988281 26.800781 70 26.8125 C 70.003906 26.816406 70.011719 26.820312 70.015625 26.824219 C 70.0625 26.875 70.117188 26.933594 70.175781 26.988281 C 70.246094 27.058594 70.3125 27.128906 70.382812 27.203125 C 71.125 27.960938 71.894531 28.789062 72.667969 29.613281 C 73.003906 29.964844 73.335938 30.320312 73.675781 30.667969 C 73.464844 30.648438 73.257812 30.625 73.046875 30.597656 C 72.3125 30.484375 71.589844 30.324219 70.871094 30.125 C 69.96875 29.867188 69.082031 29.566406 68.191406 29.269531 C 67.320312 28.980469 66.449219 28.683594 65.558594 28.457031 C 65.285156 28.390625 65.003906 28.320312 64.722656 28.28125 C 64.574219 28.238281 64.417969 28.21875 64.261719 28.242188 C 63.964844 28.359375 63.683594 28.660156 63.796875 28.996094 C 63.894531 29.296875 64.054688 29.589844 64.234375 29.847656 C 64.433594 30.195312 64.667969 30.582031 64.898438 30.980469 C 65.152344 31.417969 65.414062 31.855469 65.703125 32.277344 C 66.308594 33.167969 66.996094 34.015625 67.75 34.785156 C 68.148438 35.191406 68.558594 35.59375 68.992188 35.960938 C 69.441406 36.339844 69.90625 36.691406 70.398438 37.011719 C 71.347656 37.636719 72.34375 38.203125 73.371094 38.695312 C 73.914062 38.957031 74.476562 39.203125 75.050781 39.394531 C 75.644531 39.589844 76.246094 39.75 76.859375 39.875 C 77.453125 39.996094 78.058594 40.070312 78.660156 40.105469 C 78.699219 40.109375 78.734375 40.109375 78.769531 40.109375 C 78.804688 42.105469 78.808594 44.109375 79.023438 46.101562 C 77.242188 47.328125 75.125 48.640625 73.917969 50.503906 C 73.746094 50.261719 73.570312 50.019531 73.375 49.796875 C 71.527344 47.984375 68.675781 47.785156 66.757812 46.035156 C 65.679688 45.195312 64.9375 44.011719 63.84375 43.191406 C 62.648438 42.332031 61.257812 41.675781 59.777344 41.527344 C 57.960938 41.363281 56.136719 41.683594 54.355469 42.003906 C 52.191406 42.460938 49.890625 42.644531 47.914062 43.707031 C 46.917969 42.976562 45.695312 42.585938 44.554688 42.132812 C 43.125 41.707031 41.625 41.679688 40.152344 41.792969 C 38.972656 41.863281 37.789062 41.886719 36.621094 42.058594 C 34.847656 42.328125 33.140625 43.03125 31.617188 43.96875 C 29.277344 45.453125 27.632812 47.8125 25.097656 49.058594 C 25.105469 49.054688 25.117188 49.050781 25.125 49.042969 C 24 49.605469 22.863281 50.050781 21.898438 50.613281 C 20.769531 48.472656 18.429688 47.035156 16.488281 45.699219 C 16.703125 43.707031 16.707031 41.703125 16.742188 39.707031 C 16.78125 39.707031 16.816406 39.707031 16.851562 39.703125 C 17.453125 39.667969 18.058594 39.59375 18.652344 39.472656 C 19.265625 39.347656 19.867188 39.1875 20.464844 38.988281 C 21.035156 38.800781 21.597656 38.554688 22.140625 38.292969 C 23.167969 37.800781 24.164062 37.234375 25.117188 36.609375 C 25.605469 36.289062 26.074219 35.933594 26.519531 35.558594 C 26.957031 35.191406 27.363281 34.789062 27.761719 34.382812 C 28.515625 33.613281 29.203125 32.761719 29.8125 31.871094 C 30.097656 31.453125 30.359375 31.015625 30.613281 30.578125 C 30.84375 30.179688 31.078125 29.789062 31.277344 29.445312 C 31.460938 29.183594 31.617188 28.894531 31.71875 28.59375 C 31.828125 28.257812 31.546875 27.957031 31.253906 27.839844 C 31.09375 27.816406 30.941406 27.835938 30.789062 27.875 C 30.507812 27.917969 30.226562 27.984375 29.953125 28.054688 C 29.0625 28.277344 28.191406 28.574219 27.324219 28.867188 C 26.433594 29.164062 25.542969 29.464844 24.640625 29.722656 C 23.925781 29.921875 23.199219 30.082031 22.464844 30.195312 C 22.257812 30.222656 22.046875 30.246094 21.835938 30.265625 C 22.175781 29.914062 22.511719 29.5625 22.84375 29.207031 C 23.621094 28.386719 24.390625 27.558594 25.128906 26.800781 C 25.199219 26.726562 25.269531 26.65625 25.339844 26.585938 C 25.394531 26.527344 25.449219 26.472656 25.5 26.421875 C 25.503906 26.417969 25.507812 26.414062 25.511719 26.410156 C 25.523438 26.394531 25.535156 26.382812 25.539062 26.382812 C 26.03125 25.882812 26.527344 25.382812 27.039062 24.898438 C 27.582031 24.382812 28.164062 23.898438 28.695312 23.480469 C 29.164062 23.117188 29.644531 22.78125 30.136719 22.453125 C 30.378906 22.289062 30.625 22.128906 30.867188 21.96875 C 31.109375 21.8125 31.359375 21.65625 31.585938 21.476562 C 31.726562 21.363281 31.84375 21.242188 31.910156 21.070312 C 32.019531 20.789062 31.855469 20.492188 31.605469 20.359375 C 31.421875 20.261719 31.175781 20.289062 30.976562 20.304688 C 30.472656 20.34375 29.972656 20.410156 29.46875 20.46875 C 28.269531 20.613281 27.078125 20.777344 25.894531 21.003906 C 24.71875 21.226562 23.558594 21.523438 22.414062 21.867188 C 21.21875 22.230469 20.042969 22.632812 18.898438 23.140625 C 17.773438 23.636719 16.6875 24.207031 15.636719 24.84375 C 14.617188 25.457031 13.621094 26.117188 12.675781 26.835938 C 12.1875 27.210938 11.722656 27.613281 11.285156 28.042969 C 10.855469 28.464844 10.46875 28.921875 10.105469 29.402344 C 9.394531 30.339844 8.851562 31.425781 8.636719 32.582031 C 8.550781 33.046875 8.507812 33.519531 8.523438 33.992188 C 8.515625 34.011719 8.507812 34.035156 8.5 34.058594 C 8.140625 35.222656 7.828125 36.398438 7.632812 37.601562 C 7.042969 41.070312 7.144531 44.796875 8.679688 48.019531 C 10.449219 51.804688 13.824219 55.046875 18.023438 55.855469 C 18.519531 55.972656 19.019531 56.078125 19.519531 56.179688 C 19.824219 58.253906 20.96875 59.75 22.394531 61.425781 C 22.628906 61.707031 22.867188 61.988281 23.109375 62.269531 C 21.371094 62.417969 19.644531 62.847656 18.097656 63.660156 C 15.699219 62.230469 12.503906 61.582031 9.882812 62.769531 C 6.617188 61.976562 4.144531 59.511719 1.515625 57.578125 C 0.753906 57.078125 -0.179688 57.503906 0.03125 58.476562 C 0.164062 59.257812 0.597656 59.945312 1.035156 60.589844 C 2.828125 63.085938 6.390625 65.457031 9.460938 65.867188 C 10.730469 67.335938 12.691406 67.988281 14.617188 67.988281 C 15.234375 67.988281 15.847656 67.921875 16.433594 67.792969 C 16.652344 67.738281 16.871094 67.664062 17.082031 67.582031 C 17.210938 67.535156 17.332031 67.472656 17.453125 67.414062 C 20.621094 68.515625 24.070312 67.46875 26.910156 65.777344 C 27.3125 66.082031 27.714844 66.382812 28.117188 66.683594 C 27.835938 66.800781 27.550781 66.917969 27.269531 67.039062 C 25.347656 67.949219 23.238281 68.796875 21.824219 70.441406 C 19.113281 69.792969 16.128906 70.65625 13.871094 72.195312 C 11.949219 72.074219 10.035156 71.699219 8.347656 70.78125 C 7.226562 70.277344 6.265625 69.351562 5.046875 69.101562 C 4.03125 69 3.925781 70.1875 4.347656 70.859375 C 5.023438 72.199219 6.308594 73.109375 7.515625 73.949219 C 9.503906 74.925781 11.808594 75.621094 14.039062 75.253906 C 14.878906 75.601562 15.777344 75.792969 16.691406 75.792969 C 16.761719 75.792969 16.832031 75.792969 16.902344 75.792969 C 18.773438 75.660156 20.902344 75.230469 22.167969 73.742188 C 25.351562 73.851562 28.917969 71.023438 31.214844 68.640625 C 31.542969 68.804688 31.871094 68.957031 32.207031 69.101562 C 32.335938 69.160156 32.46875 69.222656 32.601562 69.28125 C 31.101562 70.207031 29.476562 71.207031 28.683594 72.832031 C 27.308594 73.21875 26.140625 74.054688 25.21875 75.132812 C 24.59375 75.761719 24.207031 76.601562 24.253906 77.496094 C 21.65625 79.636719 20.847656 83.957031 23.359375 86.46875 C 23.910156 86.988281 24.597656 87.851562 25.402344 87.851562 C 25.558594 87.851562 25.71875 87.816406 25.886719 87.742188 C 26.851562 87.15625 26.226562 85.917969 25.875 85.136719 C 25.558594 84.367188 25.363281 83.523438 25.441406 82.6875 C 25.609375 81.855469 25.921875 81.109375 26.265625 80.351562 C 28.65625 79.902344 30.492188 77.742188 31.175781 75.5 C 33.851562 75.390625 36.386719 73.582031 37.976562 71.335938 C 38 71.339844 38.023438 71.347656 38.042969 71.355469 C 41.664062 72.386719 45.464844 72.546875 49.214844 72.730469 C 52.296875 72.886719 55.390625 72.539062 58.304688 71.554688 C 59.90625 73.625 62.308594 75.242188 64.832031 75.34375 C 65.515625 77.585938 67.351562 79.746094 69.738281 80.195312 C 70.082031 80.953125 70.398438 81.699219 70.566406 82.53125 C 70.640625 83.367188 70.449219 84.210938 70.132812 84.980469 C 69.78125 85.761719 69.15625 87 70.117188 87.585938 C 70.285156 87.660156 70.449219 87.695312 70.605469 87.695312 C 71.40625 87.695312 72.097656 86.832031 72.644531 86.3125 C 75.15625 83.800781 74.351562 79.480469 71.75 77.339844 C 71.796875 76.445312 71.410156 75.605469 70.785156 74.976562 C 69.867188 73.898438 68.695312 73.0625 67.320312 72.675781 C 66.574219 71.144531 65.089844 70.167969 63.667969 69.289062 C 64.082031 69.078125 64.503906 68.855469 64.921875 68.621094 C 67.222656 70.972656 70.714844 73.695312 73.835938 73.585938 C 75.105469 75.074219 77.234375 75.503906 79.105469 75.636719 C 79.175781 75.636719 79.246094 75.636719 79.316406 75.636719 C 80.226562 75.636719 81.128906 75.445312 81.96875 75.097656 C 84.195312 75.464844 86.5 74.769531 88.488281 73.792969 C 89.699219 72.953125 90.980469 72.042969 91.65625 70.703125 C 92.082031 70.035156 91.972656 68.84375 90.957031 68.945312 C 89.738281 69.195312 88.777344 70.121094 87.660156 70.625 C 85.96875 71.542969 84.058594 71.917969 82.132812 72.039062 C 79.875 70.5 76.894531 69.636719 74.183594 70.285156 C 72.765625 68.640625 70.65625 67.792969 68.734375 66.882812 C 68.527344 66.792969 68.320312 66.707031 68.113281 66.621094 C 68.515625 66.335938 68.914062 66.042969 69.296875 65.738281 C 72.097656 67.359375 75.457031 68.335938 78.550781 67.257812 C 78.671875 67.316406 78.796875 67.378906 78.921875 67.425781 C 79.132812 67.507812 79.351562 67.582031 79.570312 67.636719 C 80.15625 67.765625 80.773438 67.832031 81.386719 67.832031 C 83.316406 67.832031 85.273438 67.179688 86.542969 65.710938 C 89.617188 65.300781 93.175781 62.929688 94.96875 60.433594 C 95.410156 59.789062 95.839844 59.101562 95.976562 58.320312 C 96.183594 57.351562 95.25 56.921875 94.488281 57.421875 Z M 78.730469 64.351562 C 78.730469 64.351562 78.730469 64.351562 78.734375 64.351562 C 78.730469 64.363281 78.730469 64.378906 78.726562 64.390625 C 78.730469 64.378906 78.726562 64.367188 78.730469 64.351562 Z M 86.121094 47.191406 C 85.917969 47.683594 85.6875 48.164062 85.4375 48.636719 C 85.378906 48.640625 85.324219 48.648438 85.261719 48.667969 C 84.929688 48.753906 84.523438 48.734375 84.179688 48.695312 C 83.15625 48.582031 82.15625 48.136719 81.324219 47.492188 C 80.886719 47.148438 80.460938 46.773438 80.164062 46.296875 C 80.203125 45.945312 80.105469 45.542969 80.082031 45.0625 C 79.957031 43.789062 79.953125 41.472656 79.933594 40.128906 C 80.117188 40.121094 80.296875 40.109375 80.476562 40.09375 C 81.074219 40.035156 81.679688 39.941406 82.257812 39.761719 C 82.847656 39.582031 83.421875 39.339844 83.953125 39.03125 C 84.496094 38.714844 85 38.347656 85.441406 37.902344 C 85.828125 37.515625 86.15625 37.085938 86.425781 36.613281 C 86.566406 37.195312 86.691406 37.792969 86.789062 38.402344 C 87.25 41.269531 87.214844 44.445312 86.121094 47.191406 Z M 77.824219 38.878906 C 77.246094 38.792969 76.671875 38.675781 76.105469 38.527344 C 75.511719 38.355469 74.941406 38.144531 74.375 37.902344 C 73.488281 37.503906 72.628906 37.042969 71.792969 36.546875 C 71.191406 36.179688 70.609375 35.785156 70.050781 35.355469 C 69.59375 34.980469 69.160156 34.582031 68.742188 34.167969 C 68.1875 33.601562 67.671875 33.007812 67.1875 32.382812 C 66.820312 31.898438 66.433594 31.335938 66.085938 30.75 C 65.859375 30.367188 65.632812 29.980469 65.40625 29.59375 C 65.511719 29.621094 65.621094 29.652344 65.726562 29.683594 C 67.242188 30.113281 68.714844 30.6875 70.230469 31.125 C 71.351562 31.453125 72.496094 31.71875 73.664062 31.8125 C 73.949219 31.832031 74.234375 31.855469 74.523438 31.867188 C 74.902344 31.886719 75.378906 31.933594 75.582031 31.535156 C 75.714844 31.28125 75.625 31.003906 75.429688 30.808594 C 75.386719 30.765625 75.339844 30.726562 75.296875 30.683594 C 75.136719 30.527344 74.976562 30.371094 74.820312 30.210938 C 74.816406 30.203125 74.808594 30.199219 74.804688 30.195312 C 73.585938 28.953125 72.417969 27.648438 71.1875 26.394531 C 71.1875 26.394531 71.1875 26.394531 71.183594 26.390625 C 71.179688 26.386719 71.171875 26.378906 71.167969 26.375 C 71.054688 26.257812 70.9375 26.140625 70.820312 26.019531 C 70.589844 25.785156 70.347656 25.542969 70.105469 25.296875 C 69.699219 24.890625 69.28125 24.488281 68.855469 24.101562 C 68.429688 23.710938 67.976562 23.347656 67.523438 22.988281 C 67.097656 22.65625 66.65625 22.34375 66.210938 22.039062 C 66.65625 22.09375 67.105469 22.152344 67.550781 22.214844 C 68.292969 22.324219 69.085938 22.457031 69.875 22.621094 C 70.648438 22.78125 71.414062 22.976562 72.171875 23.1875 C 73.460938 23.558594 74.730469 23.972656 75.964844 24.5 C 76.480469 24.730469 77 24.964844 77.503906 25.226562 C 78.035156 25.496094 78.558594 25.789062 79.070312 26.089844 C 80.152344 26.742188 81.277344 27.472656 82.332031 28.292969 C 82.734375 28.617188 83.121094 28.960938 83.496094 29.324219 C 83.800781 29.640625 84.089844 29.972656 84.367188 30.316406 C 84.617188 30.65625 84.855469 31.007812 85.070312 31.375 C 85.199219 31.605469 85.3125 31.839844 85.417969 32.082031 C 85.507812 32.3125 85.589844 32.542969 85.660156 32.78125 C 85.714844 33.019531 85.765625 33.253906 85.800781 33.496094 C 85.828125 33.734375 85.847656 33.972656 85.855469 34.214844 C 85.847656 34.4375 85.832031 34.660156 85.808594 34.886719 C 85.78125 35.050781 85.746094 35.214844 85.707031 35.375 C 85.664062 35.519531 85.613281 35.660156 85.558594 35.800781 C 85.496094 35.933594 85.429688 36.0625 85.355469 36.1875 C 85.242188 36.371094 85.117188 36.542969 84.988281 36.714844 C 84.867188 36.851562 84.746094 36.984375 84.617188 37.113281 C 84.425781 37.292969 84.230469 37.464844 84.023438 37.628906 C 83.8125 37.777344 83.601562 37.917969 83.378906 38.046875 C 83.082031 38.207031 82.78125 38.355469 82.46875 38.484375 C 82.230469 38.574219 81.984375 38.65625 81.738281 38.726562 C 81.425781 38.800781 81.109375 38.863281 80.792969 38.914062 C 80.308594 38.96875 79.828125 38.992188 79.34375 38.992188 C 78.835938 38.980469 78.332031 38.945312 77.824219 38.878906 Z M 75.535156 50.273438 C 76.695312 49.109375 78.027344 48.113281 79.40625 47.214844 C 79.773438 47.726562 80.324219 48.136719 80.800781 48.515625 C 81.785156 49.257812 82.945312 49.722656 84.179688 49.839844 C 84.351562 49.855469 84.527344 49.863281 84.703125 49.863281 C 83.40625 51.8125 81.644531 53.449219 79.503906 54.441406 C 78.242188 54.957031 76.867188 55.265625 75.496094 55.519531 C 75.492188 55.300781 75.488281 55.082031 75.46875 54.863281 C 75.363281 53.753906 75.058594 52.640625 74.566406 51.621094 C 74.796875 51.117188 75.167969 50.6875 75.535156 50.273438 Z M 9.710938 33.089844 C 9.75 32.851562 9.796875 32.613281 9.855469 32.378906 C 9.921875 32.140625 10.003906 31.910156 10.09375 31.679688 C 10.199219 31.4375 10.316406 31.203125 10.441406 30.972656 C 10.65625 30.601562 10.894531 30.253906 11.148438 29.914062 C 11.421875 29.570312 11.710938 29.238281 12.019531 28.921875 C 12.390625 28.554688 12.777344 28.214844 13.179688 27.890625 C 14.234375 27.070312 15.359375 26.339844 16.441406 25.6875 C 16.953125 25.382812 17.476562 25.09375 18.007812 24.820312 C 18.511719 24.5625 19.03125 24.328125 19.550781 24.097656 C 20.78125 23.570312 22.050781 23.15625 23.339844 22.785156 C 24.097656 22.574219 24.863281 22.378906 25.636719 22.21875 C 26.425781 22.054688 27.21875 21.921875 27.960938 21.8125 C 28.40625 21.75 28.855469 21.691406 29.300781 21.636719 C 28.855469 21.9375 28.414062 22.25 27.988281 22.585938 C 27.535156 22.945312 27.085938 23.308594 26.65625 23.699219 C 26.230469 24.085938 25.8125 24.488281 25.40625 24.894531 C 25.164062 25.136719 24.921875 25.382812 24.695312 25.617188 C 24.574219 25.734375 24.457031 25.855469 24.34375 25.96875 C 24.339844 25.976562 24.332031 25.980469 24.328125 25.988281 C 24.324219 25.988281 24.324219 25.992188 24.324219 25.992188 C 23.09375 27.242188 21.925781 28.546875 20.710938 29.789062 C 20.703125 29.796875 20.699219 29.800781 20.691406 29.808594 C 20.535156 29.96875 20.375 30.125 20.214844 30.277344 C 20.171875 30.320312 20.125 30.363281 20.082031 30.40625 C 19.886719 30.601562 19.796875 30.878906 19.929688 31.132812 C 20.132812 31.527344 20.613281 31.480469 20.988281 31.464844 C 21.277344 31.453125 21.5625 31.429688 21.851562 31.40625 C 23.019531 31.316406 24.164062 31.050781 25.285156 30.722656 C 26.796875 30.285156 28.269531 29.710938 29.785156 29.277344 C 29.894531 29.25 30 29.21875 30.105469 29.191406 C 29.878906 29.578125 29.652344 29.960938 29.425781 30.347656 C 29.078125 30.933594 28.691406 31.496094 28.324219 31.980469 C 27.839844 32.605469 27.324219 33.199219 26.773438 33.761719 C 26.351562 34.179688 25.921875 34.578125 25.460938 34.949219 C 24.90625 35.382812 24.324219 35.773438 23.71875 36.140625 C 22.882812 36.636719 22.027344 37.101562 21.136719 37.5 C 20.570312 37.742188 20 37.949219 19.40625 38.121094 C 18.839844 38.273438 18.269531 38.390625 17.6875 38.476562 C 17.179688 38.542969 16.679688 38.578125 16.167969 38.589844 C 15.683594 38.585938 15.203125 38.566406 14.71875 38.507812 C 14.402344 38.460938 14.089844 38.398438 13.777344 38.320312 C 13.527344 38.25 13.285156 38.171875 13.042969 38.082031 C 12.730469 37.949219 12.429688 37.804688 12.132812 37.644531 C 11.914062 37.511719 11.699219 37.375 11.488281 37.222656 C 11.285156 37.0625 11.085938 36.890625 10.894531 36.710938 C 10.765625 36.582031 10.644531 36.449219 10.527344 36.3125 C 10.394531 36.140625 10.273438 35.964844 10.15625 35.785156 C 10.082031 35.65625 10.015625 35.53125 9.953125 35.398438 C 9.898438 35.257812 9.847656 35.117188 9.804688 34.972656 C 9.765625 34.808594 9.734375 34.648438 9.707031 34.484375 C 9.679688 34.257812 9.664062 34.035156 9.660156 33.808594 C 9.664062 33.570312 9.683594 33.332031 9.710938 33.089844 Z M 8.722656 38 C 8.820312 37.390625 8.945312 36.792969 9.085938 36.207031 C 9.355469 36.683594 9.683594 37.113281 10.070312 37.5 C 10.511719 37.945312 11.019531 38.3125 11.558594 38.625 C 12.09375 38.9375 12.664062 39.175781 13.253906 39.359375 C 13.832031 39.539062 14.4375 39.628906 15.039062 39.691406 C 15.207031 39.707031 15.378906 39.71875 15.546875 39.722656 C 15.53125 41.054688 15.558594 43.359375 15.429688 44.660156 C 15.40625 45.140625 15.308594 45.542969 15.347656 45.894531 C 15.050781 46.367188 14.625 46.742188 14.1875 47.089844 C 13.355469 47.734375 12.355469 48.179688 11.335938 48.289062 C 10.988281 48.332031 10.585938 48.351562 10.25 48.265625 C 10.191406 48.246094 10.132812 48.234375 10.074219 48.234375 C 9.824219 47.761719 9.59375 47.28125 9.394531 46.789062 C 8.296875 44.042969 8.261719 40.863281 8.722656 38 Z M 16.011719 54.039062 C 13.867188 53.046875 12.105469 51.410156 10.808594 49.460938 C 10.984375 49.460938 11.160156 49.453125 11.332031 49.433594 C 12.566406 49.320312 13.726562 48.855469 14.710938 48.113281 C 15.1875 47.734375 15.738281 47.324219 16.105469 46.8125 C 17.484375 47.707031 18.816406 48.703125 19.976562 49.871094 C 20.351562 50.296875 20.734375 50.734375 20.964844 51.257812 C 19.984375 52.070312 19.363281 53.179688 19.433594 55.003906 C 18.257812 54.769531 17.089844 54.480469 16.011719 54.039062 Z M 17.273438 64.507812 C 17.277344 64.523438 17.273438 64.535156 17.277344 64.550781 C 17.273438 64.535156 17.273438 64.519531 17.269531 64.507812 C 17.273438 64.507812 17.273438 64.507812 17.273438 64.507812 Z M 1.332031 58.851562 C 3.765625 60.773438 6.253906 62.980469 9.3125 63.785156 C 9.296875 63.878906 9.285156 63.972656 9.265625 64.054688 C 9.246094 64.230469 9.207031 64.449219 9.199219 64.664062 C 6.152344 64.039062 2.628906 61.535156 1.332031 58.851562 Z M 16.53125 66.570312 C 15.429688 66.976562 14.25 66.871094 13.121094 66.671875 C 12.304688 66.507812 11.480469 66.199219 10.851562 65.640625 C 10.65625 65.488281 10.5 65.28125 10.320312 65.101562 C 10.332031 65.0625 10.339844 65.019531 10.339844 64.976562 C 10.339844 64.5625 10.390625 64.160156 10.476562 63.757812 C 10.476562 63.757812 10.476562 63.757812 10.480469 63.753906 C 10.664062 63.671875 10.84375 63.574219 11.042969 63.523438 C 11.035156 63.523438 11.03125 63.527344 11.023438 63.527344 C 12.546875 63.140625 14.210938 63.289062 15.699219 63.773438 C 16.238281 63.96875 16.753906 64.226562 17.261719 64.5 C 17.222656 65.097656 17.214844 65.695312 17.175781 66.292969 C 16.953125 66.371094 16.761719 66.503906 16.53125 66.570312 Z M 18.300781 66.496094 C 18.3125 66.460938 18.316406 66.421875 18.320312 66.382812 C 18.335938 65.84375 18.378906 65.300781 18.390625 64.761719 C 18.9375 64.582031 19.449219 64.214844 19.996094 64.074219 C 21.066406 63.691406 22.199219 63.488281 23.328125 63.386719 C 23.585938 63.367188 23.839844 63.355469 24.09375 63.355469 C 24.667969 63.957031 25.273438 64.523438 25.925781 65.035156 C 23.601562 66.324219 20.882812 67.109375 18.300781 66.496094 Z M 11.195312 74.035156 C 10.097656 73.773438 8.96875 73.472656 7.988281 72.898438 C 7 72.171875 5.996094 71.492188 5.402344 70.417969 C 7.191406 71.460938 8.996094 72.574219 11.058594 72.980469 C 11.84375 73.113281 12.644531 73.246094 13.441406 73.300781 C 13.449219 73.332031 13.460938 73.363281 13.46875 73.394531 C 13.53125 73.605469 13.550781 73.894531 13.609375 74.15625 C 13.402344 74.183594 13.199219 74.222656 12.996094 74.222656 C 12.390625 74.265625 11.789062 74.148438 11.195312 74.035156 Z M 21.003906 73.316406 C 20.222656 74.027344 19.15625 74.257812 18.160156 74.5 C 17.023438 74.742188 15.835938 74.691406 14.746094 74.304688 C 14.800781 73.949219 14.636719 73.472656 14.59375 73.191406 C 14.59375 73.15625 14.585938 73.121094 14.582031 73.085938 C 16.304688 71.957031 18.394531 71.277344 20.476562 71.367188 C 20.726562 71.351562 20.976562 71.417969 21.230469 71.480469 C 21.28125 71.496094 21.328125 71.507812 21.378906 71.519531 C 21.371094 71.902344 21.382812 72.28125 21.378906 72.664062 C 21.375 72.738281 21.390625 72.804688 21.417969 72.871094 C 21.277344 73.015625 21.15625 73.191406 21.003906 73.316406 Z M 22.519531 72.601562 C 22.523438 72.167969 22.496094 71.753906 22.539062 71.347656 C 22.664062 71.226562 22.761719 71.089844 22.847656 70.992188 C 23.460938 70.304688 24.277344 69.835938 25.074219 69.386719 C 26.445312 68.648438 27.804688 67.96875 29.230469 67.484375 C 29.539062 67.691406 29.851562 67.886719 30.171875 68.074219 C 28.132812 70.136719 25.257812 72.414062 22.519531 72.601562 Z M 25.097656 80.175781 C 24.878906 80.664062 24.675781 81.152344 24.523438 81.667969 C 23.882812 83.347656 24.605469 85.0625 25.230469 86.617188 C 22.121094 84.488281 22.4375 80.8125 24.898438 78.421875 C 24.941406 78.507812 24.984375 78.589844 25.03125 78.675781 C 25.175781 78.945312 25.320312 79.210938 25.464844 79.480469 C 25.289062 79.667969 25.203125 79.949219 25.097656 80.175781 Z M 26.558594 79.105469 C 26.238281 78.527344 25.929688 77.9375 25.617188 77.355469 C 25.574219 77.273438 25.53125 77.1875 25.484375 77.105469 C 25.464844 77.078125 25.445312 77.050781 25.425781 77.023438 C 25.433594 76.976562 25.441406 76.929688 25.457031 76.882812 C 25.570312 76.382812 25.96875 76.019531 26.296875 75.644531 C 26.847656 75.085938 27.441406 74.546875 28.171875 74.234375 C 28.433594 74.121094 28.714844 74.046875 28.980469 73.945312 C 29.199219 74.296875 29.535156 74.644531 29.699219 74.882812 C 29.796875 75.019531 29.90625 75.175781 30.03125 75.300781 C 30.007812 75.390625 29.988281 75.488281 29.964844 75.597656 C 29.292969 77.128906 28.136719 78.539062 26.558594 79.105469 Z M 36.402344 71.527344 C 35.125 72.820312 33.578125 74.003906 31.742188 74.316406 C 31.324219 74.351562 31.015625 74.355469 30.777344 74.394531 C 30.613281 74.191406 30.417969 74 30.304688 73.820312 C 30.125 73.636719 30 73.335938 29.832031 73.109375 C 29.898438 72.976562 29.96875 72.84375 30.0625 72.726562 C 30.636719 72 31.308594 71.507812 32.046875 70.980469 C 32.679688 70.558594 33.265625 70.1875 33.886719 69.847656 C 34.855469 70.261719 35.851562 70.652344 36.847656 70.984375 C 36.710938 71.171875 36.566406 71.351562 36.402344 71.527344 Z M 47.273438 71.476562 C 45.496094 71.390625 43.714844 71.300781 41.953125 71.015625 C 38.601562 70.546875 35.433594 69.382812 32.378906 67.933594 C 30.175781 66.984375 28.308594 65.394531 26.40625 63.960938 C 25.25 62.996094 24.242188 61.871094 23.289062 60.714844 C 22.476562 59.679688 21.542969 58.703125 21.035156 57.472656 C 20.496094 55.847656 20.164062 53.628906 21.484375 52.292969 C 22.679688 51.226562 24.289062 50.832031 25.660156 50.050781 C 26.488281 49.601562 27.304688 49.0625 28.046875 48.46875 C 29.285156 47.492188 30.285156 46.324219 31.566406 45.378906 C 32.84375 44.46875 34.191406 43.84375 35.722656 43.402344 C 37.777344 42.9375 39.910156 42.941406 42.007812 42.875 C 43.152344 42.914062 44.289062 43.160156 45.320312 43.664062 C 46.03125 43.980469 46.777344 44.210938 47.367188 44.734375 C 47.453125 45.863281 47.339844 47.179688 47.464844 48.5 C 47.46875 49.804688 47.394531 51.277344 47.492188 52.679688 C 47.046875 54.546875 46.261719 56.425781 44.339844 57.089844 C 42.480469 57.785156 40.492188 56.984375 38.75 56.285156 C 37.152344 55.570312 35.722656 54.519531 34.648438 53.125 C 34.644531 53.117188 34.640625 53.113281 34.636719 53.105469 C 35.539062 52.511719 36.160156 51.867188 35.78125 51.429688 C 35.589844 51.195312 35.210938 51.136719 34.976562 51.34375 C 33.964844 52.300781 32.710938 53 31.375 53.390625 C 30.542969 53.207031 30.355469 54.460938 31.199219 54.558594 C 31.558594 54.597656 32.621094 54.214844 33.648438 53.679688 C 34.542969 54.933594 35.773438 55.941406 37.09375 56.726562 C 38.621094 57.578125 40.308594 58.191406 42.039062 58.453125 C 42.3125 58.484375 42.578125 58.5 42.832031 58.5 C 45.347656 58.5 46.964844 57.058594 47.914062 55.03125 C 48.4375 56.640625 49.523438 57.882812 51.761719 58.21875 C 53.53125 58.539062 55.34375 58.082031 56.90625 57.238281 C 58.546875 56.429688 60.105469 55.402344 61.25 53.957031 C 61.34375 53.851562 61.429688 53.738281 61.515625 53.625 C 61.664062 53.730469 61.820312 53.824219 61.984375 53.90625 C 62.988281 54.4375 64.167969 54.398438 65.242188 54.144531 C 65.957031 53.914062 65.632812 52.855469 64.910156 53.050781 C 64.050781 53.246094 63.101562 53.273438 62.328125 52.796875 C 61.8125 52.46875 61.398438 52.019531 61.039062 51.53125 C 60.757812 51.101562 60.070312 51.191406 59.957031 51.703125 C 59.902344 51.941406 60.007812 52.183594 60.203125 52.3125 C 60.335938 52.496094 60.484375 52.675781 60.636719 52.84375 C 59.390625 54.726562 57.214844 55.914062 55.160156 56.777344 C 53.300781 57.449219 50.691406 57.390625 49.417969 55.675781 C 48.652344 54.238281 48.574219 52.574219 48.589844 50.96875 C 48.664062 49.34375 48.554688 47.71875 48.523438 46.089844 C 48.519531 45.648438 48.613281 45.125 48.539062 44.664062 C 48.570312 44.644531 48.597656 44.625 48.625 44.609375 C 49.195312 44.328125 49.804688 44.128906 50.414062 43.960938 C 52.625 43.449219 54.859375 43.035156 57.105469 42.726562 C 59.398438 42.394531 61.496094 42.773438 63.339844 44.246094 C 64.761719 45.605469 65.972656 47.195312 67.773438 48.101562 C 69.351562 49.03125 71.316406 49.308594 72.632812 50.667969 C 80.03125 60.859375 61.738281 70.675781 53.28125 71.5 C 51.28125 71.683594 49.285156 71.617188 47.273438 71.476562 Z M 70.773438 86.460938 C 71.398438 84.90625 72.121094 83.191406 71.480469 81.511719 C 71.328125 80.996094 71.125 80.507812 70.910156 80.019531 C 70.800781 79.792969 70.714844 79.511719 70.539062 79.324219 C 70.683594 79.054688 70.828125 78.789062 70.972656 78.519531 C 71.019531 78.433594 71.0625 78.351562 71.109375 78.265625 C 73.566406 80.65625 73.882812 84.332031 70.773438 86.460938 Z M 67.832031 74.078125 C 68.5625 74.390625 69.15625 74.929688 69.707031 75.488281 C 70.035156 75.863281 70.433594 76.226562 70.546875 76.726562 C 70.5625 76.773438 70.570312 76.820312 70.578125 76.867188 C 70.558594 76.894531 70.539062 76.921875 70.519531 76.949219 C 70.472656 77.03125 70.429688 77.117188 70.386719 77.199219 C 70.074219 77.78125 69.765625 78.371094 69.445312 78.949219 C 67.867188 78.382812 66.710938 76.96875 66.039062 75.441406 C 66.015625 75.332031 65.996094 75.234375 65.972656 75.144531 C 66.097656 75.015625 66.207031 74.863281 66.304688 74.726562 C 66.46875 74.488281 66.804688 74.140625 67.023438 73.789062 C 67.289062 73.890625 67.570312 73.964844 67.832031 74.078125 Z M 63.957031 70.824219 C 64.695312 71.351562 65.367188 71.84375 65.941406 72.570312 C 66.035156 72.6875 66.105469 72.820312 66.171875 72.953125 C 66.007812 73.179688 65.878906 73.480469 65.699219 73.664062 C 65.585938 73.84375 65.390625 74.035156 65.226562 74.238281 C 64.988281 74.199219 64.679688 74.195312 64.261719 74.160156 C 62.425781 73.847656 60.878906 72.664062 59.601562 71.371094 C 59.535156 71.300781 59.472656 71.222656 59.410156 71.148438 C 59.597656 71.074219 59.785156 71 59.96875 70.917969 C 60.75 70.625 61.585938 70.277344 62.449219 69.878906 C 62.949219 70.167969 63.4375 70.476562 63.957031 70.824219 Z M 90.601562 70.261719 C 90.007812 71.335938 89.003906 72.015625 88.015625 72.742188 C 87.035156 73.316406 85.90625 73.617188 84.808594 73.878906 C 84.214844 73.992188 83.613281 74.109375 83.011719 74.066406 C 82.804688 74.066406 82.601562 74.027344 82.394531 74 C 82.457031 73.738281 82.472656 73.449219 82.535156 73.238281 C 82.542969 73.207031 82.554688 73.175781 82.5625 73.144531 C 83.359375 73.089844 84.160156 72.957031 84.945312 72.824219 C 87.007812 72.417969 88.8125 71.304688 90.601562 70.261719 Z M 75.527344 71.210938 C 77.609375 71.121094 79.699219 71.800781 81.421875 72.929688 C 81.417969 72.964844 81.410156 73 81.410156 73.035156 C 81.367188 73.316406 81.203125 73.792969 81.257812 74.148438 C 80.167969 74.535156 78.980469 74.585938 77.84375 74.34375 C 76.847656 74.101562 75.78125 73.871094 75 73.160156 C 74.847656 73.035156 74.726562 72.859375 74.585938 72.714844 C 74.613281 72.648438 74.628906 72.582031 74.625 72.507812 C 74.621094 72.125 74.632812 71.746094 74.625 71.363281 C 74.675781 71.351562 74.722656 71.339844 74.773438 71.324219 C 75.027344 71.261719 75.277344 71.195312 75.527344 71.210938 Z M 70.929688 69.230469 C 71.726562 69.679688 72.542969 70.148438 73.15625 70.835938 C 73.242188 70.933594 73.339844 71.070312 73.464844 71.191406 C 73.507812 71.597656 73.480469 72.011719 73.484375 72.445312 C 70.796875 72.261719 67.976562 70.066406 65.945312 68.03125 C 66.289062 67.828125 66.628906 67.613281 66.964844 67.398438 C 68.320312 67.875 69.621094 68.527344 70.929688 69.230469 Z M 70.238281 64.964844 C 70.886719 64.402344 71.5 63.816406 72.0625 63.199219 C 72.265625 63.203125 72.472656 63.214844 72.675781 63.230469 C 73.804688 63.332031 74.9375 63.535156 76.007812 63.917969 C 76.554688 64.058594 77.066406 64.425781 77.613281 64.605469 C 77.628906 65.144531 77.667969 65.6875 77.6875 66.226562 C 77.6875 66.265625 77.691406 66.304688 77.703125 66.339844 C 75.179688 66.9375 72.527344 66.203125 70.238281 64.964844 Z M 85.152344 65.484375 C 84.523438 66.042969 83.699219 66.351562 82.882812 66.515625 C 81.753906 66.714844 80.574219 66.820312 79.472656 66.414062 C 79.242188 66.347656 79.050781 66.214844 78.828125 66.136719 C 78.789062 65.539062 78.78125 64.941406 78.742188 64.34375 C 79.25 64.070312 79.765625 63.8125 80.304688 63.617188 C 81.796875 63.132812 83.457031 62.984375 84.980469 63.371094 C 84.976562 63.371094 84.96875 63.371094 84.960938 63.367188 C 85.160156 63.417969 85.339844 63.515625 85.523438 63.597656 C 85.527344 63.601562 85.527344 63.601562 85.527344 63.601562 C 85.613281 64.003906 85.664062 64.40625 85.664062 64.820312 C 85.664062 64.863281 85.671875 64.90625 85.683594 64.945312 C 85.503906 65.125 85.347656 65.332031 85.152344 65.484375 Z M 86.804688 64.507812 C 86.796875 64.292969 86.757812 64.074219 86.738281 63.898438 C 86.71875 63.816406 86.707031 63.722656 86.695312 63.628906 C 89.75 62.824219 92.238281 60.617188 94.671875 58.695312 C 93.375 61.378906 89.851562 63.882812 86.804688 64.507812 Z M 86.804688 64.507812 " fill-opacity="1" fill-rule="nonzero"/><path fill="#c98a3a" d="M 32.765625 38.53125 C 32.78125 38.828125 32.917969 39.109375 33.136719 39.3125 C 33.371094 39.523438 33.660156 39.609375 33.96875 39.609375 C 34.59375 39.609375 35.082031 39.003906 35.050781 38.410156 C 35.035156 38.113281 34.902344 37.828125 34.679688 37.628906 C 34.449219 37.417969 34.160156 37.332031 33.847656 37.332031 C 33.226562 37.332031 32.734375 37.933594 32.765625 38.53125 Z M 32.765625 38.53125 " fill-opacity="1" fill-rule="nonzero"/><path fill="#c98a3a" d="M 15.355469 78.734375 C 15.339844 78.4375 15.203125 78.15625 14.984375 77.953125 C 14.75 77.742188 14.460938 77.65625 14.152344 77.65625 C 13.527344 77.65625 13.039062 78.257812 13.070312 78.855469 C 13.085938 79.152344 13.21875 79.433594 13.441406 79.636719 C 13.671875 79.847656 13.960938 79.933594 14.273438 79.933594 C 14.894531 79.933594 15.386719 79.328125 15.355469 78.734375 Z M 15.355469 78.734375 " fill-opacity="1" fill-rule="nonzero"/><path fill="#5a3a1a" d="M 82.945312 78.929688 C 82.929688 78.632812 82.792969 78.347656 82.574219 78.148438 C 82.34375 77.9375 82.050781 77.851562 81.742188 77.851562 C 81.117188 77.851562 80.628906 78.457031 80.660156 79.050781 C 80.675781 79.347656 80.8125 79.628906 81.03125 79.832031 C 81.261719 80.042969 81.554688 80.128906 81.863281 80.128906 C 82.488281 80.128906 82.976562 79.527344 82.945312 78.929688 Z M 82.945312 78.929688 " fill-opacity="1" fill-rule="nonzero"/><path fill="#5a3a1a" d="M 60.453125 38.433594 C 60.46875 38.730469 60.605469 39.015625 60.824219 39.214844 C 61.058594 39.429688 61.347656 39.511719 61.65625 39.511719 C 62.28125 39.511719 62.769531 38.910156 62.738281 38.3125 C 62.722656 38.015625 62.589844 37.734375 62.367188 37.53125 C 62.136719 37.320312 61.847656 37.234375 61.535156 37.234375 C 60.914062 37.234375 60.421875 37.839844 60.453125 38.433594 Z M 60.453125 38.433594 " fill-opacity="1" fill-rule="nonzero"/><path fill="#c98a3a" d="M 56.132812 20.089844 C 56.148438 20.386719 56.285156 20.667969 56.503906 20.871094 C 56.738281 21.082031 57.027344 21.167969 57.335938 21.167969 C 57.960938 21.167969 58.449219 20.566406 58.417969 19.96875 C 58.402344 19.671875 58.269531 19.386719 58.046875 19.1875 C 57.816406 18.976562 57.527344 18.890625 57.214844 18.890625 C 56.59375 18.890625 56.101562 19.496094 56.132812 20.089844 Z M 56.132812 20.089844 " fill-opacity="1" fill-rule="nonzero"/><path fill="#a66a2c" d="M 44.179688 37.421875 C 45.164062 37.90625 46.242188 38.175781 47.335938 38.234375 C 47.476562 38.242188 47.617188 38.246094 47.761719 38.246094 C 48.601562 38.246094 49.445312 38.109375 50.242188 37.851562 C 51.21875 37.535156 52.113281 37.039062 52.910156 36.394531 C 54.0625 35.449219 54.945312 34.191406 55.425781 32.78125 C 55.765625 31.792969 55.910156 30.746094 55.855469 29.699219 C 55.828125 29.167969 55.742188 28.636719 55.609375 28.121094 C 55.550781 27.90625 55.484375 27.691406 55.414062 27.480469 C 55.328125 27.222656 55.046875 27.035156 54.738281 27.109375 C 54.648438 27.128906 54.570312 27.175781 54.503906 27.234375 C 54.375 27.304688 54.273438 27.417969 54.234375 27.566406 C 54.21875 27.628906 54.203125 27.6875 54.183594 27.746094 C 54.179688 27.75 54.179688 27.757812 54.179688 27.761719 C 54.125 27.925781 54.074219 28.089844 54.019531 28.253906 C 53.890625 28.59375 53.742188 28.921875 53.570312 29.242188 L 53.570312 29.246094 C 53.566406 29.253906 53.5625 29.261719 53.558594 29.273438 C 53.398438 29.558594 53.214844 29.851562 53.015625 30.132812 C 52.820312 30.402344 52.605469 30.660156 52.378906 30.90625 C 52.15625 31.136719 51.921875 31.359375 51.671875 31.5625 C 51.671875 31.566406 51.664062 31.574219 51.65625 31.582031 C 51.652344 31.582031 51.652344 31.582031 51.648438 31.585938 C 51.652344 31.582031 51.652344 31.582031 51.652344 31.582031 C 51.652344 31.582031 51.65625 31.578125 51.65625 31.578125 C 51.652344 31.582031 51.652344 31.582031 51.648438 31.582031 C 51.429688 31.757812 51.203125 31.921875 50.964844 32.074219 L 50.960938 32.078125 C 50.949219 32.085938 50.933594 32.09375 50.921875 32.101562 C 50.734375 32.214844 50.511719 32.339844 50.28125 32.449219 C 50.042969 32.558594 49.804688 32.652344 49.558594 32.730469 C 49.34375 32.796875 49.128906 32.851562 48.90625 32.890625 L 48.894531 32.894531 C 48.882812 32.894531 48.871094 32.898438 48.863281 32.898438 C 48.695312 32.925781 48.496094 32.949219 48.300781 32.960938 C 48.101562 32.964844 47.902344 32.960938 47.703125 32.945312 C 47.523438 32.929688 47.34375 32.902344 47.167969 32.863281 C 46.996094 32.820312 46.828125 32.769531 46.660156 32.710938 C 46.515625 32.652344 46.371094 32.585938 46.234375 32.515625 C 46.085938 32.433594 45.945312 32.347656 45.808594 32.25 C 45.6875 32.160156 45.570312 32.0625 45.457031 31.960938 C 45.34375 31.851562 45.234375 31.738281 45.132812 31.617188 C 45.015625 31.476562 44.910156 31.332031 44.8125 31.179688 C 44.71875 31.023438 44.632812 30.867188 44.554688 30.703125 C 44.546875 30.6875 44.539062 30.671875 44.535156 30.65625 C 44.460938 30.488281 44.394531 30.316406 44.339844 30.144531 C 44.269531 29.925781 44.21875 29.703125 44.175781 29.476562 C 44.136719 29.242188 44.109375 29 44.097656 28.761719 C 44.085938 28.472656 44.09375 28.183594 44.121094 27.894531 C 44.148438 27.59375 44.195312 27.292969 44.261719 26.996094 C 44.339844 26.660156 44.441406 26.332031 44.5625 26.007812 C 44.660156 25.746094 44.804688 25.421875 44.972656 25.105469 C 45.140625 24.796875 45.328125 24.496094 45.535156 24.207031 C 45.535156 24.203125 45.539062 24.203125 45.542969 24.199219 C 45.695312 23.988281 45.859375 23.785156 46.035156 23.589844 C 46.144531 23.488281 46.257812 23.300781 46.273438 23.242188 C 46.308594 23.164062 46.304688 23.070312 46.28125 22.984375 C 46.277344 22.96875 46.273438 22.953125 46.269531 22.941406 C 46.269531 22.9375 46.269531 22.9375 46.269531 22.933594 C 46.214844 22.757812 46.078125 22.597656 45.953125 22.480469 C 45.773438 22.339844 45.539062 22.355469 45.324219 22.425781 C 45.257812 22.441406 45.191406 22.460938 45.128906 22.488281 C 44.339844 22.753906 43.589844 23.140625 42.921875 23.636719 C 41.1875 24.917969 40.007812 26.871094 39.703125 29.003906 C 39.386719 31.222656 40.023438 33.511719 41.441406 35.253906 C 42.183594 36.164062 43.121094 36.90625 44.179688 37.425781 Z M 41.085938 32.238281 C 41 31.949219 40.925781 31.65625 40.871094 31.359375 C 40.820312 31.054688 40.789062 30.75 40.769531 30.445312 C 40.761719 30.136719 40.769531 29.828125 40.792969 29.519531 C 40.824219 29.210938 40.875 28.902344 40.941406 28.597656 C 41.011719 28.300781 41.101562 28.003906 41.207031 27.714844 C 41.316406 27.425781 41.449219 27.140625 41.59375 26.859375 C 41.601562 26.84375 41.609375 26.828125 41.617188 26.8125 C 41.742188 26.59375 41.902344 26.335938 42.078125 26.089844 C 42.253906 25.847656 42.445312 25.617188 42.648438 25.398438 C 42.859375 25.175781 43.085938 24.964844 43.324219 24.765625 C 43.546875 24.589844 43.773438 24.425781 44.011719 24.273438 C 44.070312 24.234375 44.136719 24.203125 44.195312 24.164062 C 44.140625 24.261719 44.082031 24.355469 44.027344 24.457031 C 43.441406 25.523438 43.0625 26.707031 42.96875 27.925781 C 42.886719 29.035156 43.054688 30.164062 43.519531 31.183594 C 43.730469 31.644531 44.03125 32.117188 44.414062 32.527344 C 44.78125 32.929688 45.21875 33.261719 45.695312 33.519531 C 46.441406 33.910156 47.269531 34.101562 48.105469 34.101562 C 48.308594 34.101562 48.511719 34.089844 48.714844 34.070312 C 50.085938 33.914062 51.359375 33.292969 52.417969 32.425781 C 53.0625 31.902344 53.671875 31.226562 54.167969 30.46875 C 54.363281 30.175781 54.535156 29.863281 54.695312 29.546875 C 54.703125 29.667969 54.714844 29.789062 54.71875 29.910156 C 54.726562 30.199219 54.71875 30.488281 54.695312 30.777344 C 54.664062 31.09375 54.613281 31.40625 54.542969 31.71875 C 54.472656 32.015625 54.386719 32.304688 54.28125 32.589844 C 54.167969 32.882812 54.039062 33.167969 53.894531 33.441406 C 53.746094 33.707031 53.585938 33.964844 53.410156 34.210938 C 53.226562 34.460938 53.03125 34.699219 52.820312 34.925781 C 52.617188 35.136719 52.402344 35.335938 52.175781 35.523438 L 52.160156 35.539062 C 51.9375 35.71875 51.703125 35.882812 51.460938 36.039062 C 51.195312 36.203125 50.917969 36.347656 50.636719 36.480469 C 50.367188 36.601562 50.089844 36.707031 49.804688 36.796875 C 49.527344 36.878906 49.25 36.945312 48.964844 37 C 48.65625 37.050781 48.347656 37.082031 48.039062 37.101562 C 47.722656 37.109375 47.40625 37.101562 47.089844 37.074219 C 46.785156 37.042969 46.480469 36.996094 46.183594 36.929688 C 45.875 36.855469 45.574219 36.765625 45.273438 36.65625 C 44.996094 36.546875 44.726562 36.425781 44.464844 36.289062 L 44.453125 36.285156 C 44.445312 36.28125 44.433594 36.273438 44.421875 36.269531 C 44.171875 36.128906 43.902344 35.960938 43.644531 35.777344 C 43.398438 35.597656 43.164062 35.40625 42.941406 35.199219 C 42.742188 35.007812 42.546875 34.800781 42.367188 34.582031 C 42.171875 34.347656 41.992188 34.097656 41.824219 33.835938 C 41.664062 33.574219 41.519531 33.304688 41.390625 33.027344 C 41.277344 32.769531 41.175781 32.507812 41.085938 32.238281 Z M 41.085938 32.238281 " fill-opacity="1" fill-rule="nonzero"/><path fill="#c98a3a" d="M 39.890625 10.996094 C 39.824219 10.675781 39.511719 10.46875 39.191406 10.539062 C 32.535156 11.921875 26.273438 14.996094 21.089844 19.433594 C 20.84375 19.644531 20.8125 20.019531 21.027344 20.265625 C 21.144531 20.402344 21.308594 20.472656 21.476562 20.472656 C 21.613281 20.472656 21.75 20.425781 21.863281 20.328125 C 26.894531 16.023438 32.972656 13.035156 39.433594 11.695312 C 39.753906 11.625 39.960938 11.3125 39.890625 10.996094 Z M 39.890625 10.996094 " fill-opacity="1" fill-rule="nonzero"/><path fill="#c98a3a" d="M 8.761719 60.613281 C 8.8125 60.613281 8.859375 60.609375 8.910156 60.597656 C 9.226562 60.515625 9.417969 60.195312 9.335938 59.878906 C 8.527344 56.710938 8.113281 53.433594 8.113281 50.132812 C 8.113281 49.808594 7.851562 49.542969 7.523438 49.542969 C 7.195312 49.542969 6.929688 49.808594 6.929688 50.132812 C 6.929688 53.53125 7.355469 56.910156 8.1875 60.171875 C 8.257812 60.4375 8.5 60.613281 8.761719 60.613281 Z M 8.761719 60.613281 " fill-opacity="1" fill-rule="nonzero"/><g clip-path="url(#a1b814a8f1)"><path fill="#c98a3a" d="M 28.785156 85.363281 C 28.636719 85.65625 28.75 86.011719 29.042969 86.160156 C 34.796875 89.09375 41.011719 90.582031 47.519531 90.582031 C 54.988281 90.582031 62.292969 88.542969 68.636719 84.683594 C 68.914062 84.515625 69.003906 84.152344 68.832031 83.871094 C 68.664062 83.59375 68.296875 83.507812 68.019531 83.675781 C 61.859375 87.421875 54.769531 89.402344 47.519531 89.402344 C 41.199219 89.402344 35.167969 87.957031 29.582031 85.109375 C 29.292969 84.960938 28.933594 85.074219 28.785156 85.363281 Z M 28.785156 85.363281 " fill-opacity="1" fill-rule="nonzero"/></g><path fill="#c98a3a" d="M 86.921875 50.132812 C 86.921875 52.800781 86.652344 55.460938 86.121094 58.050781 C 86.054688 58.367188 86.261719 58.679688 86.582031 58.746094 C 86.621094 58.753906 86.660156 58.757812 86.699219 58.757812 C 86.976562 58.757812 87.222656 58.566406 87.28125 58.285156 C 87.828125 55.621094 88.105469 52.878906 88.105469 50.132812 C 88.105469 49.808594 87.839844 49.542969 87.511719 49.542969 C 87.1875 49.542969 86.921875 49.808594 86.921875 50.132812 Z M 86.921875 50.132812 " fill-opacity="1" fill-rule="nonzero"/><path fill="#c98a3a" d="M 73.503906 20.425781 C 73.671875 20.425781 73.839844 20.355469 73.957031 20.21875 C 74.167969 19.972656 74.140625 19.597656 73.890625 19.386719 C 68.566406 14.847656 62.136719 11.75 55.292969 10.425781 C 54.96875 10.363281 54.660156 10.574219 54.597656 10.894531 C 54.535156 11.214844 54.746094 11.523438 55.066406 11.585938 C 61.710938 12.871094 67.953125 15.878906 73.121094 20.285156 C 73.234375 20.378906 73.371094 20.425781 73.503906 20.425781 Z M 73.503906 20.425781 " fill-opacity="1" fill-rule="nonzero"/><g clip-path="url(#4f2671eb13)"><path fill="#a66a2c" d="M 47.25 15.925781 C 47.578125 15.925781 47.84375 15.660156 47.84375 15.335938 L 47.84375 14.878906 C 47.84375 12.800781 49.539062 11.109375 51.625 11.109375 L 52.082031 11.109375 C 52.40625 11.109375 52.671875 10.847656 52.671875 10.519531 C 52.671875 10.195312 52.40625 9.929688 52.082031 9.929688 L 51.625 9.929688 C 49.539062 9.929688 47.84375 8.242188 47.84375 6.164062 L 47.84375 5.707031 C 47.84375 5.378906 47.578125 5.117188 47.25 5.117188 C 46.921875 5.117188 46.65625 5.378906 46.65625 5.707031 L 46.65625 6.164062 C 46.65625 8.242188 44.960938 9.929688 42.878906 9.929688 L 42.421875 9.929688 C 42.09375 9.929688 41.828125 10.195312 41.828125 10.519531 C 41.828125 10.847656 42.09375 11.109375 42.421875 11.109375 L 42.878906 11.109375 C 44.960938 11.109375 46.65625 12.800781 46.65625 14.878906 L 46.65625 15.335938 C 46.65625 15.660156 46.921875 15.925781 47.25 15.925781 Z M 45.226562 10.519531 C 46.082031 10.058594 46.789062 9.355469 47.25 8.503906 C 47.710938 9.355469 48.417969 10.058594 49.273438 10.519531 C 48.417969 10.980469 47.710938 11.683594 47.25 12.539062 C 46.789062 11.683594 46.082031 10.980469 45.226562 10.519531 Z M 45.226562 10.519531 " fill-opacity="1" fill-rule="nonzero"/></g><path fill="#c98a3a" d="M 71.789062 40.238281 C 71.460938 40.238281 71.195312 40.503906 71.195312 40.828125 L 71.195312 41.441406 C 71.195312 42.242188 70.542969 42.894531 69.738281 42.894531 L 69.121094 42.894531 C 68.796875 42.894531 68.53125 43.160156 68.53125 43.484375 C 68.53125 43.8125 68.796875 44.078125 69.121094 44.078125 L 69.738281 44.078125 C 70.542969 44.078125 71.195312 44.726562 71.195312 45.53125 L 71.195312 46.144531 C 71.195312 46.46875 71.460938 46.734375 71.789062 46.734375 C 72.117188 46.734375 72.382812 46.46875 72.382812 46.144531 L 72.382812 45.53125 C 72.382812 44.726562 73.035156 44.078125 73.839844 44.078125 L 74.457031 44.078125 C 74.78125 44.078125 75.046875 43.8125 75.046875 43.484375 C 75.046875 43.160156 74.78125 42.894531 74.457031 42.894531 L 73.839844 42.894531 C 73.035156 42.894531 72.382812 42.242188 72.382812 41.441406 L 72.382812 40.828125 C 72.382812 40.503906 72.117188 40.238281 71.789062 40.238281 Z M 72.175781 43.484375 C 72.035156 43.601562 71.902344 43.730469 71.789062 43.871094 C 71.671875 43.730469 71.542969 43.601562 71.402344 43.484375 C 71.542969 43.371094 71.671875 43.242188 71.789062 43.101562 C 71.902344 43.242188 72.035156 43.371094 72.175781 43.484375 Z M 72.175781 43.484375 " fill-opacity="1" fill-rule="nonzero"/><path fill="#c98a3a" d="M 14.019531 55.335938 C 13.691406 55.335938 13.425781 55.597656 13.425781 55.925781 L 13.425781 56.539062 C 13.425781 57.339844 12.769531 57.992188 11.96875 57.992188 L 11.351562 57.992188 C 11.023438 57.992188 10.757812 58.257812 10.757812 58.582031 C 10.757812 58.90625 11.023438 59.171875 11.351562 59.171875 L 11.96875 59.171875 C 12.769531 59.171875 13.425781 59.824219 13.425781 60.625 L 13.425781 61.238281 C 13.425781 61.566406 13.691406 61.828125 14.019531 61.828125 C 14.34375 61.828125 14.609375 61.566406 14.609375 61.238281 L 14.609375 60.625 C 14.609375 59.824219 15.265625 59.171875 16.070312 59.171875 L 16.683594 59.171875 C 17.011719 59.171875 17.277344 58.90625 17.277344 58.582031 C 17.277344 58.257812 17.011719 57.992188 16.683594 57.992188 L 16.070312 57.992188 C 15.265625 57.992188 14.609375 57.339844 14.609375 56.539062 L 14.609375 55.925781 C 14.609375 55.597656 14.34375 55.335938 14.019531 55.335938 Z M 14.402344 58.582031 C 14.261719 58.695312 14.132812 58.824219 14.019531 58.96875 C 13.902344 58.824219 13.773438 58.695312 13.632812 58.582031 C 13.773438 58.46875 13.902344 58.339844 14.019531 58.199219 C 14.132812 58.339844 14.261719 58.46875 14.402344 58.582031 Z M 14.402344 58.582031 " fill-opacity="1" fill-rule="nonzero"/><path fill="#c98a3a" d="M 48.554688 77.035156 C 48.226562 77.035156 47.960938 77.300781 47.960938 77.625 L 47.960938 77.980469 C 47.960938 79.53125 46.699219 80.789062 45.144531 80.789062 L 44.785156 80.789062 C 44.460938 80.789062 44.195312 81.054688 44.195312 81.378906 C 44.195312 81.707031 44.460938 81.972656 44.785156 81.972656 L 45.144531 81.972656 C 46.699219 81.972656 47.960938 83.230469 47.960938 84.78125 L 47.960938 85.136719 C 47.960938 85.460938 48.226562 85.726562 48.554688 85.726562 C 48.882812 85.726562 49.148438 85.460938 49.148438 85.136719 L 49.148438 84.78125 C 49.148438 83.230469 50.410156 81.972656 51.964844 81.972656 L 52.320312 81.972656 C 52.648438 81.972656 52.914062 81.707031 52.914062 81.378906 C 52.914062 81.054688 52.648438 80.789062 52.320312 80.789062 L 51.964844 80.789062 C 50.410156 80.789062 49.148438 79.53125 49.148438 77.980469 L 49.148438 77.625 C 49.148438 77.300781 48.882812 77.035156 48.554688 77.035156 Z M 49.878906 81.378906 C 49.339844 81.710938 48.886719 82.164062 48.554688 82.703125 C 48.222656 82.164062 47.769531 81.710938 47.230469 81.378906 C 47.769531 81.050781 48.222656 80.597656 48.554688 80.058594 C 48.886719 80.597656 49.339844 81.050781 49.878906 81.378906 Z M 49.878906 81.378906 " fill-opacity="1" fill-rule="nonzero"/></svg>