<svg xmlns="http://www.w3.org/2000/svg" xmlns:xlink="http://www.w3.org/1999/xlink" width="128" zoomAndPan="magnify" viewBox="0 0 96 95.999999" height="128" preserveAspectRatio="xMidYMid meet" version="1.0"><defs><clipPath id="555467a52a"><path d="M 23.332031 77 L 27 77 L 27 82 L 23.332031 82 Z M 23.332031 77 " clip-rule="nonzero"/></clipPath><clipPath id="c579ca5380"><path d="M 68 87 L 72.832031 87 L 72.832031 91.339844 L 68 91.339844 Z M 68 87 " clip-rule="nonzero"/></clipPath><clipPath id="a986709d51"><path d="M 36 4.339844 L 42 4.339844 L 42 10 L 36 10 Z M 36 4.339844 " clip-rule="nonzero"/></clipPath></defs><path fill="#000000" d="M 46.421875 50.976562 C 44.730469 50.894531 43.039062 50.714844 41.34375 50.726562 C 41.671875 50.304688 41.976562 49.871094 42.25 49.410156 C 41.894531 49.726562 41.546875 50.054688 41.210938 50.394531 C 41.171875 49.035156 40.996094 47.675781 40.777344 46.335938 C 40.648438 47.71875 40.5625 49.101562 40.546875 50.492188 C 40.125 50.058594 39.722656 49.691406 39.257812 49.242188 C 39.554688 49.785156 39.898438 50.289062 40.277344 50.773438 C 38.914062 50.878906 37.5625 51.132812 36.210938 51.332031 C 37.558594 51.496094 39.019531 51.476562 40.273438 51.449219 C 39.859375 51.96875 39.492188 52.523438 39.195312 53.128906 C 39.652344 52.664062 40.109375 52.183594 40.546875 51.695312 C 40.554688 52.269531 40.566406 52.851562 40.597656 53.425781 C 40.632812 54.238281 40.691406 55.046875 40.792969 55.851562 C 40.800781 55.785156 40.804688 55.71875 40.8125 55.652344 C 40.941406 54.378906 41.128906 53.113281 41.195312 51.835938 C 41.605469 52.269531 42.03125 52.6875 42.460938 53.097656 C 42.492188 53.125 42.527344 53.152344 42.554688 53.183594 C 42.191406 52.578125 41.804688 51.988281 41.375 51.433594 C 42.6875 51.402344 44.898438 51.296875 46.421875 50.976562 Z M 46.421875 50.976562 " fill-opacity="1" fill-rule="nonzero"/><g clip-path="url(#555467a52a)"><path fill="#000000" d="M 26.792969 79.332031 C 26.742188 79.320312 26.691406 79.308594 26.640625 79.300781 C 26.3125 79.242188 25.980469 79.199219 25.648438 79.167969 C 25.847656 78.976562 26.039062 78.773438 26.214844 78.558594 C 26.003906 78.699219 25.804688 78.855469 25.613281 79.019531 C 25.597656 78.480469 25.546875 77.941406 25.46875 77.414062 C 25.398438 77.917969 25.363281 78.425781 25.355469 78.933594 C 25.195312 78.71875 25.019531 78.515625 24.824219 78.328125 C 24.976562 78.605469 25.136719 78.878906 25.304688 79.148438 C 24.660156 79.117188 24.007812 79.15625 23.375 79.292969 C 23.992188 79.355469 24.605469 79.386719 25.222656 79.390625 C 25.085938 79.53125 24.949219 79.675781 24.824219 79.828125 C 25.007812 79.710938 25.183594 79.574219 25.351562 79.433594 C 25.359375 80.023438 25.394531 80.613281 25.445312 81.203125 C 25.554688 80.675781 25.605469 80.144531 25.621094 79.617188 C 25.785156 79.847656 25.960938 80.074219 26.160156 80.28125 C 26.007812 79.976562 25.84375 79.675781 25.664062 79.386719 C 26.035156 79.386719 26.414062 79.367188 26.792969 79.332031 Z M 26.792969 79.332031 " fill-opacity="1" fill-rule="nonzero"/></g><g clip-path="url(#c579ca5380)"><path fill="#000000" d="M 70.90625 89.671875 C 71.566406 89.632812 72.183594 89.570312 72.621094 89.488281 C 72.054688 89.402344 71.480469 89.359375 70.90625 89.371094 C 70.90625 89.367188 70.90625 89.367188 70.90625 89.363281 C 71.089844 89.144531 71.265625 88.914062 71.417969 88.671875 C 71.238281 88.8125 71.066406 88.960938 70.898438 89.117188 C 70.886719 88.644531 70.84375 88.175781 70.769531 87.710938 C 70.683594 88.265625 70.640625 88.820312 70.621094 89.378906 C 70.609375 89.378906 70.597656 89.382812 70.582031 89.382812 C 70.394531 89.175781 70.191406 88.980469 69.964844 88.804688 C 70.09375 89.007812 70.226562 89.203125 70.363281 89.398438 C 69.78125 89.441406 69.207031 89.53125 68.648438 89.683594 C 69.15625 89.714844 69.765625 89.71875 70.363281 89.699219 C 70.179688 89.925781 70.003906 90.160156 69.855469 90.414062 C 70.121094 90.195312 70.367188 89.960938 70.601562 89.714844 C 70.601562 89.71875 70.609375 89.722656 70.609375 89.726562 C 70.601562 90.375 70.628906 91.023438 70.679688 91.664062 C 70.792969 91.132812 70.859375 90.597656 70.890625 90.058594 C 71.121094 90.3125 71.367188 90.550781 71.65625 90.765625 C 71.40625 90.425781 71.164062 90.082031 70.902344 89.753906 C 70.90625 89.726562 70.90625 89.699219 70.90625 89.671875 Z M 70.90625 89.671875 " fill-opacity="1" fill-rule="nonzero"/></g><path fill="#000000" d="M 42.042969 37.042969 C 42.601562 36.976562 43.160156 36.867188 43.730469 36.773438 C 43.101562 36.691406 42.511719 36.710938 41.9375 36.757812 C 42.074219 36.550781 42.199219 36.339844 42.308594 36.117188 C 42.160156 36.273438 42.015625 36.433594 41.878906 36.601562 C 41.839844 36.09375 41.777344 35.589844 41.691406 35.09375 C 41.605469 35.621094 41.574219 36.152344 41.582031 36.683594 C 41.359375 36.523438 41.121094 36.375 40.871094 36.253906 C 41.066406 36.441406 41.265625 36.628906 41.46875 36.808594 C 40.972656 36.863281 40.480469 36.925781 39.980469 36.960938 C 40.511719 37.089844 41.023438 37.113281 41.53125 37.085938 C 41.375 37.328125 41.238281 37.585938 41.136719 37.855469 C 41.296875 37.65625 41.453125 37.453125 41.605469 37.246094 C 41.640625 37.808594 41.714844 38.371094 41.804688 38.925781 C 41.90625 38.335938 41.933594 37.753906 41.914062 37.171875 C 42.195312 37.386719 42.488281 37.585938 42.804688 37.746094 C 42.558594 37.503906 42.308594 37.265625 42.042969 37.042969 Z M 42.042969 37.042969 " fill-opacity="1" fill-rule="nonzero"/><g clip-path="url(#a986709d51)"><path fill="#000000" d="M 38.90625 7.402344 C 39.007812 7.398438 39.105469 7.394531 39.207031 7.386719 C 39.871094 7.328125 40.726562 7.085938 41.257812 6.949219 C 40.589844 6.957031 39.925781 6.96875 39.261719 6.976562 C 39.488281 6.746094 39.6875 6.515625 39.832031 6.300781 C 39.523438 6.511719 39.234375 6.742188 38.949219 6.984375 C 38.941406 6.984375 38.933594 6.984375 38.921875 6.984375 C 38.941406 6.101562 38.890625 5.21875 38.746094 4.339844 C 38.636719 5.21875 38.558594 6.105469 38.527344 6.992188 C 38.5 6.992188 38.476562 6.996094 38.449219 6.996094 C 38.269531 6.785156 38.078125 6.578125 37.867188 6.390625 C 37.972656 6.578125 38.105469 6.789062 38.25 7.003906 C 37.523438 7.027344 36.792969 7.0625 36.070312 7.121094 C 36.863281 7.273438 37.671875 7.394531 38.480469 7.40625 C 38.1875 7.6875 37.902344 7.984375 37.644531 8.300781 C 37.925781 8.121094 38.226562 7.898438 38.519531 7.660156 C 38.515625 8.394531 38.539062 9.132812 38.605469 9.863281 C 38.738281 9.199219 38.824219 8.527344 38.875 7.855469 C 39.078125 8.101562 39.28125 8.308594 39.453125 8.4375 C 39.28125 8.136719 39.09375 7.847656 38.894531 7.566406 C 38.898438 7.511719 38.902344 7.457031 38.90625 7.402344 Z M 38.90625 7.402344 " fill-opacity="1" fill-rule="nonzero"/></g><path stroke-linecap="butt" transform="matrix(1, 0, 0, 1, 0.0000005, 0.000002)" fill-opacity="1" fill="#000000" fill-rule="nonzero" stroke-linejoin="miter" d="M 38.95703 10.890623 L 41.648436 34.050778 L 41.535155 34.066403 L 38.843748 10.906248 Z M 38.95703 10.890623 " stroke="#000000" stroke-width="0.2" stroke-opacity="1" stroke-miterlimit="4"/><path stroke-linecap="butt" transform="matrix(1, 0, 0, 1, 0.0000005, 0.000002)" fill-opacity="1" fill="#000000" fill-rule="nonzero" stroke-linejoin="miter" d="M 41.691405 40.101559 L 41.054686 45.175778 L 40.941405 45.160153 L 41.578123 40.085934 Z M 41.691405 40.101559 " stroke="#000000" stroke-width="0.2" stroke-opacity="1" stroke-miterlimit="4"/><path stroke-linecap="butt" transform="matrix(1, 0, 0, 1, 0.0000005, 0.000002)" fill-opacity="1" fill="#000000" fill-rule="nonzero" stroke-linejoin="miter" d="M 43.191405 53.74609 L 69.613279 88.113277 L 69.523435 88.183589 L 43.105467 53.816403 Z M 43.191405 53.74609 " stroke="#000000" stroke-width="0.2" stroke-opacity="1" stroke-miterlimit="4"/><path stroke-linecap="butt" transform="matrix(1, 0, 0, 1, 0.0000005, 0.000002)" fill-opacity="1" fill="#000000" fill-rule="nonzero" stroke-linejoin="miter" d="M 38.667967 54.164059 L 26.281249 77.136715 L 26.179686 77.085933 L 38.566405 54.113278 Z M 38.667967 54.164059 " stroke="#000000" stroke-width="0.2" stroke-opacity="1" stroke-miterlimit="4"/></svg>