<svg xmlns="http://www.w3.org/2000/svg" xmlns:xlink="http://www.w3.org/1999/xlink" width="128" zoomAndPan="magnify" viewBox="0 0 96 95.999999" height="128" preserveAspectRatio="xMidYMid meet" version="1.0"><defs><clipPath id="228d672d1f"><path d="M 1.613281 30.09375 L 11 30.09375 L 11 40 L 1.613281 40 Z M 1.613281 30.09375 " clip-rule="nonzero"/></clipPath><clipPath id="cc120fa8dd"><path d="M 57 75.09375 L 61 75.09375 L 61 78.578125 L 57 78.578125 Z M 57 75.09375 " clip-rule="nonzero"/></clipPath><clipPath id="1960c09dcb"><path d="M 90 17.828125 L 94.613281 17.828125 L 94.613281 23 L 90 23 Z M 90 17.828125 " clip-rule="nonzero"/></clipPath></defs><g clip-path="url(#228d672d1f)"><path fill="#000000" d="M 10.785156 34.050781 C 10.71875 34.058594 10.648438 34.066406 10.582031 34.070312 C 9.320312 34.15625 8.050781 34.25 6.800781 34.425781 C 7.0625 33.9375 7.300781 33.429688 7.496094 32.914062 C 7.171875 33.351562 6.785156 33.90625 6.40625 34.480469 C 6.386719 34.480469 6.367188 34.484375 6.34375 34.488281 C 6.109375 33.085938 5.785156 31.691406 5.324219 30.238281 C 5.414062 31.558594 5.503906 32.878906 5.644531 34.199219 C 5.308594 33.902344 4.960938 33.625 4.597656 33.355469 C 4.921875 33.792969 5.269531 34.207031 5.640625 34.605469 C 5.453125 34.640625 5.273438 34.675781 5.085938 34.714844 C 3.917969 34.972656 2.785156 35.363281 1.652344 35.75 C 2.535156 35.691406 3.863281 35.519531 4.328125 35.449219 C 4.796875 35.390625 5.277344 35.328125 5.773438 35.257812 C 5.78125 35.320312 5.789062 35.378906 5.796875 35.445312 C 5.375 36.144531 5.03125 36.800781 4.902344 37.25 C 5.242188 36.832031 5.570312 36.390625 5.882812 35.9375 C 6.132812 37.304688 6.503906 38.652344 6.902344 39.980469 C 6.820312 38.402344 6.695312 36.914062 6.492188 35.449219 C 6.957031 35.871094 7.441406 36.269531 7.953125 36.628906 C 7.539062 36.097656 7.09375 35.59375 6.625 35.117188 C 7.222656 35.011719 7.832031 34.886719 8.457031 34.71875 C 9.238281 34.519531 10.019531 34.308594 10.785156 34.050781 Z M 10.785156 34.050781 " fill-opacity="1" fill-rule="nonzero"/></g><path fill="#000000" d="M 16.753906 36.230469 C 17.320312 36.261719 17.890625 36.277344 18.457031 36.277344 C 17.929688 36.117188 17.382812 36.011719 16.839844 35.957031 C 17.160156 35.679688 17.472656 35.382812 17.765625 35.074219 C 17.402344 35.269531 17.066406 35.496094 16.746094 35.753906 C 16.757812 35.175781 16.734375 34.597656 16.683594 34.023438 C 16.5625 34.621094 16.484375 35.222656 16.445312 35.824219 C 16.242188 35.582031 16.03125 35.347656 15.792969 35.136719 C 15.953125 35.40625 16.132812 35.671875 16.320312 35.925781 C 15.773438 35.90625 15.226562 35.9375 14.679688 36.027344 C 15.199219 36.101562 15.722656 36.152344 16.246094 36.191406 C 16.007812 36.421875 15.78125 36.664062 15.570312 36.921875 C 15.867188 36.734375 16.144531 36.523438 16.417969 36.308594 C 16.390625 36.941406 16.398438 37.578125 16.441406 38.210938 C 16.585938 37.621094 16.671875 37.019531 16.71875 36.417969 C 16.871094 36.59375 17.035156 36.769531 17.207031 36.933594 C 17.074219 36.6875 16.917969 36.457031 16.753906 36.230469 Z M 16.753906 36.230469 " fill-opacity="1" fill-rule="nonzero"/><path fill="#000000" d="M 31.585938 35.984375 C 31.179688 35.964844 30.777344 35.972656 30.375 36 C 30.546875 35.761719 30.707031 35.519531 30.847656 35.265625 C 30.613281 35.503906 30.386719 35.75 30.175781 36.015625 C 30.160156 36.015625 30.144531 36.015625 30.128906 36.015625 C 30.089844 35.441406 30.011719 34.867188 29.882812 34.304688 C 29.835938 34.8125 29.820312 35.320312 29.828125 35.824219 C 29.648438 35.632812 29.464844 35.445312 29.277344 35.265625 C 29.429688 35.542969 29.613281 35.804688 29.808594 36.050781 C 29.179688 36.121094 28.554688 36.234375 27.933594 36.363281 C 28.574219 36.417969 29.207031 36.390625 29.839844 36.3125 C 29.839844 36.363281 29.84375 36.417969 29.847656 36.46875 C 29.730469 36.652344 29.617188 36.84375 29.523438 37.042969 C 29.636719 36.917969 29.75 36.792969 29.859375 36.664062 C 29.898438 37.195312 29.964844 37.726562 30.058594 38.242188 C 30.136719 37.644531 30.164062 37.042969 30.148438 36.4375 C 30.351562 36.648438 30.566406 36.851562 30.789062 37.039062 C 30.613281 36.765625 30.414062 36.507812 30.207031 36.261719 C 30.667969 36.183594 31.128906 36.09375 31.585938 35.984375 Z M 31.585938 35.984375 " fill-opacity="1" fill-rule="nonzero"/><path fill="#000000" d="M 46.375 38.464844 C 46.757812 38.476562 47.140625 38.480469 47.515625 38.480469 C 47.125 38.363281 46.726562 38.296875 46.324219 38.253906 C 46.550781 38.066406 46.769531 37.867188 46.996094 37.648438 C 46.734375 37.777344 46.488281 37.9375 46.253906 38.113281 C 46.296875 37.601562 46.304688 37.089844 46.257812 36.578125 C 46.160156 37.035156 46.082031 37.496094 46.015625 37.957031 C 45.902344 37.816406 45.785156 37.683594 45.65625 37.554688 C 45.753906 37.757812 45.867188 37.953125 45.984375 38.144531 C 45.984375 38.167969 45.980469 38.195312 45.972656 38.21875 C 45.480469 38.183594 44.980469 38.175781 44.488281 38.15625 C 44.933594 38.3125 45.398438 38.390625 45.867188 38.429688 C 45.667969 38.613281 45.480469 38.804688 45.316406 39.019531 C 45.53125 38.863281 45.734375 38.714844 45.933594 38.5625 C 45.875 39.105469 45.84375 39.648438 45.847656 40.191406 C 46.019531 39.636719 46.144531 39.066406 46.21875 38.488281 C 46.394531 38.734375 46.585938 38.96875 46.796875 39.183594 C 46.671875 38.9375 46.53125 38.695312 46.375 38.464844 Z M 46.375 38.464844 " fill-opacity="1" fill-rule="nonzero"/><path fill="#000000" d="M 27.039062 58.890625 C 27.425781 58.859375 27.8125 58.789062 28.195312 58.707031 C 27.996094 58.660156 27.628906 58.644531 27.210938 58.648438 C 27.351562 58.519531 27.476562 58.394531 27.570312 58.28125 C 27.371094 58.386719 27.183594 58.515625 27 58.652344 C 26.972656 58.652344 26.945312 58.65625 26.917969 58.65625 C 26.914062 58.074219 26.855469 57.492188 26.722656 56.921875 C 26.6875 57.410156 26.664062 57.902344 26.65625 58.394531 C 26.554688 58.277344 26.457031 58.160156 26.355469 58.042969 C 26.433594 58.238281 26.535156 58.421875 26.652344 58.601562 C 26.652344 58.621094 26.648438 58.644531 26.648438 58.667969 C 26.171875 58.691406 25.683594 58.730469 25.328125 58.78125 C 25.640625 58.824219 25.898438 58.863281 26.210938 58.890625 C 26.359375 58.910156 26.503906 58.914062 26.648438 58.914062 C 26.648438 58.925781 26.648438 58.933594 26.648438 58.945312 C 26.484375 59.09375 26.328125 59.246094 26.179688 59.417969 C 26.332031 59.328125 26.492188 59.21875 26.652344 59.101562 C 26.660156 59.570312 26.6875 60.042969 26.75 60.511719 C 26.839844 60 26.890625 59.484375 26.90625 58.96875 C 27.078125 59.195312 27.261719 59.410156 27.425781 59.625 C 27.332031 59.359375 27.195312 59.117188 27.039062 58.890625 Z M 27.039062 58.890625 " fill-opacity="1" fill-rule="nonzero"/><g clip-path="url(#cc120fa8dd)"><path fill="#000000" d="M 60.339844 77.371094 C 59.921875 77.199219 59.496094 77.039062 59.070312 76.882812 C 59.363281 76.742188 59.644531 76.574219 59.917969 76.390625 C 59.589844 76.476562 59.273438 76.59375 58.964844 76.730469 C 59.0625 76.285156 59.125 75.832031 59.148438 75.375 C 59.03125 75.710938 58.925781 76.050781 58.824219 76.394531 C 58.757812 76.203125 58.675781 76.019531 58.585938 75.835938 C 58.628906 76.121094 58.679688 76.40625 58.742188 76.691406 C 58.738281 76.710938 58.726562 76.734375 58.722656 76.757812 C 58.21875 76.582031 57.710938 76.417969 57.195312 76.269531 C 57.605469 76.554688 58.042969 76.78125 58.503906 76.957031 C 58.285156 77.074219 58.066406 77.195312 57.859375 77.332031 C 58.128906 77.265625 58.390625 77.179688 58.644531 77.078125 C 58.546875 77.5 58.460938 77.925781 58.410156 78.355469 C 58.597656 77.972656 58.746094 77.578125 58.859375 77.171875 C 58.945312 77.5 59.046875 77.824219 59.171875 78.140625 C 59.152344 77.796875 59.105469 77.460938 59.035156 77.132812 C 59.457031 77.253906 59.894531 77.335938 60.339844 77.371094 Z M 60.339844 77.371094 " fill-opacity="1" fill-rule="nonzero"/></g><path fill="#000000" d="M 63.648438 69.675781 C 63.964844 69.480469 64.269531 69.273438 64.5625 69.035156 C 64.515625 69.054688 64.476562 69.074219 64.433594 69.089844 C 64.140625 69.203125 63.859375 69.332031 63.582031 69.476562 C 63.644531 69.253906 63.6875 69.023438 63.710938 68.792969 C 63.605469 69.027344 63.507812 69.265625 63.414062 69.511719 C 63.214844 69.085938 63 68.664062 62.773438 68.25 C 62.859375 68.683594 62.988281 69.101562 63.144531 69.507812 C 62.992188 69.460938 62.839844 69.417969 62.683594 69.367188 C 62.847656 69.480469 63.019531 69.570312 63.199219 69.648438 C 63.203125 69.65625 63.203125 69.667969 63.207031 69.675781 C 62.796875 69.914062 62.40625 70.191406 62.050781 70.511719 C 62.46875 70.320312 62.882812 70.117188 63.285156 69.890625 C 63.214844 70.113281 63.15625 70.335938 63.109375 70.566406 C 63.207031 70.402344 63.296875 70.226562 63.375 70.050781 C 63.585938 70.511719 63.824219 70.964844 64.074219 71.40625 C 63.960938 70.839844 63.773438 70.304688 63.542969 69.78125 C 63.824219 69.875 64.113281 69.949219 64.386719 70.019531 C 64.148438 69.878906 63.902344 69.769531 63.648438 69.675781 Z M 63.648438 69.675781 " fill-opacity="1" fill-rule="nonzero"/><path fill="#000000" d="M 89.046875 30.140625 C 90.207031 30.035156 91.359375 29.824219 92.484375 29.523438 C 91.386719 29.484375 90.289062 29.460938 89.1875 29.472656 C 89.484375 29.105469 89.746094 28.707031 89.957031 28.273438 C 89.601562 28.6875 89.226562 29.082031 88.847656 29.476562 C 88.824219 29.476562 88.804688 29.476562 88.78125 29.476562 C 88.765625 28.222656 88.609375 26.976562 88.484375 25.730469 C 88.308594 26.84375 88.214844 27.96875 88.191406 29.097656 C 87.925781 28.820312 87.648438 28.558594 87.347656 28.328125 C 87.621094 28.714844 87.890625 29.105469 88.179688 29.484375 C 88.179688 29.484375 88.179688 29.492188 88.179688 29.492188 C 86.871094 29.542969 85.566406 29.660156 84.273438 29.914062 C 85.566406 30.066406 86.863281 30.222656 88.167969 30.199219 C 87.804688 30.589844 87.453125 30.996094 87.132812 31.425781 C 87.496094 31.144531 87.851562 30.851562 88.191406 30.539062 C 88.210938 31.609375 88.28125 32.683594 88.398438 33.75 C 88.566406 32.589844 88.726562 31.4375 88.773438 30.230469 C 89.078125 30.59375 89.402344 30.9375 89.75 31.257812 C 89.898438 31.402344 89.769531 31.242188 89.726562 31.164062 C 89.511719 30.816406 89.285156 30.472656 89.046875 30.140625 Z M 89.046875 30.140625 " fill-opacity="1" fill-rule="nonzero"/><g clip-path="url(#1960c09dcb)"><path fill="#000000" d="M 92.664062 20.339844 C 93.238281 20.070312 93.792969 19.757812 94.332031 19.414062 C 93.804688 19.542969 93.289062 19.710938 92.789062 19.914062 C 92.898438 19.648438 92.996094 19.382812 93.082031 19.105469 C 92.882812 19.402344 92.703125 19.707031 92.53125 20.015625 C 92.511719 20.023438 92.492188 20.03125 92.472656 20.042969 C 92.226562 19.277344 91.921875 18.539062 91.539062 17.828125 C 91.679688 18.605469 91.871094 19.375 92.128906 20.125 C 91.871094 20.023438 91.609375 19.921875 91.335938 19.824219 C 91.539062 19.992188 91.753906 20.140625 91.976562 20.269531 C 91.4375 20.53125 90.914062 20.828125 90.410156 21.15625 C 91.046875 20.996094 91.667969 20.78125 92.265625 20.519531 C 92.269531 20.523438 92.269531 20.527344 92.269531 20.53125 C 92.128906 20.832031 92 21.136719 91.890625 21.453125 C 92.0625 21.230469 92.21875 20.996094 92.363281 20.753906 C 92.550781 21.214844 92.761719 21.664062 93.015625 22.097656 C 92.910156 21.585938 92.78125 21.078125 92.632812 20.578125 C 93.019531 20.722656 93.421875 20.820312 93.839844 20.859375 C 93.4375 20.671875 93.050781 20.503906 92.664062 20.339844 Z M 92.664062 20.339844 " fill-opacity="1" fill-rule="nonzero"/></g><path stroke-linecap="butt" transform="matrix(1, 0, 0, 1, 0.0000005, 0.093231)" fill-opacity="1" fill="#000000" fill-rule="nonzero" stroke-linejoin="miter" d="M 87.089841 32.328643 L 64.648435 68.160673 L 64.562498 68.105986 L 87.003903 32.277862 Z M 87.089841 32.328643 " stroke="#000000" stroke-width="0.2" stroke-opacity="1" stroke-miterlimit="4"/><path stroke-linecap="butt" transform="matrix(1, 0, 0, 1, 0.0000005, 0.093231)" fill-opacity="1" fill="#000000" fill-rule="nonzero" stroke-linejoin="miter" d="M 91.445309 22.688018 L 89.488278 27.152862 L 89.394528 27.109893 L 91.351559 22.648956 Z M 91.445309 22.688018 " stroke="#000000" stroke-width="0.2" stroke-opacity="1" stroke-miterlimit="4"/><path stroke-linecap="butt" transform="matrix(1, 0, 0, 1, 0.0000005, 0.093231)" fill-opacity="1" fill="#000000" fill-rule="nonzero" stroke-linejoin="miter" d="M 85.152341 31.328643 L 48.312498 38.461455 L 48.292967 38.359893 L 85.13281 31.227081 Z M 85.152341 31.328643 " stroke="#000000" stroke-width="0.2" stroke-opacity="1" stroke-miterlimit="4"/><path stroke-linecap="butt" transform="matrix(1, 0, 0, 1, 0.0000005, 0.093231)" fill-opacity="1" fill="#000000" fill-rule="nonzero" stroke-linejoin="miter" d="M 32.148436 35.996612 L 43.64453 37.918487 L 43.628905 38.020049 L 32.128905 36.098174 Z M 32.148436 35.996612 " stroke="#000000" stroke-width="0.2" stroke-opacity="1" stroke-miterlimit="4"/><path stroke-linecap="butt" transform="matrix(1, 0, 0, 1, 0.0000005, 0.093231)" fill-opacity="1" fill="#000000" fill-rule="nonzero" stroke-linejoin="miter" d="M 19.289061 35.973174 L 27.101561 35.973174 L 27.101561 36.074737 L 19.289061 36.074737 Z M 19.289061 35.973174 " stroke="#000000" stroke-width="0.2" stroke-opacity="1" stroke-miterlimit="4"/><path stroke-linecap="butt" transform="matrix(1, 0, 0, 1, 0.0000005, 0.093231)" fill-opacity="1" fill="#000000" fill-rule="nonzero" stroke-linejoin="miter" d="M 13.902343 35.707549 L 9.277343 35.19583 L 9.289062 35.094268 L 13.914062 35.605987 Z M 13.902343 35.707549 " stroke="#000000" stroke-width="0.2" stroke-opacity="1" stroke-miterlimit="4"/><path stroke-linecap="butt" transform="matrix(1, 0, 0, 1, 0.0000005, 0.093231)" fill-opacity="1" fill="#000000" fill-rule="nonzero" stroke-linejoin="miter" d="M 8.269531 37.105987 L 25.781249 57.230986 L 25.70703 57.297392 L 8.191406 37.172393 Z M 8.269531 37.105987 " stroke="#000000" stroke-width="0.2" stroke-opacity="1" stroke-miterlimit="4"/><path stroke-linecap="butt" transform="matrix(1, 0, 0, 1, 0.0000005, 0.093231)" fill-opacity="1" fill="#000000" fill-rule="nonzero" stroke-linejoin="miter" d="M 28.242186 59.285674 L 57.03906 75.555204 L 56.988279 75.645048 L 28.191405 59.375517 Z M 28.242186 59.285674 " stroke="#000000" stroke-width="0.2" stroke-opacity="1" stroke-miterlimit="4"/><path stroke-linecap="butt" transform="matrix(1, 0, 0, 1, 0.0000005, 0.093231)" fill-opacity="1" fill="#000000" fill-rule="nonzero" stroke-linejoin="miter" d="M 62.718748 70.824736 L 60.023435 75.598173 L 59.933592 75.547392 L 62.628904 70.773954 Z M 62.718748 70.824736 " stroke="#000000" stroke-width="0.2" stroke-opacity="1" stroke-miterlimit="4"/></svg>