<svg xmlns="http://www.w3.org/2000/svg" xmlns:xlink="http://www.w3.org/1999/xlink" width="128" zoomAndPan="magnify" viewBox="0 0 96 95.999999" height="128" preserveAspectRatio="xMidYMid meet" version="1.0"><defs><clipPath id="c0cb51af1b"><path d="M 10 75 L 80 75 L 80 93.71875 L 10 93.71875 Z M 10 75 " clip-rule="nonzero"/></clipPath><clipPath id="a03ddaae07"><path d="M 32 2.21875 L 76 2.21875 L 76 15 L 32 15 Z M 32 2.21875 " clip-rule="nonzero"/></clipPath></defs><path fill="#a66a2c" d="M 72.296875 29.113281 C 72.90625 28.035156 73.28125 26.839844 73.417969 25.613281 C 73.4375 25.453125 73.453125 25.296875 73.460938 25.136719 C 73.515625 24.1875 73.417969 23.230469 73.175781 22.316406 C 72.882812 21.199219 72.378906 20.15625 71.707031 19.222656 C 70.710938 17.863281 69.347656 16.789062 67.785156 16.152344 C 66.691406 15.707031 65.515625 15.472656 64.332031 15.46875 C 63.730469 15.464844 63.125 15.527344 62.53125 15.644531 C 62.285156 15.691406 62.039062 15.753906 61.792969 15.820312 C 61.5 15.898438 61.265625 16.207031 61.332031 16.558594 C 61.347656 16.65625 61.394531 16.75 61.457031 16.828125 C 61.527344 16.976562 61.652344 17.101562 61.816406 17.152344 C 61.882812 17.175781 61.949219 17.199219 62.015625 17.222656 C 62.019531 17.222656 62.027344 17.226562 62.03125 17.226562 C 62.214844 17.300781 62.398438 17.367188 62.578125 17.441406 C 62.953125 17.605469 63.316406 17.796875 63.667969 18.007812 C 63.679688 18.015625 63.6875 18.019531 63.699219 18.027344 C 64.011719 18.222656 64.332031 18.449219 64.632812 18.691406 C 64.925781 18.929688 65.203125 19.1875 65.464844 19.460938 C 65.714844 19.722656 65.949219 20.003906 66.164062 20.296875 C 66.167969 20.296875 66.175781 20.308594 66.183594 20.320312 C 66.183594 20.320312 66.183594 20.324219 66.1875 20.324219 C 66.1875 20.324219 66.183594 20.320312 66.183594 20.320312 C 66.183594 20.320312 66.183594 20.316406 66.179688 20.316406 C 66.183594 20.320312 66.183594 20.320312 66.1875 20.324219 C 66.371094 20.582031 66.539062 20.851562 66.695312 21.128906 L 66.699219 21.128906 C 66.707031 21.144531 66.714844 21.160156 66.722656 21.175781 C 66.839844 21.394531 66.964844 21.65625 67.074219 21.921875 C 67.179688 22.195312 67.273438 22.46875 67.347656 22.753906 C 67.40625 22.996094 67.453125 23.246094 67.484375 23.496094 L 67.484375 23.507812 C 67.488281 23.523438 67.488281 23.535156 67.492188 23.546875 C 67.507812 23.738281 67.523438 23.960938 67.523438 24.183594 C 67.515625 24.410156 67.5 24.632812 67.46875 24.855469 C 67.4375 25.054688 67.394531 25.253906 67.339844 25.449219 C 67.28125 25.640625 67.210938 25.828125 67.132812 26.011719 C 67.058594 26.171875 66.976562 26.328125 66.886719 26.480469 C 66.785156 26.640625 66.675781 26.792969 66.558594 26.941406 C 66.449219 27.070312 66.332031 27.195312 66.210938 27.316406 C 66.078125 27.4375 65.941406 27.554688 65.796875 27.660156 C 65.632812 27.78125 65.460938 27.890625 65.285156 27.988281 C 65.101562 28.085938 64.917969 28.171875 64.726562 28.25 C 64.710938 28.257812 64.691406 28.265625 64.671875 28.269531 C 64.480469 28.34375 64.28125 28.40625 64.082031 28.457031 C 63.832031 28.519531 63.574219 28.566406 63.320312 28.597656 C 63.046875 28.625 62.777344 28.636719 62.503906 28.636719 C 62.175781 28.632812 61.851562 28.601562 61.527344 28.558594 C 61.1875 28.503906 60.851562 28.429688 60.523438 28.335938 C 60.148438 28.226562 59.78125 28.089844 59.425781 27.933594 C 59.136719 27.808594 58.777344 27.621094 58.433594 27.414062 C 58.09375 27.203125 57.769531 26.972656 57.453125 26.722656 C 57.449219 26.71875 57.445312 26.71875 57.441406 26.714844 C 57.214844 26.527344 56.996094 26.328125 56.789062 26.121094 C 56.789062 26.121094 56.785156 26.121094 56.785156 26.121094 C 56.679688 25.988281 56.476562 25.851562 56.410156 25.828125 C 56.324219 25.785156 56.21875 25.78125 56.117188 25.804688 C 56.101562 25.804688 56.085938 25.808594 56.070312 25.8125 C 56.066406 25.8125 56.0625 25.8125 56.0625 25.816406 C 55.859375 25.863281 55.671875 26.003906 55.527344 26.140625 C 55.355469 26.335938 55.359375 26.597656 55.425781 26.84375 C 55.4375 26.917969 55.457031 26.992188 55.480469 27.066406 C 55.730469 27.96875 56.121094 28.839844 56.636719 29.625 C 57.972656 31.664062 60.101562 33.117188 62.492188 33.597656 C 64.980469 34.097656 67.609375 33.535156 69.667969 32.050781 C 70.746094 31.277344 71.644531 30.269531 72.296875 29.113281 Z M 68.089844 31.527344 C 67.785156 31.691406 67.472656 31.835938 67.148438 31.964844 C 66.851562 32.074219 66.546875 32.171875 66.238281 32.253906 C 65.90625 32.332031 65.570312 32.394531 65.230469 32.4375 C 64.882812 32.476562 64.539062 32.492188 64.1875 32.492188 C 63.839844 32.484375 63.492188 32.453125 63.144531 32.40625 C 62.796875 32.351562 62.453125 32.273438 62.113281 32.179688 C 61.78125 32.078125 61.453125 31.960938 61.136719 31.824219 C 60.8125 31.679688 60.5 31.511719 60.191406 31.332031 L 60.191406 31.328125 L 60.144531 31.300781 C 59.902344 31.144531 59.621094 30.949219 59.351562 30.734375 C 59.09375 30.523438 58.847656 30.292969 58.609375 30.050781 C 58.371094 29.796875 58.148438 29.527344 57.941406 29.246094 C 57.753906 28.988281 57.585938 28.71875 57.425781 28.441406 C 57.390625 28.371094 57.355469 28.296875 57.320312 28.226562 C 57.421875 28.296875 57.527344 28.367188 57.636719 28.433594 C 58.804688 29.167969 60.117188 29.667969 61.484375 29.851562 C 62.738281 30.019531 64.023438 29.90625 65.203125 29.445312 C 65.738281 29.238281 66.289062 28.929688 66.78125 28.527344 C 67.257812 28.140625 67.660156 27.671875 67.984375 27.148438 C 68.472656 26.335938 68.746094 25.417969 68.800781 24.476562 C 68.8125 24.25 68.816406 24.019531 68.800781 23.789062 C 68.714844 22.234375 68.101562 20.765625 67.1875 19.515625 C 66.636719 18.753906 65.914062 18.027344 65.089844 17.417969 C 64.769531 17.179688 64.433594 16.964844 64.082031 16.765625 C 64.222656 16.761719 64.359375 16.757812 64.496094 16.757812 C 64.824219 16.769531 65.148438 16.796875 65.472656 16.84375 C 65.828125 16.898438 66.179688 16.976562 66.527344 17.074219 C 66.855469 17.175781 67.179688 17.292969 67.496094 17.429688 C 67.816406 17.574219 68.128906 17.738281 68.429688 17.921875 C 68.722656 18.101562 69 18.300781 69.269531 18.511719 C 69.539062 18.734375 69.792969 18.972656 70.039062 19.226562 C 70.261719 19.46875 70.472656 19.722656 70.671875 19.988281 L 70.6875 20.007812 C 70.875 20.269531 71.046875 20.546875 71.207031 20.828125 C 71.375 21.136719 71.523438 21.457031 71.652344 21.785156 C 71.769531 22.097656 71.871094 22.414062 71.953125 22.738281 C 72.027344 23.054688 72.085938 23.375 72.128906 23.699219 C 72.167969 24.046875 72.183594 24.398438 72.183594 24.75 C 72.175781 25.105469 72.144531 25.460938 72.09375 25.8125 C 72.039062 26.15625 71.964844 26.492188 71.867188 26.828125 C 71.765625 27.167969 71.644531 27.5 71.5 27.828125 C 71.363281 28.132812 71.207031 28.429688 71.035156 28.71875 L 71.027344 28.726562 C 71.023438 28.738281 71.015625 28.75 71.007812 28.761719 C 70.835938 29.039062 70.628906 29.328125 70.402344 29.605469 C 70.183594 29.871094 69.949219 30.121094 69.703125 30.359375 C 69.472656 30.570312 69.226562 30.777344 68.96875 30.96875 C 68.691406 31.167969 68.394531 31.355469 68.089844 31.527344 Z M 68.089844 31.527344 " fill-opacity="1" fill-rule="nonzero"/><path fill="#5a3a1a" d="M 6.164062 33.71875 C 6.144531 34.40625 6.714844 35.039062 7.417969 35.039062 C 8.125 35.039062 8.722656 34.5 8.742188 33.785156 C 8.761719 33.09375 8.1875 32.460938 7.484375 32.460938 C 6.78125 32.460938 6.179688 33 6.164062 33.71875 Z M 6.164062 33.71875 " fill-opacity="1" fill-rule="nonzero"/><path fill="#c98a3a" d="M 38.597656 51.375 C 38.582031 52.066406 39.152344 52.699219 39.855469 52.699219 C 40.558594 52.699219 41.160156 52.15625 41.179688 51.441406 C 41.195312 50.753906 40.625 50.121094 39.921875 50.121094 C 39.21875 50.121094 38.617188 50.660156 38.597656 51.375 Z M 38.597656 51.375 " fill-opacity="1" fill-rule="nonzero"/><path fill="#c98a3a" d="M 43.210938 11.953125 C 43.191406 12.640625 43.761719 13.273438 44.46875 13.273438 C 45.171875 13.273438 45.769531 12.734375 45.789062 12.019531 C 45.808594 11.328125 45.234375 10.695312 44.53125 10.695312 C 43.828125 10.695312 43.226562 11.238281 43.210938 11.953125 Z M 43.210938 11.953125 " fill-opacity="1" fill-rule="nonzero"/><path fill="#5a3a1a" d="M 43.308594 74.996094 C 41.410156 75.566406 39.605469 76.398438 37.742188 77.070312 C 37.433594 77.171875 37.09375 77.253906 36.976562 77.609375 C 36.886719 77.886719 36.996094 78.210938 37.246094 78.367188 C 37.222656 78.347656 37.199219 78.332031 37.175781 78.3125 C 37.175781 78.3125 37.175781 78.308594 37.175781 78.308594 C 37.382812 78.515625 37.761719 78.527344 37.996094 78.339844 C 39.101562 77.984375 40.15625 77.488281 41.242188 77.082031 C 43.972656 76.085938 46.835938 75.042969 49.792969 75.371094 C 51.742188 75.632812 53.566406 76.421875 55.429688 77.011719 C 58.054688 77.882812 60.757812 78.527344 63.503906 78.886719 C 66.242188 79.214844 69.027344 79.113281 71.738281 78.628906 C 73.082031 78.394531 74.414062 78.082031 75.730469 77.726562 C 76.066406 77.632812 76.242188 77.226562 76.132812 76.90625 C 76.027344 76.570312 75.644531 76.394531 75.316406 76.503906 C 69.828125 78.101562 64.335938 78.203125 58.8125 76.667969 C 52.726562 75.042969 49.875 72.679688 43.308594 74.996094 Z M 43.308594 74.996094 " fill-opacity="1" fill-rule="nonzero"/><path fill="#5a3a1a" d="M 51.046875 70.21875 C 53.691406 69.511719 56.320312 70.75 58.308594 72.441406 C 58.585938 72.660156 58.980469 72.660156 59.222656 72.382812 C 59.445312 72.132812 59.441406 71.691406 59.164062 71.476562 C 58.234375 70.746094 57.273438 70.035156 56.199219 69.535156 C 54.375 68.699219 51.292969 68.210938 49.632812 69.558594 C 49.425781 69.851562 49.484375 70.273438 49.792969 70.476562 C 50.257812 70.796875 50.601562 70.324219 51.046875 70.21875 Z M 51.046875 70.21875 " fill-opacity="1" fill-rule="nonzero"/><path fill="#5a3a1a" d="M 94.488281 62.738281 C 92.808594 63.605469 91.289062 64.769531 89.992188 66.140625 C 89.949219 66.191406 89.910156 66.238281 89.867188 66.289062 C 86.773438 67.121094 83.46875 67.101562 80.296875 66.554688 C 78.527344 66.222656 76.847656 65.667969 75.214844 64.984375 C 76.371094 64.851562 77.527344 64.675781 78.679688 64.464844 C 84.527344 63.554688 90.527344 60.40625 92.886719 54.695312 C 93.089844 54.132812 93.484375 53.605469 93.527344 53.003906 C 93.492188 52.613281 93.09375 52.371094 92.730469 52.453125 C 92.195312 52.726562 91.703125 53.117188 91.132812 53.339844 C 90 53.878906 88.820312 54.292969 87.632812 54.695312 C 84.910156 55.566406 82.066406 55.957031 79.207031 56.128906 C 78.972656 56.140625 78.742188 56.152344 78.507812 56.160156 C 80.628906 54.398438 82.476562 52.308594 83.90625 49.957031 C 88.453125 42.71875 85.636719 34.507812 81.234375 27.960938 C 80.976562 27.457031 80.535156 26.902344 79.949219 27.34375 C 79.675781 27.5625 79.699219 27.921875 79.800781 28.222656 C 79.945312 28.828125 80.0625 29.441406 80.171875 30.058594 C 80.664062 32.796875 81.003906 35.609375 80.609375 38.386719 C 80.210938 40.941406 79.175781 43.484375 77.523438 45.484375 C 77.550781 43.75 77.179688 42.003906 76.59375 40.371094 C 75.847656 38.195312 74.882812 36.09375 73.679688 34.128906 C 73.417969 33.675781 73.042969 32.984375 72.417969 33.300781 C 72.132812 33.445312 72.03125 33.789062 72.097656 34.082031 C 72.167969 34.652344 72.207031 35.226562 72.238281 35.800781 C 73.210938 45.683594 67.828125 51.894531 59.242188 55.945312 C 58.625 56.238281 57.976562 56.53125 57.289062 56.78125 C 54.152344 56.199219 50.652344 56.277344 47.246094 56.363281 C 41.367188 56.507812 35.769531 56.648438 32.789062 53.390625 C 30.015625 50.324219 29.773438 45.5625 31.484375 41.902344 C 31.890625 41.085938 32.328125 40.34375 32.816406 39.59375 C 32.960938 39.636719 33.105469 39.679688 33.25 39.71875 C 35.269531 40.300781 37.382812 40.570312 39.199219 41.734375 C 40.695312 42.71875 41.722656 44.378906 43.347656 45.25 C 45.191406 46.304688 47.558594 46.597656 49.453125 45.507812 C 51.59375 44.382812 55.09375 40.964844 55.171875 38.441406 C 55.09375 35.984375 52.597656 34.847656 51.140625 33.199219 C 49.78125 31.675781 49.285156 29.628906 48.382812 27.839844 C 47.679688 26.429688 46.824219 25.082031 45.75 23.933594 C 46.65625 23.570312 47.554688 23.179688 48.410156 22.703125 C 50.585938 21.5625 52.101562 19.597656 53.410156 17.574219 C 53.71875 16.976562 53.144531 16.449219 52.546875 16.625 C 51.757812 16.746094 50.964844 16.789062 50.167969 16.847656 C 49.328125 16.875 48.484375 16.847656 47.652344 16.824219 C 44.53125 16.726562 41.535156 16.628906 39.214844 19.433594 C 39.089844 19.597656 38.875 19.890625 38.65625 20.230469 C 38.582031 20.214844 38.503906 20.199219 38.429688 20.1875 C 38.191406 19.570312 37.835938 18.988281 37.488281 18.4375 C 36.191406 16.417969 34.648438 14.554688 32.808594 13.003906 C 29.789062 10.195312 26.089844 8.164062 22.046875 7.289062 C 16.5625 5.824219 10.882812 7.292969 5.832031 9.542969 C 5.101562 9.964844 5.523438 10.828125 6.261719 10.855469 C 7.660156 11.105469 9.058594 11.386719 10.421875 11.785156 C 13.769531 12.792969 16.925781 14.332031 19.917969 16.121094 C 22.417969 17.535156 24.78125 19.34375 26.589844 21.609375 C 26.589844 21.609375 26.585938 21.613281 26.582031 21.613281 C 25.453125 20.925781 24.023438 20.375 23.402344 20.230469 C 20.199219 19.117188 16.984375 20.324219 14.371094 22.246094 C 13.777344 22.675781 12.285156 23.441406 13.320312 24.210938 C 14.050781 24.484375 14.851562 24.566406 15.601562 24.792969 C 16.984375 25.152344 18.324219 25.640625 19.65625 26.160156 C 16.527344 28.789062 13.746094 31.972656 12.199219 35.015625 C 9.539062 40.550781 8.058594 46.984375 9.75 53.039062 C 10.507812 56 11.976562 58.609375 14.046875 60.90625 C 17.332031 64.609375 21.324219 67.941406 25.988281 69.699219 C 26.828125 69.800781 26.992188 68.539062 26.152344 68.421875 C 24.625 67.835938 23.179688 66.890625 21.757812 66.050781 C 18.59375 63.945312 15.710938 61.144531 13.445312 58.070312 C 11.542969 55.324219 10.566406 52.0625 10.332031 48.738281 C 10.167969 43.976562 11.480469 39.089844 13.738281 34.878906 C 16.40625 30.347656 20.46875 26.832031 24.863281 23.96875 C 28.769531 21.578125 33.527344 20.539062 38.054688 21.460938 C 40.65625 21.953125 43.246094 22.964844 45.003906 25.019531 C 47.039062 27.214844 47.828125 30.144531 49.207031 32.726562 C 49.867188 33.890625 50.871094 34.789062 51.878906 35.644531 C 52.929688 36.46875 53.519531 37.148438 53.746094 37.8125 C 53.25 37.878906 52.75 37.957031 52.230469 37.917969 C 51.621094 37.839844 51.003906 37.664062 50.492188 37.261719 C 49.804688 36.765625 49.058594 37.769531 49.71875 38.296875 C 50.433594 38.835938 51.328125 39.140625 52.214844 39.207031 C 52.75 39.222656 53.21875 39.195312 53.742188 39.117188 C 53.511719 39.835938 52.941406 40.617188 52.132812 41.605469 C 51.246094 42.632812 50.242188 43.59375 49.128906 44.210938 C 49.105469 44.214844 49.085938 44.21875 49.0625 44.21875 C 47.375 44.007812 45.851562 42.910156 44.917969 41.507812 C 44.226562 40.515625 43.847656 39.277344 44.105469 38.058594 C 44.34375 37.199219 42.976562 36.878906 42.847656 37.808594 C 42.847656 37.808594 42.847656 37.804688 42.847656 37.800781 C 42.253906 40.753906 44.285156 43.625 46.914062 44.898438 C 46.140625 44.945312 45.324219 44.796875 44.464844 44.378906 C 42.273438 43.355469 41.09375 40.972656 38.824219 40.054688 C 36.277344 38.828125 33.261719 38.847656 30.867188 37.269531 C 29.191406 36.242188 28.0625 34.328125 28.164062 32.332031 C 28.1875 31.972656 28.21875 31.617188 28.28125 31.261719 C 28.359375 31.101562 28.375 30.910156 28.292969 30.742188 C 28.171875 30.445312 27.832031 30.273438 27.523438 30.363281 C 27.132812 30.472656 27.046875 30.832031 26.988281 31.175781 C 26.285156 34.824219 28.46875 37.726562 31.582031 39.132812 C 30.703125 40.5 29.925781 41.933594 29.53125 43.519531 C 27.910156 49.773438 30.988281 56.257812 37.746094 57.285156 C 40.863281 57.828125 44.019531 57.730469 47.179688 57.632812 C 50.347656 57.535156 53.515625 57.4375 56.640625 57.992188 C 61.203125 58.84375 65.21875 61.21875 69.21875 63.464844 C 73.570312 65.855469 78.296875 68.050781 83.371094 68.195312 C 83.769531 68.210938 84.164062 68.21875 84.558594 68.21875 C 85.859375 68.21875 87.15625 68.125 88.441406 67.914062 C 86.785156 69.753906 85.007812 71.464844 82.636719 72.398438 C 76.671875 74.828125 70.378906 71.988281 65.09375 69.109375 C 63.261719 68.03125 61.5 66.824219 59.566406 65.929688 C 55.738281 64.027344 51.207031 63.320312 47.074219 64.597656 C 44.394531 65.375 41.957031 66.777344 39.386719 67.828125 C 36.140625 69.105469 32.574219 70.136719 29.066406 69.476562 C 28.75 69.386719 28.386719 69.578125 28.285156 69.898438 C 28.179688 70.214844 28.359375 70.625 28.699219 70.710938 C 30.324219 71.097656 32.035156 70.984375 33.683594 70.796875 C 36.441406 70.386719 39.089844 69.414062 41.621094 68.257812 C 44.15625 67.097656 46.6875 65.792969 49.476562 65.375 C 54.703125 64.570312 59.589844 67.085938 63.832031 69.859375 C 65.65625 70.941406 67.5625 71.875 69.523438 72.679688 C 72.121094 73.792969 74.863281 74.664062 77.71875 74.601562 C 81.886719 74.699219 85.914062 72.703125 88.664062 69.59375 C 89.582031 68.605469 90.410156 67.539062 91.363281 66.582031 C 92.648438 65.304688 94.183594 64.300781 95.796875 63.535156 C 96.027344 63.273438 96.003906 62.855469 95.738281 62.625 C 95.363281 62.292969 94.863281 62.53125 94.488281 62.738281 Z M 43.707031 18.21875 C 45.035156 18.011719 46.371094 18.0625 47.710938 18.113281 C 48.980469 18.164062 50.253906 18.210938 51.519531 18.039062 C 50.066406 20.394531 47.660156 21.886719 45.097656 22.796875 C 44.964844 22.847656 44.835938 22.898438 44.707031 22.949219 C 43.316406 21.851562 41.699219 21.066406 39.972656 20.558594 C 40.851562 19.347656 42.234375 18.496094 43.707031 18.21875 Z M 20.808594 25.230469 C 18.929688 24.488281 17.042969 23.773438 15.066406 23.328125 C 16.644531 22.257812 18.359375 21.222656 20.308594 21.105469 C 21.988281 21.0625 23.699219 21.507812 25.191406 22.320312 C 23.734375 23.121094 22.246094 24.109375 20.808594 25.230469 Z M 27.847656 21.082031 C 27.835938 21.066406 27.824219 21.050781 27.808594 21.035156 C 26.730469 19.722656 25.53125 18.496094 24.210938 17.425781 C 19.472656 13.976562 14.074219 11.179688 8.3125 9.929688 C 13.929688 7.582031 19.402344 7.347656 24.992188 9.527344 C 24.933594 9.597656 24.875 9.664062 24.816406 9.734375 C 24.675781 9.90625 24.554688 10.09375 24.40625 10.257812 C 24.210938 10.492188 24.191406 10.867188 24.433594 11.117188 C 24.554688 11.246094 24.734375 11.316406 24.914062 11.316406 C 25.074219 11.316406 25.230469 11.261719 25.347656 11.140625 C 25.539062 10.933594 25.699219 10.691406 25.882812 10.472656 C 25.980469 10.355469 26.078125 10.242188 26.175781 10.121094 C 26.191406 10.101562 26.210938 10.082031 26.226562 10.058594 C 27.171875 10.523438 28.097656 11.054688 28.996094 11.648438 C 28.976562 11.664062 28.960938 11.683594 28.945312 11.699219 C 28.539062 12.222656 26.9375 13.152344 27.691406 13.910156 C 28.503906 14.542969 29.070312 13.191406 29.65625 12.796875 C 29.765625 12.671875 29.925781 12.542969 30.078125 12.402344 C 31.140625 13.183594 32.152344 14.050781 33.085938 14.992188 C 32.894531 15.167969 32.710938 15.355469 32.511719 15.507812 C 32.042969 16.046875 30.621094 16.597656 31.210938 17.457031 C 31.847656 18.128906 32.46875 17.148438 32.980469 16.796875 C 33.324219 16.523438 33.648438 16.226562 33.980469 15.941406 C 35.089844 17.179688 36.0625 18.527344 36.851562 19.949219 C 33.789062 19.632812 30.601562 20.058594 27.847656 21.082031 Z M 81.667969 31.140625 C 86.496094 39.519531 86.230469 47.027344 79.078125 53.929688 C 78.367188 54.605469 77.625 55.246094 76.851562 55.847656 C 76.675781 55.980469 76.492188 56.105469 76.316406 56.234375 C 74.632812 56.277344 72.941406 56.324219 71.257812 56.507812 C 73.847656 54.191406 76.082031 51.339844 77.042969 48.480469 C 77.132812 48.199219 77.207031 47.917969 77.273438 47.636719 C 81.792969 43.5 82.753906 36.945312 81.667969 31.140625 Z M 59.398438 57.296875 C 60.632812 56.738281 61.828125 56.089844 62.996094 55.414062 C 70.042969 51.214844 74.242188 44.9375 73.5625 36.539062 C 75.5625 40.496094 77.460938 45.378906 75.183594 49.625 C 73.335938 53.039062 70.21875 56.0625 66.917969 58.191406 C 66.769531 58.226562 66.632812 58.3125 66.539062 58.433594 C 66.367188 58.539062 66.195312 58.644531 66.023438 58.746094 C 65.546875 59.011719 65.054688 59.246094 64.554688 59.464844 C 63.328125 58.851562 62.082031 58.289062 60.800781 57.816406 C 60.347656 57.617188 59.878906 57.449219 59.398438 57.296875 Z M 66 60.210938 C 66.394531 60 66.792969 59.777344 67.195312 59.53125 C 67.324219 59.570312 67.457031 59.601562 67.574219 59.644531 C 69.410156 60.253906 71.316406 60.644531 73.242188 60.828125 C 75.941406 61.140625 78.683594 61.125 81.371094 60.691406 C 82.292969 60.535156 83.285156 60.410156 84.167969 60.039062 C 84.488281 59.894531 84.59375 59.464844 84.433594 59.167969 C 84.207031 58.722656 83.710938 58.804688 83.320312 58.984375 C 82.714844 59.160156 82.09375 59.273438 81.472656 59.371094 C 78.863281 59.820312 76.183594 59.847656 73.519531 59.5625 C 71.90625 59.429688 70.21875 59.078125 68.601562 58.613281 C 68.835938 58.449219 69.070312 58.28125 69.304688 58.105469 C 69.445312 58.078125 69.582031 58.046875 69.722656 58.019531 C 73.132812 57.425781 76.632812 57.617188 80.09375 57.359375 C 84.019531 57.089844 87.910156 56.25 91.515625 54.582031 C 88.300781 61.625 79.921875 63.460938 72.847656 63.898438 C 70.535156 62.75 68.289062 61.421875 66 60.210938 Z M 66 60.210938 " fill-opacity="1" fill-rule="nonzero"/><path fill="#c98a3a" d="M 42.847656 37.796875 C 42.847656 37.800781 42.847656 37.800781 42.847656 37.800781 C 42.851562 37.777344 42.855469 37.75 42.859375 37.726562 C 42.855469 37.75 42.851562 37.773438 42.847656 37.796875 Z M 42.847656 37.796875 " fill-opacity="1" fill-rule="nonzero"/><path fill="#5a3a1a" d="M 41.390625 28.71875 C 41.390625 27.875 40.679688 27.175781 39.839844 27.175781 C 38.996094 27.175781 38.289062 27.882812 38.292969 28.726562 C 38.292969 29.570312 39.003906 30.269531 39.84375 30.269531 C 40.6875 30.269531 41.390625 29.5625 41.390625 28.71875 Z M 41.390625 28.71875 " fill-opacity="1" fill-rule="nonzero"/><path fill="#5a3a1a" d="M 15.875 49.9375 C 16.648438 54.042969 19.144531 58.105469 23.09375 59.789062 C 23.875 60.128906 24.390625 58.96875 23.628906 58.617188 C 22.652344 58.246094 21.804688 57.605469 21.019531 56.929688 C 19.695312 55.773438 18.75 54.25 18.035156 52.636719 C 17.574219 51.628906 17.324219 50.554688 17.070312 49.488281 C 16.691406 48.773438 15.601562 49.300781 15.90625 50.039062 C 15.898438 50.019531 15.894531 50.015625 15.894531 50.011719 C 15.886719 49.988281 15.882812 49.960938 15.875 49.9375 Z M 15.875 49.9375 " fill-opacity="1" fill-rule="nonzero"/><path fill="#5a3a1a" d="M 79.683594 71.109375 C 80.730469 71.164062 81.78125 71.03125 82.8125 70.851562 C 83.351562 70.851562 83.890625 70.4375 83.625 69.863281 C 83.230469 69.160156 82.238281 69.75 81.601562 69.734375 C 80.285156 69.921875 78.90625 69.84375 77.632812 69.433594 C 77.296875 69.328125 76.925781 69.503906 76.8125 69.839844 C 76.640625 70.347656 77.105469 70.699219 77.566406 70.757812 C 78.253906 70.945312 78.960938 71.066406 79.683594 71.109375 Z M 79.683594 71.109375 " fill-opacity="1" fill-rule="nonzero"/><path fill="#5a3a1a" d="M 76.101562 52.539062 C 75.84375 52.6875 75.714844 53.007812 75.808594 53.300781 C 76.378906 54.457031 77.464844 53.011719 78.039062 52.566406 C 79.628906 51.105469 80.894531 49.339844 81.941406 47.457031 C 82.605469 46.296875 83.226562 45.101562 83.835938 43.910156 C 83.996094 43.597656 83.871094 43.203125 83.558594 43.042969 C 83.246094 42.882812 82.847656 43.007812 82.6875 43.320312 C 80.941406 46.730469 79.152344 50.261719 76.003906 52.605469 C 76.039062 52.582031 76.066406 52.554688 76.101562 52.539062 Z M 76.101562 52.539062 " fill-opacity="1" fill-rule="nonzero"/><path fill="#c98a3a" d="M 4.796875 67.40625 C 4.890625 67.40625 4.988281 67.386719 5.078125 67.347656 C 5.414062 67.191406 5.558594 66.796875 5.40625 66.460938 C 2.738281 60.644531 1.382812 54.421875 1.382812 47.96875 C 1.382812 38.160156 4.519531 28.863281 10.453125 21.078125 C 10.675781 20.785156 10.617188 20.367188 10.324219 20.144531 C 10.03125 19.917969 9.613281 19.976562 9.386719 20.269531 C 3.277344 28.285156 0.046875 37.867188 0.046875 47.96875 C 0.046875 54.617188 1.441406 61.023438 4.191406 67.019531 C 4.304688 67.261719 4.546875 67.40625 4.796875 67.40625 Z M 4.796875 67.40625 " fill-opacity="1" fill-rule="nonzero"/><g clip-path="url(#c0cb51af1b)"><path fill="#c98a3a" d="M 78.679688 77.882812 C 70.269531 87.097656 58.296875 92.382812 45.824219 92.382812 C 32.464844 92.382812 19.933594 86.457031 11.449219 76.121094 C 11.214844 75.835938 10.792969 75.796875 10.507812 76.03125 C 10.222656 76.261719 10.183594 76.683594 10.417969 76.96875 C 19.15625 87.613281 32.0625 93.71875 45.824219 93.71875 C 58.671875 93.71875 71.003906 88.277344 79.664062 78.78125 C 79.914062 78.511719 79.894531 78.085938 79.621094 77.839844 C 79.347656 77.589844 78.925781 77.609375 78.675781 77.882812 Z M 78.679688 77.882812 " fill-opacity="1" fill-rule="nonzero"/></g><path fill="#c98a3a" d="M 90.269531 47.96875 C 90.269531 48.339844 90.566406 48.636719 90.9375 48.636719 C 91.304688 48.636719 91.605469 48.339844 91.605469 47.96875 C 91.605469 37.972656 88.4375 28.480469 82.445312 20.511719 C 82.222656 20.214844 81.804688 20.15625 81.507812 20.378906 C 81.214844 20.597656 81.15625 21.019531 81.375 21.3125 C 87.195312 29.046875 90.269531 38.265625 90.269531 47.96875 Z M 90.269531 47.96875 " fill-opacity="1" fill-rule="nonzero"/><g clip-path="url(#a03ddaae07)"><path fill="#c98a3a" d="M 74.769531 14.054688 C 74.957031 14.054688 75.148438 13.976562 75.28125 13.816406 C 75.515625 13.535156 75.480469 13.113281 75.195312 12.875 C 66.984375 6.003906 56.554688 2.21875 45.824219 2.21875 C 41.304688 2.21875 36.835938 2.878906 32.550781 4.171875 C 32.195312 4.28125 31.996094 4.652344 32.105469 5.007812 C 32.210938 5.359375 32.582031 5.558594 32.9375 5.453125 C 37.097656 4.195312 41.433594 3.554688 45.824219 3.554688 C 56.242188 3.554688 66.367188 7.230469 74.339844 13.898438 C 74.464844 14.003906 74.617188 14.054688 74.769531 14.054688 Z M 74.769531 14.054688 " fill-opacity="1" fill-rule="nonzero"/></g><path fill="#5a3a1a" d="M 47.265625 87.882812 C 47.632812 87.882812 47.933594 87.585938 47.933594 87.214844 L 47.933594 86.492188 C 47.933594 85.53125 48.714844 84.746094 49.675781 84.746094 L 50.402344 84.746094 C 50.769531 84.746094 51.070312 84.449219 51.070312 84.078125 C 51.070312 83.710938 50.769531 83.410156 50.402344 83.410156 L 49.675781 83.410156 C 48.714844 83.410156 47.933594 82.628906 47.933594 81.667969 L 47.933594 80.941406 C 47.933594 80.574219 47.632812 80.277344 47.265625 80.277344 C 46.894531 80.277344 46.59375 80.574219 46.59375 80.941406 L 46.59375 81.667969 C 46.59375 82.628906 45.8125 83.410156 44.851562 83.410156 L 44.125 83.410156 C 43.757812 83.410156 43.457031 83.710938 43.457031 84.078125 C 43.457031 84.449219 43.757812 84.746094 44.125 84.746094 L 44.851562 84.746094 C 45.8125 84.746094 46.59375 85.53125 46.59375 86.492188 L 46.59375 87.214844 C 46.59375 87.585938 46.894531 87.882812 47.265625 87.882812 Z M 46.761719 84.078125 C 46.945312 83.929688 47.117188 83.761719 47.265625 83.578125 C 47.410156 83.761719 47.582031 83.929688 47.765625 84.078125 C 47.582031 84.226562 47.410156 84.394531 47.265625 84.582031 C 47.117188 84.394531 46.945312 84.226562 46.761719 84.078125 Z M 46.761719 84.078125 " fill-opacity="1" fill-rule="nonzero"/><path fill="#c98a3a" d="M 62.453125 50.054688 C 62.824219 50.054688 63.121094 49.753906 63.121094 49.386719 L 63.121094 48.871094 C 63.121094 46.519531 65.035156 44.609375 67.386719 44.609375 L 67.902344 44.609375 C 68.269531 44.609375 68.570312 44.308594 68.570312 43.941406 C 68.570312 43.570312 68.269531 43.273438 67.902344 43.273438 L 67.386719 43.273438 C 65.035156 43.273438 63.121094 41.363281 63.121094 39.011719 L 63.121094 38.496094 C 63.121094 38.128906 62.824219 37.828125 62.453125 37.828125 C 62.085938 37.828125 61.785156 38.128906 61.785156 38.496094 L 61.785156 39.011719 C 61.785156 41.363281 59.871094 43.273438 57.519531 43.273438 L 57.003906 43.273438 C 56.636719 43.273438 56.335938 43.570312 56.335938 43.941406 C 56.335938 44.308594 56.636719 44.609375 57.003906 44.609375 L 57.519531 44.609375 C 59.871094 44.609375 61.785156 46.519531 61.785156 48.871094 L 61.785156 49.386719 C 61.785156 49.753906 62.085938 50.054688 62.453125 50.054688 Z M 60.171875 43.941406 C 61.136719 43.421875 61.933594 42.625 62.453125 41.660156 C 62.972656 42.625 63.769531 43.421875 64.734375 43.941406 C 63.769531 44.460938 62.972656 45.257812 62.453125 46.222656 C 61.933594 45.257812 61.136719 44.460938 60.171875 43.941406 Z M 60.171875 43.941406 " fill-opacity="1" fill-rule="nonzero"/><path fill="#a66a2c" d="M 12.875 73.074219 C 13.242188 73.074219 13.542969 72.773438 13.542969 72.40625 C 13.542969 72.035156 13.242188 71.738281 12.875 71.738281 L 12.359375 71.738281 C 10.007812 71.738281 8.09375 69.828125 8.09375 67.476562 L 8.09375 66.960938 C 8.09375 66.59375 7.796875 66.292969 7.425781 66.292969 C 7.058594 66.292969 6.757812 66.59375 6.757812 66.960938 L 6.757812 67.476562 C 6.757812 69.828125 4.847656 71.738281 2.496094 71.738281 L 1.980469 71.738281 C 1.609375 71.738281 1.308594 72.035156 1.308594 72.40625 C 1.308594 72.773438 1.609375 73.074219 1.980469 73.074219 L 2.496094 73.074219 C 4.847656 73.074219 6.757812 74.984375 6.757812 77.335938 L 6.757812 77.851562 C 6.757812 78.21875 7.058594 78.519531 7.425781 78.519531 C 7.796875 78.519531 8.09375 78.21875 8.09375 77.851562 L 8.09375 77.335938 C 8.09375 74.984375 10.007812 73.074219 12.359375 73.074219 Z M 7.425781 74.6875 C 6.90625 73.722656 6.109375 72.925781 5.144531 72.40625 C 6.109375 71.886719 6.90625 71.089844 7.425781 70.125 C 7.949219 71.089844 8.742188 71.886719 9.710938 72.40625 C 8.742188 72.925781 7.949219 73.722656 7.425781 74.6875 Z M 7.425781 74.6875 " fill-opacity="1" fill-rule="nonzero"/><path fill="#c98a3a" d="M 78.339844 20.957031 C 78.710938 20.957031 79.011719 20.65625 79.011719 20.289062 L 79.011719 19.960938 C 79.011719 18.601562 80.117188 17.496094 81.476562 17.496094 L 81.808594 17.496094 C 82.175781 17.496094 82.476562 17.195312 82.476562 16.828125 C 82.476562 16.457031 82.175781 16.160156 81.808594 16.160156 L 81.476562 16.160156 C 80.117188 16.160156 79.011719 15.050781 79.011719 13.691406 L 79.011719 13.363281 C 79.011719 12.996094 78.710938 12.695312 78.339844 12.695312 C 77.972656 12.695312 77.671875 12.996094 77.671875 13.363281 L 77.671875 13.691406 C 77.671875 15.050781 76.566406 16.160156 75.203125 16.160156 L 74.875 16.160156 C 74.507812 16.160156 74.207031 16.457031 74.207031 16.828125 C 74.207031 17.195312 74.507812 17.496094 74.875 17.496094 L 75.203125 17.496094 C 76.566406 17.496094 77.671875 18.601562 77.671875 19.960938 L 77.671875 20.289062 C 77.671875 20.65625 77.972656 20.957031 78.339844 20.957031 Z M 77.355469 16.828125 C 77.742188 16.5625 78.074219 16.226562 78.339844 15.839844 C 78.605469 16.226562 78.941406 16.5625 79.328125 16.828125 C 78.941406 17.09375 78.609375 17.425781 78.339844 17.8125 C 78.074219 17.425781 77.742188 17.09375 77.355469 16.828125 Z M 77.355469 16.828125 " fill-opacity="1" fill-rule="nonzero"/></svg>