<svg xmlns="http://www.w3.org/2000/svg" xmlns:xlink="http://www.w3.org/1999/xlink" width="128" zoomAndPan="magnify" viewBox="0 0 96 95.999999" height="128" preserveAspectRatio="xMidYMid meet" version="1.0"><defs><clipPath id="2ce8224e0f"><path d="M 1.613281 30 L 11 30 L 11 40 L 1.613281 40 Z M 1.613281 30 " clip-rule="nonzero"/></clipPath><clipPath id="3c6f8eca0b"><path d="M 57 75 L 61 75 L 61 78.484375 L 57 78.484375 Z M 57 75 " clip-rule="nonzero"/></clipPath><clipPath id="5d929bb4dc"><path d="M 90 17.734375 L 94.613281 17.734375 L 94.613281 23 L 90 23 Z M 90 17.734375 " clip-rule="nonzero"/></clipPath></defs><g clip-path="url(#2ce8224e0f)"><path fill="#000000" d="M 10.785156 33.957031 C 10.71875 33.964844 10.648438 33.972656 10.582031 33.976562 C 9.320312 34.0625 8.050781 34.15625 6.800781 34.332031 C 7.0625 33.84375 7.300781 33.335938 7.496094 32.820312 C 7.171875 33.257812 6.785156 33.8125 6.40625 34.386719 C 6.386719 34.386719 6.367188 34.390625 6.34375 34.394531 C 6.109375 32.992188 5.785156 31.597656 5.324219 30.144531 C 5.414062 31.464844 5.503906 32.785156 5.644531 34.105469 C 5.308594 33.808594 4.960938 33.53125 4.597656 33.261719 C 4.921875 33.699219 5.269531 34.113281 5.640625 34.511719 C 5.453125 34.546875 5.273438 34.582031 5.085938 34.621094 C 3.917969 34.878906 2.785156 35.269531 1.652344 35.65625 C 2.535156 35.597656 3.863281 35.425781 4.328125 35.355469 C 4.796875 35.296875 5.277344 35.234375 5.773438 35.164062 C 5.78125 35.226562 5.789062 35.285156 5.796875 35.351562 C 5.375 36.050781 5.03125 36.707031 4.902344 37.15625 C 5.242188 36.738281 5.570312 36.296875 5.882812 35.84375 C 6.132812 37.210938 6.503906 38.558594 6.902344 39.886719 C 6.820312 38.308594 6.695312 36.820312 6.492188 35.355469 C 6.957031 35.777344 7.441406 36.175781 7.953125 36.535156 C 7.539062 36.003906 7.09375 35.5 6.625 35.023438 C 7.222656 34.917969 7.832031 34.792969 8.457031 34.625 C 9.238281 34.425781 10.019531 34.214844 10.785156 33.957031 Z M 10.785156 33.957031 " fill-opacity="1" fill-rule="nonzero"/></g><path fill="#000000" d="M 16.753906 36.136719 C 17.320312 36.167969 17.890625 36.183594 18.457031 36.183594 C 17.929688 36.023438 17.382812 35.917969 16.839844 35.863281 C 17.160156 35.585938 17.472656 35.289062 17.765625 34.980469 C 17.402344 35.175781 17.066406 35.402344 16.746094 35.660156 C 16.757812 35.082031 16.734375 34.503906 16.683594 33.929688 C 16.5625 34.527344 16.484375 35.128906 16.445312 35.730469 C 16.242188 35.488281 16.03125 35.253906 15.792969 35.042969 C 15.953125 35.3125 16.132812 35.578125 16.320312 35.832031 C 15.773438 35.8125 15.226562 35.84375 14.679688 35.933594 C 15.199219 36.007812 15.722656 36.058594 16.246094 36.097656 C 16.007812 36.328125 15.78125 36.570312 15.570312 36.828125 C 15.867188 36.640625 16.144531 36.429688 16.417969 36.214844 C 16.390625 36.847656 16.398438 37.484375 16.441406 38.117188 C 16.585938 37.527344 16.671875 36.925781 16.71875 36.324219 C 16.871094 36.5 17.035156 36.675781 17.207031 36.839844 C 17.074219 36.59375 16.917969 36.363281 16.753906 36.136719 Z M 16.753906 36.136719 " fill-opacity="1" fill-rule="nonzero"/><path fill="#000000" d="M 31.585938 35.890625 C 31.179688 35.871094 30.777344 35.878906 30.375 35.90625 C 30.546875 35.667969 30.707031 35.425781 30.847656 35.171875 C 30.613281 35.410156 30.386719 35.65625 30.175781 35.921875 C 30.160156 35.921875 30.144531 35.921875 30.128906 35.921875 C 30.089844 35.347656 30.011719 34.773438 29.882812 34.210938 C 29.835938 34.71875 29.820312 35.226562 29.828125 35.730469 C 29.648438 35.539062 29.464844 35.351562 29.277344 35.171875 C 29.429688 35.449219 29.613281 35.710938 29.808594 35.957031 C 29.179688 36.027344 28.554688 36.140625 27.933594 36.269531 C 28.574219 36.324219 29.207031 36.296875 29.839844 36.21875 C 29.839844 36.269531 29.84375 36.324219 29.847656 36.375 C 29.730469 36.558594 29.617188 36.75 29.523438 36.949219 C 29.636719 36.824219 29.75 36.699219 29.859375 36.570312 C 29.898438 37.101562 29.964844 37.632812 30.058594 38.148438 C 30.136719 37.550781 30.164062 36.949219 30.148438 36.34375 C 30.351562 36.554688 30.566406 36.757812 30.789062 36.945312 C 30.613281 36.671875 30.414062 36.414062 30.207031 36.167969 C 30.667969 36.089844 31.128906 36 31.585938 35.890625 Z M 31.585938 35.890625 " fill-opacity="1" fill-rule="nonzero"/><path fill="#000000" d="M 46.375 38.371094 C 46.757812 38.382812 47.140625 38.386719 47.515625 38.386719 C 47.125 38.269531 46.726562 38.203125 46.324219 38.160156 C 46.550781 37.972656 46.769531 37.773438 46.996094 37.554688 C 46.734375 37.683594 46.488281 37.84375 46.253906 38.019531 C 46.296875 37.507812 46.304688 36.996094 46.257812 36.484375 C 46.160156 36.941406 46.082031 37.402344 46.015625 37.863281 C 45.902344 37.722656 45.785156 37.589844 45.65625 37.460938 C 45.753906 37.664062 45.867188 37.859375 45.984375 38.050781 C 45.984375 38.074219 45.980469 38.101562 45.972656 38.125 C 45.480469 38.089844 44.980469 38.082031 44.488281 38.0625 C 44.933594 38.21875 45.398438 38.296875 45.867188 38.335938 C 45.667969 38.519531 45.480469 38.710938 45.316406 38.925781 C 45.53125 38.769531 45.734375 38.621094 45.933594 38.46875 C 45.875 39.011719 45.84375 39.554688 45.847656 40.097656 C 46.019531 39.542969 46.144531 38.972656 46.21875 38.394531 C 46.394531 38.640625 46.585938 38.875 46.796875 39.089844 C 46.671875 38.84375 46.53125 38.601562 46.375 38.371094 Z M 46.375 38.371094 " fill-opacity="1" fill-rule="nonzero"/><path fill="#000000" d="M 27.039062 58.796875 C 27.425781 58.765625 27.8125 58.695312 28.195312 58.613281 C 27.996094 58.566406 27.628906 58.550781 27.210938 58.554688 C 27.351562 58.425781 27.476562 58.300781 27.570312 58.1875 C 27.371094 58.292969 27.183594 58.421875 27 58.558594 C 26.972656 58.558594 26.945312 58.5625 26.917969 58.5625 C 26.914062 57.980469 26.855469 57.398438 26.722656 56.828125 C 26.6875 57.316406 26.664062 57.808594 26.65625 58.300781 C 26.554688 58.183594 26.457031 58.066406 26.355469 57.949219 C 26.433594 58.144531 26.535156 58.328125 26.652344 58.507812 C 26.652344 58.527344 26.648438 58.550781 26.648438 58.574219 C 26.171875 58.597656 25.683594 58.636719 25.328125 58.6875 C 25.640625 58.730469 25.898438 58.769531 26.210938 58.796875 C 26.359375 58.816406 26.503906 58.820312 26.648438 58.820312 C 26.648438 58.832031 26.648438 58.839844 26.648438 58.851562 C 26.484375 59 26.328125 59.152344 26.179688 59.324219 C 26.332031 59.234375 26.492188 59.125 26.652344 59.007812 C 26.660156 59.476562 26.6875 59.949219 26.75 60.417969 C 26.839844 59.90625 26.890625 59.390625 26.90625 58.875 C 27.078125 59.101562 27.261719 59.316406 27.425781 59.53125 C 27.332031 59.265625 27.195312 59.023438 27.039062 58.796875 Z M 27.039062 58.796875 " fill-opacity="1" fill-rule="nonzero"/><g clip-path="url(#3c6f8eca0b)"><path fill="#000000" d="M 60.339844 77.277344 C 59.921875 77.105469 59.496094 76.945312 59.070312 76.789062 C 59.363281 76.648438 59.644531 76.480469 59.917969 76.296875 C 59.589844 76.382812 59.273438 76.5 58.964844 76.636719 C 59.0625 76.191406 59.125 75.738281 59.148438 75.28125 C 59.03125 75.617188 58.925781 75.957031 58.824219 76.300781 C 58.757812 76.109375 58.675781 75.925781 58.585938 75.742188 C 58.628906 76.027344 58.679688 76.3125 58.742188 76.597656 C 58.738281 76.617188 58.726562 76.640625 58.722656 76.664062 C 58.21875 76.488281 57.710938 76.324219 57.195312 76.175781 C 57.605469 76.460938 58.042969 76.6875 58.503906 76.863281 C 58.285156 76.980469 58.066406 77.101562 57.859375 77.238281 C 58.128906 77.171875 58.390625 77.085938 58.644531 76.984375 C 58.546875 77.40625 58.460938 77.832031 58.410156 78.261719 C 58.597656 77.878906 58.746094 77.484375 58.859375 77.078125 C 58.945312 77.40625 59.046875 77.730469 59.171875 78.046875 C 59.152344 77.703125 59.105469 77.367188 59.035156 77.039062 C 59.457031 77.160156 59.894531 77.242188 60.339844 77.277344 Z M 60.339844 77.277344 " fill-opacity="1" fill-rule="nonzero"/></g><path fill="#000000" d="M 63.648438 69.582031 C 63.964844 69.386719 64.269531 69.179688 64.5625 68.941406 C 64.515625 68.960938 64.476562 68.980469 64.433594 68.996094 C 64.140625 69.109375 63.859375 69.238281 63.582031 69.382812 C 63.644531 69.160156 63.6875 68.929688 63.710938 68.699219 C 63.605469 68.933594 63.507812 69.171875 63.414062 69.417969 C 63.214844 68.992188 63 68.570312 62.773438 68.15625 C 62.859375 68.589844 62.988281 69.007812 63.144531 69.414062 C 62.992188 69.367188 62.839844 69.324219 62.683594 69.273438 C 62.847656 69.386719 63.019531 69.476562 63.199219 69.554688 C 63.203125 69.5625 63.203125 69.574219 63.207031 69.582031 C 62.796875 69.820312 62.40625 70.097656 62.050781 70.417969 C 62.46875 70.226562 62.882812 70.023438 63.285156 69.796875 C 63.214844 70.019531 63.15625 70.242188 63.109375 70.472656 C 63.207031 70.308594 63.296875 70.132812 63.375 69.957031 C 63.585938 70.417969 63.824219 70.871094 64.074219 71.3125 C 63.960938 70.746094 63.773438 70.210938 63.542969 69.6875 C 63.824219 69.78125 64.113281 69.855469 64.386719 69.925781 C 64.148438 69.785156 63.902344 69.675781 63.648438 69.582031 Z M 63.648438 69.582031 " fill-opacity="1" fill-rule="nonzero"/><path fill="#000000" d="M 89.046875 30.046875 C 90.207031 29.941406 91.359375 29.730469 92.484375 29.429688 C 91.386719 29.390625 90.289062 29.367188 89.1875 29.378906 C 89.484375 29.011719 89.746094 28.613281 89.957031 28.179688 C 89.601562 28.59375 89.226562 28.988281 88.847656 29.382812 C 88.824219 29.382812 88.804688 29.382812 88.78125 29.382812 C 88.765625 28.128906 88.609375 26.882812 88.484375 25.636719 C 88.308594 26.75 88.214844 27.875 88.191406 29.003906 C 87.925781 28.726562 87.648438 28.464844 87.347656 28.234375 C 87.621094 28.621094 87.890625 29.011719 88.179688 29.390625 C 88.179688 29.390625 88.179688 29.398438 88.179688 29.398438 C 86.871094 29.449219 85.566406 29.566406 84.273438 29.820312 C 85.566406 29.972656 86.863281 30.128906 88.167969 30.105469 C 87.804688 30.496094 87.453125 30.902344 87.132812 31.332031 C 87.496094 31.050781 87.851562 30.757812 88.191406 30.445312 C 88.210938 31.515625 88.28125 32.589844 88.398438 33.65625 C 88.566406 32.496094 88.726562 31.34375 88.773438 30.136719 C 89.078125 30.5 89.402344 30.84375 89.75 31.164062 C 89.898438 31.308594 89.769531 31.148438 89.726562 31.070312 C 89.511719 30.722656 89.285156 30.378906 89.046875 30.046875 Z M 89.046875 30.046875 " fill-opacity="1" fill-rule="nonzero"/><g clip-path="url(#5d929bb4dc)"><path fill="#000000" d="M 92.664062 20.246094 C 93.238281 19.976562 93.792969 19.664062 94.332031 19.320312 C 93.804688 19.449219 93.289062 19.617188 92.789062 19.820312 C 92.898438 19.554688 92.996094 19.289062 93.082031 19.011719 C 92.882812 19.308594 92.703125 19.613281 92.53125 19.921875 C 92.511719 19.929688 92.492188 19.9375 92.472656 19.949219 C 92.226562 19.183594 91.921875 18.445312 91.539062 17.734375 C 91.679688 18.511719 91.871094 19.28125 92.128906 20.03125 C 91.871094 19.929688 91.609375 19.828125 91.335938 19.730469 C 91.539062 19.898438 91.753906 20.046875 91.976562 20.175781 C 91.4375 20.4375 90.914062 20.734375 90.410156 21.0625 C 91.046875 20.902344 91.667969 20.6875 92.265625 20.425781 C 92.269531 20.429688 92.269531 20.433594 92.269531 20.4375 C 92.128906 20.738281 92 21.042969 91.890625 21.359375 C 92.0625 21.136719 92.21875 20.902344 92.363281 20.660156 C 92.550781 21.121094 92.761719 21.570312 93.015625 22.003906 C 92.910156 21.492188 92.78125 20.984375 92.632812 20.484375 C 93.019531 20.628906 93.421875 20.726562 93.839844 20.765625 C 93.4375 20.578125 93.050781 20.410156 92.664062 20.246094 Z M 92.664062 20.246094 " fill-opacity="1" fill-rule="nonzero"/></g><path fill="#000000" d="M 87.089844 32.328125 L 64.648438 68.160156 L 64.5625 68.105469 L 87.003906 32.277344 Z M 87.089844 32.328125 " fill-opacity="1" fill-rule="nonzero"/><path fill="#000000" d="M 91.445312 22.6875 L 89.488281 27.152344 L 89.394531 27.109375 L 91.351562 22.648438 Z M 91.445312 22.6875 " fill-opacity="1" fill-rule="nonzero"/><path fill="#000000" d="M 85.152344 31.328125 L 48.3125 38.460938 L 48.292969 38.359375 L 85.132812 31.226562 Z M 85.152344 31.328125 " fill-opacity="1" fill-rule="nonzero"/><path fill="#000000" d="M 32.148438 35.996094 L 43.644531 37.917969 L 43.628906 38.019531 L 32.128906 36.097656 Z M 32.148438 35.996094 " fill-opacity="1" fill-rule="nonzero"/><path fill="#000000" d="M 27.101562 36.074219 L 19.289062 36.074219 L 19.289062 35.972656 L 27.101562 35.972656 Z M 27.101562 36.074219 " fill-opacity="1" fill-rule="nonzero"/><path fill="#000000" d="M 13.902344 35.707031 L 9.277344 35.195312 L 9.289062 35.09375 L 13.914062 35.605469 Z M 13.902344 35.707031 " fill-opacity="1" fill-rule="nonzero"/><path fill="#000000" d="M 8.269531 37.105469 L 25.78125 57.230469 L 25.707031 57.296875 L 8.191406 37.171875 Z M 8.269531 37.105469 " fill-opacity="1" fill-rule="nonzero"/><path fill="#000000" d="M 28.242188 59.285156 L 57.039062 75.554688 L 56.988281 75.644531 L 28.191406 59.375 Z M 28.242188 59.285156 " fill-opacity="1" fill-rule="nonzero"/><path fill="#000000" d="M 62.71875 70.824219 L 60.023438 75.597656 L 59.933594 75.546875 L 62.628906 70.773438 Z M 62.71875 70.824219 " fill-opacity="1" fill-rule="nonzero"/></svg>