<svg xmlns="http://www.w3.org/2000/svg" xmlns:xlink="http://www.w3.org/1999/xlink" width="128" zoomAndPan="magnify" viewBox="0 0 96 95.999999" height="128" preserveAspectRatio="xMidYMid meet" version="1.0"><defs><clipPath id="d6f0f0655a"><path d="M 1.117188 77 L 11 77 L 11 87.605469 L 1.117188 87.605469 Z M 1.117188 77 " clip-rule="nonzero"/></clipPath><clipPath id="bdf81ea574"><path d="M 82 55 L 92.617188 55 L 92.617188 65 L 82 65 Z M 82 55 " clip-rule="nonzero"/></clipPath><clipPath id="42a6c2db96"><path d="M 77 8.105469 L 82 8.105469 L 82 13 L 77 13 Z M 77 8.105469 " clip-rule="nonzero"/></clipPath><clipPath id="b1d34c98e8"><path d="M 87 13 L 92.617188 13 L 92.617188 19 L 87 19 Z M 87 13 " clip-rule="nonzero"/></clipPath></defs><g clip-path="url(#d6f0f0655a)"><path fill="#000000" d="M 10.671875 82.289062 C 10.023438 82.121094 8.054688 82.300781 6.90625 82.34375 C 7.199219 81.96875 7.480469 81.585938 7.734375 81.179688 C 7.367188 81.496094 7.011719 81.832031 6.664062 82.175781 C 6.554688 80.574219 6.335938 78.992188 6.0625 77.421875 C 5.894531 78.902344 5.855469 80.390625 5.902344 81.875 C 5.609375 81.585938 5.308594 81.300781 5.003906 81.027344 C 5.269531 81.511719 5.582031 81.960938 5.921875 82.394531 C 5.921875 82.394531 5.921875 82.398438 5.921875 82.398438 C 4.296875 82.515625 2.679688 82.820312 1.117188 83.007812 C 2.667969 83.210938 4.242188 83.21875 5.804688 83.117188 C 5.40625 83.59375 5.042969 84.097656 4.722656 84.632812 C 5.160156 84.242188 5.582031 83.835938 5.988281 83.410156 C 6.09375 84.902344 6.269531 86.390625 6.492188 87.871094 C 6.714844 86.328125 6.773438 84.816406 6.722656 83.320312 C 7.160156 83.785156 7.621094 84.226562 8.09375 84.652344 C 7.765625 84.070312 7.378906 83.53125 6.953125 83.023438 C 8.210938 82.855469 9.433594 82.527344 10.671875 82.289062 Z M 10.671875 82.289062 " fill-opacity="1" fill-rule="nonzero"/></g><path fill="#000000" d="M 31.339844 52.5 C 31.414062 52.492188 31.492188 52.484375 31.570312 52.472656 C 30.484375 52.316406 29.390625 52.21875 28.292969 52.1875 C 28.261719 52.1875 28.226562 52.1875 28.195312 52.1875 C 28.550781 51.792969 28.898438 51.390625 29.246094 50.988281 C 28.703125 51.339844 28.207031 51.746094 27.742188 52.1875 C 27.734375 52.1875 27.726562 52.1875 27.71875 52.1875 C 27.71875 52.148438 27.71875 52.113281 27.71875 52.074219 C 27.699219 50.6875 27.457031 49.320312 27.265625 47.949219 C 27.101562 49.324219 27.019531 50.707031 27.003906 52.09375 C 26.625 51.671875 26.238281 51.257812 25.851562 50.84375 C 26.074219 51.339844 26.347656 51.796875 26.65625 52.234375 C 25.328125 52.320312 24.003906 52.492188 22.671875 52.542969 C 24.097656 52.890625 25.546875 52.960938 27 52.90625 C 27 52.914062 27 52.925781 27 52.9375 C 26.558594 53.40625 26.140625 53.902344 25.730469 54.402344 C 26.1875 54.097656 26.605469 53.757812 27.003906 53.390625 C 27.019531 54.621094 27.082031 55.851562 27.183594 57.074219 C 27.429688 55.890625 27.601562 54.6875 27.675781 53.480469 C 28.03125 53.863281 28.402344 54.234375 28.78125 54.589844 C 28.859375 54.660156 29.039062 54.890625 28.914062 54.675781 C 28.574219 54.042969 28.15625 53.464844 27.707031 52.914062 C 27.707031 52.898438 27.710938 52.878906 27.710938 52.863281 C 28.925781 52.789062 30.136719 52.640625 31.339844 52.5 Z M 31.339844 52.5 " fill-opacity="1" fill-rule="nonzero"/><path fill="#000000" d="M 33.835938 69.566406 C 34.308594 69.640625 34.785156 69.699219 35.261719 69.757812 C 34.769531 69.511719 34.257812 69.339844 33.730469 69.21875 C 33.730469 69.199219 33.730469 69.175781 33.734375 69.15625 C 34.027344 68.882812 34.308594 68.59375 34.5625 68.28125 C 34.289062 68.457031 34.019531 68.640625 33.757812 68.835938 C 33.789062 68.28125 33.773438 67.726562 33.699219 67.171875 C 33.585938 67.761719 33.492188 68.320312 33.417969 68.871094 C 33.207031 68.570312 32.96875 68.285156 32.710938 68.019531 C 32.886719 68.40625 33.085938 68.773438 33.304688 69.132812 C 32.691406 69.027344 32.0625 68.988281 31.441406 69.007812 C 31.964844 69.1875 32.503906 69.320312 33.046875 69.425781 C 32.734375 69.722656 32.453125 70.050781 32.21875 70.417969 C 32.589844 70.117188 32.96875 69.816406 33.335938 69.503906 C 33.261719 70.15625 33.210938 70.816406 33.1875 71.53125 C 33.414062 70.9375 33.570312 70.320312 33.667969 69.695312 C 33.851562 69.964844 34.035156 70.230469 34.234375 70.488281 C 34.125 70.171875 33.992188 69.859375 33.835938 69.566406 Z M 33.835938 69.566406 " fill-opacity="1" fill-rule="nonzero"/><path fill="#000000" d="M 70.355469 38.386719 C 70.074219 38.335938 69.789062 38.300781 69.507812 38.261719 C 69.84375 37.949219 70.167969 37.617188 70.464844 37.257812 C 69.972656 37.554688 69.492188 37.863281 69.019531 38.191406 C 69.136719 36.773438 69.144531 35.34375 69.023438 33.921875 C 68.773438 35.199219 68.554688 36.484375 68.398438 37.777344 C 68.054688 37.363281 67.695312 36.960938 67.3125 36.578125 C 67.582031 37.128906 67.898438 37.652344 68.25 38.148438 C 67 38.058594 65.742188 38.050781 64.488281 38.035156 C 65.691406 38.410156 66.925781 38.667969 68.175781 38.820312 C 67.527344 39.332031 66.914062 39.890625 66.371094 40.519531 C 67.015625 40.152344 67.644531 39.75 68.246094 39.308594 C 68.191406 39.945312 68.15625 40.585938 68.148438 41.230469 C 68.128906 41.875 68.140625 42.519531 68.132812 43.164062 C 68.148438 43.105469 68.167969 43.042969 68.1875 42.980469 C 68.542969 41.683594 68.789062 40.363281 68.941406 39.03125 C 69.28125 39.429688 69.648438 39.808594 70.039062 40.160156 C 69.796875 39.738281 69.539062 39.328125 69.265625 38.929688 C 70.546875 39.03125 71.835938 39.035156 73.117188 38.945312 C 73.191406 38.941406 73.265625 38.9375 73.339844 38.933594 C 72.347656 38.71875 71.351562 38.53125 70.355469 38.386719 Z M 70.355469 38.386719 " fill-opacity="1" fill-rule="nonzero"/><path fill="#000000" d="M 83.886719 44.652344 C 83.664062 44.476562 83.433594 44.300781 83.191406 44.125 C 83.808594 44.015625 84.425781 43.847656 85.027344 43.660156 C 84.347656 43.664062 83.710938 43.730469 83.078125 43.828125 C 83.199219 43.609375 83.308594 43.386719 83.40625 43.15625 C 83.273438 43.304688 83.152344 43.460938 83.039062 43.625 C 82.957031 43.082031 82.835938 42.546875 82.648438 42.023438 C 82.671875 42.632812 82.714844 43.242188 82.78125 43.847656 C 82.554688 43.699219 82.320312 43.554688 82.066406 43.425781 C 82.234375 43.589844 82.410156 43.75 82.59375 43.902344 C 82.058594 43.992188 81.523438 44.09375 80.957031 44.183594 C 81.539062 44.273438 82.117188 44.261719 82.691406 44.195312 C 82.582031 44.414062 82.488281 44.644531 82.417969 44.882812 C 82.5625 44.675781 82.699219 44.464844 82.835938 44.246094 C 82.910156 44.789062 83.011719 45.328125 83.148438 45.855469 C 83.171875 45.335938 83.160156 44.8125 83.117188 44.289062 C 83.414062 44.484375 83.726562 44.65625 84.0625 44.777344 C 84 44.738281 83.941406 44.695312 83.886719 44.652344 Z M 83.886719 44.652344 " fill-opacity="1" fill-rule="nonzero"/><g clip-path="url(#bdf81ea574)"><path fill="#000000" d="M 90.515625 60.792969 C 91.28125 60.898438 92.050781 60.929688 92.824219 60.964844 C 92.53125 60.863281 92.238281 60.777344 91.945312 60.691406 C 90.746094 60.34375 90.339844 60.191406 89.105469 59.84375 C 89.027344 59.820312 88.945312 59.804688 88.867188 59.78125 C 89.328125 59.464844 89.769531 59.121094 90.191406 58.746094 C 89.601562 59.019531 89.023438 59.308594 88.457031 59.628906 C 88.648438 58.230469 88.746094 56.820312 88.75 55.40625 C 88.363281 56.714844 88.0625 58.046875 87.839844 59.386719 C 87.613281 58.902344 87.367188 58.4375 87.09375 57.988281 C 87.214844 58.496094 87.359375 59 87.519531 59.5 C 86.027344 59.253906 84.503906 59.210938 82.996094 59.257812 C 84.492188 59.570312 85.984375 59.90625 87.484375 60.21875 C 86.910156 60.585938 86.351562 60.980469 85.820312 61.410156 C 86.457031 61.15625 87.078125 60.863281 87.675781 60.53125 C 87.507812 61.824219 87.410156 63.128906 87.398438 64.4375 C 87.722656 63.40625 87.980469 62.359375 88.183594 61.300781 C 88.421875 61.867188 88.675781 62.425781 88.953125 62.976562 C 88.828125 62.132812 88.609375 61.320312 88.320312 60.53125 C 88.328125 60.484375 88.339844 60.441406 88.347656 60.394531 C 89.0625 60.539062 89.789062 60.675781 90.515625 60.792969 Z M 90.515625 60.792969 " fill-opacity="1" fill-rule="nonzero"/></g><path fill="#000000" d="M 66.53125 26.632812 C 67.15625 26.617188 67.730469 26.566406 68.128906 26.464844 C 67.644531 26.4375 67.164062 26.363281 66.679688 26.328125 C 66.964844 26.023438 67.242188 25.707031 67.488281 25.367188 C 67.457031 25.390625 67.421875 25.414062 67.394531 25.4375 C 67.082031 25.660156 66.792969 25.902344 66.523438 26.167969 C 66.511719 25.566406 66.464844 24.960938 66.394531 24.359375 C 66.261719 25 66.195312 25.652344 66.175781 26.300781 C 66.175781 26.300781 66.167969 26.300781 66.167969 26.300781 C 66.148438 26.300781 66.132812 26.304688 66.117188 26.304688 C 65.890625 26.039062 65.648438 25.789062 65.375 25.570312 C 65.507812 25.785156 65.6875 26.046875 65.878906 26.3125 C 65.207031 26.34375 64.570312 26.4375 63.921875 26.539062 C 64.550781 26.597656 65.347656 26.640625 66.101562 26.640625 C 65.921875 26.863281 65.753906 27.105469 65.617188 27.363281 C 65.808594 27.191406 65.992188 27.015625 66.175781 26.84375 C 66.1875 27.480469 66.242188 28.125 66.332031 28.761719 C 66.4375 28.21875 66.492188 27.671875 66.515625 27.117188 C 66.703125 27.324219 66.882812 27.484375 67.027344 27.5625 C 66.863281 27.316406 66.699219 27.070312 66.523438 26.832031 C 66.527344 26.761719 66.53125 26.699219 66.53125 26.632812 Z M 66.53125 26.632812 " fill-opacity="1" fill-rule="nonzero"/><g clip-path="url(#42a6c2db96)"><path fill="#000000" d="M 79.898438 10.625 C 80.457031 10.601562 81.019531 10.550781 81.574219 10.472656 C 80.992188 10.375 80.402344 10.324219 79.8125 10.3125 C 80.082031 10.023438 80.339844 9.726562 80.59375 9.429688 C 80.261719 9.636719 79.957031 9.882812 79.675781 10.152344 C 79.667969 9.472656 79.621094 8.792969 79.527344 8.117188 C 79.40625 8.734375 79.335938 9.359375 79.3125 9.984375 C 79.148438 9.824219 78.976562 9.671875 78.800781 9.523438 C 78.949219 9.777344 79.121094 10.015625 79.300781 10.242188 C 79.300781 10.261719 79.300781 10.28125 79.300781 10.300781 C 78.59375 10.3125 77.890625 10.375 77.203125 10.492188 C 77.863281 10.601562 78.527344 10.644531 79.195312 10.644531 C 78.96875 10.898438 78.753906 11.160156 78.542969 11.421875 C 78.816406 11.242188 79.066406 11.035156 79.304688 10.816406 C 79.316406 11.476562 79.375 12.136719 79.480469 12.792969 C 79.59375 12.089844 79.65625 11.382812 79.675781 10.675781 C 79.929688 10.957031 80.199219 11.226562 80.464844 11.496094 C 80.304688 11.183594 80.113281 10.894531 79.898438 10.625 Z M 79.898438 10.625 " fill-opacity="1" fill-rule="nonzero"/></g><g clip-path="url(#b1d34c98e8)"><path fill="#000000" d="M 90.933594 16.167969 C 91.566406 16.089844 92.207031 16.03125 92.800781 15.789062 C 92.027344 15.890625 91.25 15.78125 90.476562 15.824219 C 90.441406 15.828125 90.40625 15.828125 90.371094 15.832031 C 90.574219 15.574219 90.765625 15.308594 90.933594 15.027344 C 90.660156 15.292969 90.390625 15.558594 90.125 15.828125 C 90.0625 14.921875 89.929688 14.019531 89.726562 13.132812 C 89.648438 14.011719 89.648438 14.890625 89.695312 15.773438 C 89.480469 15.535156 89.257812 15.300781 89.035156 15.070312 C 89.175781 15.367188 89.347656 15.644531 89.539062 15.910156 C 88.722656 16.003906 87.910156 16.148438 87.097656 16.277344 C 87.960938 16.367188 88.828125 16.363281 89.691406 16.300781 C 89.414062 16.609375 89.144531 16.925781 88.90625 17.265625 C 89.203125 17.035156 89.488281 16.789062 89.75 16.527344 C 89.820312 17.300781 89.921875 18.074219 90.050781 18.839844 C 90.140625 18.117188 90.171875 17.390625 90.15625 16.664062 C 90.394531 16.921875 90.648438 17.164062 90.902344 17.402344 C 90.6875 17.011719 90.429688 16.652344 90.148438 16.308594 C 90.148438 16.292969 90.148438 16.277344 90.148438 16.265625 C 90.410156 16.234375 90.671875 16.203125 90.933594 16.167969 Z M 90.933594 16.167969 " fill-opacity="1" fill-rule="nonzero"/></g><path fill="#000000" d="M 81.945312 11.230469 L 87.9375 14.820312 L 87.882812 14.910156 L 81.890625 11.320312 Z M 81.945312 11.230469 " fill-opacity="1" fill-rule="nonzero"/><path fill="#000000" d="M 77.847656 12.359375 L 68.003906 24.863281 L 67.921875 24.796875 L 77.765625 12.292969 Z M 77.847656 12.359375 " fill-opacity="1" fill-rule="nonzero"/><path fill="#000000" d="M 66.640625 29.601562 L 67.640625 35.613281 L 67.535156 35.632812 L 66.535156 29.617188 Z M 66.640625 29.601562 " fill-opacity="1" fill-rule="nonzero"/><path fill="#000000" d="M 30.515625 50.941406 L 64.480469 39.4375 L 64.515625 39.539062 L 30.546875 51.042969 Z M 30.515625 50.941406 " fill-opacity="1" fill-rule="nonzero"/><path fill="#000000" d="M 25.621094 55.164062 L 7.957031 80.085938 L 7.871094 80.027344 L 25.53125 55.101562 Z M 25.621094 55.164062 " fill-opacity="1" fill-rule="nonzero"/><path fill="#000000" d="M 8.632812 80.988281 L 31.390625 70.261719 L 31.4375 70.355469 L 8.679688 81.085938 Z M 8.632812 80.988281 " fill-opacity="1" fill-rule="nonzero"/><path fill="#000000" d="M 35.261719 68.40625 L 83.664062 60.355469 L 83.679688 60.460938 L 35.277344 68.511719 Z M 35.261719 68.40625 " fill-opacity="1" fill-rule="nonzero"/><path fill="#000000" d="M 83.710938 46.6875 L 86.679688 57.199219 L 86.578125 57.226562 L 83.609375 46.71875 Z M 83.710938 46.6875 " fill-opacity="1" fill-rule="nonzero"/><path fill="#000000" d="M 74.328125 39.332031 L 81.550781 43.054688 L 81.503906 43.152344 L 74.28125 39.425781 Z M 74.328125 39.332031 " fill-opacity="1" fill-rule="nonzero"/></svg>