<svg xmlns="http://www.w3.org/2000/svg" xmlns:xlink="http://www.w3.org/1999/xlink" width="128" zoomAndPan="magnify" viewBox="0 0 96 95.999999" height="128" preserveAspectRatio="xMidYMid meet" version="1.0"><defs><clipPath id="b5f1bd4fdf"><path d="M 5 0.121094 L 96 0.121094 L 96 69 L 5 69 Z M 5 0.121094 " clip-rule="nonzero"/></clipPath></defs><path fill="#5a3a1a" d="M 38.0625 67.15625 C 38.625 68.378906 39.613281 69.324219 40.78125 69.953125 C 40.632812 72.976562 42.671875 76.304688 45.859375 76.574219 C 47.367188 76.726562 48.835938 76.097656 49.792969 74.933594 C 51.738281 76.976562 55.605469 76.429688 57.5625 74.640625 C 59.148438 73.160156 59.746094 70.851562 59.695312 68.726562 C 59.695312 68.726562 59.699219 68.726562 59.699219 68.722656 C 62.367188 67.390625 63.195312 64.578125 63.726562 61.855469 C 64.332031 58.878906 66.308594 57.480469 68.195312 55.359375 C 71.210938 51.933594 71.074219 48.285156 69.71875 44.164062 C 69.375 42.96875 68.773438 41.890625 68.113281 40.847656 C 67.871094 40.3125 67.398438 39.730469 66.816406 40.195312 C 66.210938 40.8125 67.113281 41.488281 67.34375 42.078125 C 68.457031 43.828125 68.941406 46 69.289062 48.039062 C 69.515625 49.410156 69.265625 50.808594 68.761719 52.09375 C 67.558594 55.042969 64.398438 56.605469 63.15625 59.519531 C 62.167969 61.640625 62.257812 64.132812 60.867188 66.082031 C 59.117188 68.3125 55.871094 68.902344 53.257812 68.042969 C 52.574219 67.785156 52.035156 67.289062 51.597656 66.714844 C 51.4375 66.535156 51.25 66.296875 51.039062 66.105469 C 51.046875 66.0625 51.054688 66.019531 51.054688 65.976562 C 51.199219 65.347656 51.648438 64.722656 52.015625 64.191406 C 52.933594 63 53.96875 61.847656 55.214844 60.996094 C 55.785156 60.589844 55.382812 59.8125 54.835938 59.8125 C 54.804688 59.808594 54.769531 59.804688 54.738281 59.804688 C 54.382812 59.804688 54.023438 59.820312 53.667969 59.832031 C 52.226562 59.863281 50.785156 59.898438 49.34375 59.933594 C 47.996094 59.964844 46.644531 60.007812 45.296875 60.027344 C 45.285156 60.027344 45.273438 60.027344 45.265625 60.027344 C 45.257812 60.027344 45.253906 60.03125 45.246094 60.03125 C 44.933594 60.039062 44.683594 60.304688 44.648438 60.605469 C 44.585938 60.890625 44.734375 61.1875 44.992188 61.34375 C 45.757812 61.910156 46.492188 62.519531 47.179688 63.175781 C 48.082031 64.070312 49.003906 65.046875 49.566406 66.214844 C 49.582031 66.261719 49.597656 66.3125 49.613281 66.359375 C 49.234375 66.835938 48.875 67.335938 48.449219 67.773438 C 47.519531 68.632812 46.371094 69.351562 45.113281 69.570312 C 43.167969 69.707031 41.027344 69.046875 39.78125 67.476562 C 38.683594 66.082031 38.6875 64.203125 38.15625 62.570312 C 37.421875 60.367188 36.507812 58.179688 35.1875 56.265625 C 32.554688 52.832031 30.386719 51.996094 31.710938 47.085938 C 32.125 45.5625 32.804688 44.125 33.546875 42.703125 C 33.882812 42.179688 34.402344 41.277344 33.484375 41.015625 C 32.761719 40.902344 32.648438 41.78125 32.316406 42.242188 C 30.867188 45.105469 29.410156 48.453125 30.296875 51.703125 C 30.914062 53.652344 32.511719 54.984375 33.761719 56.515625 C 34.75 57.78125 35.449219 59.230469 36.074219 60.703125 C 37.082031 62.671875 37.234375 65.09375 38.0625 67.15625 Z M 47.246094 61.476562 C 47.171875 61.414062 47.09375 61.355469 47.019531 61.289062 C 47.289062 61.285156 47.558594 61.277344 47.824219 61.269531 C 49.453125 61.230469 51.078125 61.191406 52.707031 61.152344 C 52.804688 61.152344 52.902344 61.148438 53 61.144531 C 51.902344 62.15625 50.804688 63.414062 50.1875 64.6875 C 49.230469 63.308594 47.652344 61.765625 47.246094 61.476562 Z M 50.460938 67.386719 C 51.320312 68.558594 52.570312 69.414062 54.035156 69.585938 C 55.515625 69.804688 57 69.753906 58.410156 69.285156 C 58.386719 69.882812 58.265625 70.46875 58.128906 71.070312 C 57.722656 73.054688 56.101562 74.65625 54.058594 74.859375 C 52.8125 75.007812 51.109375 74.925781 50.496094 73.632812 C 50.214844 73.15625 49.574219 73.207031 49.261719 73.621094 C 46.398438 77.269531 42.242188 74.390625 42.078125 70.496094 C 42.277344 70.558594 42.480469 70.617188 42.6875 70.660156 C 45.6875 71.566406 48.765625 69.851562 50.460938 67.386719 Z M 50.460938 67.386719 " fill-opacity="1" fill-rule="nonzero"/><path fill="#5a3a1a" d="M 74.175781 28.1875 C 69.84375 28.851562 64.410156 31.660156 64.574219 36.695312 C 64.660156 37.796875 66.097656 37.480469 65.867188 36.40625 C 66.023438 32.121094 70.847656 30.027344 74.523438 29.449219 C 75.589844 29.199219 76.316406 29.605469 76.832031 30.542969 C 76.902344 30.65625 76.960938 30.773438 77.019531 30.890625 C 77.015625 30.898438 77.011719 30.902344 77.007812 30.910156 C 76.160156 31.691406 75.242188 32.394531 74.320312 33.082031 C 74.101562 33.246094 73.878906 33.421875 73.644531 33.566406 C 73.167969 33.859375 73.34375 34.660156 73.886719 34.742188 C 74.277344 34.816406 74.585938 34.488281 74.882812 34.285156 C 75.625 33.730469 76.367188 33.179688 77.070312 32.574219 C 77.203125 32.460938 77.332031 32.351562 77.464844 32.238281 C 77.664062 33.316406 77.554688 34.457031 77.183594 35.480469 C 76.199219 37.796875 74.625 39.140625 72.003906 39.003906 C 71.089844 39.011719 70.148438 38.910156 69.308594 38.527344 C 68.527344 38.179688 67.980469 39.308594 68.738281 39.695312 C 69.183594 39.910156 69.660156 40.054688 70.148438 40.144531 C 74.269531 40.863281 77.15625 39.507812 78.570312 35.445312 C 79.519531 32.472656 78.128906 27.230469 74.175781 28.1875 Z M 74.175781 28.1875 " fill-opacity="1" fill-rule="nonzero"/><path fill="#5a3a1a" d="M 22.449219 30.359375 C 20.652344 34.203125 22.480469 39.347656 26.597656 40.734375 C 27.875 41.253906 29.308594 41.136719 30.585938 40.691406 C 31.234375 40.398438 32.976562 40.109375 32.558594 39.101562 C 32.402344 38.792969 31.988281 38.640625 31.683594 38.820312 C 30.554688 39.402344 29.265625 39.871094 27.980469 39.753906 C 24.808594 39.265625 22.710938 36.011719 23.101562 32.902344 C 23.136719 32.65625 23.175781 32.394531 23.226562 32.132812 C 24.199219 33.136719 25.144531 34.171875 26.277344 34.996094 C 26.996094 35.453125 27.691406 34.398438 26.996094 33.910156 C 25.832031 33.054688 24.777344 31.847656 23.734375 30.796875 C 23.949219 30.5 24.246094 30.273438 24.664062 30.171875 C 26.824219 29.773438 29.136719 30.246094 31.070312 31.261719 C 33.175781 32.4375 34.195312 34.863281 34.78125 37.101562 C 34.800781 37.425781 35.058594 37.699219 35.390625 37.71875 C 36.28125 37.691406 36.089844 36.792969 35.902344 36.207031 C 35.367188 34.558594 34.664062 32.878906 33.515625 31.5625 C 32.101562 30.023438 30.070312 29.222656 28.046875 28.882812 C 26.140625 28.648438 23.539062 28.390625 22.449219 30.359375 Z M 22.449219 30.359375 " fill-opacity="1" fill-rule="nonzero"/><path fill="#a66a2c" d="M 37.21875 86.710938 C 37.300781 86.941406 37.390625 87.167969 37.484375 87.390625 C 37.542969 87.53125 37.609375 87.667969 37.671875 87.808594 C 37.675781 87.816406 37.679688 87.828125 37.683594 87.835938 C 37.6875 87.847656 37.695312 87.855469 37.699219 87.867188 C 37.753906 87.988281 37.8125 88.109375 37.871094 88.226562 C 38.132812 88.746094 38.421875 89.246094 38.742188 89.730469 C 39.054688 90.199219 39.390625 90.648438 39.753906 91.074219 C 39.9375 91.289062 40.121094 91.496094 40.3125 91.695312 C 40.421875 91.808594 40.527344 91.917969 40.636719 92.027344 C 40.710938 92.097656 40.785156 92.171875 40.863281 92.238281 C 40.917969 92.292969 40.976562 92.347656 41.039062 92.402344 C 41.488281 92.8125 41.964844 93.191406 42.464844 93.539062 C 44.425781 94.910156 46.738281 95.789062 49.117188 96.03125 C 49.617188 96.082031 50.113281 96.109375 50.613281 96.109375 C 52.417969 96.109375 54.214844 95.773438 55.902344 95.105469 C 58.355469 94.132812 60.523438 92.457031 62.09375 90.335938 C 63.476562 88.46875 64.402344 86.261719 64.75 83.960938 C 65.074219 81.800781 64.902344 79.59375 64.257812 77.507812 L 64.25 77.484375 C 64.246094 77.46875 64.242188 77.457031 64.238281 77.441406 C 64.21875 77.382812 64.191406 77.300781 64.167969 77.222656 C 64.164062 77.214844 64.164062 77.210938 64.160156 77.203125 C 64.160156 77.199219 64.160156 77.195312 64.15625 77.191406 C 64.148438 77.167969 64.140625 77.144531 64.132812 77.117188 C 64.128906 77.109375 64.121094 77.097656 64.117188 77.089844 C 64.015625 76.828125 63.753906 76.648438 63.460938 76.671875 C 63.113281 76.703125 62.832031 77.027344 62.871094 77.378906 C 62.871094 77.402344 62.875 77.425781 62.878906 77.453125 C 62.890625 77.609375 62.902344 77.773438 62.90625 77.929688 L 62.90625 77.953125 C 62.90625 77.957031 62.90625 77.957031 62.90625 77.960938 C 62.910156 78.265625 62.894531 78.578125 62.859375 78.886719 C 62.832031 79.125 62.777344 79.449219 62.703125 79.769531 C 62.617188 80.097656 62.511719 80.421875 62.390625 80.738281 C 62.261719 81.0625 62.109375 81.375 61.945312 81.675781 C 61.742188 82.035156 61.515625 82.378906 61.269531 82.707031 C 61.019531 83.03125 60.75 83.335938 60.46875 83.628906 C 60.15625 83.941406 59.828125 84.238281 59.480469 84.515625 C 59.070312 84.839844 58.640625 85.136719 58.191406 85.40625 C 57.722656 85.683594 57.199219 85.953125 56.65625 86.191406 C 56.140625 86.414062 55.5625 86.625 54.972656 86.800781 C 54.328125 86.984375 53.675781 87.128906 53.011719 87.238281 C 52.292969 87.34375 51.566406 87.410156 50.835938 87.425781 C 50.167969 87.433594 49.5 87.402344 48.832031 87.335938 C 48.8125 87.332031 48.789062 87.332031 48.769531 87.328125 L 48.761719 87.328125 C 48.742188 87.328125 48.722656 87.324219 48.703125 87.324219 C 48.078125 87.246094 47.414062 87.128906 46.753906 86.96875 C 46.125 86.804688 45.507812 86.609375 44.902344 86.371094 C 44.347656 86.144531 43.808594 85.886719 43.289062 85.589844 C 42.914062 85.375 42.476562 85.09375 42.058594 84.78125 C 41.6875 84.496094 41.332031 84.191406 40.996094 83.859375 C 40.75 83.621094 40.464844 83.304688 40.203125 82.96875 C 39.988281 82.6875 39.789062 82.398438 39.605469 82.097656 L 39.597656 82.082031 C 39.589844 82.074219 39.585938 82.066406 39.582031 82.058594 C 39.425781 81.785156 39.269531 81.484375 39.132812 81.171875 C 39.007812 80.875 38.902344 80.574219 38.8125 80.269531 C 38.742188 80.003906 38.679688 79.726562 38.632812 79.445312 C 38.585938 79.125 38.558594 78.804688 38.550781 78.480469 C 38.546875 78.195312 38.558594 77.90625 38.589844 77.621094 C 38.609375 77.441406 38.636719 77.261719 38.671875 77.082031 C 38.707031 76.878906 38.640625 76.679688 38.507812 76.53125 C 38.328125 76.3125 38 76.207031 37.71875 76.308594 C 37.671875 76.320312 37.578125 76.382812 37.492188 76.457031 C 37.492188 76.460938 37.492188 76.460938 37.492188 76.460938 C 37.488281 76.464844 37.484375 76.464844 37.480469 76.46875 C 37.390625 76.539062 37.316406 76.628906 37.269531 76.738281 C 37.269531 76.738281 37.269531 76.742188 37.269531 76.742188 C 37.269531 76.742188 37.265625 76.746094 37.265625 76.75 C 37.265625 76.746094 37.269531 76.742188 37.269531 76.738281 C 37.269531 76.734375 37.273438 76.730469 37.273438 76.726562 C 37.269531 76.738281 37.265625 76.75 37.261719 76.761719 C 37.257812 76.769531 37.253906 76.773438 37.253906 76.78125 C 37.25 76.785156 37.25 76.792969 37.246094 76.800781 C 36.972656 77.546875 36.753906 78.316406 36.601562 79.105469 C 36.214844 81.121094 36.269531 83.234375 36.765625 85.226562 C 36.890625 85.726562 37.039062 86.226562 37.21875 86.710938 Z M 38.554688 82.867188 C 39.4375 84.308594 40.695312 85.496094 42.113281 86.398438 C 44.089844 87.652344 46.367188 88.371094 48.683594 88.625 C 49.300781 88.691406 49.921875 88.726562 50.542969 88.726562 C 52.175781 88.726562 53.804688 88.496094 55.378906 88.035156 C 57.527344 87.402344 59.601562 86.304688 61.210938 84.726562 C 62.226562 83.722656 63.078125 82.53125 63.601562 81.199219 C 63.601562 81.203125 63.605469 81.207031 63.605469 81.214844 C 63.628906 81.792969 63.613281 82.375 63.566406 82.953125 C 63.515625 83.496094 63.425781 84.089844 63.296875 84.675781 C 63.164062 85.25 62.992188 85.8125 62.789062 86.367188 C 62.613281 86.84375 62.367188 87.390625 62.089844 87.921875 C 61.804688 88.449219 61.488281 88.953125 61.140625 89.441406 C 60.816406 89.882812 60.472656 90.300781 60.101562 90.703125 C 59.714844 91.113281 59.304688 91.496094 58.871094 91.859375 C 58.421875 92.222656 57.949219 92.5625 57.457031 92.871094 C 57.015625 93.140625 56.5625 93.382812 56.089844 93.605469 C 55.582031 93.839844 55.058594 94.042969 54.523438 94.214844 C 53.984375 94.378906 53.441406 94.515625 52.886719 94.617188 C 52.382812 94.703125 51.796875 94.769531 51.203125 94.800781 C 50.632812 94.820312 50.0625 94.808594 49.492188 94.761719 C 48.890625 94.707031 48.292969 94.609375 47.699219 94.480469 C 47.207031 94.363281 46.636719 94.191406 46.078125 93.988281 C 45.59375 93.804688 45.039062 93.554688 44.503906 93.273438 C 43.996094 92.996094 43.503906 92.6875 43.035156 92.351562 C 42.585938 92.023438 42.148438 91.664062 41.738281 91.277344 L 41.683594 91.230469 C 41.332031 90.894531 40.941406 90.476562 40.582031 90.039062 C 40.226562 89.601562 39.902344 89.144531 39.601562 88.667969 C 39.355469 88.269531 39.09375 87.789062 38.859375 87.289062 C 38.851562 87.265625 38.839844 87.246094 38.828125 87.222656 C 38.828125 87.222656 38.828125 87.222656 38.828125 87.21875 C 38.824219 87.210938 38.816406 87.199219 38.8125 87.1875 C 38.59375 86.703125 38.402344 86.195312 38.238281 85.679688 C 38.078125 85.160156 37.949219 84.632812 37.851562 84.097656 L 37.847656 84.078125 C 37.84375 84.0625 37.839844 84.046875 37.839844 84.03125 C 37.75 83.503906 37.6875 82.945312 37.660156 82.378906 C 37.640625 81.910156 37.652344 81.441406 37.679688 80.972656 C 37.898438 81.632812 38.191406 82.269531 38.554688 82.867188 Z M 38.554688 82.867188 " fill-opacity="1" fill-rule="nonzero"/><path fill="#5a3a1a" d="M 57.132812 64.445312 C 56.691406 64.683594 56.230469 64.898438 55.761719 65.089844 C 55.445312 65.214844 55.121094 65.308594 54.785156 65.355469 C 54.453125 65.476562 54.253906 65.828125 54.363281 66.175781 C 54.742188 67.074219 55.882812 66.394531 56.523438 66.179688 C 57.128906 65.832031 58.574219 65.574219 58.09375 64.609375 C 57.886719 64.273438 57.445312 64.230469 57.132812 64.445312 Z M 57.132812 64.445312 " fill-opacity="1" fill-rule="nonzero"/><path fill="#5a3a1a" d="M 54.933594 54.378906 C 54.933594 54.378906 54.933594 54.378906 54.9375 54.382812 C 54.933594 54.375 54.929688 54.371094 54.925781 54.367188 C 54.929688 54.371094 54.933594 54.375 54.933594 54.378906 Z M 54.933594 54.378906 " fill-opacity="1" fill-rule="nonzero"/><path fill="#5a3a1a" d="M 54.941406 54.390625 C 54.945312 54.394531 54.949219 54.40625 54.957031 54.421875 C 54.957031 54.421875 54.945312 54.402344 54.941406 54.390625 Z M 54.941406 54.390625 " fill-opacity="1" fill-rule="nonzero"/><path fill="#5a3a1a" d="M 61.796875 48.367188 C 62.3125 47.796875 63.652344 45 62.425781 44.730469 C 62.003906 44.632812 61.699219 45.011719 61.347656 45.171875 C 59.832031 46.09375 57.976562 46.417969 56.628906 47.605469 C 55.042969 49.246094 54.304688 52.238281 54.960938 54.425781 C 55.355469 55.089844 56.417969 54.585938 56.113281 53.839844 C 55.925781 52.777344 56.058594 51.675781 56.363281 50.644531 C 58.320312 50.566406 60.5 49.945312 61.796875 48.367188 Z M 56.941406 49.296875 C 57.832031 47.707031 59.855469 47.519531 61.304688 46.65625 C 60.632812 48.410156 58.667969 49.089844 56.941406 49.296875 Z M 56.941406 49.296875 " fill-opacity="1" fill-rule="nonzero"/><path fill="#5a3a1a" d="M 54.941406 54.390625 C 54.9375 54.386719 54.9375 54.382812 54.933594 54.378906 C 54.933594 54.375 54.933594 54.375 54.929688 54.375 C 54.929688 54.375 54.9375 54.382812 54.941406 54.390625 Z M 54.941406 54.390625 " fill-opacity="1" fill-rule="nonzero"/><path fill="#5a3a1a" d="M 54.949219 54.40625 C 54.957031 54.417969 54.960938 54.425781 54.964844 54.4375 C 54.964844 54.433594 54.964844 54.429688 54.960938 54.425781 C 54.953125 54.410156 54.945312 54.398438 54.9375 54.382812 C 54.941406 54.390625 54.945312 54.398438 54.949219 54.40625 Z M 54.949219 54.40625 " fill-opacity="1" fill-rule="nonzero"/><path fill="#5a3a1a" d="M 42.125 64.777344 C 41.644531 65.738281 43.089844 66 43.691406 66.34375 C 44.335938 66.558594 45.476562 67.238281 45.855469 66.339844 C 45.964844 65.992188 45.765625 65.640625 45.433594 65.523438 C 45.097656 65.472656 44.773438 65.378906 44.457031 65.253906 C 43.988281 65.0625 43.527344 64.851562 43.082031 64.609375 C 42.769531 64.394531 42.332031 64.4375 42.125 64.773438 Z M 42.125 64.777344 " fill-opacity="1" fill-rule="nonzero"/><path fill="#5a3a1a" d="M 45.289062 54.53125 C 45.289062 54.535156 45.285156 54.542969 45.28125 54.546875 C 45.28125 54.546875 45.285156 54.546875 45.285156 54.542969 C 45.285156 54.539062 45.289062 54.539062 45.289062 54.53125 Z M 45.289062 54.53125 " fill-opacity="1" fill-rule="nonzero"/><path fill="#5a3a1a" d="M 45.277344 54.558594 C 45.273438 54.5625 45.269531 54.570312 45.261719 54.585938 C 45.261719 54.585938 45.269531 54.570312 45.277344 54.558594 Z M 45.277344 54.558594 " fill-opacity="1" fill-rule="nonzero"/><path fill="#5a3a1a" d="M 45.285156 54.539062 C 45.285156 54.542969 45.285156 54.542969 45.285156 54.542969 C 45.28125 54.546875 45.28125 54.550781 45.277344 54.554688 Z M 45.285156 54.539062 " fill-opacity="1" fill-rule="nonzero"/><path fill="#5a3a1a" d="M 45.253906 54.601562 C 45.257812 54.589844 45.261719 54.582031 45.269531 54.574219 C 45.273438 54.5625 45.277344 54.554688 45.28125 54.546875 C 45.273438 54.5625 45.265625 54.574219 45.253906 54.589844 C 45.253906 54.59375 45.253906 54.597656 45.253906 54.601562 Z M 45.253906 54.601562 " fill-opacity="1" fill-rule="nonzero"/><path fill="#5a3a1a" d="M 43.589844 47.769531 C 42.238281 46.585938 40.386719 46.261719 38.871094 45.335938 C 38.519531 45.175781 38.214844 44.796875 37.792969 44.894531 C 36.566406 45.164062 37.90625 47.960938 38.421875 48.53125 C 39.714844 50.109375 41.898438 50.730469 43.855469 50.8125 C 44.160156 51.839844 44.292969 52.945312 44.105469 54.007812 C 43.796875 54.75 44.863281 55.253906 45.253906 54.589844 C 45.914062 52.40625 45.175781 49.410156 43.589844 47.769531 Z M 38.914062 46.820312 C 40.363281 47.6875 42.386719 47.871094 43.273438 49.460938 C 41.546875 49.253906 39.585938 48.574219 38.914062 46.820312 Z M 38.914062 46.820312 " fill-opacity="1" fill-rule="nonzero"/><path fill="#5a3a1a" d="M 49.773438 32.824219 C 50.429688 33.046875 50.664062 32.394531 50.789062 31.882812 C 51.195312 30.644531 51.410156 29.347656 51.449219 28.046875 C 51.597656 24.664062 50.628906 21.289062 48.992188 18.351562 C 48.746094 17.921875 48.484375 17.507812 48.1875 17.113281 C 48.078125 16.878906 47.820312 16.722656 47.5625 16.734375 C 47.007812 16.765625 46.753906 17.433594 47.128906 17.855469 C 49.769531 21.714844 50.964844 26.808594 49.597656 31.355469 C 49.453125 31.820312 49.082031 32.542969 49.773438 32.824219 Z M 49.773438 32.824219 " fill-opacity="1" fill-rule="nonzero"/><path fill="#5a3a1a" d="M 59.976562 19.605469 C 58.875 20.277344 57.824219 21.050781 56.945312 22 C 54.027344 24.863281 53.972656 29.445312 55.730469 32.941406 C 56.246094 33.558594 57.203125 32.84375 56.777344 32.175781 C 55.023438 28.136719 55.671875 24.1875 59.378906 21.574219 C 59.875 21.070312 61.367188 20.703125 60.871094 19.808594 C 60.679688 19.503906 60.28125 19.421875 59.976562 19.605469 Z M 59.976562 19.605469 " fill-opacity="1" fill-rule="nonzero"/><path fill="#5a3a1a" d="M 67.914062 24.125 C 62.960938 23.980469 59.382812 28.699219 59.210938 33.371094 C 59.269531 34.238281 60.550781 34.152344 60.507812 33.289062 C 60.742188 29.335938 63.738281 25.257812 67.976562 25.425781 C 68.328125 25.402344 68.613281 25.101562 68.59375 24.742188 C 68.578125 24.394531 68.269531 24.101562 67.914062 24.125 Z M 67.914062 24.125 " fill-opacity="1" fill-rule="nonzero"/><path fill="#5a3a1a" d="M 40.214844 20.859375 C 39.515625 20.371094 38.773438 21.421875 39.457031 21.917969 C 42.917969 24.195312 45.53125 28.332031 45.289062 32.582031 C 45.289062 32.9375 45.625 33.21875 45.964844 33.199219 C 47.511719 33.085938 46.03125 28.210938 45.59375 27.324219 C 44.460938 24.710938 42.609375 22.402344 40.214844 20.859375 Z M 40.214844 20.859375 " fill-opacity="1" fill-rule="nonzero"/><path fill="#5a3a1a" d="M 32.730469 25.140625 C 32.386719 25.0625 32.035156 25.285156 31.957031 25.632812 C 31.820312 26.621094 33.144531 26.464844 33.765625 26.742188 C 36.941406 27.640625 39.578125 30.183594 40.554688 33.347656 C 40.726562 34.183594 41.957031 33.953125 41.832031 33.113281 C 40.671875 28.949219 36.929688 25.878906 32.730469 25.140625 Z M 32.730469 25.140625 " fill-opacity="1" fill-rule="nonzero"/><path fill="#5a3a1a" d="M 74.152344 42.308594 C 73.628906 42.3125 73.105469 42.296875 72.59375 42.242188 C 72.304688 42.226562 72.007812 42.089844 71.730469 42.195312 C 71.398438 42.324219 71.222656 42.691406 71.34375 43.03125 C 71.632812 43.671875 72.59375 43.488281 73.179688 43.59375 C 76.28125 43.800781 79.890625 42.488281 82.425781 44.902344 C 83.085938 45.4375 83.902344 44.453125 83.257812 43.902344 C 82.835938 43.554688 82.378906 43.226562 81.902344 42.949219 C 79.535156 41.589844 76.726562 42.304688 74.152344 42.308594 Z M 74.152344 42.308594 " fill-opacity="1" fill-rule="nonzero"/><path fill="#5a3a1a" d="M 82.515625 54.011719 C 82.617188 54.351562 83.027344 54.515625 83.347656 54.398438 C 84.171875 54.03125 83.527344 53.066406 83.34375 52.472656 C 82.894531 51.238281 82.15625 50.097656 81.09375 49.308594 C 78.992188 47.636719 76.375 46.957031 73.890625 46.09375 C 73.445312 45.984375 72.847656 45.359375 72.351562 45.722656 C 71.15625 46.902344 74.082031 47.472656 74.820312 47.792969 C 78.238281 48.839844 81.621094 50.152344 82.515625 54.011719 Z M 82.515625 54.011719 " fill-opacity="1" fill-rule="nonzero"/><path fill="#5a3a1a" d="M 72.4375 52.832031 C 73.054688 53.449219 73.714844 54.023438 74.394531 54.570312 C 77.164062 56.761719 80.160156 58.882812 79.367188 62.886719 C 79.253906 63.34375 79.257812 63.941406 79.828125 64.046875 C 80.84375 64.144531 80.628906 62.777344 80.734375 62.109375 C 81.148438 59.019531 78.953125 56.5 76.675781 54.730469 C 75.664062 53.914062 74.640625 53.121094 73.6875 52.238281 C 73.1875 51.820312 72.617188 50.691406 71.90625 51.414062 C 71.457031 51.949219 72.089844 52.457031 72.4375 52.832031 Z M 72.4375 52.832031 " fill-opacity="1" fill-rule="nonzero"/><path fill="#5a3a1a" d="M 69.644531 57.148438 C 69.707031 57.828125 69.875 58.492188 70.121094 59.128906 C 71.121094 61.542969 73.265625 63.269531 74.273438 65.691406 C 74.855469 67.042969 75.007812 68.578125 74.621094 70.003906 C 74.484375 70.527344 74.339844 71.054688 74.144531 71.558594 C 74.019531 71.890625 74.242188 72.273438 74.5625 72.378906 C 75.414062 72.601562 75.527344 71.46875 75.726562 70.890625 C 76.105469 69.671875 76.242188 68.394531 76.035156 67.132812 C 75.824219 65.6875 75.144531 64.367188 74.355469 63.160156 C 73.042969 61.164062 71.097656 59.402344 70.902344 56.882812 C 70.683594 56.128906 69.550781 56.351562 69.644531 57.148438 Z M 69.644531 57.148438 " fill-opacity="1" fill-rule="nonzero"/><path fill="#c98a3a" d="M 70.917969 56.921875 C 70.914062 56.898438 70.90625 56.878906 70.898438 56.855469 C 70.902344 56.863281 70.902344 56.875 70.902344 56.882812 C 70.90625 56.894531 70.914062 56.90625 70.917969 56.921875 Z M 70.917969 56.921875 " fill-opacity="1" fill-rule="nonzero"/><path fill="#5a3a1a" d="M 66.203125 62.167969 C 66.203125 61.566406 65.351562 61.316406 65.019531 61.824219 C 64.789062 62.230469 64.945312 62.734375 65.03125 63.167969 C 65.460938 64.796875 66.46875 66.1875 67.257812 67.65625 C 68.632812 69.996094 68.660156 72.859375 67.601562 75.355469 C 67.394531 75.832031 66.851562 76.433594 67.453125 76.859375 C 68.871094 77.800781 69.742188 72.683594 69.664062 71.773438 C 69.683594 69.835938 69.015625 67.96875 68.007812 66.335938 C 67.300781 65.015625 66.28125 63.714844 66.203125 62.167969 Z M 66.203125 62.167969 " fill-opacity="1" fill-rule="nonzero"/><path fill="#5a3a1a" d="M 35.828125 63.953125 C 35.949219 63.429688 35.796875 62.710938 35.140625 62.726562 C 34.738281 62.726562 34.445312 63.183594 34.558594 63.554688 C 34.558594 63.921875 34.421875 64.273438 34.292969 64.613281 C 31.992188 68.75 30.613281 70.890625 32.316406 75.742188 C 32.617188 76.546875 33.804688 76.128906 33.546875 75.324219 C 33.09375 73.917969 32.703125 72.425781 32.910156 70.9375 C 33.175781 68.335938 35.304688 66.445312 35.828125 63.953125 Z M 35.828125 63.953125 " fill-opacity="1" fill-rule="nonzero"/><path fill="#5a3a1a" d="M 31.648438 56.796875 C 31.269531 56.4375 30.578125 56.714844 30.566406 57.238281 C 30.746094 62.164062 23.363281 63.667969 26.167969 72.195312 C 26.460938 73.007812 27.648438 72.589844 27.398438 71.78125 C 26.714844 69.835938 26.601562 67.675781 27.457031 65.765625 C 28.597656 63.234375 31.09375 61.464844 31.777344 58.6875 C 31.863281 58.101562 32.0625 57.285156 31.648438 56.796875 Z M 31.648438 56.796875 " fill-opacity="1" fill-rule="nonzero"/><path fill="#5a3a1a" d="M 28.210938 54.0625 C 28.5625 53.726562 28.925781 53.386719 29.175781 52.964844 C 29.558594 52.203125 28.417969 51.621094 28.023438 52.375 C 27.144531 53.417969 26.015625 54.207031 24.972656 55.078125 C 21.1875 57.832031 20.808594 60.621094 21.445312 65.042969 C 21.632812 65.882812 22.863281 65.625 22.71875 64.789062 C 22.5 62.949219 22.253906 60.96875 23 59.21875 C 24.035156 56.921875 26.492188 55.78125 28.210938 54.0625 Z M 28.210938 54.0625 " fill-opacity="1" fill-rule="nonzero"/><path fill="#5a3a1a" d="M 18.347656 55.449219 C 18.671875 55.554688 19.078125 55.375 19.167969 55.035156 C 19.929688 50.566406 23.738281 48.660156 27.730469 47.566406 C 28.679688 47.371094 28.410156 46.023438 27.464844 46.273438 C 23.917969 47.304688 19.976562 48.980469 18.527344 52.671875 C 18.277344 53.300781 18.113281 53.96875 17.9375 54.625 C 17.84375 54.96875 18 55.332031 18.347656 55.449219 Z M 18.347656 55.449219 " fill-opacity="1" fill-rule="nonzero"/><path fill="#5a3a1a" d="M 17.636719 46.644531 C 17.933594 46.847656 18.320312 46.75 18.535156 46.464844 C 21.492188 42.71875 25.175781 45.246094 29.136719 43.660156 C 29.105469 43.667969 29.082031 43.675781 29.054688 43.683594 C 29.046875 43.683594 29.042969 43.683594 29.035156 43.6875 C 29.84375 43.535156 29.691406 42.34375 28.878906 42.394531 C 27.769531 42.734375 26.636719 43 25.46875 42.984375 C 22.800781 42.851562 19.886719 42.875 18.015625 45.109375 C 17.589844 45.523438 16.972656 46.140625 17.636719 46.644531 Z M 17.636719 46.644531 " fill-opacity="1" fill-rule="nonzero"/><path fill="#5a3a1a" d="M 75.113281 74.644531 C 74.40625 74.644531 73.8125 75.238281 73.8125 75.945312 C 73.8125 76.65625 74.40625 77.25 75.113281 77.25 C 75.820312 77.25 76.410156 76.65625 76.410156 75.945312 C 76.410156 75.238281 75.820312 74.644531 75.113281 74.644531 Z M 75.113281 74.644531 " fill-opacity="1" fill-rule="nonzero"/><path fill="#c98a3a" d="M 18.882812 37.683594 C 19.589844 37.683594 20.179688 37.09375 20.179688 36.382812 C 20.179688 35.671875 19.589844 35.078125 18.882812 35.078125 C 18.175781 35.078125 17.582031 35.671875 17.582031 36.382812 C 17.582031 37.09375 18.175781 37.683594 18.882812 37.683594 Z M 18.882812 37.683594 " fill-opacity="1" fill-rule="nonzero"/><path fill="#c98a3a" d="M 87.992188 37.96875 C 87.992188 37.261719 87.398438 36.667969 86.691406 36.667969 C 85.984375 36.667969 85.394531 37.261719 85.394531 37.96875 C 85.394531 38.679688 85.984375 39.273438 86.691406 39.273438 C 87.398438 39.273438 87.992188 38.679688 87.992188 37.96875 Z M 87.992188 37.96875 " fill-opacity="1" fill-rule="nonzero"/><path fill="#c98a3a" d="M 34.652344 89.878906 C 34.726562 89.90625 34.804688 89.917969 34.878906 89.917969 C 35.15625 89.917969 35.414062 89.746094 35.511719 89.46875 C 35.636719 89.117188 35.449219 88.730469 35.101562 88.609375 C 18.554688 82.773438 6.894531 67.699219 5.390625 50.203125 C 5.359375 49.832031 5.03125 49.558594 4.664062 49.589844 C 4.292969 49.621094 4.019531 49.949219 4.050781 50.320312 C 5.597656 68.34375 17.609375 83.871094 34.652344 89.878906 Z M 34.652344 89.878906 " fill-opacity="1" fill-rule="nonzero"/><path fill="#c98a3a" d="M 66.707031 89.277344 C 66.792969 89.277344 66.875 89.261719 66.957031 89.226562 C 73.230469 86.726562 78.992188 82.773438 83.621094 77.800781 C 83.875 77.527344 83.859375 77.101562 83.589844 76.847656 C 83.316406 76.59375 82.890625 76.609375 82.636719 76.882812 C 78.144531 81.710938 72.550781 85.546875 66.460938 87.976562 C 66.113281 88.113281 65.945312 88.503906 66.082031 88.851562 C 66.1875 89.113281 66.441406 89.277344 66.707031 89.277344 Z M 66.707031 89.277344 " fill-opacity="1" fill-rule="nonzero"/><g clip-path="url(#b5f1bd4fdf)"><path fill="#c98a3a" d="M 49.9375 0.132812 C 29.234375 0.132812 10.964844 14.097656 5.507812 34.097656 C 5.410156 34.457031 5.621094 34.828125 5.980469 34.925781 C 6.335938 35.023438 6.707031 34.8125 6.804688 34.453125 C 12.101562 15.039062 29.839844 1.480469 49.9375 1.480469 C 74.59375 1.480469 94.652344 21.589844 94.652344 46.308594 C 94.652344 53.757812 92.792969 61.132812 89.273438 67.640625 C 89.097656 67.96875 89.21875 68.375 89.542969 68.554688 C 89.644531 68.609375 89.753906 68.636719 89.863281 68.636719 C 90.101562 68.636719 90.332031 68.507812 90.457031 68.28125 C 94.082031 61.582031 95.996094 53.980469 95.996094 46.308594 C 95.996094 20.84375 75.335938 0.132812 49.9375 0.132812 Z M 49.9375 0.132812 " fill-opacity="1" fill-rule="nonzero"/></g><path fill="#c98a3a" d="M 49.457031 1.625 C 49.085938 1.625 48.785156 1.925781 48.785156 2.300781 L 48.785156 2.820312 C 48.785156 5.191406 46.859375 7.121094 44.492188 7.121094 L 43.976562 7.121094 C 43.601562 7.121094 43.300781 7.421875 43.300781 7.796875 C 43.300781 8.167969 43.601562 8.46875 43.976562 8.46875 L 44.492188 8.46875 C 46.859375 8.46875 48.785156 10.398438 48.785156 12.769531 L 48.785156 13.289062 C 48.785156 13.664062 49.085938 13.964844 49.457031 13.964844 C 49.828125 13.964844 50.128906 13.664062 50.128906 13.289062 L 50.128906 12.769531 C 50.128906 10.398438 52.054688 8.46875 54.417969 8.46875 L 54.9375 8.46875 C 55.308594 8.46875 55.609375 8.167969 55.609375 7.796875 C 55.609375 7.421875 55.308594 7.121094 54.9375 7.121094 L 54.417969 7.121094 C 52.054688 7.121094 50.128906 5.191406 50.128906 2.820312 L 50.128906 2.300781 C 50.128906 1.925781 49.828125 1.625 49.457031 1.625 Z M 51.753906 7.796875 C 50.78125 8.320312 49.980469 9.125 49.457031 10.097656 C 48.933594 9.125 48.132812 8.320312 47.160156 7.796875 C 48.132812 7.269531 48.933594 6.46875 49.457031 5.492188 C 49.980469 6.46875 50.78125 7.269531 51.753906 7.796875 Z M 51.753906 7.796875 " fill-opacity="1" fill-rule="nonzero"/><path fill="#a66a2c" d="M 4.273438 46.636719 C 4.273438 47.007812 4.578125 47.3125 4.949219 47.3125 C 5.320312 47.3125 5.621094 47.007812 5.621094 46.636719 L 5.621094 46.230469 C 5.621094 44.460938 7.054688 43.023438 8.816406 43.023438 L 9.222656 43.023438 C 9.59375 43.023438 9.894531 42.722656 9.894531 42.351562 C 9.894531 41.976562 9.59375 41.675781 9.222656 41.675781 L 8.816406 41.675781 C 7.054688 41.675781 5.621094 40.238281 5.621094 38.46875 L 5.621094 38.0625 C 5.621094 37.691406 5.320312 37.390625 4.949219 37.390625 C 4.578125 37.390625 4.273438 37.691406 4.273438 38.0625 L 4.273438 38.46875 C 4.273438 40.238281 2.839844 41.675781 1.078125 41.675781 L 0.671875 41.675781 C 0.300781 41.675781 0 41.976562 0 42.351562 C 0 42.722656 0.300781 43.023438 0.671875 43.023438 L 1.078125 43.023438 C 2.839844 43.023438 4.273438 44.460938 4.273438 46.230469 Z M 3.445312 42.351562 C 4.054688 41.972656 4.570312 41.457031 4.949219 40.84375 C 5.324219 41.457031 5.839844 41.972656 6.453125 42.351562 C 5.839844 42.726562 5.324219 43.246094 4.949219 43.859375 C 4.570312 43.246094 4.054688 42.726562 3.445312 42.351562 Z M 3.445312 42.351562 " fill-opacity="1" fill-rule="nonzero"/><path fill="#c98a3a" d="M 86.847656 78.042969 C 87.21875 78.042969 87.523438 77.738281 87.523438 77.367188 L 87.523438 76.960938 C 87.523438 75.191406 88.957031 73.753906 90.71875 73.753906 L 91.125 73.753906 C 91.496094 73.753906 91.796875 73.453125 91.796875 73.082031 C 91.796875 72.707031 91.496094 72.40625 91.125 72.40625 L 90.71875 72.40625 C 88.957031 72.40625 87.523438 70.96875 87.523438 69.199219 L 87.523438 68.792969 C 87.523438 68.421875 87.21875 68.121094 86.847656 68.121094 C 86.476562 68.121094 86.175781 68.421875 86.175781 68.792969 L 86.175781 69.199219 C 86.175781 70.96875 84.742188 72.40625 82.980469 72.40625 L 82.574219 72.40625 C 82.203125 72.40625 81.902344 72.707031 81.902344 73.082031 C 81.902344 73.453125 82.203125 73.753906 82.574219 73.753906 L 82.980469 73.753906 C 84.742188 73.753906 86.175781 75.191406 86.175781 76.960938 L 86.175781 77.367188 C 86.175781 77.738281 86.476562 78.042969 86.847656 78.042969 Z M 85.34375 73.082031 C 85.957031 72.703125 86.472656 72.1875 86.847656 71.574219 C 87.226562 72.1875 87.742188 72.703125 88.351562 73.082031 C 87.742188 73.457031 87.226562 73.972656 86.847656 74.589844 C 86.472656 73.972656 85.957031 73.457031 85.34375 73.082031 Z M 85.34375 73.082031 " fill-opacity="1" fill-rule="nonzero"/><path fill="#c98a3a" d="M 54.976562 43.683594 C 55.347656 43.683594 55.652344 43.382812 55.652344 43.007812 L 55.652344 42.308594 C 55.652344 41.394531 56.394531 40.652344 57.304688 40.652344 L 58.003906 40.652344 C 58.375 40.652344 58.675781 40.347656 58.675781 39.976562 C 58.675781 39.605469 58.375 39.300781 58.003906 39.300781 L 57.304688 39.300781 C 56.394531 39.300781 55.652344 38.558594 55.652344 37.644531 L 55.652344 36.941406 C 55.652344 36.570312 55.347656 36.269531 54.976562 36.269531 C 54.605469 36.269531 54.304688 36.570312 54.304688 36.941406 L 54.304688 37.644531 C 54.304688 38.558594 53.5625 39.300781 52.652344 39.300781 L 51.953125 39.300781 C 51.582031 39.300781 51.28125 39.605469 51.28125 39.976562 C 51.28125 40.347656 51.582031 40.652344 51.953125 40.652344 L 52.652344 40.652344 C 53.5625 40.652344 54.304688 41.394531 54.304688 42.308594 L 54.304688 43.007812 C 54.304688 43.382812 54.605469 43.683594 54.976562 43.683594 Z M 54.539062 39.976562 C 54.699219 39.84375 54.847656 39.699219 54.976562 39.535156 C 55.109375 39.699219 55.253906 39.84375 55.417969 39.976562 C 55.253906 40.105469 55.109375 40.253906 54.976562 40.414062 C 54.847656 40.253906 54.699219 40.105469 54.539062 39.976562 Z M 54.539062 39.976562 " fill-opacity="1" fill-rule="nonzero"/><path fill="#5a3a1a" d="M 26.917969 81.933594 C 27.289062 81.933594 27.589844 81.628906 27.589844 81.257812 L 27.589844 80.558594 C 27.589844 79.644531 28.332031 78.898438 29.246094 78.898438 L 29.941406 78.898438 C 30.3125 78.898438 30.613281 78.597656 30.613281 78.222656 C 30.613281 77.851562 30.3125 77.550781 29.941406 77.550781 L 29.246094 77.550781 C 28.332031 77.550781 27.589844 76.804688 27.589844 75.890625 L 27.589844 75.191406 C 27.589844 74.820312 27.289062 74.515625 26.917969 74.515625 C 26.546875 74.515625 26.246094 74.820312 26.246094 75.191406 L 26.246094 75.890625 C 26.246094 76.804688 25.503906 77.550781 24.589844 77.550781 L 23.890625 77.550781 C 23.519531 77.550781 23.21875 77.851562 23.21875 78.222656 C 23.21875 78.597656 23.519531 78.898438 23.890625 78.898438 L 24.589844 78.898438 C 25.503906 78.898438 26.246094 79.644531 26.246094 80.558594 L 26.246094 81.257812 C 26.246094 81.628906 26.546875 81.933594 26.917969 81.933594 Z M 26.480469 78.222656 C 26.640625 78.09375 26.785156 77.945312 26.917969 77.785156 C 27.046875 77.945312 27.195312 78.09375 27.355469 78.222656 C 27.195312 78.355469 27.046875 78.503906 26.917969 78.664062 C 26.785156 78.503906 26.640625 78.355469 26.480469 78.222656 Z M 26.480469 78.222656 " fill-opacity="1" fill-rule="nonzero"/><path fill="#5a3a1a" d="M 84.667969 26.773438 C 84.296875 26.773438 83.996094 27.074219 83.996094 27.445312 L 83.996094 28.148438 C 83.996094 29.0625 83.253906 29.804688 82.339844 29.804688 L 81.640625 29.804688 C 81.269531 29.804688 80.96875 30.109375 80.96875 30.480469 C 80.96875 30.851562 81.269531 31.15625 81.640625 31.15625 L 82.339844 31.15625 C 83.253906 31.15625 83.996094 31.898438 83.996094 32.8125 L 83.996094 33.515625 C 83.996094 33.886719 84.296875 34.1875 84.667969 34.1875 C 85.039062 34.1875 85.339844 33.886719 85.339844 33.515625 L 85.339844 32.8125 C 85.339844 31.898438 86.082031 31.15625 86.996094 31.15625 L 87.695312 31.15625 C 88.066406 31.15625 88.367188 30.851562 88.367188 30.480469 C 88.367188 30.109375 88.066406 29.804688 87.695312 29.804688 L 86.996094 29.804688 C 86.082031 29.804688 85.339844 29.0625 85.339844 28.148438 L 85.339844 27.445312 C 85.339844 27.074219 85.039062 26.773438 84.667969 26.773438 Z M 85.105469 30.480469 C 84.945312 30.609375 84.796875 30.757812 84.667969 30.917969 C 84.539062 30.757812 84.390625 30.609375 84.230469 30.480469 C 84.390625 30.347656 84.539062 30.203125 84.667969 30.039062 C 84.796875 30.203125 84.945312 30.347656 85.105469 30.480469 Z M 85.105469 30.480469 " fill-opacity="1" fill-rule="nonzero"/></svg>