<svg xmlns="http://www.w3.org/2000/svg" xmlns:xlink="http://www.w3.org/1999/xlink" width="128" zoomAndPan="magnify" viewBox="0 0 96 95.999999" height="128" preserveAspectRatio="xMidYMid meet" version="1.0"><defs><clipPath id="42a1497a61"><path d="M 17 0 L 93.269531 0 L 93.269531 69 L 17 69 Z M 17 0 " clip-rule="nonzero"/></clipPath><clipPath id="494d9e3e2b"><path d="M 2.519531 18 L 13 18 L 13 68 L 2.519531 68 Z M 2.519531 18 " clip-rule="nonzero"/></clipPath></defs><path fill="#c98a3a" d="M 51.324219 17.65625 C 51.324219 17.65625 51.320312 17.65625 51.320312 17.660156 C 51.320312 17.65625 51.324219 17.65625 51.324219 17.65625 Z M 51.324219 17.65625 " fill-opacity="1" fill-rule="nonzero"/><path fill="#a66a2c" d="M 46.953125 7.097656 C 46.949219 7.09375 46.949219 7.089844 46.949219 7.089844 C 46.921875 6.882812 46.804688 6.683594 46.683594 6.527344 C 46.511719 6.339844 46.253906 6.3125 46.003906 6.351562 C 45.925781 6.359375 45.851562 6.367188 45.777344 6.386719 C 44.859375 6.539062 43.960938 6.832031 43.132812 7.261719 C 40.984375 8.367188 39.328125 10.320312 38.605469 12.632812 C 37.855469 15.039062 38.140625 17.691406 39.386719 19.878906 C 40.042969 21.027344 40.941406 22.019531 42.015625 22.785156 C 43.011719 23.496094 44.15625 23.992188 45.351562 24.257812 C 45.503906 24.289062 45.660156 24.320312 45.816406 24.347656 C 46.746094 24.5 47.699219 24.5 48.628906 24.359375 C 49.761719 24.183594 50.839844 23.796875 51.832031 23.226562 C 53.277344 22.386719 54.476562 21.148438 55.265625 19.675781 C 55.820312 18.636719 56.167969 17.503906 56.296875 16.335938 C 56.363281 15.738281 56.367188 15.132812 56.3125 14.535156 C 56.289062 14.285156 56.253906 14.039062 56.214844 13.789062 C 56.167969 13.492188 55.890625 13.230469 55.535156 13.253906 C 55.433594 13.261719 55.339844 13.300781 55.253906 13.351562 C 55.101562 13.40625 54.964844 13.515625 54.898438 13.671875 C 54.867188 13.738281 54.839844 13.800781 54.808594 13.863281 C 54.804688 13.867188 54.804688 13.875 54.800781 13.878906 C 54.710938 14.050781 54.628906 14.226562 54.535156 14.394531 C 54.332031 14.746094 54.109375 15.085938 53.863281 15.414062 L 53.859375 15.414062 C 53.855469 15.425781 53.847656 15.433594 53.839844 15.441406 C 53.617188 15.730469 53.359375 16.023438 53.085938 16.296875 C 52.820312 16.5625 52.539062 16.808594 52.246094 17.039062 C 51.957031 17.257812 51.65625 17.460938 51.347656 17.644531 C 51.34375 17.644531 51.335938 17.652344 51.324219 17.65625 C 51.320312 17.660156 51.320312 17.660156 51.316406 17.660156 C 51.320312 17.660156 51.320312 17.660156 51.320312 17.660156 C 51.320312 17.660156 51.320312 17.65625 51.320312 17.65625 C 51.320312 17.660156 51.320312 17.660156 51.316406 17.660156 C 51.042969 17.816406 50.761719 17.957031 50.472656 18.082031 L 50.46875 18.082031 C 50.453125 18.089844 50.4375 18.097656 50.421875 18.101562 C 50.191406 18.195312 49.921875 18.292969 49.648438 18.371094 C 49.371094 18.449219 49.089844 18.507812 48.800781 18.554688 C 48.554688 18.585938 48.304688 18.605469 48.054688 18.613281 L 48.039062 18.613281 C 48.027344 18.613281 48.015625 18.613281 48.003906 18.613281 C 47.8125 18.613281 47.59375 18.601562 47.371094 18.578125 C 47.152344 18.550781 46.933594 18.507812 46.714844 18.457031 C 46.519531 18.402344 46.328125 18.339844 46.140625 18.265625 C 45.957031 18.1875 45.78125 18.101562 45.609375 18.003906 C 45.457031 17.914062 45.3125 17.816406 45.171875 17.710938 C 45.027344 17.59375 44.882812 17.472656 44.753906 17.339844 C 44.632812 17.21875 44.523438 17.089844 44.417969 16.957031 C 44.3125 16.8125 44.210938 16.667969 44.121094 16.515625 C 44.019531 16.339844 43.929688 16.15625 43.847656 15.972656 C 43.773438 15.78125 43.707031 15.589844 43.648438 15.394531 C 43.644531 15.375 43.640625 15.359375 43.636719 15.339844 C 43.585938 15.140625 43.542969 14.9375 43.511719 14.734375 C 43.476562 14.480469 43.460938 14.226562 43.453125 13.96875 C 43.453125 13.699219 43.46875 13.425781 43.5 13.160156 C 43.539062 12.835938 43.601562 12.515625 43.679688 12.203125 C 43.765625 11.871094 43.875 11.550781 44 11.230469 C 44.148438 10.875 44.320312 10.527344 44.511719 10.191406 C 44.667969 9.917969 44.886719 9.585938 45.128906 9.265625 C 45.371094 8.953125 45.628906 8.652344 45.910156 8.367188 C 45.914062 8.367188 45.917969 8.363281 45.917969 8.359375 C 46.128906 8.152344 46.347656 7.957031 46.574219 7.773438 C 46.714844 7.679688 46.871094 7.492188 46.902344 7.429688 C 46.953125 7.347656 46.964844 7.246094 46.957031 7.144531 C 46.957031 7.128906 46.953125 7.113281 46.953125 7.097656 Z M 42.40625 12.027344 C 42.109375 13.246094 42.089844 14.527344 42.421875 15.742188 C 42.570312 16.289062 42.816406 16.871094 43.164062 17.394531 C 43.496094 17.90625 43.917969 18.355469 44.398438 18.730469 C 45.148438 19.296875 46.027344 19.660156 46.949219 19.8125 C 47.171875 19.847656 47.398438 19.875 47.628906 19.882812 C 49.167969 19.960938 50.683594 19.503906 52.011719 18.734375 C 52.816406 18.269531 53.609375 17.628906 54.296875 16.882812 C 54.566406 16.589844 54.8125 16.277344 55.042969 15.953125 C 55.035156 16.089844 55.023438 16.226562 55.007812 16.363281 C 54.964844 16.683594 54.902344 17.003906 54.824219 17.316406 C 54.730469 17.664062 54.617188 18.003906 54.484375 18.335938 C 54.351562 18.652344 54.203125 18.957031 54.035156 19.253906 C 53.859375 19.558594 53.664062 19.847656 53.453125 20.128906 C 53.246094 20.398438 53.019531 20.652344 52.785156 20.894531 C 52.535156 21.136719 52.273438 21.367188 52 21.582031 C 51.738281 21.777344 51.464844 21.957031 51.183594 22.125 L 51.164062 22.140625 C 50.882812 22.296875 50.59375 22.441406 50.300781 22.566406 C 49.976562 22.699219 49.644531 22.816406 49.308594 22.910156 C 48.988281 22.992188 48.664062 23.058594 48.335938 23.109375 C 48.015625 23.148438 47.695312 23.171875 47.371094 23.179688 C 47.023438 23.183594 46.679688 23.164062 46.332031 23.125 C 45.980469 23.078125 45.632812 23.011719 45.289062 22.925781 C 44.960938 22.835938 44.632812 22.726562 44.316406 22.597656 C 43.988281 22.460938 43.671875 22.308594 43.363281 22.132812 C 43.078125 21.960938 42.800781 21.777344 42.535156 21.578125 L 42.527344 21.570312 C 42.515625 21.5625 42.503906 21.554688 42.496094 21.546875 C 42.242188 21.347656 41.976562 21.113281 41.722656 20.863281 C 41.484375 20.617188 41.261719 20.359375 41.054688 20.089844 C 40.871094 19.84375 40.691406 19.578125 40.53125 19.304688 C 40.363281 19.007812 40.207031 18.695312 40.070312 18.375 C 39.941406 18.058594 39.828125 17.734375 39.738281 17.402344 C 39.65625 17.097656 39.59375 16.785156 39.546875 16.472656 C 39.5 16.136719 39.472656 15.796875 39.46875 15.457031 C 39.464844 15.113281 39.484375 14.769531 39.523438 14.421875 C 39.566406 14.078125 39.632812 13.738281 39.714844 13.402344 C 39.804688 13.0625 39.917969 12.730469 40.042969 12.40625 C 40.179688 12.085938 40.328125 11.777344 40.496094 11.476562 C 40.671875 11.175781 40.871094 10.878906 41.082031 10.597656 L 41.082031 10.59375 C 41.09375 10.582031 41.105469 10.566406 41.117188 10.550781 C 41.292969 10.328125 41.515625 10.070312 41.753906 9.828125 C 41.992188 9.59375 42.246094 9.375 42.507812 9.167969 C 42.785156 8.957031 43.070312 8.765625 43.371094 8.589844 C 43.648438 8.433594 43.929688 8.289062 44.21875 8.164062 C 44.292969 8.132812 44.367188 8.109375 44.441406 8.078125 C 44.359375 8.175781 44.28125 8.269531 44.203125 8.371094 C 43.359375 9.449219 42.730469 10.691406 42.40625 12.027344 Z M 42.40625 12.027344 " fill-opacity="1" fill-rule="nonzero"/><path fill="#c98a3a" d="M 33.199219 32.890625 C 32.953125 33.117188 32.800781 33.4375 32.785156 33.769531 C 32.75 34.441406 33.300781 35.113281 33.996094 35.113281 C 34.34375 35.113281 34.667969 35.019531 34.925781 34.78125 C 35.171875 34.554688 35.324219 34.234375 35.339844 33.902344 C 35.371094 33.230469 34.824219 32.554688 34.128906 32.554688 C 33.78125 32.554688 33.457031 32.652344 33.199219 32.890625 Z M 33.199219 32.890625 " fill-opacity="1" fill-rule="nonzero"/><path fill="#5a3a1a" d="M 37.304688 39.234375 C 36.960938 39.234375 36.636719 39.332031 36.375 39.570312 C 36.128906 39.796875 35.980469 40.117188 35.964844 40.449219 C 35.929688 41.121094 36.476562 41.796875 37.175781 41.796875 C 37.523438 41.796875 37.84375 41.699219 38.105469 41.460938 C 38.351562 41.234375 38.5 40.914062 38.515625 40.582031 C 38.550781 39.910156 38.003906 39.234375 37.304688 39.234375 Z M 37.304688 39.234375 " fill-opacity="1" fill-rule="nonzero"/><path fill="#5a3a1a" d="M 22.71875 76.15625 C 22.371094 76.15625 22.050781 76.253906 21.789062 76.492188 C 21.542969 76.71875 21.394531 77.039062 21.378906 77.371094 C 21.34375 78.039062 21.890625 78.714844 22.589844 78.714844 C 22.9375 78.714844 23.257812 78.621094 23.519531 78.382812 C 23.765625 78.15625 23.914062 77.835938 23.929688 77.503906 C 23.964844 76.832031 23.417969 76.15625 22.71875 76.15625 Z M 22.71875 76.15625 " fill-opacity="1" fill-rule="nonzero"/><path fill="#c98a3a" d="M 58.65625 62.160156 C 58.410156 62.386719 58.257812 62.707031 58.242188 63.039062 C 58.207031 63.710938 58.753906 64.386719 59.453125 64.386719 C 59.800781 64.386719 60.125 64.289062 60.382812 64.050781 C 60.628906 63.824219 60.777344 63.503906 60.796875 63.171875 C 60.832031 62.5 60.28125 61.824219 59.585938 61.824219 C 59.238281 61.824219 58.914062 61.921875 58.65625 62.160156 Z M 58.65625 62.160156 " fill-opacity="1" fill-rule="nonzero"/><path fill="#c98a3a" d="M 9.511719 70.976562 C 12.136719 72.40625 15.265625 71.367188 17.589844 69.804688 C 18.785156 69.144531 20 67.804688 21.480469 68.355469 C 24.074219 69.085938 26.179688 71.066406 28.859375 71.53125 C 32.476562 71.910156 35.582031 67.214844 40.175781 68.480469 C 41.457031 68.8125 42.597656 69.507812 43.65625 70.285156 C 44.550781 70.921875 45.613281 71.515625 46.75 71.34375 C 47.472656 71.257812 48.175781 71.097656 48.871094 70.875 C 50.835938 70.285156 52.363281 68.75 54.332031 68.183594 C 58.164062 67.109375 60.777344 71.207031 64.332031 71.597656 C 65.808594 71.746094 67.273438 71.234375 68.582031 70.589844 C 70.597656 69.550781 72.800781 67.816406 75.1875 68.898438 C 76.496094 69.414062 77.46875 70.480469 78.667969 71.183594 C 79.625 71.671875 80.699219 71.972656 81.769531 72.070312 C 82.667969 72.191406 85.484375 71.703125 85.523438 70.589844 C 85.503906 70.226562 85.199219 69.984375 84.847656 69.984375 C 84.328125 70.109375 83.925781 70.554688 83.375 70.632812 C 81.976562 71.015625 80.492188 70.65625 79.21875 70.023438 C 77.921875 69.1875 76.796875 68.03125 75.289062 67.566406 C 71.886719 66.316406 69.324219 69.230469 66.292969 70.125 C 64.828125 70.605469 63.304688 70.246094 62.046875 69.40625 C 60.335938 68.414062 58.667969 67.152344 56.671875 66.820312 C 52.6875 66.070312 50.367188 69.816406 46.554688 70.082031 C 45.28125 70.164062 44.335938 69.097656 43.320312 68.496094 C 39.476562 65.976562 36.035156 66.976562 32.351562 69.167969 C 30.660156 70.105469 29.511719 70.730469 27.589844 69.828125 C 25.339844 68.859375 23.285156 67.222656 20.796875 66.925781 C 19.664062 66.894531 18.6875 67.570312 17.777344 68.164062 C 15.96875 69.351562 13.921875 70.65625 11.640625 70.324219 C 11.097656 70.242188 10.558594 70.105469 10.082031 69.828125 C 9.296875 69.464844 8.800781 70.585938 9.511719 70.976562 Z M 9.511719 70.976562 " fill-opacity="1" fill-rule="nonzero"/><path fill="#c98a3a" d="M 20.230469 74.355469 C 21.433594 74.03125 22.699219 74.132812 23.882812 74.472656 C 26.1875 75.171875 28.472656 76.476562 30.957031 76 C 33.039062 75.597656 34.851562 74.378906 36.914062 73.890625 C 41.011719 72.621094 43.445312 75.460938 47.25 75.683594 C 49.570312 75.824219 51.527344 74.539062 53.703125 73.972656 C 55.878906 73.390625 58.230469 73.8125 60.132812 75.015625 C 61.417969 75.796875 62.703125 76.695312 64.246094 76.890625 C 66.359375 77.230469 68.453125 76.542969 70.359375 75.695312 C 72.445312 74.808594 74.785156 74.648438 76.945312 75.371094 C 78.28125 75.707031 79.480469 76.523438 80.875 76.644531 C 81.21875 76.667969 81.53125 76.402344 81.554688 76.050781 C 81.582031 75.320312 80.847656 75.386719 80.335938 75.242188 C 78.488281 74.59375 76.648438 73.71875 74.652344 73.632812 C 70.046875 73.214844 66.613281 77.582031 62.109375 74.722656 C 58.550781 72.253906 55.234375 71.707031 51.183594 73.476562 C 50.503906 73.75 49.824219 74.011719 49.105469 74.207031 C 45.3125 75.261719 42.09375 71.71875 38.289062 72.34375 C 36.1875 72.550781 34.246094 73.4375 32.328125 74.261719 C 27.375 76.402344 24.40625 71.164062 18.8125 73.457031 C 17.542969 73.894531 16.3125 74.445312 15.015625 74.792969 C 14.457031 75.015625 13.5 74.714844 13.394531 75.535156 C 13.363281 77.523438 19.019531 74.496094 20.230469 74.355469 Z M 20.230469 74.355469 " fill-opacity="1" fill-rule="nonzero"/><path fill="#c98a3a" d="M 63.851562 81.386719 C 65.675781 81.476562 67.519531 81.460938 69.191406 80.59375 C 69.496094 80.429688 69.652344 80.070312 69.496094 79.742188 C 69.148438 79.117188 68.625 79.445312 68.140625 79.664062 C 66.644531 80.257812 64.949219 80.183594 63.367188 80.054688 C 61.695312 79.828125 60.128906 79.027344 58.488281 78.5625 C 56.5 77.976562 54.34375 78.125 52.476562 79.042969 C 50.085938 80.265625 47.230469 81.226562 44.621094 80.09375 C 42.878906 79.308594 41.230469 78.265625 39.339844 77.863281 C 35.238281 76.878906 31.394531 80.152344 27.285156 79.246094 C 26.9375 79.152344 26.597656 78.871094 26.242188 79.125 C 24.882812 80.640625 28.566406 80.773438 29.460938 80.664062 C 31.5 80.507812 33.4375 79.785156 35.40625 79.285156 C 35.390625 79.289062 35.375 79.292969 35.359375 79.296875 C 35.339844 79.300781 35.324219 79.304688 35.304688 79.308594 C 40.246094 77.761719 42.46875 81.640625 46.804688 81.867188 C 48.507812 81.972656 50.203125 81.492188 51.746094 80.796875 C 53.113281 80.152344 54.515625 79.441406 56.066406 79.484375 C 58.765625 79.519531 61.140625 81.277344 63.855469 81.386719 Z M 63.851562 81.386719 " fill-opacity="1" fill-rule="nonzero"/><path fill="#5a3a1a" d="M 58.949219 26.128906 C 56.835938 26.136719 54.726562 26.148438 52.617188 26.148438 C 52.265625 26.148438 51.96875 26.40625 51.953125 26.765625 C 51.941406 27.105469 52.222656 27.429688 52.570312 27.429688 C 52.6875 27.429688 52.808594 27.425781 52.925781 27.425781 C 55.222656 27.421875 57.523438 27.417969 59.828125 27.410156 C 62.199219 27.402344 64.574219 27.398438 66.949219 27.390625 C 69.257812 27.386719 71.5625 27.378906 73.867188 27.375 C 75.492188 27.371094 77.117188 27.375 78.742188 27.359375 C 79.089844 27.359375 79.390625 27.101562 79.40625 26.742188 C 79.40625 26.722656 79.402344 26.703125 79.402344 26.6875 C 79.425781 26.59375 79.433594 26.5 79.421875 26.398438 C 79.417969 26.378906 79.414062 26.359375 79.410156 26.339844 C 79.410156 26.328125 79.40625 26.316406 79.40625 26.308594 C 79.402344 26.296875 79.402344 26.289062 79.398438 26.277344 C 79.285156 25.722656 79.039062 25.207031 78.679688 24.769531 C 78.335938 24.355469 77.890625 24.042969 77.402344 23.828125 C 76.710938 23.546875 75.96875 23.496094 75.242188 23.683594 C 75.203125 23.691406 75.148438 23.707031 75.089844 23.726562 C 74 24.082031 73.144531 24.992188 72.863281 26.09375 C 70.550781 26.101562 68.238281 26.109375 65.925781 26.113281 C 63.601562 26.117188 61.273438 26.125 58.949219 26.128906 Z M 74.492188 25.628906 C 74.550781 25.558594 74.609375 25.492188 74.675781 25.425781 C 74.742188 25.363281 74.8125 25.304688 74.890625 25.246094 C 74.960938 25.199219 75.03125 25.152344 75.105469 25.109375 C 75.183594 25.066406 75.265625 25.027344 75.347656 24.992188 C 75.425781 24.964844 75.507812 24.9375 75.589844 24.914062 C 75.675781 24.894531 75.765625 24.878906 75.851562 24.863281 C 75.9375 24.855469 76.023438 24.851562 76.109375 24.847656 C 76.203125 24.851562 76.296875 24.855469 76.390625 24.867188 C 76.484375 24.882812 76.578125 24.902344 76.667969 24.925781 C 76.753906 24.949219 76.839844 24.980469 76.921875 25.011719 C 77.011719 25.054688 77.097656 25.097656 77.183594 25.148438 C 77.261719 25.199219 77.339844 25.25 77.414062 25.308594 C 77.480469 25.363281 77.542969 25.425781 77.605469 25.488281 C 77.667969 25.558594 77.730469 25.628906 77.785156 25.703125 C 77.835938 25.777344 77.882812 25.847656 77.925781 25.925781 C 77.953125 25.976562 77.976562 26.027344 78 26.082031 C 76.738281 26.085938 75.472656 26.089844 74.210938 26.089844 C 74.246094 26.011719 74.289062 25.933594 74.332031 25.859375 C 74.382812 25.78125 74.433594 25.703125 74.492188 25.628906 Z M 74.492188 25.628906 " fill-opacity="1" fill-rule="nonzero"/><path fill="#5a3a1a" d="M 66.921875 46.105469 C 66.890625 46.160156 66.867188 46.21875 66.84375 46.273438 L 66.835938 46.296875 C 66.816406 46.335938 66.800781 46.375 66.78125 46.417969 C 66.757812 46.472656 66.726562 46.539062 66.695312 46.605469 C 66.679688 46.640625 66.664062 46.675781 66.648438 46.707031 C 66.636719 46.734375 66.625 46.757812 66.613281 46.785156 C 66.601562 46.808594 66.59375 46.828125 66.585938 46.851562 C 66.5625 46.898438 66.542969 46.945312 66.519531 46.996094 C 66.503906 47.03125 66.488281 47.066406 66.472656 47.097656 L 66.4375 47.175781 L 66.414062 47.238281 C 66.398438 47.261719 66.390625 47.285156 66.378906 47.308594 C 66.359375 47.351562 66.339844 47.394531 66.324219 47.433594 C 66.3125 47.457031 66.300781 47.480469 66.289062 47.503906 C 66.273438 47.546875 66.253906 47.589844 66.234375 47.632812 L 66.1875 47.734375 C 66.167969 47.773438 66.152344 47.8125 66.132812 47.851562 C 66.121094 47.878906 66.109375 47.910156 66.097656 47.933594 C 66.097656 47.9375 66.089844 47.949219 66.085938 47.960938 C 66.082031 47.96875 66.082031 47.972656 66.078125 47.976562 C 66.074219 47.988281 66.070312 47.996094 66.066406 48.003906 C 66.0625 48.011719 66.058594 48.015625 66.054688 48.023438 C 66.039062 48.0625 66.023438 48.097656 66.007812 48.136719 C 65.996094 48.160156 65.984375 48.183594 65.976562 48.207031 C 65.964844 48.226562 65.957031 48.246094 65.949219 48.265625 C 65.933594 48.304688 65.914062 48.339844 65.898438 48.378906 L 65.871094 48.4375 C 65.851562 48.480469 65.832031 48.523438 65.8125 48.566406 C 65.800781 48.597656 65.785156 48.632812 65.769531 48.664062 C 65.738281 48.730469 65.710938 48.792969 65.683594 48.855469 C 65.671875 48.878906 65.660156 48.902344 65.652344 48.925781 C 65.628906 48.980469 65.605469 49.03125 65.582031 49.085938 C 65.574219 49.101562 65.566406 49.117188 65.558594 49.132812 C 65.527344 49.199219 65.5 49.261719 65.46875 49.328125 L 65.429688 49.417969 C 65.425781 49.429688 65.421875 49.4375 65.417969 49.445312 C 65.40625 49.472656 65.394531 49.5 65.382812 49.527344 C 65.378906 49.535156 65.371094 49.550781 65.363281 49.566406 C 65.359375 49.574219 65.355469 49.582031 65.351562 49.589844 C 64.914062 49.589844 64.476562 49.589844 64.039062 49.589844 C 63.75 49.589844 63.492188 49.761719 63.40625 50.027344 C 63.277344 50.222656 63.253906 50.484375 63.375 50.695312 C 63.378906 50.703125 63.382812 50.710938 63.386719 50.714844 C 63.390625 50.722656 63.394531 50.726562 63.398438 50.734375 C 63.515625 50.9375 63.640625 51.140625 63.769531 51.339844 C 63.859375 51.476562 63.964844 51.636719 64.078125 51.792969 C 64.746094 52.738281 65.542969 53.589844 66.429688 54.332031 C 67.65625 55.363281 69.082031 56.164062 70.59375 56.691406 C 72.019531 57.191406 73.523438 57.441406 75.03125 57.441406 C 75.234375 57.441406 75.4375 57.4375 75.640625 57.429688 C 76.234375 57.398438 76.824219 57.332031 77.410156 57.226562 C 77.53125 57.207031 77.730469 57.167969 77.929688 57.125 C 79.515625 56.769531 81.023438 56.128906 82.382812 55.238281 C 83.367188 54.589844 84.277344 53.800781 85.074219 52.902344 C 85.179688 52.78125 85.304688 52.640625 85.421875 52.496094 C 85.851562 51.96875 86.246094 51.40625 86.585938 50.816406 C 86.769531 50.710938 86.898438 50.527344 86.910156 50.296875 L 86.910156 50.265625 C 86.90625 49.941406 86.636719 49.628906 86.300781 49.628906 L 86.238281 49.628906 C 85.914062 49.625 85.59375 49.625 85.269531 49.625 C 85.261719 49.59375 85.253906 49.5625 85.238281 49.53125 C 85.175781 49.386719 85.109375 49.246094 85.046875 49.101562 C 84.402344 47.660156 83.75 46.222656 83.101562 44.785156 C 82.191406 42.757812 81.28125 40.734375 80.371094 38.710938 C 79.433594 36.628906 78.496094 34.546875 77.558594 32.464844 C 77.175781 31.609375 76.789062 30.753906 76.40625 29.898438 C 76.242188 29.539062 76.085938 29.171875 75.917969 28.8125 C 75.769531 28.5 75.390625 28.351562 75.070312 28.496094 C 75.046875 28.507812 75.03125 28.519531 75.011719 28.53125 C 75.007812 28.535156 75 28.535156 74.996094 28.535156 C 74.847656 28.605469 74.75 28.71875 74.683594 28.859375 L 74.679688 28.867188 L 74.667969 28.894531 L 74.664062 28.902344 C 74.660156 28.914062 74.652344 28.925781 74.648438 28.9375 C 74.644531 28.945312 74.640625 28.949219 74.640625 28.957031 L 74.636719 28.960938 L 74.636719 28.964844 C 74.632812 28.964844 74.632812 28.96875 74.632812 28.972656 C 74.632812 28.96875 74.632812 28.96875 74.636719 28.964844 C 74.632812 28.96875 74.632812 28.96875 74.632812 28.972656 L 74.628906 28.976562 C 74.628906 28.980469 74.628906 28.984375 74.625 28.988281 C 74.625 28.984375 74.625 28.984375 74.625 28.984375 C 74.625 28.988281 74.621094 28.992188 74.621094 28.996094 L 74.617188 29.003906 C 74.617188 29.003906 74.617188 29.007812 74.613281 29.007812 C 74.613281 29.007812 74.617188 29.007812 74.617188 29.007812 C 74.613281 29.007812 74.613281 29.007812 74.613281 29.007812 C 74.613281 29.007812 74.613281 29.007812 74.613281 29.011719 C 74.613281 29.011719 74.609375 29.015625 74.609375 29.019531 C 74.609375 29.027344 74.601562 29.039062 74.597656 29.046875 C 74.585938 29.078125 74.570312 29.109375 74.554688 29.140625 L 74.527344 29.199219 C 74.515625 29.234375 74.5 29.265625 74.484375 29.300781 C 74.46875 29.335938 74.453125 29.367188 74.4375 29.402344 L 74.433594 29.410156 C 74.421875 29.4375 74.410156 29.460938 74.398438 29.488281 C 74.398438 29.492188 74.398438 29.496094 74.394531 29.496094 C 74.394531 29.5 74.394531 29.5 74.394531 29.5 C 74.390625 29.503906 74.390625 29.507812 74.386719 29.515625 C 74.386719 29.515625 74.386719 29.519531 74.386719 29.519531 C 74.371094 29.546875 74.359375 29.578125 74.347656 29.605469 L 74.3125 29.683594 C 74.300781 29.707031 74.289062 29.730469 74.28125 29.753906 L 74.277344 29.757812 C 74.277344 29.761719 74.277344 29.761719 74.277344 29.761719 C 74.265625 29.78125 74.257812 29.804688 74.246094 29.824219 L 74.246094 29.828125 C 74.242188 29.832031 74.242188 29.832031 74.242188 29.835938 C 74.242188 29.839844 74.238281 29.84375 74.238281 29.847656 C 74.222656 29.875 74.210938 29.90625 74.199219 29.933594 C 74.179688 29.980469 74.15625 30.027344 74.136719 30.074219 C 74.132812 30.082031 74.128906 30.09375 74.125 30.101562 C 74.121094 30.109375 74.117188 30.113281 74.113281 30.121094 C 74.101562 30.148438 74.089844 30.179688 74.074219 30.210938 L 74.058594 30.246094 C 74.054688 30.253906 74.046875 30.265625 74.042969 30.273438 C 74.042969 30.28125 74.039062 30.285156 74.039062 30.289062 C 74.039062 30.289062 74.035156 30.292969 74.035156 30.292969 C 74.03125 30.304688 74.023438 30.320312 74.019531 30.332031 C 74.015625 30.335938 74.015625 30.34375 74.011719 30.347656 C 74.011719 30.347656 74.007812 30.355469 74.003906 30.367188 C 74.003906 30.367188 74.003906 30.367188 74 30.371094 C 74 30.378906 73.996094 30.386719 73.992188 30.394531 C 73.984375 30.40625 73.980469 30.417969 73.976562 30.429688 C 73.96875 30.445312 73.960938 30.460938 73.953125 30.476562 C 73.945312 30.5 73.925781 30.539062 73.910156 30.574219 C 73.910156 30.578125 73.90625 30.578125 73.90625 30.582031 C 73.898438 30.597656 73.890625 30.617188 73.882812 30.636719 C 73.871094 30.65625 73.863281 30.679688 73.851562 30.699219 L 73.851562 30.703125 C 73.847656 30.710938 73.847656 30.714844 73.84375 30.71875 C 73.820312 30.773438 73.792969 30.832031 73.769531 30.886719 C 73.769531 30.886719 73.769531 30.890625 73.769531 30.890625 C 73.761719 30.898438 73.757812 30.910156 73.753906 30.917969 C 73.75 30.925781 73.746094 30.933594 73.742188 30.941406 C 73.710938 31.007812 73.683594 31.078125 73.652344 31.144531 L 73.625 31.207031 C 73.609375 31.242188 73.59375 31.277344 73.578125 31.3125 C 73.566406 31.339844 73.554688 31.363281 73.542969 31.390625 C 73.539062 31.402344 73.53125 31.414062 73.527344 31.429688 C 73.511719 31.453125 73.5 31.480469 73.492188 31.503906 C 73.484375 31.523438 73.476562 31.542969 73.46875 31.558594 C 73.441406 31.613281 73.417969 31.671875 73.390625 31.722656 C 73.367188 31.777344 73.332031 31.855469 73.296875 31.933594 C 73.28125 31.96875 73.265625 32.003906 73.253906 32.039062 C 73.238281 32.0625 73.226562 32.089844 73.214844 32.113281 C 73.214844 32.117188 73.214844 32.121094 73.210938 32.125 L 73.207031 32.132812 C 73.203125 32.148438 73.195312 32.164062 73.1875 32.179688 C 73.183594 32.183594 73.183594 32.191406 73.179688 32.195312 C 73.164062 32.230469 73.148438 32.269531 73.132812 32.304688 L 73.121094 32.324219 C 73.109375 32.355469 73.09375 32.390625 73.078125 32.425781 L 73.070312 32.441406 C 73.066406 32.449219 73.0625 32.457031 73.058594 32.464844 C 73.046875 32.488281 73.035156 32.515625 73.023438 32.542969 C 73.023438 32.546875 73.019531 32.554688 73.019531 32.558594 C 72.996094 32.605469 72.96875 32.660156 72.945312 32.71875 C 72.933594 32.738281 72.925781 32.761719 72.914062 32.78125 C 72.898438 32.824219 72.878906 32.871094 72.859375 32.914062 C 72.851562 32.929688 72.84375 32.941406 72.835938 32.957031 C 72.796875 33.035156 72.765625 33.117188 72.730469 33.191406 C 72.71875 33.21875 72.703125 33.253906 72.6875 33.289062 C 72.671875 33.324219 72.65625 33.359375 72.640625 33.390625 C 72.632812 33.414062 72.621094 33.4375 72.613281 33.457031 L 72.578125 33.535156 C 72.570312 33.550781 72.5625 33.566406 72.554688 33.582031 L 72.535156 33.625 C 72.535156 33.628906 72.519531 33.667969 72.5 33.707031 C 72.492188 33.722656 72.484375 33.742188 72.476562 33.761719 C 72.453125 33.808594 72.433594 33.855469 72.410156 33.902344 L 72.398438 33.933594 C 72.394531 33.941406 72.390625 33.949219 72.386719 33.957031 C 72.382812 33.96875 72.378906 33.976562 72.371094 33.988281 C 72.351562 34.035156 72.328125 34.082031 72.308594 34.128906 C 72.300781 34.148438 72.292969 34.167969 72.285156 34.1875 C 72.28125 34.1875 72.28125 34.191406 72.28125 34.191406 C 72.273438 34.210938 72.265625 34.230469 72.257812 34.25 C 72.253906 34.253906 72.25 34.261719 72.25 34.265625 C 72.246094 34.269531 72.242188 34.277344 72.242188 34.28125 C 72.234375 34.292969 72.230469 34.304688 72.226562 34.320312 C 72.195312 34.375 72.171875 34.433594 72.144531 34.492188 C 72.144531 34.492188 72.144531 34.492188 72.144531 34.496094 C 72.144531 34.496094 72.140625 34.5 72.140625 34.5 C 72.128906 34.523438 72.117188 34.546875 72.109375 34.574219 C 72.097656 34.597656 72.085938 34.621094 72.074219 34.648438 C 72.058594 34.6875 72.039062 34.730469 72.023438 34.769531 C 72.015625 34.785156 72.007812 34.800781 72 34.816406 C 71.984375 34.851562 71.96875 34.886719 71.953125 34.921875 L 71.941406 34.945312 C 71.929688 34.96875 71.917969 34.996094 71.90625 35.023438 C 71.894531 35.050781 71.878906 35.082031 71.867188 35.113281 C 71.859375 35.128906 71.851562 35.148438 71.84375 35.164062 C 71.832031 35.195312 71.820312 35.222656 71.804688 35.25 C 71.789062 35.289062 71.769531 35.328125 71.753906 35.367188 L 71.707031 35.472656 C 71.683594 35.515625 71.667969 35.5625 71.644531 35.605469 L 71.628906 35.640625 C 71.617188 35.667969 71.601562 35.699219 71.589844 35.730469 C 71.578125 35.757812 71.515625 35.871094 71.46875 35.988281 C 71.4375 36.039062 71.417969 36.09375 71.398438 36.152344 C 71.394531 36.160156 71.390625 36.171875 71.386719 36.179688 C 71.375 36.203125 71.367188 36.222656 71.355469 36.246094 C 71.34375 36.277344 71.328125 36.3125 71.3125 36.347656 C 71.308594 36.351562 71.304688 36.355469 71.304688 36.363281 C 71.289062 36.394531 71.273438 36.429688 71.261719 36.464844 C 71.261719 36.460938 71.257812 36.46875 71.253906 36.480469 L 71.25 36.480469 C 71.246094 36.492188 71.242188 36.507812 71.234375 36.519531 C 71.234375 36.523438 71.230469 36.527344 71.230469 36.53125 C 71.226562 36.542969 71.222656 36.550781 71.214844 36.558594 C 71.203125 36.59375 71.1875 36.625 71.171875 36.65625 C 71.160156 36.679688 71.148438 36.707031 71.136719 36.730469 C 71.105469 36.808594 71.070312 36.882812 71.035156 36.960938 L 71.023438 36.988281 C 71.007812 37.023438 70.976562 37.09375 70.941406 37.164062 C 70.933594 37.1875 70.886719 37.292969 70.839844 37.394531 C 70.828125 37.421875 70.816406 37.449219 70.804688 37.476562 C 70.792969 37.496094 70.785156 37.515625 70.773438 37.539062 C 70.765625 37.5625 70.738281 37.621094 70.714844 37.675781 L 70.691406 37.726562 L 70.636719 37.847656 C 70.613281 37.902344 70.589844 37.953125 70.566406 38.007812 C 70.550781 38.042969 70.535156 38.078125 70.519531 38.109375 L 70.476562 38.203125 C 70.417969 38.335938 70.382812 38.414062 70.347656 38.488281 L 70.328125 38.535156 C 70.324219 38.535156 70.324219 38.539062 70.324219 38.539062 C 70.324219 38.542969 70.320312 38.550781 70.316406 38.554688 C 70.304688 38.582031 70.292969 38.609375 70.28125 38.636719 C 70.277344 38.648438 70.269531 38.65625 70.265625 38.667969 C 70.253906 38.691406 70.246094 38.71875 70.234375 38.742188 C 70.214844 38.78125 70.199219 38.816406 70.183594 38.851562 C 70.175781 38.871094 70.167969 38.894531 70.160156 38.914062 C 70.144531 38.9375 70.132812 38.964844 70.121094 38.992188 L 70.121094 38.996094 C 70.117188 38.996094 70.117188 39 70.117188 39.003906 C 70.117188 39.003906 70.117188 39.003906 70.113281 39.007812 C 70.101562 39.039062 70.085938 39.070312 70.070312 39.105469 L 70.054688 39.136719 C 70.035156 39.183594 70.015625 39.226562 69.996094 39.269531 C 69.980469 39.308594 69.960938 39.351562 69.941406 39.390625 L 69.925781 39.421875 C 69.917969 39.441406 69.910156 39.460938 69.902344 39.480469 C 69.878906 39.527344 69.855469 39.578125 69.835938 39.625 C 69.824219 39.65625 69.808594 39.683594 69.796875 39.710938 L 69.796875 39.714844 C 69.785156 39.742188 69.769531 39.769531 69.757812 39.796875 L 69.6875 39.949219 L 69.671875 39.988281 C 69.648438 40.042969 69.625 40.097656 69.601562 40.152344 L 69.558594 40.242188 C 69.542969 40.277344 69.527344 40.3125 69.511719 40.347656 L 69.464844 40.449219 L 69.386719 40.621094 C 69.378906 40.640625 69.324219 40.734375 69.292969 40.835938 C 69.28125 40.855469 69.273438 40.875 69.265625 40.890625 C 69.253906 40.917969 69.242188 40.945312 69.230469 40.972656 C 69.199219 41.039062 69.171875 41.101562 69.140625 41.167969 L 69.105469 41.246094 C 69.097656 41.269531 69.085938 41.292969 69.074219 41.316406 C 69.054688 41.363281 69.03125 41.414062 69.007812 41.460938 L 69.003906 41.476562 L 68.953125 41.589844 C 68.941406 41.613281 68.929688 41.640625 68.917969 41.667969 C 68.910156 41.683594 68.902344 41.699219 68.894531 41.714844 C 68.878906 41.753906 68.863281 41.789062 68.847656 41.824219 L 68.828125 41.863281 C 68.820312 41.882812 68.800781 41.925781 68.78125 41.96875 C 68.769531 41.996094 68.746094 42.050781 68.722656 42.105469 C 68.710938 42.125 68.699219 42.148438 68.6875 42.171875 C 68.675781 42.199219 68.664062 42.226562 68.652344 42.25 L 68.628906 42.304688 C 68.617188 42.335938 68.601562 42.367188 68.589844 42.398438 L 68.570312 42.4375 C 68.542969 42.496094 68.519531 42.550781 68.492188 42.609375 C 68.480469 42.640625 68.460938 42.675781 68.445312 42.714844 C 68.445312 42.71875 68.441406 42.722656 68.441406 42.726562 C 68.441406 42.726562 68.441406 42.726562 68.4375 42.730469 C 68.4375 42.734375 68.433594 42.738281 68.433594 42.742188 C 68.417969 42.777344 68.402344 42.808594 68.386719 42.84375 C 68.371094 42.878906 68.359375 42.910156 68.34375 42.945312 L 68.285156 43.074219 C 68.28125 43.078125 68.28125 43.078125 68.28125 43.078125 C 68.269531 43.101562 68.261719 43.121094 68.253906 43.144531 C 68.234375 43.179688 68.21875 43.21875 68.199219 43.257812 C 68.160156 43.347656 68.121094 43.441406 68.078125 43.53125 C 68.070312 43.546875 68.0625 43.566406 68.054688 43.582031 C 68.015625 43.640625 67.988281 43.707031 67.96875 43.777344 C 67.964844 43.78125 67.964844 43.789062 67.960938 43.792969 C 67.949219 43.816406 67.941406 43.839844 67.929688 43.863281 C 67.898438 43.929688 67.867188 44 67.835938 44.066406 C 67.828125 44.089844 67.816406 44.109375 67.808594 44.132812 C 67.789062 44.167969 67.777344 44.207031 67.757812 44.242188 C 67.742188 44.28125 67.722656 44.324219 67.703125 44.363281 C 67.695312 44.382812 67.683594 44.402344 67.679688 44.421875 C 67.667969 44.4375 67.660156 44.457031 67.652344 44.472656 C 67.621094 44.546875 67.589844 44.613281 67.5625 44.679688 L 67.523438 44.765625 C 67.5 44.816406 67.476562 44.867188 67.453125 44.917969 L 67.414062 45.003906 C 67.398438 45.039062 67.382812 45.074219 67.367188 45.109375 C 67.363281 45.121094 67.359375 45.128906 67.355469 45.140625 C 67.34375 45.164062 67.332031 45.1875 67.320312 45.210938 C 67.308594 45.242188 67.292969 45.273438 67.277344 45.304688 C 67.25 45.367188 67.226562 45.425781 67.199219 45.484375 C 67.171875 45.539062 67.148438 45.59375 67.125 45.648438 C 67.085938 45.71875 67.058594 45.796875 67.027344 45.867188 C 67.003906 45.917969 66.976562 45.976562 66.953125 46.035156 L 66.941406 46.058594 L 66.941406 46.0625 C 66.9375 46.0625 66.9375 46.066406 66.9375 46.066406 C 66.929688 46.078125 66.925781 46.09375 66.917969 46.105469 Z M 84.109375 52.066406 C 83.746094 52.472656 83.355469 52.859375 82.941406 53.214844 C 82.546875 53.554688 82.128906 53.871094 81.695312 54.15625 C 81.695312 54.160156 81.6875 54.164062 81.683594 54.167969 C 81.667969 54.175781 81.648438 54.1875 81.632812 54.199219 C 81.1875 54.488281 80.726562 54.746094 80.253906 54.976562 C 79.769531 55.203125 79.257812 55.40625 78.734375 55.582031 L 78.714844 55.585938 C 78.707031 55.589844 78.699219 55.59375 78.6875 55.59375 C 78.191406 55.75 77.660156 55.882812 77.125 55.976562 L 77.109375 55.980469 C 77.101562 55.984375 77.09375 55.984375 77.085938 55.984375 C 76.605469 56.066406 76.097656 56.121094 75.589844 56.148438 C 75.5625 56.152344 75.535156 56.152344 75.503906 56.152344 C 75.078125 56.171875 74.566406 56.164062 74.058594 56.125 C 73.539062 56.082031 73.019531 56.007812 72.507812 55.902344 C 71.988281 55.789062 71.480469 55.644531 70.980469 55.472656 C 70.484375 55.292969 69.996094 55.085938 69.523438 54.847656 C 69.101562 54.636719 68.625 54.355469 68.164062 54.042969 C 67.796875 53.792969 67.375 53.46875 66.976562 53.117188 C 66.578125 52.761719 66.191406 52.375 65.832031 51.960938 C 65.539062 51.617188 65.261719 51.25 65 50.871094 C 67.042969 50.875 69.089844 50.878906 71.132812 50.882812 C 73.472656 50.886719 75.8125 50.890625 78.148438 50.894531 C 80.246094 50.898438 82.339844 50.902344 84.429688 50.90625 C 84.625 50.90625 84.816406 50.90625 85.011719 50.90625 C 84.738281 51.296875 84.4375 51.691406 84.109375 52.066406 Z M 77.203125 34.785156 C 78.128906 36.847656 79.054688 38.90625 79.984375 40.964844 C 80.878906 42.957031 81.777344 44.949219 82.671875 46.941406 C 83.074219 47.835938 83.476562 48.730469 83.878906 49.625 C 81.773438 49.625 79.671875 49.617188 77.566406 49.613281 C 77.011719 49.609375 76.453125 49.609375 75.898438 49.609375 C 75.890625 47.804688 75.890625 46 75.890625 44.195312 C 75.890625 41.78125 75.886719 39.363281 75.886719 36.945312 C 75.882812 35.246094 75.882812 33.546875 75.878906 31.847656 C 76.320312 32.828125 76.761719 33.808594 77.203125 34.785156 Z M 66.976562 49.09375 C 66.984375 49.074219 66.996094 49.054688 67.003906 49.035156 C 67.007812 49.027344 67.011719 49.019531 67.015625 49.011719 C 67.027344 48.984375 67.039062 48.960938 67.050781 48.933594 L 67.050781 48.929688 C 67.050781 48.925781 67.054688 48.921875 67.054688 48.917969 C 67.070312 48.886719 67.082031 48.855469 67.097656 48.824219 C 67.109375 48.800781 67.117188 48.777344 67.128906 48.757812 C 67.140625 48.726562 67.15625 48.695312 67.167969 48.667969 L 67.214844 48.5625 C 67.230469 48.53125 67.246094 48.496094 67.257812 48.464844 L 67.261719 48.460938 C 67.277344 48.421875 67.292969 48.382812 67.3125 48.34375 C 67.359375 48.246094 67.371094 48.21875 67.378906 48.195312 C 67.394531 48.164062 67.40625 48.136719 67.421875 48.105469 C 67.429688 48.082031 67.441406 48.058594 67.453125 48.035156 C 67.476562 47.984375 67.5 47.929688 67.523438 47.878906 L 67.527344 47.871094 C 67.535156 47.851562 67.546875 47.828125 67.554688 47.808594 C 67.574219 47.765625 67.59375 47.71875 67.613281 47.675781 L 67.640625 47.617188 C 67.652344 47.597656 67.660156 47.578125 67.667969 47.558594 C 67.703125 47.476562 67.75 47.390625 67.78125 47.304688 C 67.796875 47.269531 67.816406 47.230469 67.832031 47.195312 C 67.847656 47.15625 67.867188 47.117188 67.882812 47.082031 C 67.902344 47.039062 67.921875 46.996094 67.941406 46.953125 C 67.945312 46.9375 67.953125 46.925781 67.957031 46.914062 C 67.972656 46.882812 67.984375 46.855469 67.996094 46.824219 C 68.007812 46.800781 68.027344 46.753906 68.050781 46.710938 C 68.054688 46.699219 68.058594 46.691406 68.0625 46.679688 L 68.066406 46.671875 C 68.078125 46.652344 68.085938 46.632812 68.09375 46.609375 C 68.101562 46.589844 68.109375 46.570312 68.121094 46.550781 L 68.164062 46.457031 C 68.171875 46.4375 68.179688 46.421875 68.1875 46.40625 C 68.203125 46.371094 68.21875 46.335938 68.234375 46.300781 C 68.242188 46.277344 68.253906 46.257812 68.261719 46.234375 C 68.277344 46.207031 68.289062 46.179688 68.300781 46.152344 C 68.300781 46.152344 68.300781 46.152344 68.300781 46.148438 C 68.320312 46.105469 68.339844 46.058594 68.363281 46.015625 C 68.367188 46.003906 68.40625 45.914062 68.445312 45.828125 L 68.453125 45.8125 C 68.464844 45.789062 68.476562 45.765625 68.488281 45.738281 C 68.507812 45.691406 68.527344 45.644531 68.546875 45.597656 L 68.558594 45.578125 C 68.574219 45.539062 68.59375 45.5 68.609375 45.464844 C 68.640625 45.394531 68.671875 45.328125 68.699219 45.261719 L 68.703125 45.253906 C 68.707031 45.246094 68.710938 45.234375 68.71875 45.222656 C 68.726562 45.203125 68.738281 45.183594 68.746094 45.160156 C 68.761719 45.128906 68.777344 45.09375 68.792969 45.054688 C 68.804688 45.03125 68.820312 44.996094 68.835938 44.957031 C 68.839844 44.953125 68.839844 44.949219 68.84375 44.945312 C 68.878906 44.882812 68.902344 44.8125 68.933594 44.742188 L 68.949219 44.710938 C 68.960938 44.683594 68.972656 44.652344 68.988281 44.625 C 69.015625 44.566406 69.042969 44.503906 69.070312 44.445312 C 69.082031 44.410156 69.097656 44.378906 69.113281 44.347656 C 69.117188 44.332031 69.125 44.320312 69.128906 44.304688 C 69.132812 44.300781 69.132812 44.296875 69.136719 44.292969 C 69.136719 44.292969 69.136719 44.289062 69.136719 44.289062 C 69.144531 44.273438 69.152344 44.257812 69.160156 44.238281 L 69.164062 44.234375 C 69.203125 44.160156 69.234375 44.078125 69.269531 44.003906 C 69.289062 43.957031 69.308594 43.910156 69.328125 43.863281 C 69.363281 43.789062 69.402344 43.714844 69.433594 43.636719 C 69.464844 43.578125 69.488281 43.515625 69.511719 43.453125 L 69.542969 43.386719 L 69.566406 43.335938 C 69.582031 43.300781 69.597656 43.269531 69.613281 43.234375 C 69.621094 43.21875 69.628906 43.199219 69.636719 43.183594 C 69.640625 43.171875 69.644531 43.164062 69.648438 43.152344 C 69.664062 43.121094 69.679688 43.089844 69.695312 43.054688 C 69.710938 43.019531 69.726562 42.984375 69.742188 42.949219 C 69.753906 42.921875 69.765625 42.890625 69.78125 42.863281 C 69.78125 42.859375 69.796875 42.824219 69.8125 42.789062 C 69.824219 42.765625 69.835938 42.742188 69.847656 42.71875 C 69.863281 42.679688 69.878906 42.644531 69.894531 42.605469 L 69.921875 42.550781 C 69.929688 42.53125 69.9375 42.515625 69.945312 42.496094 C 69.960938 42.464844 69.976562 42.429688 69.988281 42.398438 C 69.996094 42.386719 70 42.375 70.003906 42.363281 C 70.011719 42.347656 70.019531 42.328125 70.03125 42.308594 C 70.042969 42.28125 70.054688 42.253906 70.066406 42.226562 C 70.082031 42.191406 70.097656 42.15625 70.113281 42.121094 C 70.128906 42.085938 70.148438 42.046875 70.164062 42.011719 C 70.167969 42 70.171875 41.988281 70.179688 41.980469 C 70.195312 41.9375 70.214844 41.902344 70.230469 41.859375 L 70.246094 41.832031 C 70.269531 41.773438 70.292969 41.71875 70.320312 41.660156 L 70.375 41.542969 C 70.386719 41.519531 70.398438 41.492188 70.410156 41.46875 C 70.414062 41.453125 70.421875 41.441406 70.425781 41.429688 C 70.4375 41.402344 70.449219 41.375 70.460938 41.347656 C 70.460938 41.347656 70.464844 41.347656 70.464844 41.347656 C 70.464844 41.34375 70.464844 41.34375 70.464844 41.339844 C 70.472656 41.328125 70.476562 41.316406 70.484375 41.304688 L 70.492188 41.28125 C 70.527344 41.207031 70.5625 41.125 70.597656 41.046875 C 70.613281 41.007812 70.65625 40.914062 70.699219 40.820312 L 70.710938 40.789062 C 70.71875 40.785156 70.734375 40.738281 70.753906 40.695312 C 70.777344 40.648438 70.796875 40.601562 70.820312 40.554688 L 70.84375 40.5 C 70.867188 40.449219 70.890625 40.398438 70.914062 40.347656 L 70.929688 40.3125 C 70.941406 40.277344 70.957031 40.246094 70.972656 40.214844 C 70.972656 40.210938 70.976562 40.203125 70.980469 40.195312 C 70.988281 40.175781 71 40.15625 71.007812 40.136719 C 71.011719 40.125 71.015625 40.113281 71.023438 40.105469 C 71.042969 40.054688 71.066406 40.007812 71.089844 39.957031 C 71.109375 39.917969 71.132812 39.863281 71.152344 39.8125 C 71.164062 39.792969 71.171875 39.769531 71.183594 39.75 C 71.203125 39.703125 71.226562 39.652344 71.246094 39.605469 C 71.25 39.597656 71.253906 39.585938 71.261719 39.574219 L 71.265625 39.5625 C 71.273438 39.542969 71.28125 39.527344 71.289062 39.511719 C 71.292969 39.5 71.300781 39.484375 71.304688 39.472656 C 71.316406 39.453125 71.324219 39.433594 71.332031 39.414062 C 71.339844 39.398438 71.347656 39.386719 71.351562 39.371094 C 71.359375 39.355469 71.363281 39.34375 71.371094 39.332031 C 71.378906 39.3125 71.386719 39.289062 71.398438 39.269531 C 71.410156 39.238281 71.425781 39.207031 71.441406 39.175781 C 71.449219 39.152344 71.460938 39.128906 71.472656 39.105469 C 71.484375 39.082031 71.492188 39.058594 71.503906 39.035156 L 71.582031 38.859375 C 71.597656 38.820312 71.617188 38.78125 71.632812 38.746094 C 71.648438 38.714844 71.664062 38.675781 71.683594 38.636719 C 71.695312 38.609375 71.707031 38.582031 71.722656 38.550781 C 71.738281 38.515625 71.753906 38.476562 71.769531 38.441406 C 71.785156 38.40625 71.800781 38.371094 71.816406 38.335938 C 71.816406 38.335938 71.851562 38.257812 71.886719 38.179688 C 71.902344 38.148438 71.917969 38.113281 71.933594 38.082031 L 71.941406 38.0625 C 71.957031 38.03125 71.96875 38 71.984375 37.96875 C 72.023438 37.882812 72.0625 37.796875 72.097656 37.710938 L 72.164062 37.5625 C 72.175781 37.539062 72.1875 37.511719 72.199219 37.488281 C 72.21875 37.441406 72.242188 37.394531 72.261719 37.347656 C 72.277344 37.3125 72.292969 37.277344 72.308594 37.246094 C 72.316406 37.226562 72.324219 37.207031 72.335938 37.1875 C 72.34375 37.164062 72.363281 37.121094 72.382812 37.078125 L 72.390625 37.054688 C 72.40625 37.027344 72.417969 37 72.433594 36.96875 C 72.453125 36.921875 72.472656 36.878906 72.496094 36.832031 L 72.546875 36.714844 C 72.554688 36.699219 72.5625 36.683594 72.570312 36.667969 C 72.570312 36.664062 72.574219 36.660156 72.574219 36.65625 C 72.585938 36.636719 72.597656 36.605469 72.609375 36.578125 C 72.660156 36.480469 72.699219 36.378906 72.746094 36.277344 L 72.78125 36.199219 C 72.792969 36.175781 72.800781 36.152344 72.8125 36.125 C 72.828125 36.085938 72.847656 36.042969 72.867188 36.003906 L 72.898438 35.933594 C 72.914062 35.898438 72.929688 35.863281 72.945312 35.828125 L 73 35.707031 C 73.011719 35.683594 73.023438 35.660156 73.03125 35.636719 L 73.042969 35.609375 C 73.058594 35.578125 73.074219 35.546875 73.085938 35.515625 C 73.097656 35.492188 73.109375 35.46875 73.121094 35.445312 C 73.132812 35.417969 73.144531 35.390625 73.15625 35.363281 C 73.175781 35.316406 73.203125 35.261719 73.226562 35.203125 L 73.289062 35.0625 C 73.304688 35.035156 73.316406 35.007812 73.332031 34.976562 C 73.335938 34.960938 73.34375 34.945312 73.351562 34.933594 C 73.378906 34.882812 73.402344 34.832031 73.421875 34.78125 L 73.445312 34.71875 C 73.457031 34.699219 73.464844 34.683594 73.472656 34.664062 C 73.480469 34.640625 73.492188 34.621094 73.5 34.597656 C 73.503906 34.585938 73.511719 34.574219 73.515625 34.5625 C 73.523438 34.546875 73.53125 34.527344 73.539062 34.511719 C 73.550781 34.488281 73.558594 34.464844 73.570312 34.441406 L 73.621094 34.328125 C 73.636719 34.292969 73.652344 34.257812 73.667969 34.222656 C 73.675781 34.207031 73.683594 34.195312 73.6875 34.179688 C 73.695312 34.167969 73.699219 34.152344 73.707031 34.140625 C 73.71875 34.113281 73.734375 34.078125 73.75 34.039062 C 73.765625 34.007812 73.78125 33.976562 73.796875 33.945312 C 73.804688 33.921875 73.8125 33.902344 73.824219 33.882812 C 73.835938 33.851562 73.851562 33.816406 73.867188 33.78125 C 73.875 33.761719 73.886719 33.742188 73.894531 33.726562 C 73.917969 33.667969 73.945312 33.613281 73.96875 33.558594 C 73.976562 33.542969 73.988281 33.523438 73.996094 33.503906 C 74.003906 33.484375 74.011719 33.464844 74.023438 33.441406 L 74.039062 33.402344 C 74.0625 33.34375 74.089844 33.289062 74.113281 33.234375 C 74.132812 33.191406 74.152344 33.152344 74.171875 33.113281 C 74.175781 33.101562 74.179688 33.089844 74.183594 33.078125 L 74.1875 33.070312 C 74.195312 33.058594 74.203125 33.042969 74.207031 33.027344 C 74.21875 33.007812 74.230469 32.984375 74.238281 32.964844 L 74.25 32.9375 C 74.261719 32.90625 74.273438 32.878906 74.285156 32.851562 C 74.296875 32.832031 74.304688 32.808594 74.3125 32.789062 C 74.316406 32.78125 74.320312 32.773438 74.324219 32.765625 C 74.347656 32.71875 74.367188 32.675781 74.386719 32.628906 C 74.386719 32.628906 74.390625 32.617188 74.398438 32.605469 C 74.40625 32.589844 74.414062 32.574219 74.421875 32.558594 L 74.449219 32.496094 C 74.472656 32.4375 74.5 32.378906 74.523438 32.320312 C 74.546875 32.273438 74.570312 32.222656 74.59375 32.171875 C 74.597656 32.164062 74.601562 32.15625 74.605469 32.148438 C 74.605469 34.246094 74.605469 36.34375 74.609375 38.441406 C 74.613281 40.800781 74.613281 43.164062 74.617188 45.523438 C 74.617188 46.886719 74.617188 48.246094 74.621094 49.605469 C 73.25 49.605469 71.882812 49.601562 70.515625 49.601562 C 69.261719 49.601562 68.007812 49.597656 66.753906 49.59375 C 66.757812 49.578125 66.765625 49.5625 66.773438 49.550781 C 66.789062 49.515625 66.804688 49.476562 66.820312 49.441406 C 66.851562 49.371094 66.882812 49.300781 66.914062 49.234375 C 66.9375 49.1875 66.957031 49.140625 66.980469 49.09375 Z M 66.976562 49.09375 " fill-opacity="1" fill-rule="nonzero"/><path fill="#5a3a1a" d="M 27.714844 26.277344 C 25.410156 26.269531 23.105469 26.265625 20.800781 26.257812 C 20.511719 25.164062 19.660156 24.261719 18.578125 23.910156 C 18.523438 23.890625 18.464844 23.875 18.425781 23.867188 C 17.699219 23.679688 16.957031 23.730469 16.269531 24.011719 C 15.777344 24.222656 15.335938 24.535156 14.988281 24.953125 C 14.628906 25.386719 14.382812 25.90625 14.269531 26.460938 C 14.269531 26.472656 14.265625 26.480469 14.265625 26.492188 C 14.261719 26.5 14.261719 26.511719 14.257812 26.523438 C 14.253906 26.542969 14.25 26.5625 14.246094 26.582031 C 14.238281 26.648438 14.242188 26.710938 14.25 26.773438 C 14.242188 26.816406 14.238281 26.859375 14.238281 26.90625 C 14.253906 27.265625 14.550781 27.519531 14.902344 27.523438 C 16.527344 27.539062 18.152344 27.53125 19.777344 27.535156 C 22.082031 27.542969 24.386719 27.546875 26.695312 27.554688 C 29.066406 27.558594 31.445312 27.566406 33.816406 27.570312 C 36.117188 27.578125 38.417969 27.582031 40.71875 27.589844 C 40.835938 27.589844 40.957031 27.589844 41.074219 27.589844 C 41.421875 27.589844 41.703125 27.269531 41.691406 26.929688 C 41.675781 26.570312 41.375 26.308594 41.027344 26.308594 C 38.917969 26.308594 36.808594 26.300781 34.695312 26.292969 C 32.371094 26.289062 30.042969 26.28125 27.714844 26.277344 Z M 15.882812 25.886719 C 15.9375 25.8125 16 25.738281 16.0625 25.667969 C 16.125 25.609375 16.1875 25.546875 16.257812 25.492188 C 16.332031 25.433594 16.40625 25.378906 16.488281 25.328125 C 16.570312 25.28125 16.660156 25.238281 16.746094 25.195312 C 16.832031 25.164062 16.914062 25.132812 17 25.105469 C 17.09375 25.082031 17.183594 25.066406 17.277344 25.050781 C 17.371094 25.039062 17.464844 25.03125 17.558594 25.03125 C 17.644531 25.03125 17.730469 25.039062 17.816406 25.046875 C 17.90625 25.058594 17.992188 25.078125 18.078125 25.097656 C 18.160156 25.121094 18.242188 25.148438 18.320312 25.175781 C 18.402344 25.210938 18.484375 25.25 18.566406 25.292969 C 18.636719 25.332031 18.710938 25.378906 18.78125 25.429688 C 18.855469 25.488281 18.925781 25.546875 18.996094 25.609375 C 19.058594 25.671875 19.121094 25.742188 19.175781 25.808594 C 19.234375 25.886719 19.289062 25.960938 19.339844 26.042969 C 19.378906 26.109375 19.414062 26.183594 19.449219 26.253906 C 18.191406 26.25 16.933594 26.246094 15.679688 26.246094 C 15.699219 26.199219 15.71875 26.152344 15.742188 26.109375 C 15.785156 26.03125 15.832031 25.957031 15.882812 25.886719 Z M 15.882812 25.886719 " fill-opacity="1" fill-rule="nonzero"/><path fill="#c98a3a" d="M 22.671875 40.375 C 22.671875 40.371094 22.667969 40.367188 22.667969 40.367188 C 22.664062 40.359375 22.664062 40.355469 22.660156 40.347656 C 22.664062 40.359375 22.667969 40.367188 22.671875 40.375 Z M 22.671875 40.375 " fill-opacity="1" fill-rule="nonzero"/><path fill="#5a3a1a" d="M 8.597656 49.265625 C 8.53125 49.410156 8.46875 49.550781 8.402344 49.695312 C 8.390625 49.726562 8.378906 49.757812 8.371094 49.789062 C 8.050781 49.789062 7.730469 49.789062 7.410156 49.789062 L 7.34375 49.789062 C 7.007812 49.789062 6.738281 50.101562 6.734375 50.429688 C 6.734375 50.4375 6.734375 50.449219 6.734375 50.460938 C 6.746094 50.691406 6.875 50.875 7.054688 50.976562 C 7.398438 51.566406 7.792969 52.132812 8.222656 52.65625 C 8.339844 52.804688 8.460938 52.945312 8.570312 53.066406 C 9.367188 53.964844 10.273438 54.75 11.265625 55.402344 C 12.621094 56.289062 14.128906 56.933594 15.714844 57.285156 C 15.914062 57.332031 16.113281 57.371094 16.234375 57.390625 C 16.816406 57.496094 17.410156 57.5625 18.003906 57.589844 C 18.207031 57.601562 18.410156 57.605469 18.613281 57.605469 C 20.121094 57.605469 21.625 57.355469 23.050781 56.855469 C 24.566406 56.324219 25.988281 55.527344 27.214844 54.496094 C 28.101562 53.753906 28.898438 52.902344 29.566406 51.957031 C 29.679688 51.800781 29.785156 51.640625 29.875 51.503906 C 30.003906 51.304688 30.128906 51.101562 30.246094 50.898438 C 30.25 50.890625 30.253906 50.886719 30.257812 50.878906 C 30.261719 50.871094 30.265625 50.867188 30.269531 50.859375 C 30.390625 50.644531 30.367188 50.386719 30.238281 50.191406 C 30.148438 49.925781 29.894531 49.75 29.605469 49.75 C 29.167969 49.75 28.730469 49.753906 28.292969 49.753906 C 28.289062 49.746094 28.285156 49.738281 28.28125 49.730469 C 28.273438 49.714844 28.265625 49.695312 28.261719 49.6875 C 28.253906 49.660156 28.242188 49.636719 28.226562 49.609375 C 28.222656 49.601562 28.21875 49.589844 28.214844 49.582031 L 28.175781 49.492188 C 28.144531 49.425781 28.117188 49.363281 28.085938 49.296875 C 28.078125 49.277344 28.070312 49.261719 28.066406 49.246094 C 28.042969 49.195312 28.015625 49.144531 27.992188 49.089844 C 27.984375 49.066406 27.972656 49.042969 27.960938 49.015625 C 27.933594 48.953125 27.90625 48.890625 27.878906 48.828125 L 27.832031 48.726562 C 27.8125 48.683594 27.792969 48.640625 27.773438 48.597656 L 27.75 48.542969 C 27.730469 48.503906 27.714844 48.464844 27.695312 48.425781 L 27.667969 48.367188 L 27.636719 48.296875 C 27.621094 48.261719 27.605469 48.226562 27.589844 48.1875 L 27.578125 48.164062 C 27.574219 48.15625 27.570312 48.152344 27.566406 48.140625 L 27.558594 48.125 C 27.554688 48.113281 27.550781 48.097656 27.546875 48.097656 C 27.535156 48.070312 27.523438 48.042969 27.511719 48.015625 C 27.492188 47.976562 27.476562 47.9375 27.457031 47.898438 C 27.441406 47.863281 27.425781 47.828125 27.410156 47.792969 C 27.390625 47.75 27.371094 47.707031 27.355469 47.664062 C 27.34375 47.644531 27.332031 47.621094 27.324219 47.597656 C 27.304688 47.554688 27.285156 47.511719 27.265625 47.472656 C 27.257812 47.445312 27.246094 47.421875 27.234375 47.398438 L 27.207031 47.339844 L 27.171875 47.261719 C 27.15625 47.226562 27.140625 47.191406 27.125 47.15625 C 27.101562 47.109375 27.082031 47.0625 27.0625 47.015625 C 27.050781 46.992188 27.042969 46.972656 27.03125 46.949219 C 27.019531 46.921875 27.007812 46.898438 26.996094 46.871094 C 26.980469 46.835938 26.964844 46.800781 26.949219 46.769531 C 26.917969 46.699219 26.890625 46.636719 26.863281 46.578125 C 26.847656 46.539062 26.828125 46.5 26.8125 46.460938 L 26.800781 46.4375 C 26.773438 46.378906 26.753906 46.324219 26.726562 46.265625 C 26.71875 46.253906 26.714844 46.242188 26.707031 46.226562 C 26.707031 46.226562 26.707031 46.226562 26.703125 46.222656 L 26.691406 46.195312 C 26.667969 46.140625 26.640625 46.082031 26.617188 46.027344 C 26.585938 45.957031 26.554688 45.882812 26.519531 45.808594 C 26.496094 45.753906 26.46875 45.699219 26.445312 45.648438 C 26.417969 45.585938 26.390625 45.527344 26.363281 45.46875 C 26.347656 45.4375 26.335938 45.40625 26.320312 45.371094 C 26.3125 45.347656 26.300781 45.324219 26.289062 45.300781 C 26.285156 45.289062 26.28125 45.28125 26.277344 45.269531 C 26.257812 45.234375 26.242188 45.199219 26.226562 45.167969 L 26.1875 45.078125 C 26.164062 45.027344 26.140625 44.976562 26.121094 44.925781 L 26.082031 44.839844 C 26.050781 44.773438 26.023438 44.707031 25.988281 44.632812 C 25.980469 44.617188 25.972656 44.601562 25.964844 44.582031 C 25.957031 44.5625 25.949219 44.542969 25.941406 44.523438 C 25.921875 44.484375 25.902344 44.445312 25.886719 44.402344 C 25.867188 44.367188 25.851562 44.332031 25.835938 44.292969 C 25.824219 44.273438 25.816406 44.25 25.804688 44.226562 C 25.777344 44.160156 25.746094 44.09375 25.714844 44.023438 C 25.703125 44 25.691406 43.976562 25.683594 43.953125 C 25.679688 43.949219 25.679688 43.945312 25.675781 43.941406 C 25.675781 43.941406 25.675781 43.9375 25.675781 43.9375 C 25.65625 43.871094 25.625 43.804688 25.585938 43.742188 C 25.582031 43.726562 25.574219 43.707031 25.566406 43.691406 C 25.523438 43.601562 25.484375 43.511719 25.441406 43.417969 C 25.425781 43.382812 25.40625 43.34375 25.390625 43.304688 C 25.382812 43.28125 25.371094 43.261719 25.359375 43.242188 C 25.359375 43.238281 25.359375 43.238281 25.359375 43.238281 L 25.300781 43.105469 C 25.285156 43.074219 25.273438 43.039062 25.257812 43.007812 L 25.210938 42.902344 C 25.207031 42.898438 25.207031 42.894531 25.203125 42.890625 C 25.203125 42.890625 25.203125 42.886719 25.203125 42.886719 C 25.199219 42.882812 25.199219 42.878906 25.199219 42.875 C 25.179688 42.839844 25.164062 42.800781 25.148438 42.769531 C 25.125 42.710938 25.101562 42.65625 25.074219 42.601562 L 25.054688 42.558594 C 25.042969 42.527344 25.027344 42.496094 25.011719 42.464844 L 24.988281 42.414062 C 24.976562 42.386719 24.964844 42.359375 24.953125 42.332031 C 24.941406 42.308594 24.933594 42.289062 24.921875 42.265625 C 24.898438 42.210938 24.875 42.15625 24.863281 42.128906 C 24.84375 42.085938 24.824219 42.042969 24.816406 42.023438 L 24.796875 41.984375 C 24.78125 41.949219 24.765625 41.914062 24.75 41.878906 C 24.742188 41.863281 24.734375 41.84375 24.726562 41.828125 C 24.714844 41.804688 24.703125 41.777344 24.691406 41.75 C 24.675781 41.710938 24.65625 41.675781 24.640625 41.636719 L 24.632812 41.625 C 24.613281 41.574219 24.589844 41.527344 24.566406 41.476562 C 24.558594 41.453125 24.546875 41.429688 24.535156 41.40625 L 24.503906 41.328125 C 24.472656 41.265625 24.441406 41.199219 24.414062 41.132812 C 24.402344 41.105469 24.390625 41.082031 24.378906 41.054688 C 24.367188 41.035156 24.359375 41.015625 24.351562 40.996094 C 24.316406 40.898438 24.265625 40.800781 24.257812 40.78125 L 24.179688 40.613281 L 24.132812 40.507812 C 24.117188 40.472656 24.101562 40.441406 24.085938 40.40625 L 24.042969 40.3125 C 24.019531 40.257812 23.996094 40.203125 23.96875 40.148438 C 23.964844 40.136719 23.960938 40.125 23.953125 40.113281 C 23.929688 40.0625 23.910156 40.011719 23.886719 39.960938 C 23.875 39.929688 23.859375 39.902344 23.847656 39.875 L 23.847656 39.871094 C 23.832031 39.84375 23.820312 39.816406 23.808594 39.789062 C 23.785156 39.738281 23.761719 39.691406 23.742188 39.640625 C 23.734375 39.621094 23.722656 39.601562 23.714844 39.582031 L 23.703125 39.554688 C 23.683594 39.511719 23.664062 39.472656 23.648438 39.429688 C 23.628906 39.386719 23.609375 39.34375 23.589844 39.300781 L 23.574219 39.265625 C 23.558594 39.230469 23.542969 39.199219 23.527344 39.167969 L 23.527344 39.164062 C 23.527344 39.164062 23.523438 39.160156 23.523438 39.15625 C 23.511719 39.125 23.5 39.101562 23.484375 39.074219 C 23.476562 39.054688 23.46875 39.035156 23.460938 39.015625 C 23.445312 38.976562 23.429688 38.941406 23.410156 38.90625 C 23.398438 38.878906 23.386719 38.855469 23.375 38.828125 C 23.371094 38.820312 23.367188 38.808594 23.363281 38.800781 C 23.351562 38.769531 23.335938 38.742188 23.324219 38.714844 C 23.324219 38.710938 23.320312 38.703125 23.320312 38.703125 C 23.316406 38.699219 23.316406 38.699219 23.316406 38.695312 L 23.296875 38.648438 C 23.261719 38.574219 23.226562 38.5 23.167969 38.363281 L 23.125 38.269531 C 23.109375 38.238281 23.09375 38.203125 23.078125 38.167969 C 23.054688 38.113281 23.03125 38.0625 23.007812 38.007812 C 22.988281 37.96875 22.972656 37.929688 22.953125 37.890625 L 22.929688 37.835938 C 22.90625 37.78125 22.878906 37.726562 22.867188 37.699219 L 22.839844 37.636719 C 22.828125 37.609375 22.816406 37.582031 22.804688 37.554688 C 22.757812 37.453125 22.710938 37.351562 22.699219 37.328125 C 22.667969 37.257812 22.636719 37.183594 22.621094 37.152344 L 22.609375 37.121094 C 22.574219 37.046875 22.539062 36.96875 22.503906 36.894531 C 22.492188 36.867188 22.480469 36.84375 22.46875 36.816406 C 22.457031 36.785156 22.441406 36.753906 22.429688 36.722656 C 22.429688 36.722656 22.425781 36.722656 22.425781 36.71875 C 22.421875 36.710938 22.417969 36.703125 22.414062 36.695312 C 22.414062 36.691406 22.410156 36.683594 22.410156 36.679688 C 22.402344 36.667969 22.398438 36.652344 22.390625 36.640625 C 22.386719 36.632812 22.382812 36.625 22.382812 36.625 C 22.367188 36.589844 22.355469 36.558594 22.339844 36.523438 C 22.335938 36.519531 22.335938 36.511719 22.332031 36.507812 L 22.285156 36.40625 C 22.277344 36.386719 22.265625 36.363281 22.253906 36.339844 L 22.242188 36.3125 C 22.226562 36.257812 22.203125 36.203125 22.175781 36.148438 C 22.128906 36.035156 22.066406 35.921875 22.054688 35.890625 C 22.039062 35.859375 22.027344 35.832031 22.011719 35.800781 L 22 35.765625 C 21.976562 35.722656 21.957031 35.675781 21.9375 35.632812 C 21.921875 35.597656 21.90625 35.5625 21.890625 35.527344 C 21.871094 35.488281 21.855469 35.449219 21.835938 35.414062 L 21.800781 35.328125 C 21.792969 35.308594 21.785156 35.289062 21.777344 35.273438 C 21.761719 35.242188 21.75 35.214844 21.734375 35.183594 C 21.722656 35.160156 21.710938 35.132812 21.699219 35.105469 C 21.695312 35.097656 21.691406 35.089844 21.6875 35.082031 L 21.640625 34.976562 C 21.636719 34.960938 21.628906 34.945312 21.621094 34.929688 C 21.605469 34.890625 21.585938 34.847656 21.566406 34.808594 C 21.554688 34.785156 21.546875 34.761719 21.535156 34.734375 C 21.523438 34.710938 21.511719 34.6875 21.5 34.664062 C 21.5 34.660156 21.5 34.660156 21.5 34.65625 C 21.496094 34.65625 21.496094 34.652344 21.496094 34.652344 C 21.472656 34.59375 21.445312 34.535156 21.417969 34.480469 C 21.414062 34.46875 21.40625 34.453125 21.402344 34.441406 C 21.398438 34.4375 21.398438 34.433594 21.394531 34.429688 C 21.394531 34.421875 21.390625 34.414062 21.386719 34.410156 C 21.378906 34.390625 21.371094 34.371094 21.359375 34.351562 C 21.359375 34.351562 21.359375 34.347656 21.359375 34.347656 C 21.351562 34.328125 21.34375 34.308594 21.335938 34.292969 C 21.316406 34.242188 21.292969 34.195312 21.269531 34.148438 C 21.265625 34.136719 21.261719 34.128906 21.257812 34.121094 C 21.253906 34.113281 21.25 34.105469 21.246094 34.097656 L 21.230469 34.066406 C 21.210938 34.019531 21.1875 33.96875 21.167969 33.921875 C 21.15625 33.902344 21.152344 33.886719 21.144531 33.867188 C 21.125 33.828125 21.109375 33.789062 21.105469 33.785156 L 21.085938 33.742188 C 21.082031 33.726562 21.074219 33.710938 21.066406 33.699219 C 21.054688 33.671875 21.042969 33.644531 21.03125 33.621094 C 21.019531 33.597656 21.011719 33.574219 21 33.554688 C 20.984375 33.519531 20.96875 33.484375 20.957031 33.449219 C 20.941406 33.414062 20.925781 33.378906 20.910156 33.355469 C 20.875 33.277344 20.847656 33.195312 20.804688 33.121094 C 20.800781 33.105469 20.792969 33.089844 20.785156 33.074219 C 20.765625 33.03125 20.746094 32.988281 20.726562 32.945312 C 20.71875 32.921875 20.707031 32.898438 20.699219 32.878906 C 20.671875 32.824219 20.648438 32.769531 20.625 32.71875 C 20.621094 32.714844 20.621094 32.710938 20.621094 32.707031 C 20.609375 32.675781 20.597656 32.652344 20.582031 32.625 C 20.578125 32.617188 20.574219 32.609375 20.570312 32.605469 L 20.566406 32.585938 C 20.550781 32.550781 20.535156 32.519531 20.519531 32.484375 L 20.511719 32.464844 C 20.496094 32.429688 20.480469 32.394531 20.460938 32.355469 C 20.460938 32.351562 20.457031 32.347656 20.457031 32.339844 C 20.449219 32.324219 20.441406 32.308594 20.433594 32.292969 L 20.429688 32.285156 C 20.429688 32.28125 20.429688 32.28125 20.425781 32.277344 C 20.417969 32.25 20.402344 32.222656 20.390625 32.199219 C 20.375 32.167969 20.359375 32.132812 20.34375 32.097656 C 20.308594 32.015625 20.273438 31.9375 20.25 31.886719 C 20.226562 31.832031 20.203125 31.777344 20.175781 31.722656 C 20.167969 31.703125 20.160156 31.683594 20.152344 31.667969 C 20.140625 31.640625 20.132812 31.613281 20.117188 31.589844 C 20.113281 31.578125 20.105469 31.566406 20.101562 31.554688 C 20.089844 31.527344 20.078125 31.5 20.0625 31.476562 C 20.050781 31.441406 20.035156 31.402344 20.015625 31.367188 L 19.988281 31.304688 C 19.960938 31.238281 19.933594 31.167969 19.898438 31.105469 C 19.894531 31.097656 19.890625 31.089844 19.886719 31.078125 C 19.882812 31.070312 19.878906 31.0625 19.875 31.050781 C 19.875 31.050781 19.875 31.050781 19.875 31.046875 C 19.847656 30.992188 19.824219 30.9375 19.796875 30.878906 C 19.796875 30.875 19.792969 30.871094 19.792969 30.867188 C 19.789062 30.863281 19.789062 30.863281 19.789062 30.863281 C 19.78125 30.839844 19.769531 30.820312 19.761719 30.796875 C 19.753906 30.777344 19.746094 30.757812 19.734375 30.742188 C 19.734375 30.738281 19.734375 30.738281 19.734375 30.738281 C 19.714844 30.699219 19.699219 30.660156 19.691406 30.640625 C 19.683594 30.621094 19.675781 30.605469 19.667969 30.589844 C 19.664062 30.578125 19.65625 30.566406 19.652344 30.558594 C 19.648438 30.546875 19.644531 30.539062 19.640625 30.53125 C 19.640625 30.53125 19.640625 30.527344 19.640625 30.527344 C 19.636719 30.519531 19.628906 30.507812 19.628906 30.507812 C 19.628906 30.503906 19.625 30.5 19.625 30.492188 C 19.617188 30.480469 19.613281 30.46875 19.605469 30.453125 C 19.605469 30.453125 19.605469 30.453125 19.605469 30.449219 C 19.601562 30.445312 19.601562 30.441406 19.597656 30.4375 C 19.59375 30.425781 19.589844 30.417969 19.585938 30.40625 L 19.570312 30.371094 C 19.554688 30.339844 19.539062 30.3125 19.527344 30.28125 C 19.523438 30.277344 19.523438 30.269531 19.519531 30.261719 C 19.515625 30.253906 19.511719 30.246094 19.507812 30.234375 C 19.488281 30.1875 19.464844 30.140625 19.445312 30.09375 C 19.429688 30.066406 19.417969 30.035156 19.40625 30.007812 C 19.402344 30.003906 19.402344 30 19.398438 29.996094 C 19.398438 29.996094 19.398438 29.992188 19.398438 29.992188 L 19.394531 29.984375 C 19.386719 29.964844 19.375 29.941406 19.367188 29.921875 L 19.363281 29.914062 C 19.351562 29.890625 19.34375 29.867188 19.332031 29.84375 L 19.296875 29.765625 C 19.285156 29.738281 19.269531 29.707031 19.257812 29.679688 C 19.257812 29.679688 19.257812 29.675781 19.257812 29.675781 C 19.253906 29.671875 19.253906 29.667969 19.25 29.664062 C 19.25 29.660156 19.25 29.660156 19.25 29.660156 L 19.246094 29.652344 L 19.246094 29.648438 C 19.230469 29.621094 19.21875 29.597656 19.207031 29.570312 L 19.207031 29.5625 L 19.160156 29.460938 C 19.144531 29.425781 19.128906 29.394531 19.113281 29.359375 C 19.105469 29.339844 19.097656 29.320312 19.085938 29.300781 C 19.074219 29.273438 19.058594 29.242188 19.046875 29.210938 C 19.042969 29.199219 19.035156 29.1875 19.035156 29.183594 C 19.03125 29.179688 19.03125 29.175781 19.027344 29.171875 C 19.027344 29.171875 19.027344 29.171875 19.03125 29.171875 C 19.027344 29.171875 19.027344 29.167969 19.027344 29.164062 C 19.023438 29.164062 19.023438 29.160156 19.023438 29.15625 C 19.019531 29.152344 19.019531 29.152344 19.019531 29.148438 C 19.019531 29.148438 19.019531 29.152344 19.019531 29.152344 C 19.019531 29.152344 19.019531 29.148438 19.019531 29.148438 C 19.015625 29.148438 19.015625 29.144531 19.015625 29.144531 C 19.015625 29.144531 19.015625 29.140625 19.015625 29.140625 C 19.011719 29.136719 19.011719 29.136719 19.011719 29.136719 C 19.011719 29.136719 19.015625 29.140625 19.015625 29.140625 C 19.015625 29.140625 19.015625 29.136719 19.015625 29.136719 L 19.011719 29.136719 C 19.011719 29.136719 19.011719 29.136719 19.011719 29.132812 C 19.011719 29.132812 19.011719 29.132812 19.007812 29.132812 L 19.011719 29.132812 C 19.011719 29.132812 19.007812 29.132812 19.007812 29.132812 C 19.007812 29.128906 19.007812 29.128906 19.007812 29.125 L 19.007812 29.121094 L 19.003906 29.121094 L 19.003906 29.117188 C 19 29.113281 19 29.105469 18.996094 29.101562 C 18.988281 29.085938 18.984375 29.074219 18.980469 29.0625 C 18.976562 29.058594 18.976562 29.058594 18.976562 29.054688 C 18.972656 29.046875 18.96875 29.035156 18.964844 29.027344 L 18.960938 29.023438 C 18.898438 28.894531 18.808594 28.792969 18.683594 28.726562 C 18.683594 28.722656 18.679688 28.722656 18.679688 28.722656 C 18.667969 28.714844 18.660156 28.703125 18.644531 28.699219 C 18.640625 28.695312 18.632812 28.695312 18.628906 28.691406 C 18.609375 28.679688 18.59375 28.667969 18.570312 28.660156 C 18.253906 28.511719 17.871094 28.660156 17.726562 28.976562 C 17.554688 29.335938 17.398438 29.699219 17.234375 30.058594 C 16.851562 30.914062 16.46875 31.769531 16.082031 32.625 C 15.144531 34.707031 14.207031 36.789062 13.269531 38.871094 C 12.359375 40.894531 11.449219 42.921875 10.539062 44.945312 C 9.890625 46.382812 9.242188 47.824219 8.59375 49.261719 Z M 27.8125 52.125 C 27.449219 52.539062 27.066406 52.925781 26.667969 53.28125 C 26.269531 53.632812 25.847656 53.953125 25.480469 54.207031 C 25.019531 54.515625 24.542969 54.800781 24.121094 55.011719 C 23.644531 55.25 23.160156 55.457031 22.664062 55.636719 C 22.160156 55.808594 21.652344 55.953125 21.136719 56.0625 C 20.625 56.171875 20.109375 56.246094 19.585938 56.289062 C 19.078125 56.328125 18.566406 56.335938 18.140625 56.316406 C 18.109375 56.316406 18.082031 56.3125 18.050781 56.3125 C 17.542969 56.285156 17.039062 56.230469 16.558594 56.148438 L 16.535156 56.144531 L 16.519531 56.140625 C 15.984375 56.042969 15.453125 55.914062 14.957031 55.757812 C 14.945312 55.753906 14.9375 55.75 14.929688 55.75 L 14.910156 55.742188 C 14.386719 55.570312 13.875 55.367188 13.390625 55.136719 C 12.914062 54.90625 12.457031 54.652344 12.011719 54.363281 C 11.996094 54.351562 11.976562 54.339844 11.960938 54.332031 C 11.953125 54.328125 11.949219 54.324219 11.949219 54.320312 C 11.511719 54.035156 11.097656 53.71875 10.703125 53.378906 C 10.289062 53.023438 9.898438 52.636719 9.535156 52.226562 C 9.207031 51.851562 8.90625 51.460938 8.632812 51.070312 C 8.828125 51.070312 9.019531 51.070312 9.214844 51.070312 C 11.308594 51.0625 13.402344 51.0625 15.496094 51.058594 C 17.832031 51.054688 20.171875 51.050781 22.511719 51.042969 C 24.554688 51.039062 26.597656 51.039062 28.644531 51.035156 C 28.382812 51.414062 28.105469 51.78125 27.8125 52.125 Z M 19.054688 32.335938 C 19.074219 32.386719 19.097656 32.433594 19.121094 32.484375 C 19.144531 32.542969 19.171875 32.601562 19.199219 32.660156 L 19.226562 32.71875 C 19.234375 32.738281 19.242188 32.753906 19.25 32.769531 C 19.253906 32.78125 19.261719 32.792969 19.261719 32.792969 C 19.28125 32.839844 19.300781 32.882812 19.320312 32.929688 C 19.324219 32.9375 19.328125 32.945312 19.332031 32.953125 C 19.339844 32.972656 19.347656 32.992188 19.359375 33.011719 L 19.398438 33.097656 L 19.410156 33.125 C 19.417969 33.148438 19.429688 33.171875 19.441406 33.191406 C 19.445312 33.207031 19.453125 33.222656 19.457031 33.234375 L 19.460938 33.242188 C 19.46875 33.253906 19.472656 33.265625 19.476562 33.273438 C 19.496094 33.316406 19.511719 33.355469 19.53125 33.394531 C 19.554688 33.453125 19.582031 33.507812 19.605469 33.566406 L 19.625 33.605469 C 19.632812 33.625 19.644531 33.644531 19.652344 33.664062 C 19.660156 33.683594 19.667969 33.703125 19.679688 33.722656 C 19.703125 33.777344 19.726562 33.832031 19.753906 33.886719 C 19.761719 33.90625 19.769531 33.925781 19.777344 33.941406 C 19.792969 33.976562 19.808594 34.011719 19.824219 34.046875 C 19.832031 34.066406 19.84375 34.085938 19.851562 34.109375 C 19.867188 34.140625 19.878906 34.171875 19.894531 34.203125 C 19.910156 34.238281 19.925781 34.273438 19.941406 34.304688 C 19.945312 34.316406 19.953125 34.328125 19.957031 34.34375 C 19.964844 34.359375 19.96875 34.371094 19.976562 34.386719 C 19.992188 34.421875 20.007812 34.457031 20.023438 34.492188 L 20.074219 34.605469 C 20.085938 34.628906 20.097656 34.652344 20.109375 34.675781 C 20.117188 34.691406 20.125 34.710938 20.132812 34.726562 C 20.136719 34.738281 20.140625 34.75 20.144531 34.761719 C 20.15625 34.78125 20.164062 34.804688 20.175781 34.824219 C 20.183594 34.84375 20.191406 34.863281 20.199219 34.882812 L 20.226562 34.945312 C 20.246094 34.996094 20.269531 35.046875 20.296875 35.09375 C 20.304688 35.109375 20.308594 35.125 20.316406 35.140625 C 20.328125 35.167969 20.34375 35.199219 20.355469 35.226562 L 20.417969 35.367188 C 20.445312 35.421875 20.46875 35.480469 20.488281 35.527344 C 20.503906 35.554688 20.515625 35.582031 20.527344 35.609375 C 20.539062 35.632812 20.550781 35.65625 20.558594 35.679688 C 20.574219 35.710938 20.585938 35.742188 20.601562 35.773438 L 20.613281 35.800781 C 20.625 35.824219 20.632812 35.847656 20.644531 35.871094 L 20.699219 35.992188 L 20.746094 36.097656 L 20.78125 36.167969 C 20.796875 36.207031 20.816406 36.25 20.832031 36.289062 C 20.84375 36.3125 20.855469 36.339844 20.867188 36.363281 L 20.902344 36.441406 C 20.949219 36.542969 20.988281 36.644531 21.039062 36.742188 C 21.046875 36.769531 21.058594 36.800781 21.074219 36.820312 C 21.074219 36.824219 21.074219 36.828125 21.078125 36.832031 C 21.085938 36.847656 21.09375 36.863281 21.097656 36.878906 L 21.152344 36.992188 C 21.171875 37.039062 21.195312 37.085938 21.210938 37.132812 C 21.226562 37.160156 21.238281 37.191406 21.253906 37.21875 L 21.261719 37.242188 C 21.28125 37.285156 21.300781 37.328125 21.3125 37.351562 C 21.320312 37.371094 21.328125 37.390625 21.335938 37.410156 C 21.351562 37.441406 21.367188 37.476562 21.382812 37.511719 L 21.445312 37.648438 C 21.457031 37.675781 21.46875 37.699219 21.480469 37.726562 L 21.546875 37.875 L 21.664062 38.128906 C 21.675781 38.164062 21.691406 38.195312 21.707031 38.226562 L 21.714844 38.242188 C 21.726562 38.277344 21.742188 38.3125 21.757812 38.34375 C 21.792969 38.421875 21.828125 38.5 21.828125 38.5 C 21.84375 38.535156 21.859375 38.570312 21.875 38.601562 L 21.925781 38.714844 C 21.9375 38.742188 21.949219 38.769531 21.964844 38.796875 C 21.980469 38.839844 22 38.878906 22.011719 38.90625 C 22.03125 38.945312 22.046875 38.984375 22.0625 39.023438 C 22.089844 39.082031 22.117188 39.140625 22.144531 39.199219 C 22.152344 39.222656 22.164062 39.246094 22.175781 39.265625 C 22.183594 39.292969 22.195312 39.316406 22.207031 39.339844 C 22.21875 39.371094 22.234375 39.398438 22.246094 39.429688 C 22.257812 39.453125 22.265625 39.472656 22.277344 39.496094 C 22.28125 39.507812 22.289062 39.519531 22.292969 39.53125 C 22.300781 39.546875 22.308594 39.5625 22.3125 39.578125 C 22.320312 39.597656 22.332031 39.617188 22.339844 39.636719 C 22.347656 39.648438 22.351562 39.664062 22.359375 39.675781 C 22.367188 39.691406 22.371094 39.707031 22.378906 39.722656 C 22.382812 39.726562 22.382812 39.730469 22.386719 39.734375 L 22.386719 39.738281 C 22.390625 39.75 22.398438 39.761719 22.398438 39.765625 C 22.421875 39.816406 22.441406 39.863281 22.464844 39.914062 C 22.472656 39.933594 22.484375 39.957031 22.492188 39.976562 C 22.515625 40.027344 22.539062 40.078125 22.558594 40.121094 C 22.578125 40.171875 22.601562 40.21875 22.621094 40.269531 C 22.636719 40.300781 22.652344 40.332031 22.667969 40.367188 C 22.671875 40.371094 22.671875 40.375 22.675781 40.378906 C 22.6875 40.410156 22.703125 40.441406 22.71875 40.472656 L 22.734375 40.507812 C 22.757812 40.5625 22.777344 40.609375 22.800781 40.664062 L 22.828125 40.714844 C 22.847656 40.765625 22.867188 40.8125 22.890625 40.859375 C 22.910156 40.902344 22.929688 40.945312 22.933594 40.953125 L 22.945312 40.980469 C 22.988281 41.078125 23.03125 41.171875 23.046875 41.210938 C 23.085938 41.289062 23.121094 41.367188 23.15625 41.445312 L 23.164062 41.46875 C 23.167969 41.480469 23.175781 41.492188 23.179688 41.503906 C 23.179688 41.507812 23.183594 41.507812 23.183594 41.511719 C 23.195312 41.539062 23.207031 41.566406 23.222656 41.589844 C 23.226562 41.605469 23.234375 41.617188 23.238281 41.628906 C 23.25 41.65625 23.261719 41.679688 23.269531 41.707031 L 23.324219 41.824219 C 23.351562 41.878906 23.375 41.9375 23.402344 41.992188 L 23.414062 42.023438 C 23.433594 42.0625 23.449219 42.101562 23.46875 42.140625 C 23.472656 42.152344 23.476562 42.164062 23.480469 42.175781 C 23.5 42.210938 23.515625 42.246094 23.53125 42.285156 L 23.578125 42.390625 C 23.59375 42.417969 23.605469 42.445312 23.617188 42.472656 C 23.625 42.488281 23.632812 42.507812 23.640625 42.527344 C 23.648438 42.539062 23.652344 42.550781 23.65625 42.5625 C 23.671875 42.59375 23.683594 42.625 23.699219 42.660156 C 23.707031 42.679688 23.71875 42.695312 23.726562 42.714844 L 23.75 42.769531 C 23.765625 42.804688 23.785156 42.84375 23.800781 42.878906 C 23.8125 42.90625 23.820312 42.929688 23.832031 42.953125 C 23.847656 42.988281 23.867188 43.023438 23.867188 43.027344 C 23.878906 43.054688 23.890625 43.082031 23.902344 43.109375 C 23.921875 43.148438 23.9375 43.183594 23.953125 43.21875 C 23.96875 43.25 23.980469 43.285156 23.996094 43.316406 C 24 43.328125 24.003906 43.335938 24.007812 43.34375 C 24.019531 43.363281 24.027344 43.378906 24.035156 43.398438 C 24.050781 43.429688 24.0625 43.464844 24.078125 43.496094 L 24.101562 43.546875 L 24.132812 43.617188 C 24.15625 43.679688 24.183594 43.742188 24.210938 43.800781 C 24.242188 43.878906 24.285156 43.953125 24.316406 44.027344 C 24.335938 44.074219 24.359375 44.121094 24.378906 44.167969 C 24.414062 44.242188 24.445312 44.320312 24.480469 44.398438 L 24.484375 44.402344 C 24.492188 44.417969 24.5 44.433594 24.507812 44.453125 C 24.507812 44.453125 24.507812 44.453125 24.507812 44.457031 C 24.511719 44.460938 24.511719 44.464844 24.515625 44.46875 C 24.519531 44.484375 24.527344 44.496094 24.535156 44.511719 C 24.546875 44.542969 24.5625 44.574219 24.578125 44.605469 C 24.605469 44.667969 24.632812 44.726562 24.660156 44.789062 L 24.699219 44.875 L 24.710938 44.90625 C 24.742188 44.972656 24.769531 45.042969 24.804688 45.109375 C 24.804688 45.113281 24.808594 45.117188 24.808594 45.121094 C 24.824219 45.15625 24.839844 45.191406 24.851562 45.214844 C 24.871094 45.253906 24.886719 45.292969 24.898438 45.324219 C 24.910156 45.34375 24.917969 45.367188 24.929688 45.386719 C 24.933594 45.398438 24.9375 45.410156 24.941406 45.417969 L 24.945312 45.425781 C 24.976562 45.492188 25.007812 45.558594 25.035156 45.625 C 25.054688 45.664062 25.070312 45.703125 25.085938 45.742188 L 25.097656 45.761719 L 25.160156 45.902344 C 25.171875 45.925781 25.183594 45.949219 25.195312 45.976562 L 25.199219 45.992188 C 25.242188 46.078125 25.28125 46.167969 25.285156 46.175781 C 25.304688 46.222656 25.324219 46.265625 25.34375 46.3125 C 25.34375 46.3125 25.34375 46.316406 25.347656 46.316406 C 25.355469 46.34375 25.371094 46.371094 25.382812 46.398438 C 25.394531 46.417969 25.402344 46.441406 25.414062 46.464844 C 25.429688 46.5 25.445312 46.53125 25.460938 46.566406 C 25.46875 46.585938 25.476562 46.601562 25.484375 46.621094 L 25.527344 46.714844 C 25.535156 46.734375 25.542969 46.753906 25.554688 46.773438 C 25.5625 46.792969 25.570312 46.816406 25.582031 46.835938 L 25.582031 46.84375 C 25.585938 46.851562 25.59375 46.863281 25.597656 46.875 C 25.617188 46.917969 25.636719 46.964844 25.648438 46.984375 C 25.664062 47.015625 25.675781 47.046875 25.691406 47.074219 C 25.695312 47.089844 25.699219 47.101562 25.707031 47.113281 L 25.765625 47.242188 C 25.78125 47.28125 25.796875 47.320312 25.816406 47.359375 C 25.832031 47.394531 25.847656 47.429688 25.867188 47.46875 C 25.894531 47.554688 25.941406 47.636719 25.976562 47.71875 L 26.003906 47.777344 L 26.03125 47.839844 C 26.050781 47.882812 26.070312 47.925781 26.09375 47.96875 C 26.097656 47.992188 26.109375 48.011719 26.117188 48.035156 L 26.121094 48.042969 C 26.148438 48.09375 26.171875 48.148438 26.195312 48.199219 C 26.203125 48.222656 26.214844 48.246094 26.226562 48.269531 C 26.238281 48.296875 26.253906 48.328125 26.265625 48.355469 C 26.277344 48.382812 26.289062 48.40625 26.332031 48.507812 C 26.351562 48.546875 26.367188 48.585938 26.386719 48.625 L 26.386719 48.628906 C 26.402344 48.660156 26.414062 48.691406 26.429688 48.722656 L 26.480469 48.828125 L 26.515625 48.917969 L 26.546875 48.984375 C 26.5625 49.019531 26.578125 49.050781 26.59375 49.082031 L 26.597656 49.09375 L 26.597656 49.097656 C 26.609375 49.125 26.621094 49.148438 26.632812 49.171875 C 26.636719 49.179688 26.640625 49.191406 26.644531 49.199219 C 26.652344 49.21875 26.660156 49.234375 26.667969 49.253906 C 26.691406 49.300781 26.710938 49.347656 26.730469 49.398438 C 26.765625 49.464844 26.796875 49.535156 26.824219 49.605469 C 26.84375 49.640625 26.859375 49.675781 26.875 49.714844 C 26.882812 49.726562 26.886719 49.742188 26.894531 49.757812 C 25.640625 49.761719 24.386719 49.761719 23.128906 49.761719 C 21.761719 49.761719 20.394531 49.765625 19.027344 49.769531 C 19.027344 48.410156 19.027344 47.046875 19.03125 45.6875 C 19.03125 43.328125 19.035156 40.964844 19.035156 38.605469 C 19.039062 36.507812 19.039062 34.40625 19.042969 32.308594 C 19.046875 32.316406 19.050781 32.324219 19.054688 32.335938 Z M 13.660156 41.128906 C 14.589844 39.070312 15.515625 37.011719 16.441406 34.949219 C 16.882812 33.972656 17.324219 32.992188 17.761719 32.011719 C 17.761719 33.710938 17.761719 35.410156 17.757812 37.109375 C 17.753906 39.527344 17.75 41.941406 17.75 44.359375 C 17.75 46.164062 17.753906 47.96875 17.746094 49.773438 C 17.191406 49.773438 16.632812 49.773438 16.078125 49.773438 C 13.972656 49.78125 11.871094 49.785156 9.765625 49.789062 C 10.167969 48.890625 10.570312 47.996094 10.972656 47.101562 C 11.867188 45.113281 12.765625 43.121094 13.660156 41.128906 Z M 13.660156 41.128906 " fill-opacity="1" fill-rule="nonzero"/><path fill="#5a3a1a" d="M 38.964844 63.453125 C 40.773438 63.453125 42.578125 63.441406 44.382812 63.4375 C 46.679688 63.429688 48.976562 63.421875 51.273438 63.414062 C 52.390625 63.410156 53.507812 63.402344 54.625 63.402344 C 54.976562 63.402344 55.25 63.066406 55.234375 62.734375 C 55.21875 62.40625 54.960938 62.160156 54.644531 62.125 C 54.597656 62.121094 54.542969 62.125 54.492188 62.125 L 54.488281 62.125 C 53.640625 62.125 52.792969 62.128906 51.941406 62.132812 C 50.535156 62.136719 49.128906 62.140625 47.726562 62.144531 C 47.722656 61.890625 47.722656 61.636719 47.722656 61.386719 C 47.714844 59.8125 47.707031 58.242188 47.703125 56.671875 C 47.691406 54.210938 47.679688 51.75 47.667969 49.289062 C 47.65625 46.832031 47.644531 44.371094 47.636719 41.910156 C 47.625 39.625 47.613281 37.339844 47.605469 35.054688 C 47.597656 33.460938 47.585938 31.863281 47.582031 30.269531 C 47.984375 30.195312 48.375 30.070312 48.738281 29.878906 C 49.933594 29.242188 50.777344 28.011719 50.890625 26.65625 C 50.921875 26.308594 50.707031 25.980469 50.347656 25.929688 C 50.015625 25.886719 49.652344 26.128906 49.625 26.476562 C 49.613281 26.597656 49.597656 26.71875 49.574219 26.835938 C 49.542969 26.96875 49.507812 27.097656 49.464844 27.226562 C 49.421875 27.335938 49.378906 27.4375 49.328125 27.542969 C 49.269531 27.652344 49.203125 27.757812 49.132812 27.863281 C 49.066406 27.960938 48.992188 28.054688 48.914062 28.144531 C 48.832031 28.234375 48.746094 28.316406 48.65625 28.394531 C 48.550781 28.480469 48.441406 28.5625 48.332031 28.636719 C 48.226562 28.699219 48.121094 28.757812 48.011719 28.808594 C 47.910156 28.855469 47.8125 28.890625 47.707031 28.929688 C 47.597656 28.960938 47.484375 28.992188 47.367188 29.015625 C 47.238281 29.039062 47.105469 29.054688 46.972656 29.0625 C 46.855469 29.066406 46.742188 29.066406 46.628906 29.058594 C 46.507812 29.046875 46.394531 29.027344 46.277344 29.007812 C 46.160156 28.980469 46.050781 28.949219 45.9375 28.914062 C 45.820312 28.871094 45.699219 28.820312 45.585938 28.765625 C 45.472656 28.703125 45.363281 28.636719 45.257812 28.566406 C 45.160156 28.5 45.066406 28.425781 44.976562 28.347656 C 44.890625 28.261719 44.804688 28.175781 44.726562 28.085938 C 44.648438 27.992188 44.578125 27.894531 44.507812 27.796875 C 44.441406 27.6875 44.378906 27.574219 44.320312 27.457031 C 44.269531 27.339844 44.226562 27.226562 44.1875 27.109375 C 44.152344 26.996094 44.125 26.878906 44.101562 26.761719 C 44.085938 26.671875 44.074219 26.578125 44.066406 26.484375 C 44.066406 26.480469 44.066406 26.472656 44.066406 26.46875 C 44.03125 26.121094 43.695312 25.867188 43.355469 25.90625 C 43.023438 25.945312 42.789062 26.238281 42.792969 26.5625 C 42.792969 26.578125 42.792969 26.59375 42.796875 26.609375 L 42.796875 26.617188 C 42.808594 26.761719 42.828125 26.90625 42.855469 27.046875 C 43.042969 28.027344 43.617188 28.976562 44.476562 29.582031 C 45.019531 29.964844 45.644531 30.222656 46.304688 30.308594 C 46.304688 30.964844 46.308594 31.621094 46.3125 32.277344 C 46.324219 34.589844 46.332031 36.902344 46.34375 39.214844 C 46.355469 41.628906 46.367188 44.042969 46.375 46.457031 C 46.386719 48.914062 46.394531 51.371094 46.410156 53.828125 C 46.421875 55.925781 46.429688 58.023438 46.4375 60.125 C 46.441406 60.796875 46.4375 61.472656 46.445312 62.148438 C 46.007812 62.152344 45.574219 62.152344 45.136719 62.152344 C 43.058594 62.160156 40.980469 62.171875 38.902344 62.171875 C 38.554688 62.171875 38.277344 62.507812 38.296875 62.84375 C 38.3125 63.207031 38.617188 63.453125 38.964844 63.453125 Z M 38.964844 63.453125 " fill-opacity="1" fill-rule="nonzero"/><path fill="#c98a3a" d="M 38.066406 89.894531 C 38.117188 89.902344 38.164062 89.90625 38.210938 89.90625 C 38.515625 89.90625 38.789062 89.695312 38.855469 89.386719 C 38.9375 89.03125 38.710938 88.675781 38.351562 88.597656 C 30.699219 86.902344 23.605469 83.160156 17.84375 77.765625 C 17.578125 77.515625 17.15625 77.53125 16.90625 77.800781 C 16.660156 78.066406 16.671875 78.488281 16.941406 78.738281 C 22.875 84.289062 30.183594 88.148438 38.066406 89.894531 Z M 38.066406 89.894531 " fill-opacity="1" fill-rule="nonzero"/><path fill="#c98a3a" d="M 56.363281 90.160156 C 56.40625 90.160156 56.445312 90.15625 56.488281 90.148438 C 64.65625 88.578125 72.238281 84.769531 78.421875 79.132812 C 78.691406 78.886719 78.710938 78.464844 78.464844 78.195312 C 78.21875 77.921875 77.800781 77.902344 77.527344 78.148438 C 71.527344 83.621094 64.164062 87.320312 56.238281 88.84375 C 55.878906 88.914062 55.644531 89.261719 55.714844 89.621094 C 55.773438 89.9375 56.050781 90.160156 56.363281 90.160156 Z M 56.363281 90.160156 " fill-opacity="1" fill-rule="nonzero"/><g clip-path="url(#42a1497a61)"><path fill="#c98a3a" d="M 47.894531 0.015625 C 36.636719 0.015625 25.839844 4.175781 17.492188 11.730469 C 17.21875 11.976562 17.199219 12.398438 17.445312 12.667969 C 17.691406 12.941406 18.109375 12.964844 18.378906 12.71875 C 26.484375 5.382812 36.964844 1.34375 47.894531 1.34375 C 72.183594 1.34375 91.941406 21.148438 91.941406 45.488281 C 91.941406 53.328125 89.867188 61.027344 85.9375 67.753906 C 85.753906 68.070312 85.859375 68.476562 86.175781 68.660156 C 86.28125 68.722656 86.394531 68.75 86.507812 68.75 C 86.738281 68.75 86.957031 68.632812 87.082031 68.421875 C 91.128906 61.492188 93.265625 53.5625 93.265625 45.488281 C 93.265625 20.414062 72.914062 0.015625 47.894531 0.015625 Z M 47.894531 0.015625 " fill-opacity="1" fill-rule="nonzero"/></g><g clip-path="url(#494d9e3e2b)"><path fill="#c98a3a" d="M 8.84375 67.988281 C 8.953125 67.988281 9.0625 67.960938 9.164062 67.90625 C 9.484375 67.726562 9.597656 67.320312 9.417969 67 C 5.773438 60.464844 3.84375 53.023438 3.84375 45.488281 C 3.84375 36.15625 6.714844 27.234375 12.144531 19.691406 C 12.359375 19.390625 12.292969 18.976562 11.996094 18.761719 C 11.699219 18.546875 11.285156 18.617188 11.070312 18.914062 C 5.476562 26.683594 2.519531 35.875 2.519531 45.488281 C 2.519531 53.25 4.507812 60.914062 8.261719 67.648438 C 8.382812 67.867188 8.609375 67.988281 8.84375 67.988281 Z M 8.84375 67.988281 " fill-opacity="1" fill-rule="nonzero"/></g><path fill="#a66a2c" d="M 47.316406 95.984375 C 47.683594 95.984375 47.980469 95.6875 47.980469 95.320312 L 47.980469 94.808594 C 47.980469 92.472656 49.875 90.574219 52.207031 90.574219 L 52.71875 90.574219 C 53.082031 90.574219 53.378906 90.273438 53.378906 89.910156 C 53.378906 89.542969 53.082031 89.246094 52.71875 89.246094 L 52.207031 89.246094 C 49.875 89.246094 47.980469 87.34375 47.980469 85.007812 L 47.980469 84.496094 C 47.980469 84.128906 47.683594 83.832031 47.316406 83.832031 C 46.953125 83.832031 46.65625 84.128906 46.65625 84.496094 L 46.65625 85.007812 C 46.65625 87.34375 44.757812 89.246094 42.429688 89.246094 L 41.917969 89.246094 C 41.550781 89.246094 41.253906 89.542969 41.253906 89.910156 C 41.253906 90.273438 41.550781 90.574219 41.917969 90.574219 L 42.429688 90.574219 C 44.757812 90.574219 46.65625 92.472656 46.65625 94.808594 L 46.65625 95.320312 C 46.65625 95.6875 46.953125 95.984375 47.316406 95.984375 Z M 45.054688 89.910156 C 46.011719 89.390625 46.800781 88.601562 47.316406 87.640625 C 47.832031 88.601562 48.621094 89.390625 49.578125 89.910156 C 48.621094 90.425781 47.832031 91.214844 47.316406 92.175781 C 46.800781 91.214844 46.011719 90.425781 45.054688 89.910156 Z M 45.054688 89.910156 " fill-opacity="1" fill-rule="nonzero"/><path fill="#c98a3a" d="M 10.4375 16.300781 L 10.835938 16.300781 C 12.574219 16.300781 13.988281 17.714844 13.988281 19.457031 L 13.988281 19.855469 C 13.988281 20.222656 14.285156 20.519531 14.648438 20.519531 C 15.015625 20.519531 15.3125 20.222656 15.3125 19.855469 L 15.3125 19.457031 C 15.3125 17.714844 16.726562 16.300781 18.460938 16.300781 L 18.863281 16.300781 C 19.226562 16.300781 19.523438 16.003906 19.523438 15.636719 C 19.523438 15.269531 19.226562 14.972656 18.863281 14.972656 L 18.460938 14.972656 C 16.726562 14.972656 15.3125 13.554688 15.3125 11.816406 L 15.3125 11.414062 C 15.3125 11.046875 15.015625 10.75 14.648438 10.75 C 14.285156 10.75 13.988281 11.046875 13.988281 11.414062 L 13.988281 11.816406 C 13.988281 13.554688 12.574219 14.972656 10.835938 14.972656 L 10.4375 14.972656 C 10.070312 14.972656 9.777344 15.269531 9.777344 15.636719 C 9.777344 16.003906 10.070312 16.300781 10.4375 16.300781 Z M 14.648438 14.152344 C 15.019531 14.753906 15.527344 15.265625 16.132812 15.636719 C 15.527344 16.007812 15.019531 16.515625 14.648438 17.121094 C 14.277344 16.515625 13.769531 16.007812 13.167969 15.636719 C 13.769531 15.265625 14.277344 14.753906 14.648438 14.152344 Z M 14.648438 14.152344 " fill-opacity="1" fill-rule="nonzero"/><path fill="#c98a3a" d="M 62.132812 39.917969 C 62.5 39.917969 62.796875 39.621094 62.796875 39.253906 C 62.796875 38.886719 62.5 38.589844 62.132812 38.589844 L 61.625 38.589844 C 59.292969 38.589844 57.398438 36.691406 57.398438 34.355469 L 57.398438 33.84375 C 57.398438 33.476562 57.101562 33.179688 56.734375 33.179688 C 56.367188 33.179688 56.074219 33.476562 56.074219 33.84375 L 56.074219 34.355469 C 56.074219 36.691406 54.175781 38.589844 51.847656 38.589844 L 51.335938 38.589844 C 50.96875 38.589844 50.671875 38.886719 50.671875 39.253906 C 50.671875 39.621094 50.96875 39.917969 51.335938 39.917969 L 51.847656 39.917969 C 54.175781 39.917969 56.074219 41.816406 56.074219 44.152344 L 56.074219 44.667969 C 56.074219 45.03125 56.367188 45.328125 56.734375 45.328125 C 57.101562 45.328125 57.398438 45.03125 57.398438 44.667969 L 57.398438 44.152344 C 57.398438 41.816406 59.292969 39.917969 61.625 39.917969 Z M 56.734375 41.523438 C 56.21875 40.5625 55.429688 39.773438 54.472656 39.253906 C 55.429688 38.738281 56.21875 37.945312 56.734375 36.988281 C 57.25 37.945312 58.039062 38.738281 58.996094 39.253906 C 58.039062 39.773438 57.25 40.5625 56.734375 41.523438 Z M 56.734375 41.523438 " fill-opacity="1" fill-rule="nonzero"/><path fill="#5a3a1a" d="M 73.449219 11.707031 C 73.082031 11.707031 72.789062 12.003906 72.789062 12.371094 L 72.789062 13.058594 C 72.789062 13.960938 72.054688 14.691406 71.15625 14.691406 L 70.46875 14.691406 C 70.101562 14.691406 69.808594 14.988281 69.808594 15.355469 C 69.808594 15.722656 70.101562 16.019531 70.46875 16.019531 L 71.15625 16.019531 C 72.054688 16.019531 72.789062 16.753906 72.789062 17.652344 L 72.789062 18.34375 C 72.789062 18.710938 73.082031 19.007812 73.449219 19.007812 C 73.816406 19.007812 74.113281 18.710938 74.113281 18.34375 L 74.113281 17.652344 C 74.113281 16.753906 74.84375 16.019531 75.742188 16.019531 L 76.429688 16.019531 C 76.796875 16.019531 77.09375 15.722656 77.09375 15.355469 C 77.09375 14.988281 76.796875 14.691406 76.429688 14.691406 L 75.742188 14.691406 C 74.84375 14.691406 74.113281 13.960938 74.113281 13.058594 L 74.113281 12.371094 C 74.113281 12.003906 73.816406 11.707031 73.449219 11.707031 Z M 73.882812 15.355469 C 73.722656 15.484375 73.578125 15.628906 73.449219 15.789062 C 73.320312 15.628906 73.175781 15.484375 73.019531 15.355469 C 73.175781 15.226562 73.320312 15.082031 73.449219 14.921875 C 73.578125 15.082031 73.722656 15.226562 73.882812 15.355469 Z M 73.882812 15.355469 " fill-opacity="1" fill-rule="nonzero"/></svg>