<svg xmlns="http://www.w3.org/2000/svg" xmlns:xlink="http://www.w3.org/1999/xlink" width="128" zoomAndPan="magnify" viewBox="0 0 96 95.999999" height="128" preserveAspectRatio="xMidYMid meet" version="1.0"><defs><clipPath id="f1d2f95b4b"><path d="M 49 1.117188 L 58 1.117188 L 58 11 L 49 11 Z M 49 1.117188 " clip-rule="nonzero"/></clipPath><clipPath id="a185822d5b"><path d="M 75 31 L 83.222656 31 L 83.222656 41 L 75 41 Z M 75 31 " clip-rule="nonzero"/></clipPath><clipPath id="13b7ef1a0f"><path d="M 29 91 L 34 91 L 34 94.867188 L 29 94.867188 Z M 29 91 " clip-rule="nonzero"/></clipPath><clipPath id="46c286b2df"><path d="M 12.722656 36 L 17 36 L 17 41 L 12.722656 41 Z M 12.722656 36 " clip-rule="nonzero"/></clipPath></defs><g clip-path="url(#f1d2f95b4b)"><path fill="#000000" d="M 53.28125 6.429688 C 53.28125 6.339844 53.285156 6.257812 53.28125 6.167969 C 53.363281 6.164062 53.441406 6.164062 53.519531 6.164062 C 54.734375 6.054688 55.914062 5.730469 57.097656 5.457031 C 55.898438 5.429688 54.703125 5.550781 53.507812 5.585938 C 53.457031 5.585938 53.40625 5.585938 53.355469 5.585938 C 53.667969 5.210938 53.960938 4.816406 54.222656 4.394531 C 53.890625 4.675781 53.5625 4.964844 53.25 5.269531 C 53.242188 5.136719 53.234375 5 53.226562 4.871094 C 53.09375 3.433594 52.917969 2.511719 52.746094 1.117188 C 52.558594 2.605469 52.566406 4.105469 52.652344 5.601562 C 52.578125 5.605469 52.503906 5.613281 52.429688 5.617188 C 52.046875 5.246094 51.675781 4.859375 51.378906 4.414062 C 51.53125 4.863281 51.753906 5.269531 52.019531 5.640625 C 51.023438 5.710938 50.035156 5.847656 49.050781 6.003906 C 50.148438 6.121094 51.261719 6.179688 52.371094 6.179688 C 51.957031 6.65625 51.578125 7.160156 51.265625 7.710938 C 51.742188 7.28125 52.207031 6.84375 52.648438 6.378906 C 52.667969 6.402344 52.6875 6.417969 52.710938 6.4375 C 52.796875 7.648438 52.921875 8.859375 53.015625 10.058594 C 53.144531 9.027344 53.242188 7.984375 53.269531 6.941406 C 53.820312 7.398438 54.425781 7.796875 55.015625 8.164062 C 54.4375 7.589844 53.871094 6.996094 53.28125 6.429688 Z M 53.28125 6.429688 " fill-opacity="1" fill-rule="nonzero"/></g><g clip-path="url(#a185822d5b)"><path fill="#000000" d="M 83.238281 36.179688 C 82.796875 36.101562 82.351562 36.050781 81.902344 36.027344 C 81.238281 35.980469 80.601562 35.976562 79.980469 36.003906 C 79.980469 35.988281 79.980469 35.972656 79.980469 35.957031 C 80.335938 35.605469 80.679688 35.238281 80.992188 34.816406 C 81.117188 34.636719 81.738281 33.921875 81.304688 34.296875 C 80.847656 34.667969 80.382812 35.039062 79.941406 35.433594 C 79.824219 34.125 79.585938 32.871094 79.441406 31.664062 C 79.242188 33.070312 79.226562 34.484375 79.304688 35.898438 C 78.773438 35.449219 78.226562 35.015625 77.75 34.511719 C 78.050781 35.125 78.464844 35.625 78.929688 36.070312 C 77.667969 36.179688 76.449219 36.363281 75.171875 36.46875 C 76.335938 36.703125 77.523438 36.734375 78.710938 36.671875 C 78.375 37.074219 78.078125 37.507812 77.84375 37.984375 C 78.289062 37.503906 78.777344 37.074219 79.257812 36.636719 C 79.289062 36.636719 79.320312 36.632812 79.351562 36.628906 C 79.453125 37.976562 79.625 39.320312 79.796875 40.652344 C 79.949219 39.445312 80.03125 38.226562 80.011719 37.007812 C 80.226562 37.183594 80.441406 37.351562 80.648438 37.527344 C 80.890625 37.699219 81.476562 38.414062 81.050781 37.769531 C 80.773438 37.316406 80.425781 36.929688 80.046875 36.566406 C 81.023438 36.46875 81.988281 36.328125 82.917969 36.210938 C 83.027344 36.195312 83.132812 36.1875 83.238281 36.179688 Z M 83.238281 36.179688 " fill-opacity="1" fill-rule="nonzero"/></g><path fill="#000000" d="M 67.699219 74.792969 C 66.8125 74.78125 65.929688 74.765625 65.046875 74.757812 C 65.277344 74.507812 65.5 74.246094 65.703125 73.96875 C 65.394531 74.199219 65.101562 74.453125 64.820312 74.71875 C 64.804688 73.699219 64.734375 72.6875 64.621094 71.675781 C 64.441406 72.660156 64.367188 73.65625 64.363281 74.652344 C 64.058594 74.363281 63.746094 74.082031 63.4375 73.800781 C 63.65625 74.140625 63.898438 74.453125 64.164062 74.757812 C 63.261719 74.761719 62.363281 74.78125 61.457031 74.851562 C 62.40625 75.0625 63.378906 75.175781 64.351562 75.191406 C 64.082031 75.480469 63.824219 75.785156 63.59375 76.105469 C 63.867188 75.890625 64.125 75.664062 64.378906 75.433594 C 64.410156 76.335938 64.492188 77.238281 64.621094 78.132812 C 64.746094 77.246094 64.804688 76.355469 64.820312 75.460938 C 65.171875 75.816406 65.535156 76.15625 65.898438 76.5 C 65.613281 76.015625 65.269531 75.585938 64.890625 75.183594 C 65.839844 75.160156 66.78125 75.039062 67.699219 74.792969 Z M 67.699219 74.792969 " fill-opacity="1" fill-rule="nonzero"/><path fill="#000000" d="M 37.378906 84.300781 C 36.957031 84.175781 36.539062 84.0625 36.121094 83.96875 C 36.308594 83.824219 36.496094 83.671875 36.667969 83.507812 C 36.410156 83.628906 36.167969 83.769531 35.929688 83.925781 C 35.925781 83.925781 35.917969 83.921875 35.914062 83.921875 C 35.964844 83.324219 35.976562 82.714844 35.953125 82.113281 C 35.808594 82.628906 35.707031 83.160156 35.636719 83.691406 C 35.527344 83.511719 35.410156 83.335938 35.289062 83.164062 C 35.359375 83.402344 35.449219 83.636719 35.558594 83.859375 C 34.988281 83.765625 34.410156 83.726562 33.808594 83.78125 C 34.402344 83.914062 35.003906 84.046875 35.582031 84.144531 C 35.582031 84.160156 35.578125 84.167969 35.578125 84.183594 C 35.359375 84.351562 35.148438 84.535156 34.957031 84.734375 C 35.164062 84.625 35.367188 84.5 35.5625 84.371094 C 35.511719 84.964844 35.5 85.558594 35.511719 86.152344 C 35.679688 85.582031 35.792969 84.996094 35.863281 84.40625 C 36.015625 84.632812 36.183594 84.851562 36.367188 85.054688 C 36.234375 84.761719 36.089844 84.480469 35.9375 84.203125 C 36.449219 84.273438 36.9375 84.320312 37.378906 84.300781 Z M 37.378906 84.300781 " fill-opacity="1" fill-rule="nonzero"/><g clip-path="url(#13b7ef1a0f)"><path fill="#000000" d="M 32.910156 92.855469 C 32.488281 92.859375 32.089844 92.902344 31.695312 92.960938 C 31.859375 92.707031 32.015625 92.441406 32.144531 92.167969 C 31.914062 92.425781 31.691406 92.699219 31.488281 92.984375 C 31.410156 92.414062 31.292969 91.851562 31.09375 91.308594 C 31.113281 91.820312 31.144531 92.332031 31.199219 92.839844 C 31.039062 92.664062 30.875 92.488281 30.714844 92.308594 C 30.828125 92.578125 30.976562 92.824219 31.148438 93.050781 C 30.667969 93.140625 30.179688 93.25 29.664062 93.355469 C 30.199219 93.417969 30.730469 93.394531 31.257812 93.308594 C 31.257812 93.316406 31.261719 93.320312 31.261719 93.324219 C 31.117188 93.554688 30.988281 93.796875 30.886719 94.050781 C 31.027344 93.882812 31.164062 93.710938 31.296875 93.53125 C 31.375 93.992188 31.476562 94.445312 31.628906 94.886719 C 31.617188 94.421875 31.589844 93.957031 31.542969 93.492188 C 31.792969 93.730469 32.070312 93.945312 32.367188 94.125 C 32.109375 93.828125 31.84375 93.539062 31.574219 93.25 C 32.015625 93.164062 32.449219 93.046875 32.871094 92.90625 C 33.003906 92.863281 33.164062 92.839844 32.910156 92.855469 Z M 32.910156 92.855469 " fill-opacity="1" fill-rule="nonzero"/></g><path fill="#000000" d="M 33.703125 29.523438 C 34.199219 29.449219 34.683594 29.335938 35.148438 29.15625 C 34.703125 29.191406 34.257812 29.21875 33.808594 29.257812 C 33.9375 29.039062 34.054688 28.816406 34.160156 28.582031 C 33.976562 28.800781 33.808594 29.03125 33.648438 29.273438 C 33.636719 29.273438 33.621094 29.273438 33.605469 29.273438 C 33.527344 28.53125 33.398438 27.792969 33.222656 27.066406 C 33.183594 27.757812 33.207031 28.457031 33.285156 29.148438 C 33.117188 28.996094 32.949219 28.84375 32.773438 28.695312 C 32.910156 28.914062 33.070312 29.121094 33.25 29.3125 C 32.644531 29.378906 32.046875 29.472656 31.457031 29.636719 C 32.082031 29.660156 32.714844 29.652344 33.335938 29.582031 C 33.34375 29.636719 33.355469 29.6875 33.363281 29.742188 C 33.269531 29.90625 33.183594 30.078125 33.101562 30.246094 C 33.203125 30.132812 33.300781 30.015625 33.390625 29.894531 C 33.46875 30.34375 33.566406 30.785156 33.6875 31.226562 C 33.699219 30.707031 33.679688 30.195312 33.636719 29.675781 C 33.871094 29.875 34.125 30.046875 34.386719 30.179688 C 34.164062 29.957031 33.9375 29.738281 33.703125 29.523438 Z M 33.703125 29.523438 " fill-opacity="1" fill-rule="nonzero"/><g clip-path="url(#46c286b2df)"><path fill="#000000" d="M 16.894531 39.359375 C 16.347656 39.007812 15.765625 38.71875 15.164062 38.472656 C 15.480469 38.332031 15.757812 38.179688 15.925781 38.039062 C 15.652344 38.113281 15.378906 38.195312 15.113281 38.285156 C 15.226562 37.792969 15.308594 37.289062 15.355469 36.78125 C 15.152344 37.226562 14.984375 37.6875 14.835938 38.160156 C 14.722656 37.898438 14.601562 37.644531 14.457031 37.398438 C 14.527344 37.703125 14.621094 38.003906 14.71875 38.300781 C 14.082031 38.070312 13.425781 37.890625 12.753906 37.777344 C 13.304688 38.066406 13.867188 38.328125 14.445312 38.558594 C 14.171875 38.691406 13.902344 38.835938 13.652344 39.007812 C 13.953125 38.925781 14.324219 38.804688 14.6875 38.667969 C 14.527344 39.28125 14.429688 39.914062 14.40625 40.550781 C 14.621094 40.011719 14.808594 39.464844 14.960938 38.90625 C 15.066406 39.136719 15.183594 39.367188 15.320312 39.585938 C 15.25 39.320312 15.171875 39.0625 15.082031 38.804688 C 15.679688 39.015625 16.285156 39.203125 16.894531 39.359375 Z M 16.894531 39.359375 " fill-opacity="1" fill-rule="nonzero"/></g><path fill="#000000" d="M 34.980469 85.71875 L 32.433594 91.648438 L 32.332031 91.605469 L 34.882812 85.675781 Z M 34.980469 85.71875 " fill-opacity="1" fill-rule="nonzero"/><path fill="#000000" d="M 62.472656 76.191406 L 37.40625 83.355469 L 37.378906 83.25 L 62.441406 76.089844 Z M 62.472656 76.191406 " fill-opacity="1" fill-rule="nonzero"/><path fill="#000000" d="M 78.570312 39.488281 L 66.054688 73.242188 L 65.953125 73.207031 L 78.46875 39.449219 Z M 78.570312 39.488281 " fill-opacity="1" fill-rule="nonzero"/><path fill="#000000" d="M 53.757812 11.03125 L 64.195312 70.90625 L 64.085938 70.925781 L 53.652344 11.046875 Z M 53.757812 11.03125 " fill-opacity="1" fill-rule="nonzero"/><path fill="#000000" d="M 56.082031 9.320312 L 77.082031 34.324219 L 76.996094 34.394531 L 56 9.390625 Z M 56.082031 9.320312 " fill-opacity="1" fill-rule="nonzero"/><path fill="#000000" d="M 34.574219 28.316406 L 51.539062 8.523438 L 51.621094 8.597656 L 34.65625 28.386719 Z M 34.574219 28.316406 " fill-opacity="1" fill-rule="nonzero"/><path fill="#000000" d="M 16.425781 37.628906 L 31.90625 30.21875 L 31.953125 30.316406 L 16.472656 37.730469 Z M 16.425781 37.628906 " fill-opacity="1" fill-rule="nonzero"/></svg>