<svg xmlns="http://www.w3.org/2000/svg" xmlns:xlink="http://www.w3.org/1999/xlink" width="128" zoomAndPan="magnify" viewBox="0 0 96 95.999999" height="128" preserveAspectRatio="xMidYMid meet" version="1.0"><defs><clipPath id="9ce85425eb"><path d="M 2.113281 22 L 9 22 L 9 29 L 2.113281 29 Z M 2.113281 22 " clip-rule="nonzero"/></clipPath><clipPath id="72355d1eb4"><path d="M 31 81 L 42 81 L 42 91.347656 L 31 91.347656 Z M 31 81 " clip-rule="nonzero"/></clipPath><clipPath id="aecc1a5987"><path d="M 79 4.347656 L 84 4.347656 L 84 9 L 79 9 Z M 79 4.347656 " clip-rule="nonzero"/></clipPath><clipPath id="1cb1d61ce1"><path d="M 85 5 L 93.613281 5 L 93.613281 15 L 85 15 Z M 85 5 " clip-rule="nonzero"/></clipPath></defs><g clip-path="url(#9ce85425eb)"><path fill="#000000" d="M 5.449219 25.621094 C 6.371094 25.527344 7.28125 25.382812 8.183594 25.160156 C 7.304688 25.097656 6.417969 25.085938 5.539062 25.132812 C 5.835938 24.765625 6.117188 24.378906 6.386719 23.988281 C 5.980469 24.3125 5.605469 24.671875 5.257812 25.054688 C 5.179688 24.136719 5.03125 23.226562 4.792969 22.328125 C 4.753906 23.226562 4.742188 24.125 4.765625 25.019531 C 4.453125 24.777344 4.125 24.554688 3.769531 24.371094 C 4.042969 24.65625 4.320312 24.9375 4.605469 25.210938 C 3.765625 25.308594 2.929688 25.464844 2.113281 25.710938 C 2.984375 25.75 3.859375 25.738281 4.734375 25.679688 C 4.460938 26.03125 4.207031 26.394531 3.96875 26.769531 C 4.265625 26.519531 4.542969 26.253906 4.808594 25.976562 C 4.863281 26.910156 4.960938 27.828125 5.128906 28.71875 C 5.167969 29.007812 5.167969 28.699219 5.1875 28.5625 C 5.296875 27.667969 5.335938 26.761719 5.304688 25.863281 C 5.664062 26.179688 6.03125 26.492188 6.414062 26.78125 C 6.128906 26.363281 5.804688 25.976562 5.449219 25.621094 Z M 5.449219 25.621094 " fill-opacity="1" fill-rule="nonzero"/></g><path fill="#000000" d="M 8.546875 33.15625 C 8.1875 33.101562 7.828125 33.070312 7.46875 33.054688 C 7.632812 32.871094 7.777344 32.6875 7.882812 32.535156 C 7.707031 32.652344 7.546875 32.785156 7.394531 32.933594 C 7.386719 32.480469 7.332031 32.027344 7.21875 31.582031 C 7.183594 32.023438 7.160156 32.46875 7.15625 32.910156 C 7.042969 32.773438 6.929688 32.636719 6.800781 32.496094 C 6.878906 32.671875 6.988281 32.859375 7.109375 33.035156 C 6.59375 33.027344 6.074219 33.050781 5.5625 33.113281 C 6.058594 33.222656 6.566406 33.277344 7.070312 33.28125 C 6.945312 33.429688 6.824219 33.589844 6.71875 33.753906 C 6.863281 33.648438 7.011719 33.515625 7.160156 33.375 C 7.167969 33.78125 7.191406 34.1875 7.25 34.59375 C 7.324219 34.195312 7.371094 33.792969 7.386719 33.386719 C 7.5 33.511719 7.613281 33.621094 7.71875 33.703125 C 7.628906 33.550781 7.53125 33.410156 7.4375 33.273438 C 7.804688 33.261719 8.175781 33.222656 8.546875 33.15625 Z M 8.546875 33.15625 " fill-opacity="1" fill-rule="nonzero"/><path fill="#000000" d="M 14.304688 34.25 C 14.808594 34.230469 15.316406 34.1875 15.8125 34.128906 C 15.28125 34.058594 14.742188 33.976562 14.203125 33.945312 C 14.449219 33.683594 14.664062 33.417969 14.804688 33.183594 C 14.539062 33.371094 14.296875 33.582031 14.0625 33.804688 C 14.042969 33.292969 13.996094 32.78125 13.929688 32.273438 C 13.832031 32.753906 13.792969 33.253906 13.78125 33.757812 C 13.585938 33.589844 13.386719 33.429688 13.175781 33.28125 C 13.332031 33.492188 13.519531 33.714844 13.722656 33.929688 C 13.660156 33.929688 13.601562 33.929688 13.539062 33.933594 C 12.980469 33.941406 12.421875 34.042969 11.863281 34.039062 C 12.4375 34.191406 13.03125 34.253906 13.625 34.265625 C 13.449219 34.46875 13.277344 34.679688 13.121094 34.90625 C 13.339844 34.75 13.566406 34.5625 13.785156 34.363281 C 13.800781 34.90625 13.839844 35.441406 13.886719 35.949219 C 14.015625 35.398438 14.0625 34.839844 14.070312 34.28125 C 14.339844 34.539062 14.621094 34.769531 14.863281 34.921875 C 14.691406 34.679688 14.503906 34.460938 14.304688 34.25 Z M 14.304688 34.25 " fill-opacity="1" fill-rule="nonzero"/><path fill="#000000" d="M 20.863281 37.71875 C 21.4375 37.699219 21.988281 37.667969 22.453125 37.621094 C 21.984375 37.507812 21.5 37.445312 21.015625 37.433594 C 21.238281 37.1875 21.453125 36.9375 21.640625 36.664062 C 21.410156 36.855469 21.128906 37.097656 20.847656 37.351562 C 20.832031 36.800781 20.792969 36.257812 20.734375 35.710938 C 20.613281 36.257812 20.550781 36.816406 20.535156 37.371094 C 20.285156 37.117188 20.03125 36.867188 19.757812 36.640625 C 19.921875 36.917969 20.105469 37.1875 20.308594 37.4375 C 19.75 37.472656 19.195312 37.5625 18.65625 37.714844 C 19.222656 37.742188 19.839844 37.742188 20.449219 37.730469 C 20.164062 38.019531 19.925781 38.296875 19.820312 38.507812 C 20.066406 38.324219 20.300781 38.125 20.53125 37.914062 C 20.542969 38.585938 20.605469 39.257812 20.710938 39.921875 C 20.804688 39.292969 20.84375 38.65625 20.851562 38.027344 C 21.085938 38.242188 21.34375 38.441406 21.621094 38.605469 C 21.375 38.300781 21.125 38.003906 20.863281 37.71875 Z M 20.863281 37.71875 " fill-opacity="1" fill-rule="nonzero"/><path fill="#000000" d="M 28.292969 54.523438 C 27.25 54.394531 26.199219 54.355469 25.140625 54.375 C 25.613281 53.785156 26.042969 53.167969 26.414062 52.5 C 25.9375 52.96875 25.453125 53.4375 24.988281 53.921875 C 24.910156 52.578125 24.75 51.242188 24.554688 49.960938 C 24.359375 51.433594 24.28125 52.917969 24.339844 54.398438 C 23.746094 53.871094 23.125 53.382812 22.445312 52.964844 C 22.855469 53.464844 23.273438 53.960938 23.710938 54.441406 C 22.367188 54.527344 21.03125 54.6875 19.722656 54.863281 C 21.101562 55.019531 22.484375 55.15625 23.871094 55.195312 C 23.433594 55.75 23.039062 56.339844 22.726562 56.980469 C 23.292969 56.425781 23.851562 55.855469 24.386719 55.265625 C 24.441406 56.011719 24.527344 56.757812 24.65625 57.5 C 24.703125 57.824219 24.761719 58.308594 24.804688 58.851562 C 24.8125 58.914062 24.820312 59.117188 24.828125 59.023438 C 24.992188 58.1875 25.027344 57.335938 25.027344 56.488281 C 25.039062 56.25 25.039062 56.007812 25.039062 55.769531 C 25.71875 56.371094 26.449219 56.898438 27.273438 57.304688 C 26.558594 56.597656 25.871094 55.863281 25.152344 55.160156 C 26.59375 55.070312 28.035156 54.921875 29.464844 54.722656 C 30.082031 54.679688 28.503906 54.570312 28.292969 54.523438 Z M 28.292969 54.523438 " fill-opacity="1" fill-rule="nonzero"/><g clip-path="url(#72355d1eb4)"><path fill="#000000" d="M 41.554688 86.460938 C 40.265625 86.1875 38.96875 85.9375 37.660156 85.761719 C 38.15625 85.222656 38.617188 84.648438 39.015625 84.039062 C 38.460938 84.519531 37.902344 84.996094 37.359375 85.492188 C 37.363281 85.308594 37.367188 85.125 37.371094 84.941406 C 37.394531 83.628906 37.214844 82.324219 37.140625 81.019531 C 36.84375 82.457031 36.6875 83.929688 36.550781 85.394531 C 36.164062 84.878906 35.753906 84.375 35.320312 83.894531 C 35.582031 84.480469 35.882812 85.054688 36.210938 85.609375 C 36.050781 85.597656 35.886719 85.582031 35.722656 85.570312 C 34.261719 85.535156 32.792969 85.6875 31.363281 85.980469 C 33.03125 86.085938 34.695312 86.304688 36.359375 86.453125 C 35.878906 86.949219 35.429688 87.464844 35.027344 88.03125 C 34.832031 88.289062 35.039062 88.078125 35.160156 87.996094 C 35.597656 87.664062 36.03125 87.3125 36.453125 86.941406 C 36.40625 88.503906 36.460938 90.074219 36.5 91.636719 C 36.871094 90.164062 37.132812 88.660156 37.265625 87.144531 C 37.65625 87.648438 38.078125 88.128906 38.539062 88.574219 C 38.1875 87.867188 37.789062 87.1875 37.359375 86.53125 C 38.265625 86.59375 39.175781 86.625 40.089844 86.589844 C 40.667969 86.582031 41.238281 86.550781 41.8125 86.523438 C 41.726562 86.503906 41.640625 86.480469 41.554688 86.460938 Z M 41.554688 86.460938 " fill-opacity="1" fill-rule="nonzero"/></g><path fill="#000000" d="M 41.128906 79.839844 C 41 79.6875 40.851562 79.5625 40.695312 79.445312 C 40.972656 79.375 41.246094 79.289062 41.515625 79.191406 C 41.191406 79.191406 40.875 79.234375 40.5625 79.296875 C 40.664062 79.132812 40.753906 78.964844 40.824219 78.785156 C 40.703125 78.925781 40.589844 79.066406 40.484375 79.210938 C 40.421875 78.859375 40.335938 78.507812 40.207031 78.171875 C 40.222656 78.460938 40.242188 78.824219 40.277344 79.1875 C 40.109375 79.101562 39.9375 79.027344 39.753906 78.972656 C 39.921875 79.089844 40.109375 79.210938 40.292969 79.332031 C 40.292969 79.339844 40.296875 79.347656 40.296875 79.355469 C 40.03125 79.421875 39.773438 79.5 39.515625 79.585938 C 39.765625 79.601562 40.007812 79.578125 40.253906 79.542969 C 40.160156 79.6875 40.074219 79.832031 39.996094 79.996094 C 40.117188 79.882812 40.226562 79.757812 40.328125 79.628906 C 40.386719 80.089844 40.46875 80.511719 40.582031 80.761719 C 40.59375 80.335938 40.582031 79.914062 40.53125 79.496094 C 40.535156 79.496094 40.539062 79.496094 40.542969 79.496094 C 40.746094 79.617188 40.949219 79.738281 41.128906 79.839844 Z M 41.128906 79.839844 " fill-opacity="1" fill-rule="nonzero"/><path fill="#000000" d="M 41.976562 69.734375 C 41.308594 69.628906 40.632812 69.558594 39.960938 69.539062 C 40.226562 69.257812 40.476562 68.957031 40.695312 68.636719 C 40.660156 68.664062 40.621094 68.691406 40.585938 68.71875 C 40.300781 68.929688 40.015625 69.164062 39.746094 69.417969 C 39.707031 68.855469 39.621094 68.296875 39.488281 67.746094 C 39.457031 68.207031 39.445312 68.761719 39.445312 69.324219 C 39.261719 69.128906 39.070312 68.941406 38.871094 68.757812 C 39.003906 69.027344 39.160156 69.285156 39.332031 69.535156 C 38.640625 69.546875 37.953125 69.617188 37.265625 69.777344 C 37.902344 69.851562 38.597656 69.894531 39.292969 69.90625 C 39.097656 70.144531 38.914062 70.394531 38.765625 70.660156 C 39 70.457031 39.230469 70.253906 39.457031 70.042969 C 39.480469 70.761719 39.542969 71.429688 39.660156 71.855469 C 39.746094 71.285156 39.785156 70.703125 39.777344 70.128906 C 40.03125 70.433594 40.300781 70.71875 40.59375 70.988281 C 40.40625 70.605469 40.179688 70.246094 39.929688 69.910156 C 40.660156 69.898438 41.375 69.84375 41.976562 69.734375 Z M 41.976562 69.734375 " fill-opacity="1" fill-rule="nonzero"/><path fill="#000000" d="M 44.652344 57.992188 C 45.128906 57.972656 45.582031 57.917969 45.949219 57.820312 C 45.511719 57.773438 45.074219 57.746094 44.632812 57.738281 C 44.804688 57.535156 44.960938 57.320312 45.101562 57.09375 C 44.917969 57.25 44.726562 57.429688 44.546875 57.621094 C 44.507812 57.167969 44.441406 56.714844 44.335938 56.269531 C 44.273438 56.730469 44.246094 57.203125 44.253906 57.675781 C 44.074219 57.542969 43.886719 57.417969 43.6875 57.3125 C 43.804688 57.457031 43.945312 57.601562 44.089844 57.746094 C 43.605469 57.761719 43.121094 57.8125 42.640625 57.921875 C 43.121094 57.976562 43.671875 58.007812 44.210938 58.003906 C 44.078125 58.171875 43.957031 58.34375 43.867188 58.5 C 44.007812 58.386719 44.140625 58.265625 44.269531 58.136719 C 44.308594 58.6875 44.394531 59.226562 44.53125 59.734375 C 44.578125 59.214844 44.59375 58.691406 44.578125 58.171875 C 44.820312 58.363281 45.066406 58.53125 45.28125 58.640625 C 45.09375 58.40625 44.878906 58.191406 44.652344 57.992188 Z M 44.652344 57.992188 " fill-opacity="1" fill-rule="nonzero"/><path fill="#000000" d="M 47.914062 52.097656 C 48.40625 52.046875 48.867188 51.96875 49.21875 51.863281 C 48.753906 51.824219 48.285156 51.824219 47.816406 51.851562 C 47.957031 51.644531 48.085938 51.425781 48.179688 51.1875 C 48.015625 51.390625 47.855469 51.582031 47.703125 51.777344 C 47.671875 51.277344 47.613281 50.777344 47.535156 50.28125 C 47.460938 50.738281 47.433594 51.195312 47.4375 51.652344 C 47.28125 51.53125 47.109375 51.421875 46.929688 51.335938 C 47.082031 51.492188 47.257812 51.675781 47.441406 51.855469 C 47.441406 51.867188 47.441406 51.871094 47.441406 51.882812 C 46.949219 51.9375 46.464844 52.027344 45.992188 52.167969 C 46.429688 52.1875 46.933594 52.175781 47.433594 52.140625 C 47.328125 52.289062 47.222656 52.449219 47.125 52.621094 C 47.242188 52.523438 47.355469 52.417969 47.464844 52.300781 C 47.5 52.8125 47.570312 53.328125 47.667969 53.832031 C 47.734375 53.265625 47.75 52.695312 47.726562 52.128906 C 47.921875 52.308594 48.113281 52.460938 48.269531 52.546875 C 48.164062 52.390625 48.042969 52.242188 47.914062 52.097656 Z M 47.914062 52.097656 " fill-opacity="1" fill-rule="nonzero"/><path fill="#000000" d="M 52.933594 45.46875 C 52.933594 45.441406 52.9375 45.414062 52.9375 45.386719 C 53.425781 45.367188 53.90625 45.324219 54.390625 45.289062 C 53.960938 45.175781 53.523438 45.121094 53.085938 45.105469 C 53.300781 44.878906 53.5 44.632812 53.667969 44.363281 C 53.421875 44.566406 53.179688 44.773438 52.941406 44.984375 C 52.9375 44.433594 52.902344 43.882812 52.835938 43.335938 C 52.699219 43.890625 52.640625 44.460938 52.625 45.027344 C 52.441406 44.777344 52.242188 44.53125 52.039062 44.277344 C 52.144531 44.574219 52.285156 44.847656 52.449219 45.105469 C 51.96875 45.125 51.488281 45.179688 51.007812 45.25 C 51.503906 45.359375 52.007812 45.394531 52.511719 45.394531 C 52.269531 45.636719 52.039062 45.886719 51.832031 46.160156 C 52.109375 45.972656 52.378906 45.765625 52.632812 45.542969 C 52.648438 46.042969 52.695312 46.539062 52.761719 47.03125 C 52.84375 46.601562 52.894531 46.171875 52.921875 45.738281 C 53.058594 45.898438 53.199219 46.054688 53.347656 46.207031 C 53.222656 45.945312 53.085938 45.699219 52.933594 45.46875 Z M 52.933594 45.46875 " fill-opacity="1" fill-rule="nonzero"/><path fill="#000000" d="M 65.949219 27.445312 C 66.671875 27.304688 67.378906 27.105469 68.011719 26.851562 C 67.339844 26.882812 66.671875 26.953125 66.007812 27.070312 C 66.136719 26.820312 66.25 26.566406 66.355469 26.308594 C 66.175781 26.511719 65.992188 26.761719 65.820312 27.019531 C 65.707031 26.484375 65.558594 25.960938 65.351562 25.453125 C 65.339844 25.429688 65.332031 25.402344 65.3125 25.394531 C 65.292969 25.40625 65.3125 25.4375 65.316406 25.460938 C 65.347656 25.863281 65.429688 26.480469 65.546875 27.109375 C 65.3125 26.921875 65.082031 26.738281 64.859375 26.546875 C 64.992188 26.789062 65.164062 27.003906 65.347656 27.203125 C 64.789062 27.328125 64.238281 27.484375 63.699219 27.6875 C 64.292969 27.675781 64.90625 27.617188 65.511719 27.519531 C 65.3125 27.859375 65.140625 28.191406 65.03125 28.457031 C 65.269531 28.21875 65.476562 27.957031 65.660156 27.679688 C 65.785156 28.289062 65.9375 28.847656 66.085938 29.144531 C 66.0625 28.671875 66.019531 28.203125 65.949219 27.742188 C 66.242188 27.964844 66.550781 28.171875 66.855469 28.371094 C 66.585938 28.027344 66.273438 27.726562 65.949219 27.445312 Z M 65.949219 27.445312 " fill-opacity="1" fill-rule="nonzero"/><path fill="#000000" d="M 76.351562 20.113281 C 75.738281 19.964844 75.136719 19.769531 74.519531 19.617188 C 74.78125 19.464844 75.027344 19.300781 75.269531 19.117188 C 74.910156 19.226562 74.5625 19.363281 74.222656 19.515625 C 74.328125 18.707031 74.371094 17.890625 74.347656 17.074219 C 74.125 17.753906 73.953125 18.445312 73.824219 19.148438 C 73.644531 18.917969 73.445312 18.699219 73.226562 18.5 C 73.375 18.789062 73.566406 19.125 73.765625 19.464844 C 73.726562 19.457031 73.691406 19.449219 73.652344 19.445312 C 72.796875 19.328125 71.929688 19.378906 71.070312 19.382812 C 71.765625 19.601562 72.792969 19.78125 73.492188 19.890625 C 73.203125 20.054688 72.921875 20.226562 72.644531 20.414062 C 73 20.320312 73.34375 20.203125 73.675781 20.058594 C 73.5625 20.894531 73.503906 21.742188 73.496094 22.59375 C 73.785156 21.769531 73.996094 20.921875 74.140625 20.0625 C 74.398438 20.453125 74.660156 20.800781 74.878906 21 C 74.730469 20.664062 74.574219 20.335938 74.394531 20.019531 C 75.0625 20.097656 75.960938 20.191406 76.351562 20.113281 Z M 76.351562 20.113281 " fill-opacity="1" fill-rule="nonzero"/><path fill="#000000" d="M 78.191406 11.859375 C 77.832031 11.550781 77.433594 11.304688 77.023438 11.089844 C 77.796875 10.902344 78.566406 10.664062 79.355469 10.378906 C 78.53125 10.410156 77.714844 10.519531 76.914062 10.683594 C 77.140625 10.265625 77.335938 9.832031 77.496094 9.398438 C 77.214844 9.78125 76.941406 10.171875 76.683594 10.566406 C 76.507812 9.832031 76.265625 9.113281 75.941406 8.425781 C 76.007812 9.191406 76.117188 9.953125 76.265625 10.707031 C 75.890625 10.527344 75.507812 10.34375 75.148438 10.128906 C 75.410156 10.425781 75.707031 10.671875 76.023438 10.890625 C 75.347656 11.0625 74.679688 11.265625 74.023438 11.5 C 74.789062 11.484375 75.53125 11.394531 76.265625 11.25 C 76.117188 11.515625 75.976562 11.785156 75.855469 12.066406 C 75.804688 12.183594 75.753906 12.300781 75.707031 12.417969 C 75.78125 12.332031 75.855469 12.242188 75.925781 12.152344 C 76.109375 11.933594 76.28125 11.707031 76.4375 11.472656 C 76.609375 12.160156 76.816406 12.84375 77.082031 13.507812 C 77.050781 12.796875 76.976562 12.085938 76.851562 11.386719 C 77.363281 11.648438 77.890625 11.878906 78.40625 12.109375 C 78.816406 12.320312 78.316406 11.984375 78.191406 11.859375 Z M 78.191406 11.859375 " fill-opacity="1" fill-rule="nonzero"/><g clip-path="url(#aecc1a5987)"><path fill="#000000" d="M 81.796875 6.148438 C 82.347656 6.113281 82.890625 6.046875 83.433594 5.945312 C 82.945312 5.871094 82.453125 5.832031 81.964844 5.828125 C 82.15625 5.609375 82.332031 5.375 82.488281 5.125 C 82.234375 5.332031 81.996094 5.558594 81.761719 5.785156 C 81.722656 5.308594 81.652344 4.832031 81.542969 4.363281 C 81.488281 4.835938 81.472656 5.3125 81.476562 5.785156 C 81.28125 5.574219 81.066406 5.347656 80.90625 5.15625 C 81.003906 5.398438 81.125 5.628906 81.265625 5.847656 C 80.660156 5.882812 80.0625 5.964844 79.46875 6.105469 C 80.105469 6.179688 80.746094 6.199219 81.386719 6.175781 C 81.175781 6.402344 80.976562 6.628906 80.785156 6.871094 C 81.039062 6.710938 81.269531 6.523438 81.492188 6.320312 C 81.519531 6.894531 81.578125 7.472656 81.660156 8.042969 C 81.746094 7.542969 81.789062 7.039062 81.789062 6.53125 C 82.03125 6.796875 82.300781 7.042969 82.585938 7.257812 C 82.605469 7.273438 82.625 7.285156 82.644531 7.300781 C 82.386719 6.964844 82.15625 6.609375 81.894531 6.273438 C 81.863281 6.230469 81.832031 6.191406 81.796875 6.148438 Z M 81.796875 6.148438 " fill-opacity="1" fill-rule="nonzero"/></g><g clip-path="url(#1cb1d61ce1)"><path fill="#000000" d="M 90.144531 10.964844 C 91.398438 10.894531 92.644531 10.691406 93.875 10.433594 C 92.59375 10.296875 91.308594 10.230469 90.023438 10.234375 C 90.382812 9.699219 90.6875 9.128906 90.914062 8.515625 C 90.53125 9.011719 90.132812 9.492188 89.746094 9.984375 C 89.695312 8.601562 89.511719 7.230469 89.113281 5.890625 C 89.070312 7.261719 89 8.636719 89.015625 10.007812 C 88.542969 9.652344 88.039062 9.339844 87.496094 9.097656 C 87.902344 9.480469 88.292969 9.882812 88.691406 10.273438 C 87.492188 10.332031 86.296875 10.457031 85.113281 10.6875 C 86.398438 10.835938 87.691406 10.925781 88.988281 10.980469 C 88.632812 11.472656 88.304688 11.980469 88.027344 12.527344 C 88.089844 12.464844 88.148438 12.40625 88.210938 12.347656 C 88.511719 12.0625 88.804688 11.761719 89.082031 11.453125 C 89.101562 11.734375 89.125 12.015625 89.160156 12.300781 C 89.253906 13.15625 89.382812 14.042969 89.53125 14.875 C 89.539062 14.8125 89.542969 14.75 89.546875 14.6875 C 89.660156 13.535156 89.742188 12.375 89.757812 11.210938 C 89.996094 11.394531 90.238281 11.570312 90.503906 11.722656 C 90.8125 11.917969 91.132812 12.09375 91.453125 12.277344 C 91.398438 12.222656 91.347656 12.164062 91.292969 12.109375 C 90.917969 11.722656 90.539062 11.335938 90.144531 10.964844 Z M 90.144531 10.964844 " fill-opacity="1" fill-rule="nonzero"/></g><path fill="#000000" d="M 90.148438 18.5 C 89.746094 18.5 89.34375 18.527344 88.949219 18.578125 C 89.074219 18.375 89.191406 18.167969 89.296875 17.949219 C 89.148438 18.109375 89.007812 18.28125 88.878906 18.457031 C 88.824219 18.003906 88.726562 17.554688 88.5625 17.121094 C 88.582031 17.597656 88.59375 18.0625 88.621094 18.523438 C 88.4375 18.363281 88.246094 18.207031 88.042969 18.070312 C 88.175781 18.261719 88.335938 18.457031 88.515625 18.644531 C 88.0625 18.730469 87.617188 18.859375 87.191406 19.046875 C 87.652344 19.015625 88.113281 18.972656 88.570312 18.902344 C 88.445312 19.105469 88.328125 19.3125 88.226562 19.527344 C 88.378906 19.363281 88.523438 19.191406 88.65625 19.015625 C 88.699219 19.519531 88.765625 20.023438 88.890625 20.519531 C 88.933594 20.035156 88.953125 19.546875 88.933594 19.058594 C 89.128906 19.242188 89.320312 19.402344 89.492188 19.535156 C 89.335938 19.285156 89.152344 19.058594 88.953125 18.847656 C 89.355469 18.773438 89.757812 18.679688 90.152344 18.546875 C 90.289062 18.496094 90.332031 18.488281 90.148438 18.5 Z M 90.148438 18.5 " fill-opacity="1" fill-rule="nonzero"/><path fill="#000000" d="M 85.414062 25.855469 C 84.554688 25.777344 83.691406 25.582031 82.808594 25.542969 C 83.152344 25.15625 83.457031 24.726562 83.699219 24.257812 C 83.351562 24.613281 82.984375 24.957031 82.621094 25.300781 C 82.601562 24.449219 82.535156 23.59375 82.449219 22.75 C 82.242188 23.601562 82.148438 24.460938 82.128906 25.328125 C 81.8125 25.054688 81.46875 24.820312 81.078125 24.652344 C 81.371094 24.941406 81.648438 25.246094 81.921875 25.550781 C 81.105469 25.582031 80.289062 25.699219 79.503906 25.789062 C 80.28125 25.917969 81.070312 26 81.863281 26.03125 C 81.488281 26.402344 81.125 26.785156 80.792969 27.195312 C 81.261719 26.902344 81.710938 26.578125 82.128906 26.214844 C 82.148438 27.066406 82.21875 27.921875 82.3125 28.769531 C 82.507812 27.953125 82.59375 27.121094 82.621094 26.289062 C 82.964844 26.636719 83.324219 26.964844 83.726562 27.25 C 83.449219 26.847656 83.160156 26.4375 82.835938 26.054688 C 83.699219 26.046875 84.5625 25.984375 85.414062 25.855469 Z M 85.414062 25.855469 " fill-opacity="1" fill-rule="nonzero"/><path stroke-linecap="butt" transform="matrix(1, 0, 0, 1, 0.0000005, 0.000002)" fill-opacity="1" fill="#000000" fill-rule="nonzero" stroke-linejoin="miter" d="M 5.515624 29.363278 L 6.410156 31.984372 L 6.312499 32.019528 L 5.414062 29.398435 Z M 5.515624 29.363278 " stroke="#000000" stroke-width="0.2" stroke-opacity="1" stroke-miterlimit="4"/><path stroke-linecap="butt" transform="matrix(1, 0, 0, 1, 0.0000005, 0.000002)" fill-opacity="1" fill="#000000" fill-rule="nonzero" stroke-linejoin="miter" d="M 9.152343 33.183591 L 11.26953 33.499997 L 11.253905 33.605466 L 9.136718 33.28906 Z M 9.152343 33.183591 " stroke="#000000" stroke-width="0.2" stroke-opacity="1" stroke-miterlimit="4"/><path stroke-linecap="butt" transform="matrix(1, 0, 0, 1, 0.0000005, 0.000002)" fill-opacity="1" fill="#000000" fill-rule="nonzero" stroke-linejoin="miter" d="M 15.64453 34.894528 L 19.11328 36.937497 L 19.062499 37.027341 L 15.593749 34.984372 Z M 15.64453 34.894528 " stroke="#000000" stroke-width="0.2" stroke-opacity="1" stroke-miterlimit="4"/><path stroke-linecap="butt" transform="matrix(1, 0, 0, 1, 0.0000005, 0.000002)" fill-opacity="1" fill="#000000" fill-rule="nonzero" stroke-linejoin="miter" d="M 21.695311 39.945309 L 24.367186 49.039059 L 24.265624 49.070309 L 21.593749 39.972653 Z M 21.695311 39.945309 " stroke="#000000" stroke-width="0.2" stroke-opacity="1" stroke-miterlimit="4"/><path stroke-linecap="butt" transform="matrix(1, 0, 0, 1, 0.0000005, 0.000002)" fill-opacity="1" fill="#000000" fill-rule="nonzero" stroke-linejoin="miter" d="M 25.968749 58.781246 L 35.593749 82.980464 L 35.496092 83.019527 L 25.867186 58.820309 Z M 25.968749 58.781246 " stroke="#000000" stroke-width="0.2" stroke-opacity="1" stroke-miterlimit="4"/><path stroke-linecap="butt" transform="matrix(1, 0, 0, 1, 0.0000005, 0.000002)" fill-opacity="1" fill="#000000" fill-rule="nonzero" stroke-linejoin="miter" d="M 40.292967 81.406246 L 39.382811 83.273433 L 39.289061 83.226558 L 40.199217 81.359371 Z M 40.292967 81.406246 " stroke="#000000" stroke-width="0.2" stroke-opacity="1" stroke-miterlimit="4"/><path stroke-linecap="butt" transform="matrix(1, 0, 0, 1, 0.0000005, 0.000002)" fill-opacity="1" fill="#000000" fill-rule="nonzero" stroke-linejoin="miter" d="M 40.242186 72.378902 L 40.718748 77.753902 L 40.61328 77.761715 L 40.136717 72.386715 Z M 40.242186 72.378902 " stroke="#000000" stroke-width="0.2" stroke-opacity="1" stroke-miterlimit="4"/><path stroke-linecap="butt" transform="matrix(1, 0, 0, 1, 0.0000005, 0.000002)" fill-opacity="1" fill="#000000" fill-rule="nonzero" stroke-linejoin="miter" d="M 43.703123 59.257809 L 40.605467 68.039059 L 40.503905 68.003902 L 43.601561 59.222653 Z M 43.703123 59.257809 " stroke="#000000" stroke-width="0.2" stroke-opacity="1" stroke-miterlimit="4"/><path stroke-linecap="butt" transform="matrix(1, 0, 0, 1, 0.0000005, 0.000002)" fill-opacity="1" fill="#000000" fill-rule="nonzero" stroke-linejoin="miter" d="M 46.906248 53.363278 L 45.082029 56.457028 L 44.992186 56.40234 L 46.816404 53.30859 Z M 46.906248 53.363278 " stroke="#000000" stroke-width="0.2" stroke-opacity="1" stroke-miterlimit="4"/><path stroke-linecap="butt" transform="matrix(1, 0, 0, 1, 0.0000005, 0.000002)" fill-opacity="1" fill="#000000" fill-rule="nonzero" stroke-linejoin="miter" d="M 51.539061 46.859372 L 48.871092 50.671872 L 48.785154 50.613278 L 51.453123 46.796872 Z M 51.539061 46.859372 " stroke="#000000" stroke-width="0.2" stroke-opacity="1" stroke-miterlimit="4"/><path stroke-linecap="butt" transform="matrix(1, 0, 0, 1, 0.0000005, 0.000002)" fill-opacity="1" fill="#000000" fill-rule="nonzero" stroke-linejoin="miter" d="M 64.453123 28.730466 L 54.167967 43.429684 L 54.078123 43.367184 L 64.367185 28.667966 Z M 64.453123 28.730466 " stroke="#000000" stroke-width="0.2" stroke-opacity="1" stroke-miterlimit="4"/><path stroke-linecap="butt" transform="matrix(1, 0, 0, 1, 0.0000005, 0.000002)" fill-opacity="1" fill="#000000" fill-rule="nonzero" stroke-linejoin="miter" d="M 72.437497 21.406247 L 66.867185 26.117185 L 66.796873 26.035154 L 72.371091 21.324216 Z M 72.437497 21.406247 " stroke="#000000" stroke-width="0.2" stroke-opacity="1" stroke-miterlimit="4"/><path stroke-linecap="butt" transform="matrix(1, 0, 0, 1, 0.0000005, 0.000002)" fill-opacity="1" fill="#000000" fill-rule="nonzero" stroke-linejoin="miter" d="M 75.832029 21.136716 L 80.32031 24.277341 L 80.25781 24.363279 L 75.773435 21.22656 Z M 75.832029 21.136716 " stroke="#000000" stroke-width="0.2" stroke-opacity="1" stroke-miterlimit="4"/><path stroke-linecap="butt" transform="matrix(1, 0, 0, 1, 0.0000005, 0.000002)" fill-opacity="1" fill="#000000" fill-rule="nonzero" stroke-linejoin="miter" d="M 87.808591 20.078122 L 84.16406 23.722654 L 84.089841 23.648435 L 87.734372 20.003904 Z M 87.808591 20.078122 " stroke="#000000" stroke-width="0.2" stroke-opacity="1" stroke-miterlimit="4"/><path stroke-linecap="butt" transform="matrix(1, 0, 0, 1, 0.0000005, 0.000002)" fill-opacity="1" fill="#000000" fill-rule="nonzero" stroke-linejoin="miter" d="M 89.628903 15.492185 L 89.472653 17.390623 L 89.367185 17.38281 L 89.523435 15.484373 Z M 89.628903 15.492185 " stroke="#000000" stroke-width="0.2" stroke-opacity="1" stroke-miterlimit="4"/><path stroke-linecap="butt" transform="matrix(1, 0, 0, 1, 0.0000005, 0.000002)" fill-opacity="1" fill="#000000" fill-rule="nonzero" stroke-linejoin="miter" d="M 84.015622 6.343748 L 86.871091 8.339842 L 86.812497 8.425779 L 83.957028 6.429685 Z M 84.015622 6.343748 " stroke="#000000" stroke-width="0.2" stroke-opacity="1" stroke-miterlimit="4"/><path stroke-linecap="butt" transform="matrix(1, 0, 0, 1, 0.0000005, 0.000002)" fill-opacity="1" fill="#000000" fill-rule="nonzero" stroke-linejoin="miter" d="M 80.199216 7.175779 L 77.843747 9.167966 L 77.773435 9.085935 L 80.13281 7.093748 Z M 80.199216 7.175779 " stroke="#000000" stroke-width="0.2" stroke-opacity="1" stroke-miterlimit="4"/><path stroke-linecap="butt" transform="matrix(1, 0, 0, 1, 0.0000005, 0.000002)" fill-opacity="1" fill="#000000" fill-rule="nonzero" stroke-linejoin="miter" d="M 75.558591 13.078123 L 74.57031 16.457029 L 74.468747 16.429685 L 75.457029 13.046873 Z M 75.558591 13.078123 " stroke="#000000" stroke-width="0.2" stroke-opacity="1" stroke-miterlimit="4"/></svg>