<svg xmlns="http://www.w3.org/2000/svg" xmlns:xlink="http://www.w3.org/1999/xlink" width="128" zoomAndPan="magnify" viewBox="0 0 96 95.999999" height="128" preserveAspectRatio="xMidYMid meet" version="1.0"><defs><clipPath id="303a762794"><path d="M 2.460938 39 L 39 39 L 39 91 L 2.460938 91 Z M 2.460938 39 " clip-rule="nonzero"/></clipPath><clipPath id="bddfe64bd8"><path d="M 79 14 L 93.210938 14 L 93.210938 50 L 79 50 Z M 79 14 " clip-rule="nonzero"/></clipPath></defs><path fill="#a66a2c" d="M 41.859375 51.222656 C 42.792969 52.015625 43.890625 52.601562 45.0625 52.964844 C 45.210938 53.011719 45.363281 53.054688 45.519531 53.09375 C 46.429688 53.320312 47.382812 53.402344 48.320312 53.335938 C 49.460938 53.257812 50.570312 52.957031 51.605469 52.472656 C 53.113281 51.75 54.410156 50.613281 55.316406 49.207031 C 55.953125 48.21875 56.394531 47.113281 56.621094 45.957031 C 56.734375 45.367188 56.785156 44.765625 56.78125 44.164062 C 56.78125 43.914062 56.761719 43.664062 56.742188 43.414062 C 56.722656 43.109375 56.464844 42.824219 56.113281 42.824219 C 56.011719 42.820312 55.914062 42.851562 55.824219 42.894531 C 55.664062 42.9375 55.523438 43.035156 55.441406 43.1875 C 55.40625 43.25 55.375 43.308594 55.335938 43.371094 C 55.335938 43.375 55.332031 43.378906 55.328125 43.382812 C 55.226562 43.546875 55.128906 43.714844 55.019531 43.878906 C 54.789062 44.214844 54.539062 44.53125 54.269531 44.835938 L 54.265625 44.839844 C 54.257812 44.847656 54.25 44.855469 54.242188 44.863281 C 53.996094 45.136719 53.714844 45.40625 53.421875 45.65625 C 53.136719 45.898438 52.835938 46.121094 52.523438 46.328125 C 52.21875 46.523438 51.902344 46.699219 51.578125 46.859375 C 51.574219 46.859375 51.5625 46.863281 51.554688 46.871094 C 51.550781 46.871094 51.550781 46.871094 51.546875 46.871094 C 51.546875 46.871094 51.550781 46.871094 51.550781 46.871094 C 51.550781 46.871094 51.554688 46.871094 51.554688 46.867188 C 51.550781 46.871094 51.550781 46.871094 51.546875 46.871094 C 51.261719 47.003906 50.96875 47.121094 50.671875 47.222656 L 50.667969 47.222656 C 50.648438 47.230469 50.632812 47.234375 50.617188 47.242188 C 50.382812 47.3125 50.105469 47.386719 49.824219 47.445312 C 49.542969 47.5 49.253906 47.535156 48.964844 47.558594 C 48.71875 47.570312 48.46875 47.570312 48.21875 47.554688 L 48.203125 47.554688 C 48.191406 47.554688 48.179688 47.550781 48.164062 47.550781 C 47.976562 47.535156 47.757812 47.503906 47.539062 47.464844 C 47.320312 47.417969 47.105469 47.359375 46.894531 47.289062 C 46.707031 47.21875 46.519531 47.140625 46.339844 47.050781 C 46.164062 46.960938 45.992188 46.859375 45.828125 46.746094 C 45.6875 46.644531 45.550781 46.535156 45.417969 46.417969 C 45.28125 46.289062 45.152344 46.15625 45.03125 46.011719 C 44.921875 45.882812 44.820312 45.746094 44.730469 45.601562 C 44.632812 45.453125 44.546875 45.296875 44.46875 45.136719 C 44.382812 44.953125 44.308594 44.765625 44.242188 44.574219 C 44.179688 44.378906 44.132812 44.179688 44.089844 43.980469 C 44.085938 43.960938 44.085938 43.945312 44.082031 43.925781 C 44.046875 43.722656 44.023438 43.519531 44.007812 43.3125 C 43.992188 43.054688 43.996094 42.796875 44.011719 42.542969 C 44.035156 42.269531 44.070312 42.003906 44.125 41.738281 C 44.1875 41.417969 44.277344 41.105469 44.382812 40.796875 C 44.496094 40.476562 44.628906 40.160156 44.78125 39.855469 C 44.957031 39.507812 45.15625 39.175781 45.375 38.859375 C 45.550781 38.597656 45.796875 38.285156 46.066406 37.984375 C 46.332031 37.691406 46.617188 37.414062 46.917969 37.15625 C 46.921875 37.152344 46.925781 37.148438 46.929688 37.144531 C 47.152344 36.957031 47.386719 36.78125 47.625 36.613281 C 47.628906 36.613281 47.628906 36.613281 47.628906 36.613281 C 47.773438 36.535156 47.949219 36.359375 47.984375 36.300781 C 48.039062 36.222656 48.0625 36.121094 48.058594 36.019531 C 48.058594 36.003906 48.058594 35.988281 48.058594 35.96875 C 48.058594 35.96875 48.058594 35.964844 48.058594 35.960938 C 48.046875 35.753906 47.945312 35.542969 47.839844 35.378906 C 47.683594 35.175781 47.425781 35.128906 47.175781 35.148438 C 47.097656 35.148438 47.023438 35.152344 46.945312 35.164062 C 46.019531 35.242188 45.097656 35.460938 44.238281 35.820312 C 42.007812 36.75 40.199219 38.558594 39.289062 40.808594 C 38.34375 43.148438 38.410156 45.820312 39.476562 48.105469 C 40.035156 49.304688 40.851562 50.367188 41.859375 51.222656 Z M 39.917969 43.699219 C 39.945312 43.355469 39.992188 43.011719 40.058594 42.671875 C 40.128906 42.332031 40.222656 41.996094 40.332031 41.667969 C 40.449219 41.335938 40.585938 41.015625 40.742188 40.699219 C 40.902344 40.394531 41.078125 40.097656 41.269531 39.8125 C 41.46875 39.523438 41.6875 39.246094 41.925781 38.980469 C 41.9375 38.964844 41.949219 38.949219 41.960938 38.9375 C 42.15625 38.726562 42.402344 38.492188 42.65625 38.269531 C 42.914062 38.054688 43.183594 37.855469 43.460938 37.671875 C 43.753906 37.484375 44.058594 37.316406 44.367188 37.164062 C 44.65625 37.03125 44.949219 36.914062 45.25 36.808594 C 45.25 36.808594 45.25 36.8125 45.25 36.8125 C 45.324219 36.785156 45.402344 36.765625 45.476562 36.746094 C 45.390625 36.832031 45.300781 36.921875 45.214844 37.015625 C 44.289062 38.023438 43.558594 39.210938 43.125 40.515625 C 42.734375 41.707031 42.609375 42.988281 42.835938 44.226562 C 42.941406 44.785156 43.140625 45.382812 43.441406 45.9375 C 43.734375 46.476562 44.113281 46.957031 44.5625 47.371094 C 45.265625 47.996094 46.109375 48.433594 47.015625 48.660156 C 47.238281 48.714844 47.460938 48.757812 47.6875 48.789062 C 49.21875 48.992188 50.765625 48.660156 52.152344 48.003906 C 52.992188 47.601562 53.835938 47.03125 54.582031 46.339844 C 54.871094 46.070312 55.144531 45.777344 55.402344 45.476562 C 55.378906 45.609375 55.359375 45.746094 55.332031 45.878906 C 55.261719 46.195312 55.175781 46.511719 55.070312 46.820312 C 54.949219 47.15625 54.808594 47.484375 54.652344 47.808594 C 54.492188 48.109375 54.320312 48.402344 54.128906 48.6875 C 53.925781 48.972656 53.710938 49.25 53.476562 49.511719 C 53.246094 49.761719 53 49.996094 52.746094 50.21875 C 52.476562 50.441406 52.199219 50.648438 51.910156 50.839844 C 51.628906 51.015625 51.34375 51.171875 51.050781 51.316406 L 51.027344 51.328125 C 50.734375 51.464844 50.4375 51.582031 50.132812 51.6875 C 49.800781 51.792969 49.460938 51.878906 49.117188 51.945312 C 48.792969 52.003906 48.460938 52.042969 48.132812 52.0625 C 47.808594 52.078125 47.488281 52.078125 47.164062 52.058594 C 46.816406 52.03125 46.472656 51.984375 46.128906 51.914062 C 45.785156 51.839844 45.445312 51.746094 45.109375 51.632812 C 44.789062 51.515625 44.472656 51.378906 44.164062 51.226562 C 43.851562 51.0625 43.546875 50.878906 43.253906 50.679688 C 42.984375 50.488281 42.722656 50.28125 42.472656 50.058594 L 42.464844 50.050781 C 42.457031 50.042969 42.445312 50.035156 42.4375 50.027344 C 42.199219 49.804688 41.953125 49.550781 41.722656 49.28125 C 41.507812 49.015625 41.304688 48.742188 41.121094 48.453125 C 40.957031 48.191406 40.800781 47.914062 40.664062 47.625 C 40.519531 47.316406 40.390625 46.992188 40.277344 46.660156 C 40.175781 46.332031 40.089844 46 40.027344 45.664062 C 39.972656 45.351562 39.933594 45.035156 39.914062 44.71875 C 39.894531 44.378906 39.898438 44.039062 39.917969 43.699219 Z M 39.917969 43.699219 " fill-opacity="1" fill-rule="nonzero"/><path fill="#5a3a1a" d="M 58.507812 61.753906 C 57.671875 61.753906 56.972656 62.460938 56.972656 63.296875 C 56.976562 64.140625 57.679688 64.835938 58.511719 64.835938 C 59.347656 64.835938 60.046875 64.128906 60.046875 63.292969 C 60.042969 62.453125 59.34375 61.753906 58.507812 61.753906 Z M 58.507812 61.753906 " fill-opacity="1" fill-rule="nonzero"/><path fill="#5a3a1a" d="M 38.382812 26.890625 C 39.21875 26.890625 39.917969 26.183594 39.917969 25.347656 C 39.914062 24.503906 39.210938 23.808594 38.378906 23.808594 C 37.542969 23.808594 36.84375 24.515625 36.84375 25.351562 C 36.847656 26.191406 37.550781 26.890625 38.382812 26.890625 Z M 38.382812 26.890625 " fill-opacity="1" fill-rule="nonzero"/><path fill="#c98a3a" d="M 51.878906 67.421875 L 51.890625 67.414062 C 51.882812 67.417969 51.875 67.421875 51.871094 67.425781 C 51.875 67.425781 51.875 67.425781 51.878906 67.421875 Z M 51.878906 67.421875 " fill-opacity="1" fill-rule="nonzero"/><path fill="#c98a3a" d="M 70.988281 54.042969 C 70.988281 54.039062 70.988281 54.035156 70.988281 54.03125 C 70.972656 54.042969 70.957031 54.054688 70.945312 54.070312 C 70.957031 54.058594 70.972656 54.050781 70.988281 54.042969 Z M 70.988281 54.042969 " fill-opacity="1" fill-rule="nonzero"/><path fill="#5a3a1a" d="M 90.046875 52.691406 C 89.636719 52.570312 89.367188 52.945312 89.054688 53.132812 C 87.269531 54.316406 85.324219 55.265625 83.246094 55.742188 C 85.429688 49.355469 85.855469 41.308594 83.964844 35.242188 C 82.207031 29.117188 78.648438 23.355469 73.246094 19.828125 C 71.015625 18.207031 68.5625 16.859375 65.832031 16.351562 C 63.84375 15.933594 61.785156 15.621094 59.761719 15.941406 C 59.203125 16.078125 58.363281 16.125 58.195312 16.792969 C 58.140625 17.085938 58.308594 17.40625 58.582031 17.527344 C 59.144531 17.757812 59.726562 17.945312 60.285156 18.191406 C 62.957031 19.257812 65.859375 20.65625 67.152344 23.394531 C 64.488281 24.566406 61.855469 26.132812 59.992188 28.421875 C 59.542969 29.078125 58.773438 29.894531 59.128906 30.75 C 59.355469 31.199219 59.894531 31.289062 60.351562 31.28125 C 61.269531 31.300781 62.191406 31.289062 63.109375 31.277344 C 65.445312 31.261719 67.730469 31.046875 70.097656 31.28125 C 72.796875 31.507812 74.4375 32.828125 75.433594 35.332031 C 77.222656 39.71875 75.261719 45.542969 72.515625 49.167969 C 71.945312 49.90625 71.316406 50.59375 70.644531 51.234375 C 70.160156 49.242188 69.003906 47.136719 67.191406 46.320312 C 66.386719 46.101562 66.15625 47.117188 65.820312 47.640625 C 64.566406 49.910156 63.378906 52.242188 62.742188 54.773438 C 62.675781 55.144531 62.5625 55.535156 62.476562 55.929688 C 61.007812 56.375 59.507812 56.722656 58.046875 57.253906 C 54.34375 58.699219 51.164062 62.230469 50.949219 66.324219 C 48.109375 67.523438 46.667969 69.605469 50.160156 71.25 C 52.214844 72.230469 54.375 73.003906 56.617188 73.417969 C 57.984375 73.703125 59.386719 73.84375 60.789062 73.84375 C 65.074219 73.84375 69.378906 72.527344 72.78125 69.910156 C 75.015625 68.132812 77.078125 66.101562 78.835938 63.835938 C 82.570312 63.3125 86.039062 61.878906 88.292969 58.523438 C 89.332031 57 89.855469 55.210938 90.503906 53.492188 C 90.601562 53.152344 90.386719 52.78125 90.046875 52.691406 Z M 64.316406 53.914062 C 65.023438 51.753906 66.117188 49.761719 67.203125 47.777344 C 68.519531 48.894531 69.261719 50.515625 69.539062 52.203125 C 68.132812 53.347656 66.566406 54.300781 64.902344 55.042969 C 64.570312 55.195312 64.230469 55.328125 63.890625 55.457031 C 64.015625 54.9375 64.167969 54.421875 64.316406 53.914062 Z M 70.371094 69.996094 C 67.511719 71.773438 64.117188 72.464844 60.785156 72.578125 C 57.117188 72.542969 53.476562 71.515625 50.222656 69.835938 C 49.933594 69.636719 49.382812 69.378906 49.394531 68.960938 C 49.714844 68.421875 50.269531 68.101562 50.832031 67.816406 C 50.914062 67.785156 50.992188 67.753906 51.070312 67.722656 C 51.445312 67.539062 51.980469 67.472656 52.144531 67.03125 C 52.171875 66.945312 52.222656 66.804688 52.21875 66.6875 C 52.21875 66.683594 52.21875 66.679688 52.21875 66.675781 C 52.21875 66.679688 52.21875 66.683594 52.21875 66.6875 C 52.21875 66.679688 52.21875 66.675781 52.21875 66.671875 C 52.222656 66.628906 52.222656 66.589844 52.222656 66.546875 C 52.226562 66.535156 52.226562 66.519531 52.226562 66.503906 C 52.304688 63.445312 54.460938 60.71875 57 59.179688 C 59.957031 57.550781 63.585938 57.363281 66.582031 55.664062 C 70.140625 53.835938 73.238281 51.019531 75.144531 47.464844 C 76.894531 43.972656 78.09375 39.738281 76.976562 35.859375 C 76.367188 33.945312 75.320312 31.976562 73.523438 30.960938 C 71.6875 29.976562 69.542969 29.878906 67.5 29.890625 C 65.144531 29.929688 62.835938 30.039062 60.460938 30.007812 C 60.460938 30.003906 60.460938 30.003906 60.457031 30.007812 C 62.023438 27.5 64.691406 25.992188 67.285156 24.71875 C 68.222656 24.414062 68.746094 24.238281 68.40625 23.109375 C 67.183594 20.03125 63.945312 18.253906 61.003906 17.101562 C 63.519531 17.066406 66.046875 17.570312 68.394531 18.457031 C 69.734375 19.074219 71.03125 19.832031 72.269531 20.683594 C 73.722656 22.746094 74.652344 25.621094 73.464844 27.914062 C 73.179688 28.214844 73.140625 28.707031 73.5 28.964844 C 73.636719 29.046875 73.765625 29.082031 73.882812 29.082031 C 74.496094 29.082031 74.824219 28.074219 75 27.546875 C 75.484375 26.152344 75.296875 24.675781 74.914062 23.285156 C 74.847656 23.03125 74.773438 22.785156 74.6875 22.539062 C 75.113281 22.902344 75.53125 23.269531 75.9375 23.648438 C 80.871094 28.65625 83.738281 35.941406 83.882812 43 C 83.859375 48.773438 82.972656 54.722656 80.039062 59.773438 C 77.636719 63.816406 74.332031 67.449219 70.371094 69.996094 Z M 79.925781 62.347656 C 80.667969 61.265625 81.339844 60.136719 81.925781 58.960938 C 82.210938 58.378906 82.476562 57.773438 82.726562 57.152344 C 84.804688 56.796875 86.824219 56.011719 88.625 54.902344 C 87.117188 59.410156 83.929688 61.511719 79.925781 62.347656 Z M 79.925781 62.347656 " fill-opacity="1" fill-rule="nonzero"/><path fill="#c98a3a" d="M 43.902344 22.28125 L 43.890625 22.289062 C 43.898438 22.285156 43.90625 22.28125 43.914062 22.277344 C 43.910156 22.28125 43.90625 22.28125 43.902344 22.28125 Z M 43.902344 22.28125 " fill-opacity="1" fill-rule="nonzero"/><path fill="#c98a3a" d="M 24.796875 35.664062 C 24.796875 35.667969 24.796875 35.671875 24.796875 35.675781 C 24.8125 35.660156 24.824219 35.648438 24.839844 35.636719 C 24.824219 35.644531 24.8125 35.65625 24.796875 35.664062 Z M 24.796875 35.664062 " fill-opacity="1" fill-rule="nonzero"/><path fill="#5a3a1a" d="M 5.738281 37.015625 C 6.148438 37.136719 6.414062 36.761719 6.726562 36.574219 C 8.515625 35.386719 10.457031 34.441406 12.535156 33.960938 C 10.355469 40.347656 9.925781 48.398438 11.820312 54.464844 C 13.578125 60.589844 17.132812 66.347656 22.539062 69.875 C 24.765625 71.5 27.21875 72.847656 29.953125 73.355469 C 31.9375 73.773438 34 74.085938 36.023438 73.765625 C 36.578125 73.628906 37.417969 73.582031 37.585938 72.914062 C 37.644531 72.621094 37.476562 72.296875 37.203125 72.175781 C 36.640625 71.949219 36.054688 71.757812 35.496094 71.515625 C 32.824219 70.449219 29.925781 69.050781 28.632812 66.3125 C 31.296875 65.136719 33.929688 63.574219 35.789062 61.285156 C 36.242188 60.625 37.007812 59.808594 36.65625 58.957031 C 36.429688 58.507812 35.886719 58.417969 35.433594 58.425781 C 34.511719 58.40625 33.59375 58.414062 32.671875 58.425781 C 30.335938 58.445312 28.050781 58.660156 25.6875 58.421875 C 22.984375 58.195312 21.347656 56.878906 20.351562 54.375 C 18.5625 49.984375 20.523438 44.164062 23.269531 40.539062 C 23.835938 39.796875 24.46875 39.113281 25.140625 38.472656 C 25.621094 40.460938 26.777344 42.566406 28.59375 43.386719 C 29.398438 43.601562 29.625 42.589844 29.960938 42.066406 C 31.214844 39.796875 32.40625 37.464844 33.039062 34.933594 C 33.105469 34.5625 33.21875 34.171875 33.308594 33.777344 C 34.777344 33.332031 36.277344 32.980469 37.734375 32.449219 C 41.441406 31.007812 44.617188 27.476562 44.832031 23.382812 C 47.671875 22.179688 49.117188 20.101562 45.625 18.457031 C 43.570312 17.476562 41.410156 16.703125 39.167969 16.285156 C 37.800781 16.003906 36.398438 15.863281 34.992188 15.863281 C 30.710938 15.863281 26.40625 17.179688 23.003906 19.796875 C 20.765625 21.570312 18.703125 23.605469 16.945312 25.867188 C 13.210938 26.390625 9.746094 27.824219 7.488281 31.183594 C 6.449219 32.707031 5.929688 34.492188 5.28125 36.210938 C 5.179688 36.554688 5.398438 36.925781 5.738281 37.015625 Z M 31.464844 35.792969 C 30.761719 37.949219 29.664062 39.941406 28.582031 41.925781 C 27.261719 40.808594 26.523438 39.191406 26.246094 37.503906 C 27.652344 36.359375 29.214844 35.402344 30.878906 34.664062 C 31.214844 34.511719 31.554688 34.378906 31.894531 34.25 C 31.769531 34.769531 31.617188 35.285156 31.464844 35.792969 Z M 25.414062 19.710938 C 28.273438 17.929688 31.667969 17.242188 34.996094 17.128906 C 38.667969 17.164062 42.308594 18.191406 45.5625 19.871094 C 45.851562 20.070312 46.402344 20.328125 46.386719 20.746094 C 46.066406 21.28125 45.511719 21.605469 44.949219 21.886719 C 44.871094 21.917969 44.792969 21.949219 44.714844 21.984375 C 44.339844 22.167969 43.804688 22.234375 43.640625 22.675781 C 43.613281 22.761719 43.5625 22.898438 43.566406 23.019531 C 43.566406 23.023438 43.5625 23.027344 43.5625 23.03125 C 43.5625 23.027344 43.566406 23.023438 43.566406 23.019531 C 43.566406 23.023438 43.566406 23.03125 43.566406 23.035156 C 43.5625 23.078125 43.5625 23.117188 43.558594 23.15625 C 43.558594 23.171875 43.558594 23.1875 43.554688 23.199219 C 43.480469 26.257812 41.320312 28.988281 38.785156 30.523438 C 35.828125 32.15625 32.195312 32.34375 29.203125 34.039062 C 25.640625 35.871094 22.546875 38.6875 20.640625 42.238281 C 18.890625 45.734375 17.691406 49.96875 18.808594 53.847656 C 19.417969 55.761719 20.464844 57.726562 22.261719 58.746094 C 24.097656 59.726562 26.242188 59.824219 28.28125 59.8125 C 30.636719 59.777344 32.945312 59.667969 35.324219 59.699219 C 35.320312 59.703125 35.324219 59.699219 35.324219 59.699219 C 33.757812 62.207031 31.089844 63.714844 28.496094 64.988281 C 27.558594 65.292969 27.035156 65.46875 27.378906 66.597656 C 28.597656 69.675781 31.835938 71.453125 34.777344 72.605469 C 32.265625 72.636719 29.738281 72.136719 27.386719 71.25 C 26.046875 70.628906 24.75 69.875 23.511719 69.023438 C 22.058594 66.957031 21.132812 64.085938 22.320312 61.789062 C 22.601562 61.488281 22.640625 61 22.285156 60.742188 C 22.144531 60.660156 22.019531 60.621094 21.902344 60.621094 C 21.285156 60.621094 20.960938 61.628906 20.78125 62.160156 C 20.300781 63.554688 20.484375 65.027344 20.871094 66.421875 C 20.933594 66.671875 21.011719 66.921875 21.097656 67.164062 C 20.671875 66.804688 20.25 66.4375 19.84375 66.058594 C 14.914062 61.046875 12.042969 53.765625 11.902344 46.703125 C 11.925781 40.933594 12.8125 34.984375 15.742188 29.933594 C 18.144531 25.890625 21.453125 22.257812 25.414062 19.710938 Z M 15.859375 27.359375 C 15.117188 28.441406 14.441406 29.570312 13.855469 30.746094 C 13.570312 31.324219 13.304688 31.929688 13.058594 32.554688 C 10.980469 32.910156 8.960938 33.695312 7.15625 34.804688 C 8.667969 30.296875 11.851562 28.195312 15.859375 27.359375 Z M 15.859375 27.359375 " fill-opacity="1" fill-rule="nonzero"/><path fill="#c98a3a" d="M 57.417969 20.621094 C 57.398438 20.285156 57.25 19.964844 57.003906 19.738281 C 56.742188 19.5 56.417969 19.40625 56.074219 19.40625 C 55.375 19.40625 54.828125 20.085938 54.863281 20.753906 C 54.878906 21.089844 55.03125 21.410156 55.277344 21.636719 C 55.539062 21.875 55.859375 21.96875 56.207031 21.96875 C 56.90625 21.96875 57.453125 21.289062 57.417969 20.621094 Z M 57.417969 20.621094 " fill-opacity="1" fill-rule="nonzero"/><path fill="#c98a3a" d="M 40.027344 64.898438 C 39.332031 64.898438 38.785156 65.578125 38.820312 66.246094 C 38.835938 66.582031 38.988281 66.902344 39.234375 67.128906 C 39.492188 67.367188 39.816406 67.460938 40.164062 67.460938 C 40.859375 67.460938 41.40625 66.78125 41.371094 66.113281 C 41.355469 65.777344 41.203125 65.457031 40.957031 65.230469 C 40.699219 64.992188 40.375 64.898438 40.027344 64.898438 Z M 40.027344 64.898438 " fill-opacity="1" fill-rule="nonzero"/><path fill="#5a3a1a" d="M 65.710938 40.378906 C 65.695312 40.042969 65.542969 39.722656 65.296875 39.496094 C 65.035156 39.257812 64.714844 39.164062 64.367188 39.164062 C 63.667969 39.164062 63.121094 39.84375 63.15625 40.511719 C 63.171875 40.847656 63.324219 41.167969 63.570312 41.394531 C 63.832031 41.632812 64.152344 41.726562 64.5 41.726562 C 65.199219 41.726562 65.746094 41.046875 65.710938 40.378906 Z M 65.710938 40.378906 " fill-opacity="1" fill-rule="nonzero"/><path fill="#c98a3a" d="M 28.207031 45.085938 C 27.507812 45.085938 26.960938 45.765625 26.996094 46.433594 C 27.015625 46.769531 27.164062 47.089844 27.410156 47.316406 C 27.671875 47.554688 27.996094 47.648438 28.339844 47.648438 C 29.039062 47.648438 29.585938 46.96875 29.550781 46.300781 C 29.535156 45.964844 29.382812 45.644531 29.136719 45.421875 C 28.875 45.179688 28.554688 45.085938 28.207031 45.085938 Z M 28.207031 45.085938 " fill-opacity="1" fill-rule="nonzero"/><g clip-path="url(#303a762794)"><path fill="#c98a3a" d="M 38.269531 88.734375 C 18.289062 84.296875 3.785156 66.144531 3.785156 45.570312 C 3.785156 43.875 3.882812 42.167969 4.070312 40.496094 C 4.113281 40.132812 3.851562 39.800781 3.488281 39.757812 C 3.128906 39.71875 2.796875 39.980469 2.753906 40.34375 C 2.558594 42.066406 2.460938 43.824219 2.460938 45.570312 C 2.460938 56 6.0625 66.191406 12.601562 74.269531 C 19.046875 82.230469 28.0625 87.828125 37.984375 90.035156 C 38.03125 90.046875 38.082031 90.050781 38.128906 90.050781 C 38.433594 90.050781 38.707031 89.839844 38.773438 89.527344 C 38.855469 89.171875 38.628906 88.816406 38.269531 88.734375 Z M 38.269531 88.734375 " fill-opacity="1" fill-rule="nonzero"/></g><path fill="#c98a3a" d="M 88.980469 63.167969 C 88.648438 63.019531 88.257812 63.171875 88.105469 63.507812 C 82.347656 76.515625 70.640625 85.996094 56.792969 88.867188 C 56.433594 88.941406 56.203125 89.292969 56.277344 89.652344 C 56.34375 89.964844 56.621094 90.179688 56.925781 90.179688 C 56.972656 90.179688 57.015625 90.175781 57.0625 90.167969 C 71.328125 87.210938 83.386719 77.445312 89.316406 64.046875 C 89.464844 63.710938 89.316406 63.320312 88.980469 63.167969 Z M 88.980469 63.167969 " fill-opacity="1" fill-rule="nonzero"/><g clip-path="url(#bddfe64bd8)"><path fill="#c98a3a" d="M 79.996094 14.390625 C 79.730469 14.644531 79.714844 15.0625 79.964844 15.332031 C 87.652344 23.554688 91.882812 34.292969 91.882812 45.570312 C 91.882812 46.507812 91.855469 47.453125 91.796875 48.386719 C 91.773438 48.753906 92.050781 49.066406 92.414062 49.089844 C 92.429688 49.09375 92.441406 49.09375 92.457031 49.09375 C 92.804688 49.09375 93.09375 48.820312 93.117188 48.46875 C 93.175781 47.511719 93.207031 46.535156 93.207031 45.570312 C 93.207031 33.953125 88.847656 22.890625 80.933594 14.421875 C 80.679688 14.152344 80.261719 14.140625 79.996094 14.390625 Z M 79.996094 14.390625 " fill-opacity="1" fill-rule="nonzero"/></g><path fill="#c98a3a" d="M 7.164062 26.886719 C 7.257812 26.933594 7.355469 26.953125 7.449219 26.953125 C 7.695312 26.953125 7.933594 26.8125 8.046875 26.574219 C 15.320312 11.257812 30.9375 1.363281 47.835938 1.363281 C 55.691406 1.363281 63.40625 3.464844 70.144531 7.445312 C 70.460938 7.628906 70.863281 7.523438 71.050781 7.207031 C 71.234375 6.890625 71.128906 6.484375 70.816406 6.296875 C 63.875 2.199219 55.929688 0.0351562 47.835938 0.0351562 C 39.09375 0.0351562 30.609375 2.53125 23.296875 7.261719 C 16.175781 11.863281 10.488281 18.34375 6.851562 26.003906 C 6.695312 26.332031 6.835938 26.730469 7.164062 26.886719 Z M 7.164062 26.886719 " fill-opacity="1" fill-rule="nonzero"/><path fill="#a66a2c" d="M 75.742188 4.542969 C 75.375 4.542969 75.078125 4.839844 75.078125 5.207031 L 75.078125 5.722656 C 75.078125 8.058594 73.183594 9.960938 70.851562 9.960938 L 70.339844 9.960938 C 69.976562 9.960938 69.679688 10.261719 69.679688 10.628906 C 69.679688 10.996094 69.976562 11.292969 70.339844 11.292969 L 70.851562 11.292969 C 73.183594 11.292969 75.078125 13.195312 75.078125 15.535156 L 75.078125 16.046875 C 75.078125 16.414062 75.375 16.710938 75.742188 16.710938 C 76.105469 16.710938 76.402344 16.414062 76.402344 16.046875 L 76.402344 15.535156 C 76.402344 13.195312 78.300781 11.292969 80.628906 11.292969 L 81.140625 11.292969 C 81.507812 11.292969 81.804688 10.996094 81.804688 10.628906 C 81.804688 10.261719 81.507812 9.960938 81.140625 9.960938 L 80.628906 9.960938 C 78.300781 9.960938 76.402344 8.058594 76.402344 5.722656 L 76.402344 5.207031 C 76.402344 4.839844 76.105469 4.542969 75.742188 4.542969 Z M 78.003906 10.628906 C 77.046875 11.144531 76.257812 11.9375 75.742188 12.898438 C 75.226562 11.9375 74.4375 11.144531 73.476562 10.628906 C 74.4375 10.109375 75.226562 9.316406 75.742188 8.355469 C 76.257812 9.316406 77.046875 10.109375 78.003906 10.628906 Z M 78.003906 10.628906 " fill-opacity="1" fill-rule="nonzero"/><path fill="#c98a3a" d="M 35.046875 56.6875 C 35.414062 56.6875 35.710938 56.386719 35.710938 56.019531 L 35.710938 55.332031 C 35.710938 54.429688 36.441406 53.695312 37.339844 53.695312 L 38.027344 53.695312 C 38.394531 53.695312 38.691406 53.398438 38.691406 53.03125 C 38.691406 52.664062 38.394531 52.363281 38.027344 52.363281 L 37.339844 52.363281 C 36.441406 52.363281 35.710938 51.628906 35.710938 50.726562 L 35.710938 50.039062 C 35.710938 49.671875 35.414062 49.375 35.046875 49.375 C 34.679688 49.375 34.382812 49.671875 34.382812 50.039062 L 34.382812 50.726562 C 34.382812 51.628906 33.652344 52.363281 32.753906 52.363281 L 32.066406 52.363281 C 31.699219 52.363281 31.402344 52.664062 31.402344 53.03125 C 31.402344 53.398438 31.699219 53.695312 32.066406 53.695312 L 32.753906 53.695312 C 33.652344 53.695312 34.382812 54.429688 34.382812 55.332031 L 34.382812 56.019531 C 34.382812 56.386719 34.679688 56.6875 35.046875 56.6875 Z M 34.613281 53.03125 C 34.773438 52.898438 34.917969 52.753906 35.046875 52.597656 C 35.175781 52.753906 35.320312 52.898438 35.476562 53.03125 C 35.320312 53.160156 35.175781 53.304688 35.046875 53.460938 C 34.917969 53.304688 34.773438 53.160156 34.613281 53.03125 Z M 34.613281 53.03125 " fill-opacity="1" fill-rule="nonzero"/><path fill="#c98a3a" d="M 53.140625 89.21875 L 52.628906 89.21875 C 50.296875 89.21875 48.402344 87.3125 48.402344 84.976562 L 48.402344 84.460938 C 48.402344 84.09375 48.105469 83.796875 47.742188 83.796875 C 47.375 83.796875 47.078125 84.09375 47.078125 84.460938 L 47.078125 84.976562 C 47.078125 87.3125 45.183594 89.21875 42.851562 89.21875 L 42.339844 89.21875 C 41.976562 89.21875 41.679688 89.515625 41.679688 89.882812 C 41.679688 90.25 41.976562 90.546875 42.339844 90.546875 L 42.851562 90.546875 C 45.183594 90.546875 47.078125 92.449219 47.078125 94.789062 L 47.078125 95.300781 C 47.078125 95.667969 47.375 95.964844 47.742188 95.964844 C 48.105469 95.964844 48.402344 95.667969 48.402344 95.300781 L 48.402344 94.789062 C 48.402344 92.449219 50.296875 90.546875 52.628906 90.546875 L 53.140625 90.546875 C 53.507812 90.546875 53.804688 90.25 53.804688 89.882812 C 53.804688 89.515625 53.507812 89.21875 53.140625 89.21875 Z M 47.742188 92.152344 C 47.222656 91.191406 46.433594 90.398438 45.476562 89.882812 C 46.433594 89.363281 47.222656 88.570312 47.742188 87.609375 C 48.257812 88.570312 49.046875 89.363281 50.003906 89.882812 C 49.046875 90.398438 48.257812 91.191406 47.742188 92.152344 Z M 47.742188 92.152344 " fill-opacity="1" fill-rule="nonzero"/><path fill="#5a3a1a" d="M 36.730469 11.25 C 37.097656 11.25 37.394531 10.949219 37.394531 10.582031 L 37.394531 9.894531 C 37.394531 8.992188 38.125 8.257812 39.023438 8.257812 L 39.710938 8.257812 C 40.078125 8.257812 40.375 7.960938 40.375 7.59375 C 40.375 7.226562 40.078125 6.925781 39.710938 6.925781 L 39.023438 6.925781 C 38.125 6.925781 37.394531 6.195312 37.394531 5.292969 L 37.394531 4.601562 C 37.394531 4.234375 37.097656 3.9375 36.730469 3.9375 C 36.367188 3.9375 36.070312 4.234375 36.070312 4.601562 L 36.070312 5.292969 C 36.070312 6.195312 35.335938 6.925781 34.4375 6.925781 L 33.75 6.925781 C 33.386719 6.925781 33.089844 7.226562 33.089844 7.59375 C 33.089844 7.960938 33.386719 8.257812 33.75 8.257812 L 34.4375 8.257812 C 35.335938 8.257812 36.070312 8.992188 36.070312 9.894531 L 36.070312 10.582031 C 36.070312 10.949219 36.367188 11.25 36.730469 11.25 Z M 36.300781 7.59375 C 36.457031 7.464844 36.601562 7.316406 36.730469 7.160156 C 36.859375 7.316406 37.003906 7.464844 37.164062 7.59375 C 37.003906 7.722656 36.859375 7.867188 36.730469 8.027344 C 36.601562 7.867188 36.457031 7.722656 36.300781 7.59375 Z M 36.300781 7.59375 " fill-opacity="1" fill-rule="nonzero"/></svg>