<svg xmlns="http://www.w3.org/2000/svg" xmlns:xlink="http://www.w3.org/1999/xlink" width="128" zoomAndPan="magnify" viewBox="0 0 96 95.999999" height="128" preserveAspectRatio="xMidYMid meet" version="1.0"><defs><clipPath id="9983c65a5f"><path d="M 38 87 L 44 87 L 44 93.785156 L 38 93.785156 Z M 38 87 " clip-rule="nonzero"/></clipPath><clipPath id="7b60ca1c3c"><path d="M 7.429688 48 L 12 48 L 12 53 L 7.429688 53 Z M 7.429688 48 " clip-rule="nonzero"/></clipPath><clipPath id="35510d50ab"><path d="M 15 2.285156 L 19 2.285156 L 19 6 L 15 6 Z M 15 2.285156 " clip-rule="nonzero"/></clipPath><clipPath id="2e98928d0f"><path d="M 86 56 L 88.429688 56 L 88.429688 60 L 86 60 Z M 86 56 " clip-rule="nonzero"/></clipPath></defs><g clip-path="url(#9983c65a5f)"><path fill="#000000" d="M 42.066406 90.527344 C 42.710938 90.484375 43.347656 90.410156 43.988281 90.300781 C 43.289062 90.199219 42.582031 90.152344 41.878906 90.144531 C 41.878906 90.128906 41.875 90.113281 41.871094 90.097656 C 42.125 89.78125 42.359375 89.453125 42.570312 89.105469 C 42.3125 89.324219 42.058594 89.554688 41.824219 89.796875 C 41.714844 89.078125 41.554688 88.363281 41.324219 87.671875 C 41.328125 88.363281 41.347656 89.054688 41.390625 89.746094 C 41.140625 89.503906 40.875 89.273438 40.585938 89.074219 C 40.855469 89.441406 41.125 89.796875 41.40625 90.148438 C 40.484375 90.164062 39.5625 90.253906 38.648438 90.40625 C 39.492188 90.53125 40.339844 90.578125 41.1875 90.5625 C 40.984375 90.84375 40.800781 91.144531 40.65625 91.464844 C 40.925781 91.183594 41.191406 90.898438 41.449219 90.605469 C 41.527344 91.496094 41.648438 92.386719 41.839844 93.261719 C 41.890625 93.503906 41.894531 93.664062 41.917969 93.300781 C 42.007812 92.460938 42.011719 91.617188 41.945312 90.78125 C 42.183594 91.046875 42.429688 91.308594 42.691406 91.566406 C 42.515625 91.203125 42.304688 90.851562 42.066406 90.527344 Z M 42.066406 90.527344 " fill-opacity="1" fill-rule="nonzero"/></g><path fill="#000000" d="M 44.3125 80.417969 C 44.3125 80.414062 44.3125 80.410156 44.3125 80.40625 C 44.902344 80.300781 45.484375 80.164062 46.066406 80.011719 C 45.460938 79.988281 44.855469 80.023438 44.257812 80.101562 C 44.253906 80.082031 44.246094 80.0625 44.246094 80.042969 C 44.410156 79.773438 44.566406 79.5 44.707031 79.210938 C 44.527344 79.402344 44.355469 79.597656 44.195312 79.804688 C 44.070312 79.230469 43.902344 78.667969 43.679688 78.125 C 43.707031 78.789062 43.765625 79.457031 43.863281 80.117188 C 43.558594 79.925781 43.253906 79.738281 42.941406 79.5625 C 43.152344 79.796875 43.378906 80.011719 43.621094 80.203125 C 43.035156 80.3125 42.449219 80.449219 41.871094 80.613281 C 42.488281 80.636719 43.105469 80.589844 43.714844 80.5 C 43.550781 80.78125 43.402344 81.074219 43.285156 81.382812 C 43.511719 81.113281 43.726562 80.828125 43.929688 80.535156 C 44.050781 81.265625 44.222656 81.980469 44.449219 82.683594 C 44.476562 82.027344 44.441406 81.363281 44.359375 80.710938 C 44.671875 80.898438 45 81.054688 45.339844 81.191406 C 45.007812 80.914062 44.664062 80.660156 44.3125 80.417969 Z M 44.3125 80.417969 " fill-opacity="1" fill-rule="nonzero"/><path fill="#000000" d="M 31.25 84.09375 C 31.867188 83.757812 32.453125 83.351562 33.019531 82.929688 C 32.40625 83.128906 31.824219 83.402344 31.257812 83.699219 C 31.328125 83.40625 31.378906 83.113281 31.402344 82.808594 C 31.292969 83.085938 31.164062 83.429688 31.046875 83.773438 C 30.871094 83.273438 30.667969 82.78125 30.441406 82.300781 C 30.484375 82.832031 30.582031 83.355469 30.730469 83.863281 C 30.472656 83.765625 30.210938 83.679688 29.9375 83.621094 C 30.171875 83.773438 30.417969 83.902344 30.667969 84.019531 C 30.210938 84.273438 29.753906 84.539062 29.289062 84.789062 C 29.847656 84.703125 30.367188 84.523438 30.863281 84.289062 C 30.867188 84.300781 30.871094 84.3125 30.875 84.320312 C 30.765625 84.683594 30.6875 85.027344 30.671875 85.269531 C 30.78125 85.046875 30.882812 84.816406 30.972656 84.585938 C 31.125 84.972656 31.304688 85.347656 31.519531 85.707031 C 31.550781 85.757812 31.578125 85.808594 31.609375 85.859375 C 31.507812 85.308594 31.367188 84.765625 31.199219 84.234375 C 31.40625 84.304688 31.617188 84.371094 31.832031 84.421875 C 31.644531 84.300781 31.449219 84.195312 31.25 84.09375 Z M 31.25 84.09375 " fill-opacity="1" fill-rule="nonzero"/><path fill="#000000" d="M 15.082031 71.316406 C 15.824219 71.117188 16.554688 70.867188 17.265625 70.550781 C 16.558594 70.640625 15.855469 70.761719 15.15625 70.910156 C 15.253906 70.71875 15.347656 70.527344 15.425781 70.328125 C 15.402344 70.359375 15.378906 70.386719 15.355469 70.414062 C 15.214844 70.582031 15.082031 70.753906 14.957031 70.933594 C 14.777344 70.191406 14.535156 69.46875 14.230469 68.765625 C 14.28125 69.46875 14.378906 70.160156 14.515625 70.847656 C 14.300781 70.695312 14.078125 70.5625 13.835938 70.453125 C 14.058594 70.648438 14.273438 70.855469 14.492188 71.058594 C 13.644531 71.265625 12.8125 71.523438 12 71.84375 C 12.890625 71.777344 13.773438 71.644531 14.636719 71.433594 C 14.636719 71.441406 14.640625 71.441406 14.640625 71.449219 C 14.484375 71.726562 14.351562 72.015625 14.257812 72.320312 C 14.414062 72.113281 14.558594 71.90625 14.699219 71.6875 C 14.878906 72.40625 15.109375 73.113281 15.390625 73.800781 C 15.347656 73.078125 15.253906 72.355469 15.113281 71.640625 C 15.402344 71.90625 15.699219 72.160156 16.011719 72.390625 C 15.730469 72.011719 15.421875 71.644531 15.082031 71.316406 Z M 15.082031 71.316406 " fill-opacity="1" fill-rule="nonzero"/><g clip-path="url(#7b60ca1c3c)"><path fill="#000000" d="M 9.609375 51.058594 C 10.179688 51.03125 10.75 50.945312 11.3125 50.816406 C 10.75 50.769531 10.191406 50.757812 9.632812 50.761719 C 9.78125 50.546875 9.910156 50.328125 10.019531 50.089844 C 9.851562 50.28125 9.6875 50.46875 9.527344 50.65625 C 9.429688 50.003906 9.273438 49.363281 9.058594 48.738281 C 9.066406 49.285156 9.113281 49.972656 9.1875 50.644531 C 8.960938 50.433594 8.726562 50.230469 8.476562 50.042969 C 8.65625 50.300781 8.863281 50.542969 9.074219 50.773438 C 8.523438 50.789062 7.976562 50.8125 7.425781 50.839844 C 8 51 8.585938 51.070312 9.171875 51.070312 C 8.910156 51.386719 8.660156 51.703125 8.429688 52.039062 C 8.730469 51.796875 9.011719 51.527344 9.261719 51.238281 C 9.355469 51.890625 9.472656 52.480469 9.609375 52.859375 C 9.648438 52.339844 9.640625 51.8125 9.597656 51.296875 C 9.820312 51.5 10.046875 51.699219 10.285156 51.886719 C 10.085938 51.589844 9.855469 51.316406 9.609375 51.058594 Z M 9.609375 51.058594 " fill-opacity="1" fill-rule="nonzero"/></g><path fill="#000000" d="M 24.019531 41.742188 C 24.625 41.578125 25.214844 41.363281 25.785156 41.105469 C 25.195312 41.175781 24.613281 41.289062 24.039062 41.425781 C 24.136719 41.175781 24.226562 40.917969 24.296875 40.65625 C 24.148438 40.875 24.007812 41.117188 23.878906 41.367188 C 23.75 40.710938 23.566406 40.066406 23.300781 39.441406 C 23.367188 40.082031 23.453125 40.71875 23.570312 41.347656 C 23.390625 41.207031 23.203125 41.070312 23.007812 40.949219 C 23.164062 41.144531 23.351562 41.351562 23.550781 41.546875 C 22.976562 41.699219 22.402344 41.871094 21.835938 42.046875 C 22.449219 42.046875 23.054688 41.96875 23.652344 41.832031 C 23.515625 42.136719 23.402344 42.4375 23.320312 42.722656 C 23.472656 42.519531 23.605469 42.300781 23.726562 42.082031 C 23.824219 42.507812 23.941406 42.929688 24.085938 43.34375 C 24.070312 42.871094 24.03125 42.402344 23.964844 41.9375 C 24.203125 42.140625 24.441406 42.324219 24.664062 42.457031 C 24.472656 42.199219 24.253906 41.964844 24.019531 41.742188 Z M 24.019531 41.742188 " fill-opacity="1" fill-rule="nonzero"/><path fill="#000000" d="M 34.707031 44.105469 C 34.261719 44.082031 33.816406 44.113281 33.378906 44.164062 C 33.496094 43.9375 33.605469 43.707031 33.691406 43.464844 C 33.511719 43.691406 33.332031 43.933594 33.164062 44.183594 C 33.089844 43.632812 32.980469 43.082031 32.8125 42.550781 C 32.796875 43.011719 32.808594 43.511719 32.851562 44.015625 C 32.710938 43.859375 32.570312 43.707031 32.421875 43.558594 C 32.523438 43.796875 32.65625 44.023438 32.804688 44.238281 C 32.257812 44.320312 31.710938 44.417969 31.179688 44.472656 C 31.75 44.613281 32.328125 44.609375 32.898438 44.527344 C 32.902344 44.550781 32.90625 44.570312 32.910156 44.59375 C 32.753906 44.863281 32.617188 45.136719 32.511719 45.402344 C 32.667969 45.230469 32.8125 45.042969 32.949219 44.855469 C 33.019531 45.308594 33.117188 45.738281 33.25 46.101562 C 33.265625 45.648438 33.253906 45.199219 33.21875 44.746094 C 33.367188 44.90625 33.523438 45.0625 33.683594 45.207031 C 33.550781 44.945312 33.390625 44.707031 33.21875 44.472656 C 33.726562 44.386719 34.222656 44.246094 34.707031 44.105469 Z M 34.707031 44.105469 " fill-opacity="1" fill-rule="nonzero"/><path fill="#000000" d="M 37.460938 54.175781 C 38.125 53.761719 38.730469 53.265625 39.335938 52.769531 C 38.71875 53.039062 38.113281 53.335938 37.519531 53.660156 C 37.625 53.269531 37.683594 52.867188 37.679688 52.457031 C 37.550781 52.867188 37.386719 53.292969 37.21875 53.714844 C 36.847656 52.992188 36.417969 52.300781 35.929688 51.644531 C 36.160156 52.378906 36.464844 53.140625 36.808594 53.878906 C 36.476562 53.734375 36.148438 53.589844 35.808594 53.433594 C 36.070312 53.6875 36.390625 53.914062 36.738281 54.105469 C 36.09375 54.480469 35.460938 54.886719 34.851562 55.3125 C 35.554688 55.066406 36.261719 54.828125 36.925781 54.484375 C 36.773438 54.894531 36.648438 55.296875 36.578125 55.679688 C 36.800781 55.34375 37.003906 54.988281 37.171875 54.625 C 37.515625 55.300781 37.882812 55.941406 38.246094 56.488281 C 38.085938 55.796875 37.859375 55.128906 37.578125 54.480469 C 37.902344 54.597656 38.222656 54.683594 38.511719 54.730469 C 38.152344 54.515625 37.804688 54.335938 37.460938 54.175781 Z M 37.460938 54.175781 " fill-opacity="1" fill-rule="nonzero"/><path fill="#000000" d="M 52.566406 42.101562 C 53.367188 42.015625 54.136719 41.875 54.734375 41.65625 C 54.058594 41.636719 53.378906 41.652344 52.703125 41.710938 C 52.878906 41.445312 53.035156 41.167969 53.171875 40.878906 C 52.941406 41.117188 52.703125 41.390625 52.480469 41.675781 C 52.410156 41.105469 52.296875 40.542969 52.125 39.992188 C 52.101562 40.53125 52.109375 41.109375 52.148438 41.691406 C 51.933594 41.5 51.710938 41.332031 51.464844 41.179688 C 51.605469 41.378906 51.769531 41.589844 51.949219 41.800781 C 51.332031 41.886719 50.71875 42.007812 50.117188 42.183594 C 50.742188 42.203125 51.445312 42.191406 52.140625 42.140625 C 51.9375 42.4375 51.765625 42.742188 51.652344 43.027344 C 51.847656 42.824219 52.03125 42.609375 52.210938 42.394531 C 52.28125 43.003906 52.390625 43.59375 52.558594 44.09375 C 52.585938 43.539062 52.585938 42.980469 52.546875 42.425781 C 52.78125 42.632812 53.019531 42.816406 53.253906 42.945312 C 53.042969 42.648438 52.816406 42.367188 52.566406 42.101562 Z M 52.566406 42.101562 " fill-opacity="1" fill-rule="nonzero"/><path fill="#000000" d="M 45.96875 34.898438 C 45.503906 34.8125 45.042969 34.75 44.574219 34.695312 C 45.28125 34.03125 45.933594 33.308594 46.511719 32.515625 C 45.691406 33.128906 44.859375 33.761719 44.054688 34.445312 C 44.238281 32.921875 44.300781 31.386719 44.1875 29.851562 C 43.886719 31.195312 43.507812 32.519531 43.277344 33.878906 C 42.917969 33.378906 42.539062 32.898438 42.152344 32.421875 C 42.472656 33.136719 42.808594 33.847656 43.164062 34.550781 C 41.585938 34.425781 40 34.390625 38.421875 34.308594 C 39.941406 34.796875 41.5 35.109375 43.078125 35.296875 C 43.078125 35.304688 43.078125 35.3125 43.074219 35.316406 C 42.6875 35.679688 42.3125 36.0625 41.949219 36.460938 C 41.820312 36.621094 41.078125 37.390625 41.507812 37.054688 C 42.023438 36.726562 42.523438 36.378906 43.011719 36.011719 C 42.894531 37.332031 42.875 38.65625 42.941406 39.976562 C 43.304688 38.613281 43.617188 37.230469 43.851562 35.835938 C 44.363281 36.75 44.917969 37.640625 45.53125 38.484375 C 45.148438 37.441406 44.753906 36.390625 44.234375 35.40625 C 45.734375 35.527344 47.246094 35.550781 48.75 35.511719 C 48.828125 35.511719 48.90625 35.507812 48.984375 35.507812 C 47.988281 35.273438 46.984375 35.066406 45.96875 34.898438 Z M 45.96875 34.898438 " fill-opacity="1" fill-rule="nonzero"/><path fill="#000000" d="M 34.496094 19.636719 C 35.058594 19.589844 35.617188 19.507812 36.15625 19.390625 C 35.636719 19.351562 35.121094 19.34375 34.617188 19.363281 C 34.75 19.1875 34.875 19.003906 34.984375 18.8125 C 34.816406 18.964844 34.648438 19.132812 34.488281 19.304688 C 34.472656 18.828125 34.429688 18.355469 34.351562 17.882812 C 34.269531 18.378906 34.222656 18.882812 34.210938 19.382812 C 34.199219 19.382812 34.191406 19.382812 34.179688 19.382812 C 34.03125 19.238281 33.882812 19.097656 33.730469 18.957031 C 33.8125 19.113281 33.914062 19.257812 34.023438 19.394531 C 33.484375 19.441406 32.953125 19.515625 32.421875 19.621094 C 33.003906 19.679688 33.597656 19.6875 34.183594 19.652344 C 34.023438 19.859375 33.871094 20.066406 33.75 20.273438 C 33.910156 20.136719 34.0625 19.992188 34.203125 19.839844 C 34.214844 20.371094 34.261719 20.90625 34.347656 21.433594 C 34.433594 20.914062 34.476562 20.394531 34.488281 19.871094 C 34.601562 19.96875 34.71875 20.054688 34.84375 20.136719 C 34.734375 19.988281 34.613281 19.851562 34.492188 19.714844 C 34.496094 19.691406 34.496094 19.664062 34.496094 19.636719 Z M 34.496094 19.636719 " fill-opacity="1" fill-rule="nonzero"/><path fill="#000000" d="M 42.765625 17.214844 C 42.769531 17.195312 42.777344 17.175781 42.78125 17.15625 C 43.484375 17.402344 44.195312 17.582031 44.839844 17.648438 C 44.207031 17.324219 43.558594 17.03125 42.894531 16.796875 C 43.074219 16.679688 43.246094 16.558594 43.40625 16.433594 C 43.230469 16.488281 43.066406 16.554688 42.898438 16.628906 C 43.023438 16.058594 43.109375 15.484375 43.164062 14.917969 C 42.90625 15.484375 42.703125 16.074219 42.542969 16.679688 C 42.542969 16.679688 42.539062 16.679688 42.539062 16.679688 C 42.429688 16.4375 42.3125 16.203125 42.175781 15.976562 C 42.214844 16.191406 42.261719 16.40625 42.324219 16.613281 C 41.800781 16.457031 41.269531 16.339844 40.722656 16.273438 C 41.207031 16.523438 41.742188 16.761719 42.289062 16.972656 C 42.09375 17.097656 41.910156 17.234375 41.734375 17.382812 C 41.972656 17.292969 42.210938 17.179688 42.445312 17.058594 C 42.285156 17.722656 42.171875 18.390625 42.097656 19.054688 C 42.332031 18.5625 42.523438 18.054688 42.671875 17.53125 C 42.796875 17.792969 42.933594 18.039062 43.082031 18.277344 C 43.007812 17.917969 42.898438 17.558594 42.765625 17.214844 Z M 42.765625 17.214844 " fill-opacity="1" fill-rule="nonzero"/><path fill="#000000" d="M 28.550781 15.953125 C 29.210938 15.890625 29.859375 15.800781 30.484375 15.714844 C 29.894531 15.636719 29.300781 15.574219 28.707031 15.578125 C 28.957031 15.238281 29.183594 14.882812 29.378906 14.507812 C 29.105469 14.785156 28.820312 15.089844 28.550781 15.410156 C 28.542969 14.75 28.503906 14.09375 28.421875 13.4375 C 28.273438 14.125 28.179688 14.824219 28.132812 15.527344 C 27.933594 15.320312 27.71875 15.121094 27.488281 14.945312 C 27.625 15.148438 27.789062 15.386719 27.964844 15.625 C 27.332031 15.699219 26.714844 15.859375 26.089844 15.960938 C 26.746094 16.042969 27.417969 16.035156 28.089844 15.988281 C 27.839844 16.320312 27.621094 16.648438 27.449219 16.964844 C 27.679688 16.757812 27.898438 16.539062 28.105469 16.3125 C 28.09375 17.167969 28.160156 18.027344 28.324219 18.855469 C 28.433594 18.019531 28.511719 17.179688 28.539062 16.335938 C 28.78125 16.613281 29.019531 16.847656 29.222656 16.972656 C 29.015625 16.636719 28.792969 16.3125 28.550781 16.003906 C 28.550781 15.988281 28.550781 15.96875 28.550781 15.953125 Z M 28.550781 15.953125 " fill-opacity="1" fill-rule="nonzero"/><g clip-path="url(#35510d50ab)"><path fill="#000000" d="M 17.773438 3.878906 C 18.144531 3.933594 18.519531 3.964844 18.898438 3.96875 C 18.527344 3.84375 18.144531 3.742188 17.761719 3.652344 C 17.765625 3.640625 17.765625 3.628906 17.765625 3.621094 C 17.976562 3.476562 18.175781 3.328125 18.351562 3.171875 C 18.15625 3.253906 17.96875 3.347656 17.785156 3.453125 C 17.828125 3.082031 17.855469 2.707031 17.863281 2.332031 C 17.714844 2.703125 17.601562 3.085938 17.519531 3.476562 C 17.410156 3.316406 17.296875 3.164062 17.179688 3.011719 C 17.246094 3.210938 17.335938 3.398438 17.4375 3.582031 C 16.945312 3.476562 16.449219 3.398438 15.953125 3.335938 C 16.382812 3.539062 16.828125 3.683594 17.285156 3.785156 C 17.15625 3.886719 17.035156 3.992188 16.917969 4.109375 C 17.09375 4.023438 17.269531 3.925781 17.441406 3.824219 C 17.445312 3.824219 17.445312 3.824219 17.445312 3.824219 C 17.355469 4.355469 17.3125 4.898438 17.300781 5.4375 C 17.492188 4.96875 17.617188 4.484375 17.707031 3.992188 C 17.804688 4.128906 17.914062 4.265625 18.023438 4.390625 C 17.953125 4.210938 17.867188 4.042969 17.773438 3.878906 Z M 17.773438 3.878906 " fill-opacity="1" fill-rule="nonzero"/></g><path fill="#000000" d="M 69.652344 36.03125 C 70.339844 35.847656 71.015625 35.613281 71.679688 35.382812 C 71.007812 35.40625 70.351562 35.507812 69.699219 35.644531 C 69.914062 35.328125 70.101562 34.992188 70.253906 34.636719 C 69.96875 34.972656 69.683594 35.3125 69.414062 35.664062 C 69.335938 34.832031 69.199219 34.007812 68.996094 33.195312 C 68.914062 34.003906 68.898438 34.8125 68.953125 35.613281 C 68.667969 35.476562 68.371094 35.367188 68.050781 35.3125 C 68.351562 35.464844 68.640625 35.644531 68.921875 35.828125 C 68.222656 36 67.53125 36.203125 66.835938 36.394531 C 67.570312 36.4375 68.289062 36.351562 68.996094 36.199219 C 68.996094 36.210938 69 36.21875 69.003906 36.230469 C 68.8125 36.511719 68.636719 36.796875 68.484375 37.097656 C 68.671875 36.910156 68.859375 36.710938 69.035156 36.507812 C 69.125 37.222656 69.261719 37.933594 69.460938 38.628906 C 69.511719 37.8125 69.511719 36.992188 69.457031 36.179688 C 69.859375 36.445312 70.261719 36.707031 70.691406 36.929688 C 70.367188 36.601562 70.019531 36.296875 69.652344 36.03125 Z M 69.652344 36.03125 " fill-opacity="1" fill-rule="nonzero"/><path fill="#000000" d="M 83.722656 18.972656 C 84.128906 19.109375 84.542969 19.226562 84.964844 19.316406 C 84.574219 19.085938 84.167969 18.882812 83.746094 18.707031 C 83.75 18.6875 83.757812 18.667969 83.761719 18.648438 C 83.964844 18.515625 84.160156 18.386719 84.355469 18.242188 C 84.164062 18.304688 83.984375 18.382812 83.804688 18.46875 C 83.925781 17.980469 84.035156 17.488281 84.113281 16.992188 C 83.855469 17.507812 83.640625 18.042969 83.472656 18.59375 C 83.46875 18.59375 83.46875 18.589844 83.464844 18.589844 C 83.332031 18.410156 83.191406 18.234375 83.035156 18.074219 C 83.105469 18.222656 83.179688 18.367188 83.253906 18.515625 C 82.800781 18.351562 82.335938 18.21875 81.867188 18.117188 C 82.304688 18.382812 82.769531 18.605469 83.242188 18.792969 C 83.042969 18.925781 82.851562 19.074219 82.675781 19.238281 C 82.917969 19.128906 83.15625 19 83.390625 18.867188 C 83.226562 19.464844 83.113281 20.074219 83.058594 20.691406 C 83.273438 20.191406 83.457031 19.679688 83.613281 19.160156 C 83.820312 19.5 84.050781 19.832031 84.300781 20.144531 C 84.148438 19.738281 83.953125 19.34375 83.722656 18.972656 Z M 83.722656 18.972656 " fill-opacity="1" fill-rule="nonzero"/><path fill="#000000" d="M 76.527344 55.140625 C 75.992188 55 75.4375 54.886719 74.882812 54.804688 C 75.160156 54.535156 75.414062 54.242188 75.628906 53.921875 C 75.304688 54.179688 74.980469 54.4375 74.667969 54.710938 C 74.695312 54.03125 74.671875 53.355469 74.578125 52.675781 C 74.480469 53.257812 74.382812 53.792969 74.304688 54.320312 C 74.175781 54.136719 74.046875 53.953125 73.910156 53.777344 C 74.003906 54.085938 74.121094 54.382812 74.257812 54.671875 C 74.253906 54.691406 74.253906 54.707031 74.25 54.726562 C 73.539062 54.664062 72.820312 54.671875 72.113281 54.800781 C 72.585938 54.820312 73.386719 54.996094 73.691406 55.019531 C 73.863281 55.042969 74.035156 55.0625 74.207031 55.078125 C 74.207031 55.09375 74.207031 55.113281 74.203125 55.132812 C 73.949219 55.375 73.707031 55.621094 73.480469 55.894531 C 73.71875 55.742188 73.949219 55.582031 74.175781 55.410156 C 74.136719 55.847656 74.109375 56.300781 74.117188 56.789062 C 74.128906 57.007812 74.109375 58.308594 74.207031 57.75 C 74.40625 56.964844 74.550781 56.164062 74.625 55.355469 C 74.914062 55.84375 75.253906 56.296875 75.628906 56.722656 C 75.398438 56.167969 75.128906 55.628906 74.824219 55.117188 C 75.390625 55.144531 75.960938 55.144531 76.527344 55.140625 Z M 76.527344 55.140625 " fill-opacity="1" fill-rule="nonzero"/><path fill="#000000" d="M 70.898438 74.351562 C 72.246094 73.957031 73.550781 73.421875 74.808594 72.785156 C 73.511719 73.023438 72.203125 73.246094 70.917969 73.554688 C 71.136719 73.128906 71.320312 72.679688 71.449219 72.210938 C 71.113281 72.652344 70.785156 73.101562 70.472656 73.5625 C 70.195312 72.0625 69.785156 70.328125 69.394531 68.949219 C 69.335938 70.417969 69.394531 71.90625 69.621094 73.363281 C 69.238281 73.097656 68.847656 72.84375 68.445312 72.613281 C 68.847656 73.046875 69.269531 73.46875 69.707031 73.871094 C 69.363281 73.976562 69.015625 74.085938 68.679688 74.210938 C 67.617188 74.601562 66.902344 74.988281 65.878906 75.324219 C 66.996094 75.289062 68.082031 75 69.171875 74.773438 C 69.375 74.730469 69.582031 74.6875 69.785156 74.640625 C 69.539062 75.054688 69.304688 75.480469 69.089844 75.914062 C 69.402344 75.628906 69.695312 75.324219 69.964844 75 C 70.242188 76.074219 70.601562 77.121094 70.964844 78.167969 C 70.984375 78.230469 71.011719 78.292969 71.03125 78.351562 C 70.976562 77.34375 70.886719 76.339844 70.75 75.339844 C 70.726562 75.136719 70.699219 74.917969 70.664062 74.6875 C 71.3125 75.207031 72 75.671875 72.742188 76.066406 C 72.152344 75.464844 71.542969 74.886719 70.898438 74.351562 Z M 70.898438 74.351562 " fill-opacity="1" fill-rule="nonzero"/><g clip-path="url(#2e98928d0f)"><path fill="#000000" d="M 87.628906 58.246094 C 87.949219 58.082031 88.261719 57.902344 88.566406 57.699219 C 88.242188 57.785156 87.929688 57.894531 87.625 58.03125 C 87.675781 57.886719 87.722656 57.742188 87.753906 57.59375 C 87.664062 57.75 87.578125 57.921875 87.496094 58.089844 C 87.347656 57.679688 87.167969 57.28125 86.949219 56.898438 C 87.035156 57.289062 87.140625 57.679688 87.257812 58.0625 C 87.128906 58.007812 87 57.957031 86.871094 57.914062 C 87 58.007812 87.144531 58.09375 87.289062 58.175781 C 87.289062 58.179688 87.292969 58.183594 87.292969 58.1875 C 86.988281 58.339844 86.695312 58.515625 86.417969 58.707031 C 86.738281 58.625 87.050781 58.511719 87.351562 58.375 C 87.355469 58.378906 87.355469 58.382812 87.359375 58.386719 C 87.277344 58.578125 87.203125 58.773438 87.15625 58.960938 C 87.25 58.820312 87.332031 58.675781 87.40625 58.527344 C 87.546875 58.929688 87.710938 59.328125 87.90625 59.710938 C 87.828125 59.242188 87.722656 58.78125 87.578125 58.328125 C 87.769531 58.421875 87.960938 58.507812 88.144531 58.570312 C 87.980469 58.453125 87.808594 58.34375 87.628906 58.246094 Z M 87.628906 58.246094 " fill-opacity="1" fill-rule="nonzero"/></g><path fill="#000000" d="M 76.261719 84.398438 C 75.882812 84.273438 75.5 84.15625 75.113281 84.0625 C 75.347656 83.902344 75.574219 83.726562 75.765625 83.550781 C 75.53125 83.648438 75.3125 83.769531 75.101562 83.902344 C 75.144531 83.5625 75.164062 83.21875 75.152344 82.875 C 75.0625 83.15625 74.972656 83.5 74.890625 83.855469 C 74.773438 83.660156 74.652344 83.464844 74.511719 83.285156 C 74.59375 83.519531 74.691406 83.757812 74.804688 83.992188 C 74.339844 83.894531 73.863281 83.84375 73.382812 83.875 C 73.8125 83.984375 74.234375 84.105469 74.664062 84.210938 C 74.535156 84.316406 74.402344 84.425781 74.28125 84.546875 C 74.457031 84.460938 74.632812 84.363281 74.808594 84.257812 C 74.699219 84.8125 74.628906 85.355469 74.660156 85.6875 C 74.8125 85.269531 74.9375 84.847656 75.023438 84.410156 C 75.140625 84.621094 75.269531 84.820312 75.398438 84.996094 C 75.328125 84.761719 75.238281 84.535156 75.136719 84.316406 C 75.449219 84.375 75.761719 84.417969 76.085938 84.429688 C 76.203125 84.429688 76.527344 84.46875 76.261719 84.398438 Z M 76.261719 84.398438 " fill-opacity="1" fill-rule="nonzero"/><path stroke-linecap="butt" transform="matrix(1, 0, 0, 1, 0.0000005, 0.000002)" fill-opacity="1" fill="#000000" fill-rule="nonzero" stroke-linejoin="miter" d="M 32.449217 84.765621 L 40.023436 89.285152 L 39.968748 89.374996 L 32.39453 84.855464 Z M 32.449217 84.765621 " stroke="#000000" stroke-width="0.2" stroke-opacity="1" stroke-miterlimit="4"/><path stroke-linecap="butt" transform="matrix(1, 0, 0, 1, 0.0000005, 0.000002)" fill-opacity="1" fill="#000000" fill-rule="nonzero" stroke-linejoin="miter" d="M 33.765624 82.636714 L 41.296873 80.941402 L 41.316405 81.039058 L 33.785155 82.738277 Z M 33.765624 82.636714 " stroke="#000000" stroke-width="0.2" stroke-opacity="1" stroke-miterlimit="4"/><path stroke-linecap="butt" transform="matrix(1, 0, 0, 1, 0.0000005, 0.000002)" fill-opacity="1" fill="#000000" fill-rule="nonzero" stroke-linejoin="miter" d="M 16.51953 72.492183 L 29.703124 82.851558 L 29.640624 82.933589 L 16.453124 72.574215 Z M 16.51953 72.492183 " stroke="#000000" stroke-width="0.2" stroke-opacity="1" stroke-miterlimit="4"/><path stroke-linecap="butt" transform="matrix(1, 0, 0, 1, 0.0000005, 0.000002)" fill-opacity="1" fill="#000000" fill-rule="nonzero" stroke-linejoin="miter" d="M 10.074218 53.55859 L 14.015624 68.042965 L 13.917968 68.070309 L 9.972655 53.582028 Z M 10.074218 53.55859 " stroke="#000000" stroke-width="0.2" stroke-opacity="1" stroke-miterlimit="4"/><path stroke-linecap="butt" transform="matrix(1, 0, 0, 1, 0.0000005, 0.000002)" fill-opacity="1" fill="#000000" fill-rule="nonzero" stroke-linejoin="miter" d="M 10.382812 49.675778 L 21.292968 42.570309 L 21.351561 42.656247 L 10.437499 49.761715 Z M 10.382812 49.675778 " stroke="#000000" stroke-width="0.2" stroke-opacity="1" stroke-miterlimit="4"/><path stroke-linecap="butt" transform="matrix(1, 0, 0, 1, 0.0000005, 0.000002)" fill-opacity="1" fill="#000000" fill-rule="nonzero" stroke-linejoin="miter" d="M 26.476561 41.140622 L 31.855467 43.249997 L 31.820311 43.343747 L 26.437499 41.234372 Z M 26.476561 41.140622 " stroke="#000000" stroke-width="0.2" stroke-opacity="1" stroke-miterlimit="4"/><path stroke-linecap="butt" transform="matrix(1, 0, 0, 1, 0.0000005, 0.000002)" fill-opacity="1" fill="#000000" fill-rule="nonzero" stroke-linejoin="miter" d="M 34.437499 43.183591 L 40.964842 37.667966 L 41.031248 37.749997 L 34.503905 43.261716 Z M 34.437499 43.183591 " stroke="#000000" stroke-width="0.2" stroke-opacity="1" stroke-miterlimit="4"/><path stroke-linecap="butt" transform="matrix(1, 0, 0, 1, 0.0000005, 0.000002)" fill-opacity="1" fill="#000000" fill-rule="nonzero" stroke-linejoin="miter" d="M 33.859374 46.867184 L 35.640624 50.835934 L 35.546874 50.878903 L 33.765624 46.910153 Z M 33.859374 46.867184 " stroke="#000000" stroke-width="0.2" stroke-opacity="1" stroke-miterlimit="4"/><path stroke-linecap="butt" transform="matrix(1, 0, 0, 1, 0.0000005, 0.000002)" fill-opacity="1" fill="#000000" fill-rule="nonzero" stroke-linejoin="miter" d="M 50.859373 43.242184 L 39.804686 52.582028 L 39.73828 52.503903 L 50.796873 43.164059 Z M 50.859373 43.242184 " stroke="#000000" stroke-width="0.2" stroke-opacity="1" stroke-miterlimit="4"/><path stroke-linecap="butt" transform="matrix(1, 0, 0, 1, 0.0000005, 0.000002)" fill-opacity="1" fill="#000000" fill-rule="nonzero" stroke-linejoin="miter" d="M 45.812498 36.632809 L 51.089842 40.781247 L 51.027342 40.863278 L 45.746092 36.714841 Z M 45.812498 36.632809 " stroke="#000000" stroke-width="0.2" stroke-opacity="1" stroke-miterlimit="4"/><path stroke-linecap="butt" transform="matrix(1, 0, 0, 1, 0.0000005, 0.000002)" fill-opacity="1" fill="#000000" fill-rule="nonzero" stroke-linejoin="miter" d="M 35.289061 20.839841 L 41.816405 31.683591 L 41.730467 31.738278 L 35.203124 20.894529 Z M 35.289061 20.839841 " stroke="#000000" stroke-width="0.2" stroke-opacity="1" stroke-miterlimit="4"/><path stroke-linecap="butt" transform="matrix(1, 0, 0, 1, 0.0000005, 0.000002)" fill-opacity="1" fill="#000000" fill-rule="nonzero" stroke-linejoin="miter" d="M 41.242186 17.335935 L 36.507811 18.925779 L 36.476561 18.828122 L 41.20703 17.238279 Z M 41.242186 17.335935 " stroke="#000000" stroke-width="0.2" stroke-opacity="1" stroke-miterlimit="4"/><path stroke-linecap="butt" transform="matrix(1, 0, 0, 1, 0.0000005, 0.000002)" fill-opacity="1" fill="#000000" fill-rule="nonzero" stroke-linejoin="miter" d="M 29.843749 16.667966 L 33.281249 18.769529 L 33.226561 18.859372 L 29.789061 16.753904 Z M 29.843749 16.667966 " stroke="#000000" stroke-width="0.2" stroke-opacity="1" stroke-miterlimit="4"/><path stroke-linecap="butt" transform="matrix(1, 0, 0, 1, 0.0000005, 0.000002)" fill-opacity="1" fill="#000000" fill-rule="nonzero" stroke-linejoin="miter" d="M 18.351561 4.72656 L 27.148436 14.386716 L 27.070311 14.453123 L 18.277343 4.796873 Z M 18.351561 4.72656 " stroke="#000000" stroke-width="0.2" stroke-opacity="1" stroke-miterlimit="4"/><path stroke-linecap="butt" transform="matrix(1, 0, 0, 1, 0.0000005, 0.000002)" fill-opacity="1" fill="#000000" fill-rule="nonzero" stroke-linejoin="miter" d="M 53.953123 40.570309 L 65.843748 36.574216 L 65.878904 36.671872 L 53.984373 40.667966 Z M 53.953123 40.570309 " stroke="#000000" stroke-width="0.2" stroke-opacity="1" stroke-miterlimit="4"/><path stroke-linecap="butt" transform="matrix(1, 0, 0, 1, 0.0000005, 0.000002)" fill-opacity="1" fill="#000000" fill-rule="nonzero" stroke-linejoin="miter" d="M 70.667966 33.710935 L 82.308591 20.699216 L 82.386716 20.765622 L 70.746091 33.781247 Z M 70.667966 33.710935 " stroke="#000000" stroke-width="0.2" stroke-opacity="1" stroke-miterlimit="4"/><path stroke-linecap="butt" transform="matrix(1, 0, 0, 1, 0.0000005, 0.000002)" fill-opacity="1" fill="#000000" fill-rule="nonzero" stroke-linejoin="miter" d="M 70.136716 38.675778 L 73.800779 52.136715 L 73.703122 52.164059 L 70.03906 38.703122 Z M 70.136716 38.675778 " stroke="#000000" stroke-width="0.2" stroke-opacity="1" stroke-miterlimit="4"/><path stroke-linecap="butt" transform="matrix(1, 0, 0, 1, 0.0000005, 0.000002)" fill-opacity="1" fill="#000000" fill-rule="nonzero" stroke-linejoin="miter" d="M 77.38281 55.281246 L 86.484372 57.648434 L 86.457028 57.749996 L 77.359372 55.378903 Z M 77.38281 55.281246 " stroke="#000000" stroke-width="0.2" stroke-opacity="1" stroke-miterlimit="4"/><path stroke-linecap="butt" transform="matrix(1, 0, 0, 1, 0.0000005, 0.000002)" fill-opacity="1" fill="#000000" fill-rule="nonzero" stroke-linejoin="miter" d="M 74.00781 59.320309 L 71.753904 71.300777 L 71.652341 71.281246 L 73.906247 59.300778 Z M 74.00781 59.320309 " stroke="#000000" stroke-width="0.2" stroke-opacity="1" stroke-miterlimit="4"/><path stroke-linecap="butt" transform="matrix(1, 0, 0, 1, 0.0000005, 0.000002)" fill-opacity="1" fill="#000000" fill-rule="nonzero" stroke-linejoin="miter" d="M 74.16406 82.675777 L 71.941404 77.210933 L 72.035154 77.171871 L 74.261716 82.636714 Z M 74.16406 82.675777 " stroke="#000000" stroke-width="0.2" stroke-opacity="1" stroke-miterlimit="4"/></svg>