<svg xmlns="http://www.w3.org/2000/svg" xmlns:xlink="http://www.w3.org/1999/xlink" width="128" zoomAndPan="magnify" viewBox="0 0 96 95.999999" height="128" preserveAspectRatio="xMidYMid meet" version="1.0"><defs><clipPath id="c055c5e8ba"><path d="M 10 18 L 93.839844 18 L 93.839844 90 L 10 90 Z M 10 18 " clip-rule="nonzero"/></clipPath><clipPath id="768458d3c2"><path d="M 2.339844 5 L 40 5 L 40 85 L 2.339844 85 Z M 2.339844 5 " clip-rule="nonzero"/></clipPath><clipPath id="f31f9a702b"><path d="M 25 50 L 93.839844 50 L 93.839844 96 L 25 96 Z M 25 50 " clip-rule="nonzero"/></clipPath></defs><path fill="#c98a3a" d="M 28.351562 46.21875 C 28.351562 45.523438 27.769531 44.933594 27.066406 44.933594 C 26.367188 44.933594 25.78125 45.511719 25.777344 46.214844 C 25.777344 46.910156 26.359375 47.5 27.0625 47.5 C 27.761719 47.5 28.347656 46.921875 28.351562 46.21875 Z M 28.351562 46.21875 " fill-opacity="1" fill-rule="nonzero"/><path fill="#c98a3a" d="M 75.542969 38.101562 C 74.839844 38.101562 74.257812 38.683594 74.253906 39.382812 C 74.253906 40.082031 74.835938 40.667969 75.539062 40.667969 C 76.238281 40.667969 76.824219 40.089844 76.828125 39.386719 C 76.828125 38.691406 76.242188 38.101562 75.542969 38.101562 Z M 75.542969 38.101562 " fill-opacity="1" fill-rule="nonzero"/><path fill="#5a3a1a" d="M 42.792969 79.714844 C 42.796875 79.015625 42.210938 78.425781 41.511719 78.425781 C 40.808594 78.425781 40.222656 79.007812 40.222656 79.707031 C 40.21875 80.40625 40.804688 80.996094 41.503906 80.996094 C 42.207031 80.996094 42.792969 80.414062 42.792969 79.714844 Z M 42.792969 79.714844 " fill-opacity="1" fill-rule="nonzero"/><g clip-path="url(#c055c5e8ba)"><path fill="#5a3a1a" d="M 89.386719 44.835938 C 89.378906 44.851562 89.371094 44.867188 89.363281 44.882812 C 87.746094 45.199219 86.132812 45.515625 84.519531 45.832031 C 84.824219 45.472656 85.128906 45.109375 85.4375 44.746094 C 86.359375 43.652344 87.277344 42.554688 88.207031 41.464844 C 88.433594 41.199219 88.421875 40.796875 88.15625 40.558594 C 87.898438 40.332031 87.472656 40.34375 87.246094 40.609375 C 86.953125 40.957031 86.660156 41.304688 86.367188 41.652344 C 85.746094 42.390625 85.121094 43.128906 84.5 43.867188 C 84.125 44.308594 83.75 44.753906 83.375 45.199219 C 83.125 45.492188 82.886719 45.800781 82.625 46.085938 C 82.585938 46.128906 82.558594 46.175781 82.53125 46.222656 C 81.011719 46.523438 79.492188 46.820312 77.972656 47.117188 C 78.472656 46.554688 78.96875 45.988281 79.46875 45.421875 C 80.304688 44.46875 81.148438 43.519531 81.984375 42.5625 C 82.214844 42.296875 82.203125 41.894531 81.941406 41.65625 C 81.683594 41.421875 81.261719 41.4375 81.03125 41.699219 C 80.695312 42.085938 80.355469 42.46875 80.019531 42.851562 C 78.648438 44.410156 77.265625 45.960938 75.902344 47.523438 C 75.886719 47.527344 75.871094 47.53125 75.859375 47.535156 C 74.125 47.875 72.390625 48.214844 70.65625 48.554688 C 71.523438 47.632812 72.390625 46.707031 73.261719 45.785156 C 73.980469 45.019531 74.703125 44.257812 75.417969 43.488281 C 75.65625 43.234375 75.613281 42.808594 75.355469 42.585938 C 75.085938 42.347656 74.6875 42.390625 74.445312 42.648438 C 73.820312 43.316406 73.191406 43.984375 72.5625 44.652344 C 71.238281 46.0625 69.914062 47.472656 68.585938 48.878906 C 68.558594 48.910156 68.535156 48.941406 68.515625 48.976562 C 68.1875 49.039062 67.859375 49.105469 67.53125 49.167969 C 67.25 49.222656 66.972656 49.277344 66.691406 49.332031 C 66.480469 49.027344 66.265625 48.726562 66.058594 48.421875 C 64.875 46.722656 63.695312 45.027344 62.515625 43.328125 C 61.179688 41.410156 59.847656 39.492188 58.515625 37.574219 C 57.242188 35.746094 55.972656 33.917969 54.699219 32.085938 C 53.402344 30.226562 52.109375 28.363281 50.8125 26.5 C 50.132812 25.523438 49.457031 24.546875 48.773438 23.566406 C 48.371094 22.984375 47.960938 22.402344 47.554688 21.816406 C 46.785156 20.347656 45.640625 18.796875 44.5 18.554688 C 44.402344 18.5625 44.320312 18.597656 44.246094 18.640625 C 43.722656 18.738281 43.507812 19.5 44 19.8125 C 44.433594 19.941406 44.800781 20.179688 45.097656 20.492188 C 45.160156 20.566406 45.226562 20.640625 45.285156 20.710938 C 45.75 21.316406 45.988281 22.113281 45.960938 22.886719 C 45.890625 26.144531 43.871094 28.96875 41.96875 31.492188 C 36.5 37.933594 30.347656 44.738281 30.597656 53.773438 C 30.636719 54.640625 30.714844 55.507812 30.84375 56.371094 C 29.40625 56.652344 27.96875 56.933594 26.53125 57.21875 C 25.527344 57.417969 24.523438 57.601562 23.523438 57.808594 C 23.457031 57.292969 23.386719 56.78125 23.316406 56.265625 C 23.121094 54.808594 22.921875 53.351562 22.726562 51.894531 C 22.671875 51.550781 22.300781 51.324219 21.96875 51.390625 C 21.914062 51.402344 21.863281 51.421875 21.816406 51.441406 C 21.75 51.460938 21.6875 51.492188 21.632812 51.535156 C 21.550781 51.601562 21.464844 51.667969 21.382812 51.734375 C 20.6875 52.289062 19.988281 52.84375 19.289062 53.398438 C 18.277344 54.199219 17.265625 55.007812 16.253906 55.808594 C 15.0625 56.753906 13.875 57.703125 12.683594 58.644531 C 11.921875 59.246094 11.171875 59.855469 10.410156 60.453125 C 10.40625 60.453125 10.40625 60.457031 10.40625 60.457031 C 10.402344 60.457031 10.402344 60.457031 10.402344 60.457031 C 10.394531 60.464844 10.386719 60.46875 10.382812 60.476562 C 10.339844 60.507812 10.300781 60.546875 10.269531 60.589844 C 10.21875 60.644531 10.171875 60.707031 10.144531 60.78125 C 10.019531 61.09375 10.171875 61.5 10.503906 61.613281 C 10.523438 61.621094 10.550781 61.628906 10.578125 61.636719 C 10.648438 61.660156 10.71875 61.679688 10.789062 61.699219 C 10.964844 61.746094 11.136719 61.796875 11.308594 61.847656 C 11.574219 61.921875 11.84375 62 12.113281 62.078125 C 13.65625 62.519531 15.203125 62.957031 16.746094 63.398438 C 18.363281 63.859375 19.976562 64.320312 21.59375 64.78125 C 22.136719 64.9375 22.683594 65.089844 23.226562 65.246094 C 23.238281 65.25 23.246094 65.253906 23.257812 65.253906 C 23.328125 65.273438 23.398438 65.296875 23.46875 65.316406 C 23.488281 65.320312 23.507812 65.328125 23.527344 65.332031 C 23.566406 65.34375 23.609375 65.34375 23.648438 65.34375 C 23.714844 65.363281 23.78125 65.375 23.851562 65.371094 C 23.878906 65.371094 23.910156 65.367188 23.9375 65.359375 C 24.105469 65.328125 24.257812 65.226562 24.351562 65.082031 C 24.449219 64.9375 24.46875 64.777344 24.445312 64.605469 C 24.429688 64.488281 24.414062 64.375 24.398438 64.257812 C 24.230469 63.019531 24.0625 61.78125 23.894531 60.546875 C 23.828125 60.058594 23.765625 59.570312 23.699219 59.082031 C 23.722656 59.078125 23.746094 59.070312 23.769531 59.066406 C 25.136719 58.800781 26.507812 58.53125 27.875 58.261719 C 28.941406 58.050781 30.011719 57.84375 31.078125 57.632812 C 31.414062 59.171875 31.9375 60.664062 32.734375 62.03125 C 34.957031 65.738281 38.105469 68.828125 41.339844 71.667969 C 45.300781 75.257812 55.246094 79.929688 55.359375 85.6875 C 55.34375 86.78125 55.0625 87.882812 54.558594 88.855469 C 54.480469 88.929688 54.417969 89.023438 54.386719 89.132812 C 54.363281 89.207031 54.359375 89.28125 54.363281 89.355469 C 54.359375 89.5625 54.441406 89.769531 54.632812 89.898438 C 54.882812 90.042969 55.105469 90.023438 55.304688 89.898438 C 56.46875 89.53125 56.984375 86.996094 57.214844 85.96875 C 57.242188 85.796875 57.261719 85.625 57.277344 85.457031 C 57.519531 84.550781 57.769531 83.640625 58.011719 82.734375 C 58.605469 80.539062 59.199219 78.34375 59.792969 76.148438 C 59.886719 75.804688 59.679688 75.449219 59.332031 75.359375 C 58.992188 75.273438 58.644531 75.476562 58.550781 75.816406 C 58.308594 76.71875 58.0625 77.625 57.816406 78.53125 C 57.484375 79.757812 57.152344 80.984375 56.820312 82.210938 C 55.820312 79.535156 53.429688 77.320312 51.1875 75.617188 C 48.539062 73.507812 46.089844 71.316406 43.824219 68.734375 C 41.121094 65.769531 39.140625 62.175781 38.53125 58.175781 C 38.417969 57.535156 38.316406 56.886719 38.234375 56.230469 C 40.136719 55.855469 42.042969 55.480469 43.945312 55.105469 C 46.742188 54.558594 49.535156 54.007812 52.328125 53.460938 C 55.113281 52.917969 57.894531 52.371094 60.679688 51.824219 C 62.214844 51.523438 63.75 51.21875 65.285156 50.917969 C 65.25 51.046875 65.214844 51.179688 65.179688 51.308594 C 64.722656 53.003906 64.261719 54.699219 63.804688 56.394531 C 63.140625 58.84375 62.480469 61.289062 61.820312 63.738281 C 61.777344 63.890625 61.734375 64.042969 61.695312 64.195312 C 61.597656 64.550781 61.820312 64.914062 62.179688 64.992188 C 62.511719 65.0625 62.847656 64.859375 62.933594 64.53125 C 63.285156 63.238281 63.636719 61.945312 63.984375 60.652344 C 64.613281 58.324219 65.246094 55.996094 65.875 53.667969 C 66.046875 53.023438 66.222656 52.378906 66.398438 51.734375 C 66.464844 51.480469 66.535156 51.226562 66.601562 50.976562 C 66.632812 50.867188 66.660156 50.753906 66.6875 50.644531 C 67.445312 50.496094 68.199219 50.34375 68.957031 50.195312 C 70.695312 50.964844 72.433594 51.742188 74.167969 52.511719 C 75.007812 52.886719 75.847656 53.257812 76.683594 53.632812 C 77.003906 53.773438 77.386719 53.660156 77.546875 53.339844 C 77.695312 53.035156 77.574219 52.625 77.253906 52.480469 C 76.292969 52.050781 75.332031 51.625 74.371094 51.199219 C 73.296875 50.722656 72.222656 50.246094 71.148438 49.765625 C 72.914062 49.417969 74.683594 49.074219 76.449219 48.726562 C 78.207031 49.585938 79.976562 50.433594 81.742188 51.289062 C 82.203125 51.511719 82.660156 51.734375 83.121094 51.957031 C 83.4375 52.109375 83.832031 51.960938 83.976562 51.648438 C 84.128906 51.324219 83.980469 50.949219 83.667969 50.792969 C 82.523438 50.238281 81.378906 49.6875 80.234375 49.132812 C 79.671875 48.859375 79.109375 48.585938 78.546875 48.316406 C 80.070312 48.015625 81.597656 47.714844 83.125 47.417969 C 83.390625 47.550781 83.65625 47.691406 83.921875 47.828125 C 84.441406 48.089844 84.957031 48.355469 85.476562 48.621094 C 86.335938 49.058594 87.199219 49.496094 88.058594 49.9375 C 88.464844 50.144531 88.867188 50.351562 89.273438 50.554688 C 89.585938 50.714844 89.984375 50.5625 90.132812 50.253906 C 90.285156 49.929688 90.136719 49.554688 89.824219 49.398438 C 88.546875 48.75 87.273438 48.09375 86 47.445312 C 85.71875 47.300781 85.4375 47.160156 85.15625 47.015625 C 85.320312 46.984375 85.484375 46.953125 85.644531 46.921875 C 87 46.65625 88.355469 46.386719 89.710938 46.121094 C 89.800781 46.105469 89.890625 46.085938 89.976562 46.070312 C 90.847656 46.617188 91.710938 47.175781 92.574219 47.730469 C 92.664062 47.785156 92.753906 47.84375 92.84375 47.898438 L 93.734375 47.714844 C 93.925781 47.421875 93.839844 47.015625 93.546875 46.828125 C 92.964844 46.453125 92.382812 46.082031 91.800781 45.710938 C 92.210938 45.628906 92.621094 45.546875 93.03125 45.472656 C 93.046875 45.46875 93.058594 45.464844 93.074219 45.460938 C 93.089844 45.460938 93.109375 45.457031 93.125 45.453125 C 93.144531 45.449219 93.164062 45.445312 93.183594 45.441406 C 93.527344 45.375 93.769531 45.050781 93.710938 44.699219 C 93.652344 44.359375 93.316406 44.109375 92.96875 44.175781 C 92.953125 44.179688 92.933594 44.183594 92.914062 44.1875 C 92.65625 44.234375 92.394531 44.289062 92.136719 44.339844 C 91.8125 44.402344 91.488281 44.464844 91.164062 44.53125 C 91.65625 43.820312 92.148438 43.109375 92.636719 42.398438 C 92.832031 42.109375 92.75 41.699219 92.460938 41.507812 C 92.171875 41.308594 91.765625 41.390625 91.570312 41.679688 C 91.507812 41.765625 91.449219 41.855469 91.390625 41.941406 C 90.722656 42.90625 90.066406 43.878906 89.390625 44.835938 Z M 19.054688 62.722656 C 17.300781 62.222656 15.546875 61.726562 13.792969 61.222656 C 13.246094 61.0625 12.691406 60.90625 12.140625 60.75 C 12.132812 60.746094 12.121094 60.742188 12.109375 60.742188 C 12.738281 60.242188 13.363281 59.746094 13.988281 59.25 C 15.191406 58.292969 16.398438 57.335938 17.601562 56.378906 C 18.535156 55.636719 19.472656 54.890625 20.40625 54.148438 C 20.808594 53.832031 21.207031 53.515625 21.605469 53.195312 C 21.785156 54.53125 21.964844 55.863281 22.148438 57.199219 C 22.34375 58.640625 22.539062 60.085938 22.734375 61.527344 C 22.839844 62.304688 22.941406 63.082031 23.046875 63.863281 C 21.714844 63.484375 20.386719 63.101562 19.054688 62.722656 Z M 31.878906 53.324219 C 31.851562 44.703125 38.019531 38.226562 43.207031 31.992188 C 44.925781 29.695312 46.699219 27.082031 47.136719 24.203125 C 47.613281 26.203125 47.128906 28.257812 45.917969 30.65625 C 41.125 39.085938 35.984375 45.574219 36.796875 55.203125 C 35.867188 55.386719 34.9375 55.570312 34.007812 55.75 C 33.371094 55.875 32.730469 56 32.09375 56.128906 C 31.957031 55.242188 31.882812 54.3125 31.878906 53.324219 Z M 37.285156 58.484375 C 38.34375 65.703125 43.78125 71.113281 49.140625 75.613281 C 50.84375 77.03125 52.746094 78.363281 54.136719 80.105469 C 52.933594 78.761719 51.472656 77.582031 50.160156 76.535156 C 47.867188 74.824219 45.46875 73.261719 43.203125 71.519531 C 41.015625 69.8125 38.914062 67.753906 37.046875 65.671875 C 34.625 63.0625 33.058594 60.480469 32.335938 57.386719 C 33.414062 57.175781 34.488281 56.964844 35.566406 56.753906 C 36.023438 56.664062 36.480469 56.574219 36.9375 56.484375 C 37.027344 57.136719 37.140625 57.800781 37.285156 58.484375 Z M 59.089844 50.828125 C 56.320312 51.371094 53.550781 51.914062 50.785156 52.457031 C 47.980469 53.007812 45.179688 53.558594 42.378906 54.109375 C 40.953125 54.386719 39.527344 54.667969 38.101562 54.949219 C 37.925781 52.808594 37.996094 50.621094 38.496094 48.550781 C 39.878906 42.355469 43.726562 37.183594 46.796875 31.746094 C 47.777344 29.890625 48.644531 27.746094 48.632812 25.613281 C 49.628906 27.042969 50.625 28.476562 51.617188 29.910156 C 52.902344 31.757812 54.1875 33.605469 55.472656 35.453125 C 56.738281 37.273438 58.007812 39.09375 59.273438 40.917969 C 60.664062 42.914062 62.054688 44.914062 63.445312 46.914062 C 64.066406 47.8125 64.695312 48.703125 65.316406 49.605469 C 63.242188 50.011719 61.164062 50.417969 59.089844 50.828125 Z M 59.089844 50.828125 " fill-opacity="1" fill-rule="nonzero"/></g><path fill="#a66a2c" d="M 59 61.183594 C 59.09375 60.855469 59.210938 60.535156 59.347656 60.222656 C 59.503906 59.867188 59.683594 59.523438 59.886719 59.191406 C 60.050781 58.921875 60.28125 58.59375 60.53125 58.28125 C 60.78125 57.972656 61.050781 57.683594 61.339844 57.40625 C 61.34375 57.402344 61.347656 57.398438 61.351562 57.394531 C 61.566406 57.195312 61.789062 57.007812 62.023438 56.828125 C 62.023438 56.824219 62.023438 56.824219 62.023438 56.824219 C 62.167969 56.738281 62.332031 56.550781 62.363281 56.492188 C 62.414062 56.410156 62.429688 56.308594 62.421875 56.207031 C 62.421875 56.191406 62.421875 56.175781 62.421875 56.160156 C 62.421875 56.15625 62.421875 56.152344 62.417969 56.148438 C 62.398438 55.945312 62.28125 55.738281 62.167969 55.582031 C 61.996094 55.386719 61.738281 55.355469 61.488281 55.386719 C 61.410156 55.390625 61.332031 55.398438 61.257812 55.417969 C 60.332031 55.546875 59.417969 55.816406 58.574219 56.222656 C 56.390625 57.277344 54.675781 59.1875 53.886719 61.484375 C 53.070312 63.871094 53.285156 66.535156 54.484375 68.757812 C 55.113281 69.921875 55.992188 70.9375 57.050781 71.734375 C 58.035156 72.472656 59.167969 72.996094 60.363281 73.292969 C 60.519531 73.332031 60.675781 73.367188 60.832031 73.394531 C 61.761719 73.574219 62.722656 73.601562 63.65625 73.480469 C 64.800781 73.335938 65.894531 72.976562 66.910156 72.433594 C 68.378906 71.628906 69.621094 70.421875 70.449219 68.964844 C 71.035156 67.941406 71.417969 66.816406 71.574219 65.648438 C 71.65625 65.054688 71.675781 64.449219 71.636719 63.851562 C 71.621094 63.597656 71.589844 63.347656 71.558594 63.101562 C 71.515625 62.796875 71.246094 62.527344 70.890625 62.546875 C 70.789062 62.550781 70.691406 62.585938 70.605469 62.636719 C 70.449219 62.6875 70.3125 62.792969 70.238281 62.945312 C 70.207031 63.011719 70.175781 63.074219 70.144531 63.136719 C 70.140625 63.140625 70.136719 63.148438 70.136719 63.152344 C 70.039062 63.320312 69.953125 63.492188 69.851562 63.660156 C 69.640625 64.007812 69.40625 64.34375 69.152344 64.664062 L 69.148438 64.664062 C 69.144531 64.675781 69.136719 64.683594 69.128906 64.691406 C 68.894531 64.976562 68.628906 65.257812 68.347656 65.527344 C 68.074219 65.785156 67.785156 66.027344 67.484375 66.25 C 67.1875 66.460938 66.882812 66.652344 66.566406 66.832031 C 66.5625 66.832031 66.550781 66.839844 66.539062 66.84375 C 66.539062 66.84375 66.539062 66.84375 66.542969 66.84375 C 66.539062 66.84375 66.539062 66.84375 66.535156 66.847656 C 66.253906 66.996094 65.96875 67.128906 65.675781 67.246094 L 65.671875 67.246094 C 65.652344 67.253906 65.636719 67.261719 65.621094 67.265625 C 65.390625 67.351562 65.117188 67.441406 64.839844 67.515625 C 64.554688 67.585938 64.269531 67.640625 63.980469 67.675781 C 63.730469 67.703125 63.480469 67.714844 63.230469 67.714844 L 63.214844 67.714844 C 63.203125 67.714844 63.191406 67.714844 63.179688 67.714844 C 62.988281 67.710938 62.765625 67.691406 62.542969 67.664062 C 62.324219 67.628906 62.105469 67.582031 61.886719 67.523438 C 61.691406 67.464844 61.5 67.398438 61.316406 67.320312 C 61.132812 67.238281 60.957031 67.144531 60.785156 67.042969 C 60.636719 66.949219 60.496094 66.847656 60.355469 66.738281 C 60.210938 66.617188 60.074219 66.492188 59.945312 66.355469 C 59.828125 66.230469 59.71875 66.097656 59.617188 65.964844 C 59.515625 65.816406 59.417969 65.667969 59.328125 65.511719 C 59.234375 65.335938 59.148438 65.148438 59.070312 64.960938 C 59 64.773438 58.9375 64.578125 58.886719 64.378906 C 58.882812 64.359375 58.878906 64.34375 58.871094 64.324219 C 58.828125 64.125 58.792969 63.921875 58.765625 63.714844 C 58.738281 63.460938 58.722656 63.203125 58.726562 62.945312 C 58.734375 62.675781 58.753906 62.40625 58.792969 62.136719 C 58.839844 61.816406 58.910156 61.496094 59 61.183594 Z M 57.640625 64.695312 C 57.777344 65.246094 58.011719 65.832031 58.34375 66.367188 C 58.667969 66.890625 59.078125 67.347656 59.550781 67.734375 C 60.292969 68.324219 61.164062 68.710938 62.085938 68.886719 C 62.3125 68.929688 62.539062 68.960938 62.765625 68.976562 C 64.316406 69.09375 65.851562 68.675781 67.203125 67.941406 C 68.027344 67.496094 68.839844 66.875 69.550781 66.144531 C 69.828125 65.859375 70.085938 65.550781 70.324219 65.234375 C 70.3125 65.371094 70.296875 65.507812 70.277344 65.644531 C 70.226562 65.964844 70.15625 66.28125 70.070312 66.59375 C 69.964844 66.9375 69.84375 67.277344 69.703125 67.605469 C 69.5625 67.917969 69.402344 68.21875 69.226562 68.515625 C 69.039062 68.8125 68.839844 69.097656 68.621094 69.371094 C 68.402344 69.636719 68.167969 69.886719 67.925781 70.121094 C 67.667969 70.359375 67.402344 70.582031 67.121094 70.789062 C 66.851562 70.976562 66.570312 71.152344 66.285156 71.3125 L 66.261719 71.324219 C 65.976562 71.476562 65.683594 71.613281 65.382812 71.734375 C 65.054688 71.859375 64.71875 71.960938 64.378906 72.046875 C 64.054688 72.125 63.726562 72.183594 63.394531 72.222656 C 63.074219 72.253906 62.75 72.269531 62.425781 72.269531 C 62.074219 72.261719 61.726562 72.234375 61.378906 72.1875 C 61.027344 72.132812 60.683594 72.058594 60.339844 71.960938 C 60.007812 71.863281 59.683594 71.746094 59.367188 71.609375 C 59.042969 71.464844 58.726562 71.300781 58.421875 71.117188 C 58.140625 70.9375 57.867188 70.746094 57.605469 70.539062 L 57.59375 70.535156 C 57.585938 70.523438 57.574219 70.515625 57.5625 70.507812 C 57.3125 70.300781 57.054688 70.058594 56.808594 69.804688 C 56.574219 69.550781 56.355469 69.289062 56.15625 69.011719 C 55.976562 68.757812 55.804688 68.488281 55.648438 68.210938 C 55.484375 67.910156 55.339844 67.59375 55.207031 67.269531 C 55.085938 66.949219 54.984375 66.621094 54.898438 66.289062 C 54.828125 65.976562 54.773438 65.667969 54.730469 65.351562 C 54.695312 65.011719 54.679688 64.675781 54.679688 64.335938 C 54.6875 63.988281 54.714844 63.644531 54.761719 63.300781 C 54.816406 62.957031 54.890625 62.617188 54.980469 62.28125 C 55.082031 61.945312 55.203125 61.617188 55.339844 61.292969 C 55.480469 60.976562 55.640625 60.671875 55.820312 60.375 C 56.003906 60.078125 56.207031 59.789062 56.429688 59.507812 C 56.441406 59.492188 56.453125 59.480469 56.464844 59.464844 C 56.648438 59.246094 56.878906 58.996094 57.125 58.757812 C 57.371094 58.527344 57.628906 58.316406 57.898438 58.117188 C 58.183594 57.914062 58.476562 57.726562 58.78125 57.558594 C 59.0625 57.410156 59.351562 57.277344 59.644531 57.15625 C 59.71875 57.128906 59.796875 57.105469 59.871094 57.078125 C 59.789062 57.171875 59.707031 57.265625 59.625 57.363281 C 58.75 58.421875 58.082031 59.648438 57.722656 60.976562 C 57.394531 62.1875 57.339844 63.472656 57.640625 64.695312 Z M 57.640625 64.695312 " fill-opacity="1" fill-rule="nonzero"/><path fill="#c98a3a" d="M 78.21875 16.359375 C 71.957031 10.820312 64.3125 7.117188 56.117188 5.640625 C 55.753906 5.574219 55.40625 5.816406 55.34375 6.175781 C 55.277344 6.539062 55.519531 6.882812 55.878906 6.949219 C 72.09375 9.867188 85.25 21.433594 90.21875 37.132812 C 90.308594 37.417969 90.570312 37.601562 90.851562 37.601562 C 90.917969 37.601562 90.988281 37.589844 91.054688 37.570312 C 91.40625 37.457031 91.597656 37.085938 91.488281 36.734375 C 89.007812 28.890625 84.417969 21.84375 78.21875 16.359375 Z M 78.21875 16.359375 " fill-opacity="1" fill-rule="nonzero"/><g clip-path="url(#768458d3c2)"><path fill="#c98a3a" d="M 16.980469 83.871094 C 17.105469 83.988281 17.269531 84.046875 17.429688 84.046875 C 17.609375 84.046875 17.789062 83.976562 17.917969 83.835938 C 18.167969 83.566406 18.152344 83.144531 17.882812 82.894531 C 8.644531 74.359375 3.46875 62.261719 3.679688 49.707031 C 4.027344 28.925781 18.488281 11.441406 38.839844 7.183594 C 39.199219 7.109375 39.429688 6.757812 39.355469 6.398438 C 39.28125 6.039062 38.925781 5.804688 38.566406 5.882812 C 28.609375 7.964844 19.511719 13.425781 12.949219 21.257812 C 6.285156 29.207031 2.519531 39.300781 2.347656 49.683594 C 2.128906 62.617188 7.460938 75.078125 16.980469 83.871094 Z M 16.980469 83.871094 " fill-opacity="1" fill-rule="nonzero"/></g><g clip-path="url(#f31f9a702b)"><path fill="#c98a3a" d="M 25.542969 89.355469 C 25.363281 89.675781 25.480469 90.078125 25.800781 90.257812 C 32.304688 93.875 39.707031 95.851562 47.199219 95.976562 C 47.460938 95.980469 47.71875 95.984375 47.976562 95.984375 C 72.78125 95.984375 93.171875 76.058594 93.589844 51.214844 C 93.59375 50.847656 93.300781 50.542969 92.933594 50.539062 L 92.921875 50.539062 C 92.558594 50.539062 92.261719 50.828125 92.257812 51.191406 C 91.847656 75.5625 71.636719 95.0625 47.222656 94.648438 C 39.949219 94.527344 32.761719 92.605469 26.449219 89.097656 C 26.128906 88.917969 25.722656 89.035156 25.542969 89.355469 Z M 25.542969 89.355469 " fill-opacity="1" fill-rule="nonzero"/></g><path fill="#a66a2c" d="M 21.375 80.304688 C 21.007812 80.304688 20.707031 80.601562 20.707031 80.96875 L 20.707031 81.484375 C 20.707031 83.820312 18.800781 85.722656 16.457031 85.722656 L 15.945312 85.722656 C 15.578125 85.722656 15.277344 86.019531 15.277344 86.386719 C 15.277344 86.753906 15.578125 87.054688 15.945312 87.054688 L 16.457031 87.054688 C 18.800781 87.054688 20.707031 88.957031 20.707031 91.292969 L 20.707031 91.808594 C 20.707031 92.175781 21.007812 92.472656 21.375 92.472656 C 21.742188 92.472656 22.039062 92.175781 22.039062 91.808594 L 22.039062 91.292969 C 22.039062 88.957031 23.945312 87.054688 26.289062 87.054688 L 26.804688 87.054688 C 27.171875 87.054688 27.472656 86.753906 27.472656 86.386719 C 27.472656 86.019531 27.171875 85.722656 26.804688 85.722656 L 26.289062 85.722656 C 23.945312 85.722656 22.039062 83.820312 22.039062 81.484375 L 22.039062 80.96875 C 22.039062 80.601562 21.742188 80.304688 21.375 80.304688 Z M 23.648438 86.386719 C 22.6875 86.90625 21.894531 87.699219 21.375 88.660156 C 20.855469 87.699219 20.0625 86.90625 19.097656 86.386719 C 20.0625 85.871094 20.855469 85.078125 21.375 84.117188 C 21.894531 85.078125 22.6875 85.871094 23.648438 86.386719 Z M 23.648438 86.386719 " fill-opacity="1" fill-rule="nonzero"/><path fill="#c98a3a" d="M 74.203125 29.710938 C 73.835938 29.710938 73.535156 30.011719 73.535156 30.378906 L 73.535156 31.066406 C 73.535156 31.96875 72.800781 32.703125 71.898438 32.703125 L 71.203125 32.703125 C 70.835938 32.703125 70.539062 33 70.539062 33.367188 C 70.539062 33.734375 70.835938 34.035156 71.203125 34.035156 L 71.898438 34.035156 C 72.800781 34.035156 73.535156 34.765625 73.535156 35.667969 L 73.535156 36.359375 C 73.535156 36.726562 73.835938 37.023438 74.203125 37.023438 C 74.570312 37.023438 74.867188 36.726562 74.867188 36.359375 L 74.867188 35.667969 C 74.867188 34.765625 75.605469 34.035156 76.507812 34.035156 L 77.199219 34.035156 C 77.566406 34.035156 77.867188 33.734375 77.867188 33.367188 C 77.867188 33 77.566406 32.703125 77.199219 32.703125 L 76.507812 32.703125 C 75.605469 32.703125 74.867188 31.96875 74.867188 31.066406 L 74.867188 30.378906 C 74.867188 30.011719 74.570312 29.710938 74.203125 29.710938 Z M 74.636719 33.367188 C 74.476562 33.496094 74.332031 33.644531 74.203125 33.800781 C 74.074219 33.644531 73.925781 33.496094 73.769531 33.367188 C 73.925781 33.238281 74.074219 33.09375 74.203125 32.933594 C 74.332031 33.09375 74.476562 33.238281 74.636719 33.367188 Z M 74.636719 33.367188 " fill-opacity="1" fill-rule="nonzero"/><path fill="#c98a3a" d="M 19.90625 29.710938 C 19.535156 29.710938 19.238281 30.011719 19.238281 30.378906 L 19.238281 31.066406 C 19.238281 31.96875 18.503906 32.703125 17.597656 32.703125 L 16.90625 32.703125 C 16.539062 32.703125 16.242188 33 16.242188 33.367188 C 16.242188 33.734375 16.539062 34.035156 16.90625 34.035156 L 17.597656 34.035156 C 18.503906 34.035156 19.238281 34.765625 19.238281 35.667969 L 19.238281 36.359375 C 19.238281 36.726562 19.535156 37.023438 19.90625 37.023438 C 20.273438 37.023438 20.570312 36.726562 20.570312 36.359375 L 20.570312 35.667969 C 20.570312 34.765625 21.304688 34.035156 22.210938 34.035156 L 22.902344 34.035156 C 23.269531 34.035156 23.566406 33.734375 23.566406 33.367188 C 23.566406 33 23.269531 32.703125 22.902344 32.703125 L 22.210938 32.703125 C 21.304688 32.703125 20.570312 31.96875 20.570312 31.066406 L 20.570312 30.378906 C 20.570312 30.011719 20.273438 29.710938 19.90625 29.710938 Z M 20.339844 33.367188 C 20.179688 33.496094 20.035156 33.644531 19.90625 33.800781 C 19.773438 33.644531 19.628906 33.496094 19.46875 33.367188 C 19.628906 33.238281 19.773438 33.09375 19.90625 32.933594 C 20.035156 33.09375 20.179688 33.238281 20.339844 33.367188 Z M 20.339844 33.367188 " fill-opacity="1" fill-rule="nonzero"/><path fill="#5a3a1a" d="M 59.738281 19.9375 C 59.367188 19.9375 59.070312 20.234375 59.070312 20.601562 L 59.070312 21.292969 C 59.070312 22.195312 58.335938 22.929688 57.429688 22.929688 L 56.738281 22.929688 C 56.371094 22.929688 56.074219 23.226562 56.074219 23.59375 C 56.074219 23.960938 56.371094 24.257812 56.738281 24.257812 L 57.429688 24.257812 C 58.335938 24.257812 59.070312 24.992188 59.070312 25.894531 L 59.070312 26.585938 C 59.070312 26.949219 59.367188 27.25 59.738281 27.25 C 60.105469 27.25 60.402344 26.953125 60.402344 26.585938 L 60.402344 25.894531 C 60.402344 24.992188 61.136719 24.257812 62.042969 24.257812 L 62.734375 24.257812 C 63.101562 24.257812 63.398438 23.960938 63.398438 23.59375 C 63.398438 23.226562 63.101562 22.929688 62.734375 22.929688 L 62.042969 22.929688 C 61.136719 22.929688 60.402344 22.195312 60.402344 21.292969 L 60.402344 20.601562 C 60.402344 20.234375 60.105469 19.9375 59.738281 19.9375 Z M 60.171875 23.59375 C 60.011719 23.722656 59.867188 23.867188 59.738281 24.027344 C 59.605469 23.867188 59.460938 23.722656 59.300781 23.59375 C 59.460938 23.464844 59.605469 23.320312 59.738281 23.160156 C 59.867188 23.320312 60.011719 23.464844 60.171875 23.59375 Z M 60.171875 23.59375 " fill-opacity="1" fill-rule="nonzero"/><path fill="#5a3a1a" d="M 35.886719 19.9375 C 35.519531 19.9375 35.222656 20.234375 35.222656 20.601562 L 35.222656 21.292969 C 35.222656 22.195312 34.484375 22.929688 33.582031 22.929688 L 32.890625 22.929688 C 32.523438 22.929688 32.222656 23.226562 32.222656 23.59375 C 32.222656 23.960938 32.523438 24.257812 32.890625 24.257812 L 33.582031 24.257812 C 34.484375 24.257812 35.222656 24.992188 35.222656 25.894531 L 35.222656 26.585938 C 35.222656 26.949219 35.519531 27.25 35.886719 27.25 C 36.253906 27.25 36.554688 26.953125 36.554688 26.585938 L 36.554688 25.894531 C 36.554688 24.992188 37.289062 24.257812 38.191406 24.257812 L 38.886719 24.257812 C 39.253906 24.257812 39.550781 23.960938 39.550781 23.59375 C 39.550781 23.226562 39.253906 22.929688 38.886719 22.929688 L 38.191406 22.929688 C 37.289062 22.929688 36.554688 22.195312 36.554688 21.292969 L 36.554688 20.601562 C 36.554688 20.234375 36.253906 19.9375 35.886719 19.9375 Z M 36.320312 23.59375 C 36.164062 23.722656 36.015625 23.867188 35.886719 24.027344 C 35.757812 23.867188 35.613281 23.722656 35.453125 23.59375 C 35.613281 23.464844 35.757812 23.320312 35.886719 23.160156 C 36.015625 23.320312 36.164062 23.464844 36.320312 23.59375 Z M 36.320312 23.59375 " fill-opacity="1" fill-rule="nonzero"/><path fill="#c98a3a" d="M 47.484375 12.183594 C 47.851562 12.183594 48.148438 11.886719 48.148438 11.519531 L 48.148438 11.007812 C 48.148438 8.667969 50.054688 6.765625 52.398438 6.765625 L 52.914062 6.765625 C 53.28125 6.765625 53.578125 6.46875 53.578125 6.101562 C 53.578125 5.734375 53.28125 5.433594 52.914062 5.433594 L 52.398438 5.433594 C 50.054688 5.433594 48.148438 3.53125 48.148438 1.195312 L 48.148438 0.679688 C 48.148438 0.3125 47.851562 0.015625 47.484375 0.015625 C 47.113281 0.015625 46.816406 0.3125 46.816406 0.679688 L 46.816406 1.195312 C 46.816406 3.53125 44.910156 5.433594 42.566406 5.433594 L 42.050781 5.433594 C 41.683594 5.433594 41.386719 5.734375 41.386719 6.101562 C 41.386719 6.46875 41.683594 6.765625 42.050781 6.765625 L 42.566406 6.765625 C 44.910156 6.765625 46.816406 8.667969 46.816406 11.007812 L 46.816406 11.519531 C 46.816406 11.886719 47.113281 12.183594 47.484375 12.183594 Z M 45.207031 6.101562 C 46.171875 5.582031 46.964844 4.789062 47.484375 3.828125 C 48 4.789062 48.796875 5.582031 49.757812 6.101562 C 48.796875 6.617188 48 7.410156 47.484375 8.371094 C 46.964844 7.410156 46.171875 6.617188 45.207031 6.101562 Z M 45.207031 6.101562 " fill-opacity="1" fill-rule="nonzero"/></svg>