<svg xmlns="http://www.w3.org/2000/svg" xmlns:xlink="http://www.w3.org/1999/xlink" width="128" zoomAndPan="magnify" viewBox="0 0 96 95.999999" height="128" preserveAspectRatio="xMidYMid meet" version="1.0"><defs><clipPath id="d9dc013550"><path d="M 4.070312 76 L 9 76 L 9 82 L 4.070312 82 Z M 4.070312 76 " clip-rule="nonzero"/></clipPath><clipPath id="feb39a1c82"><path d="M 87 11 L 91.820312 11 L 91.820312 17 L 87 17 Z M 87 11 " clip-rule="nonzero"/></clipPath><clipPath id="6247828799"><path d="M 78 2.0625 L 84 2.0625 L 84 7 L 78 7 Z M 78 2.0625 " clip-rule="nonzero"/></clipPath><clipPath id="12647d4cd2"><path d="M 87 26 L 91.820312 26 L 91.820312 31 L 87 31 Z M 87 26 " clip-rule="nonzero"/></clipPath></defs><path fill="#000000" d="M 17.128906 66.203125 C 18.144531 66.234375 19.160156 66.195312 20.164062 66.09375 C 19.191406 65.96875 18.226562 65.761719 17.246094 65.683594 C 17.753906 65.203125 18.191406 64.742188 18.390625 64.40625 C 17.929688 64.71875 17.484375 65.050781 17.066406 65.414062 C 17.074219 64.347656 16.976562 63.285156 16.71875 62.234375 C 16.640625 63.320312 16.5625 64.410156 16.519531 65.496094 C 16.167969 65.128906 15.789062 64.785156 15.378906 64.480469 C 15.675781 64.894531 15.957031 65.289062 16.25 65.664062 C 15.355469 65.679688 14.464844 65.757812 13.570312 65.804688 C 14.464844 65.988281 15.375 66.101562 16.289062 66.160156 C 15.941406 66.535156 15.621094 66.933594 15.34375 67.359375 C 15.675781 67.078125 16.085938 66.726562 16.496094 66.363281 C 16.484375 67.410156 16.519531 68.453125 16.660156 69.496094 C 16.820312 68.53125 16.953125 67.550781 17.019531 66.570312 C 17.292969 66.863281 17.582031 67.148438 17.917969 67.4375 C 18.054688 67.542969 18.160156 67.671875 17.984375 67.421875 C 17.71875 67 17.4375 66.59375 17.128906 66.203125 Z M 17.128906 66.203125 " fill-opacity="1" fill-rule="nonzero"/><path fill="#000000" d="M 8.972656 70.910156 C 9.453125 70.746094 9.925781 70.546875 10.378906 70.316406 C 9.890625 70.394531 9.414062 70.503906 8.941406 70.628906 C 9.117188 70.304688 9.273438 69.972656 9.394531 69.617188 C 9.1875 69.898438 8.980469 70.207031 8.789062 70.523438 C 8.652344 69.925781 8.464844 69.339844 8.207031 68.78125 C 8.277344 69.296875 8.367188 69.960938 8.480469 70.621094 C 8.160156 70.441406 7.828125 70.277344 7.5 70.117188 C 7.773438 70.367188 8.085938 70.582031 8.40625 70.78125 C 7.839844 70.949219 7.277344 71.140625 6.722656 71.34375 C 7.320312 71.328125 7.910156 71.226562 8.484375 71.066406 C 8.363281 71.3125 8.253906 71.554688 8.175781 71.789062 C 8.320312 71.605469 8.460938 71.414062 8.589844 71.222656 C 8.738281 71.964844 8.917969 72.640625 9.140625 73.03125 C 9.09375 72.375 9.023438 71.71875 8.90625 71.074219 C 9.179688 71.222656 9.453125 71.367188 9.722656 71.5 C 9.488281 71.269531 9.238281 71.078125 8.972656 70.910156 Z M 8.972656 70.910156 " fill-opacity="1" fill-rule="nonzero"/><g clip-path="url(#d9dc013550)"><path fill="#000000" d="M 8.871094 79.070312 C 8.839844 79.066406 8.808594 79.0625 8.777344 79.058594 C 8.054688 79.046875 7.324219 79.035156 6.601562 79.082031 C 6.882812 78.75 7.121094 78.4375 7.230469 78.207031 C 6.949219 78.457031 6.675781 78.714844 6.414062 78.992188 C 6.382812 78.226562 6.316406 77.460938 6.207031 76.707031 C 6.078125 77.417969 6.035156 78.140625 6.058594 78.859375 C 5.859375 78.671875 5.648438 78.496094 5.433594 78.335938 C 5.59375 78.582031 5.796875 78.859375 6.015625 79.132812 C 5.363281 79.203125 4.71875 79.335938 4.097656 79.578125 C 4.726562 79.511719 5.363281 79.503906 5.996094 79.476562 C 5.765625 79.769531 5.558594 80.074219 5.386719 80.410156 C 5.59375 80.179688 5.851562 79.910156 6.113281 79.625 C 6.171875 80.195312 6.273438 80.765625 6.414062 81.320312 C 6.4375 80.753906 6.441406 80.1875 6.433594 79.625 C 6.757812 79.988281 7.082031 80.316406 7.324219 80.519531 C 7.136719 80.125 6.894531 79.769531 6.613281 79.441406 C 7 79.414062 7.382812 79.378906 7.765625 79.304688 C 8.128906 79.234375 8.53125 79.136719 8.871094 79.070312 Z M 8.871094 79.070312 " fill-opacity="1" fill-rule="nonzero"/></g><path fill="#000000" d="M 19.5 88.003906 C 18.046875 87.964844 16.601562 87.796875 15.152344 87.742188 C 15.652344 87.171875 16.105469 86.558594 16.476562 85.886719 C 15.875 86.496094 15.234375 87.066406 14.613281 87.65625 C 14.613281 87.546875 14.613281 87.433594 14.613281 87.324219 C 14.636719 85.742188 14.417969 84.175781 14.355469 82.601562 C 14.042969 84.222656 13.875 85.875 13.804688 87.527344 C 13.332031 86.941406 12.832031 86.375 12.339844 85.851562 C 12.664062 86.5 13.023438 87.136719 13.417969 87.75 C 11.960938 87.8125 10.503906 87.992188 9.089844 88.183594 C 10.558594 88.371094 12.136719 88.511719 13.707031 88.550781 C 13.472656 88.800781 13.238281 89.050781 13.019531 89.3125 C 12.65625 89.738281 12.273438 90.207031 11.960938 90.644531 C 11.996094 90.617188 12.03125 90.585938 12.066406 90.558594 C 12.644531 90.097656 13.21875 89.625 13.769531 89.125 C 13.765625 90.734375 13.84375 92.339844 13.980469 93.929688 C 14.269531 92.410156 14.457031 90.871094 14.546875 89.324219 C 15.027344 89.914062 15.542969 90.46875 16.109375 90.972656 C 15.734375 90.21875 15.203125 89.386719 14.597656 88.554688 C 16.324219 88.546875 18.011719 88.390625 19.5 88.003906 Z M 19.5 88.003906 " fill-opacity="1" fill-rule="nonzero"/><path fill="#000000" d="M 30.8125 88.757812 C 31.609375 88.8125 32.410156 88.804688 33.199219 88.648438 C 32.457031 88.59375 31.878906 88.496094 31.273438 88.417969 C 31.222656 88.40625 31.167969 88.402344 31.113281 88.394531 C 31.382812 88.117188 31.644531 87.828125 31.882812 87.523438 C 31.523438 87.78125 31.1875 88.0625 30.863281 88.359375 C 30.847656 88.359375 30.839844 88.355469 30.824219 88.355469 C 30.851562 87.628906 30.839844 86.902344 30.777344 86.179688 C 30.636719 86.859375 30.539062 87.546875 30.480469 88.234375 C 30.273438 87.925781 30.050781 87.625 29.828125 87.328125 C 29.949219 87.667969 30.105469 88.003906 30.277344 88.324219 C 29.519531 88.300781 28.699219 88.347656 27.96875 88.238281 C 28.589844 88.546875 29.300781 88.601562 29.980469 88.6875 C 30.132812 88.703125 30.285156 88.71875 30.4375 88.734375 C 30.4375 88.746094 30.4375 88.757812 30.4375 88.773438 C 30.175781 89.035156 29.925781 89.308594 29.691406 89.597656 C 29.949219 89.421875 30.191406 89.234375 30.425781 89.035156 C 30.394531 89.726562 30.40625 90.421875 30.457031 91.117188 C 30.605469 90.460938 30.707031 89.800781 30.765625 89.132812 C 30.972656 89.441406 31.199219 89.742188 31.429688 90.03125 C 31.269531 89.582031 31.054688 89.164062 30.8125 88.757812 Z M 30.8125 88.757812 " fill-opacity="1" fill-rule="nonzero"/><path fill="#000000" d="M 42.5625 80.941406 C 42.5625 80.921875 42.5625 80.898438 42.5625 80.882812 C 43.429688 80.832031 44.296875 80.675781 45.125 80.476562 C 44.363281 80.472656 43.601562 80.425781 42.835938 80.410156 C 43.097656 80.15625 43.347656 79.878906 43.570312 79.585938 C 43.222656 79.832031 42.890625 80.074219 42.566406 80.324219 C 42.5625 79.570312 42.507812 78.8125 42.386719 78.058594 C 42.234375 78.785156 42.152344 79.527344 42.132812 80.269531 C 41.917969 79.957031 41.6875 79.652344 41.429688 79.367188 C 41.566406 79.730469 41.734375 80.078125 41.925781 80.410156 C 41.910156 80.410156 41.894531 80.410156 41.878906 80.410156 C 41.089844 80.433594 40.300781 80.554688 39.511719 80.503906 C 40.273438 80.777344 41.074219 80.890625 41.878906 80.898438 C 41.558594 81.1875 41.25 81.492188 40.945312 81.839844 C 41.359375 81.59375 41.761719 81.324219 42.136719 81.027344 C 42.15625 81.757812 42.230469 82.484375 42.367188 83.203125 C 42.453125 82.589844 42.515625 81.972656 42.542969 81.359375 C 42.730469 81.609375 42.921875 81.847656 43.128906 82.078125 C 42.964844 81.683594 42.773438 81.308594 42.5625 80.941406 Z M 42.5625 80.941406 " fill-opacity="1" fill-rule="nonzero"/><path fill="#000000" d="M 47.484375 69.574219 C 47.0625 69.449219 46.644531 69.355469 46.230469 69.277344 C 46.371094 69.164062 46.503906 69.050781 46.632812 68.925781 C 46.445312 69.019531 46.253906 69.128906 46.058594 69.242188 C 46.042969 69.238281 46.03125 69.238281 46.019531 69.234375 C 46.121094 68.539062 46.164062 67.832031 46.144531 67.125 C 45.964844 67.734375 45.820312 68.351562 45.699219 68.976562 C 45.601562 68.828125 45.492188 68.683594 45.378906 68.542969 C 45.457031 68.75 45.542969 68.964844 45.644531 69.179688 C 45.085938 69.105469 44.515625 69.089844 43.914062 69.140625 C 44.480469 69.230469 45.035156 69.40625 45.601562 69.496094 C 45.601562 69.515625 45.597656 69.53125 45.59375 69.550781 C 45.355469 69.726562 45.140625 69.910156 44.980469 70.09375 C 45.179688 69.980469 45.378906 69.863281 45.566406 69.738281 C 45.472656 70.371094 45.402344 71.003906 45.375 71.640625 C 45.621094 71.019531 45.800781 70.378906 45.929688 69.726562 C 46.085938 70 46.25 70.253906 46.417969 70.460938 C 46.316406 70.144531 46.183594 69.835938 46.03125 69.539062 C 46.578125 69.589844 47.316406 69.625 47.484375 69.574219 Z M 47.484375 69.574219 " fill-opacity="1" fill-rule="nonzero"/><path fill="#000000" d="M 46.914062 55.914062 C 46.90625 55.832031 46.902344 55.75 46.898438 55.671875 C 47.765625 55.515625 48.875 55.265625 49.710938 55.074219 C 48.835938 55.042969 47.953125 55.054688 47.085938 55.152344 C 47.335938 54.761719 47.5625 54.355469 47.773438 53.941406 C 47.417969 54.289062 47.109375 54.667969 46.820312 55.066406 C 46.796875 54.902344 46.773438 54.738281 46.742188 54.578125 C 46.65625 53.824219 46.320312 53.078125 46.332031 52.324219 C 46.164062 52.695312 46.242188 53.15625 46.222656 53.558594 C 46.230469 54.125 46.269531 54.6875 46.34375 55.253906 C 46.300781 55.257812 46.265625 55.265625 46.222656 55.273438 C 45.929688 55.007812 45.632812 54.738281 45.34375 54.464844 C 45.503906 54.78125 45.707031 55.066406 45.933594 55.332031 C 45.125 55.511719 44.335938 55.789062 43.515625 55.90625 C 44.394531 56.03125 45.285156 55.894531 46.15625 55.785156 C 46.210938 55.777344 46.273438 55.769531 46.335938 55.757812 C 46.339844 55.761719 46.34375 55.761719 46.34375 55.765625 C 46.15625 56.058594 45.976562 56.351562 45.796875 56.648438 C 46.035156 56.449219 46.253906 56.226562 46.453125 55.996094 C 46.582031 56.75 46.75 57.496094 46.945312 58.234375 C 46.972656 57.578125 46.976562 56.914062 46.941406 56.253906 C 47.214844 56.453125 47.5 56.632812 47.796875 56.792969 C 47.515625 56.488281 47.21875 56.199219 46.914062 55.914062 Z M 46.914062 55.914062 " fill-opacity="1" fill-rule="nonzero"/><path fill="#000000" d="M 58.070312 33.128906 C 57.566406 33.117188 57.105469 33.144531 56.664062 33.183594 C 56.949219 32.910156 57.230469 32.628906 57.519531 32.355469 C 57.113281 32.550781 56.753906 32.820312 56.425781 33.121094 C 56.421875 32.476562 56.371094 31.824219 56.261719 31.183594 C 56.167969 31.792969 56.109375 32.40625 56.089844 33.019531 C 55.941406 32.863281 55.78125 32.707031 55.613281 32.5625 C 55.746094 32.800781 55.898438 33.027344 56.0625 33.246094 C 55.433594 33.316406 54.816406 33.394531 54.113281 33.414062 C 54.71875 33.609375 55.332031 33.648438 55.953125 33.597656 C 55.78125 33.777344 55.617188 33.964844 55.453125 34.144531 C 55.675781 34.011719 55.886719 33.863281 56.085938 33.699219 C 56.09375 34.285156 56.136719 34.863281 56.222656 35.441406 C 56.328125 34.855469 56.386719 34.261719 56.410156 33.671875 C 56.605469 33.890625 56.816406 34.097656 57.046875 34.285156 C 56.890625 34.019531 56.710938 33.765625 56.515625 33.519531 C 57.046875 33.425781 57.570312 33.289062 58.070312 33.128906 Z M 58.070312 33.128906 " fill-opacity="1" fill-rule="nonzero"/><path fill="#000000" d="M 67.832031 26.722656 C 68.394531 26.675781 67.28125 26.613281 67.179688 26.578125 C 66.117188 26.414062 65.050781 26.226562 63.980469 26.117188 C 64.429688 25.675781 64.859375 25.210938 65.273438 24.734375 C 64.726562 25.085938 64.207031 25.46875 63.710938 25.878906 C 63.753906 24.15625 63.671875 22.425781 63.441406 20.710938 C 63.152344 22.382812 62.96875 24.066406 62.898438 25.757812 C 62.824219 25.652344 62.742188 25.550781 62.660156 25.449219 C 62.402344 25.109375 62.191406 24.855469 61.941406 24.453125 C 62.109375 25.003906 62.335938 25.527344 62.605469 26.027344 C 61.710938 25.996094 60.816406 26.050781 59.921875 26.109375 C 59.472656 26.117188 59.003906 26.214844 58.566406 26.082031 C 59.554688 26.582031 60.746094 26.539062 61.828125 26.695312 C 62.117188 26.726562 62.410156 26.75 62.699219 26.769531 C 62.195312 27.242188 61.714844 27.734375 61.246094 28.238281 C 61.820312 27.914062 62.359375 27.535156 62.871094 27.121094 C 62.867188 28.585938 62.9375 30.046875 63.121094 31.503906 C 63.359375 30.207031 63.523438 28.902344 63.621094 27.589844 C 64.015625 28.101562 64.449219 28.589844 64.902344 29.042969 C 64.523438 28.296875 64.121094 27.566406 63.667969 26.863281 C 63.667969 26.855469 63.667969 26.847656 63.671875 26.835938 C 65.058594 26.910156 66.453125 26.894531 67.832031 26.722656 Z M 67.832031 26.722656 " fill-opacity="1" fill-rule="nonzero"/><path fill="#000000" d="M 73.273438 21.183594 C 73.792969 21.160156 74.316406 21.097656 74.824219 21.003906 C 74.335938 20.933594 73.839844 20.90625 73.347656 20.898438 C 73.570312 20.625 73.769531 20.332031 73.9375 20.019531 C 73.691406 20.246094 73.46875 20.476562 73.257812 20.710938 C 73.226562 20.023438 73.144531 19.335938 72.996094 18.65625 C 72.902344 19.398438 72.859375 20.148438 72.878906 20.898438 C 72.863281 20.898438 72.84375 20.898438 72.828125 20.898438 C 72.640625 20.707031 72.441406 20.527344 72.230469 20.359375 C 72.351562 20.550781 72.488281 20.730469 72.625 20.90625 C 72.121094 20.921875 71.621094 20.953125 71.125 20.996094 C 71.691406 21.136719 72.273438 21.191406 72.851562 21.191406 C 72.691406 21.398438 72.535156 21.609375 72.386719 21.835938 C 72.574219 21.695312 72.742188 21.542969 72.90625 21.382812 C 72.949219 21.957031 73.027344 22.53125 73.164062 23.089844 C 73.222656 22.59375 73.25 22.09375 73.257812 21.59375 C 73.394531 21.722656 73.542969 21.847656 73.695312 21.960938 C 73.5625 21.761719 73.417969 21.570312 73.261719 21.382812 C 73.269531 21.316406 73.273438 21.25 73.273438 21.183594 Z M 73.273438 21.183594 " fill-opacity="1" fill-rule="nonzero"/><g clip-path="url(#feb39a1c82)"><path fill="#000000" d="M 91.476562 14.535156 C 90.914062 14.390625 90.351562 14.238281 89.789062 14.097656 C 90.050781 13.90625 90.304688 13.695312 90.539062 13.464844 C 90.242188 13.617188 89.953125 13.777344 89.664062 13.945312 C 89.742188 13.289062 89.757812 12.628906 89.6875 11.96875 C 89.53125 12.566406 89.386719 13.167969 89.269531 13.769531 C 89.152344 13.527344 89.019531 13.292969 88.878906 13.0625 C 88.941406 13.371094 89.023438 13.660156 89.121094 13.941406 C 88.429688 13.789062 87.734375 13.667969 87.019531 13.628906 C 87.671875 13.914062 88.347656 14.160156 89.042969 14.332031 C 88.710938 14.546875 88.390625 14.769531 88.082031 15.015625 C 88.453125 14.875 88.808594 14.707031 89.148438 14.515625 C 89.097656 14.878906 89.066406 15.242188 89.054688 15.609375 C 89.035156 15.921875 89.035156 16.230469 89.023438 16.542969 C 89.03125 16.511719 89.046875 16.480469 89.058594 16.449219 C 89.246094 15.9375 89.398438 15.410156 89.511719 14.878906 C 89.613281 15.101562 89.71875 15.320312 89.820312 15.550781 C 89.785156 15.191406 89.699219 14.847656 89.585938 14.511719 C 89.585938 14.492188 89.59375 14.472656 89.597656 14.453125 C 90.210938 14.558594 90.839844 14.601562 91.476562 14.535156 Z M 91.476562 14.535156 " fill-opacity="1" fill-rule="nonzero"/></g><g clip-path="url(#6247828799)"><path fill="#000000" d="M 81.503906 4.40625 C 82.113281 4.339844 82.71875 4.238281 83.3125 4.082031 C 82.78125 4.039062 82.25 4.027344 81.714844 4.039062 C 81.9375 3.757812 82.140625 3.460938 82.328125 3.15625 C 82.019531 3.410156 81.738281 3.695312 81.464844 3.984375 C 81.414062 3.339844 81.308594 2.699219 81.152344 2.066406 C 81.082031 2.722656 81.0625 3.386719 81.082031 4.046875 C 80.835938 3.847656 80.589844 3.664062 80.34375 3.480469 C 80.480469 3.699219 80.640625 3.898438 80.808594 4.089844 C 80.160156 4.152344 79.519531 4.265625 78.886719 4.449219 C 79.609375 4.496094 80.332031 4.496094 81.054688 4.445312 C 80.820312 4.722656 80.589844 5.003906 80.359375 5.28125 C 80.632812 5.117188 80.882812 4.914062 81.113281 4.699219 C 81.160156 5.324219 81.242188 5.945312 81.355469 6.558594 C 81.464844 5.957031 81.503906 5.347656 81.496094 4.742188 C 81.792969 4.984375 82.105469 5.214844 82.417969 5.4375 C 82.152344 5.039062 81.835938 4.707031 81.503906 4.40625 Z M 81.503906 4.40625 " fill-opacity="1" fill-rule="nonzero"/></g><g clip-path="url(#12647d4cd2)"><path fill="#000000" d="M 91.910156 27.878906 C 91.316406 27.859375 90.71875 27.855469 90.125 27.882812 C 90.351562 27.546875 90.535156 27.183594 90.664062 26.792969 C 90.398438 27.164062 90.140625 27.488281 89.886719 27.824219 C 89.832031 27.246094 89.730469 26.671875 89.574219 26.105469 C 89.550781 26.597656 89.542969 27.09375 89.554688 27.585938 C 89.371094 27.4375 89.183594 27.292969 88.988281 27.152344 C 89.15625 27.371094 89.351562 27.605469 89.554688 27.835938 C 89.554688 27.863281 89.554688 27.890625 89.554688 27.917969 C 88.867188 27.976562 88.179688 28.085938 87.507812 28.289062 C 88.191406 28.324219 88.878906 28.3125 89.558594 28.257812 C 89.355469 28.542969 89.15625 28.84375 88.957031 29.199219 C 89.183594 29 89.398438 28.785156 89.597656 28.558594 C 89.648438 29.121094 89.734375 29.679688 89.878906 30.226562 C 89.941406 29.5625 89.960938 28.894531 89.917969 28.230469 C 90.246094 28.566406 90.578125 28.875 90.867188 29.09375 C 90.683594 28.761719 90.453125 28.464844 90.195312 28.191406 C 90.773438 28.121094 91.347656 28.023438 91.910156 27.878906 Z M 91.910156 27.878906 " fill-opacity="1" fill-rule="nonzero"/></g><path fill="#000000" d="M 14.40625 67.3125 L 10.128906 69.789062 L 10.066406 69.6875 L 14.347656 67.207031 Z M 14.40625 67.3125 " fill-opacity="1" fill-rule="nonzero"/><path fill="#000000" d="M 8.085938 72.449219 L 6.835938 76.21875 L 6.722656 76.179688 L 7.96875 72.410156 Z M 8.085938 72.449219 " fill-opacity="1" fill-rule="nonzero"/><path fill="#000000" d="M 8.03125 81.183594 L 11.597656 85.171875 L 11.507812 85.25 L 7.941406 81.265625 Z M 8.03125 81.183594 " fill-opacity="1" fill-rule="nonzero"/><path fill="#000000" d="M 20.550781 88.082031 L 27.1875 88.390625 L 27.183594 88.511719 L 20.546875 88.203125 Z M 20.550781 88.082031 " fill-opacity="1" fill-rule="nonzero"/><path fill="#000000" d="M 41.011719 82.46875 L 33.777344 88.101562 L 33.703125 88.003906 L 40.933594 82.375 Z M 41.011719 82.46875 " fill-opacity="1" fill-rule="nonzero"/><path fill="#000000" d="M 45.316406 72.429688 L 43.640625 79.011719 L 43.523438 78.980469 L 45.199219 72.402344 Z M 45.316406 72.429688 " fill-opacity="1" fill-rule="nonzero"/><path fill="#000000" d="M 47 58.996094 L 46.367188 66.378906 L 46.246094 66.371094 L 46.878906 58.984375 Z M 47 58.996094 " fill-opacity="1" fill-rule="nonzero"/><path fill="#000000" d="M 55.40625 35.0625 L 47.601562 52.613281 L 47.492188 52.5625 L 55.292969 35.011719 Z M 55.40625 35.0625 " fill-opacity="1" fill-rule="nonzero"/><path fill="#000000" d="M 60.863281 28.789062 L 57.902344 31.75 L 57.816406 31.664062 L 60.777344 28.703125 Z M 60.863281 28.789062 " fill-opacity="1" fill-rule="nonzero"/><path fill="#000000" d="M 71.78125 21.933594 L 66.152344 24.550781 L 66.101562 24.441406 L 71.730469 21.824219 Z M 71.78125 21.933594 " fill-opacity="1" fill-rule="nonzero"/><path fill="#000000" d="M 87.46875 15.449219 L 74.984375 20.492188 L 74.9375 20.378906 L 87.421875 15.335938 Z M 87.46875 15.449219 " fill-opacity="1" fill-rule="nonzero"/><path fill="#000000" d="M 89.625 16.789062 L 89.929688 25.300781 L 89.808594 25.304688 L 89.503906 16.792969 Z M 89.625 16.789062 " fill-opacity="1" fill-rule="nonzero"/><path fill="#000000" d="M 82.871094 5.871094 L 88.496094 12.925781 L 88.402344 13 L 82.773438 5.945312 Z M 82.871094 5.871094 " fill-opacity="1" fill-rule="nonzero"/></svg>