<svg xmlns="http://www.w3.org/2000/svg" xmlns:xlink="http://www.w3.org/1999/xlink" width="128" zoomAndPan="magnify" viewBox="0 0 96 95.999999" height="128" preserveAspectRatio="xMidYMid meet" version="1.0"><defs><clipPath id="17e38557eb"><path d="M 8 71 L 87 71 L 87 94.949219 L 8 94.949219 Z M 8 71 " clip-rule="nonzero"/></clipPath><clipPath id="f744c2e08a"><path d="M 1 1.199219 L 86 1.199219 L 86 49 L 1 49 Z M 1 1.199219 " clip-rule="nonzero"/></clipPath></defs><path fill="#a66a2c" d="M 2.148438 65.164062 C 3.003906 66.222656 4.089844 67.082031 5.308594 67.679688 C 6.441406 68.238281 7.683594 68.550781 8.945312 68.621094 C 9.109375 68.628906 9.273438 68.632812 9.4375 68.632812 C 10.40625 68.632812 11.378906 68.476562 12.300781 68.175781 C 13.425781 67.808594 14.457031 67.234375 15.375 66.488281 C 16.703125 65.394531 17.71875 63.933594 18.273438 62.300781 C 18.664062 61.15625 18.835938 59.941406 18.769531 58.730469 C 18.738281 58.113281 18.640625 57.5 18.484375 56.898438 C 18.421875 56.648438 18.339844 56.402344 18.261719 56.15625 C 18.160156 55.859375 17.835938 55.640625 17.480469 55.726562 C 17.378906 55.75 17.289062 55.804688 17.210938 55.871094 C 17.0625 55.953125 16.945312 56.085938 16.902344 56.257812 C 16.882812 56.328125 16.863281 56.398438 16.84375 56.464844 C 16.839844 56.472656 16.839844 56.476562 16.835938 56.484375 C 16.773438 56.671875 16.71875 56.863281 16.652344 57.054688 C 16.503906 57.445312 16.332031 57.828125 16.136719 58.199219 L 16.136719 58.203125 C 16.128906 58.214844 16.125 58.222656 16.121094 58.234375 C 15.9375 58.566406 15.726562 58.90625 15.496094 59.230469 C 15.269531 59.542969 15.023438 59.839844 14.761719 60.125 C 14.507812 60.394531 14.234375 60.652344 13.949219 60.890625 C 13.945312 60.894531 13.9375 60.902344 13.925781 60.910156 C 13.925781 60.910156 13.921875 60.910156 13.921875 60.914062 C 13.921875 60.914062 13.921875 60.910156 13.925781 60.910156 C 13.925781 60.910156 13.925781 60.910156 13.929688 60.90625 L 13.921875 60.914062 C 13.667969 61.117188 13.40625 61.304688 13.132812 61.480469 L 13.128906 61.484375 C 13.113281 61.492188 13.097656 61.503906 13.082031 61.511719 C 12.867188 61.644531 12.609375 61.789062 12.339844 61.914062 C 12.070312 62.039062 11.792969 62.148438 11.507812 62.242188 C 11.261719 62.316406 11.011719 62.378906 10.757812 62.425781 L 10.746094 62.429688 L 10.707031 62.4375 C 10.511719 62.46875 10.285156 62.492188 10.058594 62.507812 C 9.828125 62.515625 9.597656 62.511719 9.371094 62.492188 C 9.164062 62.472656 8.957031 62.4375 8.753906 62.394531 C 8.554688 62.347656 8.359375 62.289062 8.167969 62.21875 C 8 62.152344 7.835938 62.074219 7.675781 61.992188 C 7.507812 61.898438 7.34375 61.796875 7.1875 61.683594 C 7.046875 61.582031 6.910156 61.46875 6.78125 61.351562 C 6.648438 61.222656 6.523438 61.089844 6.40625 60.949219 C 6.273438 60.789062 6.152344 60.621094 6.039062 60.445312 C 5.929688 60.265625 5.832031 60.082031 5.742188 59.890625 C 5.730469 59.871094 5.722656 59.855469 5.714844 59.835938 C 5.628906 59.640625 5.554688 59.445312 5.492188 59.242188 C 5.414062 58.988281 5.351562 58.734375 5.304688 58.472656 C 5.257812 58.195312 5.230469 57.917969 5.214844 57.640625 C 5.199219 57.304688 5.210938 56.96875 5.238281 56.636719 C 5.273438 56.289062 5.328125 55.941406 5.402344 55.597656 C 5.496094 55.207031 5.609375 54.824219 5.75 54.453125 C 5.863281 54.148438 6.03125 53.773438 6.222656 53.40625 C 6.417969 53.046875 6.632812 52.699219 6.871094 52.367188 C 6.871094 52.363281 6.875 52.355469 6.878906 52.351562 C 7.054688 52.109375 7.246094 51.875 7.445312 51.648438 C 7.574219 51.53125 7.703125 51.3125 7.722656 51.246094 C 7.761719 51.152344 7.757812 51.046875 7.730469 50.945312 C 7.726562 50.929688 7.722656 50.914062 7.71875 50.894531 C 7.71875 50.894531 7.714844 50.890625 7.714844 50.886719 C 7.652344 50.683594 7.5 50.5 7.351562 50.363281 C 7.144531 50.199219 6.875 50.214844 6.628906 50.296875 C 6.550781 50.316406 6.476562 50.339844 6.40625 50.371094 C 5.496094 50.679688 4.628906 51.128906 3.855469 51.703125 C 1.855469 53.1875 0.496094 55.449219 0.144531 57.921875 C -0.21875 60.496094 0.515625 63.148438 2.148438 65.164062 Z M 1.402344 58.519531 C 1.4375 58.160156 1.496094 57.804688 1.574219 57.453125 C 1.65625 57.105469 1.757812 56.765625 1.878906 56.429688 C 2.007812 56.09375 2.160156 55.761719 2.328125 55.4375 C 2.335938 55.417969 2.34375 55.402344 2.355469 55.386719 C 2.496094 55.128906 2.683594 54.832031 2.882812 54.542969 C 3.089844 54.265625 3.308594 54 3.539062 53.746094 C 3.785156 53.484375 4.046875 53.242188 4.320312 53.011719 C 4.578125 52.808594 4.839844 52.617188 5.113281 52.441406 C 5.183594 52.398438 5.257812 52.359375 5.328125 52.316406 C 5.261719 52.425781 5.195312 52.539062 5.132812 52.652344 C 4.457031 53.890625 4.019531 55.261719 3.914062 56.671875 C 3.816406 57.960938 4.007812 59.269531 4.546875 60.449219 C 4.792969 60.980469 5.136719 61.53125 5.578125 62.007812 C 6.003906 62.472656 6.503906 62.855469 7.058594 63.15625 C 7.914062 63.605469 8.871094 63.832031 9.832031 63.832031 C 10.066406 63.832031 10.300781 63.820312 10.535156 63.792969 C 12.117188 63.613281 13.585938 62.894531 14.808594 61.890625 C 15.550781 61.28125 16.25 60.496094 16.824219 59.621094 C 17.050781 59.28125 17.25 58.921875 17.429688 58.554688 C 17.445312 58.695312 17.457031 58.832031 17.460938 58.976562 C 17.46875 59.308594 17.460938 59.644531 17.433594 59.976562 C 17.398438 60.34375 17.339844 60.710938 17.257812 61.070312 C 17.175781 61.410156 17.074219 61.75 16.953125 62.082031 C 16.824219 62.417969 16.675781 62.746094 16.507812 63.066406 C 16.339844 63.375 16.152344 63.671875 15.953125 63.957031 C 15.742188 64.246094 15.515625 64.523438 15.269531 64.785156 C 15.035156 65.03125 14.789062 65.257812 14.53125 65.476562 L 14.507812 65.496094 C 14.253906 65.703125 13.980469 65.894531 13.703125 66.074219 C 13.394531 66.265625 13.078125 66.433594 12.753906 66.585938 C 12.441406 66.726562 12.121094 66.847656 11.796875 66.953125 C 11.476562 67.046875 11.152344 67.125 10.828125 67.1875 C 10.472656 67.246094 10.117188 67.285156 9.757812 67.304688 C 9.390625 67.316406 9.027344 67.308594 8.664062 67.277344 C 8.3125 67.242188 7.960938 67.183594 7.617188 67.109375 C 7.261719 67.023438 6.914062 66.917969 6.570312 66.789062 C 6.25 66.667969 5.941406 66.523438 5.636719 66.367188 L 5.625 66.359375 C 5.613281 66.355469 5.601562 66.347656 5.589844 66.34375 C 5.296875 66.179688 4.988281 65.988281 4.691406 65.773438 C 4.40625 65.566406 4.136719 65.339844 3.882812 65.101562 C 3.652344 64.878906 3.425781 64.640625 3.214844 64.386719 C 2.996094 64.117188 2.785156 63.824219 2.59375 63.519531 C 2.40625 63.21875 2.242188 62.90625 2.09375 62.585938 C 1.960938 62.289062 1.84375 61.984375 1.742188 61.671875 C 1.640625 61.335938 1.558594 61 1.492188 60.652344 C 1.433594 60.300781 1.398438 59.949219 1.378906 59.589844 C 1.367188 59.234375 1.375 58.875 1.402344 58.519531 Z M 1.402344 58.519531 " fill-opacity="1" fill-rule="nonzero"/><path fill="#c98a3a" d="M 88.691406 43.222656 C 88.699219 43.191406 88.710938 43.164062 88.71875 43.136719 C 88.71875 43.136719 88.714844 43.136719 88.714844 43.136719 C 88.703125 43.148438 88.691406 43.160156 88.683594 43.167969 C 88.683594 43.1875 88.6875 43.203125 88.691406 43.222656 Z M 88.691406 43.222656 " fill-opacity="1" fill-rule="nonzero"/><path fill="#c98a3a" d="M 69.195312 49.296875 C 68.476562 49.296875 67.910156 49.996094 67.945312 50.683594 C 67.964844 51.03125 68.121094 51.359375 68.375 51.589844 C 68.640625 51.835938 68.976562 51.933594 69.332031 51.933594 C 70.050781 51.933594 70.617188 51.234375 70.582031 50.546875 C 70.5625 50.199219 70.40625 49.871094 70.152344 49.640625 C 69.886719 49.394531 69.550781 49.296875 69.195312 49.296875 Z M 69.195312 49.296875 " fill-opacity="1" fill-rule="nonzero"/><path fill="#c98a3a" d="M 74.328125 82.003906 C 74.308594 81.660156 74.15625 81.332031 73.902344 81.097656 C 73.632812 80.851562 73.300781 80.753906 72.941406 80.753906 C 72.222656 80.753906 71.65625 81.453125 71.695312 82.144531 C 71.710938 82.488281 71.867188 82.816406 72.121094 83.050781 C 72.390625 83.296875 72.722656 83.394531 73.082031 83.394531 C 73.800781 83.394531 74.363281 82.695312 74.328125 82.003906 Z M 74.328125 82.003906 " fill-opacity="1" fill-rule="nonzero"/><path fill="#c98a3a" d="M 15.222656 50.640625 C 14.503906 50.640625 13.941406 51.339844 13.976562 52.03125 C 13.992188 52.375 14.148438 52.703125 14.402344 52.9375 C 14.671875 53.183594 15.003906 53.277344 15.363281 53.277344 C 16.082031 53.277344 16.644531 52.582031 16.609375 51.890625 C 16.59375 51.546875 16.4375 51.21875 16.183594 50.984375 C 15.914062 50.738281 15.582031 50.640625 15.222656 50.640625 Z M 15.222656 50.640625 " fill-opacity="1" fill-rule="nonzero"/><path fill="#c98a3a" d="M 56.113281 25.902344 C 56.09375 25.558594 55.9375 25.230469 55.683594 24.996094 C 55.417969 24.75 55.082031 24.652344 54.726562 24.652344 C 54.007812 24.652344 53.441406 25.351562 53.476562 26.042969 C 53.496094 26.386719 53.652344 26.714844 53.90625 26.949219 C 54.171875 27.195312 54.507812 27.292969 54.863281 27.292969 C 55.582031 27.292969 56.148438 26.59375 56.113281 25.902344 Z M 56.113281 25.902344 " fill-opacity="1" fill-rule="nonzero"/><path fill="#5a3a1a" d="M 64.515625 54.917969 C 62.273438 52.769531 59.652344 50.78125 56.53125 50.214844 C 55.894531 50.007812 55.246094 50.53125 55.5625 51.179688 C 55.753906 51.582031 56.257812 51.476562 56.621094 51.578125 C 60.609375 52.507812 64.359375 56.226562 66.75 59.457031 C 66.863281 59.796875 67.28125 59.957031 67.605469 59.828125 C 68.726562 59.175781 67.238281 57.960938 66.777344 57.324219 C 66.0625 56.5 65.308594 55.6875 64.515625 54.917969 Z M 64.515625 54.917969 " fill-opacity="1" fill-rule="nonzero"/><path fill="#5a3a1a" d="M 70.136719 44.203125 C 67.761719 43.152344 65.082031 42.746094 62.507812 43.042969 C 61.820312 43.328125 62.109375 44.324219 62.773438 44.304688 C 62.769531 44.304688 62.765625 44.304688 62.761719 44.304688 C 62.765625 44.304688 62.773438 44.304688 62.777344 44.304688 C 62.792969 44.304688 62.804688 44.304688 62.820312 44.304688 C 67.859375 43.917969 72.523438 46.054688 75.328125 50.3125 C 75.757812 51.066406 76.886719 50.417969 76.476562 49.664062 C 74.921875 47.332031 72.738281 45.300781 70.136719 44.203125 Z M 62.832031 44.300781 C 62.867188 44.296875 62.90625 44.292969 62.945312 44.28125 C 62.910156 44.292969 62.871094 44.296875 62.832031 44.300781 Z M 62.832031 44.300781 " fill-opacity="1" fill-rule="nonzero"/><path fill="#5a3a1a" d="M 92.671875 54.703125 C 91.734375 53.78125 90.726562 52.929688 89.789062 52.011719 C 88.863281 51.1875 87.996094 50.015625 86.691406 49.851562 C 85.289062 49.632812 84.136719 50.652344 82.863281 51.046875 C 81.621094 51.460938 80.316406 51.542969 79.015625 51.496094 C 79.851562 49.917969 80.507812 48.234375 80.933594 46.464844 C 82.589844 40.152344 81.96875 33.460938 79.105469 27.574219 C 76.691406 22.511719 73.382812 17.855469 69.253906 14.046875 C 63.316406 8.902344 55.398438 5.949219 47.519531 6.355469 C 44.628906 6.511719 41.773438 7.125 39.074219 8.167969 C 36.425781 9.175781 33.789062 10.289062 31.441406 11.894531 C 24.527344 16.621094 18.195312 24.585938 19.894531 33.449219 C 20.691406 37.292969 22.820312 41.164062 26.308594 43.164062 C 27.570312 43.8125 29.007812 44.167969 30.425781 44.113281 C 30.894531 44.085938 31.382812 43.984375 31.847656 43.816406 C 32.488281 44.011719 33.144531 44.164062 33.8125 44.246094 C 34.332031 44.332031 34.851562 44.371094 35.367188 44.371094 C 38.886719 44.371094 42.25 42.519531 44.5625 39.882812 C 44.917969 39.402344 45.492188 39.007812 45.652344 38.417969 C 45.671875 38.066406 45.425781 37.722656 45.058594 37.699219 C 44.847656 37.683594 44.6875 37.765625 44.503906 37.851562 C 43.871094 38.152344 43.214844 38.398438 42.558594 38.640625 C 39.960938 39.613281 37.082031 40.226562 34.316406 39.886719 C 33.949219 37.339844 31.859375 35.238281 29.503906 34.292969 C 30.722656 31.871094 30.507812 29.125 30.019531 26.542969 C 32.496094 24.742188 34.070312 21.976562 35.429688 19.292969 C 37.921875 19.019531 40.347656 17.78125 42.128906 16.03125 C 43.320312 16.445312 44.601562 16.410156 45.839844 16.46875 C 48.398438 16.5625 51 16.355469 53.394531 15.394531 C 55.59375 18.242188 58.851562 20.105469 62.359375 20.886719 C 62.550781 24.007812 64.046875 27.035156 66.101562 29.351562 C 64.960938 31.117188 63.878906 34.332031 64.773438 36.34375 C 62.5 37.1875 61.921875 39.824219 60.839844 41.746094 C 60.089844 43.246094 59.210938 44.9375 57.878906 46.070312 C 54.550781 48.71875 50.164062 50.394531 48.523438 54.671875 C 48.226562 55.34375 48.003906 56.035156 47.84375 56.742188 C 42.042969 57.070312 36.4375 59.582031 31.800781 63.003906 C 28.796875 65.390625 26.101562 68.550781 25.003906 72.289062 C 24.496094 74.71875 24.453125 77.394531 25.609375 79.648438 C 27.320312 82.621094 30.746094 84.195312 34.09375 84.335938 C 34.152344 84.347656 34.210938 84.355469 34.265625 84.355469 C 34.707031 84.355469 35.148438 84.015625 35.039062 83.535156 C 34.859375 82.9375 34.136719 82.773438 33.667969 82.453125 C 32.984375 82.019531 32.304688 81.535156 31.832031 80.867188 C 31.121094 80.0625 30.929688 78.992188 31.195312 77.949219 C 31.574219 76.636719 32.335938 75.398438 32.226562 73.988281 C 32.226562 73.960938 32.222656 73.933594 32.21875 73.90625 C 32.234375 73.910156 32.25 73.914062 32.261719 73.917969 C 32.867188 74.066406 33.519531 74.050781 34.097656 73.828125 C 34.148438 73.992188 34.207031 74.15625 34.28125 74.320312 C 34.863281 75.492188 35.941406 76.128906 36.695312 77.210938 C 37.324219 78.097656 37.753906 79.144531 37.726562 80.253906 C 37.769531 80.746094 37.566406 81.269531 37.738281 81.742188 C 37.917969 82.003906 38.113281 82.113281 38.316406 82.113281 C 39.355469 82.113281 40.570312 79.226562 40.726562 78.496094 C 41.039062 77.253906 40.484375 76.019531 39.757812 75.035156 C 39.320312 74.402344 38.785156 73.78125 38.625 73.007812 C 38.617188 71.417969 39.046875 69.714844 38.175781 68.257812 C 41.191406 66.683594 44.515625 65.636719 47.933594 65.515625 C 48.46875 67.414062 49.628906 68.960938 51.988281 68.960938 C 53.703125 68.84375 55.6875 68.328125 57.765625 67.5625 C 59.304688 68.996094 60.816406 70.476562 61.757812 72.394531 C 62.433594 73.941406 61.851562 75.964844 60.308594 76.738281 C 58.496094 77.644531 56.367188 77.785156 54.472656 78.507812 C 53.027344 78.945312 51.847656 79.734375 50.765625 80.664062 C 50.738281 80.679688 50.707031 80.695312 50.675781 80.707031 C 50.640625 80.730469 50.605469 80.746094 50.570312 80.765625 C 50.589844 80.773438 50.613281 80.777344 50.632812 80.785156 C 48.96875 82.242188 47.523438 84.015625 45.695312 85.324219 C 45.164062 85.710938 44.566406 86.082031 43.949219 86.425781 C 43.628906 86.628906 43.21875 86.753906 43.015625 87.097656 C 42.761719 87.558594 43.179688 88.078125 43.664062 88.09375 C 45.367188 88.351562 46.972656 88.589844 48.75 88.699219 C 49.847656 88.765625 50.960938 88.804688 52.078125 88.804688 C 56.375 88.804688 60.746094 88.222656 64.566406 86.191406 C 68.761719 83.855469 72.265625 79.417969 72.039062 74.417969 C 71.90625 72.042969 70.75 70.007812 69.335938 68.160156 C 71.351562 68.746094 73.484375 68.910156 75.578125 68.699219 C 76.339844 71.117188 77.9375 73.144531 79.394531 75.164062 C 79.667969 76.378906 79.117188 77.699219 78.308594 78.601562 C 77.953125 79.085938 77.238281 79.375 77.0625 79.980469 C 77.082031 80.5625 77.355469 80.765625 77.726562 80.765625 C 78.335938 80.765625 79.207031 80.21875 79.625 79.929688 C 80.664062 79.167969 81.542969 78.164062 82.152344 77.03125 C 84.640625 72.703125 82.1875 67.457031 78.429688 64.769531 C 78.003906 64.503906 77.519531 64.519531 77.035156 64.539062 C 76.769531 64.550781 76.5 64.558594 76.246094 64.523438 C 74.292969 64.398438 72.507812 63.820312 70.738281 62.882812 C 70.121094 62.558594 69.503906 62.1875 68.890625 61.796875 C 69.441406 61.433594 69.972656 61.074219 70.476562 60.71875 C 70.890625 61.003906 71.375 61.226562 71.765625 61.457031 C 74.8125 63.097656 78.382812 63.273438 81.726562 62.601562 C 85.621094 64.835938 87.945312 67.277344 88.449219 71.898438 C 88.449219 71.882812 88.445312 71.863281 88.445312 71.847656 C 88.445312 71.824219 88.449219 71.800781 88.449219 71.777344 C 88.4375 71.945312 88.46875 72.109375 88.582031 72.269531 C 88.703125 72.449219 88.890625 72.527344 89.082031 72.527344 C 89.394531 72.527344 89.714844 72.3125 89.757812 71.964844 C 89.878906 71.433594 90.078125 70.917969 90.148438 70.371094 C 90.558594 67.054688 89.242188 63.621094 87.148438 61.082031 C 84.5 57.863281 83.441406 58.085938 81.683594 58.308594 C 80.769531 58.421875 79.664062 58.539062 78.050781 58.167969 C 76.921875 57.910156 75.777344 57.636719 74.652344 57.304688 C 75.09375 56.867188 75.519531 56.417969 75.925781 55.949219 C 76.203125 56.015625 76.488281 56.066406 76.769531 56.109375 C 79.890625 56.628906 82.984375 55.75 85.957031 54.875 C 91.40625 56.746094 92.101562 56.484375 94.667969 61.992188 C 94.800781 62.167969 95.007812 62.261719 95.214844 62.261719 C 95.382812 62.261719 95.550781 62.199219 95.679688 62.070312 C 96.175781 61.378906 95.859375 60.40625 95.691406 59.644531 C 95.175781 57.75 94.035156 56.089844 92.671875 54.703125 Z M 22.195312 24.527344 C 23.335938 25.890625 25.160156 26.621094 26.90625 26.730469 C 27.085938 26.738281 27.265625 26.742188 27.445312 26.742188 C 27.863281 26.742188 28.28125 26.71875 28.699219 26.683594 C 28.710938 26.765625 28.722656 26.84375 28.742188 26.921875 C 28.921875 27.96875 29.066406 29.023438 29.109375 30.085938 C 29.164062 31.027344 28.910156 32.074219 28.617188 32.980469 C 28.539062 33.253906 28.402344 33.511719 28.277344 33.769531 C 28.167969 33.851562 28.082031 33.960938 28.050781 34.101562 C 27.199219 35.554688 25.304688 36.195312 23.691406 36.042969 C 23.078125 35.972656 22.464844 35.820312 21.886719 35.589844 C 21.820312 35.414062 21.753906 35.238281 21.691406 35.0625 C 20.453125 31.59375 20.839844 27.886719 22.195312 24.527344 Z M 42.546875 40.050781 C 39.761719 42.609375 36.625 43.410156 33.453125 42.835938 C 33.894531 42.40625 34.210938 41.871094 34.328125 41.242188 C 34.496094 41.257812 34.65625 41.273438 34.816406 41.285156 C 37.441406 41.398438 40.082031 40.957031 42.546875 40.050781 Z M 29.507812 35.742188 C 31.503906 36.730469 33.351562 38.8125 33.003906 41.171875 C 32.339844 42.71875 30.347656 43.011719 28.871094 42.671875 C 25.988281 42.089844 23.925781 39.777344 22.605469 37.199219 C 22.964844 37.292969 23.261719 37.34375 23.445312 37.34375 C 23.695312 37.375 23.945312 37.390625 24.195312 37.390625 C 25.890625 37.390625 27.621094 36.691406 28.742188 35.414062 C 29 35.53125 29.28125 35.625 29.507812 35.742188 Z M 29.523438 25.261719 C 29.421875 25.257812 29.320312 25.273438 29.226562 25.3125 C 27.800781 25.460938 26.300781 25.550781 24.960938 24.9375 C 24.078125 24.566406 23.304688 23.964844 22.8125 23.148438 C 23.222656 22.320312 23.6875 21.523438 24.203125 20.761719 C 25.601562 18.691406 27.3125 16.957031 29.210938 15.300781 C 29.921875 14.683594 30.65625 14.089844 31.417969 13.535156 C 31.824219 15.449219 32.824219 17.242188 34.386719 18.46875 C 34.375 18.488281 34.359375 18.503906 34.347656 18.527344 C 33.097656 20.964844 31.726562 23.523438 29.523438 25.261719 Z M 39.863281 16.203125 C 38.667969 16.964844 37.394531 17.628906 35.976562 17.890625 C 35.976562 17.890625 35.972656 17.890625 35.972656 17.890625 C 34.523438 17.113281 33.441406 15.691406 32.917969 14.109375 C 32.808594 13.679688 32.691406 13.199219 32.613281 12.710938 C 33.484375 12.144531 34.390625 11.621094 35.339844 11.171875 C 37.578125 10.121094 39.882812 9.183594 42.265625 8.539062 C 41.226562 10.296875 40.726562 12.425781 41.113281 14.441406 C 41.152344 14.632812 41.179688 14.851562 41.21875 15.070312 C 41.203125 15.089844 41.183594 15.113281 41.167969 15.136719 C 40.785156 15.550781 40.328125 15.886719 39.863281 16.203125 Z M 44.007812 15.054688 C 43.507812 15.035156 42.996094 14.921875 42.511719 14.769531 C 42.320312 13.851562 42.199219 12.910156 42.390625 11.980469 C 42.65625 10.621094 43.214844 9.128906 44.199219 8.085938 C 45.335938 7.867188 46.488281 7.71875 47.660156 7.667969 C 50.671875 7.535156 53.6875 7.902344 56.582031 8.703125 C 56.484375 8.765625 56.394531 8.824219 56.316406 8.867188 C 54.851562 9.9375 53.394531 12.113281 53.230469 14.078125 C 52.210938 14.355469 51.261719 14.777344 50.160156 14.929688 C 48.1875 15.253906 46.019531 15.191406 44.007812 15.054688 Z M 61.671875 19.324219 C 59.617188 18.773438 57.675781 17.792969 56.113281 16.335938 C 55.539062 15.820312 54.976562 15.285156 54.507812 14.671875 C 54.515625 14.460938 54.507812 14.242188 54.5625 14.054688 C 54.773438 12.8125 55.398438 11.652344 56.234375 10.699219 C 56.746094 10.140625 57.378906 9.703125 58.054688 9.363281 C 58.144531 9.316406 58.238281 9.28125 58.335938 9.246094 C 62.410156 10.648438 66.183594 12.925781 69.296875 15.910156 C 68.777344 16.011719 68.28125 16.15625 68.007812 16.210938 C 66.730469 16.597656 65.46875 17.136719 64.414062 17.960938 C 64.070312 18.230469 63.265625 18.933594 62.804688 19.625 C 62.421875 19.503906 61.988281 19.441406 61.671875 19.324219 Z M 64.613281 24.585938 C 64.136719 23.421875 63.6875 22.078125 63.6875 20.773438 C 63.914062 20.46875 64.082031 20.039062 64.34375 19.808594 C 65.917969 18.160156 68.246094 17.21875 70.511719 17.148438 C 70.859375 17.523438 71.199219 17.910156 71.527344 18.304688 C 74.359375 21.648438 76.84375 25.414062 78.5 29.5 C 77.671875 29.171875 76.8125 28.917969 75.925781 28.785156 C 73.0625 28.273438 70.132812 28.320312 67.25 28.632812 C 67.097656 28.480469 66.929688 28.339844 66.800781 28.171875 C 65.878906 27.101562 65.222656 25.851562 64.613281 24.585938 Z M 66.773438 30.789062 C 66.875 30.496094 67.113281 30.238281 67.308594 29.96875 C 67.382812 29.957031 67.460938 29.941406 67.535156 29.933594 C 71.386719 29.558594 75.589844 29.472656 79.144531 31.234375 C 79.554688 32.445312 79.894531 33.679688 80.140625 34.941406 C 80.449219 36.742188 80.566406 38.570312 80.5 40.394531 C 79.6875 39.765625 78.671875 39.203125 78.304688 39 C 76.46875 38.039062 74.460938 37.445312 72.421875 37.105469 C 70.34375 36.765625 68.269531 36.363281 66.171875 36.199219 C 65.21875 34.550781 66.121094 32.40625 66.773438 30.789062 Z M 31.648438 82.617188 C 29.175781 81.941406 26.789062 80.074219 26.199219 77.472656 C 25.777344 75.21875 25.945312 72.753906 27.019531 70.703125 C 28.109375 70.910156 29.140625 71.40625 30.050781 72.066406 C 30.839844 72.769531 31.046875 74.019531 30.824219 75.023438 C 29.660156 78.039062 28.921875 80.144531 31.648438 82.617188 Z M 31.816406 72.238281 C 31.828125 72.257812 31.84375 72.277344 31.859375 72.292969 C 31.851562 72.289062 31.851562 72.289062 31.851562 72.289062 C 31.855469 72.296875 31.859375 72.300781 31.863281 72.308594 C 31.828125 72.25 31.789062 72.203125 31.746094 72.164062 C 30.984375 70.734375 29.414062 70 27.691406 69.492188 C 29.015625 67.355469 30.71875 65.542969 32.667969 64.015625 C 32.691406 64.039062 32.714844 64.058594 32.742188 64.078125 C 34.15625 65.160156 35.253906 66.5 36.363281 67.925781 C 35.183594 69.09375 34.070312 70.71875 33.949219 72.402344 C 33.929688 72.417969 33.914062 72.433594 33.898438 72.449219 C 33.292969 72.875 32.335938 72.734375 31.816406 72.238281 Z M 38.988281 79.378906 C 38.835938 78.105469 38.1875 76.921875 37.375 75.945312 C 36.820312 75.238281 36.082031 74.683594 35.570312 73.941406 C 34.636719 72.207031 35.945312 70.324219 37.101562 69.054688 C 37.667969 70.21875 37.304688 71.519531 37.296875 72.75 C 37.304688 75.371094 40.738281 76.546875 38.988281 79.378906 Z M 37.4375 67.152344 C 36.570312 66.007812 35.640625 64.902344 34.585938 63.921875 C 34.359375 63.738281 34.082031 63.429688 33.785156 63.191406 C 35.628906 61.90625 37.648438 60.855469 39.746094 60.015625 C 39.765625 60.070312 39.789062 60.128906 39.824219 60.1875 C 40.875 61.726562 41.722656 63.417969 42.53125 65.085938 C 40.769531 65.59375 39.058594 66.289062 37.4375 67.152344 Z M 46.695312 64.265625 C 45.71875 64.367188 44.75 64.535156 43.792969 64.757812 C 43.066406 62.925781 42.03125 61.207031 40.980469 59.546875 C 41.761719 59.269531 42.550781 59.019531 43.34375 58.796875 C 44.710938 58.480469 46.167969 58.148438 47.613281 58.046875 C 47.410156 59.636719 47.445312 61.269531 47.539062 62.867188 C 47.558594 63.308594 47.601562 63.757812 47.664062 64.203125 C 47.296875 64.222656 46.957031 64.25 46.695312 64.265625 Z M 59.121094 67.03125 C 60.871094 66.3125 62.660156 65.445312 64.382812 64.503906 C 64.507812 64.625 64.632812 64.75 64.757812 64.875 C 66.390625 66.730469 68.371094 68.667969 69.597656 70.917969 C 69.492188 70.90625 69.390625 70.898438 69.285156 70.890625 C 67.167969 70.796875 64.964844 71.238281 63.0625 72.210938 C 62.375 70.238281 60.746094 68.558594 59.121094 67.03125 Z M 45.523438 87.03125 C 48.085938 85.578125 49.84375 82.992188 52.179688 81.226562 C 53.5625 81.742188 54.824219 82.703125 55.429688 84.078125 C 55.871094 85.050781 56.152344 86.214844 56.015625 87.296875 C 52.539062 87.683594 48.953125 87.464844 45.523438 87.03125 Z M 57.363281 87.109375 C 57.378906 86.960938 57.378906 86.832031 57.371094 86.730469 C 57.292969 83.59375 55.765625 81.554688 53.480469 80.378906 C 53.746094 80.234375 54.019531 80.097656 54.304688 79.980469 C 56.34375 79.105469 58.648438 78.976562 60.648438 78.039062 C 63.476562 78.734375 65.652344 81.429688 64.960938 84.398438 C 64.601562 84.640625 64.238281 84.867188 63.867188 85.074219 C 61.808594 86.109375 59.617188 86.75 57.363281 87.109375 Z M 66.421875 83.289062 C 66.421875 83.289062 66.421875 83.285156 66.421875 83.285156 C 66.429688 80.5 64.5 78.117188 62.027344 77.09375 C 62.933594 76.167969 63.421875 74.835938 63.351562 73.539062 C 63.542969 73.441406 63.730469 73.324219 63.902344 73.246094 C 65.617188 72.515625 68.421875 71.773438 70.246094 72.433594 C 70.257812 72.441406 70.269531 72.445312 70.28125 72.453125 C 70.550781 73.242188 70.722656 74.0625 70.738281 74.9375 C 70.675781 78.242188 68.882812 81.167969 66.421875 83.289062 Z M 74.03125 65.535156 C 74.847656 65.714844 75.875 65.847656 76.769531 65.871094 C 76.90625 65.882812 77.046875 65.871094 77.183594 65.863281 C 77.34375 65.851562 77.503906 65.839844 77.664062 65.863281 C 77.984375 66.027344 78.238281 66.304688 78.515625 66.53125 C 81.496094 69.199219 83.09375 73.480469 80.609375 77.035156 C 80.992188 75.816406 80.804688 74.460938 79.859375 73.558594 C 78.882812 72.328125 78.109375 71.070312 77.367188 69.625 C 77.132812 69.148438 76.910156 68.65625 76.796875 68.136719 C 76.808594 67.667969 76.445312 67.238281 75.953125 67.328125 C 73.152344 67.695312 70.179688 67.335938 67.632812 66.09375 C 67.488281 65.925781 67.34375 65.761719 67.203125 65.597656 C 66.671875 64.996094 66.132812 64.40625 65.574219 63.832031 C 66.292969 63.421875 66.996094 63 67.675781 62.578125 C 69.648438 63.871094 71.660156 65.003906 74.03125 65.535156 Z M 78.328125 59.566406 C 79.761719 59.894531 81.210938 59.78125 82.636719 59.480469 C 83.992188 59.429688 84.96875 60.601562 85.792969 61.527344 C 87.398438 63.300781 88.457031 65.523438 88.804688 67.894531 C 87.570312 64.855469 84.75 62.722656 81.941406 61.238281 C 79.84375 61.5625 77.757812 61.890625 75.632812 61.433594 C 74.273438 61.085938 72.828125 60.65625 71.640625 59.871094 C 72.117188 59.515625 72.566406 59.164062 72.972656 58.828125 C 73.167969 58.667969 73.355469 58.503906 73.542969 58.339844 C 75.109375 58.839844 76.730469 59.242188 78.328125 59.566406 Z M 70.585938 59.050781 C 67.691406 61.101562 64.628906 62.964844 61.449219 64.535156 C 58.535156 65.839844 55.511719 67.25 52.308594 67.636719 C 50.210938 67.792969 49.316406 66.269531 49.050781 64.429688 C 48.753906 62.597656 48.746094 60.726562 48.839844 58.878906 C 49.226562 53.53125 52.527344 51.0625 56.789062 48.515625 C 61.230469 45.871094 61.628906 42.273438 64.140625 38.332031 C 64.503906 37.917969 64.992188 37.644531 65.519531 37.492188 C 65.9375 37.542969 66.414062 37.484375 66.792969 37.574219 C 71.476562 38.285156 76.816406 38.601562 80.386719 42.117188 C 80.089844 45.03125 79.308594 47.898438 78.019531 50.554688 C 76.355469 53.941406 73.605469 56.773438 70.585938 59.050781 Z M 86.128906 53.53125 C 84.582031 53.765625 83.085938 54.398438 81.53125 54.664062 C 80.035156 54.929688 78.421875 55.050781 76.886719 54.789062 C 77.386719 54.144531 77.847656 53.472656 78.273438 52.78125 C 79.484375 52.855469 80.707031 52.859375 81.902344 52.660156 C 83.25 52.457031 84.445312 51.789062 85.675781 51.257812 C 87.03125 50.730469 87.953125 52.179688 88.855469 52.945312 C 89.855469 53.917969 90.921875 54.828125 91.90625 55.816406 C 90.152344 54.660156 88.050781 54.308594 86.128906 53.53125 Z M 86.128906 53.53125 " fill-opacity="1" fill-rule="nonzero"/><g clip-path="url(#17e38557eb)"><path fill="#c98a3a" d="M 86.386719 74.257812 C 86.078125 74.039062 85.652344 74.109375 85.433594 74.417969 C 76.914062 86.417969 63.0625 93.582031 48.382812 93.582031 C 32.503906 93.582031 18.039062 85.488281 9.691406 71.933594 C 9.492188 71.613281 9.070312 71.511719 8.75 71.710938 C 8.429688 71.910156 8.328125 72.332031 8.527344 72.652344 C 17.125 86.613281 32.027344 94.949219 48.382812 94.949219 C 63.503906 94.949219 77.773438 87.570312 86.546875 75.210938 C 86.765625 74.902344 86.695312 74.476562 86.386719 74.257812 Z M 86.386719 74.257812 " fill-opacity="1" fill-rule="nonzero"/></g><path fill="#c98a3a" d="M 94.308594 52.371094 C 94.324219 52.375 94.34375 52.375 94.359375 52.375 C 94.714844 52.375 95.015625 52.101562 95.042969 51.742188 C 95.136719 50.527344 95.183594 49.296875 95.183594 48.074219 C 95.183594 41.542969 93.867188 35.222656 91.273438 29.285156 C 91.121094 28.941406 90.71875 28.78125 90.371094 28.933594 C 90.027344 29.085938 89.867188 29.488281 90.019531 29.835938 C 92.539062 35.597656 93.816406 41.734375 93.816406 48.074219 C 93.816406 49.261719 93.769531 50.457031 93.679688 51.636719 C 93.648438 52.011719 93.929688 52.34375 94.308594 52.371094 Z M 94.308594 52.371094 " fill-opacity="1" fill-rule="nonzero"/><g clip-path="url(#f744c2e08a)"><path fill="#c98a3a" d="M 2.269531 48.757812 C 2.644531 48.757812 2.953125 48.453125 2.953125 48.074219 C 2.953125 22.984375 23.332031 2.570312 48.382812 2.570312 C 62.664062 2.570312 75.832031 9.09375 84.507812 20.476562 C 84.738281 20.773438 85.167969 20.832031 85.46875 20.605469 C 85.765625 20.375 85.824219 19.945312 85.59375 19.644531 C 76.65625 7.921875 63.09375 1.199219 48.382812 1.199219 C 22.578125 1.199219 1.585938 22.226562 1.585938 48.074219 C 1.585938 48.453125 1.890625 48.757812 2.269531 48.757812 Z M 2.269531 48.757812 " fill-opacity="1" fill-rule="nonzero"/></g><path fill="#a66a2c" d="M 83.109375 23.828125 L 82.582031 23.828125 C 82.203125 23.828125 81.898438 24.132812 81.898438 24.511719 C 81.898438 24.890625 82.203125 25.195312 82.582031 25.195312 L 83.109375 25.195312 C 85.511719 25.195312 87.46875 27.152344 87.46875 29.5625 L 87.46875 30.089844 C 87.46875 30.46875 87.773438 30.773438 88.148438 30.773438 C 88.527344 30.773438 88.832031 30.46875 88.832031 30.089844 L 88.832031 29.5625 C 88.832031 27.152344 90.789062 25.195312 93.191406 25.195312 L 93.71875 25.195312 C 94.097656 25.195312 94.402344 24.890625 94.402344 24.511719 C 94.402344 24.132812 94.097656 23.828125 93.71875 23.828125 L 93.191406 23.828125 C 90.789062 23.828125 88.832031 21.867188 88.832031 19.460938 L 88.832031 18.933594 C 88.832031 18.554688 88.527344 18.25 88.148438 18.25 C 87.773438 18.25 87.46875 18.554688 87.46875 18.933594 L 87.46875 19.460938 C 87.46875 21.867188 85.511719 23.828125 83.109375 23.828125 Z M 88.152344 22.175781 C 88.683594 23.164062 89.496094 23.976562 90.484375 24.511719 C 89.496094 25.042969 88.683594 25.859375 88.152344 26.847656 C 87.617188 25.859375 86.804688 25.042969 85.816406 24.511719 C 86.804688 23.976562 87.617188 23.164062 88.152344 22.175781 Z M 88.152344 22.175781 " fill-opacity="1" fill-rule="nonzero"/><path fill="#c98a3a" d="M 42.8125 30.328125 C 43.1875 30.328125 43.496094 30.019531 43.496094 29.644531 L 43.496094 28.933594 C 43.496094 28.003906 44.25 27.25 45.175781 27.25 L 45.886719 27.25 C 46.261719 27.25 46.570312 26.941406 46.570312 26.5625 C 46.570312 26.1875 46.261719 25.878906 45.886719 25.878906 L 45.175781 25.878906 C 44.25 25.878906 43.496094 25.125 43.496094 24.195312 L 43.496094 23.484375 C 43.496094 23.105469 43.1875 22.800781 42.8125 22.800781 C 42.433594 22.800781 42.128906 23.105469 42.128906 23.484375 L 42.128906 24.195312 C 42.128906 25.125 41.375 25.878906 40.445312 25.878906 L 39.738281 25.878906 C 39.359375 25.878906 39.054688 26.1875 39.054688 26.5625 C 39.054688 26.941406 39.359375 27.25 39.738281 27.25 L 40.445312 27.25 C 41.375 27.25 42.128906 28.003906 42.128906 28.933594 L 42.128906 29.644531 C 42.128906 30.019531 42.433594 30.328125 42.8125 30.328125 Z M 42.367188 26.5625 C 42.53125 26.429688 42.679688 26.28125 42.8125 26.117188 C 42.945312 26.28125 43.09375 26.429688 43.257812 26.5625 C 43.09375 26.695312 42.945312 26.847656 42.8125 27.011719 C 42.679688 26.847656 42.53125 26.695312 42.367188 26.5625 Z M 42.367188 26.5625 " fill-opacity="1" fill-rule="nonzero"/><path fill="#c98a3a" d="M 48.027344 71.355469 C 47.648438 71.355469 47.34375 71.664062 47.34375 72.039062 L 47.34375 72.75 C 47.34375 73.679688 46.589844 74.433594 45.664062 74.433594 L 44.953125 74.433594 C 44.574219 74.433594 44.269531 74.742188 44.269531 75.121094 C 44.269531 75.496094 44.574219 75.804688 44.953125 75.804688 L 45.664062 75.804688 C 46.589844 75.804688 47.34375 76.558594 47.34375 77.488281 L 47.34375 78.199219 C 47.34375 78.578125 47.648438 78.882812 48.027344 78.882812 C 48.40625 78.882812 48.710938 78.578125 48.710938 78.199219 L 48.710938 77.488281 C 48.710938 76.558594 49.464844 75.804688 50.390625 75.804688 L 51.101562 75.804688 C 51.480469 75.804688 51.785156 75.496094 51.785156 75.121094 C 51.785156 74.742188 51.480469 74.433594 51.101562 74.433594 L 50.390625 74.433594 C 49.464844 74.433594 48.710938 73.679688 48.710938 72.75 L 48.710938 72.039062 C 48.710938 71.664062 48.40625 71.355469 48.027344 71.355469 Z M 48.472656 75.121094 C 48.308594 75.253906 48.160156 75.402344 48.027344 75.566406 C 47.894531 75.402344 47.746094 75.253906 47.582031 75.121094 C 47.746094 74.988281 47.894531 74.835938 48.027344 74.675781 C 48.160156 74.835938 48.308594 74.988281 48.472656 75.121094 Z M 48.472656 75.121094 " fill-opacity="1" fill-rule="nonzero"/><path fill="#c98a3a" d="M 16.996094 40.84375 C 16.996094 40.46875 16.691406 40.160156 16.3125 40.160156 L 15.902344 40.160156 C 14.109375 40.160156 12.652344 38.699219 12.652344 36.90625 L 12.652344 36.492188 C 12.652344 36.117188 12.347656 35.808594 11.96875 35.808594 C 11.59375 35.808594 11.285156 36.117188 11.285156 36.492188 L 11.285156 36.90625 C 11.285156 38.699219 9.828125 40.160156 8.039062 40.160156 L 7.625 40.160156 C 7.25 40.160156 6.941406 40.46875 6.941406 40.84375 C 6.941406 41.222656 7.25 41.527344 7.625 41.527344 L 8.039062 41.527344 C 9.828125 41.527344 11.285156 42.988281 11.285156 44.785156 L 11.285156 45.195312 C 11.285156 45.574219 11.59375 45.878906 11.96875 45.878906 C 12.347656 45.878906 12.652344 45.574219 12.652344 45.195312 L 12.652344 44.785156 C 12.652344 42.988281 14.109375 41.527344 15.902344 41.527344 L 16.3125 41.527344 C 16.691406 41.527344 16.996094 41.222656 16.996094 40.84375 Z M 11.96875 42.375 C 11.589844 41.753906 11.0625 41.226562 10.441406 40.84375 C 11.0625 40.460938 11.589844 39.9375 11.96875 39.3125 C 12.351562 39.9375 12.875 40.460938 13.5 40.84375 C 12.875 41.226562 12.351562 41.753906 11.96875 42.375 Z M 11.96875 42.375 " fill-opacity="1" fill-rule="nonzero"/></svg>