<svg xmlns="http://www.w3.org/2000/svg" xmlns:xlink="http://www.w3.org/1999/xlink" width="128" zoomAndPan="magnify" viewBox="0 0 96 95.999999" height="128" preserveAspectRatio="xMidYMid meet" version="1.0"><defs><clipPath id="5e3c85b33f"><path d="M 14 2.519531 L 27 2.519531 L 27 15 L 14 15 Z M 14 2.519531 " clip-rule="nonzero"/></clipPath><clipPath id="2e499ceca6"><path d="M 1.945312 25 L 8 25 L 8 32 L 1.945312 32 Z M 1.945312 25 " clip-rule="nonzero"/></clipPath><clipPath id="2693635828"><path d="M 90 89 L 94.195312 89 L 94.195312 93.269531 L 90 93.269531 Z M 90 89 " clip-rule="nonzero"/></clipPath></defs><g clip-path="url(#5e3c85b33f)"><path fill="#000000" d="M 26.875 8.171875 C 25.113281 8.097656 23.347656 7.957031 21.582031 8.027344 C 22.210938 7.304688 22.804688 6.554688 23.339844 5.753906 C 23.261719 5.8125 23.183594 5.875 23.109375 5.941406 C 22.488281 6.433594 21.894531 6.957031 21.335938 7.519531 C 21.210938 5.859375 20.980469 4.203125 20.652344 2.566406 C 20.527344 4.238281 20.5 5.929688 20.546875 7.609375 C 20.144531 7.292969 19.710938 7.011719 19.25 6.765625 C 19.664062 7.207031 20.078125 7.652344 20.492188 8.09375 C 18.570312 8.257812 16.6875 8.671875 14.796875 9.039062 C 16.539062 9.128906 18.285156 9.109375 20.03125 9.003906 C 19.578125 9.59375 19.164062 10.210938 18.816406 10.871094 C 19.425781 10.292969 20.03125 9.703125 20.609375 9.097656 C 20.710938 10.886719 20.902344 12.65625 21.179688 14.378906 C 21.40625 12.617188 21.480469 10.847656 21.421875 9.078125 C 22.089844 9.78125 22.773438 10.464844 23.488281 11.121094 C 23.03125 10.308594 22.496094 9.546875 21.878906 8.859375 C 23.554688 8.699219 25.222656 8.472656 26.875 8.171875 Z M 26.875 8.171875 " fill-opacity="1" fill-rule="nonzero"/></g><g clip-path="url(#2e499ceca6)"><path fill="#000000" d="M 7.433594 28.683594 C 7.355469 28.65625 7.28125 28.628906 7.203125 28.601562 C 6.65625 28.40625 6.101562 28.253906 5.539062 28.125 C 5.890625 27.871094 6.226562 27.597656 6.554688 27.308594 C 6.082031 27.515625 5.628906 27.753906 5.1875 28.019531 C 5.265625 27.203125 5.269531 26.378906 5.179688 25.558594 C 5.058594 26.195312 4.917969 26.933594 4.785156 27.695312 C 4.582031 27.324219 4.363281 26.960938 4.132812 26.605469 C 4.25 27.058594 4.40625 27.5 4.589844 27.925781 C 3.714844 27.757812 2.828125 27.625 1.949219 27.480469 C 2.785156 27.929688 3.683594 28.210938 4.601562 28.390625 C 4.171875 28.679688 3.753906 28.992188 3.34375 29.3125 C 3.789062 29.152344 4.210938 28.953125 4.613281 28.722656 C 4.445312 29.796875 4.332031 30.824219 4.367188 31.535156 C 4.691406 30.683594 4.921875 29.796875 5.070312 28.894531 C 5.285156 29.285156 5.523438 29.65625 5.78125 30.015625 C 5.617188 29.492188 5.417969 28.988281 5.1875 28.492188 C 5.828125 28.585938 6.480469 28.636719 7.128906 28.664062 C 7.230469 28.671875 7.332031 28.679688 7.433594 28.683594 Z M 7.433594 28.683594 " fill-opacity="1" fill-rule="nonzero"/></g><path fill="#000000" d="M 39.757812 52.179688 C 41.3125 52.308594 42.871094 52.40625 44.417969 52.574219 C 42.914062 52.015625 41.367188 51.554688 39.785156 51.300781 C 39.851562 51.242188 39.917969 51.179688 39.984375 51.117188 C 40.503906 50.621094 41.011719 50.113281 41.472656 49.5625 C 41.429688 49.589844 41.386719 49.617188 41.347656 49.644531 C 40.675781 50.046875 40.019531 50.472656 39.394531 50.933594 C 39.425781 49.519531 39.351562 48.097656 39.144531 46.691406 C 38.992188 47.851562 38.824219 49.253906 38.703125 50.671875 C 38.222656 50.078125 37.691406 49.527344 37.085938 49.042969 C 37.527344 49.738281 37.957031 50.445312 38.40625 51.140625 C 36.601562 50.988281 34.785156 51.066406 32.976562 51 C 34.640625 51.535156 36.347656 51.824219 38.078125 52.019531 C 37.417969 52.625 36.816406 53.289062 36.308594 54.03125 C 37.128906 53.414062 37.863281 52.894531 38.578125 52.335938 C 38.480469 54.039062 38.472656 55.632812 38.675781 56.691406 C 38.988281 55.308594 39.203125 53.902344 39.316406 52.492188 C 39.785156 53.144531 40.285156 53.777344 40.839844 54.363281 C 41.121094 54.683594 40.976562 54.5 40.867188 54.253906 C 40.53125 53.542969 40.167969 52.847656 39.757812 52.179688 Z M 39.757812 52.179688 " fill-opacity="1" fill-rule="nonzero"/><path fill="#000000" d="M 51.757812 49.363281 C 52.328125 49.339844 52.898438 49.285156 53.460938 49.207031 C 52.917969 49.105469 52.371094 49.058594 51.824219 49.046875 C 52.175781 48.703125 52.5 48.34375 52.78125 47.941406 C 52.398438 48.222656 52.023438 48.523438 51.683594 48.863281 C 51.660156 48.378906 51.609375 47.890625 51.511719 47.410156 C 51.457031 47.933594 51.417969 48.460938 51.40625 48.988281 C 51.21875 48.796875 51.011719 48.621094 50.773438 48.457031 C 50.921875 48.65625 51.0625 48.855469 51.214844 49.046875 C 50.597656 49.0625 49.976562 49.117188 49.359375 49.195312 C 49.976562 49.328125 50.597656 49.378906 51.222656 49.382812 C 51.074219 49.566406 50.945312 49.769531 50.832031 49.980469 C 51.023438 49.800781 51.214844 49.625 51.40625 49.449219 C 51.414062 50.039062 51.46875 50.628906 51.589844 51.207031 C 51.648438 50.679688 51.6875 50.152344 51.699219 49.621094 C 51.933594 49.875 52.183594 50.113281 52.484375 50.324219 C 52.457031 50.292969 52.4375 50.261719 52.414062 50.230469 C 52.203125 49.929688 51.992188 49.636719 51.757812 49.363281 Z M 51.757812 49.363281 " fill-opacity="1" fill-rule="nonzero"/><path fill="#000000" d="M 56.675781 55.582031 C 56.160156 55.492188 55.636719 55.433594 55.117188 55.417969 C 55.351562 55.191406 55.574219 54.957031 55.777344 54.703125 C 55.472656 54.894531 55.1875 55.109375 54.914062 55.335938 C 54.878906 54.609375 54.792969 53.886719 54.660156 53.164062 C 54.582031 53.867188 54.554688 54.582031 54.582031 55.292969 C 54.394531 55.113281 54.195312 54.949219 53.980469 54.804688 C 54.132812 55.015625 54.289062 55.222656 54.453125 55.425781 C 53.878906 55.457031 53.304688 55.550781 52.753906 55.761719 C 53.335938 55.734375 53.921875 55.738281 54.5 55.730469 C 54.289062 55.941406 54.089844 56.167969 53.910156 56.410156 C 54.152344 56.242188 54.386719 56.058594 54.613281 55.875 C 54.660156 56.453125 54.734375 57.027344 54.855469 57.59375 C 54.914062 57.054688 54.933594 56.519531 54.933594 55.984375 C 55.148438 56.214844 55.375 56.441406 55.625 56.652344 C 55.441406 56.320312 55.222656 56.011719 54.984375 55.722656 C 55.546875 55.707031 56.113281 55.675781 56.675781 55.582031 Z M 56.675781 55.582031 " fill-opacity="1" fill-rule="nonzero"/><path fill="#000000" d="M 50.976562 59.617188 C 50.507812 59.351562 50.023438 59.089844 49.527344 58.867188 C 49.75 58.75 49.96875 58.621094 50.171875 58.472656 C 49.875 58.5625 49.597656 58.660156 49.328125 58.777344 C 49.324219 58.777344 49.324219 58.777344 49.320312 58.777344 C 49.464844 58.234375 49.5625 57.679688 49.609375 57.117188 C 49.421875 57.585938 49.238281 58.054688 49.066406 58.527344 C 48.980469 58.316406 48.886719 58.105469 48.792969 57.902344 C 48.824219 58.144531 48.871094 58.386719 48.933594 58.628906 C 48.394531 58.441406 47.839844 58.324219 47.257812 58.34375 C 47.847656 58.523438 48.375 58.75 48.914062 58.964844 C 48.914062 58.96875 48.910156 58.972656 48.910156 58.976562 C 48.6875 59.089844 48.472656 59.21875 48.246094 59.367188 C 48.453125 59.3125 48.648438 59.246094 48.847656 59.171875 C 48.65625 59.75 48.496094 60.335938 48.382812 60.933594 C 48.359375 61.089844 48.300781 61.234375 48.425781 60.992188 C 48.726562 60.460938 48.96875 59.90625 49.15625 59.332031 C 49.285156 59.6875 49.4375 60.03125 49.605469 60.367188 C 49.542969 59.9375 49.4375 59.519531 49.292969 59.113281 C 49.808594 59.316406 50.34375 59.5 50.976562 59.617188 Z M 50.976562 59.617188 " fill-opacity="1" fill-rule="nonzero"/><path fill="#000000" d="M 56.019531 62.207031 C 56.492188 62.234375 56.960938 62.335938 57.433594 62.292969 C 57.023438 62.199219 56.628906 62.042969 56.21875 61.949219 C 56.417969 61.75 56.609375 61.542969 56.78125 61.316406 C 56.503906 61.488281 56.25 61.691406 56.007812 61.90625 C 55.996094 61.902344 55.988281 61.898438 55.976562 61.898438 C 55.96875 61.46875 55.9375 61.035156 55.886719 60.601562 C 55.808594 61.019531 55.753906 61.445312 55.730469 61.867188 C 55.710938 61.867188 55.691406 61.867188 55.671875 61.867188 C 55.546875 61.710938 55.417969 61.558594 55.273438 61.417969 C 55.347656 61.566406 55.425781 61.710938 55.507812 61.859375 C 54.988281 61.835938 54.464844 61.90625 53.941406 61.933594 C 54.519531 62.082031 55.117188 62.132812 55.710938 62.179688 C 55.710938 62.183594 55.714844 62.183594 55.714844 62.1875 C 55.523438 62.378906 55.339844 62.578125 55.171875 62.785156 C 55.363281 62.667969 55.542969 62.539062 55.71875 62.398438 C 55.714844 62.863281 55.742188 63.332031 55.808594 63.792969 C 55.890625 63.378906 55.941406 62.960938 55.964844 62.539062 C 56.105469 62.71875 56.25 62.894531 56.414062 63.050781 C 56.285156 62.785156 56.136719 62.527344 55.972656 62.277344 C 55.972656 62.253906 55.976562 62.230469 55.976562 62.203125 C 55.992188 62.207031 56.007812 62.207031 56.019531 62.207031 Z M 56.019531 62.207031 " fill-opacity="1" fill-rule="nonzero"/><path fill="#000000" d="M 67.878906 74.976562 C 68.695312 74.835938 69.503906 74.640625 70.300781 74.425781 C 69.507812 74.40625 68.75 74.441406 68.007812 74.511719 C 68.238281 74.238281 68.453125 73.957031 68.65625 73.667969 C 68.308594 73.933594 67.984375 74.226562 67.664062 74.527344 C 67.527344 73.460938 67.289062 72.40625 66.972656 71.375 C 66.992188 72.4375 67.042969 73.441406 67.136719 74.433594 C 66.785156 74.21875 66.417969 74.035156 66.027344 73.90625 C 66.324219 74.140625 66.628906 74.382812 66.9375 74.621094 C 65.84375 74.753906 64.769531 74.917969 63.667969 75.027344 C 64.808594 75.257812 65.957031 75.242188 67.09375 75.097656 C 66.761719 75.453125 66.441406 75.820312 66.144531 76.207031 C 66.53125 75.945312 66.890625 75.652344 67.226562 75.335938 C 67.34375 76.3125 67.5 77.28125 67.714844 78.28125 C 67.828125 77.269531 67.828125 76.25 67.738281 75.242188 C 68.132812 75.542969 68.535156 75.84375 68.9375 76.140625 C 68.636719 75.714844 68.277344 75.320312 67.878906 74.976562 Z M 67.878906 74.976562 " fill-opacity="1" fill-rule="nonzero"/><path fill="#000000" d="M 88.464844 86.328125 C 88.464844 86.320312 88.464844 86.308594 88.464844 86.300781 C 88.921875 86.300781 89.378906 86.277344 89.832031 86.234375 C 89.417969 86.136719 89 86.070312 88.582031 86.027344 C 88.773438 85.867188 88.953125 85.695312 89.113281 85.5 C 88.890625 85.636719 88.679688 85.78125 88.464844 85.929688 C 88.464844 85.378906 88.421875 84.828125 88.335938 84.28125 C 88.222656 84.792969 88.152344 85.308594 88.117188 85.828125 C 87.933594 85.59375 87.738281 85.363281 87.519531 85.152344 C 87.667969 85.4375 87.835938 85.710938 88.011719 85.980469 C 87.410156 85.957031 86.808594 85.980469 86.207031 86.070312 C 86.800781 86.195312 87.402344 86.265625 88.007812 86.285156 C 87.820312 86.449219 87.636719 86.617188 87.480469 86.808594 C 87.6875 86.683594 87.890625 86.546875 88.09375 86.40625 C 88.078125 87.046875 88.117188 87.6875 88.199219 88.328125 C 88.339844 87.757812 88.421875 87.179688 88.453125 86.601562 C 88.601562 86.785156 88.746094 86.964844 88.902344 87.140625 C 88.777344 86.859375 88.625 86.589844 88.464844 86.328125 Z M 88.464844 86.328125 " fill-opacity="1" fill-rule="nonzero"/><g clip-path="url(#2693635828)"><path fill="#000000" d="M 92.8125 91.351562 C 92.820312 91.34375 92.828125 91.332031 92.835938 91.324219 C 93.25 91.265625 93.65625 91.1875 94.058594 91.089844 C 93.734375 91.050781 93.40625 91.039062 93.082031 91.050781 C 93.261719 90.84375 93.429688 90.632812 93.582031 90.402344 C 93.300781 90.605469 93.042969 90.828125 92.792969 91.0625 C 92.746094 90.554688 92.664062 90.046875 92.550781 89.542969 C 92.488281 90.054688 92.460938 90.570312 92.464844 91.082031 C 92.265625 90.882812 92.058594 90.691406 91.835938 90.515625 C 91.972656 90.726562 92.117188 90.925781 92.273438 91.117188 C 91.816406 91.1875 91.359375 91.289062 90.917969 91.429688 C 91.4375 91.453125 91.953125 91.429688 92.46875 91.371094 C 92.46875 91.375 92.46875 91.378906 92.46875 91.382812 C 92.226562 91.640625 91.996094 91.910156 91.785156 92.195312 C 92.03125 92.035156 92.261719 91.847656 92.484375 91.652344 C 92.519531 92.25 92.597656 92.84375 92.734375 93.429688 C 92.8125 92.863281 92.839844 92.296875 92.828125 91.734375 C 93.023438 91.929688 93.226562 92.117188 93.441406 92.289062 C 93.253906 91.996094 93.042969 91.71875 92.816406 91.457031 C 92.8125 91.421875 92.8125 91.386719 92.8125 91.351562 Z M 92.8125 91.351562 " fill-opacity="1" fill-rule="nonzero"/></g><path stroke-linecap="butt" transform="matrix(1, 0, 0, 1, 0.0000005, 0.000002)" fill-opacity="1" fill="#000000" fill-rule="nonzero" stroke-linejoin="miter" d="M 89.335935 87.453121 L 91.460934 89.855464 L 91.371091 89.933589 L 89.249997 87.531246 Z M 89.335935 87.453121 " stroke="#000000" stroke-width="0.2" stroke-opacity="1" stroke-miterlimit="4"/><path stroke-linecap="butt" transform="matrix(1, 0, 0, 1, 0.0000005, 0.000002)" fill-opacity="1" fill="#000000" fill-rule="nonzero" stroke-linejoin="miter" d="M 69.82031 76.585933 L 86.714841 84.894527 L 86.660153 84.999996 L 69.769529 76.691402 Z M 69.82031 76.585933 " stroke="#000000" stroke-width="0.2" stroke-opacity="1" stroke-miterlimit="4"/><path stroke-linecap="butt" transform="matrix(1, 0, 0, 1, 0.0000005, 0.000002)" fill-opacity="1" fill="#000000" fill-rule="nonzero" stroke-linejoin="miter" d="M 57.027342 63.343746 L 65.796873 73.273433 L 65.707029 73.351558 L 56.941404 63.421871 Z M 57.027342 63.343746 " stroke="#000000" stroke-width="0.2" stroke-opacity="1" stroke-miterlimit="4"/><path stroke-linecap="butt" transform="matrix(1, 0, 0, 1, 0.0000005, 0.000002)" fill-opacity="1" fill="#000000" fill-rule="nonzero" stroke-linejoin="miter" d="M 55.339842 58.210934 L 55.578123 60.007809 L 55.460935 60.023434 L 55.22656 58.226559 Z M 55.339842 58.210934 " stroke="#000000" stroke-width="0.2" stroke-opacity="1" stroke-miterlimit="4"/><path stroke-linecap="butt" transform="matrix(1, 0, 0, 1, 0.0000005, 0.000002)" fill-opacity="1" fill="#000000" fill-rule="nonzero" stroke-linejoin="miter" d="M 51.683592 60.015621 L 53.632811 61.24609 L 53.570311 61.347653 L 51.621092 60.113278 Z M 51.683592 60.015621 " stroke="#000000" stroke-width="0.2" stroke-opacity="1" stroke-miterlimit="4"/><path stroke-linecap="butt" transform="matrix(1, 0, 0, 1, 0.0000005, 0.000002)" fill-opacity="1" fill="#000000" fill-rule="nonzero" stroke-linejoin="miter" d="M 42.11328 54.539059 L 46.781248 57.488278 L 46.718748 57.58984 L 42.05078 54.636715 Z M 42.11328 54.539059 " stroke="#000000" stroke-width="0.2" stroke-opacity="1" stroke-miterlimit="4"/><path stroke-linecap="butt" transform="matrix(1, 0, 0, 1, 0.0000005, 0.000002)" fill-opacity="1" fill="#000000" fill-rule="nonzero" stroke-linejoin="miter" d="M 6.675781 29.785153 L 35.628905 49.71484 L 35.562499 49.812497 L 6.609374 29.88281 Z M 6.675781 29.785153 " stroke="#000000" stroke-width="0.2" stroke-opacity="1" stroke-miterlimit="4"/><path stroke-linecap="butt" transform="matrix(1, 0, 0, 1, 0.0000005, 0.000002)" fill-opacity="1" fill="#000000" fill-rule="nonzero" stroke-linejoin="miter" d="M 23.546874 12.402341 L 50.531248 47.019528 L 50.437498 47.08984 L 23.45703 12.47656 Z M 23.546874 12.402341 " stroke="#000000" stroke-width="0.2" stroke-opacity="1" stroke-miterlimit="4"/><path stroke-linecap="butt" transform="matrix(1, 0, 0, 1, 0.0000005, 0.000002)" fill-opacity="1" fill="#000000" fill-rule="nonzero" stroke-linejoin="miter" d="M 52.726561 51.207028 L 53.898435 53.691403 L 53.78906 53.742184 L 52.621092 51.253903 Z M 52.726561 51.207028 " stroke="#000000" stroke-width="0.2" stroke-opacity="1" stroke-miterlimit="4"/></svg>