<svg xmlns="http://www.w3.org/2000/svg" xmlns:xlink="http://www.w3.org/1999/xlink" width="128" zoomAndPan="magnify" viewBox="0 0 96 95.999999" height="128" preserveAspectRatio="xMidYMid meet" version="1.0"><defs><clipPath id="186fe5a84f"><path d="M 0.121094 22 L 15 22 L 15 83 L 0.121094 83 Z M 0.121094 22 " clip-rule="nonzero"/></clipPath></defs><path fill="#a66a2c" d="M 40.089844 27.136719 C 41.007812 28.109375 42.128906 28.867188 43.371094 29.363281 C 44.523438 29.828125 45.765625 30.042969 47.007812 30.019531 C 47.167969 30.015625 47.328125 30.007812 47.488281 29.996094 C 48.4375 29.925781 49.382812 29.699219 50.261719 29.339844 C 51.339844 28.902344 52.308594 28.265625 53.15625 27.46875 C 54.378906 26.304688 55.269531 24.804688 55.695312 23.167969 C 55.996094 22.019531 56.070312 20.824219 55.921875 19.648438 C 55.84375 19.046875 55.703125 18.453125 55.507812 17.878906 C 55.429688 17.640625 55.332031 17.40625 55.234375 17.171875 C 55.117188 16.886719 54.78125 16.695312 54.4375 16.804688 C 54.339844 16.835938 54.257812 16.894531 54.183594 16.96875 C 54.046875 17.058594 53.9375 17.195312 53.90625 17.367188 C 53.894531 17.4375 53.882812 17.507812 53.867188 17.574219 C 53.863281 17.582031 53.863281 17.585938 53.863281 17.59375 C 53.816406 17.78125 53.773438 17.972656 53.722656 18.160156 C 53.605469 18.554688 53.464844 18.941406 53.300781 19.320312 L 53.300781 19.324219 C 53.296875 19.332031 53.289062 19.34375 53.285156 19.351562 C 53.132812 19.691406 52.949219 20.039062 52.746094 20.371094 C 52.546875 20.695312 52.328125 21.003906 52.089844 21.300781 C 51.859375 21.582031 51.613281 21.851562 51.351562 22.105469 C 51.347656 22.109375 51.339844 22.117188 51.328125 22.125 C 51.328125 22.125 51.328125 22.125 51.332031 22.125 C 51.328125 22.125 51.328125 22.128906 51.324219 22.128906 C 51.089844 22.347656 50.847656 22.550781 50.589844 22.742188 L 50.589844 22.746094 C 50.574219 22.753906 50.558594 22.765625 50.542969 22.777344 C 50.34375 22.921875 50.097656 23.078125 49.847656 23.222656 C 49.589844 23.367188 49.328125 23.492188 49.054688 23.601562 C 48.820312 23.695312 48.578125 23.773438 48.332031 23.839844 L 48.320312 23.839844 C 48.308594 23.84375 48.296875 23.847656 48.28125 23.851562 C 48.09375 23.894531 47.875 23.9375 47.652344 23.964844 C 47.425781 23.992188 47.203125 24.003906 46.976562 24.003906 C 46.769531 23.996094 46.566406 23.980469 46.363281 23.953125 C 46.167969 23.917969 45.96875 23.875 45.777344 23.820312 C 45.605469 23.769531 45.441406 23.707031 45.277344 23.636719 C 45.105469 23.558594 44.9375 23.46875 44.773438 23.371094 C 44.628906 23.28125 44.488281 23.183594 44.355469 23.074219 C 44.214844 22.960938 44.082031 22.839844 43.957031 22.710938 C 43.816406 22.5625 43.683594 22.40625 43.558594 22.242188 C 43.441406 22.078125 43.328125 21.902344 43.226562 21.726562 C 43.21875 21.707031 43.207031 21.691406 43.199219 21.675781 C 43.101562 21.492188 43.015625 21.304688 42.933594 21.109375 C 42.839844 20.871094 42.761719 20.621094 42.695312 20.371094 C 42.628906 20.105469 42.582031 19.835938 42.546875 19.566406 C 42.511719 19.238281 42.496094 18.914062 42.5 18.585938 C 42.507812 18.242188 42.535156 17.898438 42.585938 17.554688 C 42.644531 17.167969 42.730469 16.789062 42.839844 16.414062 C 42.929688 16.109375 43.066406 15.730469 43.230469 15.359375 C 43.394531 14.992188 43.578125 14.640625 43.789062 14.292969 C 43.789062 14.289062 43.792969 14.285156 43.796875 14.28125 C 43.949219 14.03125 44.121094 13.789062 44.300781 13.554688 C 44.300781 13.550781 44.300781 13.550781 44.300781 13.550781 C 44.417969 13.429688 44.527344 13.207031 44.542969 13.140625 C 44.574219 13.046875 44.5625 12.941406 44.527344 12.84375 C 44.523438 12.828125 44.519531 12.8125 44.511719 12.796875 C 44.511719 12.796875 44.511719 12.792969 44.511719 12.789062 C 44.433594 12.597656 44.269531 12.425781 44.113281 12.300781 C 43.898438 12.160156 43.636719 12.195312 43.402344 12.292969 C 43.328125 12.316406 43.253906 12.34375 43.1875 12.378906 C 42.316406 12.746094 41.5 13.25 40.785156 13.867188 C 38.929688 15.460938 37.761719 17.769531 37.597656 20.210938 C 37.429688 22.75 38.339844 25.285156 40.089844 27.136719 Z M 51.328125 22.128906 C 51.328125 22.128906 51.328125 22.125 51.328125 22.125 C 51.328125 22.128906 51.324219 22.128906 51.324219 22.128906 C 51.324219 22.128906 51.328125 22.128906 51.328125 22.128906 Z M 38.964844 19.648438 C 39.019531 19.304688 39.09375 18.960938 39.1875 18.628906 C 39.289062 18.289062 39.414062 17.953125 39.554688 17.625 L 39.558594 17.625 C 39.566406 17.605469 39.570312 17.589844 39.578125 17.570312 C 39.703125 17.308594 39.859375 17.007812 40.039062 16.710938 C 40.21875 16.425781 40.414062 16.148438 40.625 15.882812 C 40.847656 15.613281 41.082031 15.355469 41.335938 15.113281 C 41.570312 14.894531 41.816406 14.6875 42.074219 14.492188 C 42.074219 14.496094 42.070312 14.496094 42.070312 14.496094 C 42.136719 14.449219 42.203125 14.40625 42.269531 14.359375 C 42.214844 14.472656 42.160156 14.585938 42.105469 14.699219 C 41.53125 15.960938 41.203125 17.328125 41.203125 18.714844 C 41.199219 19.980469 41.484375 21.246094 42.097656 22.355469 C 42.375 22.859375 42.757812 23.371094 43.222656 23.804688 C 43.671875 24.226562 44.191406 24.566406 44.753906 24.820312 C 45.632812 25.195312 46.582031 25.347656 47.527344 25.277344 C 47.757812 25.261719 47.988281 25.230469 48.214844 25.1875 C 49.753906 24.898438 51.140625 24.089844 52.265625 23.019531 C 52.949219 22.371094 53.578125 21.554688 54.078125 20.660156 C 54.273438 20.308594 54.441406 19.941406 54.59375 19.570312 C 54.617188 19.707031 54.640625 19.84375 54.65625 19.980469 C 54.6875 20.304688 54.703125 20.632812 54.699219 20.960938 C 54.691406 21.324219 54.660156 21.683594 54.609375 22.039062 C 54.554688 22.382812 54.476562 22.71875 54.382812 23.050781 C 54.28125 23.390625 54.160156 23.71875 54.019531 24.046875 C 53.875 24.359375 53.714844 24.660156 53.539062 24.957031 C 53.351562 25.253906 53.148438 25.539062 52.929688 25.8125 C 52.714844 26.070312 52.492188 26.3125 52.253906 26.542969 L 52.234375 26.5625 C 51.996094 26.785156 51.746094 26.992188 51.484375 27.1875 C 51.199219 27.394531 50.898438 27.585938 50.589844 27.757812 C 50.296875 27.914062 49.992188 28.058594 49.679688 28.183594 C 49.371094 28.300781 49.0625 28.398438 48.746094 28.484375 C 48.402344 28.566406 48.054688 28.628906 47.703125 28.675781 C 47.347656 28.714844 46.992188 28.730469 46.632812 28.726562 C 46.285156 28.71875 45.9375 28.6875 45.59375 28.636719 C 45.238281 28.582031 44.890625 28.503906 44.542969 28.402344 C 44.222656 28.304688 43.90625 28.191406 43.59375 28.058594 L 43.585938 28.054688 C 43.574219 28.046875 43.558594 28.042969 43.546875 28.039062 C 43.25 27.902344 42.933594 27.734375 42.625 27.546875 C 42.332031 27.363281 42.050781 27.164062 41.78125 26.949219 C 41.539062 26.75 41.304688 26.53125 41.078125 26.300781 C 40.84375 26.050781 40.617188 25.78125 40.402344 25.5 C 40.199219 25.21875 40.015625 24.925781 39.84375 24.625 C 39.695312 24.339844 39.558594 24.050781 39.4375 23.757812 C 39.3125 23.4375 39.207031 23.109375 39.117188 22.78125 C 39.035156 22.441406 38.972656 22.097656 38.925781 21.75 C 38.890625 21.402344 38.871094 21.050781 38.875 20.703125 C 38.882812 20.347656 38.914062 19.996094 38.964844 19.648438 Z M 38.964844 19.648438 " fill-opacity="1" fill-rule="nonzero"/><path fill="#5a3a1a" d="M 48.792969 78.589844 C 48.613281 79.03125 48.472656 79.492188 48.457031 79.710938 C 48.441406 79.84375 48.460938 79.980469 48.527344 80.105469 C 48.714844 80.460938 49.140625 80.503906 49.484375 80.378906 C 49.851562 80.316406 50.214844 80.257812 50.574219 80.164062 C 51.800781 79.808594 53.167969 79.351562 53.910156 78.246094 C 54.957031 76.738281 53.515625 74.730469 51.753906 75.199219 C 50.320312 75.78125 49.300781 77.136719 48.792969 78.589844 Z M 52.671875 76.558594 C 53.855469 77.855469 50.953125 78.742188 50.027344 78.964844 C 50.3125 78.136719 51.632812 75.957031 52.671875 76.558594 Z M 52.671875 76.558594 " fill-opacity="1" fill-rule="nonzero"/><path fill="#c98a3a" d="M 52.28125 71.398438 C 52.28125 71.398438 52.28125 71.394531 52.28125 71.394531 C 52.269531 71.375 52.257812 71.351562 52.25 71.328125 C 52.25 71.328125 52.28125 71.398438 52.28125 71.398438 Z M 52.28125 71.398438 " fill-opacity="1" fill-rule="nonzero"/><path fill="#5a3a1a" d="M 53.085938 71.695312 C 53.472656 71.546875 53.558594 71.132812 53.445312 70.777344 C 53.332031 70.089844 53.273438 69.359375 53.230469 68.628906 C 53.117188 65.597656 53.5 62.566406 54.472656 59.65625 C 54.578125 59.320312 54.375 58.949219 54.039062 58.847656 C 53.699219 58.746094 53.335938 58.941406 53.230469 59.277344 C 52.757812 60.785156 52.359375 62.320312 52.15625 63.886719 C 51.886719 66.363281 51.71875 68.957031 52.28125 71.394531 C 52.421875 71.679688 52.792969 71.804688 53.085938 71.695312 Z M 53.085938 71.695312 " fill-opacity="1" fill-rule="nonzero"/><path fill="#5a3a1a" d="M 54.910156 56.871094 C 55.269531 56.757812 55.632812 56.652344 55.996094 56.539062 C 57.890625 56.015625 59.785156 54.980469 60.660156 53.144531 C 61.25 51.90625 61.316406 50.441406 61.09375 49.109375 C 60.917969 48.601562 60.226562 48.515625 59.90625 48.933594 C 59.105469 49.886719 58.289062 50.828125 57.4375 51.738281 C 56.625 52.761719 53.371094 55.238281 53.871094 56.570312 C 54.039062 57 54.539062 57.058594 54.910156 56.871094 Z M 59.890625 50.941406 C 59.886719 53.179688 57.875 54.703125 55.855469 55.226562 C 57.1875 53.785156 58.632812 52.453125 59.890625 50.941406 Z M 59.890625 50.941406 " fill-opacity="1" fill-rule="nonzero"/><path fill="#5a3a1a" d="M 38.171875 78.246094 C 38.914062 79.355469 40.28125 79.808594 41.503906 80.164062 C 41.867188 80.261719 42.230469 80.316406 42.59375 80.382812 C 42.9375 80.503906 43.367188 80.464844 43.550781 80.105469 C 43.617188 79.980469 43.636719 79.847656 43.625 79.710938 C 43.609375 79.496094 43.46875 79.03125 43.289062 78.589844 C 42.777344 77.136719 41.757812 75.785156 40.328125 75.199219 C 38.566406 74.730469 37.125 76.738281 38.171875 78.246094 Z M 42.054688 78.96875 C 41.128906 78.742188 38.222656 77.855469 39.40625 76.558594 C 40.449219 75.957031 41.765625 78.140625 42.054688 78.96875 Z M 42.054688 78.96875 " fill-opacity="1" fill-rule="nonzero"/><path fill="#c98a3a" d="M 39.832031 71.332031 C 39.824219 71.355469 39.8125 71.375 39.800781 71.394531 C 39.800781 71.398438 39.800781 71.398438 39.800781 71.398438 C 39.800781 71.398438 39.832031 71.332031 39.832031 71.332031 Z M 39.832031 71.332031 " fill-opacity="1" fill-rule="nonzero"/><path fill="#5a3a1a" d="M 38.039062 58.851562 C 37.703125 58.953125 37.503906 59.320312 37.609375 59.65625 C 38.578125 62.566406 38.960938 65.601562 38.847656 68.628906 C 38.808594 69.359375 38.75 70.09375 38.636719 70.78125 C 38.523438 71.136719 38.609375 71.550781 38.996094 71.695312 C 39.289062 71.808594 39.660156 71.679688 39.800781 71.398438 C 40.363281 68.957031 40.195312 66.363281 39.925781 63.886719 C 39.71875 62.320312 39.324219 60.785156 38.851562 59.28125 C 38.746094 58.945312 38.378906 58.746094 38.039062 58.851562 Z M 38.039062 58.851562 " fill-opacity="1" fill-rule="nonzero"/><path fill="#5a3a1a" d="M 34.640625 51.742188 C 33.792969 50.832031 32.976562 49.886719 32.175781 48.933594 C 31.855469 48.519531 31.160156 48.601562 30.988281 49.109375 C 30.765625 50.441406 30.832031 51.90625 31.417969 53.148438 C 32.292969 54.984375 34.191406 56.015625 36.082031 56.539062 C 36.445312 56.65625 36.8125 56.757812 37.171875 56.871094 C 37.542969 57.0625 38.042969 57.003906 38.207031 56.570312 C 38.710938 55.238281 35.457031 52.761719 34.640625 51.742188 Z M 32.191406 50.945312 C 33.445312 52.453125 34.890625 53.789062 36.222656 55.230469 C 34.203125 54.703125 32.195312 53.183594 32.191406 50.945312 Z M 32.191406 50.945312 " fill-opacity="1" fill-rule="nonzero"/><path fill="#5a3a1a" d="M 32.558594 42.757812 C 32.800781 43.019531 33.214844 43.027344 33.472656 42.789062 C 34.75 41.667969 35.65625 40.164062 36.140625 38.542969 C 36.367188 37.722656 35.164062 37.359375 34.902344 38.164062 C 34.570312 39.257812 33.988281 40.402344 33.175781 41.261719 C 32.800781 41.667969 32.027344 42.164062 32.558594 42.757812 Z M 32.558594 42.757812 " fill-opacity="1" fill-rule="nonzero"/><path fill="#5a3a1a" d="M 58.296875 42.097656 C 58.554688 42.335938 58.96875 42.328125 59.214844 42.066406 C 59.742188 41.472656 58.96875 40.976562 58.59375 40.570312 C 57.78125 39.710938 57.199219 38.566406 56.871094 37.472656 C 56.605469 36.667969 55.40625 37.03125 55.628906 37.851562 C 56.117188 39.472656 57.019531 40.976562 58.296875 42.097656 Z M 58.296875 42.097656 " fill-opacity="1" fill-rule="nonzero"/><path fill="#5a3a1a" d="M 42.242188 47.417969 C 43.25 48.207031 44.574219 48.601562 45.84375 48.613281 C 45.863281 48.613281 45.878906 48.613281 45.898438 48.613281 C 47.359375 48.613281 48.835938 48.179688 49.976562 47.242188 C 50.847656 46.527344 51.46875 45.546875 51.625 44.433594 C 51.628906 44.414062 51.632812 44.398438 51.632812 44.378906 C 51.640625 44.324219 51.644531 44.265625 51.648438 44.210938 C 51.679688 43.855469 51.398438 43.542969 51.046875 43.519531 C 50.683594 43.492188 50.394531 43.769531 50.355469 44.117188 C 50.347656 44.175781 50.347656 44.230469 50.339844 44.289062 C 50.320312 44.398438 50.300781 44.503906 50.273438 44.609375 C 50.234375 44.734375 50.191406 44.855469 50.140625 44.976562 C 50.089844 45.097656 50.027344 45.214844 49.960938 45.328125 C 49.882812 45.453125 49.800781 45.570312 49.710938 45.6875 C 49.617188 45.800781 49.515625 45.910156 49.414062 46.011719 C 49.28125 46.136719 49.144531 46.253906 49.003906 46.363281 C 48.851562 46.46875 48.695312 46.570312 48.535156 46.664062 C 48.355469 46.765625 48.167969 46.851562 47.980469 46.933594 C 47.769531 47.015625 47.554688 47.085938 47.335938 47.144531 L 47.324219 47.148438 C 47.316406 47.148438 47.308594 47.152344 47.300781 47.152344 C 47.097656 47.203125 46.875 47.246094 46.652344 47.277344 C 46.402344 47.304688 46.148438 47.320312 45.898438 47.320312 C 45.664062 47.316406 45.4375 47.296875 45.207031 47.269531 C 44.960938 47.234375 44.714844 47.179688 44.476562 47.113281 C 44.289062 47.058594 44.109375 46.992188 43.929688 46.917969 C 43.753906 46.839844 43.582031 46.75 43.417969 46.65625 C 43.269531 46.566406 43.128906 46.464844 42.992188 46.359375 C 42.878906 46.269531 42.769531 46.171875 42.667969 46.066406 C 42.578125 45.972656 42.488281 45.871094 42.410156 45.765625 C 42.332031 45.660156 42.257812 45.550781 42.191406 45.4375 C 42.136719 45.339844 42.089844 45.238281 42.042969 45.136719 C 42.003906 45.027344 41.964844 44.917969 41.933594 44.804688 C 41.933594 44.804688 41.933594 44.800781 41.933594 44.800781 C 41.90625 44.691406 41.886719 44.582031 41.871094 44.472656 C 41.859375 44.371094 41.855469 44.265625 41.855469 44.164062 C 41.855469 44.121094 41.855469 44.078125 41.859375 44.039062 C 41.878906 43.6875 41.613281 43.371094 41.257812 43.347656 C 40.90625 43.320312 40.585938 43.59375 40.5625 43.949219 C 40.539062 44.371094 40.589844 44.785156 40.699219 45.195312 C 40.921875 46.042969 41.488281 46.828125 42.242188 47.417969 Z M 42.242188 47.417969 " fill-opacity="1" fill-rule="nonzero"/><path fill="#c98a3a" d="M 26.972656 22.550781 C 26.953125 23.246094 27.53125 23.875 28.238281 23.875 C 28.941406 23.875 29.546875 23.332031 29.5625 22.613281 C 29.582031 21.921875 29.003906 21.289062 28.300781 21.289062 C 27.59375 21.289062 26.988281 21.835938 26.972656 22.550781 Z M 26.972656 22.550781 " fill-opacity="1" fill-rule="nonzero"/><path fill="#c98a3a" d="M 61.746094 21.425781 C 61.726562 22.121094 62.304688 22.75 63.007812 22.75 C 63.714844 22.75 64.320312 22.207031 64.335938 21.488281 C 64.355469 20.796875 63.777344 20.164062 63.074219 20.164062 C 62.367188 20.164062 61.761719 20.710938 61.746094 21.425781 Z M 61.746094 21.425781 " fill-opacity="1" fill-rule="nonzero"/><path fill="#5a3a1a" d="M 4.019531 14.191406 C 4.355469 14.289062 4.699219 14.375 5.019531 14.511719 C 7.710938 15.875 9.933594 17.957031 11.382812 20.59375 C 12.503906 22.746094 13.105469 25.109375 13.535156 27.441406 C 13.859375 29.40625 14.054688 31.429688 14.910156 33.257812 C 16.953125 37.824219 22.058594 42.375 27.335938 41.910156 C 26.953125 43.207031 26.734375 44.679688 26.660156 46.21875 C 26.191406 46.425781 25.722656 46.628906 25.253906 46.828125 C 18.050781 49.820312 15.472656 48.511719 9.597656 44.046875 C 12.039062 43.457031 14.316406 42.042969 16.878906 42.082031 C 19.585938 42.277344 21.953125 43.726562 24.230469 45.050781 C 24.371094 45.242188 24.625 45.351562 24.863281 45.3125 C 25.222656 45.253906 25.441406 44.921875 25.402344 44.574219 C 25.351562 44.148438 24.871094 43.914062 24.550781 43.722656 C 24.011719 43.398438 23.464844 43.085938 22.902344 42.796875 C 19.023438 40.714844 16.308594 40.050781 12.128906 41.859375 C 10.699219 42.453125 9.128906 42.707031 7.71875 43.324219 C 7.09375 43.875 7.621094 44.519531 8.238281 44.753906 C 9.121094 45.210938 9.792969 45.765625 10.5625 46.347656 C 13.257812 48.414062 16.417969 50.164062 19.910156 49.664062 C 21.875 49.449219 23.777344 48.84375 25.59375 48.085938 C 25.941406 47.941406 26.285156 47.796875 26.628906 47.648438 C 26.652344 51.152344 27.339844 54.808594 28.425781 57.355469 C 29.46875 59.777344 30.964844 61.976562 32.070312 64.367188 C 33.320312 67 34.019531 69.722656 34.53125 72.628906 C 35.332031 76.46875 35.390625 82.46875 39.523438 84.28125 C 40.734375 84.855469 42.085938 84.9375 43.375 85.21875 C 43.972656 85.328125 44.472656 85.695312 45.058594 85.835938 C 45.417969 85.925781 45.789062 85.960938 46.15625 85.960938 C 46.804688 85.960938 47.453125 85.847656 48.074219 85.703125 C 48.808594 85.523438 49.503906 85.15625 50.277344 85.167969 C 55.886719 84.523438 55.972656 79.792969 56.960938 75.394531 C 57.972656 70.488281 60.71875 66.066406 62.515625 61.421875 C 63.492188 58.800781 64.433594 56.140625 64.894531 53.375 C 65.195312 51.457031 65.289062 49.511719 65.285156 47.574219 C 65.683594 47.746094 66.082031 47.917969 66.484375 48.082031 C 68.304688 48.84375 70.203125 49.449219 72.171875 49.660156 C 75.664062 50.164062 78.824219 48.414062 81.515625 46.347656 C 82.289062 45.765625 82.960938 45.210938 83.839844 44.753906 C 84.460938 44.515625 84.988281 43.875 84.359375 43.324219 C 82.953125 42.707031 81.382812 42.449219 79.949219 41.855469 C 75.769531 40.050781 73.058594 40.710938 69.175781 42.792969 C 68.617188 43.082031 68.070312 43.394531 67.53125 43.71875 C 67.210938 43.914062 66.730469 44.148438 66.679688 44.570312 C 66.636719 44.921875 66.855469 45.253906 67.214844 45.3125 C 67.457031 45.351562 67.710938 45.242188 67.851562 45.046875 C 70.128906 43.726562 72.496094 42.273438 75.203125 42.078125 C 77.765625 42.042969 80.042969 43.453125 82.480469 44.042969 C 76.609375 48.511719 74.027344 49.816406 66.824219 46.824219 C 66.308594 46.605469 65.792969 46.382812 65.277344 46.15625 C 65.226562 44.617188 65.011719 43.128906 64.589844 41.71875 C 69.992188 42.425781 75.28125 37.773438 77.371094 33.105469 C 78.226562 31.277344 78.421875 29.253906 78.746094 27.289062 C 79.175781 24.957031 79.777344 22.59375 80.902344 20.445312 C 82.347656 17.804688 84.570312 15.722656 87.261719 14.359375 C 87.582031 14.222656 87.925781 14.136719 88.261719 14.039062 C 88.582031 14.0625 88.882812 13.808594 88.933594 13.496094 C 89 13.109375 88.6875 12.730469 88.300781 12.71875 C 83.742188 11.835938 79.035156 15 76.054688 18.191406 C 74.121094 20.167969 72.957031 22.703125 71.363281 24.929688 C 68.527344 29.292969 63.953125 29.410156 61.039062 33.269531 C 60.628906 33.777344 60.320312 34.308594 60.109375 34.84375 C 57.34375 32.460938 53.742188 31.953125 50.191406 33.382812 C 48.816406 33.882812 47.554688 34.714844 46.109375 34.996094 C 45.167969 34.523438 44.25 33.976562 43.238281 33.664062 C 41.289062 33.167969 39.308594 33.148438 37.265625 33.484375 C 35.59375 33.863281 33.886719 34.582031 32.359375 35.574219 C 32.167969 34.84375 31.800781 34.113281 31.242188 33.421875 C 28.328125 29.5625 23.753906 29.445312 20.921875 25.078125 C 19.324219 22.855469 18.160156 20.320312 16.226562 18.34375 C 13.25 15.152344 8.539062 11.988281 3.980469 12.867188 C 3.597656 12.882812 3.285156 13.261719 3.347656 13.644531 C 3.398438 13.960938 3.699219 14.214844 4.019531 14.191406 Z M 61.554688 34.859375 C 62.4375 33.214844 63.914062 32.132812 65.492188 31.199219 C 65.5 31.230469 65.507812 31.261719 65.511719 31.292969 C 66.109375 33.390625 67.621094 35.222656 69.679688 36.0625 C 70.460938 36.398438 70.984375 35.257812 70.21875 34.882812 C 68.800781 34.324219 67.675781 33.152344 67.054688 31.757812 C 66.875 31.363281 66.742188 30.949219 66.6875 30.519531 C 67.171875 30.253906 67.652344 29.988281 68.121094 29.71875 C 68.710938 29.371094 69.269531 28.972656 69.792969 28.539062 C 70.679688 29.882812 72.792969 30.765625 74.1875 30.949219 C 75.03125 31.0625 75.226562 29.824219 74.390625 29.671875 C 73.027344 29.46875 71.617188 28.832031 70.792969 27.695312 C 70.78125 27.679688 70.773438 27.664062 70.765625 27.644531 C 71.289062 27.121094 71.769531 26.558594 72.207031 25.960938 C 72.644531 25.378906 73.046875 24.777344 73.433594 24.164062 C 74.058594 24.75 74.84375 25.152344 75.675781 25.347656 C 76.515625 25.472656 76.722656 24.238281 75.882812 24.070312 C 75.25 23.902344 74.5625 23.550781 74.152344 23.007812 C 74.617188 22.253906 75.082031 21.496094 75.59375 20.769531 C 75.949219 20.296875 76.332031 19.832031 76.730469 19.382812 C 77.09375 19.828125 77.582031 20.164062 78.105469 20.402344 C 78.886719 20.742188 79.410156 19.601562 78.648438 19.226562 C 78.296875 19.042969 77.921875 18.839844 77.683594 18.515625 C 77.667969 18.484375 77.648438 18.453125 77.632812 18.421875 C 79.761719 16.300781 82.355469 14.636719 85.308594 14 C 79.121094 17.722656 77.898438 23.875 76.894531 30.464844 C 75.652344 35.398438 71.308594 39.925781 66.105469 40.511719 C 62.945312 40.8125 59.753906 38.046875 61.554688 34.859375 Z M 43.136719 34.996094 C 44.078125 35.359375 44.941406 35.882812 45.851562 36.308594 C 46.066406 36.414062 46.316406 36.375 46.5 36.246094 C 46.730469 36.21875 46.964844 36.136719 47.179688 36.0625 C 50.152344 34.902344 52.632812 33.304688 55.996094 34.082031 C 57.472656 34.414062 58.703125 35.285156 59.769531 36.332031 C 59.621094 38.457031 60.890625 40.445312 63.097656 41.328125 C 63.652344 42.839844 63.9375 44.460938 63.953125 46.082031 C 64.039062 48.320312 63.976562 50.742188 63.636719 53.023438 C 62.730469 58.210938 60.503906 63.03125 58.261719 67.769531 C 56.453125 71.390625 55.585938 75.347656 54.8125 79.296875 C 54.289062 82.214844 52.398438 83.878906 49.40625 83.953125 C 48.394531 84.199219 47.53125 84.628906 46.441406 84.652344 C 45.34375 84.816406 44.46875 84.0625 43.425781 83.90625 C 39.871094 83.398438 38.199219 82.777344 37.128906 79.132812 C 35.8125 74.300781 35.710938 69.070312 33.53125 64.457031 C 32.457031 62.003906 30.992188 59.75 29.835938 57.339844 C 28.390625 54.03125 27.832031 50.386719 27.960938 46.765625 C 27.976562 46.699219 27.980469 46.628906 27.972656 46.558594 C 28.019531 45.410156 28.136719 44.261719 28.316406 43.128906 C 28.417969 42.609375 28.570312 42.109375 28.757812 41.632812 C 31.019531 40.914062 32.425781 39.082031 32.519531 37.042969 C 33.734375 36.171875 35.101562 35.492188 36.484375 35.011719 C 38.640625 34.40625 40.96875 34.359375 43.136719 34.996094 Z M 14.648438 18.574219 C 14.632812 18.605469 14.617188 18.636719 14.597656 18.667969 C 14.363281 18.992188 13.984375 19.195312 13.636719 19.378906 C 12.871094 19.753906 13.394531 20.890625 14.175781 20.554688 C 14.699219 20.316406 15.1875 19.976562 15.550781 19.535156 C 15.949219 19.984375 16.332031 20.449219 16.691406 20.921875 C 17.199219 21.648438 17.664062 22.40625 18.128906 23.160156 C 17.71875 23.703125 17.035156 24.054688 16.398438 24.222656 C 15.558594 24.390625 15.765625 25.625 16.605469 25.5 C 17.4375 25.304688 18.222656 24.902344 18.847656 24.316406 C 19.238281 24.925781 19.636719 25.53125 20.074219 26.113281 C 20.511719 26.710938 20.992188 27.273438 21.515625 27.796875 C 21.507812 27.816406 21.5 27.832031 21.488281 27.847656 C 20.664062 28.984375 19.253906 29.621094 17.890625 29.824219 C 17.054688 29.976562 17.253906 31.214844 18.097656 31.101562 C 19.488281 30.917969 21.601562 30.035156 22.488281 28.691406 C 23.011719 29.125 23.570312 29.523438 24.160156 29.871094 C 24.628906 30.140625 25.113281 30.40625 25.597656 30.671875 C 25.542969 31.101562 25.40625 31.515625 25.230469 31.910156 C 24.605469 33.300781 23.480469 34.476562 22.0625 35.035156 C 21.296875 35.410156 21.820312 36.550781 22.601562 36.214844 C 24.664062 35.375 26.171875 33.542969 26.769531 31.445312 C 26.777344 31.414062 26.785156 31.382812 26.789062 31.351562 C 28.371094 32.285156 29.84375 33.367188 30.730469 35.011719 C 32.527344 38.199219 29.339844 40.964844 26.179688 40.664062 C 20.972656 40.078125 16.628906 35.550781 15.386719 30.617188 C 14.386719 24.027344 13.160156 17.875 6.972656 14.152344 C 9.925781 14.789062 12.523438 16.453125 14.648438 18.574219 Z M 14.648438 18.574219 " fill-opacity="1" fill-rule="nonzero"/><g clip-path="url(#186fe5a84f)"><path fill="#c98a3a" d="M 13.464844 82.101562 C 13.632812 82.101562 13.800781 82.039062 13.929688 81.914062 C 14.199219 81.65625 14.207031 81.230469 13.949219 80.964844 C 5.898438 72.621094 1.464844 61.648438 1.464844 50.066406 C 1.464844 40.5625 4.421875 31.496094 10.015625 23.839844 C 10.234375 23.542969 10.167969 23.125 9.867188 22.90625 C 9.566406 22.6875 9.148438 22.753906 8.929688 23.050781 C 3.167969 30.9375 0.121094 40.277344 0.121094 50.066406 C 0.121094 61.996094 4.6875 73.300781 12.980469 81.894531 C 13.113281 82.03125 13.289062 82.101562 13.464844 82.101562 Z M 13.464844 82.101562 " fill-opacity="1" fill-rule="nonzero"/></g><path fill="#c98a3a" d="M 20.207031 87.992188 C 27.863281 93.210938 36.832031 95.96875 46.140625 95.96875 C 56.730469 95.96875 67.070312 92.292969 75.25 85.621094 C 83.320312 79.039062 88.960938 69.847656 91.136719 59.742188 C 91.214844 59.382812 90.984375 59.023438 90.621094 58.945312 C 90.257812 58.867188 89.902344 59.101562 89.824219 59.460938 C 85.4375 79.839844 67.066406 94.628906 46.140625 94.628906 C 37.101562 94.628906 28.398438 91.949219 20.964844 86.882812 C 20.660156 86.675781 20.242188 86.753906 20.03125 87.058594 C 19.824219 87.363281 19.902344 87.78125 20.207031 87.992188 Z M 20.207031 87.992188 " fill-opacity="1" fill-rule="nonzero"/><path fill="#c98a3a" d="M 82.539062 23.070312 C 82.238281 23.289062 82.171875 23.707031 82.386719 24.007812 C 86.867188 30.195312 89.683594 37.46875 90.539062 45.039062 C 90.574219 45.378906 90.867188 45.632812 91.203125 45.632812 C 91.230469 45.632812 91.253906 45.632812 91.28125 45.628906 C 91.648438 45.589844 91.914062 45.257812 91.871094 44.890625 C 90.996094 37.089844 88.089844 29.597656 83.476562 23.222656 C 83.257812 22.921875 82.839844 22.855469 82.539062 23.070312 Z M 82.539062 23.070312 " fill-opacity="1" fill-rule="nonzero"/><path fill="#c98a3a" d="M 53.242188 6.070312 C 60.613281 7.257812 67.632812 10.3125 73.539062 14.914062 C 73.664062 15.007812 73.808594 15.054688 73.953125 15.054688 C 74.152344 15.054688 74.351562 14.964844 74.484375 14.796875 C 74.710938 14.503906 74.660156 14.082031 74.367188 13.855469 C 68.28125 9.117188 61.050781 5.96875 53.453125 4.75 C 53.089844 4.691406 52.742188 4.9375 52.683594 5.304688 C 52.625 5.667969 52.875 6.011719 53.242188 6.070312 Z M 53.242188 6.070312 " fill-opacity="1" fill-rule="nonzero"/><path fill="#c98a3a" d="M 18.328125 14.957031 C 18.472656 14.957031 18.617188 14.910156 18.738281 14.816406 C 24.632812 10.261719 31.621094 7.238281 38.953125 6.066406 C 39.320312 6.007812 39.570312 5.664062 39.511719 5.296875 C 39.453125 4.933594 39.109375 4.679688 38.742188 4.742188 C 31.1875 5.949219 23.984375 9.066406 17.917969 13.757812 C 17.625 13.984375 17.570312 14.402344 17.796875 14.695312 C 17.929688 14.867188 18.128906 14.957031 18.328125 14.957031 Z M 18.328125 14.957031 " fill-opacity="1" fill-rule="nonzero"/><path fill="#c98a3a" d="M 75.980469 55.996094 C 75.609375 55.996094 75.308594 56.292969 75.308594 56.664062 L 75.308594 57.183594 C 75.308594 59.539062 73.386719 61.457031 71.023438 61.457031 L 70.503906 61.457031 C 70.132812 61.457031 69.832031 61.757812 69.832031 62.128906 C 69.832031 62.496094 70.132812 62.796875 70.503906 62.796875 L 71.023438 62.796875 C 73.386719 62.796875 75.308594 64.714844 75.308594 67.074219 L 75.308594 67.589844 C 75.308594 67.960938 75.609375 68.261719 75.980469 68.261719 C 76.351562 68.261719 76.652344 67.960938 76.652344 67.589844 L 76.652344 67.074219 C 76.652344 64.714844 78.574219 62.796875 80.9375 62.796875 L 81.457031 62.796875 C 81.828125 62.796875 82.128906 62.496094 82.128906 62.128906 C 82.128906 61.757812 81.828125 61.457031 81.457031 61.457031 L 80.9375 61.457031 C 78.574219 61.457031 76.652344 59.539062 76.652344 57.183594 L 76.652344 56.664062 C 76.652344 56.292969 76.351562 55.996094 75.980469 55.996094 Z M 78.273438 62.128906 C 77.304688 62.648438 76.503906 63.449219 75.980469 64.414062 C 75.457031 63.449219 74.65625 62.648438 73.683594 62.128906 C 74.65625 61.605469 75.457031 60.804688 75.980469 59.839844 C 76.503906 60.808594 77.304688 61.605469 78.273438 62.128906 Z M 78.273438 62.128906 " fill-opacity="1" fill-rule="nonzero"/><path fill="#c98a3a" d="M 16.300781 55.996094 C 15.929688 55.996094 15.628906 56.292969 15.628906 56.664062 L 15.628906 57.183594 C 15.628906 59.539062 13.707031 61.457031 11.34375 61.457031 L 10.824219 61.457031 C 10.453125 61.457031 10.152344 61.757812 10.152344 62.128906 C 10.152344 62.496094 10.453125 62.796875 10.824219 62.796875 L 11.34375 62.796875 C 13.707031 62.796875 15.628906 64.714844 15.628906 67.074219 L 15.628906 67.589844 C 15.628906 67.960938 15.929688 68.261719 16.300781 68.261719 C 16.671875 68.261719 16.972656 67.960938 16.972656 67.589844 L 16.972656 67.074219 C 16.972656 64.714844 18.898438 62.796875 21.261719 62.796875 L 21.78125 62.796875 C 22.152344 62.796875 22.453125 62.496094 22.453125 62.128906 C 22.453125 61.757812 22.152344 61.457031 21.78125 61.457031 L 21.261719 61.457031 C 18.898438 61.457031 16.972656 59.539062 16.972656 57.183594 L 16.972656 56.664062 C 16.972656 56.292969 16.671875 55.996094 16.300781 55.996094 Z M 18.597656 62.128906 C 17.625 62.648438 16.828125 63.449219 16.300781 64.414062 C 15.777344 63.449219 14.980469 62.648438 14.007812 62.128906 C 14.980469 61.605469 15.777344 60.804688 16.300781 59.839844 C 16.828125 60.808594 17.625 61.605469 18.597656 62.128906 Z M 18.597656 62.128906 " fill-opacity="1" fill-rule="nonzero"/><path fill="#a66a2c" d="M 41.867188 5.632812 L 42.273438 5.632812 C 44.035156 5.632812 45.46875 7.0625 45.46875 8.820312 L 45.46875 9.222656 C 45.46875 9.59375 45.769531 9.894531 46.140625 9.894531 C 46.511719 9.894531 46.8125 9.59375 46.8125 9.222656 L 46.8125 8.820312 C 46.8125 7.0625 48.246094 5.632812 50.007812 5.632812 L 50.414062 5.632812 C 50.785156 5.632812 51.085938 5.332031 51.085938 4.964844 C 51.085938 4.59375 50.785156 4.292969 50.414062 4.292969 L 50.007812 4.292969 C 48.246094 4.292969 46.8125 2.863281 46.8125 1.105469 L 46.8125 0.703125 C 46.8125 0.332031 46.511719 0.03125 46.140625 0.03125 C 45.769531 0.03125 45.46875 0.332031 45.46875 0.703125 L 45.46875 1.105469 C 45.46875 2.863281 44.035156 4.292969 42.273438 4.292969 L 41.867188 4.292969 C 41.5 4.292969 41.195312 4.59375 41.195312 4.964844 C 41.195312 5.332031 41.5 5.632812 41.867188 5.632812 Z M 46.140625 3.464844 C 46.515625 4.074219 47.03125 4.589844 47.644531 4.964844 C 47.03125 5.335938 46.515625 5.851562 46.140625 6.460938 C 45.765625 5.851562 45.25 5.335938 44.636719 4.964844 C 45.25 4.589844 45.765625 4.074219 46.140625 3.464844 Z M 46.140625 3.464844 " fill-opacity="1" fill-rule="nonzero"/><path fill="#c98a3a" d="M 49.160156 55.757812 C 49.53125 55.757812 49.832031 55.457031 49.832031 55.085938 C 49.832031 54.71875 49.53125 54.417969 49.160156 54.417969 L 48.460938 54.417969 C 47.550781 54.417969 46.808594 53.679688 46.808594 52.769531 L 46.808594 52.074219 C 46.808594 51.703125 46.507812 51.402344 46.136719 51.402344 C 45.765625 51.402344 45.464844 51.703125 45.464844 52.074219 L 45.464844 52.769531 C 45.464844 53.679688 44.722656 54.417969 43.808594 54.417969 L 43.113281 54.417969 C 42.742188 54.417969 42.441406 54.71875 42.441406 55.085938 C 42.441406 55.457031 42.742188 55.757812 43.113281 55.757812 L 43.808594 55.757812 C 44.722656 55.757812 45.464844 56.496094 45.464844 57.40625 L 45.464844 58.101562 C 45.464844 58.472656 45.765625 58.773438 46.136719 58.773438 C 46.507812 58.773438 46.808594 58.472656 46.808594 58.101562 L 46.808594 57.40625 C 46.808594 56.496094 47.550781 55.757812 48.460938 55.757812 Z M 46.136719 55.523438 C 46.003906 55.363281 45.859375 55.21875 45.699219 55.085938 C 45.859375 54.957031 46.003906 54.8125 46.136719 54.652344 C 46.265625 54.8125 46.414062 54.957031 46.574219 55.085938 C 46.414062 55.21875 46.265625 55.363281 46.136719 55.523438 Z M 46.136719 55.523438 " fill-opacity="1" fill-rule="nonzero"/><path fill="#c98a3a" d="M 16.933594 89.566406 C 17.304688 89.566406 17.605469 89.265625 17.605469 88.894531 L 17.605469 88.492188 C 17.605469 86.734375 19.039062 85.304688 20.800781 85.304688 L 21.203125 85.304688 C 21.574219 85.304688 21.875 85.003906 21.875 84.632812 C 21.875 84.265625 21.574219 83.964844 21.203125 83.964844 L 20.800781 83.964844 C 19.039062 83.964844 17.605469 82.535156 17.605469 80.777344 L 17.605469 80.375 C 17.605469 80.003906 17.304688 79.703125 16.933594 79.703125 C 16.5625 79.703125 16.261719 80.003906 16.261719 80.375 L 16.261719 80.777344 C 16.261719 82.535156 14.828125 83.964844 13.066406 83.964844 L 12.660156 83.964844 C 12.289062 83.964844 11.988281 84.265625 11.988281 84.632812 C 11.988281 85.003906 12.289062 85.304688 12.660156 85.304688 L 13.066406 85.304688 C 14.828125 85.304688 16.261719 86.734375 16.261719 88.492188 L 16.261719 88.894531 C 16.261719 89.265625 16.5625 89.566406 16.933594 89.566406 Z M 15.429688 84.632812 C 16.042969 84.257812 16.554688 83.746094 16.933594 83.136719 C 17.308594 83.746094 17.824219 84.257812 18.433594 84.632812 C 17.824219 85.007812 17.308594 85.523438 16.933594 86.132812 C 16.558594 85.523438 16.042969 85.007812 15.429688 84.632812 Z M 15.429688 84.632812 " fill-opacity="1" fill-rule="nonzero"/><path fill="#a66a2c" d="M 91.851562 48.164062 C 91.851562 47.792969 91.550781 47.492188 91.179688 47.492188 C 90.808594 47.492188 90.507812 47.792969 90.507812 48.164062 L 90.507812 48.566406 C 90.507812 50.324219 89.074219 51.753906 87.3125 51.753906 L 86.90625 51.753906 C 86.535156 51.753906 86.234375 52.054688 86.234375 52.425781 C 86.234375 52.796875 86.535156 53.09375 86.90625 53.09375 L 87.3125 53.09375 C 89.074219 53.09375 90.507812 54.523438 90.507812 56.28125 L 90.507812 56.6875 C 90.507812 57.054688 90.808594 57.355469 91.179688 57.355469 C 91.550781 57.355469 91.851562 57.054688 91.851562 56.6875 L 91.851562 56.28125 C 91.851562 54.523438 93.285156 53.09375 95.046875 53.09375 L 95.449219 53.09375 C 95.820312 53.09375 96.121094 52.796875 96.121094 52.425781 C 96.121094 52.054688 95.820312 51.753906 95.449219 51.753906 L 95.046875 51.753906 C 93.28125 51.753906 91.851562 50.324219 91.851562 48.566406 Z M 92.679688 52.425781 C 92.070312 52.800781 91.554688 53.3125 91.179688 53.925781 C 90.800781 53.3125 90.285156 52.800781 89.675781 52.425781 C 90.285156 52.050781 90.800781 51.535156 91.179688 50.925781 C 91.554688 51.535156 92.070312 52.050781 92.679688 52.425781 Z M 92.679688 52.425781 " fill-opacity="1" fill-rule="nonzero"/><path fill="#c98a3a" d="M 72.707031 76.867188 C 72.6875 77.558594 73.265625 78.191406 73.96875 78.191406 C 74.675781 78.191406 75.28125 77.648438 75.296875 76.929688 C 75.316406 76.238281 74.738281 75.605469 74.035156 75.605469 C 73.328125 75.605469 72.722656 76.148438 72.707031 76.867188 Z M 72.707031 76.867188 " fill-opacity="1" fill-rule="nonzero"/><path fill="#5a3a1a" d="M 7.332031 51.867188 C 7.3125 52.5625 7.890625 53.195312 8.597656 53.195312 C 9.304688 53.195312 9.910156 52.648438 9.925781 51.933594 C 9.945312 51.238281 9.367188 50.605469 8.660156 50.605469 C 7.953125 50.605469 7.351562 51.152344 7.332031 51.867188 Z M 7.332031 51.867188 " fill-opacity="1" fill-rule="nonzero"/></svg>