<svg xmlns="http://www.w3.org/2000/svg" xmlns:xlink="http://www.w3.org/1999/xlink" width="128" zoomAndPan="magnify" viewBox="0 0 96 95.999999" height="128" preserveAspectRatio="xMidYMid meet" version="1.0"><defs><clipPath id="0e12204c37"><path d="M 16.191406 81 L 20 81 L 20 85 L 16.191406 85 Z M 16.191406 81 " clip-rule="nonzero"/></clipPath><clipPath id="f79d20d356"><path d="M 76 11 L 79.941406 11 L 79.941406 15 L 76 15 Z M 76 11 " clip-rule="nonzero"/></clipPath></defs><path fill="#000000" d="M 49.34375 87.039062 C 50.742188 86.972656 52.117188 86.652344 53.46875 86.367188 C 52.109375 86.390625 50.75 86.390625 49.390625 86.414062 C 49.738281 86.019531 50.0625 85.605469 50.363281 85.171875 C 49.902344 85.542969 49.429688 85.964844 48.972656 86.410156 C 48.945312 84.882812 48.832031 83.359375 48.625 81.847656 C 48.476562 83.226562 48.339844 84.609375 48.316406 85.996094 C 47.960938 85.667969 47.589844 85.355469 47.195312 85.078125 C 47.5625 85.535156 47.925781 85.988281 48.308594 86.425781 C 48.308594 86.433594 48.308594 86.4375 48.308594 86.441406 C 46.980469 86.484375 45.65625 86.5625 44.335938 86.722656 C 45.664062 86.847656 46.992188 87.019531 48.328125 87.042969 C 48.328125 87.046875 48.328125 87.050781 48.328125 87.054688 C 47.867188 87.539062 47.441406 88.027344 47.09375 88.484375 C 47.539062 88.171875 47.957031 87.828125 48.355469 87.464844 C 48.4375 88.667969 48.601562 89.859375 48.785156 91.050781 C 48.910156 89.757812 48.96875 88.460938 48.96875 87.164062 C 49.386719 87.601562 49.820312 88.023438 50.289062 88.410156 C 49.984375 87.929688 49.652344 87.46875 49.292969 87.035156 C 49.3125 87.039062 49.328125 87.039062 49.34375 87.039062 Z M 49.34375 87.039062 " fill-opacity="1" fill-rule="nonzero"/><path fill="#000000" d="M 67.078125 68.589844 C 67.601562 68.695312 68.117188 68.773438 68.566406 68.816406 C 68.167969 68.644531 67.757812 68.507812 67.339844 68.394531 C 67.539062 68.25 67.734375 68.097656 67.925781 67.941406 C 67.652344 68.050781 67.398438 68.1875 67.15625 68.34375 C 67.132812 68.339844 67.113281 68.332031 67.089844 68.328125 C 67.203125 67.835938 67.273438 67.332031 67.292969 66.820312 C 67.117188 67.28125 66.964844 67.75 66.839844 68.226562 C 66.742188 68.082031 66.636719 67.941406 66.53125 67.800781 C 66.582031 67.953125 66.644531 68.097656 66.710938 68.242188 C 66.144531 68.125 65.5625 68.050781 64.980469 68.011719 C 65.53125 68.21875 66.148438 68.390625 66.765625 68.527344 C 66.757812 68.558594 66.75 68.59375 66.742188 68.628906 C 66.5625 68.761719 66.386719 68.898438 66.21875 69.050781 C 66.386719 68.976562 66.542969 68.898438 66.699219 68.8125 C 66.609375 69.246094 66.539062 69.683594 66.496094 70.125 C 66.699219 69.675781 66.859375 69.210938 66.992188 68.734375 C 67.148438 68.984375 67.332031 69.214844 67.523438 69.429688 C 67.394531 69.140625 67.246094 68.859375 67.078125 68.589844 Z M 67.078125 68.589844 " fill-opacity="1" fill-rule="nonzero"/><path fill="#000000" d="M 64.320312 54.589844 C 63.902344 54.519531 63.480469 54.46875 63.058594 54.4375 C 63.21875 54.292969 63.367188 54.136719 63.496094 53.960938 C 63.335938 54.070312 63.179688 54.1875 63.023438 54.304688 C 63.078125 53.804688 63.09375 53.300781 63.058594 52.792969 C 62.941406 53.3125 62.839844 53.839844 62.765625 54.367188 C 62.632812 54.144531 62.480469 53.933594 62.300781 53.738281 C 62.394531 53.941406 62.507812 54.179688 62.632812 54.410156 C 62.101562 54.390625 61.574219 54.410156 61.042969 54.480469 C 61.511719 54.570312 62.050781 54.632812 62.585938 54.660156 C 62.457031 54.777344 62.332031 54.894531 62.21875 55.019531 C 62.394531 54.929688 62.5625 54.820312 62.726562 54.703125 C 62.664062 55.199219 62.628906 55.699219 62.625 56.199219 C 62.753906 55.789062 62.855469 55.367188 62.933594 54.945312 C 63.019531 55.089844 63.109375 55.21875 63.1875 55.316406 C 63.128906 55.117188 63.054688 54.929688 62.964844 54.742188 C 62.96875 54.71875 62.972656 54.695312 62.976562 54.675781 C 63.472656 54.6875 63.941406 54.664062 64.320312 54.589844 Z M 64.320312 54.589844 " fill-opacity="1" fill-rule="nonzero"/><path fill="#000000" d="M 48.566406 57.09375 C 48.496094 57.09375 48.429688 57.09375 48.359375 57.09375 C 47.78125 57.082031 47.203125 57.101562 46.632812 57.160156 C 46.886719 56.8125 47.113281 56.441406 47.304688 56.054688 C 46.917969 56.429688 46.578125 56.800781 46.269531 57.183594 C 46.140625 56.351562 45.9375 55.535156 45.628906 54.75 C 45.671875 55.515625 45.722656 56.28125 45.820312 57.042969 C 45.566406 56.851562 45.304688 56.675781 45.027344 56.519531 C 45.257812 56.789062 45.507812 57.042969 45.773438 57.28125 C 45.054688 57.414062 44.351562 57.613281 43.679688 57.914062 C 44.460938 57.84375 45.1875 57.773438 45.90625 57.671875 C 45.691406 57.972656 45.488281 58.285156 45.289062 58.628906 C 45.527344 58.421875 45.753906 58.203125 45.96875 57.972656 C 46.058594 58.425781 46.171875 58.871094 46.316406 59.308594 C 46.386719 59.492188 46.503906 60.054688 46.472656 59.582031 C 46.460938 58.980469 46.421875 58.378906 46.351562 57.785156 C 46.621094 57.996094 46.894531 58.203125 47.179688 58.386719 C 46.964844 58.101562 46.722656 57.832031 46.460938 57.585938 C 47.027344 57.492188 47.597656 57.371094 48.195312 57.203125 C 48.320312 57.167969 48.445312 57.132812 48.566406 57.09375 Z M 48.566406 57.09375 " fill-opacity="1" fill-rule="nonzero"/><path fill="#000000" d="M 33.75 65.601562 C 34.1875 65.632812 34.628906 65.652344 35.070312 65.636719 C 34.570312 65.5 34.070312 65.390625 33.558594 65.320312 C 33.558594 65.320312 33.554688 65.3125 33.554688 65.3125 C 33.554688 65.308594 33.554688 65.308594 33.554688 65.304688 C 33.734375 65.160156 33.910156 65.011719 34.074219 64.847656 C 33.902344 64.929688 33.730469 65.015625 33.566406 65.113281 C 33.589844 64.65625 33.582031 64.199219 33.542969 63.742188 C 33.453125 64.152344 33.375 64.5625 33.3125 64.976562 C 33.183594 64.8125 33.046875 64.652344 32.90625 64.5 C 33.011719 64.75 33.136719 64.996094 33.273438 65.238281 C 33.269531 65.253906 33.265625 65.265625 33.265625 65.285156 C 32.683594 65.21875 32.097656 65.207031 31.511719 65.253906 C 31.984375 65.367188 32.46875 65.457031 32.953125 65.523438 C 32.722656 65.691406 32.503906 65.871094 32.296875 66.070312 C 32.621094 65.929688 32.929688 65.757812 33.21875 65.558594 C 33.222656 65.558594 33.226562 65.558594 33.230469 65.558594 C 33.171875 66.027344 33.128906 66.492188 33.113281 66.964844 C 33.117188 67.113281 33.050781 67.773438 33.144531 67.425781 C 33.339844 66.851562 33.460938 66.261719 33.523438 65.667969 C 33.753906 66.015625 34.015625 66.347656 34.308594 66.648438 C 34.148438 66.28125 33.960938 65.933594 33.75 65.601562 Z M 33.75 65.601562 " fill-opacity="1" fill-rule="nonzero"/><g clip-path="url(#0e12204c37)"><path fill="#000000" d="M 19.089844 82.609375 C 18.824219 82.609375 18.558594 82.625 18.296875 82.65625 C 18.488281 82.394531 18.664062 82.125 18.820312 81.835938 C 18.554688 82.074219 18.308594 82.332031 18.078125 82.609375 C 18.054688 82.113281 17.992188 81.617188 17.886719 81.132812 C 17.835938 81.5625 17.808594 81.988281 17.796875 82.417969 C 17.601562 82.242188 17.390625 82.074219 17.171875 81.921875 C 17.367188 82.175781 17.578125 82.421875 17.792969 82.660156 C 17.792969 82.679688 17.789062 82.699219 17.789062 82.71875 C 17.253906 82.804688 16.722656 82.933594 16.195312 83.050781 C 16.722656 83.101562 17.246094 83.078125 17.769531 83.015625 C 17.574219 83.289062 17.398438 83.578125 17.246094 83.882812 C 17.441406 83.691406 17.625 83.496094 17.800781 83.289062 C 17.820312 83.792969 17.871094 84.289062 17.964844 84.785156 C 18.0625 84.195312 18.105469 83.589844 18.097656 82.984375 C 18.359375 83.25 18.636719 83.503906 18.929688 83.734375 C 18.742188 83.453125 18.535156 83.183594 18.308594 82.929688 C 18.757812 82.851562 19.199219 82.757812 19.636719 82.652344 C 19.898438 82.605469 19.210938 82.613281 19.089844 82.609375 Z M 19.089844 82.609375 " fill-opacity="1" fill-rule="nonzero"/></g><path fill="#000000" d="M 38.722656 28.503906 C 40.011719 28.320312 41.289062 28.054688 42.542969 27.757812 C 41.269531 27.734375 39.988281 27.691406 38.714844 27.800781 C 39.023438 27.308594 39.316406 26.796875 39.589844 26.28125 C 39.171875 26.695312 38.785156 27.144531 38.425781 27.613281 C 38.277344 26.378906 38.066406 25.152344 37.847656 23.933594 C 37.746094 25.175781 37.769531 26.417969 37.882812 27.65625 C 37.515625 27.308594 37.132812 26.972656 36.738281 26.648438 C 37.015625 27.101562 37.324219 27.527344 37.664062 27.929688 C 36.417969 28.132812 35.207031 28.503906 33.96875 28.761719 C 35.210938 28.824219 36.464844 28.765625 37.707031 28.628906 C 37.34375 29.179688 37.015625 29.75 36.714844 30.320312 C 37.195312 29.859375 37.625 29.355469 38.019531 28.824219 C 38.15625 29.859375 38.34375 30.890625 38.558594 31.910156 C 38.570312 31.972656 38.585938 32.085938 38.59375 32.09375 C 38.617188 31.523438 38.628906 30.949219 38.617188 30.375 C 38.613281 29.871094 38.585938 29.363281 38.546875 28.859375 C 38.976562 29.261719 39.4375 29.628906 39.921875 29.964844 C 39.550781 29.453125 39.148438 28.964844 38.722656 28.503906 Z M 38.722656 28.503906 " fill-opacity="1" fill-rule="nonzero"/><path fill="#000000" d="M 53.679688 36.550781 C 54.460938 36.496094 55.242188 36.375 56.007812 36.199219 C 55.316406 36.128906 54.621094 36.121094 53.929688 36.160156 C 54.078125 35.933594 54.214844 35.699219 54.335938 35.457031 C 54.121094 35.691406 53.914062 35.929688 53.707031 36.171875 C 53.671875 36.175781 53.632812 36.175781 53.597656 36.179688 C 53.601562 35.46875 53.558594 34.753906 53.464844 34.046875 C 53.359375 34.675781 53.296875 35.308594 53.265625 35.945312 C 53.140625 35.785156 53.007812 35.632812 52.867188 35.484375 C 52.984375 35.730469 53.113281 35.972656 53.25 36.210938 C 52.609375 36.269531 51.96875 36.367188 51.335938 36.492188 C 51.972656 36.574219 52.609375 36.597656 53.246094 36.574219 C 53.246094 36.628906 53.246094 36.683594 53.246094 36.738281 C 53.007812 37.046875 52.785156 37.359375 52.585938 37.695312 C 52.621094 37.664062 52.65625 37.628906 52.691406 37.597656 C 52.886719 37.421875 53.070312 37.234375 53.25 37.039062 C 53.257812 37.566406 53.292969 38.09375 53.355469 38.621094 C 53.480469 38 53.546875 37.367188 53.578125 36.734375 C 53.761719 37.007812 53.960938 37.269531 54.1875 37.515625 C 54.039062 37.183594 53.871094 36.859375 53.679688 36.550781 Z M 53.679688 36.550781 " fill-opacity="1" fill-rule="nonzero"/><path fill="#000000" d="M 67.269531 38.027344 C 67.105469 37.800781 66.925781 37.582031 66.722656 37.375 C 67.261719 37.28125 67.808594 37.152344 68.390625 36.945312 C 67.816406 36.96875 67.238281 37.003906 66.667969 37.082031 C 66.789062 36.859375 66.898438 36.628906 66.980469 36.386719 C 66.800781 36.621094 66.632812 36.863281 66.472656 37.113281 C 66.464844 37.113281 66.460938 37.113281 66.453125 37.113281 C 66.363281 36.5625 66.238281 36.019531 66.074219 35.480469 C 66.066406 35.933594 66.082031 36.382812 66.113281 36.835938 C 65.953125 36.710938 65.78125 36.597656 65.605469 36.496094 C 65.773438 36.6875 65.953125 36.878906 66.128906 37.066406 C 66.132812 37.101562 66.136719 37.140625 66.136719 37.175781 C 65.617188 37.28125 65.105469 37.441406 64.625 37.691406 C 65.160156 37.601562 65.667969 37.539062 66.167969 37.464844 C 66.171875 37.507812 66.179688 37.554688 66.183594 37.597656 C 66.078125 37.796875 65.976562 38 65.886719 38.207031 C 66 38.082031 66.109375 37.949219 66.214844 37.8125 C 66.300781 38.429688 66.425781 39.042969 66.597656 39.644531 C 66.632812 38.902344 66.597656 38.167969 66.496094 37.4375 C 66.765625 37.691406 67.046875 37.929688 67.351562 38.140625 C 67.328125 38.101562 67.296875 38.0625 67.269531 38.027344 Z M 67.269531 38.027344 " fill-opacity="1" fill-rule="nonzero"/><path fill="#000000" d="M 72.492188 27.710938 C 72.492188 27.699219 72.496094 27.691406 72.496094 27.679688 C 72.5 27.675781 72.5 27.675781 72.5 27.671875 C 72.917969 27.667969 73.339844 27.644531 73.753906 27.613281 C 73.410156 27.535156 73.0625 27.492188 72.714844 27.46875 C 72.8125 27.367188 72.90625 27.265625 72.996094 27.160156 C 72.847656 27.253906 72.710938 27.355469 72.570312 27.460938 C 72.546875 27.460938 72.527344 27.457031 72.503906 27.457031 C 72.511719 26.910156 72.46875 26.363281 72.386719 25.820312 C 72.296875 26.320312 72.253906 26.828125 72.25 27.332031 C 72.125 27.152344 71.992188 26.980469 71.839844 26.820312 C 71.9375 27.035156 72.046875 27.246094 72.171875 27.449219 C 71.703125 27.453125 71.230469 27.496094 70.765625 27.570312 C 71.253906 27.644531 71.753906 27.671875 72.25 27.671875 C 72.25 27.691406 72.253906 27.710938 72.253906 27.730469 C 72.09375 27.882812 71.9375 28.042969 71.804688 28.222656 C 71.960938 28.117188 72.113281 27.996094 72.261719 27.875 C 72.273438 28.230469 72.296875 28.582031 72.335938 28.933594 C 72.414062 28.59375 72.457031 28.246094 72.480469 27.902344 C 72.578125 28.027344 72.679688 28.144531 72.789062 28.253906 C 72.699219 28.070312 72.601562 27.886719 72.492188 27.710938 Z M 72.492188 27.710938 " fill-opacity="1" fill-rule="nonzero"/><g clip-path="url(#f79d20d356)"><path fill="#000000" d="M 79.808594 12.671875 C 79.339844 12.5625 78.867188 12.457031 78.394531 12.367188 C 78.605469 12.214844 78.808594 12.050781 78.996094 11.863281 C 78.78125 11.972656 78.574219 12.089844 78.371094 12.21875 C 78.425781 11.820312 78.457031 11.414062 78.449219 11.007812 C 78.324219 11.347656 78.222656 11.695312 78.132812 12.046875 C 78.050781 11.84375 77.96875 11.644531 77.875 11.449219 C 77.910156 11.742188 77.976562 12.027344 78.066406 12.304688 C 77.554688 12.222656 77.039062 12.167969 76.519531 12.164062 C 76.984375 12.304688 77.457031 12.433594 77.929688 12.523438 C 77.769531 12.644531 77.617188 12.773438 77.46875 12.910156 C 77.652344 12.824219 77.828125 12.726562 78 12.625 C 77.898438 13.15625 77.832031 13.695312 77.816406 14.238281 C 78.011719 13.777344 78.15625 13.304688 78.265625 12.820312 C 78.34375 13 78.433594 13.175781 78.527344 13.34375 C 78.476562 13.089844 78.40625 12.839844 78.328125 12.59375 C 78.816406 12.671875 79.308594 12.707031 79.808594 12.671875 Z M 79.808594 12.671875 " fill-opacity="1" fill-rule="nonzero"/></g><path fill="#000000" d="M 72.8125 3.445312 C 72.480469 3.40625 72.148438 3.386719 71.816406 3.382812 C 71.984375 3.207031 72.136719 3.027344 72.273438 2.824219 C 72.070312 2.996094 71.867188 3.171875 71.671875 3.347656 C 71.660156 2.902344 71.625 2.453125 71.558594 2.011719 C 71.480469 2.390625 71.433594 2.777344 71.40625 3.164062 C 71.3125 3.082031 71.214844 3.003906 71.117188 2.925781 C 71.203125 3.054688 71.300781 3.175781 71.398438 3.296875 C 71.398438 3.324219 71.394531 3.351562 71.394531 3.382812 C 70.847656 3.394531 70.300781 3.441406 69.757812 3.5 C 70.289062 3.613281 70.835938 3.652344 71.367188 3.636719 C 71.199219 3.808594 71.035156 3.988281 70.890625 4.1875 C 71.058594 4.0625 71.226562 3.925781 71.386719 3.789062 C 71.390625 4.304688 71.433594 4.816406 71.523438 5.328125 C 71.625 4.765625 71.675781 4.195312 71.675781 3.621094 C 71.683594 3.621094 71.691406 3.621094 71.699219 3.621094 C 71.855469 3.773438 72.015625 3.921875 72.191406 4.054688 C 72.085938 3.894531 71.96875 3.746094 71.847656 3.605469 C 72.117188 3.582031 72.378906 3.550781 72.628906 3.507812 C 72.714844 3.488281 73.136719 3.472656 72.8125 3.445312 Z M 72.8125 3.445312 " fill-opacity="1" fill-rule="nonzero"/><path fill="#000000" d="M 31.609375 92.382812 C 32.152344 92.347656 32.769531 92.242188 33.074219 92.132812 C 32.5625 92.121094 32.050781 92.121094 31.542969 92.117188 C 31.738281 91.917969 31.921875 91.707031 32.085938 91.480469 C 31.902344 91.613281 31.714844 91.765625 31.535156 91.929688 C 31.546875 91.460938 31.53125 90.996094 31.5 90.527344 C 31.414062 90.9375 31.351562 91.382812 31.304688 91.835938 C 31.222656 91.707031 31.140625 91.585938 31.054688 91.460938 C 31.109375 91.675781 31.183594 91.886719 31.277344 92.09375 C 31.277344 92.101562 31.273438 92.109375 31.273438 92.113281 C 30.699219 92.109375 30.125 92.085938 29.554688 92.03125 C 30.046875 92.207031 30.554688 92.355469 31.074219 92.394531 C 30.953125 92.53125 30.84375 92.667969 30.746094 92.800781 C 30.921875 92.675781 31.085938 92.542969 31.25 92.402344 C 31.203125 92.96875 31.175781 93.527344 31.160156 93.996094 C 31.34375 93.519531 31.441406 93.023438 31.496094 92.527344 C 31.625 92.761719 31.777344 92.988281 31.925781 93.199219 C 31.84375 92.917969 31.734375 92.644531 31.609375 92.382812 Z M 31.609375 92.382812 " fill-opacity="1" fill-rule="nonzero"/><path fill="#000000" d="M 41.238281 81.546875 C 41.695312 81.453125 42.152344 81.316406 42.605469 81.128906 C 42.160156 81.171875 41.714844 81.238281 41.265625 81.324219 C 41.328125 81.210938 41.382812 81.097656 41.433594 80.976562 C 41.34375 81.085938 41.261719 81.203125 41.179688 81.320312 C 41.117188 80.9375 41.035156 80.558594 40.925781 80.183594 C 40.917969 80.542969 40.941406 80.910156 40.980469 81.273438 C 40.839844 81.140625 40.6875 81.027344 40.519531 80.933594 C 40.648438 81.070312 40.785156 81.234375 40.933594 81.398438 C 40.5625 81.484375 40.191406 81.578125 39.832031 81.703125 C 40.226562 81.691406 40.625 81.652344 41.011719 81.585938 C 40.9375 81.714844 40.867188 81.847656 40.8125 81.980469 C 40.894531 81.886719 40.964844 81.789062 41.035156 81.6875 C 41.105469 82.101562 41.199219 82.503906 41.324219 82.886719 C 41.324219 82.496094 41.289062 82.105469 41.238281 81.722656 C 41.367188 81.847656 41.496094 81.957031 41.613281 82.023438 C 41.496094 81.867188 41.371094 81.699219 41.238281 81.546875 Z M 41.238281 81.546875 " fill-opacity="1" fill-rule="nonzero"/><path fill="#000000" d="M 39.824219 82.566406 L 32.453125 91.039062 L 32.375 90.972656 L 39.75 82.5 Z M 39.824219 82.566406 " fill-opacity="1" fill-rule="nonzero"/><path fill="#000000" d="M 47.242188 85.976562 L 42.191406 82.507812 L 42.246094 82.425781 L 47.296875 85.894531 Z M 47.242188 85.976562 " fill-opacity="1" fill-rule="nonzero"/><path fill="#000000" d="M 65.6875 70.066406 L 50.96875 84.785156 L 50.898438 84.714844 L 65.617188 69.996094 Z M 65.6875 70.066406 " fill-opacity="1" fill-rule="nonzero"/><path fill="#000000" d="M 63.261719 56.542969 L 66.605469 66.851562 L 66.507812 66.878906 L 63.167969 56.574219 Z M 63.261719 56.542969 " fill-opacity="1" fill-rule="nonzero"/><path fill="#000000" d="M 65.597656 38.640625 L 63.308594 52.320312 L 63.207031 52.304688 L 65.5 38.625 Z M 65.597656 38.640625 " fill-opacity="1" fill-rule="nonzero"/><path fill="#000000" d="M 61.511719 55.257812 L 49.261719 57.078125 L 49.246094 56.980469 L 61.496094 55.160156 Z M 61.511719 55.257812 " fill-opacity="1" fill-rule="nonzero"/><path fill="#000000" d="M 52.523438 38.203125 L 46.789062 55.429688 L 46.691406 55.398438 L 52.429688 38.171875 Z M 52.523438 38.203125 " fill-opacity="1" fill-rule="nonzero"/><path fill="#000000" d="M 44.570312 58.515625 L 34.609375 64.542969 L 34.558594 64.457031 L 44.519531 58.433594 Z M 44.570312 58.515625 " fill-opacity="1" fill-rule="nonzero"/><path fill="#000000" d="M 31.957031 66.929688 L 19.246094 81.539062 L 19.167969 81.476562 L 31.882812 66.867188 Z M 31.957031 66.929688 " fill-opacity="1" fill-rule="nonzero"/><path fill="#000000" d="M 51.78125 35.480469 L 40.328125 29.328125 L 40.375 29.242188 L 51.828125 35.390625 Z M 51.78125 35.480469 " fill-opacity="1" fill-rule="nonzero"/><path fill="#000000" d="M 64.398438 36.800781 L 56.960938 36.433594 L 56.964844 36.335938 L 64.402344 36.699219 Z M 64.398438 36.800781 " fill-opacity="1" fill-rule="nonzero"/><path fill="#000000" d="M 71.761719 28.945312 L 67.65625 35.878906 L 67.570312 35.828125 L 71.675781 28.894531 Z M 71.761719 28.945312 " fill-opacity="1" fill-rule="nonzero"/><path fill="#000000" d="M 77.570312 14.878906 L 73.148438 26.34375 L 73.054688 26.308594 L 77.476562 14.839844 Z M 77.570312 14.878906 " fill-opacity="1" fill-rule="nonzero"/><path fill="#000000" d="M 72.554688 4.296875 L 77.464844 11.394531 L 77.382812 11.449219 L 72.472656 4.355469 Z M 72.554688 4.296875 " fill-opacity="1" fill-rule="nonzero"/></svg>