<svg xmlns="http://www.w3.org/2000/svg" xmlns:xlink="http://www.w3.org/1999/xlink" width="128" zoomAndPan="magnify" viewBox="0 0 96 95.999999" height="128" preserveAspectRatio="xMidYMid meet" version="1.0"><path fill="#a66a2c" d="M 48.660156 11.265625 C 48.660156 11.257812 48.660156 11.253906 48.664062 11.25 C 48.734375 10.949219 48.820312 10.652344 48.917969 10.359375 C 48.917969 10.359375 48.917969 10.355469 48.917969 10.355469 C 48.992188 10.195312 49.027344 9.9375 49.019531 9.867188 C 49.019531 9.765625 48.972656 9.667969 48.90625 9.582031 C 48.898438 9.566406 48.886719 9.554688 48.875 9.539062 C 48.875 9.539062 48.875 9.535156 48.871094 9.535156 C 48.730469 9.367188 48.511719 9.253906 48.316406 9.183594 C 48.054688 9.113281 47.808594 9.234375 47.609375 9.410156 C 47.542969 9.457031 47.480469 9.507812 47.425781 9.566406 C 46.6875 10.222656 46.050781 10.992188 45.546875 11.839844 C 44.25 14.039062 43.863281 16.714844 44.519531 19.1875 C 45.195312 21.761719 46.945312 23.972656 49.292969 25.222656 C 50.523438 25.878906 51.886719 26.257812 53.277344 26.335938 C 54.574219 26.410156 55.871094 26.210938 57.089844 25.773438 C 57.25 25.714844 57.40625 25.65625 57.558594 25.589844 C 58.476562 25.203125 59.332031 24.667969 60.082031 24.015625 C 61 23.222656 61.746094 22.269531 62.316406 21.199219 C 63.136719 19.636719 63.515625 17.855469 63.390625 16.09375 C 63.304688 14.855469 62.980469 13.644531 62.4375 12.527344 C 62.160156 11.957031 61.828125 11.414062 61.441406 10.914062 C 61.28125 10.703125 61.109375 10.5 60.933594 10.300781 C 60.722656 10.058594 60.328125 9.984375 60.023438 10.207031 C 59.941406 10.269531 59.875 10.355469 59.828125 10.449219 C 59.71875 10.585938 59.660156 10.757812 59.6875 10.9375 C 59.699219 11.011719 59.707031 11.085938 59.714844 11.160156 C 59.714844 11.164062 59.71875 11.171875 59.71875 11.175781 C 59.734375 11.378906 59.757812 11.582031 59.769531 11.789062 C 59.785156 12.21875 59.777344 12.644531 59.738281 13.074219 L 59.738281 13.078125 C 59.738281 13.089844 59.738281 13.101562 59.738281 13.113281 C 59.699219 13.5 59.632812 13.902344 59.542969 14.300781 C 59.453125 14.6875 59.339844 15.066406 59.207031 15.441406 C 59.070312 15.796875 58.917969 16.144531 58.742188 16.484375 C 58.742188 16.488281 58.734375 16.5 58.726562 16.511719 C 58.726562 16.511719 58.726562 16.511719 58.726562 16.515625 C 58.726562 16.511719 58.730469 16.511719 58.730469 16.507812 C 58.726562 16.511719 58.726562 16.515625 58.726562 16.515625 C 58.566406 16.808594 58.394531 17.09375 58.207031 17.371094 L 58.203125 17.371094 C 58.191406 17.386719 58.183594 17.402344 58.171875 17.417969 C 58.019531 17.628906 57.832031 17.867188 57.632812 18.09375 C 57.425781 18.320312 57.207031 18.53125 56.976562 18.734375 C 56.769531 18.902344 56.5625 19.0625 56.339844 19.207031 L 56.328125 19.214844 C 56.316406 19.222656 56.304688 19.230469 56.292969 19.238281 C 56.125 19.34375 55.917969 19.457031 55.707031 19.5625 C 55.496094 19.660156 55.277344 19.746094 55.050781 19.824219 C 54.847656 19.882812 54.640625 19.9375 54.433594 19.976562 C 54.226562 20.007812 54.015625 20.03125 53.808594 20.042969 C 53.621094 20.046875 53.4375 20.039062 53.253906 20.027344 C 53.054688 20.003906 52.859375 19.972656 52.667969 19.929688 C 52.492188 19.886719 52.320312 19.835938 52.152344 19.777344 C 51.976562 19.710938 51.804688 19.632812 51.636719 19.550781 C 51.449219 19.449219 51.265625 19.339844 51.089844 19.21875 C 50.914062 19.09375 50.746094 18.957031 50.585938 18.8125 C 50.574219 18.800781 50.558594 18.789062 50.542969 18.773438 C 50.386719 18.625 50.234375 18.46875 50.09375 18.304688 C 49.917969 18.09375 49.757812 17.878906 49.609375 17.648438 C 49.457031 17.410156 49.320312 17.160156 49.195312 16.902344 C 49.046875 16.589844 48.921875 16.269531 48.816406 15.945312 C 48.710938 15.601562 48.625 15.253906 48.558594 14.898438 C 48.492188 14.496094 48.449219 14.085938 48.429688 13.679688 C 48.417969 13.347656 48.425781 12.925781 48.460938 12.503906 C 48.503906 12.089844 48.570312 11.675781 48.660156 11.265625 Z M 49.679688 19.816406 C 50.125 20.222656 50.671875 20.601562 51.277344 20.875 C 51.863281 21.144531 52.488281 21.308594 53.132812 21.371094 C 54.121094 21.453125 55.113281 21.285156 56.023438 20.902344 C 56.246094 20.808594 56.460938 20.703125 56.671875 20.585938 C 58.097656 19.785156 59.195312 18.523438 59.953125 17.085938 C 60.410156 16.214844 60.761719 15.199219 60.957031 14.140625 C 61.03125 13.730469 61.078125 13.3125 61.101562 12.894531 C 61.171875 13.019531 61.238281 13.148438 61.300781 13.277344 C 61.441406 13.589844 61.566406 13.910156 61.671875 14.234375 C 61.785156 14.597656 61.875 14.964844 61.941406 15.335938 C 62 15.691406 62.039062 16.050781 62.058594 16.410156 C 62.066406 16.78125 62.058594 17.148438 62.027344 17.519531 C 61.988281 17.875 61.933594 18.230469 61.855469 18.582031 C 61.773438 18.9375 61.667969 19.289062 61.542969 19.632812 C 61.417969 19.957031 61.273438 20.273438 61.117188 20.582031 L 61.105469 20.605469 C 60.945312 20.90625 60.765625 21.195312 60.574219 21.476562 C 60.359375 21.777344 60.128906 22.0625 59.878906 22.335938 C 59.640625 22.59375 59.386719 22.835938 59.121094 23.0625 C 58.855469 23.28125 58.582031 23.484375 58.296875 23.671875 C 57.988281 23.871094 57.664062 24.046875 57.332031 24.210938 C 56.992188 24.367188 56.648438 24.503906 56.289062 24.617188 C 55.941406 24.722656 55.589844 24.8125 55.234375 24.875 C 54.863281 24.9375 54.492188 24.976562 54.117188 24.996094 C 53.765625 25.003906 53.417969 24.996094 53.066406 24.964844 L 53.054688 24.964844 C 53.039062 24.964844 53.027344 24.964844 53.011719 24.960938 C 52.671875 24.925781 52.300781 24.867188 51.9375 24.785156 C 51.585938 24.699219 51.242188 24.59375 50.902344 24.472656 C 50.597656 24.355469 50.292969 24.21875 49.992188 24.066406 C 49.675781 23.898438 49.359375 23.703125 49.058594 23.496094 C 48.761719 23.285156 48.480469 23.058594 48.210938 22.8125 C 47.96875 22.582031 47.738281 22.34375 47.519531 22.089844 C 47.289062 21.816406 47.074219 21.527344 46.878906 21.226562 C 46.679688 20.917969 46.503906 20.601562 46.34375 20.273438 C 46.191406 19.941406 46.058594 19.597656 45.941406 19.25 C 45.835938 18.898438 45.746094 18.539062 45.679688 18.175781 C 45.617188 17.816406 45.578125 17.453125 45.5625 17.089844 C 45.546875 16.722656 45.558594 16.347656 45.589844 15.972656 C 45.589844 15.953125 45.59375 15.933594 45.59375 15.914062 C 45.628906 15.613281 45.683594 15.261719 45.761719 14.910156 C 45.84375 14.566406 45.941406 14.226562 46.0625 13.894531 C 46.191406 13.550781 46.339844 13.21875 46.507812 12.890625 C 46.667969 12.597656 46.84375 12.3125 47.03125 12.035156 C 47.078125 11.964844 47.132812 11.902344 47.183594 11.832031 C 47.164062 11.964844 47.144531 12.09375 47.132812 12.226562 C 46.984375 13.667969 47.117188 15.132812 47.578125 16.507812 C 48 17.761719 48.703125 18.917969 49.679688 19.816406 Z M 49.679688 19.816406 " fill-opacity="1" fill-rule="nonzero"/><path fill="#5a3a1a" d="M 56.71875 30.140625 C 56.589844 29.472656 55.589844 29.441406 55.40625 30.082031 C 55.59375 35.925781 57.660156 41.597656 60.355469 46.746094 C 59.289062 47.214844 58.164062 47.570312 57.019531 47.785156 C 56.597656 47.792969 56.195312 48.078125 56.234375 48.535156 C 56.261719 48.894531 56.597656 49.199219 56.960938 49.15625 C 57.972656 49.019531 58.957031 48.722656 59.917969 48.386719 C 60.652344 48.046875 62.183594 47.769531 61.796875 46.65625 C 59.25 41.726562 57.179688 36.472656 56.785156 30.890625 C 56.738281 30.640625 56.734375 30.390625 56.71875 30.140625 Z M 56.71875 30.140625 " fill-opacity="1" fill-rule="nonzero"/><path fill="#5a3a1a" d="M 52.765625 52.960938 C 52.574219 53.621094 53.316406 54.007812 53.761719 54.324219 C 54.832031 55.046875 55.972656 55.800781 57.277344 55.976562 C 58.289062 56.136719 59.367188 55.96875 60.25 55.433594 C 60.835938 55.171875 60.742188 54.175781 59.984375 54.144531 C 59.804688 54.144531 59.675781 54.210938 59.535156 54.292969 C 58.214844 55.050781 56.625 54.589844 55.433594 53.796875 C 57.152344 53.648438 58.867188 53.332031 60.472656 52.695312 C 61.054688 52.496094 61.839844 52.113281 61.394531 51.390625 C 61.125 51.007812 60.65625 51.066406 60.300781 51.300781 C 58.230469 52.15625 55.929688 52.550781 53.691406 52.5 C 53.308594 52.40625 52.890625 52.570312 52.765625 52.960938 Z M 60.148438 55.46875 C 60.105469 55.480469 60.0625 55.488281 60 55.496094 C 60.054688 55.492188 60.101562 55.484375 60.148438 55.46875 Z M 60.238281 55.4375 C 60.207031 55.449219 60.179688 55.460938 60.152344 55.46875 C 60.183594 55.460938 60.210938 55.449219 60.238281 55.4375 Z M 60.238281 55.4375 " fill-opacity="1" fill-rule="nonzero"/><path fill="#5a3a1a" d="M 64.789062 37.503906 C 64.0625 37.8125 63.285156 37.925781 62.492188 37.847656 C 61.851562 37.859375 60.878906 37.273438 60.570312 38.125 C 60.375 38.796875 61.101562 39.0625 61.636719 39.097656 C 62.164062 39.1875 62.695312 39.234375 63.226562 39.21875 C 64.023438 39.21875 67.027344 38.613281 66.28125 37.363281 C 65.863281 36.773438 65.257812 37.269531 64.789062 37.503906 Z M 64.789062 37.503906 " fill-opacity="1" fill-rule="nonzero"/><path fill="#5a3a1a" d="M 52.753906 37.492188 C 52.03125 37.757812 51.378906 37.816406 50.570312 37.890625 C 49.769531 37.890625 48.921875 37.90625 48.179688 37.578125 C 47.824219 37.46875 47.441406 37.671875 47.332031 38.023438 C 47.121094 38.980469 48.402344 39.085938 49.070312 39.179688 C 49.992188 39.324219 54.492188 39.308594 53.816406 37.691406 C 53.609375 37.300781 53.097656 37.234375 52.753906 37.492188 Z M 52.753906 37.492188 " fill-opacity="1" fill-rule="nonzero"/><path fill="#5a3a1a" d="M 24.925781 50.070312 C 22.121094 50.53125 19.1875 51.144531 16.914062 52.964844 C 13.601562 55.726562 13.710938 59.277344 15.816406 62.769531 C 17.066406 65.027344 18.101562 67.558594 17.898438 70.183594 C 17.882812 70.820312 17.285156 71.652344 18.144531 71.972656 C 19.507812 72.261719 19.285156 69.398438 19.222656 68.519531 C 19.074219 67.109375 18.710938 65.730469 18.148438 64.429688 C 17.40625 62.589844 16.109375 60.96875 15.742188 58.992188 C 15.226562 56.714844 16.742188 54.53125 18.636719 53.402344 C 20.742188 52.140625 23.199219 51.742188 25.582031 51.328125 C 34.09375 50.121094 42.636719 45.671875 45.125 36.882812 C 45.980469 34.242188 46.492188 31.503906 46.867188 28.753906 C 47.011719 27.726562 47.148438 26.695312 47.164062 25.65625 C 47.21875 25.449219 47.039062 25.09375 46.6875 24.984375 C 45.5625 24.773438 45.859375 26.074219 45.75 26.78125 C 45.492188 29.179688 45.105469 31.5625 44.558594 33.914062 C 43.902344 36.597656 42.941406 39.46875 41.238281 41.734375 C 37.4375 46.855469 31.035156 49.167969 24.925781 50.070312 Z M 24.925781 50.070312 " fill-opacity="1" fill-rule="nonzero"/><path fill="#5a3a1a" d="M 32.777344 43.210938 C 33.859375 42.195312 34.917969 41.132812 35.78125 39.921875 C 38.769531 35.925781 40.445312 31.125 41.136719 26.21875 C 41.363281 25.152344 39.816406 25.03125 39.777344 26.097656 C 39.140625 30.769531 37.523438 35.296875 34.699219 39.113281 C 33.890625 40.230469 32.882812 41.265625 31.859375 42.210938 C 31.589844 42.464844 31.570312 42.898438 31.820312 43.167969 C 32.066406 43.441406 32.507812 43.460938 32.777344 43.210938 Z M 32.777344 43.210938 " fill-opacity="1" fill-rule="nonzero"/><path fill="#5a3a1a" d="M 11.042969 81.5625 C 11.667969 82.207031 12.628906 81.292969 12.039062 80.648438 C 10.578125 79.242188 10.191406 77.058594 11.242188 75.292969 C 11.984375 73.933594 13.078125 72.769531 13.59375 71.292969 C 14.570312 67.898438 11.796875 65.023438 10.457031 62.152344 C 8.167969 57.195312 11.285156 52.207031 15.605469 49.65625 C 17.425781 48.558594 19.375 47.695312 21.230469 46.660156 C 23.726562 45.296875 26.070312 43.660156 28.226562 41.800781 C 29.335938 40.835938 30.398438 39.792969 31.261719 38.59375 C 32.039062 37.5 32.765625 36.339844 33.183594 35.058594 C 33.289062 34.804688 33.171875 34.40625 32.824219 34.246094 C 32.3125 34.007812 31.878906 34.445312 31.800781 34.925781 C 31.640625 35.324219 31.453125 35.707031 31.257812 36.085938 C 30.132812 38.195312 28.445312 39.902344 26.601562 41.398438 C 25.28125 42.449219 23.933594 43.449219 22.507812 44.347656 C 19.878906 46.035156 16.757812 47.246094 14.125 49.003906 C 9.933594 51.757812 7.050781 56.871094 8.890625 61.863281 C 9.574219 63.839844 10.921875 65.480469 11.796875 67.367188 C 13.226562 70.445312 12.070312 71.535156 10.402344 74.050781 C 8.742188 76.441406 8.957031 79.503906 11.042969 81.5625 Z M 11.042969 81.5625 " fill-opacity="1" fill-rule="nonzero"/><path fill="#5a3a1a" d="M 22.464844 72.945312 C 24.546875 70.523438 24.976562 67.066406 24.113281 64.050781 C 23.414062 61.554688 21.960938 59.070312 22.664062 56.40625 C 22.910156 55.367188 23.40625 54.429688 24.050781 53.605469 C 24.265625 52.910156 23.375 52.449219 22.882812 52.9375 C 21.296875 54.84375 20.78125 57.574219 21.363281 59.964844 C 21.789062 61.828125 22.722656 63.542969 23.039062 65.441406 C 23.515625 67.988281 22.839844 70.746094 20.953125 72.605469 C 19.585938 74.015625 17.925781 75.160156 16.796875 76.792969 C 15.273438 78.828125 15.542969 81.773438 17.242188 83.613281 C 17.847656 84.261719 18.832031 83.34375 18.238281 82.695312 C 16.898438 81.246094 16.765625 78.945312 18.023438 77.398438 C 19.28125 75.703125 21.132812 74.574219 22.464844 72.945312 Z M 22.464844 72.945312 " fill-opacity="1" fill-rule="nonzero"/><path fill="#5a3a1a" d="M 25.886719 75.269531 C 25.027344 77.164062 24.707031 79.457031 25.507812 81.425781 C 26.335938 83.425781 28.292969 84.621094 30.066406 85.707031 C 30.832031 86.175781 31.53125 85.03125 30.792969 84.566406 C 27.289062 82.589844 25.421875 80.539062 26.898438 76.371094 C 28.308594 73 31.332031 70.003906 30.769531 66.078125 C 30.464844 63.132812 28.460938 60.726562 27.839844 57.878906 C 27.554688 56.191406 27.71875 54.261719 28.742188 52.816406 C 28.972656 52.085938 27.976562 51.609375 27.535156 52.210938 C 26.214844 54.15625 26.105469 56.757812 26.71875 58.976562 C 27.644531 62.0625 30.09375 64.949219 29.324219 68.355469 C 28.746094 70.914062 26.964844 72.933594 25.886719 75.269531 Z M 25.886719 75.269531 " fill-opacity="1" fill-rule="nonzero"/><path fill="#5a3a1a" d="M 40.464844 83.371094 C 38.632812 82.121094 36.566406 81.203125 34.933594 79.675781 C 32.453125 77.285156 33.289062 73.375 34.378906 70.488281 C 34.730469 69.613281 35.101562 68.753906 35.550781 67.917969 C 35.925781 67.425781 36.015625 66.867188 35.332031 66.605469 C 34.449219 66.40625 34.148438 67.84375 33.777344 68.433594 C 32.257812 71.800781 30.960938 76.085938 33.035156 79.492188 C 34.640625 81.871094 37.457031 82.925781 39.738281 84.511719 C 40.496094 84.976562 41.199219 83.859375 40.464844 83.371094 Z M 40.464844 83.371094 " fill-opacity="1" fill-rule="nonzero"/><path fill="#5a3a1a" d="M 31.757812 51.527344 C 30.671875 56.214844 34.289062 59.117188 37.078125 62.183594 C 38.871094 64.390625 38.644531 67.582031 37.660156 70.09375 C 36.828125 72.148438 35.710938 74.242188 36.195312 76.527344 C 36.316406 77.417969 37.617188 77.257812 37.542969 76.386719 C 37.472656 75.851562 37.421875 75.3125 37.453125 74.769531 C 37.558594 73.871094 37.90625 73.039062 38.253906 72.207031 C 39.128906 70.210938 39.90625 68.09375 39.75 65.878906 C 39.769531 61.496094 36.082031 59.859375 33.992188 56.605469 C 33.160156 55.226562 32.664062 53.523438 33.050781 51.925781 C 33.296875 51.066406 32.046875 50.691406 31.757812 51.527344 Z M 31.757812 51.527344 " fill-opacity="1" fill-rule="nonzero"/><path fill="#5a3a1a" d="M 36.59375 49.394531 C 35.589844 49.195312 35.546875 50.46875 35.648438 51.226562 C 35.929688 53.457031 37.417969 55.304688 39.132812 56.65625 C 41.101562 58.171875 43.308594 59.640625 44.359375 61.988281 C 45.484375 64.820312 44.808594 67.925781 43.835938 70.730469 C 43.582031 71.386719 43.292969 72.027344 43 72.660156 C 42.84375 72.996094 42.992188 73.40625 43.328125 73.558594 C 43.65625 73.714844 44.070312 73.566406 44.226562 73.230469 C 44.5625 72.507812 44.890625 71.777344 45.167969 71.027344 C 45.882812 69.007812 46.328125 66.945312 46.285156 64.753906 C 46.328125 61.761719 44.550781 59.164062 42.269531 57.367188 C 40.941406 56.261719 39.429688 55.363281 38.332031 54.003906 C 37.535156 52.972656 36.824219 51.664062 37.011719 50.320312 C 37.175781 49.957031 36.980469 49.507812 36.59375 49.394531 Z M 36.59375 49.394531 " fill-opacity="1" fill-rule="nonzero"/><path fill="#5a3a1a" d="M 60.746094 75.875 C 63.140625 76.398438 65.546875 77.066406 67.539062 78.5625 C 67.839844 78.769531 68.277344 78.65625 68.472656 78.355469 C 68.953125 77.414062 67.515625 77.023438 66.941406 76.578125 C 64.582031 75.136719 61.777344 74.917969 59.226562 73.984375 C 55.347656 72.773438 54.207031 69.089844 54.027344 65.390625 C 54.007812 64.542969 53.992188 63.691406 54.042969 62.847656 C 54.164062 62.453125 53.914062 62.027344 53.503906 61.953125 C 52.621094 61.84375 52.65625 62.90625 52.664062 63.515625 C 52.589844 67.328125 53.148438 71.957031 56.625 74.210938 C 57.886719 74.996094 59.308594 75.515625 60.746094 75.875 Z M 60.746094 75.875 " fill-opacity="1" fill-rule="nonzero"/><path fill="#5a3a1a" d="M 44.535156 56.988281 C 44.1875 56.871094 43.796875 57.089844 43.691406 57.4375 C 43.097656 59.242188 53.644531 61.507812 55.226562 61.621094 C 57.347656 61.859375 59.546875 61.785156 61.574219 61.070312 C 62.203125 60.855469 62.820312 60.625 63.414062 60.324219 C 64.191406 59.890625 63.566406 58.734375 62.777344 59.128906 C 60.59375 60.230469 58.167969 60.5625 55.707031 60.3125 C 52.125 59.804688 48.484375 58.964844 45.207031 57.382812 C 44.957031 57.257812 44.816406 57.105469 44.535156 56.988281 Z M 44.535156 56.988281 " fill-opacity="1" fill-rule="nonzero"/><path fill="#5a3a1a" d="M 57.746094 62.484375 C 57.574219 62.742188 57.636719 63.082031 57.683594 63.367188 C 57.941406 65.234375 58.921875 66.921875 60.359375 68.136719 C 61.039062 68.699219 61.894531 67.675781 61.226562 67.097656 C 60.539062 66.476562 59.945312 65.796875 59.539062 64.945312 C 59.265625 64.3125 59.085938 63.636719 58.992188 62.957031 C 59.109375 62.242188 58.136719 61.867188 57.746094 62.484375 Z M 57.746094 62.484375 " fill-opacity="1" fill-rule="nonzero"/><path fill="#5a3a1a" d="M 62.28125 62.609375 C 62.359375 61.816406 61.191406 61.589844 60.964844 62.355469 C 60.851562 63.890625 62.070312 65.285156 63.09375 66.320312 C 66.046875 69.019531 68.347656 70.019531 68.257812 74.539062 C 68.273438 74.90625 68.648438 75.179688 69 75.144531 C 69.980469 74.953125 69.484375 73.703125 69.503906 73.007812 C 69.265625 67.492188 63.523438 66.804688 62.28125 62.609375 Z M 62.28125 62.609375 " fill-opacity="1" fill-rule="nonzero"/><path fill="#5a3a1a" d="M 68.40625 60.171875 C 69.707031 62.808594 72.128906 64.6875 73.453125 67.296875 C 74.171875 69.058594 74.101562 71.019531 73.703125 72.871094 C 73.363281 74.265625 72.820312 75.609375 72.636719 77.039062 C 72.351562 79.089844 72.664062 81.277344 73.761719 83.0625 C 74.210938 83.847656 75.359375 83.195312 74.957031 82.425781 C 74.0625 81 73.78125 79.261719 73.929688 77.601562 C 74.058594 76.238281 74.550781 74.957031 74.902344 73.644531 C 75.714844 70.652344 75.546875 67.1875 73.453125 64.75 C 71.761719 62.511719 69.503906 60.433594 68.917969 57.574219 C 68.507812 55.234375 69.371094 52.992188 70.046875 50.730469 C 70.449219 49.394531 70.828125 48.050781 71.140625 46.691406 C 71.359375 45.582031 71.996094 43.058594 71.105469 42.226562 C 70.675781 41.941406 70.066406 42.269531 70.066406 42.777344 C 70.097656 43.078125 70.203125 43.371094 70.191406 43.675781 C 70.144531 45.859375 69.453125 47.835938 68.863281 49.96875 C 67.8125 53.242188 66.582031 56.9375 68.40625 60.171875 Z M 68.40625 60.171875 " fill-opacity="1" fill-rule="nonzero"/><path fill="#5a3a1a" d="M 63.390625 23.945312 C 62.195312 23.957031 62.585938 25.734375 62.585938 26.546875 C 62.6875 27.984375 63.144531 29.378906 63.851562 30.632812 C 64.894531 32.460938 66.414062 33.949219 67.984375 35.324219 C 70.761719 37.695312 74.203125 39.871094 75.035156 43.710938 C 75.472656 45.605469 75.253906 47.554688 74.925781 49.445312 C 74.597656 51.363281 73.972656 53.484375 74.445312 55.453125 C 74.941406 57.558594 76.445312 59.1875 77.660156 60.90625 C 79.207031 63.0625 79.855469 65.628906 79.683594 68.28125 C 79.648438 68.921875 79.578125 69.550781 79.472656 70.179688 C 79.335938 70.605469 79.410156 71.140625 79.914062 71.265625 C 80.257812 71.351562 80.660156 71.136719 80.730469 70.773438 C 80.914062 69.855469 81.015625 68.9375 81.042969 68.003906 C 81.148438 65.667969 80.664062 63.289062 79.480469 61.261719 C 78.539062 59.585938 77.15625 58.199219 76.265625 56.492188 C 75.261719 54.703125 75.671875 52.628906 76.058594 50.730469 C 76.601562 47.957031 77.039062 45.003906 76.015625 42.289062 C 74.058594 36.660156 67.46875 34.765625 64.820312 29.582031 C 64.140625 28.257812 63.863281 26.757812 63.890625 25.277344 C 63.886719 25.074219 63.941406 24.886719 63.988281 24.691406 C 64.03125 24.308594 63.753906 24.007812 63.390625 23.945312 Z M 63.390625 23.945312 " fill-opacity="1" fill-rule="nonzero"/><path fill="#5a3a1a" d="M 66.625 21.726562 C 66.328125 21.304688 66.304688 20.605469 65.625 20.679688 C 65.269531 20.714844 64.976562 21.058594 65.023438 21.449219 C 65.863281 23.898438 68.746094 25.488281 70.789062 26.921875 C 76.644531 30.765625 81.03125 35.648438 80.871094 43.058594 C 80.726562 46.746094 79.886719 50.566406 81.269531 54.132812 C 82.589844 58.1875 86.066406 61.460938 86.25 65.863281 C 86.265625 67.207031 86.085938 68.554688 85.835938 69.875 C 85.726562 70.246094 85.902344 70.664062 86.296875 70.769531 C 86.640625 70.863281 87.046875 70.65625 87.128906 70.296875 C 87.296875 69.554688 87.390625 68.796875 87.476562 68.042969 C 88.34375 63.203125 85.4375 59.621094 83.347656 55.597656 C 82.003906 53 81.59375 50.039062 81.921875 47.148438 C 83.464844 36.511719 79.167969 30.621094 70.46875 25.085938 C 69.089844 24.128906 67.613281 23.125 66.625 21.726562 Z M 66.625 21.726562 " fill-opacity="1" fill-rule="nonzero"/><path fill="#5a3a1a" d="M 26.191406 32.421875 C 25.921875 33.8125 25.753906 35.214844 25.574219 36.621094 C 25.53125 36.984375 25.824219 37.324219 26.183594 37.359375 C 26.550781 37.398438 26.878906 37.121094 26.921875 36.753906 C 27.054688 35.707031 27.179688 34.660156 27.347656 33.621094 C 27.566406 32.363281 27.863281 31.132812 28.234375 29.914062 C 30.085938 23.9375 34.992188 19.21875 41.289062 18.355469 C 41.601562 18.332031 41.921875 18.289062 42.226562 18.375 C 43.085938 18.464844 43.242188 17.15625 42.390625 17.03125 C 42.441406 17.039062 42.488281 17.054688 42.539062 17.070312 C 41.605469 16.8125 40.605469 17.085938 39.679688 17.269531 C 38.304688 17.609375 36.976562 18.117188 35.714844 18.757812 C 30.46875 21.324219 27.234375 26.8125 26.195312 32.421875 Z M 26.191406 32.421875 " fill-opacity="1" fill-rule="nonzero"/><path fill="#5a3a1a" d="M 7.1875 50.746094 C 7.933594 51.019531 8.144531 50.140625 8.375 49.625 C 10.605469 43.921875 17.0625 43.542969 21.8125 41.027344 C 22.269531 40.699219 22.835938 40.386719 23.054688 39.84375 C 23.207031 39.269531 22.523438 38.789062 22.027344 39.109375 C 21.019531 40.160156 19.617188 40.617188 18.257812 41.085938 C 18.144531 39.632812 18.085938 38.175781 18.136719 36.714844 C 18.441406 28.167969 22.960938 20.453125 30.644531 16.515625 C 31.714844 15.972656 32.785156 15.445312 33.9375 15.101562 C 34.253906 15.078125 34.523438 14.804688 34.554688 14.488281 C 34.46875 13.003906 32.546875 14.21875 31.769531 14.46875 C 20.8125 19.199219 15.636719 29.960938 16.9375 41.566406 C 13.976562 42.667969 10.859375 43.78125 8.800781 46.292969 C 7.960938 47.3125 7.320312 48.632812 6.800781 49.871094 C 6.664062 50.210938 6.847656 50.613281 7.1875 50.746094 Z M 7.1875 50.746094 " fill-opacity="1" fill-rule="nonzero"/><path fill="#5a3a1a" d="M 54.121094 84.613281 C 54.417969 85.03125 54.382812 85.59375 54.761719 85.949219 C 54.910156 86.058594 55.097656 86.101562 55.273438 86.074219 C 56.609375 85.703125 55.160156 83.773438 54.777344 83.070312 C 53.921875 81.710938 52.664062 80.566406 51.113281 80.078125 C 50.671875 79.949219 50.246094 80.296875 50.246094 80.753906 C 50.242188 81.28125 50.789062 81.378906 51.171875 81.542969 C 52.503906 82.144531 53.441406 83.332031 54.121094 84.613281 Z M 54.121094 84.613281 " fill-opacity="1" fill-rule="nonzero"/><path fill="#c98a3a" d="M 20.8125 87.5625 C 28.828125 93.082031 38.230469 96 48 96 C 59.207031 96 70.113281 92.054688 78.710938 84.890625 C 79.007812 84.644531 79.046875 84.203125 78.800781 83.90625 C 78.550781 83.609375 78.109375 83.566406 77.8125 83.816406 C 69.46875 90.769531 58.878906 94.597656 48 94.597656 C 38.515625 94.597656 29.390625 91.765625 21.605469 86.410156 C 21.289062 86.191406 20.851562 86.269531 20.632812 86.589844 C 20.414062 86.90625 20.492188 87.34375 20.8125 87.5625 Z M 20.8125 87.5625 " fill-opacity="1" fill-rule="nonzero"/><path fill="#c98a3a" d="M 84.523438 16.851562 C 84.273438 16.558594 83.828125 16.523438 83.535156 16.773438 C 83.242188 17.027344 83.207031 17.46875 83.457031 17.761719 C 90.640625 26.179688 94.597656 36.917969 94.597656 48 C 94.597656 58.675781 91.085938 68.71875 84.441406 77.042969 C 84.199219 77.347656 84.25 77.789062 84.550781 78.03125 C 84.679688 78.132812 84.835938 78.183594 84.988281 78.183594 C 85.195312 78.183594 85.398438 78.09375 85.535156 77.917969 C 92.382812 69.34375 96 58.996094 96 48 C 96 36.585938 91.925781 25.523438 84.523438 16.851562 Z M 84.523438 16.851562 " fill-opacity="1" fill-rule="nonzero"/><path fill="#c98a3a" d="M 7.503906 73.152344 C 7.625 73.152344 7.75 73.117188 7.863281 73.050781 C 8.195312 72.847656 8.300781 72.417969 8.101562 72.085938 C 3.71875 64.84375 1.402344 56.511719 1.402344 48 C 1.402344 22.304688 22.304688 1.402344 48 1.402344 C 57.820312 1.402344 67.214844 4.421875 75.164062 10.132812 C 75.476562 10.359375 75.914062 10.289062 76.140625 9.972656 C 76.367188 9.660156 76.296875 9.21875 75.980469 8.996094 C 67.792969 3.109375 58.117188 0 48 0 C 21.53125 0 0 21.53125 0 48 C 0 56.769531 2.386719 65.347656 6.902344 72.8125 C 7.035156 73.03125 7.265625 73.152344 7.503906 73.152344 Z M 7.503906 73.152344 " fill-opacity="1" fill-rule="nonzero"/><path fill="#a66a2c" d="M 74.316406 12.566406 C 73.929688 12.566406 73.613281 12.882812 73.613281 13.269531 C 73.613281 13.65625 73.929688 13.96875 74.316406 13.96875 L 74.855469 13.96875 C 77.320312 13.96875 79.328125 15.972656 79.328125 18.4375 L 79.328125 18.980469 C 79.328125 19.367188 79.640625 19.679688 80.027344 19.679688 C 80.414062 19.679688 80.730469 19.367188 80.730469 18.980469 L 80.730469 18.4375 C 80.730469 15.972656 82.734375 13.96875 85.199219 13.96875 L 85.742188 13.96875 C 86.128906 13.96875 86.441406 13.65625 86.441406 13.269531 C 86.441406 12.882812 86.128906 12.566406 85.742188 12.566406 L 85.199219 12.566406 C 82.734375 12.566406 80.730469 10.5625 80.730469 8.097656 L 80.730469 7.554688 C 80.730469 7.167969 80.414062 6.855469 80.027344 6.855469 C 79.640625 6.855469 79.328125 7.167969 79.328125 7.554688 L 79.328125 8.097656 C 79.328125 10.5625 77.320312 12.566406 74.855469 12.566406 Z M 80.027344 10.875 C 80.574219 11.886719 81.410156 12.722656 82.421875 13.269531 C 81.410156 13.8125 80.574219 14.648438 80.027344 15.660156 C 79.480469 14.648438 78.648438 13.816406 77.636719 13.269531 C 78.648438 12.722656 79.480469 11.886719 80.027344 10.875 Z M 80.027344 10.875 " fill-opacity="1" fill-rule="nonzero"/><path fill="#c98a3a" d="M 48 91.613281 C 48.386719 91.613281 48.699219 91.300781 48.699219 90.910156 L 48.699219 90.183594 C 48.699219 89.234375 49.472656 88.460938 50.425781 88.460938 L 51.152344 88.460938 C 51.539062 88.460938 51.855469 88.144531 51.855469 87.757812 C 51.855469 87.371094 51.539062 87.058594 51.152344 87.058594 L 50.425781 87.058594 C 49.472656 87.058594 48.699219 86.285156 48.699219 85.332031 L 48.699219 84.605469 C 48.699219 84.21875 48.386719 83.90625 48 83.90625 C 47.613281 83.90625 47.300781 84.21875 47.300781 84.605469 L 47.300781 85.332031 C 47.300781 86.285156 46.527344 87.058594 45.574219 87.058594 L 44.847656 87.058594 C 44.460938 87.058594 44.144531 87.371094 44.144531 87.757812 C 44.144531 88.144531 44.460938 88.460938 44.847656 88.460938 L 45.574219 88.460938 C 46.527344 88.460938 47.300781 89.234375 47.300781 90.183594 L 47.300781 90.910156 C 47.300781 91.300781 47.613281 91.613281 48 91.613281 Z M 47.542969 87.757812 C 47.710938 87.621094 47.863281 87.46875 48 87.300781 C 48.136719 87.46875 48.289062 87.621094 48.457031 87.757812 C 48.289062 87.894531 48.136719 88.046875 48 88.214844 C 47.863281 88.046875 47.710938 87.894531 47.542969 87.757812 Z M 47.542969 87.757812 " fill-opacity="1" fill-rule="nonzero"/><path fill="#5a3a1a" d="M 10.160156 31.054688 C 9.773438 31.054688 9.460938 31.367188 9.460938 31.753906 L 9.460938 32.175781 C 9.460938 34.011719 7.964844 35.507812 6.128906 35.507812 L 5.703125 35.507812 C 5.316406 35.507812 5.003906 35.824219 5.003906 36.210938 C 5.003906 36.597656 5.316406 36.910156 5.703125 36.910156 L 6.128906 36.910156 C 7.964844 36.910156 9.460938 38.40625 9.460938 40.242188 L 9.460938 40.664062 C 9.460938 41.050781 9.773438 41.367188 10.160156 41.367188 C 10.546875 41.367188 10.859375 41.050781 10.859375 40.664062 L 10.859375 40.242188 C 10.859375 38.40625 12.355469 36.910156 14.195312 36.910156 L 14.617188 36.910156 C 15.003906 36.910156 15.316406 36.597656 15.316406 36.210938 C 15.316406 35.824219 15.003906 35.507812 14.617188 35.507812 L 14.195312 35.507812 C 12.355469 35.507812 10.859375 34.011719 10.859375 32.175781 L 10.859375 31.753906 C 10.859375 31.367188 10.546875 31.054688 10.160156 31.054688 Z M 11.726562 36.210938 C 11.089844 36.601562 10.550781 37.136719 10.160156 37.777344 C 9.769531 37.136719 9.230469 36.601562 8.59375 36.210938 C 9.230469 35.816406 9.769531 35.28125 10.160156 34.640625 C 10.550781 35.28125 11.089844 35.816406 11.726562 36.210938 Z M 11.726562 36.210938 " fill-opacity="1" fill-rule="nonzero"/><path fill="#c98a3a" d="M 85.128906 44.230469 C 85.144531 44.585938 85.304688 44.921875 85.566406 45.160156 C 85.839844 45.414062 86.183594 45.511719 86.550781 45.511719 C 87.289062 45.511719 87.867188 44.796875 87.832031 44.089844 C 87.8125 43.738281 87.652344 43.402344 87.390625 43.164062 C 87.117188 42.910156 86.773438 42.808594 86.40625 42.808594 C 85.671875 42.808594 85.089844 43.527344 85.128906 44.230469 Z M 85.128906 44.230469 " fill-opacity="1" fill-rule="nonzero"/><path fill="#c98a3a" d="M 40.667969 8.808594 C 40.648438 8.457031 40.488281 8.121094 40.230469 7.882812 C 39.953125 7.628906 39.613281 7.53125 39.246094 7.53125 C 38.507812 7.53125 37.929688 8.246094 37.964844 8.953125 C 37.984375 9.304688 38.144531 9.640625 38.402344 9.878906 C 38.679688 10.132812 39.023438 10.230469 39.386719 10.230469 C 40.125 10.230469 40.703125 9.515625 40.667969 8.808594 Z M 40.667969 8.808594 " fill-opacity="1" fill-rule="nonzero"/><path fill="#c98a3a" d="M 35.957031 87.554688 C 35.972656 87.910156 36.132812 88.246094 36.394531 88.484375 C 36.667969 88.734375 37.011719 88.835938 37.378906 88.835938 C 38.113281 88.835938 38.695312 88.121094 38.65625 87.414062 C 38.640625 87.058594 38.480469 86.726562 38.21875 86.484375 C 37.945312 86.234375 37.601562 86.132812 37.234375 86.132812 C 36.496094 86.132812 35.917969 86.847656 35.957031 87.554688 Z M 35.957031 87.554688 " fill-opacity="1" fill-rule="nonzero"/><path fill="#c98a3a" d="M 81.726562 86.058594 C 82.113281 86.058594 82.425781 85.746094 82.425781 85.359375 L 82.425781 84.9375 C 82.425781 83.101562 83.921875 81.605469 85.761719 81.605469 L 86.183594 81.605469 C 86.570312 81.605469 86.882812 81.289062 86.882812 80.902344 C 86.882812 80.515625 86.570312 80.203125 86.183594 80.203125 L 85.761719 80.203125 C 83.921875 80.203125 82.425781 78.707031 82.425781 76.871094 L 82.425781 76.449219 C 82.425781 76.0625 82.113281 75.746094 81.726562 75.746094 C 81.339844 75.746094 81.027344 76.0625 81.027344 76.449219 L 81.027344 76.871094 C 81.027344 78.707031 79.53125 80.203125 77.691406 80.203125 L 77.269531 80.203125 C 76.882812 80.203125 76.570312 80.515625 76.570312 80.902344 C 76.570312 81.289062 76.882812 81.605469 77.269531 81.605469 L 77.691406 81.605469 C 79.53125 81.605469 81.027344 83.101562 81.027344 84.9375 L 81.027344 85.359375 C 81.027344 85.746094 81.339844 86.058594 81.726562 86.058594 Z M 80.160156 80.902344 C 80.796875 80.511719 81.335938 79.976562 81.726562 79.335938 C 82.117188 79.976562 82.65625 80.511719 83.292969 80.902344 C 82.65625 81.296875 82.117188 81.832031 81.726562 82.472656 C 81.335938 81.832031 80.796875 81.296875 80.160156 80.902344 Z M 80.160156 80.902344 " fill-opacity="1" fill-rule="nonzero"/></svg>